<svg width="150.000000" height="210.000000" id="card-webclub2">
<radialGradient id="card-webwhitegradient" cx="75.0" cy="105.0" r="150" gradientTransform="matrix(1 0 0 1 0 -.25)" gradientUnits="userSpaceOnUse">
<stop stop-color="#FDFAF4" offset=".15"/>
<stop stop-color="#FDF9F2" offset=".35"/>
<stop stop-color="#FCF7F1" offset=".5"/>
<stop stop-color="#FDFDF8" offset=".75"/>
<stop stop-color="#FFFDFA" offset="1"/>
</radialGradient>
<rect x="0" y="0" rx="7.5" ry="7.5" width="150" height="210.0" stroke="rgba(1,1,1,0.333)" fill="url(#card-webwhitegradient)" />
<path d="M74.405099 37.528329C74.376771 38.378187 74.34136 39.065157 74.298867 39.589235C74.256374 40.113313 74.150142 40.779037 73.98017 41.586402S73.604816 43.059492 73.364023 43.583569S72.762038 44.695469 72.280453 45.347025S71.232293 46.536827 70.580737 46.961756S69.107647 47.797452 68.116147 48.194051S65.991501 48.902268 64.716714 49.128895V49.978754H85.283286V49.128895C84.008499 48.902266 82.875353 48.583571 81.883853 48.172805S80.063741 47.344193 79.398017 46.919263S78.165722 45.94901 77.6983 45.283286S76.869688 44.029745 76.614731 43.51983S76.154392 42.344191 75.998584 41.522663S75.743626 40.042494 75.701133 39.546742C75.65864 39.05099 75.62323 38.378187 75.594901 37.528329C76.274788 38.774786 76.827195 39.652975 77.252125 40.16289C78.016997 41.126064 78.958925 41.890936 80.077904 42.457507C81.196882 43.024078 82.294619 43.307365 83.371105 43.307365C85.184137 43.307365 86.742208 42.634562 88.045326 41.288952S90.0 38.321531 90.0 36.423513C90.0 34.582154 89.412183 33.009916 88.236544 31.706799S85.637392 29.752125 83.966006 29.752125C83.399435 29.752125 82.875353 29.830028 82.393768 29.985836S81.430593 30.339943 80.949008 30.580737L80.056657 31.026912C81.161473 29.440511 81.713881 27.939092 81.713881 26.522663C81.713881 24.73796 81.055241 23.208215 79.73796 21.933428S76.841358 20.021246 75.0 20.021246S71.57932 20.65864 70.26204 21.933428S68.286119 24.73796 68.286119 26.522663C68.286119 27.939092 68.838527 29.440511 69.943343 31.026912C69.745042 30.941926 69.468837 30.814448 69.114731 30.644476S68.498584 30.347025 68.328612 30.26204S67.939093 30.092068 67.669972 30.007082S67.13881 29.858357 66.883853 29.815864S66.345608 29.752125 66.033994 29.752125C64.362608 29.752125 62.939095 30.403681 61.763456 31.706799S60.0 34.582154 60.0 36.423513C60.0 38.321531 60.651557 39.943341 61.954674 41.288952S64.815863 43.307365 66.628895 43.307365C69.745041 43.307365 72.337096 41.381021 74.405099 37.528329Z" fill="#010101" />
<path d="M75.594901 172.471671C75.623229 171.621813 75.65864 170.934843 75.701133 170.410765C75.743626 169.886687 75.849858 169.220963 76.01983 168.413598S76.395184 166.940508 76.635977 166.416431S77.237962 165.304531 77.719547 164.652975S78.767707 163.463173 79.419263 163.038244S80.892353 162.202548 81.883853 161.805949S84.008499 161.097732 85.283286 160.871105V160.021246H64.716714V160.871105C65.991501 161.097734 67.124647 161.416429 68.116147 161.827195S69.936259 162.655807 70.601983 163.080737S71.834278 164.05099 72.3017 164.716714S73.130312 165.970255 73.385269 166.48017S73.845608 167.655809 74.001416 168.477337S74.256374 169.957506 74.298867 170.453258C74.34136 170.94901 74.37677 171.621813 74.405099 172.471671C73.725212 171.225214 73.172805 170.347025 72.747875 169.83711C71.983003 168.873936 71.041075 168.109064 69.922096 167.542493C68.803118 166.975922 67.705381 166.692635 66.628895 166.692635C64.815863 166.692635 63.257792 167.365438 61.954674 168.711048S60.0 171.678469 60.0 173.576487C60.0 175.417846 60.587817 176.990084 61.763456 178.293201S64.362608 180.247875 66.033994 180.247875C66.600565 180.247875 67.124647 180.169972 67.606232 180.014164S68.569407 179.660057 69.050992 179.419263L69.943343 178.973088C68.838527 180.559489 68.286119 182.060908 68.286119 183.477337C68.286119 185.26204 68.944759 186.791785 70.26204 188.066572S73.158642 189.978754 75.0 189.978754S78.42068 189.34136 79.73796 188.066572S81.713881 185.26204 81.713881 183.477337C81.713881 182.060908 81.161473 180.559489 80.056657 178.973088C80.254958 179.058074 80.531163 179.185552 80.885269 179.355524S81.501416 179.652975 81.671388 179.73796S82.060907 179.907932 82.330028 179.992918S82.86119 180.141643 83.116147 180.184136S83.654392 180.247875 83.966006 180.247875C85.637392 180.247875 87.060905 179.596319 88.236544 178.293201S90.0 175.417846 90.0 173.576487C90.0 171.678469 89.348443 170.056659 88.045326 168.711048S85.184137 166.692635 83.371105 166.692635C80.254959 166.692635 77.662904 168.618979 75.594901 172.471671Z" fill="#010101" />
<path d="M146.023585 24.628985Q145.983962 23.796909 145.567925 23.281815T144.200943 22.132758Q141.070755 20.032758 139.34717 18.665777T136.236792 15.198796T134.85 10.483702Q134.85 8.581815 135.860377 7.531815T138.693396 6.481815Q140.238679 6.481815 141.249057 7.254457T142.259434 9.374268Q142.259434 10.047853 141.942453 10.503513T141.288679 11.236532T140.951887 11.553513Q140.951887 11.830872 141.486792 12.227098T142.774528 12.623325Q144.00283 12.623325 144.735849 11.850683T145.468868 9.889362Q145.468868 8.304457 144.399057 7.195023T141.684906 5.570494T138.336792 5.0554Q135.365094 5.0554 133.20566 6.521438T131.046226 10.998796Q131.046226 13.178042 132.234906 14.96106T135.067925 17.992192T139.366981 20.944079Q141.466981 22.251626 142.49717 23.044079V23.242192H131.878302Q130.887736 23.242192 130.432075 23.460117T129.976415 24.628985Q129.976415 26.0554 131.363208 26.0554H144.636792Q146.023585 26.0554 146.023585 24.628985Z" fill="#010101" />
<path d="M137.687677 40.994039C137.672805 41.440215 137.654214 41.800874 137.631905 42.076015C137.609596 42.351156 137.553824 42.700661 137.464589 43.124528S137.267528 43.8979 137.141112 44.173041S136.82507 44.756788 136.572238 45.098855S136.021954 45.723501 135.679887 45.946589S134.906515 46.385329 134.385977 46.593543S133.270538 46.965357 132.601275 47.084337V47.530512H143.398725V47.084337C142.729462 46.965357 142.13456 46.798041 141.614023 46.582389S140.658464 46.147368 140.308959 45.92428S139.662004 45.414897 139.416608 45.065392S138.981586 44.407283 138.847734 44.139577S138.606056 43.522367 138.524256 43.091065S138.390404 42.313976 138.368095 42.053706C138.345786 41.793436 138.327196 41.440215 138.312323 40.994039C138.669263 41.648429 138.959278 42.109478 139.182365 42.377184C139.583924 42.88285 140.078436 43.284408 140.665899 43.581858C141.253363 43.879308 141.829675 44.028034 142.39483 44.028034C143.346672 44.028034 144.164659 43.674812 144.848796 42.968366S145.875 41.410471 145.875 40.414011C145.875 39.447298 145.566396 38.621873 144.949186 37.937736S143.584631 36.911532 142.707153 36.911532C142.409703 36.911532 142.13456 36.952431 141.881728 37.03423S141.376062 37.220137 141.123229 37.346553L140.654745 37.580796C141.234773 36.747935 141.524788 35.95969 141.524788 35.216065C141.524788 34.279096 141.179001 33.47598 140.487429 32.806716S138.966713 31.802821 138.0 31.802821S136.204143 32.137453 135.512571 32.806716S134.475212 34.279096 134.475212 35.216065C134.475212 35.95969 134.765227 36.747935 135.345255 37.580796C135.241147 37.536178 135.096139 37.469252 134.910234 37.380017S134.586756 37.223855 134.497521 37.179237S134.293024 37.090002 134.151735 37.045385S133.872875 36.967304 133.739023 36.944995S133.456444 36.911532 133.292847 36.911532C132.415369 36.911532 131.668025 37.253599 131.050814 37.937736S130.125 39.447298 130.125 40.414011C130.125 41.410471 130.467067 42.261921 131.151204 42.968366S132.653328 44.028034 133.60517 44.028034C135.241147 44.028034 136.601976 43.016703 137.687677 40.994039Z" fill="#010101" />
<path d="M3.976415 185.371015Q4.016038 186.203091 4.432075 186.718185T5.799057 187.867242Q8.929245 189.967242 10.65283 191.334223T13.763208 194.801204T15.15 199.516298Q15.15 201.418185 14.139623 202.468185T11.306604 203.518185Q9.761321 203.518185 8.750943 202.745543T7.740566 200.625732Q7.740566 199.952147 8.057547 199.496487T8.711321 198.763468T9.048113 198.446487Q9.048113 198.169128 8.513208 197.772902T7.225472 197.376675Q5.99717 197.376675 5.264151 198.149317T4.531132 200.110638Q4.531132 201.695543 5.600943 202.804977T8.315094 204.429506T11.663208 204.9446Q14.634906 204.9446 16.79434 203.478562T18.953774 199.001204Q18.953774 196.821958 17.765094 195.03894T14.932075 192.007808T10.633019 189.055921Q8.533019 187.748374 7.50283 186.955921V186.757808H18.121698Q19.112264 186.757808 19.567925 186.539883T20.023585 185.371015Q20.023585 183.9446 18.636792 183.9446H5.363208Q3.976415 183.9446 3.976415 185.371015Z" fill="#010101" />
<path d="M12.312323 169.005961C12.327195 168.559785 12.345786 168.199126 12.368095 167.923985C12.390404 167.648844 12.446176 167.299339 12.535411 166.875472S12.732472 166.1021 12.858888 165.826959S13.17493 165.243212 13.427762 164.901145S13.978046 164.276499 14.320113 164.053411S15.093485 163.614671 15.614023 163.406457S16.729462 163.034643 17.398725 162.915663V162.469488H6.601275V162.915663C7.270538 163.034643 7.86544 163.201959 8.385977 163.417611S9.341536 163.852632 9.691041 164.07572S10.337996 164.585103 10.583392 164.934608S11.018414 165.592717 11.152266 165.860423S11.393944 166.477633 11.475744 166.908935S11.609596 167.686024 11.631905 167.946294C11.654214 168.206564 11.672804 168.559785 11.687677 169.005961C11.330737 168.351571 11.040722 167.890522 10.817635 167.622816C10.416076 167.11715 9.921564 166.715592 9.334101 166.418142C8.746637 166.120692 8.170325 165.971966 7.60517 165.971966C6.653328 165.971966 5.835341 166.325188 5.151204 167.031634S4.125 168.589529 4.125 169.585989C4.125 170.552702 4.433604 171.378127 5.050814 172.062264S6.415369 173.088468 7.292847 173.088468C7.590297 173.088468 7.86544 173.047569 8.118272 172.96577S8.623938 172.779863 8.876771 172.653447L9.345255 172.419204C8.765227 173.252065 8.475212 174.04031 8.475212 174.783935C8.475212 175.720904 8.820999 176.52402 9.512571 177.193284S11.033287 178.197179 12.0 178.197179S13.795857 177.862547 14.487429 177.193284S15.524788 175.720904 15.524788 174.783935C15.524788 174.04031 15.234773 173.252065 14.654745 172.419204C14.758853 172.463822 14.903861 172.530748 15.089766 172.619983S15.413244 172.776145 15.502479 172.820763S15.706976 172.909998 15.848265 172.954615S16.127125 173.032696 16.260977 173.055005S16.543556 173.088468 16.707153 173.088468C17.584631 173.088468 18.331975 172.746401 18.949186 172.062264S19.875 170.552702 19.875 169.585989C19.875 168.589529 19.532933 167.738079 18.848796 167.031634S17.346672 165.971966 16.39483 165.971966C14.758853 165.971966 13.398024 166.983297 12.312323 169.005961Z" fill="#010101" />
</svg>
