<svg width="150.000000" height="210.000000" id="card-webdiamond13">
<radialGradient id="card-webwhitegradient" cx="75.0" cy="105.0" r="150" gradientTransform="matrix(1 0 0 1 0 -.25)" gradientUnits="userSpaceOnUse">
<stop stop-color="#FDFAF4" offset=".15"/>
<stop stop-color="#FDF9F2" offset=".35"/>
<stop stop-color="#FCF7F1" offset=".5"/>
<stop stop-color="#FDFDF8" offset=".75"/>
<stop stop-color="#FFFDFA" offset="1"/>
</radialGradient>
<rect x="0" y="0" rx="7.5" ry="7.5" width="150" height="210.0" stroke="rgba(1,1,1,0.333)" fill="url(#card-webwhitegradient)" />
<rect x="30.0" y="21.0" width="90.0" height="168.0" stroke="#010101" fill="#fffdfa" />
<path d="M60.062587 55.897571C59.394993 55.897571 58.560501 56.050561 57.55911 56.356541S55.431154 57.135401 54.179416 57.775178S51.870651 59.458074 51.008345 60.904525S49.714882 64.01996 49.714882 65.911479C49.714882 67.413565 49.979138 68.748753 50.50765 69.917042S51.68985 72.142358 52.468707 73.088113C53.247566 74.033868 54.040331 75.090895 54.84701 76.259184S56.37691 79.110369 57.01669 81.307863S58.031992 86.106194 58.143255 89.110366C58.25452 92.837768 63.873438 94.701465 75.0 94.701465C86.07096 94.701465 91.689847 92.837768 91.856745 89.110366C92.079277 85.216066 92.649513 82.017181 93.567455 79.513704S95.431152 75.313429 96.404729 74.423301S98.268426 72.392706 99.075104 71.001882S100.285118 67.914261 100.285118 65.911479C100.285118 63.964333 99.853964 62.267526 98.991655 60.821076S97.072323 58.33151 95.820584 57.691729S93.42837 56.592978 92.399166 56.314817S90.493744 55.897571 89.770515 55.897571C87.044503 55.897571 84.318501 56.982411 81.59249 59.152091C81.59249 56.537351 81.342142 54.687557 80.841446 53.602717S79.061199 51.307863 77.002782 49.972675V47.969893L80.4242 45.967112V42.962939H77.336579L76.251739 39.791868H73.748261L72.663421 42.962939H69.5758V45.967112L72.997218 47.969893V49.972675C70.938801 51.252227 69.659249 52.490063 69.158554 53.686166S68.40751 56.704249 68.40751 59.152091C67.684283 58.428864 66.529903 57.70564 64.944367 56.982411S61.731572 55.897571 60.062587 55.897571ZM75.0 66.579073C74.666203 65.967112 74.193324 65.188249 73.581363 64.242494S72.566061 62.643048 72.371349 62.281437S71.981919 61.363496 71.787204 60.612452S71.495132 58.985192 71.495132 57.983802C71.495132 54.701468 72.635608 53.060297 74.916551 53.060297C77.308765 53.060297 78.504868 54.701468 78.504868 57.983802C78.504868 58.985192 78.40751 59.861409 78.212796 60.612452S77.823366 61.933729 77.628651 62.323162S77.030598 63.366277 76.418637 64.284219S75.333797 65.967115 75.0 66.579073ZM60.146036 58.901743C62.872047 58.901743 65.681499 60.306469 68.574409 63.11593S73.108481 69.583245 73.497914 74.089504C73.497914 75.424692 68.40751 76.092286 58.226704 76.092286C58.115438 75.98102 57.475661 75.202158 56.307371 73.755707C55.139082 72.309256 54.248954 70.987971 53.636996 69.791868S52.719054 67.469201 52.719054 66.412174C52.719054 64.186859 53.428373 62.378797 54.84701 60.987974S58.031992 58.901743 60.146036 58.901743ZM59.72879 79.430255C61.342139 79.31899 63.08067 79.193816 64.944367 79.054733C66.808064 78.915651 68.115438 78.818294 68.866481 78.762661S70.438106 78.623579 71.328234 78.512313S72.913769 78.289782 73.414465 78.178516S74.443669 77.900353 75.0 77.677821C75.667594 77.955985 76.474273 78.192425 77.420028 78.38714S79.214186 78.707028 79.965229 78.762661S82.204448 78.915651 84.429764 79.054733S88.602225 79.31899 90.27121 79.430255C89.714882 81.544299 89.353268 83.880878 89.18637 86.439991C85.347705 85.216066 80.618887 84.604108 75.0 84.604108C69.269816 84.604108 64.541057 85.216068 60.81363 86.439991C60.646732 83.658352 60.285118 81.321774 59.72879 79.430255ZM89.853964 58.901743C91.856745 58.901743 93.595268 59.597153 95.069541 60.987974S97.280946 64.186859 97.280946 66.412174C97.280946 67.191034 97.058414 68.053345 96.613352 68.999101S95.723224 70.751535 95.278164 71.419128S94.193324 72.949028 93.358832 74.006055C92.524339 75.063081 91.99583 75.758489 91.773296 76.092286C81.59249 76.092286 76.502086 75.424692 76.502086 74.089504C76.891516 69.583245 78.518779 65.92539 81.383866 63.11593S87.072325 58.901743 89.853964 58.901743ZM74.916551 87.942077C82.705143 87.942077 86.599444 88.665304 86.599444 90.111757C86.599444 90.612452 85.264256 91.001885 82.59388 91.280046S77.392214 91.697293 75.0 91.697293C67.267035 91.697293 63.400556 91.168781 63.400556 90.111757C63.400556 88.665306 67.239221 87.942077 74.916551 87.942077Z" fill="#da0a0a" />
<path d="M89.937413 154.102429C90.605007 154.102429 91.439499 153.949439 92.44089 153.643459S94.568846 152.864599 95.820584 152.224822S98.129349 150.541926 98.991655 149.095475S100.285118 145.98004 100.285118 144.088521C100.285118 142.586435 100.020862 141.251247 99.49235 140.082958S98.31015 137.857642 97.531293 136.911887C96.752434 135.966132 95.959669 134.909105 95.15299 133.740816S93.62309 130.889631 92.98331 128.692137S91.968008 123.893806 91.856745 120.889634C91.74548 117.162232 86.126562 115.298535 75.0 115.298535C63.92904 115.298535 58.310153 117.162232 58.143255 120.889634C57.920723 124.783934 57.350487 127.982819 56.432545 130.486296S54.568848 134.686571 53.595271 135.576699S51.731574 137.607294 50.924896 138.998118S49.714882 142.085739 49.714882 144.088521C49.714882 146.035667 50.146036 147.732474 51.008345 149.178924S52.927677 151.66849 54.179416 152.308271S56.57163 153.407022 57.600834 153.685183S59.506256 154.102429 60.229485 154.102429C62.955497 154.102429 65.681499 153.017589 68.40751 150.847909C68.40751 153.462649 68.657858 155.312443 69.158554 156.397283S70.938801 158.692137 72.997218 160.027325V162.030107L69.5758 164.032888V167.037061H72.663421L73.748261 170.208132H76.251739L77.336579 167.037061H80.4242V164.032888L77.002782 162.030107V160.027325C79.061199 158.747773 80.340751 157.509937 80.841446 156.313834S81.59249 153.295751 81.59249 150.847909C82.315717 151.571136 83.470097 152.29436 85.055633 153.017589S88.268428 154.102429 89.937413 154.102429ZM75.0 143.420927C75.333797 144.032888 75.806676 144.811751 76.418637 145.757506S77.433939 147.356952 77.628651 147.718563S78.018081 148.636504 78.212796 149.387548S78.504868 151.014808 78.504868 152.016198C78.504868 155.298532 77.364392 156.939703 75.083449 156.939703C72.691235 156.939703 71.495132 155.298532 71.495132 152.016198C71.495132 151.014808 71.59249 150.138591 71.787204 149.387548S72.176634 148.066271 72.371349 147.676838S72.969402 146.633723 73.581363 145.715781S74.666203 144.032885 75.0 143.420927ZM89.853964 151.098257C87.127953 151.098257 84.318501 149.693531 81.425591 146.88407S76.891519 140.416755 76.502086 135.910496C76.502086 134.575308 81.59249 133.907714 91.773296 133.907714C91.884562 134.01898 92.524339 134.797842 93.692629 136.244293C94.860918 137.690744 95.751046 139.012029 96.363004 140.208132S97.280946 142.530799 97.280946 143.587826C97.280946 145.813141 96.571627 147.621203 95.15299 149.012026S91.968008 151.098257 89.853964 151.098257ZM90.27121 130.569745C88.657861 130.68101 86.91933 130.806184 85.055633 130.945267C83.191936 131.084349 81.884562 131.181706 81.133519 131.237339S79.561894 131.376421 78.671766 131.487687S77.086231 131.710218 76.585535 131.821484S75.556331 132.099647 75.0 132.322179C74.332406 132.044015 73.525727 131.807575 72.579972 131.61286S70.785814 131.292972 70.034771 131.237339S67.795552 131.084349 65.570236 130.945267S61.397775 130.68101 59.72879 130.569745C60.285118 128.455701 60.646732 126.119122 60.81363 123.560009C64.652295 124.783934 69.381113 125.395892 75.0 125.395892C80.730184 125.395892 85.458943 124.783932 89.18637 123.560009C89.353268 126.341648 89.714882 128.678226 90.27121 130.569745ZM60.146036 151.098257C58.143255 151.098257 56.404732 150.402847 54.930459 149.012026S52.719054 145.813141 52.719054 143.587826C52.719054 142.808966 52.941586 141.946655 53.386648 141.000899S54.276776 139.248465 54.721836 138.580872S55.806676 137.050972 56.641168 135.993945C57.475661 134.936919 58.00417 134.241511 58.226704 133.907714C68.40751 133.907714 73.497914 134.575308 73.497914 135.910496C73.108484 140.416755 71.481221 144.07461 68.616134 146.88407S62.927675 151.098257 60.146036 151.098257ZM75.083449 122.057923C67.294857 122.057923 63.400556 121.334696 63.400556 119.888243C63.400556 119.387548 64.735744 118.998115 67.40612 118.719954S72.607786 118.302707 75.0 118.302707C82.732965 118.302707 86.599444 118.831219 86.599444 119.888243C86.599444 121.334694 82.760779 122.057923 75.083449 122.057923Z" fill="#da0a0a" />
<path d="M148.356164 25.528003Q148.5 25.32024 148.5 25.032569Q148.468037 24.553117 148.308219 24.457226T147.700913 24.361336Q146.773973 24.361336 146.326484 24.02572T145.767123 23.194669T145.623288 21.900149V9.210651Q145.655251 8.411564 145.767123 7.916131T146.326484 7.08508T147.700913 6.749464H147.892694Q148.212329 6.749464 148.340183 6.637592T148.5 6.078231Q148.5 5.79056 148.356164 5.582797T147.924658 5.375035Q145.847032 5.470925 144.152968 5.470925Q142.23516 5.470925 140.157534 5.375035Q139.869863 5.375035 139.726027 5.582797T139.582192 6.078231Q139.614155 6.557683 139.773973 6.653574T140.381279 6.749464Q141.308219 6.749464 141.755708 7.08508T142.315068 7.916131T142.458904 9.210651V14.996039Q141.947489 14.900149 141.308219 14.45266T139.742009 13.206085Q137.952055 11.543984 135.23516 8.315674Q134.659817 7.676405 134.659817 7.292843Q134.659817 6.813391 135.522831 6.781427Q135.746575 6.749464 135.826484 6.605628T135.97032 6.110195Q135.97032 5.822523 135.810502 5.598779T135.394977 5.375035Q134.276256 5.470925 131.878995 5.470925Q131.111872 5.470925 129.641553 5.406998L128.97032 5.375035Q128.682648 5.375035 128.522831 5.582797T128.363014 6.110195Q128.394977 6.557683 128.554795 6.669555T129.002283 6.781427Q130.280822 6.7175 131.415525 7.196953T133.796804 8.92298L138.974886 14.324806Q137.856164 15.699236 136.673516 16.945811T133.828767 19.854487Q132.997717 20.685537 131.847032 21.900149Q131.495434 22.251747 131.36758 22.411564Q130.344749 23.434395 129.753425 23.849921T128.299087 24.361336Q128.23516 24.361336 128.011416 24.377318T127.643836 24.553117T127.5 25.032569Q127.5 25.32024 127.643836 25.528003T128.075342 25.735765Q128.458904 25.703802 129.002283 25.703802Q130.152968 25.639875 130.792237 25.639875H132.8379Q137.057078 20.941245 140.381279 17.105628Q141.40411 15.92298 142.458904 15.827089V21.900149Q142.426941 22.699236 142.315068 23.194669T141.755708 24.02572T140.381279 24.361336H140.189498Q139.869863 24.361336 139.742009 24.473208T139.582192 25.032569Q139.582192 25.32024 139.726027 25.528003T140.157534 25.735765Q142.203196 25.639875 144.121005 25.639875Q145.847032 25.639875 147.924658 25.735765Q148.212329 25.735765 148.356164 25.528003Z" fill="#da0a0a" />
<path d="M138.021905 31.791667C137.671419 32.49264 136.824408 33.752202 135.480876 35.570352C134.137344 37.388503 133.056669 38.750297 132.238873 39.655714C133.261127 40.824003 134.360048 42.211354 135.53564 43.817745C136.711232 45.424142 137.539986 46.66545 138.021905 47.541667C139.102572 45.613989 141.015654 42.985338 143.761127 39.655714C140.942621 36.253079 139.029555 33.631722 138.021905 31.791667Z" fill="#da0a0a" />
<path d="M1.643836 184.471997Q1.5 184.67976 1.5 184.967431Q1.531963 185.446883 1.691781 185.542774T2.299087 185.638664Q3.226027 185.638664 3.673516 185.97428T4.232877 186.805331T4.376712 188.099851V200.789349Q4.344749 201.588436 4.232877 202.083869T3.673516 202.91492T2.299087 203.250536H2.107306Q1.787671 203.250536 1.659817 203.362408T1.5 203.921769Q1.5 204.20944 1.643836 204.417203T2.075342 204.624965Q4.152968 204.529075 5.847032 204.529075Q7.76484 204.529075 9.842466 204.624965Q10.130137 204.624965 10.273973 204.417203T10.417808 203.921769Q10.385845 203.442317 10.226027 203.346426T9.618721 203.250536Q8.691781 203.250536 8.244292 202.91492T7.684932 202.083869T7.541096 200.789349V195.003961Q8.052511 195.099851 8.691781 195.54734T10.257991 196.793915Q12.047945 198.456016 14.76484 201.684326Q15.340183 202.323595 15.340183 202.707157Q15.340183 203.186609 14.477169 203.218573Q14.253425 203.250536 14.173516 203.394372T14.02968 203.889805Q14.02968 204.177477 14.189498 204.401221T14.605023 204.624965Q15.723744 204.529075 18.121005 204.529075Q18.888128 204.529075 20.358447 204.593002L21.02968 204.624965Q21.317352 204.624965 21.477169 204.417203T21.636986 203.889805Q21.605023 203.442317 21.445205 203.330445T20.997717 203.218573Q19.719178 203.2825 18.584475 202.803047T16.203196 201.07702L11.025114 195.675194Q12.143836 194.300764 13.326484 193.054189T16.171233 190.145513Q17.002283 189.314463 18.152968 188.099851Q18.504566 187.748253 18.63242 187.588436Q19.655251 186.565605 20.246575 186.150079T21.700913 185.638664Q21.76484 185.638664 21.988584 185.622682T22.356164 185.446883T22.5 184.967431Q22.5 184.67976 22.356164 184.471997T21.924658 184.264235Q21.541096 184.296198 20.997717 184.296198Q19.847032 184.360125 19.207763 184.360125H17.1621Q12.942922 189.058755 9.618721 192.894372Q8.59589 194.07702 7.541096 194.172911V188.099851Q7.573059 187.300764 7.684932 186.805331T8.244292 185.97428T9.618721 185.638664H9.810502Q10.130137 185.638664 10.257991 185.526792T10.417808 184.967431Q10.417808 184.67976 10.273973 184.471997T9.842466 184.264235Q7.796804 184.360125 5.878995 184.360125Q4.152968 184.360125 2.075342 184.264235Q1.787671 184.264235 1.643836 184.471997Z" fill="#da0a0a" />
<path d="M11.978095 178.208333C12.328581 177.50736 13.175592 176.247798 14.519124 174.429648C15.862656 172.611497 16.943331 171.249703 17.761127 170.344286C16.738873 169.175997 15.639952 167.788646 14.46436 166.182255C13.288768 164.575858 12.460014 163.33455 11.978095 162.458333C10.897428 164.386011 8.984346 167.014662 6.238873 170.344286C9.057379 173.746921 10.970445 176.368278 11.978095 178.208333Z" fill="#da0a0a" />
</svg>
