<svg width="150.000000" height="210.000000" id="card-webheart5">
<radialGradient id="card-webwhitegradient" cx="75.0" cy="105.0" r="150" gradientTransform="matrix(1 0 0 1 0 -.25)" gradientUnits="userSpaceOnUse">
<stop stop-color="#FDFAF4" offset=".15"/>
<stop stop-color="#FDF9F2" offset=".35"/>
<stop stop-color="#FCF7F1" offset=".5"/>
<stop stop-color="#FDFDF8" offset=".75"/>
<stop stop-color="#FFFDFA" offset="1"/>
</radialGradient>
<rect x="0" y="0" rx="7.5" ry="7.5" width="150" height="210.0" stroke="rgba(1,1,1,0.333)" fill="url(#card-webwhitegradient)" />
<path d="M44.958217 26.016713C44.401116 23.955433 43.502787 22.437325 42.263231 21.462396S39.651811 20.0 38.147632 20.0C36.448467 20.0 34.993036 20.584958 33.781337 21.754875S31.963788 24.331478 31.963788 25.97493C31.963788 27.479109 32.332869 29.011143 33.071031 30.571031S34.74234 33.635096 35.870474 35.083565S38.147632 37.987465 39.317549 39.449861S41.608634 42.5766 42.681058 44.442897S44.512533 48.16156 44.958217 50.0C45.45961 48.077994 46.260447 46.149024 47.360724 44.213092S49.5961 40.564068 50.766017 39.073816C51.935933 37.583564 53.077993 36.121169 54.192201 34.68663S56.225628 31.810586 56.949861 30.362117S58.036212 27.534818 58.036212 26.225627C58.036212 24.470752 57.444288 22.99443 56.260446 21.796657C55.076603 20.598884 53.621169 20.0 51.89415 20.0C48.579389 20.0 46.267396 22.005571 44.958217 26.016713Z" fill="#da0a0a" />
<path d="M45.041783 183.983287C45.598884 186.044567 46.497213 187.562675 47.736769 188.537604S50.348189 190.0 51.852368 190.0C53.551533 190.0 55.006964 189.415042 56.218663 188.245125S58.036212 185.668522 58.036212 184.02507C58.036212 182.520891 57.667131 180.988857 56.928969 179.428969S55.25766 176.364904 54.129526 174.916435S51.852368 172.012535 50.682451 170.550139S48.391366 167.4234 47.318942 165.557103S45.487467 161.83844 45.041783 160.0C44.54039 161.922006 43.739553 163.850976 42.639276 165.786908S40.4039 169.435932 39.233983 170.926184C38.064067 172.416436 36.922007 173.878831 35.807799 175.31337S33.774372 178.189414 33.050139 179.637883S31.963788 182.465182 31.963788 183.774373C31.963788 185.529248 32.555712 187.00557 33.739554 188.203343C34.923397 189.401116 36.378831 190.0 38.10585 190.0C41.420611 190.0 43.732604 187.994429 45.041783 183.983287Z" fill="#da0a0a" />
<path d="M104.958217 26.016713C104.401116 23.955433 103.502787 22.437325 102.263231 21.462396S99.651811 20.0 98.147632 20.0C96.448467 20.0 94.993036 20.584958 93.781337 21.754875S91.963788 24.331478 91.963788 25.97493C91.963788 27.479109 92.332869 29.011143 93.071031 30.571031S94.74234 33.635096 95.870474 35.083565S98.147632 37.987465 99.317549 39.449861S101.608634 42.5766 102.681058 44.442897S104.512533 48.16156 104.958217 50.0C105.45961 48.077994 106.260447 46.149024 107.360724 44.213092S109.5961 40.564068 110.766017 39.073816C111.935933 37.583564 113.077993 36.121169 114.192201 34.68663S116.225628 31.810586 116.949861 30.362117S118.036212 27.534818 118.036212 26.225627C118.036212 24.470752 117.444288 22.99443 116.260446 21.796657C115.076603 20.598884 113.621169 20.0 111.89415 20.0C108.579389 20.0 106.267396 22.005571 104.958217 26.016713Z" fill="#da0a0a" />
<path d="M105.041783 183.983287C105.598884 186.044567 106.497213 187.562675 107.736769 188.537604S110.348189 190.0 111.852368 190.0C113.551533 190.0 115.006964 189.415042 116.218663 188.245125S118.036212 185.668522 118.036212 184.02507C118.036212 182.520891 117.667131 180.988857 116.928969 179.428969S115.25766 176.364904 114.129526 174.916435S111.852368 172.012535 110.682451 170.550139S108.391366 167.4234 107.318942 165.557103S105.487467 161.83844 105.041783 160.0C104.54039 161.922006 103.739553 163.850976 102.639276 165.786908S100.4039 169.435932 99.233983 170.926184C98.064067 172.416436 96.922007 173.878831 95.807799 175.31337S93.774372 178.189414 93.050139 179.637883S91.963788 182.465182 91.963788 183.774373C91.963788 185.529248 92.555712 187.00557 93.739554 188.203343C94.923397 189.401116 96.378831 190.0 98.10585 190.0C101.420611 190.0 103.732604 187.994429 105.041783 183.983287Z" fill="#da0a0a" />
<path d="M74.958217 96.016713C74.401116 93.955433 73.502787 92.437325 72.263231 91.462396S69.651811 90.0 68.147632 90.0C66.448467 90.0 64.993036 90.584958 63.781337 91.754875S61.963788 94.331478 61.963788 95.97493C61.963788 97.479109 62.332869 99.011143 63.071031 100.571031S64.74234 103.635096 65.870474 105.083565S68.147632 107.987465 69.317549 109.449861S71.608634 112.5766 72.681058 114.442897S74.512533 118.16156 74.958217 120.0C75.45961 118.077994 76.260447 116.149024 77.360724 114.213092S79.5961 110.564068 80.766017 109.073816C81.935933 107.583564 83.077993 106.121169 84.192201 104.68663S86.225628 101.810586 86.949861 100.362117S88.036212 97.534818 88.036212 96.225627C88.036212 94.470752 87.444288 92.99443 86.260446 91.796657C85.076603 90.598884 83.621169 90.0 81.89415 90.0C78.579389 90.0 76.267396 92.005571 74.958217 96.016713Z" fill="#da0a0a" />
<path d="M143.483333 25.0054Q145.388889 23.9554 145.388889 21.738733Q145.388889 20.533178 144.669444 19.619289T142.744444 18.7054Q142.005556 18.7054 141.480556 19.094289T140.955556 19.7554Q140.955556 19.794289 141.305556 20.1054T141.947222 20.863733T142.238889 21.894289Q142.238889 23.216511 141.286111 23.916511T138.622222 24.616511Q136.483333 24.616511 135.413889 23.099844T134.344444 19.133178Q134.344444 16.877622 135.433333 15.3804T138.816667 13.883178Q139.866667 13.883178 140.625 14.213733T142.238889 15.166511Q142.744444 15.516511 143.075 15.691511T143.716667 15.866511Q144.338889 15.866511 144.338889 14.777622L144.3 14.310956L143.094444 5.0554H132.4Q131.855556 5.0554 131.525 5.4054T131.194444 6.377622Q131.194444 7.816511 132.672222 7.816511H141.305556L142.122222 13.222067Q140.411111 12.172067 137.922222 12.172067Q136.25 12.172067 134.558333 12.910956T131.738889 15.166511T130.611111 18.938733T131.719444 22.808178T134.675 25.238733T138.7 26.0554Q141.577778 26.0554 143.483333 25.0054Z" fill="#da0a0a" />
<path d="M137.978064 34.950441C137.685586 33.868269 137.213963 33.071262 136.563196 32.559424S135.192201 31.791667 134.402507 31.791667C133.510445 31.791667 132.746344 32.09877 132.110202 32.712976S131.155989 34.065692 131.155989 34.928505C131.155989 35.718199 131.349756 36.522517 131.737291 37.341458S132.614728 38.950092 133.206999 39.710539S134.402507 41.235086 135.016713 42.002844S136.219533 43.644382 136.782556 44.624188S137.74408 46.576486 137.978064 47.541667C138.241295 46.532614 138.661735 45.519904 139.23938 44.50354S140.412953 42.587802 141.027159 41.80542C141.641365 41.023038 142.240946 40.25528 142.825905 39.502147S143.893455 37.992225 144.273677 37.231778S144.844011 35.747446 144.844011 35.060121C144.844011 34.138812 144.533251 33.363743 143.911734 32.734912C143.290217 32.106081 142.526113 31.791667 141.619429 31.791667C139.879179 31.791667 138.665383 32.844591 137.978064 34.950441Z" fill="#da0a0a" />
<path d="M6.516667 184.9946Q4.611111 186.0446 4.611111 188.261267Q4.611111 189.466822 5.330556 190.380711T7.255556 191.2946Q7.994444 191.2946 8.519444 190.905711T9.044444 190.2446Q9.044444 190.205711 8.694444 189.8946T8.052778 189.136267T7.761111 188.105711Q7.761111 186.783489 8.713889 186.083489T11.377778 185.383489Q13.516667 185.383489 14.586111 186.900156T15.655556 190.866822Q15.655556 193.122378 14.566667 194.6196T11.183333 196.116822Q10.133333 196.116822 9.375 195.786267T7.761111 194.833489Q7.255556 194.483489 6.925 194.308489T6.283333 194.133489Q5.661111 194.133489 5.661111 195.222378L5.7 195.689044L6.905556 204.9446H17.6Q18.144444 204.9446 18.475 204.5946T18.805556 203.622378Q18.805556 202.183489 17.327778 202.183489H8.694444L7.877778 196.777933Q9.588889 197.827933 12.077778 197.827933Q13.75 197.827933 15.441667 197.089044T18.261111 194.833489T19.388889 191.061267T18.280556 187.191822T15.325 184.761267T11.3 183.9446Q8.422222 183.9446 6.516667 184.9946Z" fill="#da0a0a" />
<path d="M12.021936 175.049559C12.314414 176.131731 12.786037 176.928738 13.436804 177.440576S14.807799 178.208333 15.597493 178.208333C16.489555 178.208333 17.253656 177.90123 17.889798 177.287024S18.844011 175.934308 18.844011 175.071495C18.844011 174.281801 18.650244 173.477483 18.262709 172.658542S17.385272 171.049908 16.793001 170.289461S15.597493 168.764914 14.983287 167.997156S13.780467 166.355618 13.217444 165.375812S12.25592 163.423514 12.021936 162.458333C11.758705 163.467386 11.338265 164.480096 10.76062 165.49646S9.587047 167.412198 8.972841 168.19458C8.358635 168.976962 7.759054 169.74472 7.174095 170.497853S6.106545 172.007775 5.726323 172.768222S5.155989 174.252554 5.155989 174.939879C5.155989 175.861188 5.466749 176.636257 6.088266 177.265088C6.709783 177.893919 7.473887 178.208333 8.380571 178.208333C10.120821 178.208333 11.334617 177.155409 12.021936 175.049559Z" fill="#da0a0a" />
</svg>
