<svg width="500.000000" height="700.000000" id="card-realspade10">
<radialGradient id="card-realwhitegradient" cx="250.0" cy="350.0" r="500" gradientTransform="matrix(1 0 0 1 0 -.25)" gradientUnits="userSpaceOnUse">
<stop stop-color="#FDFAF4" offset=".15"/>
<stop stop-color="#FDF9F2" offset=".35"/>
<stop stop-color="#FCF7F1" offset=".5"/>
<stop stop-color="#FDFDF8" offset=".75"/>
<stop stop-color="#FFFDFA" offset="1"/>
</radialGradient>
<rect x="0" y="0" rx="25.0" ry="25.0" width="500" height="700.0" stroke="rgba(1,1,1,0.333)" fill="url(#card-realwhitegradient)" />
<path d="M147.659574 132.907801C147.186762 137.825064 146.004723 142.174936 144.113475 145.957447C142.222227 149.739957 140.236411 152.624113 138.156028 154.609929S133.451532 158.297872 130.283688 159.716312C127.115844 161.134752 124.680851 162.056738 122.978723 162.48227S119.196213 163.309692 116.737589 163.687943C116.359338 163.782506 116.07565 163.829787 115.886525 163.829787V166.666667H184.113475V163.829787C176.075645 162.411348 169.976355 160.330965 165.815603 157.588652C157.87234 152.293149 153.38061 144.066199 152.340426 132.907801C157.257688 140.472809 163.593376 144.255319 171.347518 144.255319C176.359333 144.255319 180.638298 142.505915 184.184397 139.007092S189.503546 131.25295 189.503546 126.241135C189.503546 121.985816 188.463357 118.108752 186.382979 114.609929C184.302596 111.111106 181.60756 107.919617 178.297872 105.035461S171.583929 99.148936 168.085106 96.028369C164.586284 92.907801 161.134752 88.817972 157.730496 83.758865S151.725773 73.002369 149.929078 66.666667C148.321518 72.907801 145.839248 78.534284 142.48227 83.546099S135.673759 92.624113 132.12766 95.744681S125.15366 101.891248 121.843972 104.822695S115.815603 110.969262 113.687943 114.468085S110.496454 121.891248 110.496454 126.241135C110.496454 131.25295 112.269504 135.50827 115.815603 139.007092S123.640667 144.255319 128.652482 144.255319C136.406624 144.255319 142.742312 140.472809 147.659574 132.907801Z" fill="#010101" />
<path d="M152.340426 567.092199C152.813238 562.174936 153.995277 557.825064 155.886525 554.042553C157.777773 550.260043 159.763589 547.375887 161.843972 545.390071S166.548468 541.702128 169.716312 540.283688C172.884156 538.865248 175.319149 537.943262 177.021277 537.51773S180.803787 536.690308 183.262411 536.312057C183.640662 536.217494 183.92435 536.170213 184.113475 536.170213V533.333333H115.886525V536.170213C123.924355 537.588652 130.023645 539.669035 134.184397 542.411348C142.12766 547.706851 146.61939 555.933801 147.659574 567.092199C142.742312 559.527191 136.406624 555.744681 128.652482 555.744681C123.640667 555.744681 119.361702 557.494085 115.815603 560.992908S110.496454 568.74705 110.496454 573.758865C110.496454 578.014184 111.536643 581.891248 113.617021 585.390071C115.697404 588.888894 118.39244 592.080383 121.702128 594.964539S128.416071 600.851064 131.914894 603.971631C135.413716 607.092199 138.865248 611.182028 142.269504 616.241135S148.274227 626.997631 150.070922 633.333333C151.678482 627.092199 154.160752 621.465716 157.51773 616.453901S164.326241 607.375887 167.87234 604.255319S174.84634 598.108752 178.156028 595.177305S184.184397 589.030738 186.312057 585.531915S189.503546 578.108752 189.503546 573.758865C189.503546 568.74705 187.730496 564.49173 184.184397 560.992908S176.359333 555.744681 171.347518 555.744681C163.593376 555.744681 157.257688 559.527191 152.340426 567.092199Z" fill="#010101" />
<path d="M147.659574 288.463357C147.186762 293.380619 146.004723 297.730492 144.113475 301.513002C142.222227 305.295513 140.236411 308.179669 138.156028 310.165485S133.451532 313.853428 130.283688 315.271868C127.115844 316.690307 124.680851 317.612293 122.978723 318.037825S119.196213 318.865248 116.737589 319.243499C116.359338 319.338062 116.07565 319.385343 115.886525 319.385343V322.222222H184.113475V319.385343C176.075645 317.966903 169.976355 315.88652 165.815603 313.144208C157.87234 307.848704 153.38061 299.621754 152.340426 288.463357C157.257688 296.028364 163.593376 299.810875 171.347518 299.810875C176.359333 299.810875 180.638298 298.06147 184.184397 294.562648S189.503546 286.808506 189.503546 281.79669C189.503546 277.541371 188.463357 273.664307 186.382979 270.165485C184.302596 266.666662 181.60756 263.475173 178.297872 260.591017S171.583929 254.704492 168.085106 251.583924C164.586284 248.463357 161.134752 244.373527 157.730496 239.314421S151.725773 228.557924 149.929078 222.222222C148.321518 228.463357 145.839248 234.089839 142.48227 239.101655S135.673759 248.179669 132.12766 251.300236S125.15366 257.446804 121.843972 260.378251S115.815603 266.524818 113.687943 270.023641S110.496454 277.446804 110.496454 281.79669C110.496454 286.808506 112.269504 291.063825 115.815603 294.562648S123.640667 299.810875 128.652482 299.810875C136.406624 299.810875 142.742312 296.028364 147.659574 288.463357Z" fill="#010101" />
<path d="M152.340426 411.536643C152.813238 406.619381 153.995277 402.269508 155.886525 398.486998C157.777773 394.704487 159.763589 391.820331 161.843972 389.834515S166.548468 386.146572 169.716312 384.728132C172.884156 383.309693 175.319149 382.387707 177.021277 381.962175S180.803787 381.134752 183.262411 380.756501C183.640662 380.661938 183.92435 380.614657 184.113475 380.614657V377.777778H115.886525V380.614657C123.924355 382.033097 130.023645 384.11348 134.184397 386.855792C142.12766 392.151296 146.61939 400.378246 147.659574 411.536643C142.742312 403.971636 136.406624 400.189125 128.652482 400.189125C123.640667 400.189125 119.361702 401.93853 115.815603 405.437352S110.496454 413.191494 110.496454 418.20331C110.496454 422.458629 111.536643 426.335693 113.617021 429.834515C115.697404 433.333338 118.39244 436.524827 121.702128 439.408983S128.416071 445.295508 131.914894 448.416076C135.413716 451.536643 138.865248 455.626473 142.269504 460.685579S148.274227 471.442076 150.070922 477.777778C151.678482 471.536643 154.160752 465.910161 157.51773 460.898345S164.326241 451.820331 167.87234 448.699764S174.84634 442.553196 178.156028 439.621749S184.184397 433.475182 186.312057 429.976359S189.503546 422.553196 189.503546 418.20331C189.503546 413.191494 187.730496 408.936175 184.184397 405.437352S176.359333 400.189125 171.347518 400.189125C163.593376 400.189125 157.257688 403.971636 152.340426 411.536643Z" fill="#010101" />
<path d="M347.659574 132.907801C347.186762 137.825064 346.004723 142.174936 344.113475 145.957447C342.222227 149.739957 340.236411 152.624113 338.156028 154.609929S333.451532 158.297872 330.283688 159.716312C327.115844 161.134752 324.680851 162.056738 322.978723 162.48227S319.196213 163.309692 316.737589 163.687943C316.359338 163.782506 316.07565 163.829787 315.886525 163.829787V166.666667H384.113475V163.829787C376.075645 162.411348 369.976355 160.330965 365.815603 157.588652C357.87234 152.293149 353.38061 144.066199 352.340426 132.907801C357.257688 140.472809 363.593376 144.255319 371.347518 144.255319C376.359333 144.255319 380.638298 142.505915 384.184397 139.007092S389.503546 131.25295 389.503546 126.241135C389.503546 121.985816 388.463357 118.108752 386.382979 114.609929C384.302596 111.111106 381.60756 107.919617 378.297872 105.035461S371.583929 99.148936 368.085106 96.028369C364.586284 92.907801 361.134752 88.817972 357.730496 83.758865S351.725773 73.002369 349.929078 66.666667C348.321518 72.907801 345.839248 78.534284 342.48227 83.546099S335.673759 92.624113 332.12766 95.744681S325.15366 101.891248 321.843972 104.822695S315.815603 110.969262 313.687943 114.468085S310.496454 121.891248 310.496454 126.241135C310.496454 131.25295 312.269504 135.50827 315.815603 139.007092S323.640667 144.255319 328.652482 144.255319C336.406624 144.255319 342.742312 140.472809 347.659574 132.907801Z" fill="#010101" />
<path d="M352.340426 567.092199C352.813238 562.174936 353.995277 557.825064 355.886525 554.042553C357.777773 550.260043 359.763589 547.375887 361.843972 545.390071S366.548468 541.702128 369.716312 540.283688C372.884156 538.865248 375.319149 537.943262 377.021277 537.51773S380.803787 536.690308 383.262411 536.312057C383.640662 536.217494 383.92435 536.170213 384.113475 536.170213V533.333333H315.886525V536.170213C323.924355 537.588652 330.023645 539.669035 334.184397 542.411348C342.12766 547.706851 346.61939 555.933801 347.659574 567.092199C342.742312 559.527191 336.406624 555.744681 328.652482 555.744681C323.640667 555.744681 319.361702 557.494085 315.815603 560.992908S310.496454 568.74705 310.496454 573.758865C310.496454 578.014184 311.536643 581.891248 313.617021 585.390071C315.697404 588.888894 318.39244 592.080383 321.702128 594.964539S328.416071 600.851064 331.914894 603.971631C335.413716 607.092199 338.865248 611.182028 342.269504 616.241135S348.274227 626.997631 350.070922 633.333333C351.678482 627.092199 354.160752 621.465716 357.51773 616.453901S364.326241 607.375887 367.87234 604.255319S374.84634 598.108752 378.156028 595.177305S384.184397 589.030738 386.312057 585.531915S389.503546 578.108752 389.503546 573.758865C389.503546 568.74705 387.730496 564.49173 384.184397 560.992908S376.359333 555.744681 371.347518 555.744681C363.593376 555.744681 357.257688 559.527191 352.340426 567.092199Z" fill="#010101" />
<path d="M347.659574 288.463357C347.186762 293.380619 346.004723 297.730492 344.113475 301.513002C342.222227 305.295513 340.236411 308.179669 338.156028 310.165485S333.451532 313.853428 330.283688 315.271868C327.115844 316.690307 324.680851 317.612293 322.978723 318.037825S319.196213 318.865248 316.737589 319.243499C316.359338 319.338062 316.07565 319.385343 315.886525 319.385343V322.222222H384.113475V319.385343C376.075645 317.966903 369.976355 315.88652 365.815603 313.144208C357.87234 307.848704 353.38061 299.621754 352.340426 288.463357C357.257688 296.028364 363.593376 299.810875 371.347518 299.810875C376.359333 299.810875 380.638298 298.06147 384.184397 294.562648S389.503546 286.808506 389.503546 281.79669C389.503546 277.541371 388.463357 273.664307 386.382979 270.165485C384.302596 266.666662 381.60756 263.475173 378.297872 260.591017S371.583929 254.704492 368.085106 251.583924C364.586284 248.463357 361.134752 244.373527 357.730496 239.314421S351.725773 228.557924 349.929078 222.222222C348.321518 228.463357 345.839248 234.089839 342.48227 239.101655S335.673759 248.179669 332.12766 251.300236S325.15366 257.446804 321.843972 260.378251S315.815603 266.524818 313.687943 270.023641S310.496454 277.446804 310.496454 281.79669C310.496454 286.808506 312.269504 291.063825 315.815603 294.562648S323.640667 299.810875 328.652482 299.810875C336.406624 299.810875 342.742312 296.028364 347.659574 288.463357Z" fill="#010101" />
<path d="M352.340426 411.536643C352.813238 406.619381 353.995277 402.269508 355.886525 398.486998C357.777773 394.704487 359.763589 391.820331 361.843972 389.834515S366.548468 386.146572 369.716312 384.728132C372.884156 383.309693 375.319149 382.387707 377.021277 381.962175S380.803787 381.134752 383.262411 380.756501C383.640662 380.661938 383.92435 380.614657 384.113475 380.614657V377.777778H315.886525V380.614657C323.924355 382.033097 330.023645 384.11348 334.184397 386.855792C342.12766 392.151296 346.61939 400.378246 347.659574 411.536643C342.742312 403.971636 336.406624 400.189125 328.652482 400.189125C323.640667 400.189125 319.361702 401.93853 315.815603 405.437352S310.496454 413.191494 310.496454 418.20331C310.496454 422.458629 311.536643 426.335693 313.617021 429.834515C315.697404 433.333338 318.39244 436.524827 321.702128 439.408983S328.416071 445.295508 331.914894 448.416076C335.413716 451.536643 338.865248 455.626473 342.269504 460.685579S348.274227 471.442076 350.070922 477.777778C351.678482 471.536643 354.160752 465.910161 357.51773 460.898345S364.326241 451.820331 367.87234 448.699764S374.84634 442.553196 378.156028 439.621749S384.184397 433.475182 386.312057 429.976359S389.503546 422.553196 389.503546 418.20331C389.503546 413.191494 387.730496 408.936175 384.184397 405.437352S376.359333 400.189125 371.347518 400.189125C363.593376 400.189125 357.257688 403.971636 352.340426 411.536643Z" fill="#010101" />
<path d="M247.659574 210.685579C247.186762 215.602842 246.004723 219.952714 244.113475 223.735225C242.222227 227.517735 240.236411 230.401891 238.156028 232.387707S233.451532 236.07565 230.283688 237.49409C227.115844 238.91253 224.680851 239.834515 222.978723 240.260047S219.196213 241.08747 216.737589 241.465721C216.359338 241.560284 216.07565 241.607565 215.886525 241.607565V244.444444H284.113475V241.607565C276.075645 240.189125 269.976355 238.108742 265.815603 235.36643C257.87234 230.070927 253.38061 221.843976 252.340426 210.685579C257.257688 218.250586 263.593376 222.033097 271.347518 222.033097C276.359333 222.033097 280.638298 220.283693 284.184397 216.78487S289.503546 209.030728 289.503546 204.018913C289.503546 199.763593 288.463357 195.88653 286.382979 192.387707C284.302596 188.888884 281.60756 185.697395 278.297872 182.813239S271.583929 176.926714 268.085106 173.806147C264.586284 170.685579 261.134752 166.595749 257.730496 161.536643S251.725773 150.780147 249.929078 144.444444C248.321518 150.685579 245.839248 156.312061 242.48227 161.323877S235.673759 170.401891 232.12766 173.522459S225.15366 179.669026 221.843972 182.600473S215.815603 188.74704 213.687943 192.245863S210.496454 199.669026 210.496454 204.018913C210.496454 209.030728 212.269504 213.286047 215.815603 216.78487S223.640667 222.033097 228.652482 222.033097C236.406624 222.033097 242.742312 218.250586 247.659574 210.685579Z" fill="#010101" />
<path d="M252.340426 489.314421C252.813238 484.397158 253.995277 480.047286 255.886525 476.264775C257.777773 472.482265 259.763589 469.598109 261.843972 467.612293S266.548468 463.92435 269.716312 462.50591C272.884156 461.08747 275.319149 460.165485 277.021277 459.739953S280.803787 458.91253 283.262411 458.534279C283.640662 458.439716 283.92435 458.392435 284.113475 458.392435V455.555556H215.886525V458.392435C223.924355 459.810875 230.023645 461.891258 234.184397 464.63357C242.12766 469.929073 246.61939 478.156024 247.659574 489.314421C242.742312 481.749414 236.406624 477.966903 228.652482 477.966903C223.640667 477.966903 219.361702 479.716307 215.815603 483.21513S210.496454 490.969272 210.496454 495.981087C210.496454 500.236407 211.536643 504.11347 213.617021 507.612293C215.697404 511.111116 218.39244 514.302605 221.702128 517.186761S228.416071 523.073286 231.914894 526.193853C235.413716 529.314421 238.865248 533.404251 242.269504 538.463357S248.274227 549.219853 250.070922 555.555556C251.678482 549.314421 254.160752 543.687939 257.51773 538.676123S264.326241 529.598109 267.87234 526.477541S274.84634 520.330974 278.156028 517.399527S284.184397 511.25296 286.312057 507.754137S289.503546 500.330974 289.503546 495.981087C289.503546 490.969272 287.730496 486.713953 284.184397 483.21513S276.359333 477.966903 271.347518 477.966903C263.593376 477.966903 257.257688 481.749414 252.340426 489.314421Z" fill="#010101" />
<path d="M494.511942 83.033152Q494.427094 81.505879 494.130127 80.996788T493.154379 80.487697Q488.402912 80.487697 486.408992 79.91497T483.439325 76.924061T482.463577 68.778606V42.305879Q482.37873 36.324061 482.845392 33.71497T484.49992 30.342242T488.402912 29.578606H492.560446Q494.087703 29.578606 494.087703 26.524061Q494.002856 24.61497 493.578618 24.169515T492.518022 23.724061H491.627122Q488.063521 23.724061 484.669616 22.005879T477.287871 17.869515Q476.778786 17.61497 476.439395 17.61497Q475.081833 17.61497 475.081833 20.542242V68.778606Q475.081833 74.378606 474.190933 76.796788T471.390961 79.851333T465.239507 80.487697H464.391031Q463.71225 80.487697 463.415283 80.996788T463.033468 83.033152Q463.033468 86.087697 464.560726 86.087697Q470.669756 85.705879 478.815129 85.705879Q486.875654 85.705879 492.984684 86.087697Q494.511942 86.087697 494.511942 83.033152ZM456.83926 82.01497Q461.378609 77.178606 463.627071 69.160424T465.875533 51.724061Q465.875533 42.178606 463.627071 34.287697T456.83926 21.624061T445.681796 16.851333Q439.403071 16.851333 434.821298 21.687697T427.863792 34.542242T425.488058 51.724061T427.863792 68.905879T434.821298 81.887697T445.681796 86.851333Q452.299912 86.851333 456.83926 82.01497ZM436.772794 74.251333Q433.633432 66.360424 433.633432 51.724061T436.772794 29.324061T445.596948 21.560424Q451.451435 21.560424 454.590798 29.260424T457.73016 51.724061T454.590798 74.31497T445.596948 82.142242Q439.912157 82.142242 436.772794 74.251333Z" fill="#010101" />
<path d="M458.771277 140.748818C458.52305 143.330381 457.90248 145.614064 456.909574 147.599882C455.916669 149.5857 454.874116 151.099882 453.781915 152.142435S451.312054 154.078605 449.648936 154.823286C447.985818 155.567967 446.707447 156.052009 445.81383 156.275414S443.828012 156.709811 442.537234 156.908392C442.338652 156.958038 442.189716 156.982861 442.090426 156.982861V158.472222H477.909574V156.982861C473.689714 156.23818 470.487586 155.145979 468.303191 153.706265C464.132979 150.926125 461.77482 146.606976 461.228723 140.748818C463.810286 144.720447 467.136522 146.706265 471.207447 146.706265C473.83865 146.706265 476.085106 145.787828 477.946809 143.950946S480.739362 139.880021 480.739362 137.248818C480.739362 135.014775 480.193263 132.979317 479.101064 131.142435C478.008863 129.305553 476.593969 127.630021 474.856383 126.115839S471.331563 123.025414 469.494681 121.387116C467.657799 119.748818 465.845745 117.601657 464.058511 114.945626S460.906031 109.298466 459.962766 105.972222C459.118797 109.248818 457.815605 112.202721 456.053191 114.833924S452.478723 119.599882 450.617021 121.23818S446.955671 124.465128 445.218085 126.004137S442.053191 129.231085 440.93617 131.067967S439.260638 134.965128 439.260638 137.248818C439.260638 139.880021 440.191489 142.114064 442.053191 143.950946S446.16135 146.706265 448.792553 146.706265C452.863478 146.706265 456.189714 144.720447 458.771277 140.748818Z" fill="#010101" />
<path d="M5.488058 616.966848Q5.572906 618.494121 5.869873 619.003212T6.845621 619.512303Q11.597088 619.512303 13.591008 620.08503T16.560675 623.075939T17.536423 631.221394V657.694121Q17.62127 663.675939 17.154608 666.28503T15.50008 669.657758T11.597088 670.421394H7.439554Q5.912297 670.421394 5.912297 673.475939Q5.997144 675.38503 6.421382 675.830485T7.481978 676.275939H8.372878Q11.936479 676.275939 15.330384 677.994121T22.712129 682.130485Q23.221214 682.38503 23.560605 682.38503Q24.918167 682.38503 24.918167 679.457758V631.221394Q24.918167 625.621394 25.809067 623.203212T28.609039 620.148667T34.760493 619.512303H35.608969Q36.28775 619.512303 36.584717 619.003212T36.966532 616.966848Q36.966532 613.912303 35.439274 613.912303Q29.330244 614.294121 21.184871 614.294121Q13.124346 614.294121 7.015316 613.912303Q5.488058 613.912303 5.488058 616.966848ZM43.16074 617.98503Q38.621391 622.821394 36.372929 630.839576T34.124467 648.275939Q34.124467 657.821394 36.372929 665.712303T43.16074 678.375939T54.318204 683.148667Q60.596929 683.148667 65.178702 678.312303T72.136208 665.457758T74.511942 648.275939T72.136208 631.094121T65.178702 618.112303T54.318204 613.148667Q47.700088 613.148667 43.16074 617.98503ZM63.227206 625.748667Q66.366568 633.639576 66.366568 648.275939T63.227206 670.675939T54.403052 678.439576Q48.548565 678.439576 45.409202 670.739576T42.26984 648.275939T45.409202 625.68503T54.403052 617.857758Q60.087843 617.857758 63.227206 625.748667Z" fill="#010101" />
<path d="M41.228723 559.251182C41.47695 556.669619 42.09752 554.385936 43.090426 552.400118C44.083331 550.4143 45.125884 548.900118 46.218085 547.857565S48.687946 545.921395 50.351064 545.176714C52.014182 544.432033 53.292553 543.947991 54.18617 543.724586S56.171988 543.290189 57.462766 543.091608C57.661348 543.041962 57.810284 543.017139 57.909574 543.017139V541.527778H22.090426V543.017139C26.310286 543.76182 29.512414 544.854021 31.696809 546.293735C35.867021 549.073875 38.22518 553.393024 38.771277 559.251182C36.189714 555.279553 32.863478 553.293735 28.792553 553.293735C26.16135 553.293735 23.914894 554.212172 22.053191 556.049054S19.260638 560.119979 19.260638 562.751182C19.260638 564.985225 19.806737 567.020683 20.898936 568.857565C21.991137 570.694447 23.406031 572.369979 25.143617 573.884161S28.668437 576.974586 30.505319 578.612884C32.342201 580.251182 34.154255 582.398343 35.941489 585.054374S39.093969 590.701534 40.037234 594.027778C40.881203 590.751182 42.184395 587.797279 43.946809 585.166076S47.521277 580.400118 49.382979 578.76182S53.044329 575.534872 54.781915 573.995863S57.946809 570.768915 59.06383 568.932033S60.739362 565.034872 60.739362 562.751182C60.739362 560.119979 59.808511 557.885936 57.946809 556.049054S53.83865 553.293735 51.207447 553.293735C47.136522 553.293735 43.810286 555.279553 41.228723 559.251182Z" fill="#010101" />
</svg>
