<svg width="25.000000" height="35.000000" id="card-lightspade13">
<rect x="0" y="0" rx="1.25" ry="1.25" width="25" height="35.0" stroke="rgba(1,1,1,0.333)" fill="#fffdfa" />
<rect x="5.0" y="3.5" width="15.0" height="28.0" stroke="#010101" fill="#fffdfa" />
<path d="M10.010638 9.775154C10.143026 9.775154 10.315603 9.820071 10.528369 9.909905S10.972813 10.136856 11.223404 10.321253S11.689125 10.772789 11.868794 11.122671S12.138298 11.869717 12.138298 12.314161C12.138298 12.484374 12.261229 12.56948 12.507092 12.56948C12.762411 12.56948 12.890071 12.484374 12.890071 12.314161C12.890071 11.850803 12.977541 11.439456 13.152482 11.080118S13.542553 10.45364 13.797872 10.2787S14.28487 9.9761 14.492908 9.895721C14.700946 9.815343 14.875887 9.775154 15.01773 9.775154C15.405437 9.775154 15.712766 9.879173 15.939716 10.08721S16.280142 10.583664 16.280142 10.952459C16.280142 11.084846 16.20922 11.311796 16.067376 11.63331S15.693854 12.281064 15.37234 12.612033S14.696217 13.108487 14.308511 13.108487C13.939716 13.108487 13.343972 13.037565 12.521277 12.895721C11.689125 13.037565 11.088652 13.108487 10.719858 13.108487C10.426713 13.108487 10.14539 13.01156 9.875887 12.817707S9.395982 12.396903 9.244681 12.136856C9.09338 11.876809 8.972813 11.635674 8.882979 11.413452S8.748227 11.037565 8.748227 10.952459C8.748227 10.583664 8.861702 10.295249 9.088652 10.08721S9.622932 9.775154 10.010638 9.775154ZM11.797872 12.370898C11.788416 12.030473 11.734043 11.723144 11.634752 11.448913S11.417258 10.957186 11.280142 10.79643S10.989362 10.503286 10.819149 10.399267S10.5 10.224327 10.37234 10.186501S10.13357 10.129764 10.039007 10.129764C9.755319 10.129764 9.521277 10.20305 9.336879 10.349622S9.060284 10.697139 9.060284 10.952459C9.060284 11.028109 9.095745 11.155768 9.166667 11.335437S9.341607 11.711324 9.478723 11.92409S9.812057 12.323617 10.067376 12.484374S10.606383 12.725508 10.91844 12.725508C11.504728 12.725508 11.797872 12.607305 11.797872 12.370898ZM10.407801 14.555296C10.407801 14.309433 11.102837 14.186501 12.492908 14.186501C13.117021 14.186501 13.625295 14.219598 14.01773 14.285792S14.606383 14.437093 14.606383 14.541111C14.606383 14.682955 14.478723 14.753877 14.223404 14.753877C14.195035 14.753877 13.916075 14.730236 13.386525 14.682955S12.56383 14.612033 12.507092 14.612033C12.478723 14.612033 12.202128 14.635674 11.677305 14.682955S10.861702 14.753877 10.804965 14.753877C10.540189 14.753877 10.407801 14.687683 10.407801 14.555296ZM13.641844 9.817707C13.641844 9.411087 13.599291 9.113215 13.514184 8.92409S13.206855 8.51747 12.847518 8.271608V7.945366L13.429078 7.590757V7.080118H12.904255L12.734043 6.555296H12.251773L12.067376 7.080118H11.556738V7.590757L12.124113 7.945366V8.271608C11.793145 8.489101 11.580379 8.694775 11.485816 8.888629S11.343972 9.392175 11.343972 9.817707C10.899528 9.458369 10.440898 9.2787 9.968085 9.2787C9.476359 9.2787 9.057919 9.439456 8.712766 9.760969S8.195035 10.484374 8.195035 10.966643C8.195035 11.354349 8.379433 11.803522 8.748227 12.314161C8.975177 12.626217 9.128841 12.850803 9.20922 12.98792S9.374705 13.361442 9.464539 13.697139S9.604019 14.432364 9.613475 14.895721C9.632388 15.538747 10.596926 15.86026 12.507092 15.86026C14.39834 15.86026 15.358156 15.538747 15.386525 14.895721C15.395981 14.413452 15.455083 13.985555 15.56383 13.612033S15.769504 12.985555 15.85461 12.853168S16.072104 12.536383 16.251773 12.299976C16.620567 11.798795 16.804965 11.354349 16.804965 10.966643C16.804965 10.49383 16.632387 10.094303 16.287234 9.768061C15.942081 9.44182 15.528369 9.2787 15.046099 9.2787C14.554373 9.2787 14.086288 9.458369 13.641844 9.817707ZM15.003546 10.129764C14.880615 10.129764 14.731678 10.165225 14.556738 10.236147C14.381797 10.307069 14.187943 10.420544 13.975177 10.576572S13.585106 10.969008 13.443262 11.285792S13.230496 11.969008 13.230496 12.385083C13.230496 12.612033 13.518912 12.725508 14.095745 12.725508C14.417258 12.725508 14.708038 12.64513 14.968085 12.484374S15.42435 12.132128 15.556738 11.909905S15.788416 11.491466 15.85461 11.321253S15.953901 11.028108 15.953901 10.952459C15.953901 10.697139 15.861702 10.496193 15.677305 10.349622S15.268322 10.129764 15.003546 10.129764Z" fill="#010101" />
<path d="M14.989362 25.224846C14.856974 25.224846 14.684397 25.179929 14.471631 25.090095S14.027187 24.863144 13.776596 24.678747S13.310875 24.227211 13.131206 23.877329S12.861702 23.130283 12.861702 22.685839C12.861702 22.515626 12.738771 22.43052 12.492908 22.43052C12.237589 22.43052 12.109929 22.515626 12.109929 22.685839C12.109929 23.149197 12.022459 23.560544 11.847518 23.919882S11.457447 24.54636 11.202128 24.7213S10.71513 25.0239 10.507092 25.104279C10.299054 25.184657 10.124113 25.224846 9.98227 25.224846C9.594563 25.224846 9.287234 25.120827 9.060284 24.91279S8.719858 24.416336 8.719858 24.047541C8.719858 23.915154 8.79078 23.688204 8.932624 23.36669S9.306146 22.718936 9.62766 22.387967S10.303783 21.891513 10.691489 21.891513C11.060284 21.891513 11.656028 21.962435 12.478723 22.104279C13.310875 21.962435 13.911348 21.891513 14.280142 21.891513C14.573287 21.891513 14.85461 21.98844 15.124113 22.182293S15.604018 22.603097 15.755319 22.863144C15.90662 23.123191 16.027187 23.364326 16.117021 23.586548S16.251773 23.962435 16.251773 24.047541C16.251773 24.416336 16.138298 24.704751 15.911348 24.91279S15.377068 25.224846 14.989362 25.224846ZM13.202128 22.629102C13.211584 22.969527 13.265957 23.276856 13.365248 23.551087S13.582742 24.042814 13.719858 24.20357S14.010638 24.496714 14.180851 24.600733S14.5 24.775673 14.62766 24.813499S14.86643 24.870236 14.960993 24.870236C15.244681 24.870236 15.478723 24.79695 15.663121 24.650378S15.939716 24.302861 15.939716 24.047541C15.939716 23.971891 15.904255 23.844232 15.833333 23.664563S15.658393 23.288676 15.521277 23.07591S15.187943 22.676383 14.932624 22.515626S14.393617 22.274492 14.08156 22.274492C13.495272 22.274492 13.202128 22.392695 13.202128 22.629102ZM14.592199 20.444704C14.592199 20.690567 13.897163 20.813499 12.507092 20.813499C11.882979 20.813499 11.374705 20.780402 10.98227 20.714208S10.393617 20.562907 10.393617 20.458889C10.393617 20.317045 10.521277 20.246123 10.776596 20.246123C10.804965 20.246123 11.083925 20.269764 11.613475 20.317045S12.43617 20.387967 12.492908 20.387967C12.521277 20.387967 12.797872 20.364326 13.322695 20.317045S14.138298 20.246123 14.195035 20.246123C14.459811 20.246123 14.592199 20.312317 14.592199 20.444704ZM11.358156 25.182293C11.358156 25.588913 11.400709 25.886785 11.485816 26.07591S11.793145 26.48253 12.152482 26.728392V27.054634L11.570922 27.409243V27.919882H12.095745L12.265957 28.444704H12.748227L12.932624 27.919882H13.443262V27.409243L12.875887 27.054634V26.728392C13.206855 26.510899 13.419621 26.305225 13.514184 26.111371S13.656028 25.607825 13.656028 25.182293C14.100472 25.541631 14.559102 25.7213 15.031915 25.7213C15.523641 25.7213 15.942081 25.560544 16.287234 25.239031S16.804965 24.515626 16.804965 24.033357C16.804965 23.645651 16.620567 23.196478 16.251773 22.685839C16.024823 22.373783 15.871159 22.149197 15.79078 22.01208S15.625295 21.638558 15.535461 21.302861S15.395981 20.567636 15.386525 20.104279C15.367612 19.461253 14.403074 19.13974 12.492908 19.13974C10.60166 19.13974 9.641844 19.461253 9.613475 20.104279C9.604019 20.586548 9.544917 21.014445 9.43617 21.387967S9.230496 22.014445 9.14539 22.146832S8.927896 22.463617 8.748227 22.700024C8.379433 23.201205 8.195035 23.645651 8.195035 24.033357C8.195035 24.50617 8.367613 24.905697 8.712766 25.231939C9.057919 25.55818 9.471631 25.7213 9.953901 25.7213C10.445627 25.7213 10.913712 25.541631 11.358156 25.182293ZM9.996454 24.870236C10.119385 24.870236 10.268322 24.834775 10.443262 24.763853C10.618203 24.692931 10.812057 24.579456 11.024823 24.423428S11.414894 24.030992 11.556738 23.714208S11.769504 23.030992 11.769504 22.614917C11.769504 22.387967 11.481088 22.274492 10.904255 22.274492C10.582742 22.274492 10.291962 22.35487 10.031915 22.515626S9.57565 22.867872 9.443262 23.090095S9.211584 23.508534 9.14539 23.678747S9.046099 23.971892 9.046099 24.047541C9.046099 24.302861 9.138298 24.503807 9.322695 24.650378S9.731678 24.870236 9.996454 24.870236Z" fill="#010101" />
<path d="M24.726027 4.254667Q24.75 4.22004 24.75 4.172095Q24.744673 4.092186 24.718037 4.076204T24.616819 4.060223Q24.462329 4.060223 24.387747 4.004287T24.294521 3.865778T24.270548 3.650025V1.535109Q24.275875 1.401927 24.294521 1.319355T24.387747 1.180847T24.616819 1.124911H24.648782Q24.702055 1.124911 24.723364 1.106265T24.75 1.013039Q24.75 0.965093 24.726027 0.930466T24.65411 0.895839Q24.307839 0.911821 24.025495 0.911821Q23.70586 0.911821 23.359589 0.895839Q23.311644 0.895839 23.287671 0.930466T23.263699 1.013039Q23.269026 1.092947 23.295662 1.108929T23.39688 1.124911Q23.55137 1.124911 23.625951 1.180847T23.719178 1.319355T23.743151 1.535109V2.49934Q23.657915 2.483358 23.55137 2.408777T23.290335 2.201014Q22.992009 1.923997 22.539193 1.385946Q22.443303 1.279401 22.443303 1.215474Q22.443303 1.135565 22.587139 1.130238Q22.624429 1.124911 22.637747 1.100938T22.66172 1.018366Q22.66172 0.970421 22.635084 0.93313T22.56583 0.895839Q22.379376 0.911821 21.979833 0.911821Q21.851979 0.911821 21.606925 0.901166L21.495053 0.895839Q21.447108 0.895839 21.420472 0.930466T21.393836 1.018366Q21.399163 1.092947 21.425799 1.111593T21.500381 1.130238Q21.71347 1.119583 21.902588 1.199492T22.299467 1.487163L23.162481 2.387468Q22.976027 2.616539 22.778919 2.824302T22.304795 3.309081Q22.166286 3.447589 21.974505 3.650025Q21.915906 3.708625 21.894597 3.735261Q21.724125 3.905733 21.625571 3.974987T21.383181 4.060223Q21.372527 4.060223 21.335236 4.062886T21.273973 4.092186T21.25 4.172095Q21.25 4.22004 21.273973 4.254667T21.34589 4.289294Q21.409817 4.283967 21.500381 4.283967Q21.692161 4.273312 21.798706 4.273312H22.13965Q22.842846 3.490207 23.39688 2.850938Q23.567352 2.65383 23.743151 2.637848V3.650025Q23.737823 3.783206 23.719178 3.865778T23.625951 4.004287T23.39688 4.060223H23.364916Q23.311644 4.060223 23.290335 4.078868T23.263699 4.172095Q23.263699 4.22004 23.287671 4.254667T23.359589 4.289294Q23.700533 4.273312 24.020167 4.273312Q24.307839 4.273312 24.65411 4.289294Q24.702055 4.289294 24.726027 4.254667Z" fill="#010101" />
<path d="M22.938564 7.037441C22.926152 7.166519 22.895124 7.280703 22.845479 7.379994C22.795833 7.479285 22.743706 7.554994 22.689096 7.607122S22.565603 7.70393 22.482447 7.741164C22.399291 7.778398 22.335372 7.8026 22.290691 7.813771S22.191401 7.835491 22.126862 7.84542C22.116933 7.847902 22.109486 7.849143 22.104521 7.849143V7.923611H23.895479V7.849143C23.684486 7.811909 23.524379 7.757299 23.41516 7.685313C23.206649 7.546306 23.088741 7.330349 23.061436 7.037441C23.190514 7.236022 23.356826 7.335313 23.560372 7.335313C23.691933 7.335313 23.804255 7.289391 23.89734 7.197547S24.036968 6.994001 24.036968 6.862441C24.036968 6.750739 24.009663 6.648966 23.955053 6.557122C23.900443 6.465278 23.829698 6.381501 23.742819 6.305792S23.566578 6.151271 23.474734 6.069356C23.38289 5.987441 23.292287 5.880083 23.202926 5.747281S23.045302 5.464923 22.998138 5.298611C22.95594 5.462441 22.89078 5.610136 22.80266 5.741696S22.623936 5.979994 22.530851 6.061909S22.347784 6.223256 22.260904 6.300207S22.10266 6.461554 22.046809 6.553398S21.963032 6.748256 21.963032 6.862441C21.963032 6.994001 22.009574 7.105703 22.10266 7.197547S22.308067 7.335313 22.439628 7.335313C22.643174 7.335313 22.809486 7.236022 22.938564 7.037441Z" fill="#010101" />
<path d="M0.273973 30.745333Q0.25 30.77996 0.25 30.827905Q0.255327 30.907814 0.281963 30.923796T0.383181 30.939777Q0.537671 30.939777 0.612253 30.995713T0.705479 31.134222T0.729452 31.349975V33.464891Q0.724125 33.598073 0.705479 33.680645T0.612253 33.819153T0.383181 33.875089H0.351218Q0.297945 33.875089 0.276636 33.893735T0.25 33.986961Q0.25 34.034907 0.273973 34.069534T0.34589 34.104161Q0.692161 34.088179 0.974505 34.088179Q1.29414 34.088179 1.640411 34.104161Q1.688356 34.104161 1.712329 34.069534T1.736301 33.986961Q1.730974 33.907053 1.704338 33.891071T1.60312 33.875089Q1.44863 33.875089 1.374049 33.819153T1.280822 33.680645T1.256849 33.464891V32.50066Q1.342085 32.516642 1.44863 32.591223T1.709665 32.798986Q2.007991 33.076003 2.460807 33.614054Q2.556697 33.720599 2.556697 33.784526Q2.556697 33.864435 2.412861 33.869762Q2.375571 33.875089 2.362253 33.899062T2.33828 33.981634Q2.33828 34.029579 2.364916 34.06687T2.43417 34.104161Q2.620624 34.088179 3.020167 34.088179Q3.148021 34.088179 3.393075 34.098834L3.504947 34.104161Q3.552892 34.104161 3.579528 34.069534T3.606164 33.981634Q3.600837 33.907053 3.574201 33.888407T3.499619 33.869762Q3.28653 33.880417 3.097412 33.800508T2.700533 33.512837L1.837519 32.612532Q2.023973 32.383461 2.221081 32.175698T2.695205 31.690919Q2.833714 31.552411 3.025495 31.349975Q3.084094 31.291375 3.105403 31.264739Q3.275875 31.094267 3.374429 31.025013T3.616819 30.939777Q3.627473 30.939777 3.664764 30.937114T3.726027 30.907814T3.75 30.827905Q3.75 30.77996 3.726027 30.745333T3.65411 30.710706Q3.590183 30.716033 3.499619 30.716033Q3.307839 30.726688 3.201294 30.726688H2.86035Q2.157154 31.509793 1.60312 32.149062Q1.432648 32.34617 1.256849 32.362152V31.349975Q1.262177 31.216794 1.280822 31.134222T1.374049 30.995713T1.60312 30.939777H1.635084Q1.688356 30.939777 1.709665 30.921132T1.736301 30.827905Q1.736301 30.77996 1.712329 30.745333T1.640411 30.710706Q1.299467 30.726688 0.979833 30.726688Q0.692161 30.726688 0.34589 30.710706Q0.297945 30.710706 0.273973 30.745333Z" fill="#010101" />
<path d="M2.061436 27.962559C2.073848 27.833481 2.104876 27.719297 2.154521 27.620006C2.204167 27.520715 2.256294 27.445006 2.310904 27.392878S2.434397 27.29607 2.517553 27.258836C2.600709 27.221602 2.664628 27.1974 2.709309 27.186229S2.808599 27.164509 2.873138 27.15458C2.883067 27.152098 2.890514 27.150857 2.895479 27.150857V27.076389H1.104521V27.150857C1.315514 27.188091 1.475621 27.242701 1.58484 27.314687C1.793351 27.453694 1.911259 27.669651 1.938564 27.962559C1.809486 27.763978 1.643174 27.664687 1.439628 27.664687C1.308067 27.664687 1.195745 27.710609 1.10266 27.802453S0.963032 28.005999 0.963032 28.137559C0.963032 28.249261 0.990337 28.351034 1.044947 28.442878C1.099557 28.534722 1.170302 28.618499 1.257181 28.694208S1.433422 28.848729 1.525266 28.930644C1.61711 29.012559 1.707713 29.119917 1.797074 29.252719S1.954698 29.535077 2.001862 29.701389C2.04406 29.537559 2.10922 29.389864 2.19734 29.258304S2.376064 29.020006 2.469149 28.938091S2.652216 28.776744 2.739096 28.699793S2.89734 28.538446 2.953191 28.446602S3.036968 28.251744 3.036968 28.137559C3.036968 28.005999 2.990426 27.894297 2.89734 27.802453S2.691933 27.664687 2.560372 27.664687C2.356826 27.664687 2.190514 27.763978 2.061436 27.962559Z" fill="#010101" />
</svg>
