<svg width="25.000000" height="35.000000" id="card-lightclub1">
<rect x="0" y="0" rx="1.25" ry="1.25" width="25" height="35.0" stroke="rgba(1,1,1,0.333)" fill="#fffdfa" />
<path d="M8.434844 17.485836C8.085458 17.589707 7.82814 17.747875 7.66289 17.96034S7.415014 18.401795 7.415014 18.647309C7.415014 18.930595 7.516525 19.176109 7.719547 19.383853S8.161001 19.695467 8.434844 19.695467C8.803116 19.695467 9.185552 19.560907 9.582153 19.291785S10.410765 18.703966 10.878187 18.335694S11.787064 17.712465 12.20255 17.570822C12.164778 17.948537 12.145892 18.212936 12.145892 18.364023C12.145892 20.280921 12.854108 21.67847 14.270538 22.556657C14.676582 22.188385 14.940982 21.928707 15.063739 21.77762C14.563268 21.418792 14.140698 21.008027 13.796034 20.545326S13.210576 19.636449 13.073654 19.206799S12.844664 18.434844 12.79745 18.179887S12.726629 17.712465 12.726629 17.542493C13.094901 17.66525 13.470255 17.854108 13.852691 18.109065S14.558545 18.607177 14.822946 18.838527C15.087347 19.069877 15.372993 19.272899 15.679887 19.447592S16.272426 19.709632 16.536827 19.709632C16.829557 19.709632 17.077432 19.610482 17.280453 19.412181C17.483475 19.213881 17.584986 18.968367 17.584986 18.675637C17.584986 18.109065 17.245042 17.712465 16.565156 17.485836C17.245042 17.306421 17.584986 16.923984 17.584986 16.338527C17.584986 16.045797 17.485836 15.797922 17.287535 15.594901S16.853163 15.290368 16.57932 15.290368C16.267705 15.290368 15.941926 15.387158 15.601983 15.580737S14.955146 15.993863 14.681303 16.239377C14.40746 16.484891 14.074599 16.732766 13.68272 16.983003S12.906044 17.40085 12.528329 17.485836C12.660529 17.004249 12.913126 16.508499 13.286119 15.998584S13.991973 15.028329 14.284703 14.617564C14.577432 14.206799 14.723796 13.831445 14.723796 13.491501C14.723796 13.18933 14.624646 12.939093 14.426346 12.740793S13.977809 12.443343 13.675637 12.443343C13.118508 12.443343 12.73135 12.783286 12.514164 13.463173C12.410293 13.113786 12.254486 12.856469 12.046742 12.691218S11.607649 12.443343 11.352691 12.443343C11.069405 12.443343 10.823891 12.542493 10.616147 12.740793C10.408404 12.939093 10.304533 13.175166 10.304533 13.449008C10.304533 13.836166 10.446176 14.244571 10.729462 14.674221C11.012748 15.103871 11.331445 15.564211 11.685552 16.055241S12.278092 17.023135 12.40085 17.485836C12.004249 17.381964 11.607649 17.20255 11.211048 16.947592S10.483948 16.444759 10.219547 16.203966S9.664778 15.748347 9.348442 15.55949S8.741738 15.276204 8.477337 15.276204C8.175166 15.276204 7.922568 15.377715 7.719547 15.580737S7.415014 16.031633 7.415014 16.324363C7.415014 16.881492 7.754958 17.26865 8.434844 17.485836Z" fill="#010101" />
<path d="M24.726528 4.227813Q24.75 4.193908 24.75 4.146963Q24.744784 4.068722 24.718703 4.053073T24.65611 4.037425H24.609165Q24.452683 4.037425 24.379657 3.956576T24.262295 3.774012T24.20231 3.635786L23.289493 1.476322Q23.258197 1.398081 23.258197 1.351136Q23.258197 1.257246 23.331222 1.215517T23.53465 1.147708Q23.623323 1.13206 23.644188 1.116412T23.665052 1.027738Q23.665052 0.965145 23.631148 0.944281T23.524218 0.923416Q23.263413 0.923416 23.109538 0.962537T22.840909 1.11902T22.627049 1.476322L21.750745 3.635786Q21.672504 3.833997 21.599478 3.933103T21.380402 4.037425H21.349106Q21.296945 4.037425 21.27608 4.055681T21.25 4.146963Q21.25 4.193908 21.273472 4.227813T21.34389 4.261717Q21.67772 4.246069 21.91766 4.246069Q22.230626 4.246069 22.564456 4.261717Q22.611401 4.261717 22.634873 4.227813T22.658346 4.146963Q22.65313 4.073938 22.632265 4.055681T22.55924 4.037425Q22.381893 4.037425 22.308867 4.00352T22.235842 3.880942Q22.235842 3.813133 22.298435 3.635786L22.475782 3.20285H23.764158Q23.89456 3.526248 23.912817 3.578409T23.931073 3.635786Q23.993666 3.833997 23.993666 3.891374Q23.993666 3.980048 23.915425 4.008737T23.618107 4.037425H23.586811Q23.53465 4.037425 23.513785 4.055681T23.487705 4.146963Q23.487705 4.193908 23.511177 4.227813T23.581595 4.261717Q23.915425 4.246069 24.150149 4.246069Q24.317064 4.246069 24.65611 4.261717Q24.703055 4.261717 24.726528 4.227813ZM23.665052 2.978558H22.569672L23.096498 1.638021H23.112146Z" fill="#010101" />
<path d="M22.947946 6.83234C22.945467 6.906702 22.942369 6.966812 22.938651 7.012669C22.934933 7.058526 22.925637 7.116777 22.910765 7.187421S22.877921 7.316317 22.856852 7.362173S22.804178 7.459465 22.76204 7.516476S22.670326 7.620583 22.613314 7.657765S22.484419 7.730888 22.397663 7.765591S22.211756 7.82756 22.100212 7.847389V7.921752H23.899788V7.847389C23.788244 7.827559 23.689093 7.799674 23.602337 7.763732S23.443077 7.691228 23.384826 7.654047S23.277001 7.569149 23.236101 7.510899S23.163598 7.401214 23.141289 7.356596S23.101009 7.253728 23.087376 7.181844S23.065067 7.052329 23.061349 7.008951C23.057631 6.965573 23.054533 6.906702 23.052054 6.83234C23.111544 6.941405 23.15988 7.018246 23.197061 7.062864C23.263987 7.147142 23.346406 7.214068 23.444317 7.263643C23.542227 7.313218 23.638279 7.338006 23.732472 7.338006C23.891112 7.338006 24.027443 7.279135 24.141466 7.161394S24.3125 6.901745 24.3125 6.735668C24.3125 6.57455 24.261066 6.436979 24.158198 6.322956S23.930772 6.151922 23.784525 6.151922C23.734951 6.151922 23.689093 6.158739 23.646955 6.172372S23.562677 6.203356 23.520538 6.224426L23.442458 6.263466C23.539129 6.124656 23.587465 5.993282 23.587465 5.869344C23.587465 5.713183 23.529834 5.57933 23.414572 5.467786S23.161119 5.30047 23.0 5.30047S22.700691 5.356242 22.585428 5.467786S22.412535 5.713183 22.412535 5.869344C22.412535 5.993282 22.460871 6.124656 22.557542 6.263466C22.540191 6.25603 22.516023 6.244875 22.485039 6.230003S22.431126 6.203976 22.416254 6.19654S22.382171 6.181667 22.358623 6.174231S22.312146 6.161217 22.289837 6.157499S22.242741 6.151922 22.215475 6.151922C22.069228 6.151922 21.944671 6.208933 21.841802 6.322956S21.6875 6.57455 21.6875 6.735668C21.6875 6.901745 21.744511 7.043653 21.858534 7.161394S22.108888 7.338006 22.267528 7.338006C22.540191 7.338006 22.766996 7.16945 22.947946 6.83234Z" fill="#010101" />
<path d="M0.273472 30.772187Q0.25 30.806092 0.25 30.853037Q0.255216 30.931278 0.281297 30.946927T0.34389 30.962575H0.390835Q0.547317 30.962575 0.620343 31.043424T0.737705 31.225988T0.79769 31.364214L1.710507 33.523678Q1.741803 33.601919 1.741803 33.648864Q1.741803 33.742754 1.668778 33.784483T1.46535 33.852292Q1.376677 33.86794 1.355812 33.883588T1.334948 33.972262Q1.334948 34.034855 1.368852 34.055719T1.475782 34.076584Q1.736587 34.076584 1.890462 34.037463T2.159091 33.88098T2.372951 33.523678L3.249255 31.364214Q3.327496 31.166003 3.400522 31.066897T3.619598 30.962575H3.650894Q3.703055 30.962575 3.72392 30.944319T3.75 30.853037Q3.75 30.806092 3.726528 30.772187T3.65611 30.738283Q3.32228 30.753931 3.08234 30.753931Q2.769374 30.753931 2.435544 30.738283Q2.388599 30.738283 2.365127 30.772187T2.341654 30.853037Q2.34687 30.926062 2.367735 30.944319T2.44076 30.962575Q2.618107 30.962575 2.691133 30.99648T2.764158 31.119058Q2.764158 31.186867 2.701565 31.364214L2.524218 31.79715H1.235842Q1.10544 31.473752 1.087183 31.421591T1.068927 31.364214Q1.006334 31.166003 1.006334 31.108626Q1.006334 31.019952 1.084575 30.991263T1.381893 30.962575H1.413189Q1.46535 30.962575 1.486215 30.944319T1.512295 30.853037Q1.512295 30.806092 1.488823 30.772187T1.418405 30.738283Q1.084575 30.753931 0.849851 30.753931Q0.682936 30.753931 0.34389 30.738283Q0.296945 30.738283 0.273472 30.772187ZM1.334948 32.021442H2.430328L1.903502 33.361979H1.887854Z" fill="#010101" />
<path d="M2.052054 28.16766C2.054533 28.093298 2.057631 28.033188 2.061349 27.987331C2.065067 27.941474 2.074363 27.883223 2.089235 27.812579S2.122079 27.683683 2.143148 27.637827S2.195822 27.540535 2.23796 27.483524S2.329674 27.379417 2.386686 27.342235S2.515581 27.269112 2.602337 27.234409S2.788244 27.17244 2.899788 27.152611V27.078248H1.100212V27.152611C1.211756 27.172441 1.310907 27.200326 1.397663 27.236268S1.556923 27.308772 1.615174 27.345953S1.722999 27.430851 1.763899 27.489101S1.836402 27.598786 1.858711 27.643404S1.898991 27.746272 1.912624 27.818156S1.934933 27.947671 1.938651 27.991049C1.942369 28.034427 1.945467 28.093298 1.947946 28.16766C1.888456 28.058595 1.84012 27.981754 1.802939 27.937136C1.736013 27.852858 1.653594 27.785932 1.555683 27.736357C1.457773 27.686782 1.361721 27.661994 1.267528 27.661994C1.108888 27.661994 0.972557 27.720865 0.858534 27.838606S0.6875 28.098255 0.6875 28.264332C0.6875 28.42545 0.738934 28.563021 0.841802 28.677044S1.069228 28.848078 1.215475 28.848078C1.265049 28.848078 1.310907 28.841261 1.353045 28.827628S1.437323 28.796644 1.479462 28.775574L1.557542 28.736534C1.460871 28.875344 1.412535 29.006718 1.412535 29.130656C1.412535 29.286817 1.470166 29.42067 1.585428 29.532214S1.838881 29.69953 2.0 29.69953S2.299309 29.643758 2.414572 29.532214S2.587465 29.286817 2.587465 29.130656C2.587465 29.006718 2.539129 28.875344 2.442458 28.736534C2.459809 28.74397 2.483977 28.755125 2.514961 28.769997S2.568874 28.796024 2.583746 28.80346S2.617829 28.818333 2.641377 28.825769S2.687854 28.838783 2.710163 28.842501S2.757259 28.848078 2.784525 28.848078C2.930772 28.848078 3.055329 28.791067 3.158198 28.677044S3.3125 28.42545 3.3125 28.264332C3.3125 28.098255 3.255489 27.956347 3.141466 27.838606S2.891112 27.661994 2.732472 27.661994C2.459809 27.661994 2.233004 27.83055 2.052054 28.16766Z" fill="#010101" />
</svg>
