<svg width="500.000000" height="700.000000" id="card-realheart12">
<radialGradient id="card-realwhitegradient" cx="250.0" cy="350.0" r="500" gradientTransform="matrix(1 0 0 1 0 -.25)" gradientUnits="userSpaceOnUse">
<stop stop-color="#FDFAF4" offset=".15"/>
<stop stop-color="#FDF9F2" offset=".35"/>
<stop stop-color="#FCF7F1" offset=".5"/>
<stop stop-color="#FDFDF8" offset=".75"/>
<stop stop-color="#FFFDFA" offset="1"/>
</radialGradient>
<rect x="0" y="0" rx="25.0" ry="25.0" width="500" height="700.0" stroke="rgba(1,1,1,0.333)" fill="url(#card-realwhitegradient)" />
<rect x="100.0" y="70.0" width="300.0" height="560.0" stroke="#010101" fill="#fffdfa" />
<path d="M249.721448 275.966141C261.420613 275.966141 272.052006 276.801795 281.615599 278.473104C291.179192 280.144413 295.961003 282.279985 295.961003 284.87979C295.961003 287.851015 293.82544 289.336614 289.554318 289.336614C288.811513 289.336614 283.101198 288.965213 272.423398 288.222408S254.085432 287.108202 249.442897 287.108202C244.61468 287.108202 237.000919 287.479603 226.601671 288.222408C216.202423 288.965213 210.724234 289.336614 210.167131 289.336614C205.896017 289.336614 203.760446 287.851007 203.760446 284.87979C203.760446 278.937366 219.08078 275.966141 249.721448 275.966141ZM330.779944 168.445249C332.636955 168.445249 334.261838 169.095202 335.654596 170.39511C337.047354 171.695018 337.743733 173.366335 337.743733 175.409037S337.047354 179.123049 335.654596 180.422965S332.636964 182.372826 330.779944 182.372826C326.32312 182.372826 324.094708 180.051564 324.094708 175.409037C324.094708 170.766503 326.32312 168.445249 330.779944 168.445249ZM294.289694 150.896503C299.117911 150.896503 301.532033 153.217764 301.532033 157.860291S299.117919 164.824079 294.289694 164.824079C289.832869 164.824079 287.604457 162.502817 287.604457 157.860291S289.832869 150.896503 294.289694 150.896503ZM205.431755 150.896503C207.288766 150.896503 208.867214 151.592881 210.167131 152.985639S212.116992 156.003271 212.116992 157.860291C212.116992 162.502826 209.888579 164.824079 205.431755 164.824079C200.78922 164.824079 198.467967 162.502817 198.467967 157.860291S200.789228 150.896503 205.431755 150.896503ZM169.220056 168.445249C173.67688 168.445249 175.905292 170.766511 175.905292 175.409037C175.905292 180.051572 173.67688 182.372826 169.220056 182.372826C164.577521 182.372826 162.256267 180.051564 162.256267 175.409037C162.256267 173.366327 162.952646 171.695026 164.345404 170.39511C165.738162 169.095202 167.363036 168.445249 169.220056 168.445249ZM197.075209 274.573383C197.075209 275.687589 195.775301 279.262324 193.175487 285.297617S189.275766 296.764664 189.275766 301.592881C189.275766 306.049706 195.636017 309.253049 208.356546 311.202909C221.077075 313.15277 234.958217 314.1277 250.0 314.1277C267.084485 314.1277 281.429805 312.967068 293.036212 310.645806C304.642535 308.324544 310.445682 305.306893 310.445682 301.592881C310.445682 296.578954 309.192201 291.100764 306.685237 285.158341S302.924791 275.687589 302.924791 274.573383C302.924791 271.416475 306.406685 265.79901 313.370474 257.721015S323.816156 244.675528 323.816156 242.818508C323.816156 241.704302 324.512535 238.825946 325.905292 234.183411S328.830084 223.412742 330.501393 215.79901S333.286908 200.385834 333.844011 192.400681C342.386267 188.872352 346.657382 183.20848 346.657382 175.409037C346.657382 170.952213 345.125348 167.238202 342.061281 164.266976S335.236769 159.810152 330.779944 159.810152C326.694513 159.810152 323.073343 161.342185 319.916435 164.406252S315.181058 171.137923 315.181058 175.409037C315.181058 175.594739 315.413185 177.312472 315.877437 180.562241S316.573816 185.622603 316.573816 185.993996C316.573816 194.350542 310.631393 204.564107 298.746518 216.634664C297.818014 209.020932 297.35376 201.035778 297.35376 192.679232C297.35376 185.808285 298.003713 180.422965 299.303621 176.523244S302.089136 170.2094 303.760446 169.280904S306.917354 166.959642 308.21727 165.102631S310.167131 160.645806 310.167131 157.303188C310.167131 152.846363 308.635097 149.132352 305.571031 146.161127S298.746518 141.704302 294.289694 141.704302C290.018579 141.704302 286.350975 143.236335 283.286908 146.300402S278.690808 153.032074 278.690808 157.303188C278.690808 157.674589 279.015786 159.62445 279.665738 163.15277S280.640669 168.723801 280.640669 169.280904C280.640669 179.680152 275.5339 195.557589 265.320334 216.913216C261.420613 199.45731 259.470752 186.086753 259.470752 176.801795C259.470752 170.116558 260.445682 164.034859 262.395543 158.55667S265.320334 150.153689 265.320334 149.782297C265.320334 145.325472 263.788301 141.611461 260.724234 138.640235S253.992563 134.183411 249.721448 134.183411S241.875571 135.715444 238.997214 138.779511S234.679666 145.511182 234.679666 149.782297C234.679666 150.710801 235.654596 153.774859 237.604457 158.974497S240.529248 170.116558 240.529248 176.801795C240.529248 186.086837 238.579387 199.45731 234.679666 216.913216C224.651811 195.743299 219.637883 179.865862 219.637883 169.280904C219.637883 168.538099 219.916435 166.588238 220.473538 163.431322S221.309192 158.231684 221.309192 157.303188C221.309192 152.846363 219.777159 149.132352 216.713092 146.161127S209.888579 141.704302 205.431755 141.704302C201.160641 141.704302 197.493036 143.236335 194.428969 146.300402S189.832869 153.032074 189.832869 157.303188C189.832869 160.088703 190.250696 162.270681 191.086351 163.849149S192.989786 166.77394 194.289694 167.888146S196.889507 170.348684 198.189415 171.927143C199.489323 173.505603 200.557103 176.058982 201.392758 179.58731S202.64624 187.572464 202.64624 192.957784C202.64624 201.12862 202.181986 209.020932 201.253482 216.634664C189.368607 204.564107 183.426184 194.350542 183.426184 185.993996C183.426184 181.722881 183.890437 178.194553 184.818942 175.409037C184.818942 171.137923 183.286908 167.470319 180.222841 164.406252S173.49117 159.810152 169.220056 159.810152C164.763231 159.810152 161.002786 161.342185 157.938719 164.406252S153.342618 171.137923 153.342618 175.409037C153.342618 182.837088 157.613733 188.500959 166.155989 192.400681C167.270195 204.099845 169.220056 214.91692 172.005571 224.851934S176.183844 240.775806 176.183844 242.818508C176.183844 244.489817 179.665738 249.410904 186.629526 257.581739S197.075209 271.416475 197.075209 274.573383ZM249.721448 142.261405C251.764159 142.261405 253.43546 142.911358 254.735376 144.211266S256.685237 147.182491 256.685237 149.225193S256.035284 152.939205 254.735376 154.239121S251.76415 156.188982 249.721448 156.188982C245.264624 156.188982 243.036212 153.86772 243.036212 149.225193C243.036212 147.368182 243.686164 145.743299 244.986072 144.350542S247.864429 142.261405 249.721448 142.261405ZM199.582173 250.896503C199.582173 247.739595 205.106769 245.464748 216.155989 244.07199C227.205209 242.679232 238.393677 241.982854 249.721448 241.982854C260.492117 241.982854 271.587744 242.725659 283.008357 244.211266S300.139276 248.018146 300.139276 251.175054C300.139276 253.774868 297.725162 255.074776 292.896936 255.074776C288.811504 255.074776 281.940585 254.749798 272.284123 254.099845S255.013928 253.124915 249.442897 253.124915C243.686156 253.124915 235.190334 253.449893 223.955432 254.099845C212.720529 254.749798 206.824513 255.074776 206.267409 255.074776C201.810585 255.074776 199.582173 253.682018 199.582173 250.896503Z" fill="#da0a0a" />
<path d="M250.278552 424.033859C238.579387 424.033859 227.947994 423.198205 218.384401 421.526896C208.820808 419.855587 204.038997 417.720015 204.038997 415.12021C204.038997 412.148985 206.17456 410.663386 210.445682 410.663386C211.188487 410.663386 216.898802 411.034787 227.576602 411.777592S245.914568 412.891798 250.557103 412.891798C255.38532 412.891798 262.999081 412.520397 273.398329 411.777592C283.797577 411.034787 289.275766 410.663386 289.832869 410.663386C294.103983 410.663386 296.239554 412.148993 296.239554 415.12021C296.239554 421.062634 280.91922 424.033859 250.278552 424.033859ZM169.220056 531.554751C167.363045 531.554751 165.738162 530.904798 164.345404 529.60489C162.952646 528.304982 162.256267 526.633665 162.256267 524.590963S162.952646 520.876951 164.345404 519.577035S167.363036 517.627174 169.220056 517.627174C173.67688 517.627174 175.905292 519.948436 175.905292 524.590963C175.905292 529.233497 173.67688 531.554751 169.220056 531.554751ZM205.710306 549.103497C200.882089 549.103497 198.467967 546.782236 198.467967 542.139709S200.882081 535.175921 205.710306 535.175921C210.167131 535.175921 212.395543 537.497183 212.395543 542.139709S210.167131 549.103497 205.710306 549.103497ZM294.568245 549.103497C292.711234 549.103497 291.132786 548.407119 289.832869 547.014361S287.883008 543.996729 287.883008 542.139709C287.883008 537.497174 290.111421 535.175921 294.568245 535.175921C299.21078 535.175921 301.532033 537.497183 301.532033 542.139709S299.210772 549.103497 294.568245 549.103497ZM330.779944 531.554751C326.32312 531.554751 324.094708 529.233489 324.094708 524.590963C324.094708 519.948428 326.32312 517.627174 330.779944 517.627174C335.422479 517.627174 337.743733 519.948436 337.743733 524.590963C337.743733 526.633673 337.047354 528.304974 335.654596 529.60489C334.261838 530.904798 332.636964 531.554751 330.779944 531.554751ZM302.924791 425.426617C302.924791 424.312411 304.224699 420.737676 306.824513 414.702383S310.724234 403.235336 310.724234 398.407119C310.724234 393.950294 304.363983 390.746951 291.643454 388.797091C278.922925 386.84723 265.041783 385.8723 250.0 385.8723C232.915515 385.8723 218.570195 387.032932 206.963788 389.354194C195.357465 391.675456 189.554318 394.693107 189.554318 398.407119C189.554318 403.421046 190.807799 408.899236 193.314763 414.841659S197.075209 424.312411 197.075209 425.426617C197.075209 428.583525 193.593315 434.20099 186.629526 442.278985S176.183844 455.324472 176.183844 457.181492C176.183844 458.295698 175.487465 461.174054 174.094708 465.816589S171.169916 476.587258 169.498607 484.20099S166.713092 499.614166 166.155989 507.599319C157.613733 511.127648 153.342618 516.79152 153.342618 524.590963C153.342618 529.047787 154.874652 532.761798 157.938719 535.733024S164.763231 540.189848 169.220056 540.189848C173.305487 540.189848 176.926657 538.657815 180.083565 535.593748S184.818942 528.862077 184.818942 524.590963C184.818942 524.405261 184.586815 522.687528 184.122563 519.437759S183.426184 514.377397 183.426184 514.006004C183.426184 505.649458 189.368607 495.435893 201.253482 483.365336C202.181986 490.979068 202.64624 498.964222 202.64624 507.320768C202.64624 514.191715 201.996287 519.577035 200.696379 523.476756S197.910864 529.7906 196.239554 530.719096S193.082646 533.040358 191.78273 534.897369S189.832869 539.354194 189.832869 542.696812C189.832869 547.153637 191.364903 550.867648 194.428969 553.838873S201.253482 558.295698 205.710306 558.295698C209.981421 558.295698 213.649025 556.763665 216.713092 553.699598S221.309192 546.967926 221.309192 542.696812C221.309192 542.325411 220.984214 540.37555 220.334262 536.84723S219.359331 531.276199 219.359331 530.719096C219.359331 520.319848 224.4661 504.442411 234.679666 483.086784C238.579387 500.54269 240.529248 513.913247 240.529248 523.198205C240.529248 529.883442 239.554318 535.965141 237.604457 541.44333S234.679666 549.846311 234.679666 550.217703C234.679666 554.674528 236.211699 558.388539 239.275766 561.359765S246.007437 565.816589 250.278552 565.816589S258.124429 564.284556 261.002786 561.220489S265.320334 554.488818 265.320334 550.217703C265.320334 549.289199 264.345404 546.225141 262.395543 541.025503S259.470752 529.883442 259.470752 523.198205C259.470752 513.913163 261.420613 500.54269 265.320334 483.086784C275.348189 504.256701 280.362117 520.134138 280.362117 530.719096C280.362117 531.461901 280.083565 533.411762 279.526462 536.568678S278.690808 541.768316 278.690808 542.696812C278.690808 547.153637 280.222841 550.867648 283.286908 553.838873S290.111421 558.295698 294.568245 558.295698C298.839359 558.295698 302.506964 556.763665 305.571031 553.699598S310.167131 546.967926 310.167131 542.696812C310.167131 539.911297 309.749304 537.729319 308.913649 536.150851S307.010214 533.22606 305.710306 532.111854S303.110493 529.651316 301.810585 528.072857C300.510677 526.494397 299.442897 523.941018 298.607242 520.41269S297.35376 512.427536 297.35376 507.042216C297.35376 498.87138 297.818014 490.979068 298.746518 483.365336C310.631393 495.435893 316.573816 505.649458 316.573816 514.006004C316.573816 518.277119 316.109563 521.805447 315.181058 524.590963C315.181058 528.862077 316.713092 532.529681 319.777159 535.593748S326.50883 540.189848 330.779944 540.189848C335.236769 540.189848 338.997214 538.657815 342.061281 535.593748S346.657382 528.862077 346.657382 524.590963C346.657382 517.162912 342.386267 511.499041 333.844011 507.599319C332.729805 495.900155 330.779944 485.08308 327.994429 475.148066S323.816156 459.224194 323.816156 457.181492C323.816156 455.510183 320.334262 450.589096 313.370474 442.418261S302.924791 428.583525 302.924791 425.426617ZM250.278552 557.738595C248.235841 557.738595 246.56454 557.088642 245.264624 555.788734S243.314763 552.817509 243.314763 550.774807S243.964716 547.060795 245.264624 545.760879S248.23585 543.811018 250.278552 543.811018C254.735376 543.811018 256.963788 546.13228 256.963788 550.774807C256.963788 552.631818 256.313836 554.256701 255.013928 555.649458S252.135571 557.738595 250.278552 557.738595ZM300.417827 449.103497C300.417827 452.260405 294.893231 454.535252 283.844011 455.92801C272.794791 457.320768 261.606323 458.017146 250.278552 458.017146C239.507883 458.017146 228.412256 457.274341 216.991643 455.788734S199.860724 451.981854 199.860724 448.824946C199.860724 446.225132 202.274838 444.925224 207.103064 444.925224C211.188496 444.925224 218.059415 445.250202 227.715877 445.900155S244.986072 446.875085 250.557103 446.875085C256.313844 446.875085 264.809666 446.550107 276.044568 445.900155C287.279471 445.250202 293.175487 444.925224 293.732591 444.925224C298.189415 444.925224 300.417827 446.317982 300.417827 449.103497Z" fill="#da0a0a" />
<path d="M444.947121 85.946515Q447.579318 85.041698 449.553467 83.684471T454.653349 79.859559Q457.121034 77.803155 459.054054 76.4048T463.207991 73.854859Q465.840188 72.53876 469.459459 71.716198Q478.096357 69.74205 482.044653 66.698572Q486.897767 62.914788 489.571093 57.239112T492.244418 45.147456Q492.244418 36.510558 488.33725 30.094577T478.343126 20.264964T466.0047 16.851333Q458.108108 16.851333 452.021152 20.593989T442.685076 30.464729T439.435958 43.666844Q439.435958 52.879535 444.083431 59.747926T456.380729 69.659794Q457.696827 70.235587 459.753231 70.317843V70.482356Q457.532315 70.729124 455.722679 71.633942Q452.514689 73.196809 447.085781 77.145105Q443.055229 80.024071 440.587544 81.381298T435.73443 82.738525Q434.253819 82.574013 433.554642 81.792579T432.855464 79.859559Q432.855464 77.885411 434.377203 76.199159T438.284371 74.430652Q438.53114 73.114553 437.297297 71.880711T433.59577 70.646868Q432.526439 70.646868 431.169213 71.387174T428.783784 73.60809T427.755582 77.227362Q427.755582 79.695047 429.441833 81.874835T433.719154 85.41185T438.942421 86.851333Q442.314924 86.851333 444.947121 85.946515ZM456.709753 65.259089Q452.925969 61.845458 451.075206 56.169782T449.224442 43.666844Q449.224442 37.333119 451.116334 32.027597T456.833137 23.555211T466.086957 20.388349Q474.312573 20.388349 478.425382 27.338995T482.53819 44.900687Q482.53819 51.316668 480.687427 56.745575T475.135135 65.423601T466.086957 68.67272Q460.493537 68.67272 456.709753 65.259089Z" fill="#da0a0a" />
<path d="M459.92688 116.50147C458.951952 112.89423 457.379877 110.23754 455.210655 108.531414S450.640669 105.972222 448.008357 105.972222C445.034817 105.972222 442.487813 106.995899 440.36734 109.043253S437.18663 113.552308 437.18663 116.42835C437.18663 119.060662 437.832521 121.741723 439.124304 124.471526S442.049095 129.83364 444.023329 132.368462S448.008357 137.450286 450.05571 140.009478S454.065109 145.481273 455.941852 148.747292S459.146933 155.254952 459.92688 158.472222C460.804318 155.108712 462.205782 151.733014 464.131267 148.345133S468.043175 141.959342 470.090529 139.3514C472.137883 136.743459 474.136488 134.184267 476.086351 131.673824S479.644849 126.640748 480.912256 124.105927S482.81337 119.158153 482.81337 116.867069C482.81337 113.796038 481.777505 111.212475 479.70578 109.116373C477.634055 107.02027 475.087045 105.972222 472.064763 105.972222C466.26393 105.972222 462.217942 109.481972 459.92688 116.50147Z" fill="#da0a0a" />
<path d="M55.052879 614.053485Q52.420682 614.958302 50.446533 616.315529T45.346651 620.140441Q42.878966 622.196845 40.945946 623.5952T36.792009 626.145141Q34.159812 627.46124 30.540541 628.283802Q21.903643 630.25795 17.955347 633.301428Q13.102233 637.085212 10.428907 642.760888T7.755582 654.852544Q7.755582 663.489442 11.66275 669.905423T21.656874 679.735036T33.9953 683.148667Q41.891892 683.148667 47.978848 679.406011T57.314924 669.535271T60.564042 656.333156Q60.564042 647.120465 55.916569 640.252074T43.619271 630.340206Q42.303173 629.764413 40.246769 629.682157V629.517644Q42.467685 629.270876 44.277321 628.366058Q47.485311 626.803191 52.914219 622.854895Q56.944771 619.975929 59.412456 618.618702T64.26557 617.261475Q65.746181 617.425987 66.445358 618.207421T67.144536 620.140441Q67.144536 622.114589 65.622797 623.800841T61.715629 625.569348Q61.46886 626.885447 62.702703 628.119289T66.40423 629.353132Q67.473561 629.353132 68.830787 628.612826T71.216216 626.39191T72.244418 622.772638Q72.244418 620.304953 70.558167 618.125165T66.280846 614.58815T61.057579 613.148667Q57.685076 613.148667 55.052879 614.053485ZM43.290247 634.740911Q47.074031 638.154542 48.924794 643.830218T50.775558 656.333156Q50.775558 662.666881 48.883666 667.972403T43.166863 676.444789T33.913043 679.611651Q25.687427 679.611651 21.574618 672.661005T17.46181 655.099313Q17.46181 648.683332 19.312573 643.254425T24.864865 634.576399T33.913043 631.32728Q39.506463 631.32728 43.290247 634.740911Z" fill="#da0a0a" />
<path d="M40.07312 583.49853C41.048048 587.10577 42.620123 589.76246 44.789345 591.468586S49.359331 594.027778 51.991643 594.027778C54.965183 594.027778 57.512187 593.004101 59.63266 590.956747S62.81337 586.447692 62.81337 583.57165C62.81337 580.939338 62.167479 578.258277 60.875696 575.528474S57.950905 570.16636 55.976671 567.631538S51.991643 562.549714 49.94429 559.990522S45.934891 554.518727 44.058148 551.252708S40.853067 544.745048 40.07312 541.527778C39.195682 544.891288 37.794218 548.266986 35.868733 551.654867S31.956825 558.040658 29.909471 560.6486C27.862117 563.256541 25.863512 565.815733 23.913649 568.326176S20.355151 573.359252 19.087744 575.894073S17.18663 580.841847 17.18663 583.132931C17.18663 586.203962 18.222495 588.787525 20.29422 590.883627C22.365945 592.97973 24.912955 594.027778 27.935237 594.027778C33.73607 594.027778 37.782058 590.518028 40.07312 583.49853Z" fill="#da0a0a" />
</svg>
