<svg width="25.000000" height="35.000000" id="card-lightheart5">
<rect x="0" y="0" rx="1.25" ry="1.25" width="25" height="35.0" stroke="rgba(1,1,1,0.333)" fill="#fffdfa" />
<path d="M7.493036 4.336119C7.400186 3.992572 7.250464 3.739554 7.043872 3.577066S6.608635 3.333333 6.357939 3.333333C6.074744 3.333333 5.832173 3.430826 5.630223 3.625812S5.327298 4.055246 5.327298 4.329155C5.327298 4.579851 5.388811 4.835191 5.511838 5.095172S5.79039 5.605849 5.978412 5.847261S6.357939 6.331244 6.552925 6.574977S6.934772 7.0961 7.11351 7.407149S7.418756 8.026927 7.493036 8.333333C7.576602 8.012999 7.710075 7.691504 7.893454 7.368849S8.266017 6.760678 8.461003 6.512303C8.655989 6.263927 8.846332 6.020195 9.032033 5.781105S9.370938 5.301764 9.491643 5.060353S9.672702 4.589136 9.672702 4.370938C9.672702 4.078459 9.574048 3.832405 9.376741 3.632776C9.179434 3.433147 8.936861 3.333333 8.649025 3.333333C8.096565 3.333333 7.711233 3.667595 7.493036 4.336119Z" fill="#da0a0a" />
<path d="M7.506964 30.663881C7.599814 31.007428 7.749536 31.260446 7.956128 31.422934S8.391365 31.666667 8.642061 31.666667C8.925256 31.666667 9.167827 31.569174 9.369777 31.374188S9.672702 30.944754 9.672702 30.670845C9.672702 30.420149 9.611189 30.164809 9.488162 29.904828S9.20961 29.394151 9.021588 29.152739S8.642061 28.668756 8.447075 28.425023S8.065228 27.9039 7.88649 27.592851S7.581244 26.973073 7.506964 26.666667C7.423398 26.987001 7.289925 27.308496 7.106546 27.631151S6.733983 28.239322 6.538997 28.487697C6.344011 28.736073 6.153668 28.979805 5.967967 29.218895S5.629062 29.698236 5.508357 29.939647S5.327298 30.410864 5.327298 30.629062C5.327298 30.921541 5.425952 31.167595 5.623259 31.367224C5.820566 31.566853 6.063139 31.666667 6.350975 31.666667C6.903435 31.666667 7.288767 31.332405 7.506964 30.663881Z" fill="#da0a0a" />
<path d="M17.493036 4.336119C17.400186 3.992572 17.250464 3.739554 17.043872 3.577066S16.608635 3.333333 16.357939 3.333333C16.074744 3.333333 15.832173 3.430826 15.630223 3.625812S15.327298 4.055246 15.327298 4.329155C15.327298 4.579851 15.388811 4.835191 15.511838 5.095172S15.79039 5.605849 15.978412 5.847261S16.357939 6.331244 16.552925 6.574977S16.934772 7.0961 17.11351 7.407149S17.418756 8.026927 17.493036 8.333333C17.576602 8.012999 17.710075 7.691504 17.893454 7.368849S18.266017 6.760678 18.461003 6.512303C18.655989 6.263927 18.846332 6.020195 19.032033 5.781105S19.370938 5.301764 19.491643 5.060353S19.672702 4.589136 19.672702 4.370938C19.672702 4.078459 19.574048 3.832405 19.376741 3.632776C19.179434 3.433147 18.936861 3.333333 18.649025 3.333333C18.096565 3.333333 17.711233 3.667595 17.493036 4.336119Z" fill="#da0a0a" />
<path d="M17.506964 30.663881C17.599814 31.007428 17.749536 31.260446 17.956128 31.422934S18.391365 31.666667 18.642061 31.666667C18.925256 31.666667 19.167827 31.569174 19.369777 31.374188S19.672702 30.944754 19.672702 30.670845C19.672702 30.420149 19.611189 30.164809 19.488162 29.904828S19.20961 29.394151 19.021588 29.152739S18.642061 28.668756 18.447075 28.425023S18.065228 27.9039 17.88649 27.592851S17.581244 26.973073 17.506964 26.666667C17.423398 26.987001 17.289925 27.308496 17.106546 27.631151S16.733983 28.239322 16.538997 28.487697C16.344011 28.736073 16.153668 28.979805 15.967967 29.218895S15.629062 29.698236 15.508357 29.939647S15.327298 30.410864 15.327298 30.629062C15.327298 30.921541 15.425952 31.167595 15.623259 31.367224C15.820566 31.566853 16.063139 31.666667 16.350975 31.666667C16.903435 31.666667 17.288767 31.332405 17.506964 30.663881Z" fill="#da0a0a" />
<path d="M12.493036 16.002786C12.400186 15.659239 12.250464 15.406221 12.043872 15.243733S11.608635 15.0 11.357939 15.0C11.074744 15.0 10.832173 15.097493 10.630223 15.292479S10.327298 15.721913 10.327298 15.995822C10.327298 16.246518 10.388811 16.501857 10.511838 16.761838S10.79039 17.272516 10.978412 17.513928S11.357939 17.997911 11.552925 18.241643S11.934772 18.762767 12.11351 19.073816S12.418756 19.693593 12.493036 20.0C12.576602 19.679666 12.710075 19.358171 12.893454 19.035515S13.266017 18.427345 13.461003 18.178969C13.655989 17.930594 13.846332 17.686861 14.032033 17.447772S14.370938 16.968431 14.491643 16.727019S14.672702 16.255803 14.672702 16.037604C14.672702 15.745125 14.574048 15.499072 14.376741 15.299443C14.179434 15.099814 13.936861 15.0 13.649025 15.0C13.096565 15.0 12.711233 15.334262 12.493036 16.002786Z" fill="#da0a0a" />
<path d="M23.913889 4.167567Q24.231481 3.992567 24.231481 3.623122Q24.231481 3.422196 24.111574 3.269881T23.790741 3.117567Q23.667593 3.117567 23.580093 3.182381T23.492593 3.292567Q23.492593 3.299048 23.550926 3.3509T23.65787 3.477289T23.706481 3.649048Q23.706481 3.869419 23.547685 3.986085T23.103704 4.102752Q22.747222 4.102752 22.568981 3.849974T22.390741 3.188863Q22.390741 2.812937 22.572222 2.5634T23.136111 2.313863Q23.311111 2.313863 23.4375 2.368956T23.706481 2.527752Q23.790741 2.586085 23.845833 2.615252T23.952778 2.644419Q24.056481 2.644419 24.056481 2.462937L24.05 2.385159L23.849074 0.842567H22.066667Q21.975926 0.842567 21.920833 0.9009T21.865741 1.062937Q21.865741 1.302752 22.112037 1.302752H23.550926L23.687037 2.203678Q23.401852 2.028678 22.987037 2.028678Q22.708333 2.028678 22.426389 2.151826T21.956481 2.527752T21.768519 3.156456T21.953241 3.801363T22.445833 4.206456T23.116667 4.342567Q23.596296 4.342567 23.913889 4.167567Z" fill="#da0a0a" />
<path d="M22.996344 5.825074C22.947598 5.644712 22.868994 5.511877 22.760533 5.426571S22.532033 5.298611 22.400418 5.298611C22.251741 5.298611 22.124391 5.349795 22.018367 5.452163S21.859331 5.677615 21.859331 5.821418C21.859331 5.953033 21.891626 6.087086 21.956215 6.223576S22.102455 6.491682 22.201166 6.618423S22.400418 6.872514 22.502786 7.000474S22.703255 7.274064 22.797093 7.437365S22.957347 7.762748 22.996344 7.923611C23.040216 7.755436 23.110289 7.586651 23.206563 7.417257S23.402159 7.097967 23.504526 6.96757C23.606894 6.837173 23.706824 6.709213 23.804318 6.583691S23.982242 6.332037 24.045613 6.205296S24.140669 5.957908 24.140669 5.843353C24.140669 5.689802 24.088875 5.560624 23.985289 5.455819C23.881703 5.351013 23.754352 5.298611 23.603238 5.298611C23.313197 5.298611 23.110897 5.474099 22.996344 5.825074Z" fill="#da0a0a" />
<path d="M1.086111 30.832433Q0.768519 31.007433 0.768519 31.376878Q0.768519 31.577804 0.888426 31.730119T1.209259 31.882433Q1.332407 31.882433 1.419907 31.817619T1.507407 31.707433Q1.507407 31.700952 1.449074 31.6491T1.34213 31.522711T1.293519 31.350952Q1.293519 31.130581 1.452315 31.013915T1.896296 30.897248Q2.252778 30.897248 2.431019 31.150026T2.609259 31.811137Q2.609259 32.187063 2.427778 32.4366T1.863889 32.686137Q1.688889 32.686137 1.5625 32.631044T1.293519 32.472248Q1.209259 32.413915 1.154167 32.384748T1.047222 32.355581Q0.943519 32.355581 0.943519 32.537063L0.95 32.614841L1.150926 34.157433H2.933333Q3.024074 34.157433 3.079167 34.0991T3.134259 33.937063Q3.134259 33.697248 2.887963 33.697248H1.449074L1.312963 32.796322Q1.598148 32.971322 2.012963 32.971322Q2.291667 32.971322 2.573611 32.848174T3.043519 32.472248T3.231481 31.843544T3.046759 31.198637T2.554167 30.793544T1.883333 30.657433Q1.403704 30.657433 1.086111 30.832433Z" fill="#da0a0a" />
<path d="M2.003656 29.174926C2.052402 29.355288 2.131006 29.488123 2.239467 29.573429S2.467967 29.701389 2.599582 29.701389C2.748259 29.701389 2.875609 29.650205 2.981633 29.547837S3.140669 29.322385 3.140669 29.178582C3.140669 29.046967 3.108374 28.912914 3.043785 28.776424S2.897545 28.508318 2.798834 28.381577S2.599582 28.127486 2.497214 27.999526S2.296745 27.725936 2.202907 27.562635S2.042653 27.237252 2.003656 27.076389C1.959784 27.244564 1.889711 27.413349 1.793437 27.582743S1.597841 27.902033 1.495474 28.03243C1.393106 28.162827 1.293176 28.290787 1.195682 28.416309S1.017758 28.667963 0.954387 28.794704S0.859331 29.042092 0.859331 29.156647C0.859331 29.310198 0.911125 29.439376 1.014711 29.544181C1.118297 29.648987 1.245648 29.701389 1.396762 29.701389C1.686803 29.701389 1.889103 29.525901 2.003656 29.174926Z" fill="#da0a0a" />
</svg>
