<svg width="500.000000" height="700.000000" id="card-realclub11">
<radialGradient id="card-realwhitegradient" cx="250.0" cy="350.0" r="500" gradientTransform="matrix(1 0 0 1 0 -.25)" gradientUnits="userSpaceOnUse">
<stop stop-color="#FDFAF4" offset=".15"/>
<stop stop-color="#FDF9F2" offset=".35"/>
<stop stop-color="#FCF7F1" offset=".5"/>
<stop stop-color="#FDFDF8" offset=".75"/>
<stop stop-color="#FFFDFA" offset="1"/>
</radialGradient>
<rect x="0" y="0" rx="25.0" ry="25.0" width="500" height="700.0" stroke="rgba(1,1,1,0.333)" fill="url(#card-realwhitegradient)" />
<rect x="100.0" y="70.0" width="300.0" height="560.0" stroke="#010101" fill="#fffdfa" />
<path d="M314.164306 241.01108C311.520303 241.01108 310.1983 242.805224 310.1983 246.393516C310.1983 251.114961 312.559017 253.475669 317.280453 253.475669C319.169028 253.475669 320.113314 251.964811 320.113314 248.943091C320.113314 243.655074 318.130312 241.01108 314.164306 241.01108ZM293.767705 206.450173C296.411708 206.450173 297.733711 204.844884 297.733711 201.634309C297.733711 198.046009 295.939567 194.741023 292.351275 191.719295C288.762975 188.697567 285.080255 187.186717 281.303116 187.186717C276.959405 187.186717 274.787535 188.50872 274.787535 191.152723C274.787535 194.552156 277.053824 197.95159 281.586402 201.351023S290.179405 206.450173 293.767705 206.450173ZM291.501416 153.192383C290.745986 155.836386 290.368272 157.630541 290.368272 158.574819C290.368272 159.141391 290.651558 160.65225 291.21813 163.107397C290.084986 163.107397 288.054759 162.58804 285.127479 161.549323S280.075552 159.519105 278.753541 158.574819C283.852691 155.930816 288.101983 154.13666 291.501416 153.192383ZM241.926346 230.812779C241.926346 239.122496 244.192635 247.573884 248.725212 256.166887S258.026431 272.739125 263.031161 280.104564S270.82153 293.230145 271.388102 297.385017H177.903683C177.148252 288.697567 176.770538 282.276434 176.770538 278.121561C176.770538 261.690966 179.084042 246.48785 183.711048 232.512496C188.338045 218.537057 193.814929 207.583318 200.141643 199.651306S212.417365 185.58142 217.988669 181.237709C223.559972 176.893997 227.950907 174.722128 231.161473 174.722128H248.15864C249.669499 173.966697 251.038725 170.567255 252.266289 164.523828C253.493861 158.4804 255.051935 154.703233 256.94051 153.192383C258.451368 158.102666 261.048159 161.596547 264.730878 163.673969C268.413598 165.7514 272.946176 167.545556 278.328612 169.056405S287.913116 172.455839 290.934844 174.722128C293.201133 182.465272 299.291785 195.77972 309.206799 214.665471S324.457025 245.543658 325.212465 250.642808C324.457034 253.475669 322.66289 256.025244 319.830028 258.291533S313.975439 261.690966 310.764873 261.690966C309.44287 261.690966 307.743144 260.935536 305.665722 259.424677S301.699717 257.158388 300.0 257.158388C299.055714 257.158388 298.583569 257.724961 298.583569 258.858105L299.433428 261.40768C300.0 263.107397 300.283286 264.051683 300.283286 264.240541C300.283286 265.940258 298.961283 266.790116 296.31728 266.790116C295.939567 266.790116 293.578847 263.485102 289.235127 256.875102C280.925411 244.032808 269.121813 234.306632 253.824363 227.696632C252.691218 220.142326 250.283286 213.24904 246.600567 207.016745S240.037762 197.668303 237.96034 197.668303C236.260623 197.668303 235.410765 198.895876 235.410765 201.351023C235.410765 202.673026 236.591125 206.686235 238.951841 213.390683S242.492918 224.674904 242.492918 227.13006C242.492918 227.696632 242.30406 228.924204 241.926346 230.812779ZM235.977337 162.824111C232.011331 162.824111 227.384334 163.862828 222.096317 165.940258C216.8083 168.017689 210.764873 171.93649 203.966006 177.696632S190.982068 190.633374 185.410765 199.226377S175.118045 219.528558 171.246459 234.353856C167.374873 249.179153 165.439093 265.751306 165.439093 284.07057C165.439093 292.946859 165.816807 300.87887 166.572238 307.866604H285.269122C284.70255 299.179153 282.86119 291.436009 279.745042 284.637142S273.276686 272.644706 269.688385 269.056405C266.100085 265.468105 262.653456 260.982751 259.348442 255.600315S254.013229 244.410513 253.25779 238.178218C260.623229 241.388785 266.902748 245.307595 272.096317 249.934592S280.925411 258.763686 283.002833 262.540825S287.110482 269.575754 289.093484 272.314196C291.076487 275.052629 293.012266 276.421845 294.90085 276.421845C298.111416 276.421845 300.944278 275.666414 303.399433 274.155556S307.176572 270.756122 307.365439 268.489833C309.254014 269.434119 311.142578 269.906264 313.031161 269.906264C321.90745 269.906264 329.084051 264.240541 334.560907 252.909097C333.427762 245.732524 327.195467 230.198983 315.864023 206.30853S298.866856 166.979068 298.866856 159.99125C298.866856 159.046963 299.433428 153.758955 300.566572 144.127227C288.857422 144.127227 278.375836 147.337794 269.121813 153.758955C264.022663 144.882666 259.773371 140.444507 256.373938 140.444507C251.84136 142.899655 248.583569 145.638077 246.600567 148.659805S242.681785 156.591816 240.793201 163.390683C238.904626 163.012969 237.299348 162.824111 235.977337 162.824111Z" fill="#010101" />
<path d="M185.835694 458.98892C188.479697 458.98892 189.8017 457.194776 189.8017 453.606484C189.8017 448.885039 187.440983 446.524331 182.719547 446.524331C180.830972 446.524331 179.886686 448.035189 179.886686 451.056909C179.886686 456.344926 181.869688 458.98892 185.835694 458.98892ZM206.232295 493.549827C203.588292 493.549827 202.266289 495.155116 202.266289 498.365691C202.266289 501.953991 204.060433 505.258977 207.648725 508.280705C211.237025 511.302433 214.919745 512.813283 218.696884 512.813283C223.040595 512.813283 225.212465 511.49128 225.212465 508.847277C225.212465 505.447844 222.946176 502.04841 218.413598 498.648977S209.820595 493.549827 206.232295 493.549827ZM208.498584 546.807617C209.254014 544.163614 209.631728 542.369459 209.631728 541.425181C209.631728 540.858609 209.348442 539.34775 208.78187 536.892603C209.915014 536.892603 211.945241 537.41196 214.872521 538.450677S219.924448 540.480895 221.246459 541.425181C216.147309 544.069184 211.898017 545.86334 208.498584 546.807617ZM258.073654 469.187221C258.073654 460.877504 255.807365 452.426116 251.274788 443.833113S241.973569 427.260875 236.968839 419.895436S229.17847 406.769855 228.611898 402.614983H322.096317C322.851748 411.302433 323.229462 417.723566 323.229462 421.878439C323.229462 438.309034 320.915958 453.51215 316.288952 467.487504C311.661955 481.462943 306.185071 492.416682 299.858357 500.348694S287.582635 514.41858 282.011331 518.762291C276.440028 523.106003 272.049093 525.277872 268.838527 525.277872H251.84136C250.330501 526.033303 248.961275 529.432745 247.733711 535.476172C246.506139 541.5196 244.948065 545.296767 243.05949 546.807617C241.548632 541.897334 238.951841 538.403453 235.269122 536.326031C231.586402 534.2486 227.053824 532.454444 221.671388 530.943595S212.086884 527.544161 209.065156 525.277872C206.798867 517.534728 200.708215 504.22028 190.793201 485.334529S175.542975 454.456342 174.787535 449.357192C175.542966 446.524331 177.33711 443.974756 180.169972 441.708467S186.024561 438.309034 189.235127 438.309034C190.55713 438.309034 192.256856 439.064464 194.334278 440.575323S198.300283 442.841612 200.0 442.841612C200.944286 442.841612 201.416431 442.275039 201.416431 441.141895L200.566572 438.59232C200.0 436.892603 199.716714 435.948317 199.716714 435.759459C199.716714 434.059742 201.038717 433.209884 203.68272 433.209884C204.060433 433.209884 206.421153 436.514898 210.764873 443.124898C219.074589 455.967192 230.878187 465.693368 246.175637 472.303368C247.308782 479.857674 249.716714 486.75096 253.399433 492.983255S259.962238 502.331697 262.03966 502.331697C263.739377 502.331697 264.589235 501.104124 264.589235 498.648977C264.589235 497.326974 263.408875 493.313765 261.048159 486.609317S257.507082 475.325096 257.507082 472.86994C257.507082 472.303368 257.69594 471.075796 258.073654 469.187221ZM264.022663 537.175889C267.988669 537.175889 272.615666 536.137172 277.903683 534.059742C283.1917 531.982311 289.235127 528.06351 296.033994 522.303368S309.017932 509.366626 314.589235 500.773623S324.881955 480.471442 328.753541 465.646144C332.625127 450.820847 334.560907 434.248694 334.560907 415.92943C334.560907 407.053141 334.183193 399.12113 333.427762 392.133396H214.730878C215.29745 400.820847 217.13881 408.563991 220.254958 415.362858S226.723314 427.355294 230.311615 430.943595C233.899915 434.531895 237.346544 439.017249 240.651558 444.399685S245.986771 455.589487 246.74221 461.821782C239.376771 458.611215 233.097252 454.692405 227.903683 450.065408S219.074589 441.236314 216.997167 437.459175S212.889518 430.424246 210.906516 427.685804C208.923513 424.947371 206.987734 423.578155 205.09915 423.578155C201.888584 423.578155 199.055722 424.333586 196.600567 425.844444S192.823428 429.243878 192.634561 431.510167C190.745986 430.565881 188.857422 430.093736 186.968839 430.093736C178.09255 430.093736 170.915949 435.759459 165.439093 447.090903C166.572238 454.267476 172.804533 469.801017 184.135977 493.69147S201.133144 533.020932 201.133144 540.00875C201.133144 540.953037 200.566572 546.241045 199.433428 555.872773C211.142578 555.872773 221.624164 552.662206 230.878187 546.241045C235.977337 555.117334 240.226629 559.555493 243.626062 559.555493C248.15864 557.100345 251.416431 554.361923 253.399433 551.340195S257.318215 543.408184 259.206799 536.609317C261.095374 536.987031 262.700652 537.175889 264.022663 537.175889Z" fill="#010101" />
<path d="M471.525424 86.851333Q472.711864 86.851333 473.135593 85.410655Q473.220339 85.156418 473.220339 84.647944Q473.220339 83.630994 472.288136 83.292011Q468.050847 81.51235 466.016949 78.207266T463.389831 70.029299T462.79661 56.851333V27.020825Q462.881356 24.902181 463.177966 23.588621T464.661017 21.385232T468.305085 20.495401H468.813559Q469.661017 20.495401 470.042373 20.198791T470.508475 18.71574Q470.508475 17.953028 470.084746 17.402181T468.983051 16.851333Q463.559322 17.105571 458.898305 17.105571Q453.728814 17.105571 448.305085 16.851333Q447.542373 16.851333 447.161017 17.402181T446.779661 18.71574Q446.864407 19.986927 447.330508 20.241164T448.983051 20.495401Q451.440678 20.495401 452.627119 21.385232T454.110169 23.588621T454.491525 27.020825V59.732689Q454.491525 70.664893 458.347458 77.656418T471.186441 86.851333H471.525424Z" fill="#010101" />
<path d="M458.958924 136.646797C458.909348 138.134049 458.84738 139.336247 458.773017 140.253384C458.698654 141.17052 458.512748 142.335537 458.215297 143.748426S457.558428 146.326332 457.13704 147.243469S456.083567 149.189293 455.240793 150.329517S453.406513 152.41167 452.266289 153.155296S449.688383 154.617763 447.953258 155.311811S444.235127 156.551191 442.004249 156.947789V158.435041H477.995751V156.947789C475.764873 156.551188 473.781867 155.993471 472.046742 155.27463S468.861546 153.824559 467.69653 153.080933S465.540014 151.38299 464.722025 150.217973S463.271955 148.024276 462.825779 147.131925S462.020187 145.074557 461.747521 143.636882S461.301346 141.046587 461.226983 140.179021C461.15262 139.311455 461.090652 138.134049 461.041076 136.646797C462.230878 138.828098 463.197592 140.364928 463.941218 141.257279C465.279745 142.942834 466.928119 144.281361 468.886331 145.27286C470.844544 146.264359 472.765583 146.760112 474.649433 146.760112C477.82224 146.760112 480.548864 145.582706 482.82932 143.227888S486.25 138.034902 486.25 134.71337C486.25 131.490992 485.22132 128.739576 483.163952 126.45912S478.615437 123.03844 475.69051 123.03844C474.699011 123.03844 473.781867 123.174772 472.939093 123.447435S471.253539 124.067123 470.410765 124.488511L468.84915 125.269319C470.782578 122.493117 471.749292 119.865633 471.749292 117.386882C471.749292 114.263653 470.596671 111.586599 468.291431 109.355721S463.222377 106.009404 460.0 106.009404S454.01381 107.124843 451.708569 109.355721S448.250708 114.263653 448.250708 117.386882C448.250708 119.865633 449.217422 122.493117 451.15085 125.269319C450.803824 125.120593 450.320465 124.897506 449.700779 124.600055S448.622521 124.079517 448.325071 123.930792S447.643413 123.633341 447.17245 123.484616S446.242918 123.224347 445.796742 123.149984S444.854813 123.03844 444.30949 123.03844C441.384563 123.03844 438.893416 124.178665 436.836048 126.45912S433.75 131.490992 433.75 134.71337C433.75 138.034902 434.890224 140.87307 437.17068 143.227888S442.17776 146.760112 445.350567 146.760112C450.803822 146.760112 455.339919 143.389009 458.958924 136.646797Z" fill="#010101" />
<path d="M28.474576 613.148667Q27.288136 613.148667 26.864407 614.589345Q26.779661 614.843582 26.779661 615.352056Q26.779661 616.369006 27.711864 616.707989Q31.949153 618.48765 33.983051 621.792734T36.610169 629.970701T37.20339 643.148667V672.979175Q37.118644 675.097819 36.822034 676.411379T35.338983 678.614768T31.694915 679.504599H31.186441Q30.338983 679.504599 29.957627 679.801209T29.491525 681.28426Q29.491525 682.046972 29.915254 682.597819T31.016949 683.148667Q36.440678 682.894429 41.101695 682.894429Q46.271186 682.894429 51.694915 683.148667Q52.457627 683.148667 52.838983 682.597819T53.220339 681.28426Q53.135593 680.013073 52.669492 679.758836T51.016949 679.504599Q48.559322 679.504599 47.372881 678.614768T45.889831 676.411379T45.508475 672.979175V640.267311Q45.508475 629.335107 41.652542 622.343582T28.813559 613.148667H28.474576Z" fill="#010101" />
<path d="M41.041076 563.353203C41.090652 561.865951 41.15262 560.663753 41.226983 559.746616C41.301346 558.82948 41.487252 557.664463 41.784703 556.251574S42.441572 553.673668 42.86296 552.756531S43.916433 550.810707 44.759207 549.670483S46.593487 547.58833 47.733711 546.844704S50.311617 545.382237 52.046742 544.688189S55.764873 543.448809 57.995751 543.052211V541.564959H22.004249V543.052211C24.235127 543.448812 26.218133 544.006529 27.953258 544.72537S31.138454 546.175441 32.30347 546.919067S34.459986 548.61701 35.277975 549.782027S36.728045 551.975724 37.174221 552.868075S37.979813 554.925443 38.252479 556.363118S38.698654 558.953413 38.773017 559.820979C38.84738 560.688545 38.909348 561.865951 38.958924 563.353203C37.769122 561.171902 36.802408 559.635072 36.058782 558.742721C34.720255 557.057166 33.071881 555.718639 31.113669 554.72714C29.155456 553.735641 27.234417 553.239888 25.350567 553.239888C22.17776 553.239888 19.451136 554.417294 17.17068 556.772112S13.75 561.965098 13.75 565.28663C13.75 568.509008 14.77868 571.260424 16.836048 573.54088S21.384563 576.96156 24.30949 576.96156C25.300989 576.96156 26.218133 576.825228 27.060907 576.552565S28.746461 575.932877 29.589235 575.511489L31.15085 574.730681C29.217422 577.506883 28.250708 580.134367 28.250708 582.613118C28.250708 585.736347 29.403329 588.413401 31.708569 590.644279S36.777623 593.990596 40.0 593.990596S45.98619 592.875157 48.291431 590.644279S51.749292 585.736347 51.749292 582.613118C51.749292 580.134367 50.782578 577.506883 48.84915 574.730681C49.196176 574.879407 49.679535 575.102494 50.299221 575.399945S51.377479 575.920483 51.674929 576.069208S52.356587 576.366659 52.82755 576.515384S53.757082 576.775653 54.203258 576.850016S55.145187 576.96156 55.69051 576.96156C58.615437 576.96156 61.106584 575.821335 63.163952 573.54088S66.25 568.509008 66.25 565.28663C66.25 561.965098 65.109776 559.12693 62.82932 556.772112S57.82224 553.239888 54.649433 553.239888C49.196178 553.239888 44.660081 556.610991 41.041076 563.353203Z" fill="#010101" />
</svg>
