<svg width="25.000000" height="35.000000" id="card-lightspade7">
<rect x="0" y="0" rx="1.25" ry="1.25" width="25" height="35.0" stroke="rgba(1,1,1,0.333)" fill="#fffdfa" />
<path d="M7.382979 6.64539C7.359338 6.891253 7.300236 7.108747 7.205674 7.297872C7.111111 7.486998 7.011821 7.631206 6.907801 7.730496S6.672577 7.914894 6.514184 7.985816C6.355792 8.056738 6.234043 8.102837 6.148936 8.124113S5.959811 8.165485 5.836879 8.184397C5.817967 8.189125 5.803782 8.191489 5.794326 8.191489V8.333333H9.205674V8.191489C8.803782 8.120567 8.498818 8.016548 8.29078 7.879433C7.893617 7.614657 7.66903 7.20331 7.617021 6.64539C7.862884 7.02364 8.179669 7.212766 8.567376 7.212766C8.817967 7.212766 9.031915 7.125296 9.20922 6.950355S9.475177 6.562648 9.475177 6.312057C9.475177 6.099291 9.423168 5.905438 9.319149 5.730496C9.21513 5.555555 9.080378 5.395981 8.914894 5.251773S8.579196 4.957447 8.404255 4.801418C8.229314 4.64539 8.056738 4.440899 7.886525 4.187943S7.586289 3.650118 7.496454 3.333333C7.416076 3.64539 7.291962 3.926714 7.124113 4.177305S6.783688 4.631206 6.606383 4.787234S6.257683 5.094562 6.092199 5.241135S5.79078 5.548463 5.684397 5.723404S5.524823 6.094562 5.524823 6.312057C5.524823 6.562648 5.613475 6.775413 5.79078 6.950355S6.182033 7.212766 6.432624 7.212766C6.820331 7.212766 7.137116 7.02364 7.382979 6.64539Z" fill="#010101" />
<path d="M7.617021 28.35461C7.640662 28.108747 7.699764 27.891253 7.794326 27.702128C7.888889 27.513002 7.988179 27.368794 8.092199 27.269504S8.327423 27.085106 8.485816 27.014184C8.644208 26.943262 8.765957 26.897163 8.851064 26.875887S9.040189 26.834515 9.163121 26.815603C9.182033 26.810875 9.196218 26.808511 9.205674 26.808511V26.666667H5.794326V26.808511C6.196218 26.879433 6.501182 26.983452 6.70922 27.120567C7.106383 27.385343 7.33097 27.79669 7.382979 28.35461C7.137116 27.97636 6.820331 27.787234 6.432624 27.787234C6.182033 27.787234 5.968085 27.874704 5.79078 28.049645S5.524823 28.437352 5.524823 28.687943C5.524823 28.900709 5.576832 29.094562 5.680851 29.269504C5.78487 29.444445 5.919622 29.604019 6.085106 29.748227S6.420804 30.042553 6.595745 30.198582C6.770686 30.35461 6.943262 30.559101 7.113475 30.812057S7.413711 31.349882 7.503546 31.666667C7.583924 31.35461 7.708038 31.073286 7.875887 30.822695S8.216312 30.368794 8.393617 30.212766S8.742317 29.905438 8.907801 29.758865S9.20922 29.451537 9.315603 29.276596S9.475177 28.905438 9.475177 28.687943C9.475177 28.437352 9.386525 28.224587 9.20922 28.049645S8.817967 27.787234 8.567376 27.787234C8.179669 27.787234 7.862884 27.97636 7.617021 28.35461Z" fill="#010101" />
<path d="M7.382979 18.312057C7.359338 18.55792 7.300236 18.775413 7.205674 18.964539C7.111111 19.153665 7.011821 19.297872 6.907801 19.397163S6.672577 19.58156 6.514184 19.652482C6.355792 19.723404 6.234043 19.769504 6.148936 19.79078S5.959811 19.832151 5.836879 19.851064C5.817967 19.855792 5.803782 19.858156 5.794326 19.858156V20.0H9.205674V19.858156C8.803782 19.787234 8.498818 19.683215 8.29078 19.546099C7.893617 19.281324 7.66903 18.869977 7.617021 18.312057C7.862884 18.690307 8.179669 18.879433 8.567376 18.879433C8.817967 18.879433 9.031915 18.791962 9.20922 18.617021S9.475177 18.229314 9.475177 17.978723C9.475177 17.765957 9.423168 17.572104 9.319149 17.397163C9.21513 17.222222 9.080378 17.062648 8.914894 16.91844S8.579196 16.624113 8.404255 16.468085C8.229314 16.312057 8.056738 16.107565 7.886525 15.85461S7.586289 15.316785 7.496454 15.0C7.416076 15.312057 7.291962 15.593381 7.124113 15.843972S6.783688 16.297872 6.606383 16.453901S6.257683 16.761229 6.092199 16.907801S5.79078 17.21513 5.684397 17.390071S5.524823 17.761229 5.524823 17.978723C5.524823 18.229314 5.613475 18.44208 5.79078 18.617021S6.182033 18.879433 6.432624 18.879433C6.820331 18.879433 7.137116 18.690307 7.382979 18.312057Z" fill="#010101" />
<path d="M17.382979 6.64539C17.359338 6.891253 17.300236 7.108747 17.205674 7.297872C17.111111 7.486998 17.011821 7.631206 16.907801 7.730496S16.672577 7.914894 16.514184 7.985816C16.355792 8.056738 16.234043 8.102837 16.148936 8.124113S15.959811 8.165485 15.836879 8.184397C15.817967 8.189125 15.803782 8.191489 15.794326 8.191489V8.333333H19.205674V8.191489C18.803782 8.120567 18.498818 8.016548 18.29078 7.879433C17.893617 7.614657 17.66903 7.20331 17.617021 6.64539C17.862884 7.02364 18.179669 7.212766 18.567376 7.212766C18.817967 7.212766 19.031915 7.125296 19.20922 6.950355S19.475177 6.562648 19.475177 6.312057C19.475177 6.099291 19.423168 5.905438 19.319149 5.730496C19.21513 5.555555 19.080378 5.395981 18.914894 5.251773S18.579196 4.957447 18.404255 4.801418C18.229314 4.64539 18.056738 4.440899 17.886525 4.187943S17.586289 3.650118 17.496454 3.333333C17.416076 3.64539 17.291962 3.926714 17.124113 4.177305S16.783688 4.631206 16.606383 4.787234S16.257683 5.094562 16.092199 5.241135S15.79078 5.548463 15.684397 5.723404S15.524823 6.094562 15.524823 6.312057C15.524823 6.562648 15.613475 6.775413 15.79078 6.950355S16.182033 7.212766 16.432624 7.212766C16.820331 7.212766 17.137116 7.02364 17.382979 6.64539Z" fill="#010101" />
<path d="M17.617021 28.35461C17.640662 28.108747 17.699764 27.891253 17.794326 27.702128C17.888889 27.513002 17.988179 27.368794 18.092199 27.269504S18.327423 27.085106 18.485816 27.014184C18.644208 26.943262 18.765957 26.897163 18.851064 26.875887S19.040189 26.834515 19.163121 26.815603C19.182033 26.810875 19.196218 26.808511 19.205674 26.808511V26.666667H15.794326V26.808511C16.196218 26.879433 16.501182 26.983452 16.70922 27.120567C17.106383 27.385343 17.33097 27.79669 17.382979 28.35461C17.137116 27.97636 16.820331 27.787234 16.432624 27.787234C16.182033 27.787234 15.968085 27.874704 15.79078 28.049645S15.524823 28.437352 15.524823 28.687943C15.524823 28.900709 15.576832 29.094562 15.680851 29.269504C15.78487 29.444445 15.919622 29.604019 16.085106 29.748227S16.420804 30.042553 16.595745 30.198582C16.770686 30.35461 16.943262 30.559101 17.113475 30.812057S17.413711 31.349882 17.503546 31.666667C17.583924 31.35461 17.708038 31.073286 17.875887 30.822695S18.216312 30.368794 18.393617 30.212766S18.742317 29.905438 18.907801 29.758865S19.20922 29.451537 19.315603 29.276596S19.475177 28.905438 19.475177 28.687943C19.475177 28.437352 19.386525 28.224587 19.20922 28.049645S18.817967 27.787234 18.567376 27.787234C18.179669 27.787234 17.862884 27.97636 17.617021 28.35461Z" fill="#010101" />
<path d="M17.382979 18.312057C17.359338 18.55792 17.300236 18.775413 17.205674 18.964539C17.111111 19.153665 17.011821 19.297872 16.907801 19.397163S16.672577 19.58156 16.514184 19.652482C16.355792 19.723404 16.234043 19.769504 16.148936 19.79078S15.959811 19.832151 15.836879 19.851064C15.817967 19.855792 15.803782 19.858156 15.794326 19.858156V20.0H19.205674V19.858156C18.803782 19.787234 18.498818 19.683215 18.29078 19.546099C17.893617 19.281324 17.66903 18.869977 17.617021 18.312057C17.862884 18.690307 18.179669 18.879433 18.567376 18.879433C18.817967 18.879433 19.031915 18.791962 19.20922 18.617021S19.475177 18.229314 19.475177 17.978723C19.475177 17.765957 19.423168 17.572104 19.319149 17.397163C19.21513 17.222222 19.080378 17.062648 18.914894 16.91844S18.579196 16.624113 18.404255 16.468085C18.229314 16.312057 18.056738 16.107565 17.886525 15.85461S17.586289 15.316785 17.496454 15.0C17.416076 15.312057 17.291962 15.593381 17.124113 15.843972S16.783688 16.297872 16.606383 16.453901S16.257683 16.761229 16.092199 16.907801S15.79078 17.21513 15.684397 17.390071S15.524823 17.761229 15.524823 17.978723C15.524823 18.229314 15.613475 18.44208 15.79078 18.617021S16.182033 18.879433 16.432624 18.879433C16.820331 18.879433 17.137116 18.690307 17.382979 18.312057Z" fill="#010101" />
<path d="M12.382979 12.478723C12.359338 12.724587 12.300236 12.94208 12.205674 13.131206C12.111111 13.320331 12.011821 13.464539 11.907801 13.56383S11.672577 13.748227 11.514184 13.819149C11.355792 13.890071 11.234043 13.93617 11.148936 13.957447S10.959811 13.998818 10.836879 14.01773C10.817967 14.022459 10.803782 14.024823 10.794326 14.024823V14.166667H14.205674V14.024823C13.803782 13.953901 13.498818 13.849882 13.29078 13.712766C12.893617 13.447991 12.66903 13.036643 12.617021 12.478723C12.862884 12.856974 13.179669 13.046099 13.567376 13.046099C13.817967 13.046099 14.031915 12.958629 14.20922 12.783688S14.475177 12.395981 14.475177 12.14539C14.475177 11.932624 14.423168 11.738771 14.319149 11.56383C14.21513 11.388889 14.080378 11.229314 13.914894 11.085106S13.579196 10.79078 13.404255 10.634752C13.229314 10.478723 13.056738 10.274232 12.886525 10.021277S12.586289 9.483452 12.496454 9.166667C12.416076 9.478723 12.291962 9.760048 12.124113 10.010638S11.783688 10.464539 11.606383 10.620567S11.257683 10.927896 11.092199 11.074468S10.79078 11.381796 10.684397 11.556738S10.524823 11.927896 10.524823 12.14539C10.524823 12.395981 10.613475 12.608747 10.79078 12.783688S11.182033 13.046099 11.432624 13.046099C11.820331 13.046099 12.137116 12.856974 12.382979 12.478723Z" fill="#010101" />
<path d="M23.552122 4.268305Q23.616697 4.194043 23.616697 4.064891Q23.616697 3.780759 23.297048 3.138231T22.460793 1.565814L22.312269 1.301054H23.442343Q23.616697 1.301054 23.703875 1.326884T23.845941 1.449578T23.926661 1.753083Q23.939576 1.804744 23.968635 1.827345T24.075185 1.849947Q24.184963 1.849947 24.184963 1.740168L24.159133 0.984633Q24.159133 0.842567 23.971863 0.842567H22.002306Q21.815037 0.842567 21.815037 0.96526Q21.815037 1.062124 21.957103 1.301054Q22.196033 1.701423 22.399446 2.195426T22.848247 3.367474Q23.048432 3.916367 23.138838 4.135925Q23.235701 4.342567 23.403598 4.342567Q23.487546 4.342567 23.552122 4.268305Z" fill="#010101" />
<path d="M22.938564 7.037441C22.926152 7.166519 22.895124 7.280703 22.845479 7.379994C22.795833 7.479285 22.743706 7.554994 22.689096 7.607122S22.565603 7.70393 22.482447 7.741164C22.399291 7.778398 22.335372 7.8026 22.290691 7.813771S22.191401 7.835491 22.126862 7.84542C22.116933 7.847902 22.109486 7.849143 22.104521 7.849143V7.923611H23.895479V7.849143C23.684486 7.811909 23.524379 7.757299 23.41516 7.685313C23.206649 7.546306 23.088741 7.330349 23.061436 7.037441C23.190514 7.236022 23.356826 7.335313 23.560372 7.335313C23.691933 7.335313 23.804255 7.289391 23.89734 7.197547S24.036968 6.994001 24.036968 6.862441C24.036968 6.750739 24.009663 6.648966 23.955053 6.557122C23.900443 6.465278 23.829698 6.381501 23.742819 6.305792S23.566578 6.151271 23.474734 6.069356C23.38289 5.987441 23.292287 5.880083 23.202926 5.747281S23.045302 5.464923 22.998138 5.298611C22.95594 5.462441 22.89078 5.610136 22.80266 5.741696S22.623936 5.979994 22.530851 6.061909S22.347784 6.223256 22.260904 6.300207S22.10266 6.461554 22.046809 6.553398S21.963032 6.748256 21.963032 6.862441C21.963032 6.994001 22.009574 7.105703 22.10266 7.197547S22.308067 7.335313 22.439628 7.335313C22.643174 7.335313 22.809486 7.236022 22.938564 7.037441Z" fill="#010101" />
<path d="M1.447878 30.731695Q1.383303 30.805957 1.383303 30.935109Q1.383303 31.219241 1.702952 31.861769T2.539207 33.434186L2.687731 33.698946H1.557657Q1.383303 33.698946 1.296125 33.673116T1.154059 33.550422T1.073339 33.246917Q1.060424 33.195256 1.031365 33.172655T0.924815 33.150053Q0.815037 33.150053 0.815037 33.259832L0.840867 34.015367Q0.840867 34.157433 1.028137 34.157433H2.997694Q3.184963 34.157433 3.184963 34.03474Q3.184963 33.937876 3.042897 33.698946Q2.803967 33.298577 2.600554 32.804574T2.151753 31.632526Q1.951568 31.083633 1.861162 30.864075Q1.764299 30.657433 1.596402 30.657433Q1.512454 30.657433 1.447878 30.731695Z" fill="#010101" />
<path d="M2.061436 27.962559C2.073848 27.833481 2.104876 27.719297 2.154521 27.620006C2.204167 27.520715 2.256294 27.445006 2.310904 27.392878S2.434397 27.29607 2.517553 27.258836C2.600709 27.221602 2.664628 27.1974 2.709309 27.186229S2.808599 27.164509 2.873138 27.15458C2.883067 27.152098 2.890514 27.150857 2.895479 27.150857V27.076389H1.104521V27.150857C1.315514 27.188091 1.475621 27.242701 1.58484 27.314687C1.793351 27.453694 1.911259 27.669651 1.938564 27.962559C1.809486 27.763978 1.643174 27.664687 1.439628 27.664687C1.308067 27.664687 1.195745 27.710609 1.10266 27.802453S0.963032 28.005999 0.963032 28.137559C0.963032 28.249261 0.990337 28.351034 1.044947 28.442878C1.099557 28.534722 1.170302 28.618499 1.257181 28.694208S1.433422 28.848729 1.525266 28.930644C1.61711 29.012559 1.707713 29.119917 1.797074 29.252719S1.954698 29.535077 2.001862 29.701389C2.04406 29.537559 2.10922 29.389864 2.19734 29.258304S2.376064 29.020006 2.469149 28.938091S2.652216 28.776744 2.739096 28.699793S2.89734 28.538446 2.953191 28.446602S3.036968 28.251744 3.036968 28.137559C3.036968 28.005999 2.990426 27.894297 2.89734 27.802453S2.691933 27.664687 2.560372 27.664687C2.356826 27.664687 2.190514 27.763978 2.061436 27.962559Z" fill="#010101" />
</svg>
