<svg width="25.000000" height="35.000000" id="card-lightdiamond6">
<rect x="0" y="0" rx="1.25" ry="1.25" width="25" height="35.0" stroke="rgba(1,1,1,0.333)" fill="#fffdfa" />
<path d="M7.506954 3.333333C7.395688 3.555865 7.126796 3.955726 6.700278 4.532916C6.27376 5.110107 5.930688 5.542422 5.671071 5.829856C5.995596 6.200742 6.34446 6.641171 6.717663 7.151136C7.090867 7.661103 7.353964 8.055169 7.506954 8.333333C7.850023 7.721372 8.45735 6.88688 9.328929 5.829856C8.434166 4.749655 7.826843 3.917478 7.506954 3.333333Z" fill="#da0a0a" />
<path d="M7.493046 31.666667C7.604312 31.444135 7.873204 31.044274 8.299722 30.467084C8.72624 29.889893 9.069312 29.457578 9.328929 29.170144C9.004404 28.799258 8.65554 28.358829 8.282337 27.848864C7.909133 27.338897 7.646036 26.944831 7.493046 26.666667C7.149977 27.278628 6.54265 28.11312 5.671071 29.170144C6.565834 30.250345 7.173157 31.082522 7.493046 31.666667Z" fill="#da0a0a" />
<path d="M7.506954 15.0C7.395688 15.222531 7.126796 15.622392 6.700278 16.199583C6.27376 16.776773 5.930688 17.209089 5.671071 17.496523C5.995596 17.867408 6.34446 18.307837 6.717663 18.817803C7.090867 19.32777 7.353964 19.721836 7.506954 20.0C7.850023 19.388039 8.45735 18.553547 9.328929 17.496523C8.434166 16.416321 7.826843 15.584145 7.506954 15.0Z" fill="#da0a0a" />
<path d="M17.506954 3.333333C17.395688 3.555865 17.126796 3.955726 16.700278 4.532916C16.27376 5.110107 15.930688 5.542422 15.671071 5.829856C15.995596 6.200742 16.34446 6.641171 16.717663 7.151136C17.090867 7.661103 17.353964 8.055169 17.506954 8.333333C17.850023 7.721372 18.45735 6.88688 19.328929 5.829856C18.434166 4.749655 17.826843 3.917478 17.506954 3.333333Z" fill="#da0a0a" />
<path d="M17.493046 31.666667C17.604312 31.444135 17.873204 31.044274 18.299722 30.467084C18.72624 29.889893 19.069312 29.457578 19.328929 29.170144C19.004404 28.799258 18.65554 28.358829 18.282337 27.848864C17.909133 27.338897 17.646036 26.944831 17.493046 26.666667C17.149977 27.278628 16.54265 28.11312 15.671071 29.170144C16.565834 30.250345 17.173157 31.082522 17.493046 31.666667Z" fill="#da0a0a" />
<path d="M17.506954 15.0C17.395688 15.222531 17.126796 15.622392 16.700278 16.199583C16.27376 16.776773 15.930688 17.209089 15.671071 17.496523C15.995596 17.867408 16.34446 18.307837 16.717663 18.817803C17.090867 19.32777 17.353964 19.721836 17.506954 20.0C17.850023 19.388039 18.45735 18.553547 19.328929 17.496523C18.434166 16.416321 17.826843 15.584145 17.506954 15.0Z" fill="#da0a0a" />
<path d="M23.949367 3.969149Q24.306962 3.595731 24.306962 2.950162Q24.306962 2.437503 24.063291 1.994465T23.376582 1.250795T22.363924 0.848896Q22.332278 0.842567 22.268987 0.842567Q22.142405 0.842567 22.142405 0.956491Q22.142405 1.057757 22.256329 1.089402Q23.414557 1.450162 23.636076 2.38687Q23.427215 2.24763 23.221519 2.190668T22.794304 2.133706Q22.490506 2.133706 22.237342 2.269782T21.838608 2.6432T21.693038 3.184339Q21.693038 3.526111 21.876582 3.788769T22.357595 4.196997T22.990506 4.342567Q23.591772 4.342567 23.949367 3.969149ZM22.496835 3.890035Q22.300633 3.640035 22.300633 3.241301Q22.300633 2.867883 22.496835 2.6432T23.009494 2.418516Q23.167722 2.418516 23.338608 2.49763T23.661392 2.709655Q23.699367 2.861554 23.699367 2.956491Q23.699367 3.209655 23.632911 3.481807T23.405063 3.946997T22.990506 4.140035Q22.693038 4.140035 22.496835 3.890035Z" fill="#da0a0a" />
<path d="M23.003651 5.298611C22.945236 5.41544 22.804068 5.625367 22.580146 5.928392C22.356224 6.231417 22.176111 6.458383 22.039812 6.609286C22.210188 6.804 22.393341 7.035226 22.589273 7.302957C22.785205 7.57069 22.923331 7.777575 23.003651 7.923611C23.183762 7.602332 23.502609 7.164223 23.960188 6.609286C23.490437 6.04218 23.171592 5.605287 23.003651 5.298611Z" fill="#da0a0a" />
<path d="M1.050633 31.030851Q0.693038 31.404269 0.693038 32.049838Q0.693038 32.562497 0.936709 33.005535T1.623418 33.749205T2.636076 34.151104Q2.667722 34.157433 2.731013 34.157433Q2.857595 34.157433 2.857595 34.043509Q2.857595 33.942243 2.743671 33.910598Q1.585443 33.549838 1.363924 32.61313Q1.572785 32.75237 1.778481 32.809332T2.205696 32.866294Q2.509494 32.866294 2.762658 32.730218T3.161392 32.3568T3.306962 31.815661Q3.306962 31.473889 3.123418 31.211231T2.642405 30.803003T2.009494 30.657433Q1.408228 30.657433 1.050633 31.030851ZM2.503165 31.109965Q2.699367 31.359965 2.699367 31.758699Q2.699367 32.132117 2.503165 32.3568T1.990506 32.581484Q1.832278 32.581484 1.661392 32.50237T1.338608 32.290345Q1.300633 32.138446 1.300633 32.043509Q1.300633 31.790345 1.367089 31.518193T1.594937 31.053003T2.009494 30.859965Q2.306962 30.859965 2.503165 31.109965Z" fill="#da0a0a" />
<path d="M1.996349 29.701389C2.054764 29.58456 2.195932 29.374633 2.419854 29.071608C2.643776 28.768583 2.823889 28.541617 2.960188 28.390714C2.789812 28.196 2.606659 27.964774 2.410727 27.697043C2.214795 27.42931 2.076669 27.222425 1.996349 27.076389C1.816238 27.397668 1.497391 27.835777 1.039812 28.390714C1.509563 28.95782 1.828408 29.394713 1.996349 29.701389Z" fill="#da0a0a" />
</svg>
