<svg width="150.000000" height="210.000000" id="card-webclub12">
<radialGradient id="card-webwhitegradient" cx="75.0" cy="105.0" r="150" gradientTransform="matrix(1 0 0 1 0 -.25)" gradientUnits="userSpaceOnUse">
<stop stop-color="#FDFAF4" offset=".15"/>
<stop stop-color="#FDF9F2" offset=".35"/>
<stop stop-color="#FCF7F1" offset=".5"/>
<stop stop-color="#FDFDF8" offset=".75"/>
<stop stop-color="#FFFDFA" offset="1"/>
</radialGradient>
<rect x="0" y="0" rx="7.5" ry="7.5" width="150" height="210.0" stroke="rgba(1,1,1,0.333)" fill="url(#card-webwhitegradient)" />
<rect x="30.0" y="21.0" width="90.0" height="168.0" stroke="#010101" fill="#fffdfa" />
<path d="M75.042493 75.575279C71.926343 75.575279 69.022666 75.674429 66.331445 75.872729C63.640224 76.071029 62.067986 76.170179 61.614731 76.170179C60.934844 76.170179 60.509915 76.127686 60.339943 76.042701S60.084986 75.74525 60.084986 75.405307C60.084986 74.272165 61.827195 73.40814 65.311615 72.813239S72.011329 71.920888 74.957507 71.920888C77.960337 71.920888 81.189799 72.218338 84.645892 72.813239C88.101986 73.40814 89.830028 74.272165 89.830028 75.405307C89.830028 75.688593 89.745042 75.886894 89.575071 76.000208S88.98017 76.170179 88.300283 76.170179C88.243626 76.170179 86.543907 76.071029 83.201133 75.872729S77.138813 75.575279 75.042493 75.575279ZM61.189802 79.399641C65.665725 78.833069 70.254986 78.549783 74.957507 78.549783C79.886686 78.549783 84.475921 78.833069 88.725212 79.399641C88.045326 79.966214 87.705382 81.071032 87.705382 82.714089C87.705382 83.790579 87.875354 84.442131 88.215297 84.668763C84.759204 84.045534 80.339941 83.733919 74.957507 83.733919C69.518414 83.733919 65.09915 84.045534 61.699717 84.668763C62.03966 84.442134 62.209632 83.790579 62.209632 82.714089C62.209632 81.071032 61.869688 79.966216 61.189802 79.399641ZM61.104816 89.088026C61.104816 87.501621 65.722377 86.708423 74.957507 86.708423S88.810198 87.501624 88.810198 89.088026C88.810198 90.50446 84.192637 91.212672 74.957507 91.212672S61.104816 90.504457 61.104816 89.088026ZM74.957507 42.260831C76.373941 42.260831 77.082153 42.940718 77.082153 44.300491C77.082153 45.773576 76.373938 46.510123 74.957507 46.510123C73.597734 46.510123 72.917847 45.773579 72.917847 44.300491C72.917847 42.940718 73.597734 42.260831 74.957507 42.260831ZM77.932011 52.714089C77.932011 50.78774 78.229462 49.003038 78.824363 47.359981S79.716714 44.78208 79.716714 44.555449C79.716714 43.252335 79.249292 42.133352 78.314448 41.198508S76.26062 39.796242 74.957507 39.796242S72.549578 40.263664 71.643059 41.198508S70.283286 43.252335 70.283286 44.555449C70.283286 44.782078 70.594901 45.702757 71.21813 47.317488S72.152975 50.731089 72.152975 52.714089C72.152975 55.490296 71.529745 59.597941 70.283286 65.037035C67.223796 58.578111 65.694051 53.705619 65.694051 50.419471C65.694051 50.079528 65.779037 49.442134 65.949008 48.50729S66.203966 46.991712 66.203966 46.76508C66.203966 45.461967 65.750708 44.342984 64.844193 43.40814C63.937674 42.473296 62.832858 42.005873 61.529745 42.005873C60.169972 42.005873 59.022663 42.473296 58.087819 43.40814S56.685552 45.461967 56.685552 46.76508C56.685552 47.78491 56.883852 48.592276 57.280453 49.187177S58.130312 50.235332 58.640227 50.54695S59.603397 51.609273 60.0 52.799075S60.594901 55.631933 60.594901 57.728253C60.594901 59.201338 60.453258 61.580941 60.169972 64.867063C56.487255 61.071026 54.645892 57.983211 54.645892 55.603607L54.730878 54.838735C54.787535 54.32882 54.858357 53.804737 54.943343 53.266497S55.070822 52.402471 55.070822 52.28916C55.070822 51.042698 54.603399 49.937882 53.668555 48.974712S51.643062 47.529953 50.396601 47.529953C49.093487 47.529953 47.960337 47.997375 46.997167 48.932219S45.552408 50.986046 45.552408 52.28916C45.552408 54.612103 46.855521 56.36848 49.461756 57.558281C49.575071 59.824573 50.594898 64.923723 52.521246 72.855732C52.521246 73.365647 53.583569 74.923718 55.708215 77.529953S58.895184 81.835905 58.895184 82.629103C58.895184 83.139018 58.498583 84.215508 57.705382 85.858565S56.515581 88.861395 56.515581 89.937885V91.297658C56.515581 92.600771 58.569408 93.493123 62.677054 93.974712C66.7847 94.456299 70.906513 94.697092 75.042493 94.697092C79.631728 94.697092 83.85272 94.427969 87.705382 93.889726C91.558071 93.351483 93.484419 92.48746 93.484419 91.297658V89.937885C93.484419 88.748083 93.101983 87.33165 92.33711 85.688593S91.189802 83.025706 91.189802 82.629103C91.189802 81.439301 92.110479 79.82457 93.951841 77.78491S96.968839 74.102194 97.478754 72.855732C99.405102 65.037035 100.424932 59.937885 100.538244 57.558281C103.144479 56.36848 104.447592 54.612103 104.447592 52.28916C104.447592 50.986046 103.966005 49.867063 103.002833 48.932219C102.039663 47.997375 100.934847 47.529953 99.688385 47.529953C98.385272 47.529953 97.266289 47.997375 96.331445 48.932219S94.929178 50.986046 94.929178 52.28916C94.929178 52.345817 95.0 52.88406 95.141643 53.90389S95.354108 55.490296 95.354108 55.603607C95.354108 58.096522 93.541079 61.184347 89.915014 64.867063C89.631728 62.374148 89.490085 59.994545 89.490085 57.728253C89.490085 55.688593 89.688385 54.059695 90.084986 52.841568S90.934844 50.858568 91.444759 50.54695S92.407929 49.767913 92.804533 49.144684S93.399433 47.72825 93.399433 46.76508C93.399433 45.461967 92.917847 44.342984 91.954674 43.40814S89.858354 42.005873 88.555241 42.005873C87.252127 42.005873 86.133144 42.473296 85.1983 43.40814S83.796034 45.461967 83.796034 46.76508L84.050992 48.379811C84.220963 49.456301 84.305949 50.136188 84.305949 50.419471C84.305949 53.648933 82.776204 58.521451 79.716714 65.037035C78.526912 59.881225 77.932011 55.773579 77.932011 52.714089ZM50.396601 50.2495C50.906516 50.2495 51.373938 50.4478 51.798867 50.8444C52.223796 51.241001 52.436261 51.722585 52.436261 52.28916C52.436261 52.912389 52.237961 53.436468 51.84136 53.861398S50.963176 54.498791 50.396601 54.498791C48.980167 54.498791 48.271955 53.762247 48.271955 52.28916C48.271955 50.929386 48.98017 50.2495 50.396601 50.2495ZM61.529745 44.810406C62.096318 44.810406 62.577901 45.022871 62.974504 45.4478S63.569405 46.368477 63.569405 46.935052S63.371105 47.997375 62.974504 48.422304S62.09632 49.059698 61.529745 49.059698C60.05666 49.059698 59.320113 48.351483 59.320113 46.935052S60.056658 44.810406 61.529745 44.810406ZM88.555241 44.810406C89.971674 44.810406 90.679887 45.518621 90.679887 46.935052S89.971672 49.059698 88.555241 49.059698C87.195467 49.059698 86.515581 48.351483 86.515581 46.935052S87.195467 44.810406 88.555241 44.810406ZM99.688385 50.2495C101.104819 50.2495 101.813031 50.929386 101.813031 52.28916C101.813031 53.762245 101.104816 54.498791 99.688385 54.498791C98.328612 54.498791 97.648725 53.762247 97.648725 52.28916C97.648725 51.722587 97.86119 51.241004 98.286119 50.8444C98.711048 50.4478 99.17847 50.2495 99.688385 50.2495ZM74.957507 55.688593C75.467422 58.804743 76.033997 61.255165 76.657224 63.039868S77.847025 66.085191 78.356941 66.821737S79.178471 68.153185 79.291785 68.60644C79.575071 68.266497 80.056657 67.699922 80.736544 66.906723S81.84136 65.575276 82.011331 65.291992S82.507082 64.512955 82.988669 63.80474S83.852694 62.402474 84.135977 61.722587S84.787536 60.136182 85.240793 59.003041S86.175637 56.566777 86.685552 55.093692C86.572238 55.886893 86.515581 56.708423 86.515581 57.558281C86.515581 60.221168 86.997167 64.328822 87.96034 69.881228C91.01983 68.068199 93.994334 65.178681 96.883853 61.212672C95.524079 67.954879 94.475924 71.722616 93.739377 72.515788C93.626063 72.629103 93.512748 72.714088 93.399433 72.770746C88.753538 70.107859 82.606232 68.776412 74.957507 68.776412C67.252122 68.776412 61.104816 70.107859 56.515581 72.770746C55.495751 72.430803 54.362609 68.578114 53.116147 61.212672C56.062326 65.291992 59.008496 68.181511 61.954674 69.881228C62.917844 64.952049 63.399433 61.071001 63.399433 58.238168C63.399433 57.501624 63.342776 56.453466 63.229462 55.093692C64.07932 57.699927 64.943346 59.895392 65.82153 61.680094C66.699714 63.464797 67.407935 64.668766 67.946176 65.291992S69.008499 66.51012 69.518414 67.076695S70.396598 68.153185 70.623229 68.60644C70.906515 68.096525 71.246459 67.515791 71.643059 66.86423S72.294618 65.745247 72.407932 65.461964S72.719547 64.62627 73.002833 63.80474S73.569405 61.963378 73.852691 60.74525S74.50425 57.841565 74.957507 55.688593Z" fill="#010101" />
<path d="M74.957507 134.424721C78.073657 134.424721 80.977334 134.325571 83.668555 134.127271C86.359776 133.928971 87.932014 133.829821 88.385269 133.829821C89.065156 133.829821 89.490085 133.872314 89.660057 133.957299S89.915014 134.25475 89.915014 134.594693C89.915014 135.727835 88.172805 136.59186 84.688385 137.186761S77.988671 138.079112 75.042493 138.079112C72.039663 138.079112 68.810201 137.781662 65.354108 137.186761C61.898014 136.59186 60.169972 135.727835 60.169972 134.594693C60.169972 134.311407 60.254958 134.113106 60.424929 133.999792S61.01983 133.829821 61.699717 133.829821C61.756374 133.829821 63.456093 133.928971 66.798867 134.127271S72.861187 134.424721 74.957507 134.424721ZM88.810198 130.600359C84.334275 131.166931 79.745014 131.450217 75.042493 131.450217C70.113314 131.450217 65.524079 131.166931 61.274788 130.600359C61.954674 130.033786 62.294618 128.928968 62.294618 127.285911C62.294618 126.209421 62.124646 125.557869 61.784703 125.331237C65.240796 125.954466 69.660059 126.266081 75.042493 126.266081C80.481586 126.266081 84.90085 125.954466 88.300283 125.331237C87.96034 125.557866 87.790368 126.209421 87.790368 127.285911C87.790368 128.928968 88.130312 130.033784 88.810198 130.600359ZM88.895184 120.911974C88.895184 122.498379 84.277623 123.291577 75.042493 123.291577S61.189802 122.498376 61.189802 120.911974C61.189802 119.49554 65.807363 118.787328 75.042493 118.787328S88.895184 119.495543 88.895184 120.911974ZM75.042493 167.739169C73.626059 167.739169 72.917847 167.059282 72.917847 165.699509C72.917847 164.226424 73.626062 163.489877 75.042493 163.489877C76.402266 163.489877 77.082153 164.226421 77.082153 165.699509C77.082153 167.059282 76.402266 167.739169 75.042493 167.739169ZM72.067989 157.285911C72.067989 159.21226 71.770538 160.996962 71.175637 162.640019S70.283286 165.21792 70.283286 165.444551C70.283286 166.747665 70.750708 167.866648 71.685552 168.801492S73.73938 170.203758 75.042493 170.203758S77.450422 169.736336 78.356941 168.801492S79.716714 166.747665 79.716714 165.444551C79.716714 165.217922 79.405099 164.297243 78.78187 162.682512S77.847025 159.268911 77.847025 157.285911C77.847025 154.509704 78.470255 150.402059 79.716714 144.962965C82.776204 151.421889 84.305949 156.294381 84.305949 159.580529C84.305949 159.920472 84.220963 160.557866 84.050992 161.49271S83.796034 163.008288 83.796034 163.23492C83.796034 164.538033 84.249292 165.657016 85.155807 166.59186C86.062326 167.526704 87.167142 167.994127 88.470255 167.994127C89.830028 167.994127 90.977337 167.526704 91.912181 166.59186S93.314448 164.538033 93.314448 163.23492C93.314448 162.21509 93.116148 161.407724 92.719547 160.812823S91.869688 159.764668 91.359773 159.45305S90.396603 158.390727 90.0 157.200925S89.405099 154.368067 89.405099 152.271747C89.405099 150.798662 89.546742 148.419059 89.830028 145.132937C93.512745 148.928974 95.354108 152.016789 95.354108 154.396393L95.269122 155.161265C95.212465 155.67118 95.141643 156.195263 95.056657 156.733503S94.929178 157.597529 94.929178 157.71084C94.929178 158.957302 95.396601 160.062118 96.331445 161.025288S98.356938 162.470047 99.603399 162.470047C100.906513 162.470047 102.039663 162.002625 103.002833 161.067781S104.447592 159.013954 104.447592 157.71084C104.447592 155.387897 103.144479 153.63152 100.538244 152.441719C100.424929 150.175427 99.405102 145.076277 97.478754 137.144268C97.478754 136.634353 96.416431 135.076282 94.291785 132.470047S91.104816 128.164095 91.104816 127.370897C91.104816 126.860982 91.501417 125.784492 92.294618 124.141435S93.484419 121.138605 93.484419 120.062115V118.702342C93.484419 117.399229 91.430592 116.506877 87.322946 116.025288C83.2153 115.543701 79.093487 115.302908 74.957507 115.302908C70.368272 115.302908 66.14728 115.572031 62.294618 116.110274C58.441929 116.648517 56.515581 117.51254 56.515581 118.702342V120.062115C56.515581 121.251917 56.898017 122.66835 57.66289 124.311407S58.810198 126.974294 58.810198 127.370897C58.810198 128.560699 57.889521 130.17543 56.048159 132.21509S53.031161 135.897806 52.521246 137.144268C50.594898 144.962965 49.575068 150.062115 49.461756 152.441719C46.855521 153.63152 45.552408 155.387897 45.552408 157.71084C45.552408 159.013954 46.033995 160.132937 46.997167 161.067781C47.960337 162.002625 49.065153 162.470047 50.311615 162.470047C51.614728 162.470047 52.733711 162.002625 53.668555 161.067781S55.070822 159.013954 55.070822 157.71084C55.070822 157.654183 55.0 157.11594 54.858357 156.09611S54.645892 154.509704 54.645892 154.396393C54.645892 151.903478 56.458921 148.815653 60.084986 145.132937C60.368272 147.625852 60.509915 150.005455 60.509915 152.271747C60.509915 154.311407 60.311615 155.940305 59.915014 157.158432S59.065156 159.141432 58.555241 159.45305S57.592071 160.232087 57.195467 160.855316S56.600567 162.27175 56.600567 163.23492C56.600567 164.538033 57.082153 165.657016 58.045326 166.59186S60.141646 167.994127 61.444759 167.994127C62.747873 167.994127 63.866856 167.526704 64.8017 166.59186S66.203966 164.538033 66.203966 163.23492L65.949008 161.620189C65.779037 160.543699 65.694051 159.863812 65.694051 159.580529C65.694051 156.351067 67.223796 151.478549 70.283286 144.962965C71.473088 150.118775 72.067989 154.226421 72.067989 157.285911ZM99.603399 159.7505C99.093484 159.7505 98.626062 159.5522 98.201133 159.1556C97.776204 158.758999 97.563739 158.277415 97.563739 157.71084C97.563739 157.087611 97.762039 156.563532 98.15864 156.138602S99.036824 155.501209 99.603399 155.501209C101.019833 155.501209 101.728045 156.237753 101.728045 157.71084C101.728045 159.070614 101.01983 159.7505 99.603399 159.7505ZM88.470255 165.189594C87.903682 165.189594 87.422099 164.977129 87.025496 164.5522S86.430595 163.631523 86.430595 163.064948S86.628895 162.002625 87.025496 161.577696S87.90368 160.940302 88.470255 160.940302C89.94334 160.940302 90.679887 161.648517 90.679887 163.064948S89.943342 165.189594 88.470255 165.189594ZM61.444759 165.189594C60.028326 165.189594 59.320113 164.481379 59.320113 163.064948S60.028328 160.940302 61.444759 160.940302C62.804533 160.940302 63.484419 161.648517 63.484419 163.064948S62.804533 165.189594 61.444759 165.189594ZM50.311615 159.7505C48.895181 159.7505 48.186969 159.070614 48.186969 157.71084C48.186969 156.237755 48.895184 155.501209 50.311615 155.501209C51.671388 155.501209 52.351275 156.237753 52.351275 157.71084C52.351275 158.277413 52.13881 158.758996 51.713881 159.1556C51.288952 159.5522 50.82153 159.7505 50.311615 159.7505ZM75.042493 154.311407C74.532578 151.195257 73.966003 148.744835 73.342776 146.960132S72.152975 143.914809 71.643059 143.178263S70.821529 141.846815 70.708215 141.39356C70.424929 141.733503 69.943343 142.300078 69.263456 143.093277S68.15864 144.424724 67.988669 144.708008S67.492918 145.487045 67.011331 146.19526S66.147306 147.597526 65.864023 148.277413S65.212464 149.863818 64.759207 150.996959S63.824363 153.433223 63.314448 154.906308C63.427762 154.113107 63.484419 153.291577 63.484419 152.441719C63.484419 149.778832 63.002833 145.671178 62.03966 140.118772C58.98017 141.931801 56.005666 144.821319 53.116147 148.787328C54.475921 142.045121 55.524076 138.277384 56.260623 137.484212C56.373937 137.370897 56.487252 137.285912 56.600567 137.229254C61.246462 139.892141 67.393768 141.223588 75.042493 141.223588C82.747878 141.223588 88.895184 139.892141 93.484419 137.229254C94.504249 137.569197 95.637391 141.421886 96.883853 148.787328C93.937674 144.708008 90.991504 141.818489 88.045326 140.118772C87.082156 145.047951 86.600567 148.928999 86.600567 151.761832C86.600567 152.498376 86.657224 153.546534 86.770538 154.906308C85.92068 152.300073 85.056654 150.104608 84.17847 148.319906C83.300286 146.535203 82.592065 145.331234 82.053824 144.708008S80.991501 143.48988 80.481586 142.923305S79.603402 141.846815 79.376771 141.39356C79.093485 141.903475 78.753541 142.484209 78.356941 143.13577S77.705382 144.254753 77.592068 144.538036S77.280453 145.37373 76.997167 146.19526S76.430595 148.036622 76.147309 149.25475S75.49575 152.158435 75.042493 154.311407Z" fill="#010101" />
<path d="M133.484136 25.783955Q134.273796 25.512509 134.86604 25.105341T136.396005 23.957868Q137.13631 23.340946 137.716216 22.92144T138.962397 22.156458Q139.752056 21.761628 140.837838 21.514859Q143.428907 20.922615 144.613396 20.009572Q146.06933 18.874436 146.871328 17.171734T147.673325 13.544237Q147.673325 10.953167 146.501175 9.028373T143.502938 6.079489T139.80141 5.0554Q137.432432 5.0554 135.606345 6.178197T132.805523 9.139419T131.830787 13.100053Q131.830787 15.863861 133.225029 17.924378T136.914219 20.897938Q137.309048 21.070676 137.925969 21.095353V21.144707Q137.259694 21.218737 136.716804 21.490183Q135.754407 21.959043 134.125734 23.143532Q132.916569 24.007221 132.176263 24.414389T130.720329 24.821557Q130.276146 24.772204 130.066392 24.537774T129.856639 23.957868Q129.856639 23.365623 130.313161 22.859748T131.485311 22.329196Q131.559342 21.934366 131.189189 21.564213T130.078731 21.19406Q129.757932 21.19406 129.350764 21.416152T128.635135 22.082427T128.326675 23.168208Q128.326675 23.908514 128.83255 24.562451T130.115746 25.623555T131.682726 26.0554Q132.694477 26.0554 133.484136 25.783955ZM137.012926 19.577727Q135.877791 18.553637 135.322562 16.850935T134.767333 13.100053Q134.767333 11.199936 135.3349 9.608279T137.049941 7.066563T139.826087 6.116505Q142.293772 6.116505 143.527615 8.201698T144.761457 13.470206Q144.761457 15.395 144.206228 17.023673T142.540541 19.62708T139.826087 20.601816Q138.148061 20.601816 137.012926 19.577727Z" fill="#010101" />
<path d="M137.687677 40.994039C137.672805 41.440215 137.654214 41.800874 137.631905 42.076015C137.609596 42.351156 137.553824 42.700661 137.464589 43.124528S137.267528 43.8979 137.141112 44.173041S136.82507 44.756788 136.572238 45.098855S136.021954 45.723501 135.679887 45.946589S134.906515 46.385329 134.385977 46.593543S133.270538 46.965357 132.601275 47.084337V47.530512H143.398725V47.084337C142.729462 46.965357 142.13456 46.798041 141.614023 46.582389S140.658464 46.147368 140.308959 45.92428S139.662004 45.414897 139.416608 45.065392S138.981586 44.407283 138.847734 44.139577S138.606056 43.522367 138.524256 43.091065S138.390404 42.313976 138.368095 42.053706C138.345786 41.793436 138.327196 41.440215 138.312323 40.994039C138.669263 41.648429 138.959278 42.109478 139.182365 42.377184C139.583924 42.88285 140.078436 43.284408 140.665899 43.581858C141.253363 43.879308 141.829675 44.028034 142.39483 44.028034C143.346672 44.028034 144.164659 43.674812 144.848796 42.968366S145.875 41.410471 145.875 40.414011C145.875 39.447298 145.566396 38.621873 144.949186 37.937736S143.584631 36.911532 142.707153 36.911532C142.409703 36.911532 142.13456 36.952431 141.881728 37.03423S141.376062 37.220137 141.123229 37.346553L140.654745 37.580796C141.234773 36.747935 141.524788 35.95969 141.524788 35.216065C141.524788 34.279096 141.179001 33.47598 140.487429 32.806716S138.966713 31.802821 138.0 31.802821S136.204143 32.137453 135.512571 32.806716S134.475212 34.279096 134.475212 35.216065C134.475212 35.95969 134.765227 36.747935 135.345255 37.580796C135.241147 37.536178 135.096139 37.469252 134.910234 37.380017S134.586756 37.223855 134.497521 37.179237S134.293024 37.090002 134.151735 37.045385S133.872875 36.967304 133.739023 36.944995S133.456444 36.911532 133.292847 36.911532C132.415369 36.911532 131.668025 37.253599 131.050814 37.937736S130.125 39.447298 130.125 40.414011C130.125 41.410471 130.467067 42.261921 131.151204 42.968366S132.653328 44.028034 133.60517 44.028034C135.241147 44.028034 136.601976 43.016703 137.687677 40.994039Z" fill="#010101" />
<path d="M16.515864 184.216045Q15.726204 184.487491 15.13396 184.894659T13.603995 186.042132Q12.86369 186.659054 12.283784 187.07856T11.037603 187.843542Q10.247944 188.238372 9.162162 188.485141Q6.571093 189.077385 5.386604 189.990428Q3.93067 191.125564 3.128672 192.828266T2.326675 196.455763Q2.326675 199.046833 3.498825 200.971627T6.497062 203.920511T10.19859 204.9446Q12.567568 204.9446 14.393655 203.821803T17.194477 200.860581T18.169213 196.899947Q18.169213 194.136139 16.774971 192.075622T13.085781 189.102062Q12.690952 188.929324 12.074031 188.904647V188.855293Q12.740306 188.781263 13.283196 188.509817Q14.245593 188.040957 15.874266 186.856468Q17.083431 185.992779 17.823737 185.585611T19.279671 185.178443Q19.723854 185.227796 19.933608 185.462226T20.143361 186.042132Q20.143361 186.634377 19.686839 187.140252T18.514689 187.670804Q18.440658 188.065634 18.810811 188.435787T19.921269 188.80594Q20.242068 188.80594 20.649236 188.583848T21.364865 187.917573T21.673325 186.831792Q21.673325 186.091486 21.16745 185.437549T19.884254 184.376445T18.317274 183.9446Q17.305523 183.9446 16.515864 184.216045ZM12.987074 190.422273Q14.122209 191.446363 14.677438 193.149065T15.232667 196.899947Q15.232667 198.800064 14.6651 200.391721T12.950059 202.933437T10.173913 203.883495Q7.706228 203.883495 6.472385 201.798302T5.238543 196.529794Q5.238543 194.605 5.793772 192.976327T7.459459 190.37292T10.173913 189.398184Q11.851939 189.398184 12.987074 190.422273Z" fill="#010101" />
<path d="M12.312323 169.005961C12.327195 168.559785 12.345786 168.199126 12.368095 167.923985C12.390404 167.648844 12.446176 167.299339 12.535411 166.875472S12.732472 166.1021 12.858888 165.826959S13.17493 165.243212 13.427762 164.901145S13.978046 164.276499 14.320113 164.053411S15.093485 163.614671 15.614023 163.406457S16.729462 163.034643 17.398725 162.915663V162.469488H6.601275V162.915663C7.270538 163.034643 7.86544 163.201959 8.385977 163.417611S9.341536 163.852632 9.691041 164.07572S10.337996 164.585103 10.583392 164.934608S11.018414 165.592717 11.152266 165.860423S11.393944 166.477633 11.475744 166.908935S11.609596 167.686024 11.631905 167.946294C11.654214 168.206564 11.672804 168.559785 11.687677 169.005961C11.330737 168.351571 11.040722 167.890522 10.817635 167.622816C10.416076 167.11715 9.921564 166.715592 9.334101 166.418142C8.746637 166.120692 8.170325 165.971966 7.60517 165.971966C6.653328 165.971966 5.835341 166.325188 5.151204 167.031634S4.125 168.589529 4.125 169.585989C4.125 170.552702 4.433604 171.378127 5.050814 172.062264S6.415369 173.088468 7.292847 173.088468C7.590297 173.088468 7.86544 173.047569 8.118272 172.96577S8.623938 172.779863 8.876771 172.653447L9.345255 172.419204C8.765227 173.252065 8.475212 174.04031 8.475212 174.783935C8.475212 175.720904 8.820999 176.52402 9.512571 177.193284S11.033287 178.197179 12.0 178.197179S13.795857 177.862547 14.487429 177.193284S15.524788 175.720904 15.524788 174.783935C15.524788 174.04031 15.234773 173.252065 14.654745 172.419204C14.758853 172.463822 14.903861 172.530748 15.089766 172.619983S15.413244 172.776145 15.502479 172.820763S15.706976 172.909998 15.848265 172.954615S16.127125 173.032696 16.260977 173.055005S16.543556 173.088468 16.707153 173.088468C17.584631 173.088468 18.331975 172.746401 18.949186 172.062264S19.875 170.552702 19.875 169.585989C19.875 168.589529 19.532933 167.738079 18.848796 167.031634S17.346672 165.971966 16.39483 165.971966C14.758853 165.971966 13.398024 166.983297 12.312323 169.005961Z" fill="#010101" />
</svg>
