<svg width="500.000000" height="700.000000" id="card-realspade12">
<radialGradient id="card-realwhitegradient" cx="250.0" cy="350.0" r="500" gradientTransform="matrix(1 0 0 1 0 -.25)" gradientUnits="userSpaceOnUse">
<stop stop-color="#FDFAF4" offset=".15"/>
<stop stop-color="#FDF9F2" offset=".35"/>
<stop stop-color="#FCF7F1" offset=".5"/>
<stop stop-color="#FDFDF8" offset=".75"/>
<stop stop-color="#FFFDFA" offset="1"/>
</radialGradient>
<rect x="0" y="0" rx="25.0" ry="25.0" width="500" height="700.0" stroke="rgba(1,1,1,0.333)" fill="url(#card-realwhitegradient)" />
<rect x="100.0" y="70.0" width="300.0" height="560.0" stroke="#010101" fill="#fffdfa" />
<path d="M249.716312 276.921513C261.631206 276.921513 272.458638 277.772577 282.198582 279.474704C291.938525 281.176832 296.808511 283.351783 296.808511 285.999527C296.808511 289.025541 294.633569 290.538534 290.283688 290.538534C289.527186 290.538534 283.711574 290.160285 272.836879 289.403783S254.160766 288.269031 249.432624 288.269031C244.515376 288.269031 236.76122 288.64728 226.170213 289.403783C215.579206 290.160285 210.0 290.538534 209.432624 290.538534C205.082752 290.538534 202.907801 289.025533 202.907801 285.999527C202.907801 279.947527 218.510638 276.921513 249.716312 276.921513ZM332.269504 167.417967C334.160757 167.417967 335.815603 168.079904 337.234043 169.403783C338.652482 170.727661 339.361702 172.429797 339.361702 174.510165S338.652482 178.292662 337.234043 179.616548S334.160766 181.602364 332.269504 181.602364C327.730496 181.602364 325.460993 179.238299 325.460993 174.510165C325.460993 169.782024 327.730496 167.417967 332.269504 167.417967ZM295.106383 149.545626C300.023631 149.545626 302.48227 151.909692 302.48227 156.637825S300.02364 163.730024 295.106383 163.730024C290.567376 163.730024 288.297872 161.365958 288.297872 156.637825S290.567376 149.545626 295.106383 149.545626ZM204.609929 149.545626C206.501183 149.545626 208.108738 150.254846 209.432624 151.673286S211.41844 154.746563 211.41844 156.637825C211.41844 161.365967 209.148936 163.730024 204.609929 163.730024C199.881787 163.730024 197.51773 161.365958 197.51773 156.637825S199.881796 149.545626 204.609929 149.545626ZM167.730496 167.417967C172.269504 167.417967 174.539007 169.782032 174.539007 174.510165C174.539007 179.238307 172.269504 181.602364 167.730496 181.602364C163.002355 181.602364 160.638298 179.238299 160.638298 174.510165C160.638298 172.429788 161.347518 170.727669 162.765957 169.403783C164.184397 168.079904 165.839234 167.417967 167.730496 167.417967ZM196.099291 275.503073C196.099291 276.637825 194.775413 280.278478 192.12766 286.425059S188.156028 298.103556 188.156028 303.020804C188.156028 307.559811 194.63356 310.822222 207.588652 312.808038C220.543745 314.793853 234.680851 315.786761 250.0 315.786761C267.399518 315.786761 282.009362 314.604727 293.829787 312.240662C305.650128 309.876597 311.560284 306.8033 311.560284 303.020804C311.560284 297.914421 310.283688 292.335215 307.730496 286.283215S303.900709 276.637825 303.900709 275.503073C303.900709 272.287953 307.446809 266.566903 314.539007 258.339953S325.177305 245.05391 325.177305 243.162648C325.177305 242.027896 325.886525 239.096463 327.304965 234.368322S330.283688 223.399045 331.985816 215.644917S334.822695 199.947527 335.390071 191.81513C344.089844 188.22174 348.439716 182.453428 348.439716 174.510165C348.439716 169.971158 346.879433 166.188662 343.758865 163.162648S336.808511 158.623641 332.269504 158.623641C328.108738 158.623641 324.420794 160.183924 321.205674 163.304492S316.382979 170.160293 316.382979 174.510165C316.382979 174.699291 316.619385 176.448699 317.092199 179.758392S317.801418 184.912066 317.801418 185.290307C317.801418 193.800946 311.749418 204.202846 299.64539 216.495981C298.699765 208.741853 298.22695 200.609456 298.22695 192.098818C298.22695 185.101173 298.888888 179.616548 300.212766 175.644917S303.049645 169.214648 304.751773 168.269031S307.966894 165.904965 309.29078 164.013712S311.276596 159.474704 311.276596 156.070449C311.276596 151.531442 309.716312 147.748946 306.595745 144.722931S299.64539 140.183924 295.106383 140.183924C290.756511 140.183924 287.021277 141.744208 283.900709 144.864775S279.219858 151.720577 279.219858 156.070449C279.219858 156.448699 279.550828 158.434514 280.212766 162.027896S281.205674 167.701655 281.205674 168.269031C281.205674 178.860038 276.004738 195.030251 265.602837 216.779669C261.631206 199.001882 259.64539 185.384775 259.64539 175.928605C259.64539 169.120095 260.638298 162.926251 262.624113 157.347045S265.602837 148.789116 265.602837 148.410875C265.602837 143.871868 264.042553 140.089371 260.921986 137.063357S254.066184 132.52435 249.716312 132.52435S241.725759 134.084634 238.794326 137.205201S234.397163 144.061002 234.397163 148.410875C234.397163 149.3565 235.390071 152.477059 237.375887 157.772577S240.35461 169.120095 240.35461 175.928605C240.35461 185.384861 238.368794 199.001882 234.397163 216.779669C224.184397 195.219385 219.078014 179.049173 219.078014 168.269031C219.078014 167.512529 219.361702 165.526713 219.929078 162.311584S220.780142 157.016066 220.780142 156.070449C220.780142 151.531442 219.219858 147.748946 216.099291 144.722931S209.148936 140.183924 204.609929 140.183924C200.260057 140.183924 196.524823 141.744208 193.404255 144.864775S188.723404 151.720577 188.723404 156.070449C188.723404 158.907329 189.148936 161.129541 190.0 162.737116S191.938533 165.715839 193.262411 166.850591S195.910165 169.3565 197.234043 170.964066C198.557921 172.571632 199.64539 175.172095 200.496454 178.765485S201.77305 186.897882 201.77305 192.382506C201.77305 200.704009 201.300235 208.741853 200.35461 216.495981C188.250582 204.202846 182.198582 193.800946 182.198582 185.290307C182.198582 180.940435 182.671396 177.347045 183.617021 174.510165C183.617021 170.160293 182.056738 166.425059 178.93617 163.304492S172.080369 158.623641 167.730496 158.623641C163.191489 158.623641 159.361702 160.183924 156.241135 163.304492S151.560284 170.160293 151.560284 174.510165C151.560284 182.075187 155.910156 187.843499 164.609929 191.81513C165.744681 203.730024 167.730496 214.746563 170.567376 224.864775S174.822695 241.082279 174.822695 243.162648C174.822695 244.864775 178.368794 249.876605 185.460993 258.198109S196.099291 272.287953 196.099291 275.503073ZM249.716312 140.7513C251.796689 140.7513 253.498809 141.413238 254.822695 142.737116S256.808511 145.76313 256.808511 147.843499S256.146573 151.625995 254.822695 152.949882S251.796681 154.935697 249.716312 154.935697C245.177305 154.935697 242.907801 152.571632 242.907801 147.843499C242.907801 145.952245 243.569739 144.2974 244.893617 142.87896S247.82505 140.7513 249.716312 140.7513ZM198.652482 251.389598C198.652482 248.174478 204.27895 245.857683 215.531915 244.439243C226.784879 243.020804 238.17966 242.311584 249.716312 242.311584C260.685589 242.311584 271.985816 243.068086 283.617021 244.581087S301.06383 248.458165 301.06383 251.673286C301.06383 254.321039 298.6052 255.644917 293.687943 255.644917C289.527177 255.644917 282.52956 255.313947 272.695035 254.652009S255.106383 253.659102 249.432624 253.659102C243.56973 253.659102 234.917248 253.990072 223.475177 254.652009C212.033106 255.313947 206.028369 255.644917 205.460993 255.644917C200.921986 255.644917 198.652482 254.226478 198.652482 251.389598Z" fill="#010101" />
<path d="M250.283688 423.078487C238.368794 423.078487 227.541362 422.227423 217.801418 420.525296C208.061475 418.823168 203.191489 416.648217 203.191489 414.000473C203.191489 410.974459 205.366431 409.461466 209.716312 409.461466C210.472814 409.461466 216.288426 409.839715 227.163121 410.596217S245.839234 411.730969 250.567376 411.730969C255.484624 411.730969 263.23878 411.35272 273.829787 410.596217C284.420794 409.839715 290.0 409.461466 290.567376 409.461466C294.917248 409.461466 297.092199 410.974467 297.092199 414.000473C297.092199 420.052473 281.489362 423.078487 250.283688 423.078487ZM167.730496 532.582033C165.839243 532.582033 164.184397 531.920096 162.765957 530.596217C161.347518 529.272339 160.638298 527.570203 160.638298 525.489835S161.347518 521.707338 162.765957 520.383452S165.839234 518.397636 167.730496 518.397636C172.269504 518.397636 174.539007 520.761701 174.539007 525.489835C174.539007 530.217976 172.269504 532.582033 167.730496 532.582033ZM204.893617 550.454374C199.976369 550.454374 197.51773 548.090308 197.51773 543.362175S199.97636 536.269976 204.893617 536.269976C209.432624 536.269976 211.702128 538.634042 211.702128 543.362175S209.432624 550.454374 204.893617 550.454374ZM295.390071 550.454374C293.498817 550.454374 291.891262 549.745154 290.567376 548.326714S288.58156 545.253437 288.58156 543.362175C288.58156 538.634033 290.851064 536.269976 295.390071 536.269976C300.118213 536.269976 302.48227 538.634042 302.48227 543.362175S300.118204 550.454374 295.390071 550.454374ZM332.269504 532.582033C327.730496 532.582033 325.460993 530.217968 325.460993 525.489835C325.460993 520.761693 327.730496 518.397636 332.269504 518.397636C336.997645 518.397636 339.361702 520.761701 339.361702 525.489835C339.361702 527.570212 338.652482 529.272331 337.234043 530.596217C335.815603 531.920096 334.160766 532.582033 332.269504 532.582033ZM303.900709 424.496927C303.900709 423.362175 305.224587 419.721522 307.87234 413.574941S311.843972 401.896444 311.843972 396.979196C311.843972 392.440189 305.36644 389.177778 292.411348 387.191962C279.456255 385.206147 265.319149 384.213239 250.0 384.213239C232.600482 384.213239 217.990638 385.395273 206.170213 387.759338C194.349872 390.123403 188.439716 393.1967 188.439716 396.979196C188.439716 402.085579 189.716312 407.664785 192.269504 413.716785S196.099291 423.362175 196.099291 424.496927C196.099291 427.712047 192.553191 433.433097 185.460993 441.660047S174.822695 454.94609 174.822695 456.837352C174.822695 457.972104 174.113475 460.903537 172.695035 465.631678S169.716312 476.600955 168.014184 484.355083S165.177305 500.052473 164.609929 508.18487C155.910156 511.77826 151.560284 517.546572 151.560284 525.489835C151.560284 530.028842 153.120567 533.811338 156.241135 536.837352S163.191489 541.376359 167.730496 541.376359C171.891262 541.376359 175.579206 539.816076 178.794326 536.695508S183.617021 529.839707 183.617021 525.489835C183.617021 525.300709 183.380615 523.551301 182.907801 520.241608S182.198582 515.087934 182.198582 514.709693C182.198582 506.199054 188.250582 495.797154 200.35461 483.504019C201.300235 491.258147 201.77305 499.390544 201.77305 507.901182C201.77305 514.898827 201.111112 520.383452 199.787234 524.355083S196.950355 530.785352 195.248227 531.730969S192.033106 534.095035 190.70922 535.986288S188.723404 540.525296 188.723404 543.929551C188.723404 548.468558 190.283688 552.251054 193.404255 555.277069S200.35461 559.816076 204.893617 559.816076C209.243489 559.816076 212.978723 558.255792 216.099291 555.135225S220.780142 548.279423 220.780142 543.929551C220.780142 543.551301 220.449172 541.565486 219.787234 537.972104S218.794326 532.298345 218.794326 531.730969C218.794326 521.139962 223.995262 504.969749 234.397163 483.220331C238.368794 500.998118 240.35461 514.615225 240.35461 524.071395C240.35461 530.879905 239.361702 537.073749 237.375887 542.652955S234.397163 551.210884 234.397163 551.589125C234.397163 556.128132 235.957447 559.910629 239.078014 562.936643S245.933816 567.47565 250.283688 567.47565S258.274241 565.915366 261.205674 562.794799S265.602837 555.938998 265.602837 551.589125C265.602837 550.6435 264.609929 547.522941 262.624113 542.227423S259.64539 530.879905 259.64539 524.071395C259.64539 514.615139 261.631206 500.998118 265.602837 483.220331C275.815603 504.780615 280.921986 520.950827 280.921986 531.730969C280.921986 532.487471 280.638298 534.473287 280.070922 537.688416S279.219858 542.983934 279.219858 543.929551C279.219858 548.468558 280.780142 552.251054 283.900709 555.277069S290.851064 559.816076 295.390071 559.816076C299.739943 559.816076 303.475177 558.255792 306.595745 555.135225S311.276596 548.279423 311.276596 543.929551C311.276596 541.092671 310.851064 538.870459 310.0 537.262884S308.061467 534.284161 306.737589 533.149409S304.089835 530.6435 302.765957 529.035934C301.442079 527.428368 300.35461 524.827905 299.503546 521.234515S298.22695 513.102118 298.22695 507.617494C298.22695 499.295991 298.699765 491.258147 299.64539 483.504019C311.749418 495.797154 317.801418 506.199054 317.801418 514.709693C317.801418 519.059565 317.328604 522.652955 316.382979 525.489835C316.382979 529.839707 317.943262 533.574941 321.06383 536.695508S327.919631 541.376359 332.269504 541.376359C336.808511 541.376359 340.638298 539.816076 343.758865 536.695508S348.439716 529.839707 348.439716 525.489835C348.439716 517.924813 344.089844 512.156501 335.390071 508.18487C334.255319 496.269976 332.269504 485.253437 329.432624 475.135225S325.177305 458.917721 325.177305 456.837352C325.177305 455.135225 321.631206 450.123395 314.539007 441.801891S303.900709 427.712047 303.900709 424.496927ZM250.283688 559.2487C248.203311 559.2487 246.501191 558.586762 245.177305 557.262884S243.191489 554.23687 243.191489 552.156501S243.853427 548.374005 245.177305 547.050118S248.203319 545.064303 250.283688 545.064303C254.822695 545.064303 257.092199 547.428368 257.092199 552.156501C257.092199 554.047755 256.430261 555.7026 255.106383 557.12104S252.17495 559.2487 250.283688 559.2487ZM301.347518 448.610402C301.347518 451.825522 295.72105 454.142317 284.468085 455.560757C273.215121 456.979196 261.82034 457.688416 250.283688 457.688416C239.314411 457.688416 228.014184 456.931914 216.382979 455.418913S198.93617 451.541835 198.93617 448.326714C198.93617 445.678961 201.3948 444.355083 206.312057 444.355083C210.472823 444.355083 217.47044 444.686053 227.304965 445.347991S244.893617 446.340898 250.567376 446.340898C256.43027 446.340898 265.082752 446.009928 276.524823 445.347991C287.966894 444.686053 293.971631 444.355083 294.539007 444.355083C299.078014 444.355083 301.347518 445.773522 301.347518 448.610402Z" fill="#010101" />
<path d="M444.947121 85.946515Q447.579318 85.041698 449.553467 83.684471T454.653349 79.859559Q457.121034 77.803155 459.054054 76.4048T463.207991 73.854859Q465.840188 72.53876 469.459459 71.716198Q478.096357 69.74205 482.044653 66.698572Q486.897767 62.914788 489.571093 57.239112T492.244418 45.147456Q492.244418 36.510558 488.33725 30.094577T478.343126 20.264964T466.0047 16.851333Q458.108108 16.851333 452.021152 20.593989T442.685076 30.464729T439.435958 43.666844Q439.435958 52.879535 444.083431 59.747926T456.380729 69.659794Q457.696827 70.235587 459.753231 70.317843V70.482356Q457.532315 70.729124 455.722679 71.633942Q452.514689 73.196809 447.085781 77.145105Q443.055229 80.024071 440.587544 81.381298T435.73443 82.738525Q434.253819 82.574013 433.554642 81.792579T432.855464 79.859559Q432.855464 77.885411 434.377203 76.199159T438.284371 74.430652Q438.53114 73.114553 437.297297 71.880711T433.59577 70.646868Q432.526439 70.646868 431.169213 71.387174T428.783784 73.60809T427.755582 77.227362Q427.755582 79.695047 429.441833 81.874835T433.719154 85.41185T438.942421 86.851333Q442.314924 86.851333 444.947121 85.946515ZM456.709753 65.259089Q452.925969 61.845458 451.075206 56.169782T449.224442 43.666844Q449.224442 37.333119 451.116334 32.027597T456.833137 23.555211T466.086957 20.388349Q474.312573 20.388349 478.425382 27.338995T482.53819 44.900687Q482.53819 51.316668 480.687427 56.745575T475.135135 65.423601T466.086957 68.67272Q460.493537 68.67272 456.709753 65.259089Z" fill="#010101" />
<path d="M458.771277 140.748818C458.52305 143.330381 457.90248 145.614064 456.909574 147.599882C455.916669 149.5857 454.874116 151.099882 453.781915 152.142435S451.312054 154.078605 449.648936 154.823286C447.985818 155.567967 446.707447 156.052009 445.81383 156.275414S443.828012 156.709811 442.537234 156.908392C442.338652 156.958038 442.189716 156.982861 442.090426 156.982861V158.472222H477.909574V156.982861C473.689714 156.23818 470.487586 155.145979 468.303191 153.706265C464.132979 150.926125 461.77482 146.606976 461.228723 140.748818C463.810286 144.720447 467.136522 146.706265 471.207447 146.706265C473.83865 146.706265 476.085106 145.787828 477.946809 143.950946S480.739362 139.880021 480.739362 137.248818C480.739362 135.014775 480.193263 132.979317 479.101064 131.142435C478.008863 129.305553 476.593969 127.630021 474.856383 126.115839S471.331563 123.025414 469.494681 121.387116C467.657799 119.748818 465.845745 117.601657 464.058511 114.945626S460.906031 109.298466 459.962766 105.972222C459.118797 109.248818 457.815605 112.202721 456.053191 114.833924S452.478723 119.599882 450.617021 121.23818S446.955671 124.465128 445.218085 126.004137S442.053191 129.231085 440.93617 131.067967S439.260638 134.965128 439.260638 137.248818C439.260638 139.880021 440.191489 142.114064 442.053191 143.950946S446.16135 146.706265 448.792553 146.706265C452.863478 146.706265 456.189714 144.720447 458.771277 140.748818Z" fill="#010101" />
<path d="M55.052879 614.053485Q52.420682 614.958302 50.446533 616.315529T45.346651 620.140441Q42.878966 622.196845 40.945946 623.5952T36.792009 626.145141Q34.159812 627.46124 30.540541 628.283802Q21.903643 630.25795 17.955347 633.301428Q13.102233 637.085212 10.428907 642.760888T7.755582 654.852544Q7.755582 663.489442 11.66275 669.905423T21.656874 679.735036T33.9953 683.148667Q41.891892 683.148667 47.978848 679.406011T57.314924 669.535271T60.564042 656.333156Q60.564042 647.120465 55.916569 640.252074T43.619271 630.340206Q42.303173 629.764413 40.246769 629.682157V629.517644Q42.467685 629.270876 44.277321 628.366058Q47.485311 626.803191 52.914219 622.854895Q56.944771 619.975929 59.412456 618.618702T64.26557 617.261475Q65.746181 617.425987 66.445358 618.207421T67.144536 620.140441Q67.144536 622.114589 65.622797 623.800841T61.715629 625.569348Q61.46886 626.885447 62.702703 628.119289T66.40423 629.353132Q67.473561 629.353132 68.830787 628.612826T71.216216 626.39191T72.244418 622.772638Q72.244418 620.304953 70.558167 618.125165T66.280846 614.58815T61.057579 613.148667Q57.685076 613.148667 55.052879 614.053485ZM43.290247 634.740911Q47.074031 638.154542 48.924794 643.830218T50.775558 656.333156Q50.775558 662.666881 48.883666 667.972403T43.166863 676.444789T33.913043 679.611651Q25.687427 679.611651 21.574618 672.661005T17.46181 655.099313Q17.46181 648.683332 19.312573 643.254425T24.864865 634.576399T33.913043 631.32728Q39.506463 631.32728 43.290247 634.740911Z" fill="#010101" />
<path d="M41.228723 559.251182C41.47695 556.669619 42.09752 554.385936 43.090426 552.400118C44.083331 550.4143 45.125884 548.900118 46.218085 547.857565S48.687946 545.921395 50.351064 545.176714C52.014182 544.432033 53.292553 543.947991 54.18617 543.724586S56.171988 543.290189 57.462766 543.091608C57.661348 543.041962 57.810284 543.017139 57.909574 543.017139V541.527778H22.090426V543.017139C26.310286 543.76182 29.512414 544.854021 31.696809 546.293735C35.867021 549.073875 38.22518 553.393024 38.771277 559.251182C36.189714 555.279553 32.863478 553.293735 28.792553 553.293735C26.16135 553.293735 23.914894 554.212172 22.053191 556.049054S19.260638 560.119979 19.260638 562.751182C19.260638 564.985225 19.806737 567.020683 20.898936 568.857565C21.991137 570.694447 23.406031 572.369979 25.143617 573.884161S28.668437 576.974586 30.505319 578.612884C32.342201 580.251182 34.154255 582.398343 35.941489 585.054374S39.093969 590.701534 40.037234 594.027778C40.881203 590.751182 42.184395 587.797279 43.946809 585.166076S47.521277 580.400118 49.382979 578.76182S53.044329 575.534872 54.781915 573.995863S57.946809 570.768915 59.06383 568.932033S60.739362 565.034872 60.739362 562.751182C60.739362 560.119979 59.808511 557.885936 57.946809 556.049054S53.83865 553.293735 51.207447 553.293735C47.136522 553.293735 43.810286 555.279553 41.228723 559.251182Z" fill="#010101" />
</svg>
