<svg width="25.000000" height="35.000000" id="card-lightspade12">
<rect x="0" y="0" rx="1.25" ry="1.25" width="25" height="35.0" stroke="rgba(1,1,1,0.333)" fill="#fffdfa" />
<rect x="5.0" y="3.5" width="15.0" height="28.0" stroke="#010101" fill="#fffdfa" />
<path d="M12.485816 13.846076C13.08156 13.846076 13.622932 13.888629 14.109929 13.973735C14.596926 14.058842 14.840426 14.167589 14.840426 14.299976C14.840426 14.451277 14.731678 14.526927 14.514184 14.526927C14.476359 14.526927 14.185579 14.508014 13.641844 14.470189S12.708038 14.413452 12.471631 14.413452C12.225769 14.413452 11.838061 14.432364 11.308511 14.470189C10.77896 14.508014 10.5 14.526927 10.471631 14.526927C10.254138 14.526927 10.14539 14.451277 10.14539 14.299976C10.14539 13.997376 10.925532 13.846076 12.485816 13.846076ZM16.613475 8.370898C16.708038 8.370898 16.79078 8.403995 16.861702 8.470189C16.932624 8.536383 16.968085 8.62149 16.968085 8.725508S16.932624 8.914633 16.861702 8.980827S16.708038 9.080118 16.613475 9.080118C16.386525 9.080118 16.27305 8.961915 16.27305 8.725508C16.27305 8.489101 16.386525 8.370898 16.613475 8.370898ZM14.755319 7.477281C15.001182 7.477281 15.124113 7.595485 15.124113 7.831891S15.001182 8.186501 14.755319 8.186501C14.528369 8.186501 14.414894 8.068298 14.414894 7.831891S14.528369 7.477281 14.755319 7.477281ZM10.230496 7.477281C10.325059 7.477281 10.405437 7.512742 10.471631 7.583664S10.570922 7.737328 10.570922 7.831891C10.570922 8.068298 10.457447 8.186501 10.230496 8.186501C9.994089 8.186501 9.875887 8.068298 9.875887 7.831891S9.99409 7.477281 10.230496 7.477281ZM8.386525 8.370898C8.613475 8.370898 8.72695 8.489102 8.72695 8.725508C8.72695 8.961915 8.613475 9.080118 8.386525 9.080118C8.150118 9.080118 8.031915 8.961915 8.031915 8.725508C8.031915 8.621489 8.067376 8.536383 8.138298 8.470189C8.20922 8.403995 8.291962 8.370898 8.386525 8.370898ZM9.804965 13.775154C9.804965 13.831891 9.738771 14.013924 9.606383 14.321253S9.407801 14.905178 9.407801 15.15104C9.407801 15.377991 9.731678 15.541111 10.379433 15.640402C11.027187 15.739693 11.734043 15.789338 12.5 15.789338C13.369976 15.789338 14.100468 15.730236 14.691489 15.612033C15.282506 15.49383 15.578014 15.340165 15.578014 15.15104C15.578014 14.895721 15.514184 14.616761 15.386525 14.314161S15.195035 13.831891 15.195035 13.775154C15.195035 13.614398 15.37234 13.328345 15.72695 12.916998S16.258865 12.252696 16.258865 12.158132C16.258865 12.101395 16.294326 11.954823 16.365248 11.718416S16.514184 11.169952 16.599291 10.782246S16.741135 9.997376 16.769504 9.590757C17.204492 9.411087 17.421986 9.122671 17.421986 8.725508C17.421986 8.498558 17.343972 8.309433 17.187943 8.158132S16.840426 7.931182 16.613475 7.931182C16.405437 7.931182 16.22104 8.009196 16.060284 8.165225S15.819149 8.508015 15.819149 8.725508C15.819149 8.734965 15.830969 8.822435 15.85461 8.98792S15.890071 9.245603 15.890071 9.264515C15.890071 9.690047 15.587471 10.210142 14.98227 10.824799C14.934988 10.437093 14.911348 10.030473 14.911348 9.604941C14.911348 9.255059 14.944444 8.980827 15.010638 8.782246S15.152482 8.460732 15.237589 8.413452S15.398345 8.295248 15.464539 8.200686S15.56383 7.973735 15.56383 7.803522C15.56383 7.576572 15.485816 7.387447 15.329787 7.236147S14.98227 7.009196 14.755319 7.009196C14.537826 7.009196 14.351064 7.08721 14.195035 7.243239S13.960993 7.586029 13.960993 7.803522C13.960993 7.822435 13.977541 7.921726 14.010638 8.101395S14.060284 8.385083 14.060284 8.413452C14.060284 8.943002 13.800237 9.751513 13.280142 10.838983C13.08156 9.950094 12.98227 9.269239 12.98227 8.79643C12.98227 8.456005 13.031915 8.146313 13.131206 7.867352S13.280142 7.439456 13.280142 7.420544C13.280142 7.193593 13.202128 7.004469 13.046099 6.853168S12.703309 6.626217 12.485816 6.626217S12.086288 6.704232 11.939716 6.86026S11.719858 7.20305 11.719858 7.420544C11.719858 7.467825 11.769504 7.623853 11.868794 7.888629S12.01773 8.456005 12.01773 8.79643C12.01773 9.269243 11.91844 9.950094 11.719858 10.838983C11.20922 9.760969 10.953901 8.952459 10.953901 8.413452C10.953901 8.375626 10.968085 8.276336 10.996454 8.115579S11.039007 7.850803 11.039007 7.803522C11.039007 7.576572 10.960993 7.387447 10.804965 7.236147S10.457447 7.009196 10.230496 7.009196C10.013003 7.009196 9.826241 7.08721 9.670213 7.243239S9.43617 7.586029 9.43617 7.803522C9.43617 7.945366 9.457447 8.056477 9.5 8.136856S9.596927 8.285792 9.663121 8.34253S9.795508 8.467825 9.861702 8.548203C9.927896 8.628582 9.98227 8.758605 10.024823 8.938274S10.088652 9.344894 10.088652 9.619125C10.088652 10.0352 10.065012 10.437093 10.01773 10.824799C9.412529 10.210142 9.109929 9.690047 9.109929 9.264515C9.109929 9.047022 9.13357 8.867352 9.180851 8.725508C9.180851 8.508015 9.102837 8.321253 8.946809 8.165225S8.604018 7.931182 8.386525 7.931182C8.159574 7.931182 7.968085 8.009196 7.812057 8.165225S7.578014 8.508015 7.578014 8.725508C7.578014 9.103759 7.795508 9.392175 8.230496 9.590757C8.287234 10.186501 8.386525 10.737328 8.528369 11.243239S8.741135 12.054114 8.741135 12.158132C8.741135 12.243239 8.91844 12.49383 9.27305 12.909905S9.804965 13.614398 9.804965 13.775154ZM12.485816 7.037565C12.589834 7.037565 12.67494 7.070662 12.741135 7.136856S12.840426 7.288157 12.840426 7.392175S12.807329 7.5813 12.741135 7.647494S12.589834 7.746785 12.485816 7.746785C12.258865 7.746785 12.14539 7.628582 12.14539 7.392175C12.14539 7.297612 12.178487 7.21487 12.244681 7.143948S12.391252 7.037565 12.485816 7.037565ZM9.932624 12.56948C9.932624 12.408724 10.213948 12.292884 10.776596 12.221962C11.339244 12.15104 11.908983 12.115579 12.485816 12.115579C13.034279 12.115579 13.599291 12.153404 14.180851 12.229054S15.053191 12.422908 15.053191 12.583664C15.053191 12.716052 14.93026 12.782246 14.684397 12.782246C14.476359 12.782246 14.126478 12.765697 13.634752 12.7326S12.755319 12.682955 12.471631 12.682955C12.178487 12.682955 11.745862 12.699504 11.173759 12.7326C10.601655 12.765697 10.301418 12.782246 10.27305 12.782246C10.046099 12.782246 9.932624 12.711324 9.932624 12.56948Z" fill="#010101" />
<path d="M12.514184 21.153924C11.91844 21.153924 11.377068 21.111371 10.890071 21.026265C10.403074 20.941158 10.159574 20.832411 10.159574 20.700024C10.159574 20.548723 10.268322 20.473073 10.485816 20.473073C10.523641 20.473073 10.814421 20.491986 11.358156 20.529811S12.291962 20.586548 12.528369 20.586548C12.774231 20.586548 13.161939 20.567636 13.691489 20.529811C14.22104 20.491986 14.5 20.473073 14.528369 20.473073C14.745862 20.473073 14.85461 20.548723 14.85461 20.700024C14.85461 21.002624 14.074468 21.153924 12.514184 21.153924ZM8.386525 26.629102C8.291962 26.629102 8.20922 26.596005 8.138298 26.529811C8.067376 26.463617 8.031915 26.37851 8.031915 26.274492S8.067376 26.085367 8.138298 26.019173S8.291962 25.919882 8.386525 25.919882C8.613475 25.919882 8.72695 26.038085 8.72695 26.274492C8.72695 26.510899 8.613475 26.629102 8.386525 26.629102ZM10.244681 27.522719C9.998818 27.522719 9.875887 27.404515 9.875887 27.168109S9.998818 26.813499 10.244681 26.813499C10.471631 26.813499 10.585106 26.931702 10.585106 27.168109S10.471631 27.522719 10.244681 27.522719ZM14.769504 27.522719C14.674941 27.522719 14.594563 27.487258 14.528369 27.416336S14.429078 27.262672 14.429078 27.168109C14.429078 26.931702 14.542553 26.813499 14.769504 26.813499C15.005911 26.813499 15.124113 26.931702 15.124113 27.168109S15.00591 27.522719 14.769504 27.522719ZM16.613475 26.629102C16.386525 26.629102 16.27305 26.510898 16.27305 26.274492C16.27305 26.038085 16.386525 25.919882 16.613475 25.919882C16.849882 25.919882 16.968085 26.038085 16.968085 26.274492C16.968085 26.378511 16.932624 26.463617 16.861702 26.529811C16.79078 26.596005 16.708038 26.629102 16.613475 26.629102ZM15.195035 21.224846C15.195035 21.168109 15.261229 20.986076 15.393617 20.678747S15.592199 20.094822 15.592199 19.84896C15.592199 19.622009 15.268322 19.458889 14.620567 19.359598C13.972813 19.260307 13.265957 19.210662 12.5 19.210662C11.630024 19.210662 10.899532 19.269764 10.308511 19.387967C9.717494 19.50617 9.421986 19.659835 9.421986 19.84896C9.421986 20.104279 9.485816 20.383239 9.613475 20.685839S9.804965 21.168109 9.804965 21.224846C9.804965 21.385602 9.62766 21.671655 9.27305 22.083002S8.741135 22.747304 8.741135 22.841868C8.741135 22.898605 8.705674 23.045177 8.634752 23.281584S8.485816 23.830048 8.400709 24.217754S8.258865 25.002624 8.230496 25.409243C7.795508 25.588913 7.578014 25.877329 7.578014 26.274492C7.578014 26.501442 7.656028 26.690567 7.812057 26.841868S8.159574 27.068818 8.386525 27.068818C8.594563 27.068818 8.77896 26.990804 8.939716 26.834775S9.180851 26.491985 9.180851 26.274492C9.180851 26.265035 9.169031 26.177565 9.14539 26.01208S9.109929 25.754397 9.109929 25.735485C9.109929 25.309953 9.412529 24.789858 10.01773 24.175201C10.065012 24.562907 10.088652 24.969527 10.088652 25.395059C10.088652 25.744941 10.055556 26.019173 9.989362 26.217754S9.847518 26.539268 9.762411 26.586548S9.601655 26.704752 9.535461 26.799314S9.43617 27.026265 9.43617 27.196478C9.43617 27.423428 9.514184 27.612553 9.670213 27.763853S10.01773 27.990804 10.244681 27.990804C10.462174 27.990804 10.648936 27.91279 10.804965 27.756761S11.039007 27.413971 11.039007 27.196478C11.039007 27.177565 11.022459 27.078274 10.989362 26.898605S10.939716 26.614917 10.939716 26.586548C10.939716 26.056998 11.199763 25.248487 11.719858 24.161017C11.91844 25.049906 12.01773 25.730761 12.01773 26.20357C12.01773 26.543995 11.968085 26.853687 11.868794 27.132648S11.719858 27.560544 11.719858 27.579456C11.719858 27.806407 11.797872 27.995531 11.953901 28.146832S12.296691 28.373783 12.514184 28.373783S12.913712 28.295768 13.060284 28.13974S13.280142 27.79695 13.280142 27.579456C13.280142 27.532175 13.230496 27.376147 13.131206 27.111371S12.98227 26.543995 12.98227 26.20357C12.98227 25.730757 13.08156 25.049906 13.280142 24.161017C13.79078 25.239031 14.046099 26.047541 14.046099 26.586548C14.046099 26.624374 14.031915 26.723664 14.003546 26.884421S13.960993 27.149197 13.960993 27.196478C13.960993 27.423428 14.039007 27.612553 14.195035 27.763853S14.542553 27.990804 14.769504 27.990804C14.986997 27.990804 15.173759 27.91279 15.329787 27.756761S15.56383 27.413971 15.56383 27.196478C15.56383 27.054634 15.542553 26.943523 15.5 26.863144S15.403073 26.714208 15.336879 26.65747S15.204492 26.532175 15.138298 26.451797C15.072104 26.371418 15.01773 26.241395 14.975177 26.061726S14.911348 25.655106 14.911348 25.380875C14.911348 24.9648 14.934988 24.562907 14.98227 24.175201C15.587471 24.789858 15.890071 25.309953 15.890071 25.735485C15.890071 25.952978 15.86643 26.132648 15.819149 26.274492C15.819149 26.491985 15.897163 26.678747 16.053191 26.834775S16.395982 27.068818 16.613475 27.068818C16.840426 27.068818 17.031915 26.990804 17.187943 26.834775S17.421986 26.491985 17.421986 26.274492C17.421986 25.896241 17.204492 25.607825 16.769504 25.409243C16.712766 24.813499 16.613475 24.262672 16.471631 23.756761S16.258865 22.945886 16.258865 22.841868C16.258865 22.756761 16.08156 22.50617 15.72695 22.090095S15.195035 21.385602 15.195035 21.224846ZM12.514184 27.962435C12.410166 27.962435 12.32506 27.929338 12.258865 27.863144S12.159574 27.711843 12.159574 27.607825S12.192671 27.4187 12.258865 27.352506S12.410166 27.253215 12.514184 27.253215C12.741135 27.253215 12.85461 27.371418 12.85461 27.607825C12.85461 27.702388 12.821513 27.78513 12.755319 27.856052S12.608748 27.962435 12.514184 27.962435ZM15.067376 22.43052C15.067376 22.591276 14.786052 22.707116 14.223404 22.778038C13.660756 22.84896 13.091017 22.884421 12.514184 22.884421C11.965721 22.884421 11.400709 22.846596 10.819149 22.770946S9.946809 22.577092 9.946809 22.416336C9.946809 22.283948 10.06974 22.217754 10.315603 22.217754C10.523641 22.217754 10.873522 22.234303 11.365248 22.2674S12.244681 22.317045 12.528369 22.317045C12.821513 22.317045 13.254138 22.300496 13.826241 22.2674C14.398345 22.234303 14.698582 22.217754 14.72695 22.217754C14.953901 22.217754 15.067376 22.288676 15.067376 22.43052Z" fill="#010101" />
<path d="M22.247356 4.297326Q22.378966 4.252085 22.477673 4.184224T22.732667 3.992978Q22.856052 3.890158 22.952703 3.82024T23.1604 3.692743Q23.292009 3.626938 23.472973 3.58581Q23.904818 3.487103 24.102233 3.334929Q24.344888 3.145739 24.478555 2.861956T24.612221 2.257373Q24.612221 1.825528 24.416863 1.504729T23.917156 1.013248T23.300235 0.842567Q22.905405 0.842567 22.601058 1.029699T22.134254 1.523236T21.971798 2.183342Q21.971798 2.643977 22.204172 2.987396T22.819036 3.48299Q22.884841 3.511779 22.987662 3.515892V3.524118Q22.876616 3.536456 22.786134 3.581697Q22.625734 3.65984 22.354289 3.857255Q22.152761 4.001204 22.029377 4.069065T21.786722 4.136926Q21.712691 4.128701 21.677732 4.089629T21.642773 3.992978Q21.642773 3.894271 21.71886 3.809958T21.914219 3.721533Q21.926557 3.655728 21.864865 3.594036T21.679788 3.532343Q21.626322 3.532343 21.558461 3.569359T21.439189 3.680405T21.387779 3.861368Q21.387779 3.984752 21.472092 4.093742T21.685958 4.270593T21.947121 4.342567Q22.115746 4.342567 22.247356 4.297326ZM22.835488 3.262954Q22.646298 3.092273 22.55376 2.808489T22.461222 2.183342Q22.461222 1.866656 22.555817 1.60138T22.841657 1.177761T23.304348 1.019417Q23.715629 1.019417 23.921269 1.36695T24.12691 2.245034Q24.12691 2.565833 24.034371 2.837279T23.756757 3.27118T23.304348 3.433636Q23.024677 3.433636 22.835488 3.262954Z" fill="#010101" />
<path d="M22.938564 7.037441C22.926152 7.166519 22.895124 7.280703 22.845479 7.379994C22.795833 7.479285 22.743706 7.554994 22.689096 7.607122S22.565603 7.70393 22.482447 7.741164C22.399291 7.778398 22.335372 7.8026 22.290691 7.813771S22.191401 7.835491 22.126862 7.84542C22.116933 7.847902 22.109486 7.849143 22.104521 7.849143V7.923611H23.895479V7.849143C23.684486 7.811909 23.524379 7.757299 23.41516 7.685313C23.206649 7.546306 23.088741 7.330349 23.061436 7.037441C23.190514 7.236022 23.356826 7.335313 23.560372 7.335313C23.691933 7.335313 23.804255 7.289391 23.89734 7.197547S24.036968 6.994001 24.036968 6.862441C24.036968 6.750739 24.009663 6.648966 23.955053 6.557122C23.900443 6.465278 23.829698 6.381501 23.742819 6.305792S23.566578 6.151271 23.474734 6.069356C23.38289 5.987441 23.292287 5.880083 23.202926 5.747281S23.045302 5.464923 22.998138 5.298611C22.95594 5.462441 22.89078 5.610136 22.80266 5.741696S22.623936 5.979994 22.530851 6.061909S22.347784 6.223256 22.260904 6.300207S22.10266 6.461554 22.046809 6.553398S21.963032 6.748256 21.963032 6.862441C21.963032 6.994001 22.009574 7.105703 22.10266 7.197547S22.308067 7.335313 22.439628 7.335313C22.643174 7.335313 22.809486 7.236022 22.938564 7.037441Z" fill="#010101" />
<path d="M2.752644 30.702674Q2.621034 30.747915 2.522327 30.815776T2.267333 31.007022Q2.143948 31.109842 2.047297 31.17976T1.8396 31.307257Q1.707991 31.373062 1.527027 31.41419Q1.095182 31.512897 0.897767 31.665071Q0.655112 31.854261 0.521445 32.138044T0.387779 32.742627Q0.387779 33.174472 0.583137 33.495271T1.082844 33.986752T1.699765 34.157433Q2.094595 34.157433 2.398942 33.970301T2.865746 33.476764T3.028202 32.816658Q3.028202 32.356023 2.795828 32.012604T2.180964 31.51701Q2.115159 31.488221 2.012338 31.484108V31.475882Q2.123384 31.463544 2.213866 31.418303Q2.374266 31.34016 2.645711 31.142745Q2.847239 30.998796 2.970623 30.930935T3.213278 30.863074Q3.287309 30.871299 3.322268 30.910371T3.357227 31.007022Q3.357227 31.105729 3.28114 31.190042T3.085781 31.278467Q3.073443 31.344272 3.135135 31.405964T3.320212 31.467657Q3.373678 31.467657 3.441539 31.430641T3.560811 31.319595T3.612221 31.138632Q3.612221 31.015248 3.527908 30.906258T3.314042 30.729407T3.052879 30.657433Q2.884254 30.657433 2.752644 30.702674ZM2.164512 31.737046Q2.353702 31.907727 2.44624 32.191511T2.538778 32.816658Q2.538778 33.133344 2.444183 33.39862T2.158343 33.822239T1.695652 33.980583Q1.284371 33.980583 1.078731 33.63305T0.87309 32.754966Q0.87309 32.434167 0.965629 32.162721T1.243243 31.72882T1.695652 31.566364Q1.975323 31.566364 2.164512 31.737046Z" fill="#010101" />
<path d="M2.061436 27.962559C2.073848 27.833481 2.104876 27.719297 2.154521 27.620006C2.204167 27.520715 2.256294 27.445006 2.310904 27.392878S2.434397 27.29607 2.517553 27.258836C2.600709 27.221602 2.664628 27.1974 2.709309 27.186229S2.808599 27.164509 2.873138 27.15458C2.883067 27.152098 2.890514 27.150857 2.895479 27.150857V27.076389H1.104521V27.150857C1.315514 27.188091 1.475621 27.242701 1.58484 27.314687C1.793351 27.453694 1.911259 27.669651 1.938564 27.962559C1.809486 27.763978 1.643174 27.664687 1.439628 27.664687C1.308067 27.664687 1.195745 27.710609 1.10266 27.802453S0.963032 28.005999 0.963032 28.137559C0.963032 28.249261 0.990337 28.351034 1.044947 28.442878C1.099557 28.534722 1.170302 28.618499 1.257181 28.694208S1.433422 28.848729 1.525266 28.930644C1.61711 29.012559 1.707713 29.119917 1.797074 29.252719S1.954698 29.535077 2.001862 29.701389C2.04406 29.537559 2.10922 29.389864 2.19734 29.258304S2.376064 29.020006 2.469149 28.938091S2.652216 28.776744 2.739096 28.699793S2.89734 28.538446 2.953191 28.446602S3.036968 28.251744 3.036968 28.137559C3.036968 28.005999 2.990426 27.894297 2.89734 27.802453S2.691933 27.664687 2.560372 27.664687C2.356826 27.664687 2.190514 27.763978 2.061436 27.962559Z" fill="#010101" />
</svg>
