<svg width="25.000000" height="35.000000" id="card-lightdiamond11">
<rect x="0" y="0" rx="1.25" ry="1.25" width="25" height="35.0" stroke="rgba(1,1,1,0.333)" fill="#fffdfa" />
<rect x="5.0" y="3.5" width="15.0" height="28.0" stroke="#010101" fill="#fffdfa" />
<path d="M15.650209 12.035316C15.520399 12.035316 15.455494 12.123401 15.455494 12.299572C15.455494 12.531376 15.571395 12.647277 15.803199 12.647277C15.89592 12.647277 15.942281 12.5731 15.942281 12.424746C15.942281 12.165125 15.844924 12.035316 15.650209 12.035316ZM14.648818 10.338515C14.778628 10.338515 14.843533 10.259702 14.843533 10.102075C14.843533 9.925904 14.755447 9.763643 14.579277 9.615288C14.403106 9.466934 14.222299 9.392757 14.036857 9.392757C13.823598 9.392757 13.716968 9.457662 13.716968 9.587472C13.716968 9.75437 13.828234 9.921269 14.050765 10.088167S14.472647 10.338515 14.648818 10.338515ZM14.537552 7.723772C14.500464 7.853582 14.481919 7.941668 14.481919 7.988028C14.481919 8.015845 14.495828 8.090022 14.523644 8.210559C14.468011 8.210559 14.368335 8.185061 14.224618 8.134064S13.976588 8.034389 13.911683 7.988028C14.162031 7.858218 14.370654 7.770132 14.537552 7.723772ZM12.103616 11.534621C12.103616 11.942594 12.214882 12.357523 12.437413 12.779405S12.894065 13.593035 13.139777 13.954648S13.522253 14.599062 13.55007 14.803049H8.960362C8.923273 14.37653 8.904729 14.061278 8.904729 13.857291C8.904729 13.050615 9.018313 12.304203 9.24548 11.61807C9.472647 10.931932 9.74154 10.394148 10.052156 10.004718S10.654844 9.313943 10.928373 9.100685C11.201901 8.887426 11.417478 8.780796 11.575104 8.780796H12.409597C12.483774 8.743707 12.550997 8.576808 12.611266 8.2801C12.671534 7.983393 12.74803 7.797949 12.840751 7.723772C12.914928 7.964847 13.04242 8.136383 13.223227 8.238376C13.404033 8.340369 13.626565 8.428455 13.890821 8.502632S14.361381 8.66953 14.509736 8.780796C14.621001 9.160953 14.920028 9.814639 15.406815 10.741853S16.15554 12.257847 16.192629 12.508195C16.15554 12.647277 16.067455 12.772451 15.928373 12.883717S15.640936 13.050615 15.48331 13.050615C15.418405 13.050615 15.334955 13.013526 15.232962 12.939349S15.038248 12.828084 14.954798 12.828084C14.908438 12.828084 14.885257 12.8559 14.885257 12.911533L14.926982 13.036707C14.954798 13.120156 14.968707 13.166517 14.968707 13.175789C14.968707 13.259238 14.903802 13.300963 14.773992 13.300963C14.755447 13.300963 14.639546 13.1387 14.426287 12.814176C14.018313 12.183671 13.438804 11.706155 12.687761 11.38163C12.632128 11.010744 12.513908 10.672312 12.333102 10.366331S12.010894 9.907361 11.908901 9.907361C11.825452 9.907361 11.783727 9.967629 11.783727 10.088167C11.783727 10.153072 11.841678 10.350105 11.95758 10.679266S12.131433 11.233276 12.131433 11.353814C12.131433 11.38163 12.12216 11.441899 12.103616 11.534621ZM11.811544 8.196651C11.616829 8.196651 11.389662 8.247648 11.130042 8.349641C10.870421 8.451635 10.573713 8.644032 10.239917 8.926832S9.602458 9.561974 9.328929 9.983856S8.823598 10.980611 8.633519 11.708473C8.443439 12.436335 8.348401 13.249961 8.348401 14.149363C8.348401 14.585153 8.366945 14.974583 8.404033 15.317653H14.231572C14.203755 14.891134 14.113352 14.510977 13.960362 14.17718S13.642791 13.588399 13.46662 13.412228C13.290449 13.236057 13.121234 13.015845 12.958971 12.751589S12.697033 12.202214 12.659944 11.896234C13.021558 12.05386 13.329857 12.246258 13.58484 12.473425S14.018313 12.906897 14.120306 13.09234S14.321975 13.437726 14.419332 13.572173C14.51669 13.706619 14.611729 13.773842 14.704451 13.773842C14.862076 13.773842 15.001159 13.736753 15.121697 13.662576S15.307139 13.495678 15.316412 13.384412C15.409133 13.430773 15.501854 13.453953 15.594576 13.453953C16.030366 13.453953 16.382708 13.175789 16.651599 12.619461C16.595967 12.26712 16.289986 11.504486 15.733658 10.331561S14.899166 8.400643 14.899166 8.057569C14.899166 8.011209 14.926982 7.751589 14.982615 7.27871C14.407743 7.27871 13.893139 7.436335 13.438804 7.751589C13.188456 7.315799 12.979833 7.097903 12.812935 7.097903C12.590403 7.218441 12.430459 7.352886 12.333102 7.501241S12.140705 7.890671 12.047983 8.224468C11.955262 8.205923 11.876449 8.196651 11.811544 8.196651Z" fill="#da0a0a" />
<path d="M9.349791 22.964684C9.479601 22.964684 9.544506 22.876599 9.544506 22.700428C9.544506 22.468624 9.428605 22.352723 9.196801 22.352723C9.10408 22.352723 9.057719 22.4269 9.057719 22.575254C9.057719 22.834875 9.155076 22.964684 9.349791 22.964684ZM10.351182 24.661485C10.221372 24.661485 10.156467 24.740298 10.156467 24.897925C10.156467 25.074096 10.244553 25.236357 10.420723 25.384712C10.596894 25.533066 10.777701 25.607243 10.963143 25.607243C11.176402 25.607243 11.283032 25.542338 11.283032 25.412528C11.283032 25.24563 11.171766 25.078731 10.949235 24.911833S10.527353 24.661485 10.351182 24.661485ZM10.462448 27.276228C10.499536 27.146418 10.518081 27.058332 10.518081 27.011972C10.518081 26.984155 10.504172 26.909978 10.476356 26.789441C10.531989 26.789441 10.631665 26.814939 10.775382 26.865936S11.023412 26.965611 11.088317 27.011972C10.837969 27.141782 10.629346 27.229868 10.462448 27.276228ZM12.896384 23.465379C12.896384 23.057406 12.785118 22.642477 12.562587 22.220595S12.105935 21.406965 11.860223 21.045352S11.477747 20.400938 11.44993 20.196951H16.039638C16.076727 20.62347 16.095271 20.938722 16.095271 21.142709C16.095271 21.949385 15.981687 22.695797 15.75452 23.38193C15.527353 24.068068 15.25846 24.605852 14.947844 24.995282S14.345156 25.686057 14.071627 25.899315C13.798099 26.112574 13.582522 26.219204 13.424896 26.219204H12.590403C12.516226 26.256293 12.449003 26.423192 12.388734 26.7199C12.328466 27.016607 12.25197 27.202051 12.159249 27.276228C12.085072 27.035153 11.95758 26.863617 11.776773 26.761624C11.595967 26.659631 11.373435 26.571545 11.109179 26.497368S10.638619 26.33047 10.490264 26.219204C10.378999 25.839047 10.079972 25.185361 9.593185 24.258147S8.84446 22.742153 8.807371 22.491805C8.84446 22.352723 8.932545 22.227549 9.071627 22.116283S9.359064 21.949385 9.51669 21.949385C9.581595 21.949385 9.665045 21.986474 9.767038 22.060651S9.961752 22.171916 10.045202 22.171916C10.091562 22.171916 10.114743 22.1441 10.114743 22.088467L10.073018 21.963293C10.045202 21.879844 10.031293 21.833483 10.031293 21.824211C10.031293 21.740762 10.096198 21.699037 10.226008 21.699037C10.244553 21.699037 10.360454 21.8613 10.573713 22.185824C10.981687 22.816329 11.561196 23.293845 12.312239 23.61837C12.367872 23.989256 12.486092 24.327688 12.666898 24.633669S12.989106 25.092639 13.091099 25.092639C13.174548 25.092639 13.216273 25.032371 13.216273 24.911833C13.216273 24.846928 13.158322 24.649895 13.04242 24.320734S12.868567 23.766724 12.868567 23.646186C12.868567 23.61837 12.87784 23.558101 12.896384 23.465379ZM13.188456 26.803349C13.383171 26.803349 13.610338 26.752352 13.869958 26.650359C14.129579 26.548365 14.426287 26.355968 14.760083 26.073168S15.397542 25.438026 15.671071 25.016144S16.176402 24.019389 16.366481 23.291527C16.556561 22.563665 16.651599 21.750039 16.651599 20.850637C16.651599 20.414847 16.633055 20.025417 16.595967 19.682347H10.768428C10.796245 20.108866 10.886648 20.489023 11.039638 20.82282S11.357209 21.411601 11.53338 21.587772C11.709551 21.763943 11.878766 21.984155 12.041029 22.248411S12.302967 22.797786 12.340056 23.103766C11.978442 22.94614 11.670143 22.753742 11.41516 22.526575S10.981687 22.093103 10.879694 21.90766S10.678025 21.562274 10.580668 21.427827C10.48331 21.293381 10.388271 21.226158 10.295549 21.226158C10.137924 21.226158 9.998841 21.263247 9.878303 21.337424S9.692861 21.504322 9.683588 21.615588C9.590867 21.569227 9.498146 21.546047 9.405424 21.546047C8.969634 21.546047 8.617292 21.824211 8.348401 22.380539C8.404033 22.73288 8.710014 23.495514 9.266342 24.668439S10.100834 26.599357 10.100834 26.942431C10.100834 26.988791 10.073018 27.248411 10.017385 27.72129C10.592257 27.72129 11.106861 27.563665 11.561196 27.248411C11.811544 27.684201 12.020167 27.902097 12.187065 27.902097C12.409597 27.781559 12.569541 27.647114 12.666898 27.498759S12.859295 27.109329 12.952017 26.775532C13.044738 26.794077 13.123551 26.803349 13.188456 26.803349Z" fill="#da0a0a" />
<path d="M23.576271 4.342567Q23.635593 4.342567 23.65678 4.270533Q23.661017 4.257821 23.661017 4.232397Q23.661017 4.18155 23.614407 4.164601Q23.402542 4.075618 23.300847 3.910363T23.169492 3.501465T23.139831 2.842567V1.351041Q23.144068 1.245109 23.158898 1.179431T23.233051 1.069262T23.415254 1.02477H23.440678Q23.483051 1.02477 23.502119 1.00994T23.525424 0.935787Q23.525424 0.897651 23.504237 0.870109T23.449153 0.842567Q23.177966 0.855279 22.944915 0.855279Q22.686441 0.855279 22.415254 0.842567Q22.377119 0.842567 22.358051 0.870109T22.338983 0.935787Q22.34322 0.999346 22.366525 1.012058T22.449153 1.02477Q22.572034 1.02477 22.631356 1.069262T22.705508 1.179431T22.724576 1.351041V2.986634Q22.724576 3.533245 22.917373 3.882821T23.559322 4.342567H23.576271Z" fill="#da0a0a" />
<path d="M23.003651 5.298611C22.945236 5.41544 22.804068 5.625367 22.580146 5.928392C22.356224 6.231417 22.176111 6.458383 22.039812 6.609286C22.210188 6.804 22.393341 7.035226 22.589273 7.302957C22.785205 7.57069 22.923331 7.777575 23.003651 7.923611C23.183762 7.602332 23.502609 7.164223 23.960188 6.609286C23.490437 6.04218 23.171592 5.605287 23.003651 5.298611Z" fill="#da0a0a" />
<path d="M1.423729 30.657433Q1.364407 30.657433 1.34322 30.729467Q1.338983 30.742179 1.338983 30.767603Q1.338983 30.81845 1.385593 30.835399Q1.597458 30.924382 1.699153 31.089637T1.830508 31.498535T1.860169 32.157433V33.648959Q1.855932 33.754891 1.841102 33.820569T1.766949 33.930738T1.584746 33.97523H1.559322Q1.516949 33.97523 1.497881 33.99006T1.474576 34.064213Q1.474576 34.102349 1.495763 34.129891T1.550847 34.157433Q1.822034 34.144721 2.055085 34.144721Q2.313559 34.144721 2.584746 34.157433Q2.622881 34.157433 2.641949 34.129891T2.661017 34.064213Q2.65678 34.000654 2.633475 33.987942T2.550847 33.97523Q2.427966 33.97523 2.368644 33.930738T2.294492 33.820569T2.275424 33.648959V32.013366Q2.275424 31.466755 2.082627 31.117179T1.440678 30.657433H1.423729Z" fill="#da0a0a" />
<path d="M1.996349 29.701389C2.054764 29.58456 2.195932 29.374633 2.419854 29.071608C2.643776 28.768583 2.823889 28.541617 2.960188 28.390714C2.789812 28.196 2.606659 27.964774 2.410727 27.697043C2.214795 27.42931 2.076669 27.222425 1.996349 27.076389C1.816238 27.397668 1.497391 27.835777 1.039812 28.390714C1.509563 28.95782 1.828408 29.394713 1.996349 29.701389Z" fill="#da0a0a" />
</svg>
