<svg width="150.000000" height="210.000000" id="card-webdiamond6">
<radialGradient id="card-webwhitegradient" cx="75.0" cy="105.0" r="150" gradientTransform="matrix(1 0 0 1 0 -.25)" gradientUnits="userSpaceOnUse">
<stop stop-color="#FDFAF4" offset=".15"/>
<stop stop-color="#FDF9F2" offset=".35"/>
<stop stop-color="#FCF7F1" offset=".5"/>
<stop stop-color="#FDFDF8" offset=".75"/>
<stop stop-color="#FFFDFA" offset="1"/>
</radialGradient>
<rect x="0" y="0" rx="7.5" ry="7.5" width="150" height="210.0" stroke="rgba(1,1,1,0.333)" fill="url(#card-webwhitegradient)" />
<path d="M45.041725 20.0C44.374131 21.335188 42.760777 23.734353 40.201669 27.197497C37.642561 30.66064 35.584131 33.254534 34.026426 34.979138C35.973576 37.204449 38.066758 39.847024 40.305981 42.906815C42.545203 45.966619 44.123783 48.331015 45.041725 50.0C47.100138 46.328234 50.744103 41.32128 55.973574 34.979138C50.604993 28.497928 46.961057 23.504868 45.041725 20.0Z" fill="#da0a0a" />
<path d="M44.958275 190.0C45.625869 188.664812 47.239223 186.265647 49.798331 182.802503C52.357439 179.33936 54.415869 176.745466 55.973574 175.020862C54.026424 172.795551 51.933242 170.152976 49.694019 167.093185C47.454797 164.033381 45.876217 161.668985 44.958275 160.0C42.899862 163.671766 39.255897 168.67872 34.026426 175.020862C39.395007 181.502072 43.038943 186.495132 44.958275 190.0Z" fill="#da0a0a" />
<path d="M45.041725 90.0C44.374131 91.335188 42.760777 93.734353 40.201669 97.197497C37.642561 100.66064 35.584131 103.254534 34.026426 104.979138C35.973576 107.204449 38.066758 109.847024 40.305981 112.906815C42.545203 115.966619 44.123783 118.331015 45.041725 120.0C47.100138 116.328234 50.744103 111.32128 55.973574 104.979138C50.604993 98.497928 46.961057 93.504868 45.041725 90.0Z" fill="#da0a0a" />
<path d="M105.041725 20.0C104.374131 21.335188 102.760777 23.734353 100.201669 27.197497C97.642561 30.66064 95.584131 33.254534 94.026426 34.979138C95.973576 37.204449 98.066758 39.847024 100.305981 42.906815C102.545203 45.966619 104.123783 48.331015 105.041725 50.0C107.100138 46.328234 110.744103 41.32128 115.973574 34.979138C110.604993 28.497928 106.961057 23.504868 105.041725 20.0Z" fill="#da0a0a" />
<path d="M104.958275 190.0C105.625869 188.664812 107.239223 186.265647 109.798331 182.802503C112.357439 179.33936 114.415869 176.745466 115.973574 175.020862C114.026424 172.795551 111.933242 170.152976 109.694019 167.093185C107.454797 164.033381 105.876217 161.668985 104.958275 160.0C102.899862 163.671766 99.255897 168.67872 94.026426 175.020862C99.395007 181.502072 103.038943 186.495132 104.958275 190.0Z" fill="#da0a0a" />
<path d="M105.041725 90.0C104.374131 91.335188 102.760777 93.734353 100.201669 97.197497C97.642561 100.66064 95.584131 103.254534 94.026426 104.979138C95.973576 107.204449 98.066758 109.847024 100.305981 112.906815C102.545203 115.966619 104.123783 118.331015 105.041725 120.0C107.100138 116.328234 110.744103 111.32128 115.973574 104.979138C110.604993 98.497928 106.961057 93.504868 105.041725 90.0Z" fill="#da0a0a" />
<path d="M143.696203 23.814894Q145.841772 21.574387 145.841772 17.70097Q145.841772 14.62502 144.379747 11.966792T140.259494 7.504767T134.183544 5.093375Q133.993671 5.0554 133.613924 5.0554Q132.85443 5.0554 132.85443 5.738944Q132.85443 6.346539 133.537975 6.536413Q140.487342 8.70097 141.816456 14.321223Q140.563291 13.48578 139.329114 13.144008T136.765823 12.802235Q134.943038 12.802235 133.424051 13.618691T131.031646 15.859197T130.158228 19.106033Q130.158228 21.156666 131.259494 22.732615T134.14557 25.181982T137.943038 26.0554Q141.550633 26.0554 143.696203 23.814894ZM134.981013 23.34021Q133.803797 21.84021 133.803797 19.447805Q133.803797 17.207299 134.981013 15.859197T138.056962 14.511096Q139.006329 14.511096 140.031646 14.98578T141.968354 16.257932Q142.196203 17.169324 142.196203 17.738944Q142.196203 19.257932 141.797468 20.890843T140.43038 23.681982T137.943038 24.84021Q136.158228 24.84021 134.981013 23.34021Z" fill="#da0a0a" />
<path d="M138.021905 31.791667C137.671419 32.49264 136.824408 33.752202 135.480876 35.570352C134.137344 37.388503 133.056669 38.750297 132.238873 39.655714C133.261127 40.824003 134.360048 42.211354 135.53564 43.817745C136.711232 45.424142 137.539986 46.66545 138.021905 47.541667C139.102572 45.613989 141.015654 42.985338 143.761127 39.655714C140.942621 36.253079 139.029555 33.631722 138.021905 31.791667Z" fill="#da0a0a" />
<path d="M6.303797 186.185106Q4.158228 188.425613 4.158228 192.29903Q4.158228 195.37498 5.620253 198.033208T9.740506 202.495233T15.816456 204.906625Q16.006329 204.9446 16.386076 204.9446Q17.14557 204.9446 17.14557 204.261056Q17.14557 203.653461 16.462025 203.463587Q9.512658 201.29903 8.183544 195.678777Q9.436709 196.51422 10.670886 196.855992T13.234177 197.197765Q15.056962 197.197765 16.575949 196.381309T18.968354 194.140803T19.841772 190.893967Q19.841772 188.843334 18.740506 187.267385T15.85443 184.818018T12.056962 183.9446Q8.449367 183.9446 6.303797 186.185106ZM15.018987 186.65979Q16.196203 188.15979 16.196203 190.552195Q16.196203 192.792701 15.018987 194.140803T11.943038 195.488904Q10.993671 195.488904 9.968354 195.01422T8.031646 193.742068Q7.803797 192.830676 7.803797 192.261056Q7.803797 190.742068 8.202532 189.109157T9.56962 186.318018T12.056962 185.15979Q13.841772 185.15979 15.018987 186.65979Z" fill="#da0a0a" />
<path d="M11.978095 178.208333C12.328581 177.50736 13.175592 176.247798 14.519124 174.429648C15.862656 172.611497 16.943331 171.249703 17.761127 170.344286C16.738873 169.175997 15.639952 167.788646 14.46436 166.182255C13.288768 164.575858 12.460014 163.33455 11.978095 162.458333C10.897428 164.386011 8.984346 167.014662 6.238873 170.344286C9.057379 173.746921 10.970445 176.368278 11.978095 178.208333Z" fill="#da0a0a" />
</svg>
