<svg width="25.000000" height="35.000000" id="card-lightback">
<rect x="0" y="0" rx="1.25" ry="1.25" width="25" height="35.0" stroke="rgba(1,1,1,0.333)" fill="#fffdfa" />
<rect x="0.625" y="0.875" rx="0.625" ry="0.625" width="23.75" height="33.25" stroke="#210126" fill="#210126" />
<rect x="1.875" y="2.625" rx="0.3125" ry="0.3125" width="21.25" height="29.75" stroke="#fffdfa" fill="#210126" />
<path d="M12.486577 12.627517C12.16443 10.998881 11.725952 9.826631 11.171141 9.110738C10.491052 8.251678 9.596196 7.822148 8.486577 7.822148C7.520134 7.822148 6.696867 8.162193 6.016779 8.842282C5.33669 9.52237 4.996644 10.345638 4.996644 11.312081C4.996644 11.61633 5.036913 11.911632 5.11745 12.197987S5.296421 12.739374 5.412752 12.963087S5.690156 13.410515 5.895973 13.634228S6.276287 14.041388 6.419463 14.184564S6.763981 14.488813 7.02349 14.667785S7.470918 14.972035 7.587248 15.043624S7.878075 15.213646 8.110738 15.338926S8.468679 15.535794 8.486577 15.553691C7.752797 15.446309 7.144295 15.392617 6.661074 15.392617C5.408277 15.392617 4.401565 15.71924 3.64094 16.372483S2.5 17.898209 2.5 18.989933C2.5 19.938478 2.840046 20.752797 3.520134 21.432886C4.200223 22.112974 5.014542 22.45302 5.963087 22.45302C6.607383 22.45302 7.220357 22.296421 7.802013 21.983221C8.38367 21.670021 9.121925 21.09284 10.016779 20.251678C9.354585 21.71924 9.02349 22.846757 9.02349 23.634228C9.02349 24.618569 9.363536 25.455256 10.043624 26.144295S11.54698 27.177852 12.513423 27.177852S14.298658 26.833334 14.969799 26.144295S15.97651 24.618569 15.97651 23.634228C15.97651 22.846757 15.645415 21.71924 14.983221 20.251678C15.86018 21.074945 16.59396 21.647651 17.184564 21.969799S18.392617 22.45302 19.036913 22.45302C19.985458 22.45302 20.799777 22.108502 21.479866 21.419463C22.159954 20.730424 22.5 19.920583 22.5 18.989933C22.5 17.898209 22.119686 17.025726 21.35906 16.372483S19.591723 15.392617 18.338926 15.392617C17.855705 15.392617 17.247203 15.446309 16.513423 15.553691L16.862416 15.365772C17.095078 15.240492 17.251678 15.151007 17.332215 15.097315S17.569351 14.940716 17.802013 14.788591S18.213646 14.502236 18.338926 14.385906S18.629753 14.11745 18.83557 13.92953S19.197987 13.558166 19.305369 13.379195S19.529083 13.003356 19.654362 12.788591S19.869128 12.341162 19.922819 12.090604S20.003356 11.580537 20.003356 11.312081C20.003356 10.345638 19.66331 9.52237 18.983221 8.842282C18.303133 8.162193 17.479866 7.822148 16.513423 7.822148C14.491052 7.822148 13.166658 9.352349 12.540268 12.412752C12.504474 12.520134 12.486577 12.591723 12.486577 12.627517ZM11.869128 20.385906L12.244966 22.936242C12.262864 23.168904 12.343401 23.285235 12.486577 23.285235C12.647651 23.285235 12.737136 23.168904 12.755034 22.936242L13.130872 20.385906L14.016779 20.036913C14.714765 21.057047 15.063758 22.032438 15.063758 22.963087C15.063758 23.822148 14.822148 24.529082 14.338926 25.083893S13.247203 25.916107 12.513423 25.916107C11.761745 25.916107 11.144295 25.638703 10.661074 25.083893S9.936242 23.822148 9.936242 22.963087C9.936242 22.050336 10.285235 21.074945 10.983221 20.036913ZM15.063758 19.285235L15.681208 18.533557L18.204698 18.963087L18.312081 18.989933H18.365772C18.544743 18.989933 18.634228 18.918344 18.634228 18.775168C18.634228 18.649888 18.544743 18.551454 18.365772 18.479866L16.057047 17.325503L16.003356 16.385906C16.683444 16.171141 17.247203 16.063758 17.694631 16.063758C18.696867 16.063758 19.538032 16.33669 20.218121 16.88255S21.238255 18.104027 21.238255 18.909396C21.238255 19.589485 20.99217 20.171141 20.5 20.654362S19.412752 21.379195 18.714765 21.379195C17.372483 21.379195 16.155482 20.681208 15.063758 19.285235ZM13.157718 13.379195C13.175615 12.090604 13.497764 11.043624 14.124161 10.238255S15.502236 9.030201 16.379195 9.030201C17.059283 9.030201 17.64094 9.271812 18.124161 9.755034S18.848993 10.819911 18.848993 11.5C18.848993 12.019015 18.728188 12.497764 18.486577 12.936242S17.931766 13.741611 17.54698 14.036913S16.817672 14.564878 16.513423 14.734899S15.904921 15.043624 15.600671 15.151007L15.090604 14.345638L16.271812 12.063758C16.343401 11.938479 16.379195 11.857942 16.379195 11.822148C16.379195 11.678971 16.307606 11.607383 16.16443 11.607383C16.074944 11.607383 15.97651 11.661074 15.869128 11.768456L14.07047 13.620805ZM9.936242 19.285235C8.862416 20.681208 7.645415 21.379195 6.285235 21.379195C5.587248 21.379195 4.987697 21.137584 4.486577 20.654362S3.734899 19.589485 3.734899 18.909396C3.734899 18.104027 4.074945 17.428411 4.755034 16.88255C5.435122 16.33669 6.285235 16.063758 7.305369 16.063758C7.752797 16.063758 8.316556 16.171141 8.996644 16.385906L8.942953 17.325503L6.634228 18.479866C6.455257 18.551454 6.365772 18.649888 6.365772 18.775168C6.365772 18.918344 6.455257 18.989933 6.634228 18.989933C6.652125 18.989933 6.705817 18.980984 6.795302 18.963087L9.318792 18.533557ZM9.399329 15.151007C9.112974 15.043624 8.826623 14.918344 8.540268 14.775168C8.253914 14.631991 7.909396 14.412752 7.506711 14.11745S6.777404 13.446309 6.526846 12.989933S6.151007 12.036913 6.151007 11.5C6.151007 10.819911 6.392617 10.238255 6.875839 9.755034S7.940717 9.030201 8.620805 9.030201C9.533557 9.030201 10.294183 9.423938 10.902685 10.211409S11.824384 12.054811 11.842282 13.379195L10.92953 13.620805L9.130872 11.768456C8.987696 11.661074 8.889262 11.607383 8.83557 11.607383C8.692394 11.607383 8.620805 11.678971 8.620805 11.822148C8.620805 11.857942 8.656599 11.938479 8.728188 12.063758L9.963087 14.533557Z" fill="#fffdfa" />
</svg>
