<svg width="25.000000" height="35.000000" id="card-lightdiamond4">
<rect x="0" y="0" rx="1.25" ry="1.25" width="25" height="35.0" stroke="rgba(1,1,1,0.333)" fill="#fffdfa" />
<path d="M7.506954 3.333333C7.395688 3.555865 7.126796 3.955726 6.700278 4.532916C6.27376 5.110107 5.930688 5.542422 5.671071 5.829856C5.995596 6.200742 6.34446 6.641171 6.717663 7.151136C7.090867 7.661103 7.353964 8.055169 7.506954 8.333333C7.850023 7.721372 8.45735 6.88688 9.328929 5.829856C8.434166 4.749655 7.826843 3.917478 7.506954 3.333333Z" fill="#da0a0a" />
<path d="M7.493046 31.666667C7.604312 31.444135 7.873204 31.044274 8.299722 30.467084C8.72624 29.889893 9.069312 29.457578 9.328929 29.170144C9.004404 28.799258 8.65554 28.358829 8.282337 27.848864C7.909133 27.338897 7.646036 26.944831 7.493046 26.666667C7.149977 27.278628 6.54265 28.11312 5.671071 29.170144C6.565834 30.250345 7.173157 31.082522 7.493046 31.666667Z" fill="#da0a0a" />
<path d="M17.506954 3.333333C17.395688 3.555865 17.126796 3.955726 16.700278 4.532916C16.27376 5.110107 15.930688 5.542422 15.671071 5.829856C15.995596 6.200742 16.34446 6.641171 16.717663 7.151136C17.090867 7.661103 17.353964 8.055169 17.506954 8.333333C17.850023 7.721372 18.45735 6.88688 19.328929 5.829856C18.434166 4.749655 17.826843 3.917478 17.506954 3.333333Z" fill="#da0a0a" />
<path d="M17.493046 31.666667C17.604312 31.444135 17.873204 31.044274 18.299722 30.467084C18.72624 29.889893 19.069312 29.457578 19.328929 29.170144C19.004404 28.799258 18.65554 28.358829 18.282337 27.848864C17.909133 27.338897 17.646036 26.944831 17.493046 26.666667C17.149977 27.278628 16.54265 28.11312 15.671071 29.170144C16.565834 30.250345 17.173157 31.082522 17.493046 31.666667Z" fill="#da0a0a" />
<path d="M22.599359 4.310515Q22.682692 4.278464 22.689103 4.220772V3.240003H24.221154Q24.323718 3.240003 24.375 3.1759T24.426282 3.015644Q24.426282 2.93231 24.38141 2.874618L22.580128 0.906669Q22.516026 0.842567 22.38141 0.842567Q22.278846 0.842567 22.208333 0.897054T22.13141 1.066926V2.9259H21.746795Q21.657051 2.9259 21.61859 2.948336T21.573718 3.079746Q21.573718 3.150259 21.602564 3.195131T21.695513 3.240003H22.13141V4.220772Q22.13141 4.278464 22.214744 4.310515T22.407051 4.342567T22.599359 4.310515ZM24.054487 2.9259H22.689103V1.406669Z" fill="#da0a0a" />
<path d="M23.003651 5.298611C22.945236 5.41544 22.804068 5.625367 22.580146 5.928392C22.356224 6.231417 22.176111 6.458383 22.039812 6.609286C22.210188 6.804 22.393341 7.035226 22.589273 7.302957C22.785205 7.57069 22.923331 7.777575 23.003651 7.923611C23.183762 7.602332 23.502609 7.164223 23.960188 6.609286C23.490437 6.04218 23.171592 5.605287 23.003651 5.298611Z" fill="#da0a0a" />
<path d="M2.400641 30.689485Q2.317308 30.721536 2.310897 30.779228V31.759997H0.778846Q0.676282 31.759997 0.625 31.8241T0.573718 31.984356Q0.573718 32.06769 0.61859 32.125382L2.419872 34.093331Q2.483974 34.157433 2.61859 34.157433Q2.721154 34.157433 2.791667 34.102946T2.86859 33.933074V32.0741H3.253205Q3.342949 32.0741 3.38141 32.051664T3.426282 31.920254Q3.426282 31.849741 3.397436 31.804869T3.304487 31.759997H2.86859V30.779228Q2.86859 30.721536 2.785256 30.689485T2.592949 30.657433T2.400641 30.689485ZM0.945513 32.0741H2.310897V33.593331Z" fill="#da0a0a" />
<path d="M1.996349 29.701389C2.054764 29.58456 2.195932 29.374633 2.419854 29.071608C2.643776 28.768583 2.823889 28.541617 2.960188 28.390714C2.789812 28.196 2.606659 27.964774 2.410727 27.697043C2.214795 27.42931 2.076669 27.222425 1.996349 27.076389C1.816238 27.397668 1.497391 27.835777 1.039812 28.390714C1.509563 28.95782 1.828408 29.394713 1.996349 29.701389Z" fill="#da0a0a" />
</svg>
