<svg width="25.000000" height="35.000000" id="card-lightclub4">
<rect x="0" y="0" rx="1.25" ry="1.25" width="25" height="35.0" stroke="rgba(1,1,1,0.333)" fill="#fffdfa" />
<path d="M7.40085 6.254721C7.396128 6.396364 7.390227 6.51086 7.383144 6.598206C7.376062 6.685552 7.358357 6.796506 7.330028 6.931067S7.267469 7.176582 7.227337 7.263928S7.127006 7.449245 7.046742 7.557838S6.872049 7.756138 6.763456 7.826959S6.517941 7.966242 6.352691 8.032342S5.998584 8.150378 5.786119 8.188149V8.329792H9.213881V8.188149C9.001416 8.150378 8.812559 8.097262 8.647309 8.028801S8.343957 7.890699 8.233003 7.819877S8.02762 7.658168 7.949717 7.547214S7.811615 7.338291 7.769122 7.253305S7.692399 7.057365 7.666431 6.920444S7.623938 6.673749 7.616856 6.591124C7.609773 6.508498 7.603872 6.396364 7.59915 6.254721C7.712465 6.462464 7.804533 6.608829 7.875354 6.693815C8.002833 6.854344 8.159821 6.981823 8.346317 7.076251C8.532814 7.17068 8.71577 7.217894 8.895184 7.217894C9.197356 7.217894 9.457035 7.10576 9.674221 6.881492S10.0 6.386922 10.0 6.070585C10.0 5.763692 9.90203 5.501653 9.706091 5.284466S9.272899 4.958687 8.994334 4.958687C8.899906 4.958687 8.812559 4.971671 8.732295 4.997639S8.571766 5.056657 8.491501 5.096789L8.342776 5.171152C8.526912 4.906752 8.61898 4.656515 8.61898 4.420444C8.61898 4.122993 8.509207 3.868036 8.28966 3.655571S7.806893 3.336874 7.5 3.336874S6.929887 3.443107 6.71034 3.655571S6.38102 4.122993 6.38102 4.420444C6.38102 4.656515 6.473088 4.906752 6.657224 5.171152C6.624174 5.156988 6.57814 5.135741 6.519122 5.107413S6.416431 5.057838 6.388102 5.043673S6.323182 5.015345 6.278329 5.00118S6.189802 4.976393 6.147309 4.969311S6.057601 4.958687 6.005666 4.958687C5.727101 4.958687 5.489849 5.06728 5.293909 5.284466S5.0 5.763692 5.0 6.070585C5.0 6.386922 5.108593 6.657224 5.325779 6.881492S5.802644 7.217894 6.104816 7.217894C6.624174 7.217894 7.056183 6.896837 7.40085 6.254721Z" fill="#010101" />
<path d="M7.59915 28.745279C7.603872 28.603636 7.609773 28.48914 7.616856 28.401794C7.623938 28.314448 7.641643 28.203494 7.669972 28.068933S7.732531 27.823418 7.772663 27.736072S7.872994 27.550755 7.953258 27.442162S8.127951 27.243862 8.236544 27.173041S8.482059 27.033758 8.647309 26.967658S9.001416 26.849622 9.213881 26.811851V26.670208H5.786119V26.811851C5.998584 26.849622 6.187441 26.902738 6.352691 26.971199S6.656043 27.109301 6.766997 27.180123S6.97238 27.341832 7.050283 27.452786S7.188385 27.661709 7.230878 27.746695S7.307601 27.942635 7.333569 28.079556S7.376062 28.326251 7.383144 28.408876C7.390227 28.491502 7.396128 28.603636 7.40085 28.745279C7.287535 28.537536 7.195467 28.391171 7.124646 28.306185C6.997167 28.145656 6.840179 28.018177 6.653683 27.923749C6.467186 27.82932 6.28423 27.782106 6.104816 27.782106C5.802644 27.782106 5.542965 27.89424 5.325779 28.118508S5.0 28.613078 5.0 28.929415C5.0 29.236308 5.09797 29.498347 5.293909 29.715534S5.727101 30.041313 6.005666 30.041313C6.100094 30.041313 6.187441 30.028329 6.267705 30.002361S6.428234 29.943343 6.508499 29.903211L6.657224 29.828848C6.473088 30.093248 6.38102 30.343485 6.38102 30.579556C6.38102 30.877007 6.490793 31.131964 6.71034 31.344429S7.193107 31.663126 7.5 31.663126S8.070113 31.556893 8.28966 31.344429S8.61898 30.877007 8.61898 30.579556C8.61898 30.343485 8.526912 30.093248 8.342776 29.828848C8.375826 29.843012 8.42186 29.864259 8.480878 29.892587S8.583569 29.942162 8.611898 29.956327S8.676818 29.984655 8.721671 29.99882S8.810198 30.023607 8.852691 30.030689S8.942399 30.041313 8.994334 30.041313C9.272899 30.041313 9.510151 29.93272 9.706091 29.715534S10.0 29.236308 10.0 28.929415C10.0 28.613078 9.891407 28.342776 9.674221 28.118508S9.197356 27.782106 8.895184 27.782106C8.375826 27.782106 7.943817 28.103163 7.59915 28.745279Z" fill="#010101" />
<path d="M17.40085 6.254721C17.396128 6.396364 17.390227 6.51086 17.383144 6.598206C17.376062 6.685552 17.358357 6.796506 17.330028 6.931067S17.267469 7.176582 17.227337 7.263928S17.127006 7.449245 17.046742 7.557838S16.872049 7.756138 16.763456 7.826959S16.517941 7.966242 16.352691 8.032342S15.998584 8.150378 15.786119 8.188149V8.329792H19.213881V8.188149C19.001416 8.150378 18.812559 8.097262 18.647309 8.028801S18.343957 7.890699 18.233003 7.819877S18.02762 7.658168 17.949717 7.547214S17.811615 7.338291 17.769122 7.253305S17.692399 7.057365 17.666431 6.920444S17.623938 6.673749 17.616856 6.591124C17.609773 6.508498 17.603872 6.396364 17.59915 6.254721C17.712465 6.462464 17.804533 6.608829 17.875354 6.693815C18.002833 6.854344 18.159821 6.981823 18.346317 7.076251C18.532814 7.17068 18.71577 7.217894 18.895184 7.217894C19.197356 7.217894 19.457035 7.10576 19.674221 6.881492S20.0 6.386922 20.0 6.070585C20.0 5.763692 19.90203 5.501653 19.706091 5.284466S19.272899 4.958687 18.994334 4.958687C18.899906 4.958687 18.812559 4.971671 18.732295 4.997639S18.571766 5.056657 18.491501 5.096789L18.342776 5.171152C18.526912 4.906752 18.61898 4.656515 18.61898 4.420444C18.61898 4.122993 18.509207 3.868036 18.28966 3.655571S17.806893 3.336874 17.5 3.336874S16.929887 3.443107 16.71034 3.655571S16.38102 4.122993 16.38102 4.420444C16.38102 4.656515 16.473088 4.906752 16.657224 5.171152C16.624174 5.156988 16.57814 5.135741 16.519122 5.107413S16.416431 5.057838 16.388102 5.043673S16.323182 5.015345 16.278329 5.00118S16.189802 4.976393 16.147309 4.969311S16.057601 4.958687 16.005666 4.958687C15.727101 4.958687 15.489849 5.06728 15.293909 5.284466S15.0 5.763692 15.0 6.070585C15.0 6.386922 15.108593 6.657224 15.325779 6.881492S15.802644 7.217894 16.104816 7.217894C16.624174 7.217894 17.056183 6.896837 17.40085 6.254721Z" fill="#010101" />
<path d="M17.59915 28.745279C17.603872 28.603636 17.609773 28.48914 17.616856 28.401794C17.623938 28.314448 17.641643 28.203494 17.669972 28.068933S17.732531 27.823418 17.772663 27.736072S17.872994 27.550755 17.953258 27.442162S18.127951 27.243862 18.236544 27.173041S18.482059 27.033758 18.647309 26.967658S19.001416 26.849622 19.213881 26.811851V26.670208H15.786119V26.811851C15.998584 26.849622 16.187441 26.902738 16.352691 26.971199S16.656043 27.109301 16.766997 27.180123S16.97238 27.341832 17.050283 27.452786S17.188385 27.661709 17.230878 27.746695S17.307601 27.942635 17.333569 28.079556S17.376062 28.326251 17.383144 28.408876C17.390227 28.491502 17.396128 28.603636 17.40085 28.745279C17.287535 28.537536 17.195467 28.391171 17.124646 28.306185C16.997167 28.145656 16.840179 28.018177 16.653683 27.923749C16.467186 27.82932 16.28423 27.782106 16.104816 27.782106C15.802644 27.782106 15.542965 27.89424 15.325779 28.118508S15.0 28.613078 15.0 28.929415C15.0 29.236308 15.09797 29.498347 15.293909 29.715534S15.727101 30.041313 16.005666 30.041313C16.100094 30.041313 16.187441 30.028329 16.267705 30.002361S16.428234 29.943343 16.508499 29.903211L16.657224 29.828848C16.473088 30.093248 16.38102 30.343485 16.38102 30.579556C16.38102 30.877007 16.490793 31.131964 16.71034 31.344429S17.193107 31.663126 17.5 31.663126S18.070113 31.556893 18.28966 31.344429S18.61898 30.877007 18.61898 30.579556C18.61898 30.343485 18.526912 30.093248 18.342776 29.828848C18.375826 29.843012 18.42186 29.864259 18.480878 29.892587S18.583569 29.942162 18.611898 29.956327S18.676818 29.984655 18.721671 29.99882S18.810198 30.023607 18.852691 30.030689S18.942399 30.041313 18.994334 30.041313C19.272899 30.041313 19.510151 29.93272 19.706091 29.715534S20.0 29.236308 20.0 28.929415C20.0 28.613078 19.891407 28.342776 19.674221 28.118508S19.197356 27.782106 18.895184 27.782106C18.375826 27.782106 17.943817 28.103163 17.59915 28.745279Z" fill="#010101" />
<path d="M22.599359 4.310515Q22.682692 4.278464 22.689103 4.220772V3.240003H24.221154Q24.323718 3.240003 24.375 3.1759T24.426282 3.015644Q24.426282 2.93231 24.38141 2.874618L22.580128 0.906669Q22.516026 0.842567 22.38141 0.842567Q22.278846 0.842567 22.208333 0.897054T22.13141 1.066926V2.9259H21.746795Q21.657051 2.9259 21.61859 2.948336T21.573718 3.079746Q21.573718 3.150259 21.602564 3.195131T21.695513 3.240003H22.13141V4.220772Q22.13141 4.278464 22.214744 4.310515T22.407051 4.342567T22.599359 4.310515ZM24.054487 2.9259H22.689103V1.406669Z" fill="#010101" />
<path d="M22.947946 6.83234C22.945467 6.906702 22.942369 6.966812 22.938651 7.012669C22.934933 7.058526 22.925637 7.116777 22.910765 7.187421S22.877921 7.316317 22.856852 7.362173S22.804178 7.459465 22.76204 7.516476S22.670326 7.620583 22.613314 7.657765S22.484419 7.730888 22.397663 7.765591S22.211756 7.82756 22.100212 7.847389V7.921752H23.899788V7.847389C23.788244 7.827559 23.689093 7.799674 23.602337 7.763732S23.443077 7.691228 23.384826 7.654047S23.277001 7.569149 23.236101 7.510899S23.163598 7.401214 23.141289 7.356596S23.101009 7.253728 23.087376 7.181844S23.065067 7.052329 23.061349 7.008951C23.057631 6.965573 23.054533 6.906702 23.052054 6.83234C23.111544 6.941405 23.15988 7.018246 23.197061 7.062864C23.263987 7.147142 23.346406 7.214068 23.444317 7.263643C23.542227 7.313218 23.638279 7.338006 23.732472 7.338006C23.891112 7.338006 24.027443 7.279135 24.141466 7.161394S24.3125 6.901745 24.3125 6.735668C24.3125 6.57455 24.261066 6.436979 24.158198 6.322956S23.930772 6.151922 23.784525 6.151922C23.734951 6.151922 23.689093 6.158739 23.646955 6.172372S23.562677 6.203356 23.520538 6.224426L23.442458 6.263466C23.539129 6.124656 23.587465 5.993282 23.587465 5.869344C23.587465 5.713183 23.529834 5.57933 23.414572 5.467786S23.161119 5.30047 23.0 5.30047S22.700691 5.356242 22.585428 5.467786S22.412535 5.713183 22.412535 5.869344C22.412535 5.993282 22.460871 6.124656 22.557542 6.263466C22.540191 6.25603 22.516023 6.244875 22.485039 6.230003S22.431126 6.203976 22.416254 6.19654S22.382171 6.181667 22.358623 6.174231S22.312146 6.161217 22.289837 6.157499S22.242741 6.151922 22.215475 6.151922C22.069228 6.151922 21.944671 6.208933 21.841802 6.322956S21.6875 6.57455 21.6875 6.735668C21.6875 6.901745 21.744511 7.043653 21.858534 7.161394S22.108888 7.338006 22.267528 7.338006C22.540191 7.338006 22.766996 7.16945 22.947946 6.83234Z" fill="#010101" />
<path d="M2.400641 30.689485Q2.317308 30.721536 2.310897 30.779228V31.759997H0.778846Q0.676282 31.759997 0.625 31.8241T0.573718 31.984356Q0.573718 32.06769 0.61859 32.125382L2.419872 34.093331Q2.483974 34.157433 2.61859 34.157433Q2.721154 34.157433 2.791667 34.102946T2.86859 33.933074V32.0741H3.253205Q3.342949 32.0741 3.38141 32.051664T3.426282 31.920254Q3.426282 31.849741 3.397436 31.804869T3.304487 31.759997H2.86859V30.779228Q2.86859 30.721536 2.785256 30.689485T2.592949 30.657433T2.400641 30.689485ZM0.945513 32.0741H2.310897V33.593331Z" fill="#010101" />
<path d="M2.052054 28.16766C2.054533 28.093298 2.057631 28.033188 2.061349 27.987331C2.065067 27.941474 2.074363 27.883223 2.089235 27.812579S2.122079 27.683683 2.143148 27.637827S2.195822 27.540535 2.23796 27.483524S2.329674 27.379417 2.386686 27.342235S2.515581 27.269112 2.602337 27.234409S2.788244 27.17244 2.899788 27.152611V27.078248H1.100212V27.152611C1.211756 27.172441 1.310907 27.200326 1.397663 27.236268S1.556923 27.308772 1.615174 27.345953S1.722999 27.430851 1.763899 27.489101S1.836402 27.598786 1.858711 27.643404S1.898991 27.746272 1.912624 27.818156S1.934933 27.947671 1.938651 27.991049C1.942369 28.034427 1.945467 28.093298 1.947946 28.16766C1.888456 28.058595 1.84012 27.981754 1.802939 27.937136C1.736013 27.852858 1.653594 27.785932 1.555683 27.736357C1.457773 27.686782 1.361721 27.661994 1.267528 27.661994C1.108888 27.661994 0.972557 27.720865 0.858534 27.838606S0.6875 28.098255 0.6875 28.264332C0.6875 28.42545 0.738934 28.563021 0.841802 28.677044S1.069228 28.848078 1.215475 28.848078C1.265049 28.848078 1.310907 28.841261 1.353045 28.827628S1.437323 28.796644 1.479462 28.775574L1.557542 28.736534C1.460871 28.875344 1.412535 29.006718 1.412535 29.130656C1.412535 29.286817 1.470166 29.42067 1.585428 29.532214S1.838881 29.69953 2.0 29.69953S2.299309 29.643758 2.414572 29.532214S2.587465 29.286817 2.587465 29.130656C2.587465 29.006718 2.539129 28.875344 2.442458 28.736534C2.459809 28.74397 2.483977 28.755125 2.514961 28.769997S2.568874 28.796024 2.583746 28.80346S2.617829 28.818333 2.641377 28.825769S2.687854 28.838783 2.710163 28.842501S2.757259 28.848078 2.784525 28.848078C2.930772 28.848078 3.055329 28.791067 3.158198 28.677044S3.3125 28.42545 3.3125 28.264332C3.3125 28.098255 3.255489 27.956347 3.141466 27.838606S2.891112 27.661994 2.732472 27.661994C2.459809 27.661994 2.233004 27.83055 2.052054 28.16766Z" fill="#010101" />
</svg>
