<svg width="500.000000" height="700.000000" id="card-realclub13">
<radialGradient id="card-realwhitegradient" cx="250.0" cy="350.0" r="500" gradientTransform="matrix(1 0 0 1 0 -.25)" gradientUnits="userSpaceOnUse">
<stop stop-color="#FDFAF4" offset=".15"/>
<stop stop-color="#FDF9F2" offset=".35"/>
<stop stop-color="#FCF7F1" offset=".5"/>
<stop stop-color="#FDFDF8" offset=".75"/>
<stop stop-color="#FFFDFA" offset="1"/>
</radialGradient>
<rect x="0" y="0" rx="25.0" ry="25.0" width="500" height="700.0" stroke="rgba(1,1,1,0.333)" fill="url(#card-realwhitegradient)" />
<rect x="100.0" y="70.0" width="300.0" height="560.0" stroke="#010101" fill="#fffdfa" />
<path d="M199.291785 185.628643C197.025496 185.628643 194.192635 186.148 190.793201 187.186717S183.569405 189.83072 179.320113 192.002581S171.482521 197.715527 168.555241 202.625811S164.164306 213.201816 164.164306 219.622978C164.164306 224.722128 165.06138 229.254706 166.855524 233.220711S170.868754 240.775017 173.512748 243.985584C176.156751 247.19615 178.84796 250.784451 181.586402 254.750456S186.779972 264.429408 188.951841 271.889267S192.398499 288.178218 192.776204 298.376519C193.153918 311.029975 212.228527 317.356689 250.0 317.356689C287.58272 317.356689 306.657224 311.029975 307.223796 298.376519C307.979227 285.15649 309.915014 274.297199 313.031161 265.798615S319.357875 251.53989 322.66289 248.518162S328.989603 241.624876 331.728045 236.903431S335.835694 226.421845 335.835694 219.622978C335.835694 213.012978 334.372048 207.252808 331.444759 202.342524S324.929178 193.891165 320.679887 191.719295S312.559008 187.989352 309.065156 187.045074S302.596799 185.628643 300.141643 185.628643C290.88762 185.628643 281.633626 189.311363 272.379603 196.676802C272.379603 187.800513 271.529745 181.520995 269.830028 177.838275S263.786601 170.047907 256.798867 165.515329V158.716462L268.413598 151.917595V141.719295H257.932011L254.249292 130.954422H245.750708L242.067989 141.719295H231.586402V151.917595L243.201133 158.716462V165.515329C236.213399 169.85904 231.869688 174.061136 230.169972 178.121561S227.620397 188.367085 227.620397 196.676802C225.165249 194.221655 221.246459 191.766519 215.864023 189.311363S204.957507 185.628643 199.291785 185.628643ZM250.0 221.889267C248.866856 219.811836 247.261567 217.167822 245.184136 213.957255S241.737479 208.527595 241.076487 207.300031S239.754484 204.183884 239.093484 201.634309S238.101983 196.11023 238.101983 192.710796C238.101983 181.568218 241.973569 175.996915 249.716714 175.996915C257.837592 175.996915 261.898017 181.568218 261.898017 192.710796C261.898017 196.11023 261.567516 199.084734 260.906516 201.634309S259.584513 206.119663 258.923513 207.441675S256.893295 210.982751 254.815864 214.098898S251.133144 219.811845 250.0 221.889267ZM199.575071 195.826944C208.829093 195.826944 218.366374 200.595584 228.186969 210.132893S243.578839 232.087567 244.90085 247.385017C244.90085 251.917595 227.620397 254.183884 193.05949 254.183884C192.681776 253.80617 190.509915 251.162156 186.543909 246.251873C182.577904 241.34159 179.556176 236.856207 177.478754 232.795782S174.362606 224.910995 174.362606 221.322694C174.362606 213.768388 176.770538 207.630541 181.586402 202.909097S192.398499 195.826944 199.575071 195.826944ZM198.15864 265.515329C203.635496 265.137615 209.537309 264.712686 215.864023 264.240541C222.190737 263.768397 226.628895 263.437898 229.17847 263.24904S234.513683 262.776895 237.535411 262.399182S242.917847 261.643751 244.617564 261.266037S248.111416 260.321751 250.0 259.56632C252.266289 260.510607 255.004731 261.313252 258.215297 261.974252S264.305949 263.060182 266.855524 263.24904S274.457025 263.768397 282.011331 264.240541S296.175637 265.137615 301.84136 265.515329C299.952785 272.691901 298.725212 280.623912 298.15864 289.311363C285.127479 285.15649 269.074504 283.079068 250.0 283.079068C230.547677 283.079068 214.494901 285.156499 201.84136 289.311363C201.274788 279.868502 200.047215 271.93649 198.15864 265.515329ZM300.424929 195.826944C307.223796 195.826944 313.125581 198.18766 318.130312 202.909097S325.637394 213.768388 325.637394 221.322694C325.637394 223.966697 324.881963 226.893997 323.371105 230.104564S320.349377 236.053573 318.838527 238.319862S315.155807 243.513431 312.322946 247.101731C309.490085 250.690031 307.695949 253.05074 306.94051 254.183884C272.379603 254.183884 255.09915 251.917595 255.09915 247.385017C256.421153 232.087567 261.945241 219.670201 271.671388 210.132893S290.982068 195.826944 300.424929 195.826944ZM249.716714 294.410513C276.156742 294.410513 289.376771 296.86566 289.376771 301.775952C289.376771 303.475669 284.844193 304.79768 275.779037 305.741958S258.120878 307.158388 250.0 307.158388C223.74881 307.158388 210.623229 305.364244 210.623229 301.775952C210.623229 296.865669 223.654391 294.410513 249.716714 294.410513Z" fill="#010101" />
<path d="M300.708215 514.371357C302.974504 514.371357 305.807365 513.852 309.206799 512.813283S316.430595 510.16928 320.679887 507.997419S328.517479 502.284473 331.444759 497.374189S335.835694 486.798184 335.835694 480.377022C335.835694 475.277872 334.93862 470.745294 333.144476 466.779289S329.131246 459.224983 326.487252 456.014416C323.843249 452.80385 321.15204 449.215549 318.413598 445.249544S313.220028 435.570592 311.048159 428.110733S307.601501 411.821782 307.223796 401.623481C306.846082 388.970025 287.771473 382.643311 250.0 382.643311C212.41728 382.643311 193.342776 388.970025 192.776204 401.623481C192.020773 414.84351 190.084986 425.702801 186.968839 434.201385S180.642125 448.46011 177.33711 451.481838S171.010397 458.375124 168.271955 463.096569S164.164306 473.578155 164.164306 480.377022C164.164306 486.987022 165.627952 492.747192 168.555241 497.657476S175.070822 506.108835 179.320113 508.280705S187.440992 512.010648 190.934844 512.954926S197.403201 514.371357 199.858357 514.371357C209.11238 514.371357 218.366374 510.688637 227.620397 503.323198C227.620397 512.199487 228.470255 518.479005 230.169972 522.161725S236.213399 529.952093 243.201133 534.484671V541.283538L231.586402 548.082405V558.280705H242.067989L245.750708 569.045578H254.249292L257.932011 558.280705H268.413598V548.082405L256.798867 541.283538V534.484671C263.786601 530.14096 268.130312 525.938864 269.830028 521.878439S272.379603 511.632915 272.379603 503.323198C274.834751 505.778345 278.753541 508.233481 284.135977 510.688637S295.042493 514.371357 300.708215 514.371357ZM250.0 478.110733C251.133144 480.188164 252.738433 482.832178 254.815864 486.042745S258.262521 491.472405 258.923513 492.699969S260.245516 495.816116 260.906516 498.365691S261.898017 503.88977 261.898017 507.289204C261.898017 518.431782 258.026431 524.003085 250.283286 524.003085C242.162408 524.003085 238.101983 518.431782 238.101983 507.289204C238.101983 503.88977 238.432484 500.915266 239.093484 498.365691S240.415487 493.880337 241.076487 492.558325S243.106705 489.017249 245.184136 485.901102S248.866856 480.188155 250.0 478.110733ZM300.424929 504.173056C291.170907 504.173056 281.633626 499.404416 271.813031 489.867107S256.421161 467.912433 255.09915 452.614983C255.09915 448.082405 272.379603 445.816116 306.94051 445.816116C307.318224 446.19383 309.490085 448.837844 313.456091 453.748127C317.422096 458.65841 320.443824 463.143793 322.521246 467.204218S325.637394 475.089005 325.637394 478.677306C325.637394 486.231612 323.229462 492.369459 318.413598 497.090903S307.601501 504.173056 300.424929 504.173056ZM301.84136 434.484671C296.364504 434.862385 290.462691 435.287314 284.135977 435.759459C277.809263 436.231603 273.371105 436.562102 270.82153 436.75096S265.486317 437.223105 262.464589 437.600818S257.082153 438.356249 255.382436 438.733963S251.888584 439.678249 250.0 440.43368C247.733711 439.489393 244.995269 438.686748 241.784703 438.025748S235.694051 436.939818 233.144476 436.75096S225.542975 436.231603 217.988669 435.759459S203.824363 434.862385 198.15864 434.484671C200.047215 427.308099 201.274788 419.376088 201.84136 410.688637C214.872521 414.84351 230.925496 416.920932 250.0 416.920932C269.452323 416.920932 285.505099 414.843501 298.15864 410.688637C298.725212 420.131498 299.952785 428.06351 301.84136 434.484671ZM199.575071 504.173056C192.776204 504.173056 186.874419 501.81234 181.869688 497.090903S174.362606 486.231612 174.362606 478.677306C174.362606 476.033303 175.118037 473.106003 176.628895 469.895436S179.650623 463.946427 181.161473 461.680138S184.844193 456.486569 187.677054 452.898269C190.509915 449.309969 192.304051 446.94926 193.05949 445.816116C227.620397 445.816116 244.90085 448.082405 244.90085 452.614983C243.578847 467.912433 238.054759 480.329799 228.328612 489.867107S209.017932 504.173056 199.575071 504.173056ZM250.283286 405.589487C223.843258 405.589487 210.623229 403.13434 210.623229 398.224048C210.623229 396.524331 215.155807 395.20232 224.220963 394.258042S241.879122 392.841612 250.0 392.841612C276.25119 392.841612 289.376771 394.635756 289.376771 398.224048C289.376771 403.134331 276.345609 405.589487 250.283286 405.589487Z" fill="#010101" />
<path d="M494.520548 85.093342Q495.0 84.400801 495.0 83.441896Q494.893455 81.843723 494.360731 81.524088T492.336377 81.204454Q489.246575 81.204454 487.754947 80.085732T485.890411 77.315565T485.410959 73.000496V30.70217Q485.517504 28.038548 485.890411 26.387102T487.754947 23.616935T492.336377 22.498213H492.975647Q494.041096 22.498213 494.467275 22.125306T495.0 20.26077Q495.0 19.301866 494.520548 18.609324T493.082192 17.916782Q486.156773 18.236417 480.509893 18.236417Q474.117199 18.236417 467.191781 17.916782Q466.232877 17.916782 465.753425 18.609324T465.273973 20.26077Q465.380518 21.858944 465.913242 22.178578T467.937595 22.498213Q471.027397 22.498213 472.519026 23.616935T474.383562 26.387102T474.863014 30.70217V49.986798Q473.158295 49.667163 471.027397 48.175534T465.806697 44.020283Q459.840183 38.479948 450.783866 27.718913Q448.866058 25.588015 448.866058 24.309476Q448.866058 22.711303 451.74277 22.604758Q452.488584 22.498213 452.754947 22.018761T453.234399 20.367315Q453.234399 19.408411 452.701674 18.662597T451.316591 17.916782Q447.587519 18.236417 439.596651 18.236417Q437.039574 18.236417 432.138508 18.023327L429.901065 17.916782Q428.942161 17.916782 428.409437 18.609324T427.876712 20.367315Q427.983257 21.858944 428.515982 22.231851T430.00761 22.604758Q434.269406 22.391668 438.05175 23.989842T445.989346 29.743266L463.249619 47.749355Q459.520548 52.330785 455.578387 56.486037T446.09589 66.181623Q443.325723 68.95179 439.490107 73.000496Q438.318113 74.17249 437.891933 74.705215Q434.482496 78.114651 432.511416 79.499735T427.663623 81.204454Q427.450533 81.204454 426.704718 81.257726T425.479452 81.843723T425.0 83.441896Q425.0 84.400801 425.479452 85.093342T426.917808 85.785884Q428.196347 85.679339 430.00761 85.679339Q433.843227 85.46625 435.974125 85.46625H442.792998Q456.856925 69.804149 467.937595 57.018761Q471.347032 53.0766 474.863014 52.756965V73.000496Q474.756469 75.664119 474.383562 77.315565T472.519026 80.085732T467.937595 81.204454H467.298326Q466.232877 81.204454 465.806697 81.577361T465.273973 83.441896Q465.273973 84.400801 465.753425 85.093342T467.191781 85.785884Q474.010654 85.46625 480.403349 85.46625Q486.156773 85.46625 493.082192 85.785884Q494.041096 85.785884 494.520548 85.093342Z" fill="#010101" />
<path d="M458.958924 136.646797C458.909348 138.134049 458.84738 139.336247 458.773017 140.253384C458.698654 141.17052 458.512748 142.335537 458.215297 143.748426S457.558428 146.326332 457.13704 147.243469S456.083567 149.189293 455.240793 150.329517S453.406513 152.41167 452.266289 153.155296S449.688383 154.617763 447.953258 155.311811S444.235127 156.551191 442.004249 156.947789V158.435041H477.995751V156.947789C475.764873 156.551188 473.781867 155.993471 472.046742 155.27463S468.861546 153.824559 467.69653 153.080933S465.540014 151.38299 464.722025 150.217973S463.271955 148.024276 462.825779 147.131925S462.020187 145.074557 461.747521 143.636882S461.301346 141.046587 461.226983 140.179021C461.15262 139.311455 461.090652 138.134049 461.041076 136.646797C462.230878 138.828098 463.197592 140.364928 463.941218 141.257279C465.279745 142.942834 466.928119 144.281361 468.886331 145.27286C470.844544 146.264359 472.765583 146.760112 474.649433 146.760112C477.82224 146.760112 480.548864 145.582706 482.82932 143.227888S486.25 138.034902 486.25 134.71337C486.25 131.490992 485.22132 128.739576 483.163952 126.45912S478.615437 123.03844 475.69051 123.03844C474.699011 123.03844 473.781867 123.174772 472.939093 123.447435S471.253539 124.067123 470.410765 124.488511L468.84915 125.269319C470.782578 122.493117 471.749292 119.865633 471.749292 117.386882C471.749292 114.263653 470.596671 111.586599 468.291431 109.355721S463.222377 106.009404 460.0 106.009404S454.01381 107.124843 451.708569 109.355721S448.250708 114.263653 448.250708 117.386882C448.250708 119.865633 449.217422 122.493117 451.15085 125.269319C450.803824 125.120593 450.320465 124.897506 449.700779 124.600055S448.622521 124.079517 448.325071 123.930792S447.643413 123.633341 447.17245 123.484616S446.242918 123.224347 445.796742 123.149984S444.854813 123.03844 444.30949 123.03844C441.384563 123.03844 438.893416 124.178665 436.836048 126.45912S433.75 131.490992 433.75 134.71337C433.75 138.034902 434.890224 140.87307 437.17068 143.227888S442.17776 146.760112 445.350567 146.760112C450.803822 146.760112 455.339919 143.389009 458.958924 136.646797Z" fill="#010101" />
<path d="M5.479452 614.906658Q5.0 615.599199 5.0 616.558104Q5.106545 618.156277 5.639269 618.475912T7.663623 618.795546Q10.753425 618.795546 12.245053 619.914268T14.109589 622.684435T14.589041 626.999504V669.29783Q14.482496 671.961452 14.109589 673.612898T12.245053 676.383065T7.663623 677.501787H7.024353Q5.958904 677.501787 5.532725 677.874694T5.0 679.73923Q5.0 680.698134 5.479452 681.390676T6.917808 682.083218Q13.843227 681.763583 19.490107 681.763583Q25.882801 681.763583 32.808219 682.083218Q33.767123 682.083218 34.246575 681.390676T34.726027 679.73923Q34.619482 678.141056 34.086758 677.821422T32.062405 677.501787Q28.972603 677.501787 27.480974 676.383065T25.616438 673.612898T25.136986 669.29783V650.013202Q26.841705 650.332837 28.972603 651.824466T34.193303 655.979717Q40.159817 661.520052 49.216134 672.281087Q51.133942 674.411985 51.133942 675.690524Q51.133942 677.288697 48.25723 677.395242Q47.511416 677.501787 47.245053 677.981239T46.765601 679.632685Q46.765601 680.591589 47.298326 681.337403T48.683409 682.083218Q52.412481 681.763583 60.403349 681.763583Q62.960426 681.763583 67.861492 681.976673L70.098935 682.083218Q71.057839 682.083218 71.590563 681.390676T72.123288 679.632685Q72.016743 678.141056 71.484018 677.768149T69.99239 677.395242Q65.730594 677.608332 61.94825 676.010158T54.010654 670.256734L36.750381 652.250645Q40.479452 647.669215 44.421613 643.513963T53.90411 633.818377Q56.674277 631.04821 60.509893 626.999504Q61.681887 625.82751 62.108067 625.294785Q65.517504 621.885349 67.488584 620.500265T72.336377 618.795546Q72.549467 618.795546 73.295282 618.742274T74.520548 618.156277T75.0 616.558104Q75.0 615.599199 74.520548 614.906658T73.082192 614.214116Q71.803653 614.320661 69.99239 614.320661Q66.156773 614.53375 64.025875 614.53375H57.207002Q43.143075 630.195851 32.062405 642.981239Q28.652968 646.9234 25.136986 647.243035V626.999504Q25.243531 624.335881 25.616438 622.684435T27.480974 619.914268T32.062405 618.795546H32.701674Q33.767123 618.795546 34.193303 618.422639T34.726027 616.558104Q34.726027 615.599199 34.246575 614.906658T32.808219 614.214116Q25.989346 614.53375 19.596651 614.53375Q13.843227 614.53375 6.917808 614.214116Q5.958904 614.214116 5.479452 614.906658Z" fill="#010101" />
<path d="M41.041076 563.353203C41.090652 561.865951 41.15262 560.663753 41.226983 559.746616C41.301346 558.82948 41.487252 557.664463 41.784703 556.251574S42.441572 553.673668 42.86296 552.756531S43.916433 550.810707 44.759207 549.670483S46.593487 547.58833 47.733711 546.844704S50.311617 545.382237 52.046742 544.688189S55.764873 543.448809 57.995751 543.052211V541.564959H22.004249V543.052211C24.235127 543.448812 26.218133 544.006529 27.953258 544.72537S31.138454 546.175441 32.30347 546.919067S34.459986 548.61701 35.277975 549.782027S36.728045 551.975724 37.174221 552.868075S37.979813 554.925443 38.252479 556.363118S38.698654 558.953413 38.773017 559.820979C38.84738 560.688545 38.909348 561.865951 38.958924 563.353203C37.769122 561.171902 36.802408 559.635072 36.058782 558.742721C34.720255 557.057166 33.071881 555.718639 31.113669 554.72714C29.155456 553.735641 27.234417 553.239888 25.350567 553.239888C22.17776 553.239888 19.451136 554.417294 17.17068 556.772112S13.75 561.965098 13.75 565.28663C13.75 568.509008 14.77868 571.260424 16.836048 573.54088S21.384563 576.96156 24.30949 576.96156C25.300989 576.96156 26.218133 576.825228 27.060907 576.552565S28.746461 575.932877 29.589235 575.511489L31.15085 574.730681C29.217422 577.506883 28.250708 580.134367 28.250708 582.613118C28.250708 585.736347 29.403329 588.413401 31.708569 590.644279S36.777623 593.990596 40.0 593.990596S45.98619 592.875157 48.291431 590.644279S51.749292 585.736347 51.749292 582.613118C51.749292 580.134367 50.782578 577.506883 48.84915 574.730681C49.196176 574.879407 49.679535 575.102494 50.299221 575.399945S51.377479 575.920483 51.674929 576.069208S52.356587 576.366659 52.82755 576.515384S53.757082 576.775653 54.203258 576.850016S55.145187 576.96156 55.69051 576.96156C58.615437 576.96156 61.106584 575.821335 63.163952 573.54088S66.25 568.509008 66.25 565.28663C66.25 561.965098 65.109776 559.12693 62.82932 556.772112S57.82224 553.239888 54.649433 553.239888C49.196178 553.239888 44.660081 556.610991 41.041076 563.353203Z" fill="#010101" />
</svg>
