<svg width="25.000000" height="35.000000" id="card-lightdiamond1">
<rect x="0" y="0" rx="1.25" ry="1.25" width="25" height="35.0" stroke="rgba(1,1,1,0.333)" fill="#fffdfa" />
<path d="M12.5 12.5L10.455494 14.739221L12.5 16.811544L14.572323 14.739221ZM7.534771 17.465229L9.760083 19.593185L11.832406 17.465229L9.760083 15.392907ZM12.5 22.5L14.572323 20.219054L12.5 18.132823L10.399861 20.219054ZM17.465229 17.465229L15.253825 15.392907L13.181502 17.465229L15.253825 19.523644Z" fill="#da0a0a" />
<path d="M24.726528 4.227813Q24.75 4.193908 24.75 4.146963Q24.744784 4.068722 24.718703 4.053073T24.65611 4.037425H24.609165Q24.452683 4.037425 24.379657 3.956576T24.262295 3.774012T24.20231 3.635786L23.289493 1.476322Q23.258197 1.398081 23.258197 1.351136Q23.258197 1.257246 23.331222 1.215517T23.53465 1.147708Q23.623323 1.13206 23.644188 1.116412T23.665052 1.027738Q23.665052 0.965145 23.631148 0.944281T23.524218 0.923416Q23.263413 0.923416 23.109538 0.962537T22.840909 1.11902T22.627049 1.476322L21.750745 3.635786Q21.672504 3.833997 21.599478 3.933103T21.380402 4.037425H21.349106Q21.296945 4.037425 21.27608 4.055681T21.25 4.146963Q21.25 4.193908 21.273472 4.227813T21.34389 4.261717Q21.67772 4.246069 21.91766 4.246069Q22.230626 4.246069 22.564456 4.261717Q22.611401 4.261717 22.634873 4.227813T22.658346 4.146963Q22.65313 4.073938 22.632265 4.055681T22.55924 4.037425Q22.381893 4.037425 22.308867 4.00352T22.235842 3.880942Q22.235842 3.813133 22.298435 3.635786L22.475782 3.20285H23.764158Q23.89456 3.526248 23.912817 3.578409T23.931073 3.635786Q23.993666 3.833997 23.993666 3.891374Q23.993666 3.980048 23.915425 4.008737T23.618107 4.037425H23.586811Q23.53465 4.037425 23.513785 4.055681T23.487705 4.146963Q23.487705 4.193908 23.511177 4.227813T23.581595 4.261717Q23.915425 4.246069 24.150149 4.246069Q24.317064 4.246069 24.65611 4.261717Q24.703055 4.261717 24.726528 4.227813ZM23.665052 2.978558H22.569672L23.096498 1.638021H23.112146Z" fill="#da0a0a" />
<path d="M23.003651 5.298611C22.945236 5.41544 22.804068 5.625367 22.580146 5.928392C22.356224 6.231417 22.176111 6.458383 22.039812 6.609286C22.210188 6.804 22.393341 7.035226 22.589273 7.302957C22.785205 7.57069 22.923331 7.777575 23.003651 7.923611C23.183762 7.602332 23.502609 7.164223 23.960188 6.609286C23.490437 6.04218 23.171592 5.605287 23.003651 5.298611Z" fill="#da0a0a" />
<path d="M0.273472 30.772187Q0.25 30.806092 0.25 30.853037Q0.255216 30.931278 0.281297 30.946927T0.34389 30.962575H0.390835Q0.547317 30.962575 0.620343 31.043424T0.737705 31.225988T0.79769 31.364214L1.710507 33.523678Q1.741803 33.601919 1.741803 33.648864Q1.741803 33.742754 1.668778 33.784483T1.46535 33.852292Q1.376677 33.86794 1.355812 33.883588T1.334948 33.972262Q1.334948 34.034855 1.368852 34.055719T1.475782 34.076584Q1.736587 34.076584 1.890462 34.037463T2.159091 33.88098T2.372951 33.523678L3.249255 31.364214Q3.327496 31.166003 3.400522 31.066897T3.619598 30.962575H3.650894Q3.703055 30.962575 3.72392 30.944319T3.75 30.853037Q3.75 30.806092 3.726528 30.772187T3.65611 30.738283Q3.32228 30.753931 3.08234 30.753931Q2.769374 30.753931 2.435544 30.738283Q2.388599 30.738283 2.365127 30.772187T2.341654 30.853037Q2.34687 30.926062 2.367735 30.944319T2.44076 30.962575Q2.618107 30.962575 2.691133 30.99648T2.764158 31.119058Q2.764158 31.186867 2.701565 31.364214L2.524218 31.79715H1.235842Q1.10544 31.473752 1.087183 31.421591T1.068927 31.364214Q1.006334 31.166003 1.006334 31.108626Q1.006334 31.019952 1.084575 30.991263T1.381893 30.962575H1.413189Q1.46535 30.962575 1.486215 30.944319T1.512295 30.853037Q1.512295 30.806092 1.488823 30.772187T1.418405 30.738283Q1.084575 30.753931 0.849851 30.753931Q0.682936 30.753931 0.34389 30.738283Q0.296945 30.738283 0.273472 30.772187ZM1.334948 32.021442H2.430328L1.903502 33.361979H1.887854Z" fill="#da0a0a" />
<path d="M1.996349 29.701389C2.054764 29.58456 2.195932 29.374633 2.419854 29.071608C2.643776 28.768583 2.823889 28.541617 2.960188 28.390714C2.789812 28.196 2.606659 27.964774 2.410727 27.697043C2.214795 27.42931 2.076669 27.222425 1.996349 27.076389C1.816238 27.397668 1.497391 27.835777 1.039812 28.390714C1.509563 28.95782 1.828408 29.394713 1.996349 29.701389Z" fill="#da0a0a" />
</svg>
