<svg width="25.000000" height="35.000000" id="card-lightclub11">
<rect x="0" y="0" rx="1.25" ry="1.25" width="25" height="35.0" stroke="rgba(1,1,1,0.333)" fill="#fffdfa" />
<rect x="5.0" y="3.5" width="15.0" height="28.0" stroke="#010101" fill="#fffdfa" />
<path d="M15.708215 12.050554C15.576015 12.050554 15.509915 12.140261 15.509915 12.319676C15.509915 12.555748 15.627951 12.673783 15.864023 12.673783C15.958451 12.673783 16.005666 12.598241 16.005666 12.447155C16.005666 12.182754 15.906516 12.050554 15.708215 12.050554ZM14.688385 10.322509C14.820585 10.322509 14.886686 10.242244 14.886686 10.081715C14.886686 9.9023 14.796978 9.737051 14.617564 9.585965C14.438149 9.434878 14.254013 9.359336 14.065156 9.359336C13.84797 9.359336 13.739377 9.425436 13.739377 9.557636C13.739377 9.727608 13.852691 9.897579 14.07932 10.067551S14.50897 10.322509 14.688385 10.322509ZM14.575071 7.659619C14.537299 7.791819 14.518414 7.881527 14.518414 7.928741C14.518414 7.95707 14.532578 8.032612 14.560907 8.15537C14.504249 8.15537 14.402738 8.129402 14.256374 8.077466S14.003778 7.975955 13.937677 7.928741C14.192635 7.796541 14.405099 7.706833 14.575071 7.659619ZM12.096317 11.540639C12.096317 11.956125 12.209632 12.378694 12.436261 12.808344S12.901322 13.636956 13.151558 14.005228S13.541076 14.661507 13.569405 14.869251H8.895184C8.857413 14.434878 8.838527 14.113822 8.838527 13.906078C8.838527 13.084548 8.954202 12.324393 9.185552 11.625625C9.416902 10.926853 9.690746 10.379166 10.007082 9.982565S10.620868 9.279071 10.899433 9.061885C11.177999 8.8447 11.397545 8.736106 11.558074 8.736106H12.407932C12.483475 8.698335 12.551936 8.528363 12.613314 8.226191C12.674693 7.92402 12.752597 7.735162 12.847025 7.659619C12.922568 7.905133 13.052408 8.079827 13.236544 8.183698C13.42068 8.28757 13.647309 8.377278 13.916431 8.45282S14.395656 8.622792 14.546742 8.736106C14.660057 9.123264 14.964589 9.788986 15.46034 10.733274S16.222851 12.277183 16.260623 12.53214C16.222852 12.673783 16.133144 12.801262 15.991501 12.914577S15.698772 13.084548 15.538244 13.084548C15.472143 13.084548 15.387157 13.046777 15.283286 12.971234S15.084986 12.857919 15.0 12.857919C14.952786 12.857919 14.929178 12.886248 14.929178 12.942905L14.971671 13.070384C15.0 13.15537 15.014164 13.202584 15.014164 13.212027C15.014164 13.297013 14.948064 13.339506 14.815864 13.339506C14.796978 13.339506 14.678942 13.174255 14.461756 12.843755C14.046271 12.20164 13.456091 11.715332 12.691218 11.384832C12.634561 11.007116 12.514164 10.662452 12.330028 10.350837S12.001888 9.883415 11.898017 9.883415C11.813031 9.883415 11.770538 9.944794 11.770538 10.067551C11.770538 10.133651 11.829556 10.334312 11.947592 10.669534S12.124646 11.233745 12.124646 11.356503C12.124646 11.384832 12.115203 11.44621 12.096317 11.540639ZM11.798867 8.141206C11.600567 8.141206 11.369217 8.193141 11.104816 8.297013C10.840415 8.400884 10.538244 8.596825 10.1983 8.884832S9.549103 9.531669 9.270538 9.961319S8.755902 10.976428 8.562323 11.717693C8.368744 12.458958 8.271955 13.287565 8.271955 14.203528C8.271955 14.647343 8.29084 15.043944 8.328612 15.39333H14.263456C14.235127 14.958958 14.143059 14.5718 13.987252 14.231857S13.663834 13.632235 13.484419 13.45282C13.305004 13.273405 13.132673 13.049138 12.967422 12.780016S12.700661 12.220526 12.66289 11.908911C13.031161 12.069439 13.345137 12.26538 13.604816 12.49673S14.046271 12.938184 14.150142 13.127041S14.355524 13.478788 14.454674 13.61571C14.553824 13.752631 14.650613 13.821092 14.745042 13.821092C14.905571 13.821092 15.047214 13.783321 15.169972 13.707778S15.358829 13.537806 15.368272 13.424492C15.462701 13.471706 15.557129 13.495313 15.651558 13.495313C16.095373 13.495313 16.454203 13.212027 16.728045 12.645455C16.671388 12.286626 16.359773 11.509949 15.793201 10.315427S14.943343 8.348953 14.943343 7.999562C14.943343 7.952348 14.971671 7.687948 15.028329 7.206361C14.442871 7.206361 13.918792 7.36689 13.456091 7.687948C13.201133 7.244133 12.988669 7.022225 12.818697 7.022225C12.592068 7.144983 12.429178 7.281904 12.330028 7.43299S12.134089 7.829591 12.03966 8.169534C11.945231 8.150648 11.864967 8.141206 11.798867 8.141206Z" fill="#010101" />
<path d="M9.291785 22.949446C9.423985 22.949446 9.490085 22.859739 9.490085 22.680324C9.490085 22.444252 9.372049 22.326217 9.135977 22.326217C9.041549 22.326217 8.994334 22.401759 8.994334 22.552845C8.994334 22.817246 9.093484 22.949446 9.291785 22.949446ZM10.311615 24.677491C10.179415 24.677491 10.113314 24.757756 10.113314 24.918285C10.113314 25.0977 10.203022 25.262949 10.382436 25.414035C10.561851 25.565122 10.745987 25.640664 10.934844 25.640664C11.15203 25.640664 11.260623 25.574564 11.260623 25.442364C11.260623 25.272392 11.147309 25.102421 10.92068 24.932449S10.49103 24.677491 10.311615 24.677491ZM10.424929 27.340381C10.462701 27.208181 10.481586 27.118473 10.481586 27.071259C10.481586 27.04293 10.467422 26.967388 10.439093 26.84463C10.495751 26.84463 10.597262 26.870598 10.743626 26.922534S10.996222 27.024045 11.062323 27.071259C10.807365 27.203459 10.594901 27.293167 10.424929 27.340381ZM12.903683 23.459361C12.903683 23.043875 12.790368 22.621306 12.563739 22.191656S12.098678 21.363044 11.848442 20.994772S11.458924 20.338493 11.430595 20.130749H16.104816C16.142587 20.565122 16.161473 20.886178 16.161473 21.093922C16.161473 21.915452 16.045798 22.675607 15.814448 23.374375C15.583098 24.073147 15.309254 24.620834 14.992918 25.017435S14.379132 25.720929 14.100567 25.938115C13.822001 26.1553 13.602455 26.263894 13.441926 26.263894H12.592068C12.516525 26.301665 12.448064 26.471637 12.386686 26.773809C12.325307 27.07598 12.247403 27.264838 12.152975 27.340381C12.077432 27.094867 11.947592 26.920173 11.763456 26.816302C11.57932 26.71243 11.352691 26.622722 11.083569 26.54718S10.604344 26.377208 10.453258 26.263894C10.339943 25.876736 10.035411 25.211014 9.53966 24.266726S8.777149 22.722817 8.739377 22.46786C8.777148 22.326217 8.866856 22.198738 9.008499 22.085423S9.301228 21.915452 9.461756 21.915452C9.527857 21.915452 9.612843 21.953223 9.716714 22.028766S9.915014 22.142081 10.0 22.142081C10.047214 22.142081 10.070822 22.113752 10.070822 22.057095L10.028329 21.929616C10.0 21.84463 9.985836 21.797416 9.985836 21.787973C9.985836 21.702987 10.051936 21.660494 10.184136 21.660494C10.203022 21.660494 10.321058 21.825745 10.538244 22.156245C10.953729 22.79836 11.543909 23.284668 12.308782 23.615168C12.365439 23.992884 12.485836 24.337548 12.669972 24.649163S12.998112 25.116585 13.101983 25.116585C13.186969 25.116585 13.229462 25.055206 13.229462 24.932449C13.229462 24.866349 13.170444 24.665688 13.052408 24.330466S12.875354 23.766255 12.875354 23.643497C12.875354 23.615168 12.884797 23.55379 12.903683 23.459361ZM13.201133 26.858794C13.399433 26.858794 13.630783 26.806859 13.895184 26.702987C14.159585 26.599116 14.461756 26.403175 14.8017 26.115168S15.450897 25.468331 15.729462 25.038681S16.244098 24.023572 16.437677 23.282307C16.631256 22.541042 16.728045 21.712435 16.728045 20.796472C16.728045 20.352657 16.70916 19.956056 16.671388 19.60667H10.736544C10.764873 20.041042 10.856941 20.4282 11.012748 20.768143S11.336166 21.367765 11.515581 21.54718C11.694996 21.726595 11.867327 21.950862 12.032578 22.219984S12.299339 22.779474 12.33711 23.091089C11.968839 22.930561 11.654863 22.73462 11.395184 22.50327S10.953729 22.061816 10.849858 21.872959S10.644476 21.521212 10.545326 21.38429C10.446176 21.247369 10.349387 21.178908 10.254958 21.178908C10.094429 21.178908 9.952786 21.216679 9.830028 21.292222S9.641171 21.462194 9.631728 21.575508C9.537299 21.528294 9.442871 21.504687 9.348442 21.504687C8.904627 21.504687 8.545797 21.787973 8.271955 22.354545C8.328612 22.713374 8.640227 23.490051 9.206799 24.684573S10.056657 26.651047 10.056657 27.000438C10.056657 27.047652 10.028329 27.312052 9.971671 27.793639C10.557129 27.793639 11.081208 27.63311 11.543909 27.312052C11.798867 27.755867 12.011331 27.977775 12.181303 27.977775C12.407932 27.855017 12.570822 27.718096 12.669972 27.56701S12.865911 27.170409 12.96034 26.830466C13.054769 26.849352 13.135033 26.858794 13.201133 26.858794Z" fill="#010101" />
<path d="M23.576271 4.342567Q23.635593 4.342567 23.65678 4.270533Q23.661017 4.257821 23.661017 4.232397Q23.661017 4.18155 23.614407 4.164601Q23.402542 4.075618 23.300847 3.910363T23.169492 3.501465T23.139831 2.842567V1.351041Q23.144068 1.245109 23.158898 1.179431T23.233051 1.069262T23.415254 1.02477H23.440678Q23.483051 1.02477 23.502119 1.00994T23.525424 0.935787Q23.525424 0.897651 23.504237 0.870109T23.449153 0.842567Q23.177966 0.855279 22.944915 0.855279Q22.686441 0.855279 22.415254 0.842567Q22.377119 0.842567 22.358051 0.870109T22.338983 0.935787Q22.34322 0.999346 22.366525 1.012058T22.449153 1.02477Q22.572034 1.02477 22.631356 1.069262T22.705508 1.179431T22.724576 1.351041V2.986634Q22.724576 3.533245 22.917373 3.882821T23.559322 4.342567H23.576271Z" fill="#010101" />
<path d="M22.947946 6.83234C22.945467 6.906702 22.942369 6.966812 22.938651 7.012669C22.934933 7.058526 22.925637 7.116777 22.910765 7.187421S22.877921 7.316317 22.856852 7.362173S22.804178 7.459465 22.76204 7.516476S22.670326 7.620583 22.613314 7.657765S22.484419 7.730888 22.397663 7.765591S22.211756 7.82756 22.100212 7.847389V7.921752H23.899788V7.847389C23.788244 7.827559 23.689093 7.799674 23.602337 7.763732S23.443077 7.691228 23.384826 7.654047S23.277001 7.569149 23.236101 7.510899S23.163598 7.401214 23.141289 7.356596S23.101009 7.253728 23.087376 7.181844S23.065067 7.052329 23.061349 7.008951C23.057631 6.965573 23.054533 6.906702 23.052054 6.83234C23.111544 6.941405 23.15988 7.018246 23.197061 7.062864C23.263987 7.147142 23.346406 7.214068 23.444317 7.263643C23.542227 7.313218 23.638279 7.338006 23.732472 7.338006C23.891112 7.338006 24.027443 7.279135 24.141466 7.161394S24.3125 6.901745 24.3125 6.735668C24.3125 6.57455 24.261066 6.436979 24.158198 6.322956S23.930772 6.151922 23.784525 6.151922C23.734951 6.151922 23.689093 6.158739 23.646955 6.172372S23.562677 6.203356 23.520538 6.224426L23.442458 6.263466C23.539129 6.124656 23.587465 5.993282 23.587465 5.869344C23.587465 5.713183 23.529834 5.57933 23.414572 5.467786S23.161119 5.30047 23.0 5.30047S22.700691 5.356242 22.585428 5.467786S22.412535 5.713183 22.412535 5.869344C22.412535 5.993282 22.460871 6.124656 22.557542 6.263466C22.540191 6.25603 22.516023 6.244875 22.485039 6.230003S22.431126 6.203976 22.416254 6.19654S22.382171 6.181667 22.358623 6.174231S22.312146 6.161217 22.289837 6.157499S22.242741 6.151922 22.215475 6.151922C22.069228 6.151922 21.944671 6.208933 21.841802 6.322956S21.6875 6.57455 21.6875 6.735668C21.6875 6.901745 21.744511 7.043653 21.858534 7.161394S22.108888 7.338006 22.267528 7.338006C22.540191 7.338006 22.766996 7.16945 22.947946 6.83234Z" fill="#010101" />
<path d="M1.423729 30.657433Q1.364407 30.657433 1.34322 30.729467Q1.338983 30.742179 1.338983 30.767603Q1.338983 30.81845 1.385593 30.835399Q1.597458 30.924382 1.699153 31.089637T1.830508 31.498535T1.860169 32.157433V33.648959Q1.855932 33.754891 1.841102 33.820569T1.766949 33.930738T1.584746 33.97523H1.559322Q1.516949 33.97523 1.497881 33.99006T1.474576 34.064213Q1.474576 34.102349 1.495763 34.129891T1.550847 34.157433Q1.822034 34.144721 2.055085 34.144721Q2.313559 34.144721 2.584746 34.157433Q2.622881 34.157433 2.641949 34.129891T2.661017 34.064213Q2.65678 34.000654 2.633475 33.987942T2.550847 33.97523Q2.427966 33.97523 2.368644 33.930738T2.294492 33.820569T2.275424 33.648959V32.013366Q2.275424 31.466755 2.082627 31.117179T1.440678 30.657433H1.423729Z" fill="#010101" />
<path d="M2.052054 28.16766C2.054533 28.093298 2.057631 28.033188 2.061349 27.987331C2.065067 27.941474 2.074363 27.883223 2.089235 27.812579S2.122079 27.683683 2.143148 27.637827S2.195822 27.540535 2.23796 27.483524S2.329674 27.379417 2.386686 27.342235S2.515581 27.269112 2.602337 27.234409S2.788244 27.17244 2.899788 27.152611V27.078248H1.100212V27.152611C1.211756 27.172441 1.310907 27.200326 1.397663 27.236268S1.556923 27.308772 1.615174 27.345953S1.722999 27.430851 1.763899 27.489101S1.836402 27.598786 1.858711 27.643404S1.898991 27.746272 1.912624 27.818156S1.934933 27.947671 1.938651 27.991049C1.942369 28.034427 1.945467 28.093298 1.947946 28.16766C1.888456 28.058595 1.84012 27.981754 1.802939 27.937136C1.736013 27.852858 1.653594 27.785932 1.555683 27.736357C1.457773 27.686782 1.361721 27.661994 1.267528 27.661994C1.108888 27.661994 0.972557 27.720865 0.858534 27.838606S0.6875 28.098255 0.6875 28.264332C0.6875 28.42545 0.738934 28.563021 0.841802 28.677044S1.069228 28.848078 1.215475 28.848078C1.265049 28.848078 1.310907 28.841261 1.353045 28.827628S1.437323 28.796644 1.479462 28.775574L1.557542 28.736534C1.460871 28.875344 1.412535 29.006718 1.412535 29.130656C1.412535 29.286817 1.470166 29.42067 1.585428 29.532214S1.838881 29.69953 2.0 29.69953S2.299309 29.643758 2.414572 29.532214S2.587465 29.286817 2.587465 29.130656C2.587465 29.006718 2.539129 28.875344 2.442458 28.736534C2.459809 28.74397 2.483977 28.755125 2.514961 28.769997S2.568874 28.796024 2.583746 28.80346S2.617829 28.818333 2.641377 28.825769S2.687854 28.838783 2.710163 28.842501S2.757259 28.848078 2.784525 28.848078C2.930772 28.848078 3.055329 28.791067 3.158198 28.677044S3.3125 28.42545 3.3125 28.264332C3.3125 28.098255 3.255489 27.956347 3.141466 27.838606S2.891112 27.661994 2.732472 27.661994C2.459809 27.661994 2.233004 27.83055 2.052054 28.16766Z" fill="#010101" />
</svg>
