<svg width="500.000000" height="700.000000" id="card-realdiamond7">
<radialGradient id="card-realwhitegradient" cx="250.0" cy="350.0" r="500" gradientTransform="matrix(1 0 0 1 0 -.25)" gradientUnits="userSpaceOnUse">
<stop stop-color="#FDFAF4" offset=".15"/>
<stop stop-color="#FDF9F2" offset=".35"/>
<stop stop-color="#FCF7F1" offset=".5"/>
<stop stop-color="#FDFDF8" offset=".75"/>
<stop stop-color="#FFFDFA" offset="1"/>
</radialGradient>
<rect x="0" y="0" rx="25.0" ry="25.0" width="500" height="700.0" stroke="rgba(1,1,1,0.333)" fill="url(#card-realwhitegradient)" />
<path d="M150.139082 66.666667C147.913769 71.117293 142.535925 79.114511 134.005563 90.658322C125.475202 102.202133 118.613769 110.848447 113.421419 116.597126C119.911919 124.014831 126.889193 132.823412 134.353268 143.022717C141.817344 153.222063 147.079277 161.103384 150.139082 166.666667C157.000459 154.427446 169.14701 137.737599 186.578581 116.597126C168.68331 94.993092 156.536857 78.34956 150.139082 66.666667Z" fill="#da0a0a" />
<path d="M149.860918 633.333333C152.086231 628.882707 157.464075 620.885489 165.994437 609.341678C174.524798 597.797867 181.386231 589.151553 186.578581 583.402874C180.088081 575.985169 173.110807 567.176588 165.646732 556.977283C158.182656 546.777937 152.920723 538.896616 149.860918 533.333333C142.999541 545.572554 130.85299 562.262401 113.421419 583.402874C131.31669 605.006908 143.463143 621.65044 149.860918 633.333333Z" fill="#da0a0a" />
<path d="M150.139082 300.0C147.913769 304.450626 142.535925 312.447844 134.005563 323.991655C125.475202 335.535466 118.613769 344.18178 113.421419 349.930459C119.911919 357.348164 126.889193 366.156745 134.353268 376.35605C141.817344 386.555396 147.079277 394.436718 150.139082 400.0C157.000459 387.760779 169.14701 371.070932 186.578581 349.930459C168.68331 328.326426 156.536857 311.682893 150.139082 300.0Z" fill="#da0a0a" />
<path d="M350.139082 66.666667C347.913769 71.117293 342.535925 79.114511 334.005563 90.658322C325.475202 102.202133 318.613769 110.848447 313.421419 116.597126C319.911919 124.014831 326.889193 132.823412 334.353268 143.022717C341.817344 153.222063 347.079277 161.103384 350.139082 166.666667C357.000459 154.427446 369.14701 137.737599 386.578581 116.597126C368.68331 94.993092 356.536857 78.34956 350.139082 66.666667Z" fill="#da0a0a" />
<path d="M349.860918 633.333333C352.086231 628.882707 357.464075 620.885489 365.994437 609.341678C374.524798 597.797867 381.386231 589.151553 386.578581 583.402874C380.088081 575.985169 373.110807 567.176588 365.646732 556.977283C358.182656 546.777937 352.920723 538.896616 349.860918 533.333333C342.999541 545.572554 330.85299 562.262401 313.421419 583.402874C331.31669 605.006908 343.463143 621.65044 349.860918 633.333333Z" fill="#da0a0a" />
<path d="M350.139082 300.0C347.913769 304.450626 342.535925 312.447844 334.005563 323.991655C325.475202 335.535466 318.613769 344.18178 313.421419 349.930459C319.911919 357.348164 326.889193 366.156745 334.353268 376.35605C341.817344 386.555396 347.079277 394.436718 350.139082 400.0C357.000459 387.760779 369.14701 371.070932 386.578581 349.930459C368.68331 328.326426 356.536857 311.682893 350.139082 300.0Z" fill="#da0a0a" />
<path d="M250.139082 183.333333C247.913769 187.783959 242.535925 195.781178 234.005563 207.324988C225.475202 218.868799 218.613769 227.515114 213.421419 233.263792C219.911919 240.681497 226.889193 249.490079 234.353268 259.689383C241.817344 269.88873 247.079277 277.770051 250.139082 283.333333C257.000459 271.094112 269.14701 254.404265 286.578581 233.263792C268.68331 211.659759 256.536857 195.016226 250.139082 183.333333Z" fill="#da0a0a" />
<path d="M471.042435 85.366093Q472.333948 83.880854 472.333948 81.297828Q472.333948 75.615171 465.940959 62.764617T449.215867 31.316278L446.245387 26.021075H468.846863Q472.333948 26.021075 474.077491 26.53768T476.918819 28.991555T478.53321 35.061665Q478.791513 36.094876 479.372694 36.546905T481.50369 36.998935Q483.699262 36.998935 483.699262 34.803363L483.182657 19.692662Q483.182657 16.851333 479.437269 16.851333H440.046125Q436.300738 16.851333 436.300738 19.305208Q436.300738 21.242477 439.142066 26.021075Q443.920664 34.028455 447.98893 43.908529T456.964945 67.349488Q460.968635 78.327348 462.776753 82.718492Q464.714022 86.851333 468.071956 86.851333Q469.750923 86.851333 471.042435 85.366093Z" fill="#da0a0a" />
<path d="M460.073018 105.972222C458.904729 108.308801 456.081361 112.50734 451.602921 118.567841C447.124481 124.628342 443.522229 129.167657 440.796245 132.185713C444.203758 136.080008 447.866826 140.704514 451.785466 146.059149C455.704105 151.413805 458.46662 155.551499 460.073018 158.472222C463.675241 152.046631 470.05218 143.284461 479.203755 132.185713C469.808738 120.843596 463.43185 112.105741 460.073018 105.972222Z" fill="#da0a0a" />
<path d="M28.957565 614.633907Q27.666052 616.119146 27.666052 618.702172Q27.666052 624.384829 34.059041 637.235383T50.784133 668.683722L53.754613 673.978925H31.153137Q27.666052 673.978925 25.922509 673.46232T23.081181 671.008445T21.46679 664.938335Q21.208487 663.905124 20.627306 663.453095T18.49631 663.001065Q16.300738 663.001065 16.300738 665.196637L16.817343 680.307338Q16.817343 683.148667 20.562731 683.148667H59.953875Q63.699262 683.148667 63.699262 680.694792Q63.699262 678.757523 60.857934 673.978925Q56.079336 665.971545 52.01107 656.091471T43.035055 632.650512Q39.031365 621.672652 37.223247 617.281508Q35.285978 613.148667 31.928044 613.148667Q30.249077 613.148667 28.957565 614.633907Z" fill="#da0a0a" />
<path d="M39.926982 594.027778C41.095271 591.691199 43.918639 587.49266 48.397079 581.432159C52.875519 575.371658 56.477771 570.832343 59.203755 567.814287C55.796242 563.919992 52.133174 559.295486 48.214534 553.940851C44.295895 548.586195 41.53338 544.448501 39.926982 541.527778C36.324759 547.953369 29.94782 556.715539 20.796245 567.814287C30.191262 579.156404 36.56815 587.894259 39.926982 594.027778Z" fill="#da0a0a" />
</svg>
