<svg width="25.000000" height="35.000000" id="card-lightspade3">
<rect x="0" y="0" rx="1.25" ry="1.25" width="25" height="35.0" stroke="rgba(1,1,1,0.333)" fill="#fffdfa" />
<path d="M12.382979 6.64539C12.359338 6.891253 12.300236 7.108747 12.205674 7.297872C12.111111 7.486998 12.011821 7.631206 11.907801 7.730496S11.672577 7.914894 11.514184 7.985816C11.355792 8.056738 11.234043 8.102837 11.148936 8.124113S10.959811 8.165485 10.836879 8.184397C10.817967 8.189125 10.803782 8.191489 10.794326 8.191489V8.333333H14.205674V8.191489C13.803782 8.120567 13.498818 8.016548 13.29078 7.879433C12.893617 7.614657 12.66903 7.20331 12.617021 6.64539C12.862884 7.02364 13.179669 7.212766 13.567376 7.212766C13.817967 7.212766 14.031915 7.125296 14.20922 6.950355S14.475177 6.562648 14.475177 6.312057C14.475177 6.099291 14.423168 5.905438 14.319149 5.730496C14.21513 5.555555 14.080378 5.395981 13.914894 5.251773S13.579196 4.957447 13.404255 4.801418C13.229314 4.64539 13.056738 4.440899 12.886525 4.187943S12.586289 3.650118 12.496454 3.333333C12.416076 3.64539 12.291962 3.926714 12.124113 4.177305S11.783688 4.631206 11.606383 4.787234S11.257683 5.094562 11.092199 5.241135S10.79078 5.548463 10.684397 5.723404S10.524823 6.094562 10.524823 6.312057C10.524823 6.562648 10.613475 6.775413 10.79078 6.950355S11.182033 7.212766 11.432624 7.212766C11.820331 7.212766 12.137116 7.02364 12.382979 6.64539Z" fill="#010101" />
<path d="M12.617021 28.35461C12.640662 28.108747 12.699764 27.891253 12.794326 27.702128C12.888889 27.513002 12.988179 27.368794 13.092199 27.269504S13.327423 27.085106 13.485816 27.014184C13.644208 26.943262 13.765957 26.897163 13.851064 26.875887S14.040189 26.834515 14.163121 26.815603C14.182033 26.810875 14.196218 26.808511 14.205674 26.808511V26.666667H10.794326V26.808511C11.196218 26.879433 11.501182 26.983452 11.70922 27.120567C12.106383 27.385343 12.33097 27.79669 12.382979 28.35461C12.137116 27.97636 11.820331 27.787234 11.432624 27.787234C11.182033 27.787234 10.968085 27.874704 10.79078 28.049645S10.524823 28.437352 10.524823 28.687943C10.524823 28.900709 10.576832 29.094562 10.680851 29.269504C10.78487 29.444445 10.919622 29.604019 11.085106 29.748227S11.420804 30.042553 11.595745 30.198582C11.770686 30.35461 11.943262 30.559101 12.113475 30.812057S12.413711 31.349882 12.503546 31.666667C12.583924 31.35461 12.708038 31.073286 12.875887 30.822695S13.216312 30.368794 13.393617 30.212766S13.742317 29.905438 13.907801 29.758865S14.20922 29.451537 14.315603 29.276596S14.475177 28.905438 14.475177 28.687943C14.475177 28.437352 14.386525 28.224587 14.20922 28.049645S13.817967 27.787234 13.567376 27.787234C13.179669 27.787234 12.862884 27.97636 12.617021 28.35461Z" fill="#010101" />
<path d="M12.382979 18.312057C12.359338 18.55792 12.300236 18.775413 12.205674 18.964539C12.111111 19.153665 12.011821 19.297872 11.907801 19.397163S11.672577 19.58156 11.514184 19.652482C11.355792 19.723404 11.234043 19.769504 11.148936 19.79078S10.959811 19.832151 10.836879 19.851064C10.817967 19.855792 10.803782 19.858156 10.794326 19.858156V20.0H14.205674V19.858156C13.803782 19.787234 13.498818 19.683215 13.29078 19.546099C12.893617 19.281324 12.66903 18.869977 12.617021 18.312057C12.862884 18.690307 13.179669 18.879433 13.567376 18.879433C13.817967 18.879433 14.031915 18.791962 14.20922 18.617021S14.475177 18.229314 14.475177 17.978723C14.475177 17.765957 14.423168 17.572104 14.319149 17.397163C14.21513 17.222222 14.080378 17.062648 13.914894 16.91844S13.579196 16.624113 13.404255 16.468085C13.229314 16.312057 13.056738 16.107565 12.886525 15.85461S12.586289 15.316785 12.496454 15.0C12.416076 15.312057 12.291962 15.593381 12.124113 15.843972S11.783688 16.297872 11.606383 16.453901S11.257683 16.761229 11.092199 16.907801S10.79078 17.21513 10.684397 17.390071S10.524823 17.761229 10.524823 17.978723C10.524823 18.229314 10.613475 18.44208 10.79078 18.617021S11.182033 18.879433 11.432624 18.879433C11.820331 18.879433 12.137116 18.690307 12.382979 18.312057Z" fill="#010101" />
<path d="M23.887681 4.16186Q24.20788 3.981154 24.20788 3.632422Q24.20788 3.448545 24.09375 3.315393T23.776721 3.182241Q23.65625 3.182241 23.570652 3.245646T23.485054 3.353436Q23.485054 3.359777 23.54212 3.400991T23.646739 3.511951T23.694293 3.689487Q23.694293 3.886045 23.526268 3.997005T23.085598 4.107965Q22.407156 4.107965 22.407156 3.353436Q22.407156 3.042748 22.572011 2.855701T23.066576 2.649632H23.301178Q23.345562 2.649632 23.370924 2.611588T23.396286 2.52282Q23.396286 2.465755 23.370924 2.424541T23.301178 2.376987H23.066576Q22.819293 2.351625 22.67029 2.155067T22.521286 1.679523Q22.521286 1.375175 22.692482 1.213491T23.091938 1.051806Q23.307518 1.051806 23.462862 1.175447T23.618207 1.514668Q23.618207 1.654161 23.564312 1.701715T23.459692 1.75878T23.408967 1.774632Q23.408967 1.819016 23.494565 1.882422T23.700634 1.945828Q23.903533 1.945828 24.017663 1.819016T24.131793 1.495646Q24.131793 1.184958 23.840127 1.013762T23.085598 0.842567Q22.591033 0.842567 22.267663 1.058146T21.944293 1.679523Q21.944293 1.945828 22.131341 2.174088T22.66712 2.497458V2.52282Q22.312047 2.560864 22.052083 2.747911T21.79212 3.340755Q21.79212 3.854342 22.166214 4.098454T23.10462 4.342567Q23.567482 4.342567 23.887681 4.16186Z" fill="#010101" />
<path d="M22.938564 7.037441C22.926152 7.166519 22.895124 7.280703 22.845479 7.379994C22.795833 7.479285 22.743706 7.554994 22.689096 7.607122S22.565603 7.70393 22.482447 7.741164C22.399291 7.778398 22.335372 7.8026 22.290691 7.813771S22.191401 7.835491 22.126862 7.84542C22.116933 7.847902 22.109486 7.849143 22.104521 7.849143V7.923611H23.895479V7.849143C23.684486 7.811909 23.524379 7.757299 23.41516 7.685313C23.206649 7.546306 23.088741 7.330349 23.061436 7.037441C23.190514 7.236022 23.356826 7.335313 23.560372 7.335313C23.691933 7.335313 23.804255 7.289391 23.89734 7.197547S24.036968 6.994001 24.036968 6.862441C24.036968 6.750739 24.009663 6.648966 23.955053 6.557122C23.900443 6.465278 23.829698 6.381501 23.742819 6.305792S23.566578 6.151271 23.474734 6.069356C23.38289 5.987441 23.292287 5.880083 23.202926 5.747281S23.045302 5.464923 22.998138 5.298611C22.95594 5.462441 22.89078 5.610136 22.80266 5.741696S22.623936 5.979994 22.530851 6.061909S22.347784 6.223256 22.260904 6.300207S22.10266 6.461554 22.046809 6.553398S21.963032 6.748256 21.963032 6.862441C21.963032 6.994001 22.009574 7.105703 22.10266 7.197547S22.308067 7.335313 22.439628 7.335313C22.643174 7.335313 22.809486 7.236022 22.938564 7.037441Z" fill="#010101" />
<path d="M1.112319 30.83814Q0.79212 31.018846 0.79212 31.367578Q0.79212 31.551455 0.90625 31.684607T1.223279 31.817759Q1.34375 31.817759 1.429348 31.754354T1.514946 31.646564Q1.514946 31.640223 1.45788 31.599009T1.353261 31.488049T1.305707 31.310513Q1.305707 31.113955 1.473732 31.002995T1.914402 30.892035Q2.592844 30.892035 2.592844 31.646564Q2.592844 31.957252 2.427989 32.144299T1.933424 32.350368H1.698822Q1.654438 32.350368 1.629076 32.388412T1.603714 32.47718Q1.603714 32.534245 1.629076 32.575459T1.698822 32.623013H1.933424Q2.180707 32.648375 2.32971 32.844933T2.478714 33.320477Q2.478714 33.624825 2.307518 33.786509T1.908062 33.948194Q1.692482 33.948194 1.537138 33.824553T1.381793 33.485332Q1.381793 33.345839 1.435688 33.298285T1.540308 33.24122T1.591033 33.225368Q1.591033 33.180984 1.505435 33.117578T1.299366 33.054172Q1.096467 33.054172 0.982337 33.180984T0.868207 33.504354Q0.868207 33.815042 1.159873 33.986238T1.914402 34.157433Q2.408967 34.157433 2.732337 33.941854T3.055707 33.320477Q3.055707 33.054172 2.868659 32.825912T2.33288 32.502542V32.47718Q2.687953 32.439136 2.947917 32.252089T3.20788 31.659245Q3.20788 31.145658 2.833786 30.901546T1.89538 30.657433Q1.432518 30.657433 1.112319 30.83814Z" fill="#010101" />
<path d="M2.061436 27.962559C2.073848 27.833481 2.104876 27.719297 2.154521 27.620006C2.204167 27.520715 2.256294 27.445006 2.310904 27.392878S2.434397 27.29607 2.517553 27.258836C2.600709 27.221602 2.664628 27.1974 2.709309 27.186229S2.808599 27.164509 2.873138 27.15458C2.883067 27.152098 2.890514 27.150857 2.895479 27.150857V27.076389H1.104521V27.150857C1.315514 27.188091 1.475621 27.242701 1.58484 27.314687C1.793351 27.453694 1.911259 27.669651 1.938564 27.962559C1.809486 27.763978 1.643174 27.664687 1.439628 27.664687C1.308067 27.664687 1.195745 27.710609 1.10266 27.802453S0.963032 28.005999 0.963032 28.137559C0.963032 28.249261 0.990337 28.351034 1.044947 28.442878C1.099557 28.534722 1.170302 28.618499 1.257181 28.694208S1.433422 28.848729 1.525266 28.930644C1.61711 29.012559 1.707713 29.119917 1.797074 29.252719S1.954698 29.535077 2.001862 29.701389C2.04406 29.537559 2.10922 29.389864 2.19734 29.258304S2.376064 29.020006 2.469149 28.938091S2.652216 28.776744 2.739096 28.699793S2.89734 28.538446 2.953191 28.446602S3.036968 28.251744 3.036968 28.137559C3.036968 28.005999 2.990426 27.894297 2.89734 27.802453S2.691933 27.664687 2.560372 27.664687C2.356826 27.664687 2.190514 27.763978 2.061436 27.962559Z" fill="#010101" />
</svg>
