<svg width="25.000000" height="35.000000" id="card-lightclub3">
<rect x="0" y="0" rx="1.25" ry="1.25" width="25" height="35.0" stroke="rgba(1,1,1,0.333)" fill="#fffdfa" />
<path d="M12.40085 6.254721C12.396128 6.396364 12.390227 6.51086 12.383144 6.598206C12.376062 6.685552 12.358357 6.796506 12.330028 6.931067S12.267469 7.176582 12.227337 7.263928S12.127006 7.449245 12.046742 7.557838S11.872049 7.756138 11.763456 7.826959S11.517941 7.966242 11.352691 8.032342S10.998584 8.150378 10.786119 8.188149V8.329792H14.213881V8.188149C14.001416 8.150378 13.812559 8.097262 13.647309 8.028801S13.343957 7.890699 13.233003 7.819877S13.02762 7.658168 12.949717 7.547214S12.811615 7.338291 12.769122 7.253305S12.692399 7.057365 12.666431 6.920444S12.623938 6.673749 12.616856 6.591124C12.609773 6.508498 12.603872 6.396364 12.59915 6.254721C12.712465 6.462464 12.804533 6.608829 12.875354 6.693815C13.002833 6.854344 13.159821 6.981823 13.346317 7.076251C13.532814 7.17068 13.71577 7.217894 13.895184 7.217894C14.197356 7.217894 14.457035 7.10576 14.674221 6.881492S15.0 6.386922 15.0 6.070585C15.0 5.763692 14.90203 5.501653 14.706091 5.284466S14.272899 4.958687 13.994334 4.958687C13.899906 4.958687 13.812559 4.971671 13.732295 4.997639S13.571766 5.056657 13.491501 5.096789L13.342776 5.171152C13.526912 4.906752 13.61898 4.656515 13.61898 4.420444C13.61898 4.122993 13.509207 3.868036 13.28966 3.655571S12.806893 3.336874 12.5 3.336874S11.929887 3.443107 11.71034 3.655571S11.38102 4.122993 11.38102 4.420444C11.38102 4.656515 11.473088 4.906752 11.657224 5.171152C11.624174 5.156988 11.57814 5.135741 11.519122 5.107413S11.416431 5.057838 11.388102 5.043673S11.323182 5.015345 11.278329 5.00118S11.189802 4.976393 11.147309 4.969311S11.057601 4.958687 11.005666 4.958687C10.727101 4.958687 10.489849 5.06728 10.293909 5.284466S10.0 5.763692 10.0 6.070585C10.0 6.386922 10.108593 6.657224 10.325779 6.881492S10.802644 7.217894 11.104816 7.217894C11.624174 7.217894 12.056183 6.896837 12.40085 6.254721Z" fill="#010101" />
<path d="M12.59915 28.745279C12.603872 28.603636 12.609773 28.48914 12.616856 28.401794C12.623938 28.314448 12.641643 28.203494 12.669972 28.068933S12.732531 27.823418 12.772663 27.736072S12.872994 27.550755 12.953258 27.442162S13.127951 27.243862 13.236544 27.173041S13.482059 27.033758 13.647309 26.967658S14.001416 26.849622 14.213881 26.811851V26.670208H10.786119V26.811851C10.998584 26.849622 11.187441 26.902738 11.352691 26.971199S11.656043 27.109301 11.766997 27.180123S11.97238 27.341832 12.050283 27.452786S12.188385 27.661709 12.230878 27.746695S12.307601 27.942635 12.333569 28.079556S12.376062 28.326251 12.383144 28.408876C12.390227 28.491502 12.396128 28.603636 12.40085 28.745279C12.287535 28.537536 12.195467 28.391171 12.124646 28.306185C11.997167 28.145656 11.840179 28.018177 11.653683 27.923749C11.467186 27.82932 11.28423 27.782106 11.104816 27.782106C10.802644 27.782106 10.542965 27.89424 10.325779 28.118508S10.0 28.613078 10.0 28.929415C10.0 29.236308 10.09797 29.498347 10.293909 29.715534S10.727101 30.041313 11.005666 30.041313C11.100094 30.041313 11.187441 30.028329 11.267705 30.002361S11.428234 29.943343 11.508499 29.903211L11.657224 29.828848C11.473088 30.093248 11.38102 30.343485 11.38102 30.579556C11.38102 30.877007 11.490793 31.131964 11.71034 31.344429S12.193107 31.663126 12.5 31.663126S13.070113 31.556893 13.28966 31.344429S13.61898 30.877007 13.61898 30.579556C13.61898 30.343485 13.526912 30.093248 13.342776 29.828848C13.375826 29.843012 13.42186 29.864259 13.480878 29.892587S13.583569 29.942162 13.611898 29.956327S13.676818 29.984655 13.721671 29.99882S13.810198 30.023607 13.852691 30.030689S13.942399 30.041313 13.994334 30.041313C14.272899 30.041313 14.510151 29.93272 14.706091 29.715534S15.0 29.236308 15.0 28.929415C15.0 28.613078 14.891407 28.342776 14.674221 28.118508S14.197356 27.782106 13.895184 27.782106C13.375826 27.782106 12.943817 28.103163 12.59915 28.745279Z" fill="#010101" />
<path d="M12.40085 17.921388C12.396128 18.063031 12.390227 18.177526 12.383144 18.264873C12.376062 18.352219 12.358357 18.463173 12.330028 18.597734S12.267469 18.843249 12.227337 18.930595S12.127006 19.115911 12.046742 19.224504S11.872049 19.422805 11.763456 19.493626S11.517941 19.632909 11.352691 19.699008S10.998584 19.817045 10.786119 19.854816V19.996459H14.213881V19.854816C14.001416 19.817044 13.812559 19.763928 13.647309 19.695467S13.343957 19.557365 13.233003 19.486544S13.02762 19.324835 12.949717 19.213881S12.811615 19.004958 12.769122 18.919972S12.692399 18.724032 12.666431 18.58711S12.623938 18.340416 12.616856 18.25779C12.609773 18.175165 12.603872 18.063031 12.59915 17.921388C12.712465 18.129131 12.804533 18.275496 12.875354 18.360482C13.002833 18.521011 13.159821 18.648489 13.346317 18.742918C13.532814 18.837346 13.71577 18.884561 13.895184 18.884561C14.197356 18.884561 14.457035 18.772427 14.674221 18.548159S15.0 18.053589 15.0 17.737252C15.0 17.430359 14.90203 17.168319 14.706091 16.951133S14.272899 16.625354 13.994334 16.625354C13.899906 16.625354 13.812559 16.638338 13.732295 16.664306S13.571766 16.723324 13.491501 16.763456L13.342776 16.837819C13.526912 16.573419 13.61898 16.323182 13.61898 16.08711C13.61898 15.78966 13.509207 15.534703 13.28966 15.322238S12.806893 15.003541 12.5 15.003541S11.929887 15.109773 11.71034 15.322238S11.38102 15.78966 11.38102 16.08711C11.38102 16.323182 11.473088 16.573419 11.657224 16.837819C11.624174 16.823654 11.57814 16.802408 11.519122 16.774079S11.416431 16.724504 11.388102 16.71034S11.323182 16.682011 11.278329 16.667847S11.189802 16.643059 11.147309 16.635977S11.057601 16.625354 11.005666 16.625354C10.727101 16.625354 10.489849 16.733947 10.293909 16.951133S10.0 17.430359 10.0 17.737252C10.0 18.053589 10.108593 18.32389 10.325779 18.548159S10.802644 18.884561 11.104816 18.884561C11.624174 18.884561 12.056183 18.563504 12.40085 17.921388Z" fill="#010101" />
<path d="M23.887681 4.16186Q24.20788 3.981154 24.20788 3.632422Q24.20788 3.448545 24.09375 3.315393T23.776721 3.182241Q23.65625 3.182241 23.570652 3.245646T23.485054 3.353436Q23.485054 3.359777 23.54212 3.400991T23.646739 3.511951T23.694293 3.689487Q23.694293 3.886045 23.526268 3.997005T23.085598 4.107965Q22.407156 4.107965 22.407156 3.353436Q22.407156 3.042748 22.572011 2.855701T23.066576 2.649632H23.301178Q23.345562 2.649632 23.370924 2.611588T23.396286 2.52282Q23.396286 2.465755 23.370924 2.424541T23.301178 2.376987H23.066576Q22.819293 2.351625 22.67029 2.155067T22.521286 1.679523Q22.521286 1.375175 22.692482 1.213491T23.091938 1.051806Q23.307518 1.051806 23.462862 1.175447T23.618207 1.514668Q23.618207 1.654161 23.564312 1.701715T23.459692 1.75878T23.408967 1.774632Q23.408967 1.819016 23.494565 1.882422T23.700634 1.945828Q23.903533 1.945828 24.017663 1.819016T24.131793 1.495646Q24.131793 1.184958 23.840127 1.013762T23.085598 0.842567Q22.591033 0.842567 22.267663 1.058146T21.944293 1.679523Q21.944293 1.945828 22.131341 2.174088T22.66712 2.497458V2.52282Q22.312047 2.560864 22.052083 2.747911T21.79212 3.340755Q21.79212 3.854342 22.166214 4.098454T23.10462 4.342567Q23.567482 4.342567 23.887681 4.16186Z" fill="#010101" />
<path d="M22.947946 6.83234C22.945467 6.906702 22.942369 6.966812 22.938651 7.012669C22.934933 7.058526 22.925637 7.116777 22.910765 7.187421S22.877921 7.316317 22.856852 7.362173S22.804178 7.459465 22.76204 7.516476S22.670326 7.620583 22.613314 7.657765S22.484419 7.730888 22.397663 7.765591S22.211756 7.82756 22.100212 7.847389V7.921752H23.899788V7.847389C23.788244 7.827559 23.689093 7.799674 23.602337 7.763732S23.443077 7.691228 23.384826 7.654047S23.277001 7.569149 23.236101 7.510899S23.163598 7.401214 23.141289 7.356596S23.101009 7.253728 23.087376 7.181844S23.065067 7.052329 23.061349 7.008951C23.057631 6.965573 23.054533 6.906702 23.052054 6.83234C23.111544 6.941405 23.15988 7.018246 23.197061 7.062864C23.263987 7.147142 23.346406 7.214068 23.444317 7.263643C23.542227 7.313218 23.638279 7.338006 23.732472 7.338006C23.891112 7.338006 24.027443 7.279135 24.141466 7.161394S24.3125 6.901745 24.3125 6.735668C24.3125 6.57455 24.261066 6.436979 24.158198 6.322956S23.930772 6.151922 23.784525 6.151922C23.734951 6.151922 23.689093 6.158739 23.646955 6.172372S23.562677 6.203356 23.520538 6.224426L23.442458 6.263466C23.539129 6.124656 23.587465 5.993282 23.587465 5.869344C23.587465 5.713183 23.529834 5.57933 23.414572 5.467786S23.161119 5.30047 23.0 5.30047S22.700691 5.356242 22.585428 5.467786S22.412535 5.713183 22.412535 5.869344C22.412535 5.993282 22.460871 6.124656 22.557542 6.263466C22.540191 6.25603 22.516023 6.244875 22.485039 6.230003S22.431126 6.203976 22.416254 6.19654S22.382171 6.181667 22.358623 6.174231S22.312146 6.161217 22.289837 6.157499S22.242741 6.151922 22.215475 6.151922C22.069228 6.151922 21.944671 6.208933 21.841802 6.322956S21.6875 6.57455 21.6875 6.735668C21.6875 6.901745 21.744511 7.043653 21.858534 7.161394S22.108888 7.338006 22.267528 7.338006C22.540191 7.338006 22.766996 7.16945 22.947946 6.83234Z" fill="#010101" />
<path d="M1.112319 30.83814Q0.79212 31.018846 0.79212 31.367578Q0.79212 31.551455 0.90625 31.684607T1.223279 31.817759Q1.34375 31.817759 1.429348 31.754354T1.514946 31.646564Q1.514946 31.640223 1.45788 31.599009T1.353261 31.488049T1.305707 31.310513Q1.305707 31.113955 1.473732 31.002995T1.914402 30.892035Q2.592844 30.892035 2.592844 31.646564Q2.592844 31.957252 2.427989 32.144299T1.933424 32.350368H1.698822Q1.654438 32.350368 1.629076 32.388412T1.603714 32.47718Q1.603714 32.534245 1.629076 32.575459T1.698822 32.623013H1.933424Q2.180707 32.648375 2.32971 32.844933T2.478714 33.320477Q2.478714 33.624825 2.307518 33.786509T1.908062 33.948194Q1.692482 33.948194 1.537138 33.824553T1.381793 33.485332Q1.381793 33.345839 1.435688 33.298285T1.540308 33.24122T1.591033 33.225368Q1.591033 33.180984 1.505435 33.117578T1.299366 33.054172Q1.096467 33.054172 0.982337 33.180984T0.868207 33.504354Q0.868207 33.815042 1.159873 33.986238T1.914402 34.157433Q2.408967 34.157433 2.732337 33.941854T3.055707 33.320477Q3.055707 33.054172 2.868659 32.825912T2.33288 32.502542V32.47718Q2.687953 32.439136 2.947917 32.252089T3.20788 31.659245Q3.20788 31.145658 2.833786 30.901546T1.89538 30.657433Q1.432518 30.657433 1.112319 30.83814Z" fill="#010101" />
<path d="M2.052054 28.16766C2.054533 28.093298 2.057631 28.033188 2.061349 27.987331C2.065067 27.941474 2.074363 27.883223 2.089235 27.812579S2.122079 27.683683 2.143148 27.637827S2.195822 27.540535 2.23796 27.483524S2.329674 27.379417 2.386686 27.342235S2.515581 27.269112 2.602337 27.234409S2.788244 27.17244 2.899788 27.152611V27.078248H1.100212V27.152611C1.211756 27.172441 1.310907 27.200326 1.397663 27.236268S1.556923 27.308772 1.615174 27.345953S1.722999 27.430851 1.763899 27.489101S1.836402 27.598786 1.858711 27.643404S1.898991 27.746272 1.912624 27.818156S1.934933 27.947671 1.938651 27.991049C1.942369 28.034427 1.945467 28.093298 1.947946 28.16766C1.888456 28.058595 1.84012 27.981754 1.802939 27.937136C1.736013 27.852858 1.653594 27.785932 1.555683 27.736357C1.457773 27.686782 1.361721 27.661994 1.267528 27.661994C1.108888 27.661994 0.972557 27.720865 0.858534 27.838606S0.6875 28.098255 0.6875 28.264332C0.6875 28.42545 0.738934 28.563021 0.841802 28.677044S1.069228 28.848078 1.215475 28.848078C1.265049 28.848078 1.310907 28.841261 1.353045 28.827628S1.437323 28.796644 1.479462 28.775574L1.557542 28.736534C1.460871 28.875344 1.412535 29.006718 1.412535 29.130656C1.412535 29.286817 1.470166 29.42067 1.585428 29.532214S1.838881 29.69953 2.0 29.69953S2.299309 29.643758 2.414572 29.532214S2.587465 29.286817 2.587465 29.130656C2.587465 29.006718 2.539129 28.875344 2.442458 28.736534C2.459809 28.74397 2.483977 28.755125 2.514961 28.769997S2.568874 28.796024 2.583746 28.80346S2.617829 28.818333 2.641377 28.825769S2.687854 28.838783 2.710163 28.842501S2.757259 28.848078 2.784525 28.848078C2.930772 28.848078 3.055329 28.791067 3.158198 28.677044S3.3125 28.42545 3.3125 28.264332C3.3125 28.098255 3.255489 27.956347 3.141466 27.838606S2.891112 27.661994 2.732472 27.661994C2.459809 27.661994 2.233004 27.83055 2.052054 28.16766Z" fill="#010101" />
</svg>
