<svg width="150.000000" height="210.000000" id="card-webclub1">
<radialGradient id="card-webwhitegradient" cx="75.0" cy="105.0" r="150" gradientTransform="matrix(1 0 0 1 0 -.25)" gradientUnits="userSpaceOnUse">
<stop stop-color="#FDFAF4" offset=".15"/>
<stop stop-color="#FDF9F2" offset=".35"/>
<stop stop-color="#FCF7F1" offset=".5"/>
<stop stop-color="#FDFDF8" offset=".75"/>
<stop stop-color="#FFFDFA" offset="1"/>
</radialGradient>
<rect x="0" y="0" rx="7.5" ry="7.5" width="150" height="210.0" stroke="rgba(1,1,1,0.333)" fill="url(#card-webwhitegradient)" />
<path d="M50.609065 104.915014C48.512745 105.538243 46.968841 106.487252 45.977337 107.76204S44.490085 110.410768 44.490085 111.883853C44.490085 113.583569 45.09915 115.056654 46.31728 116.303116S48.966008 118.172805 50.609065 118.172805C52.818697 118.172805 55.113314 117.365439 57.492918 115.750708S62.464589 112.223796 65.269122 110.014164S70.722382 106.274788 73.215297 105.424929C72.988668 107.691221 72.875354 109.277618 72.875354 110.184136C72.875354 121.685524 77.124646 130.070822 85.623229 135.339943C88.059493 133.130312 89.64589 131.572241 90.382436 130.665722C87.379606 128.512751 84.84419 126.048161 82.776204 123.271955S79.263459 117.818694 78.441926 115.240793S77.067986 110.609065 76.784703 109.07932S76.359773 106.274788 76.359773 105.254958C78.569405 105.991502 80.82153 107.124646 83.116147 108.654391S87.351272 111.643062 88.937677 113.031161C90.524082 114.419261 92.237958 115.637397 94.07932 116.685552S97.634558 118.25779 99.220963 118.25779C100.97734 118.25779 102.464592 117.66289 103.68272 116.473088C104.900847 115.283286 105.509915 113.810201 105.509915 112.053824C105.509915 108.654391 103.470255 106.274788 99.390935 104.915014C103.470255 103.838524 105.509915 101.543907 105.509915 98.031161C105.509915 96.274785 104.915014 94.787533 103.725212 93.569405S101.118977 91.74221 99.475921 91.74221C97.606232 91.74221 95.651558 92.322946 93.611898 93.484419S89.730875 95.963176 88.087819 97.436261C86.444762 98.909346 84.447595 100.396598 82.096317 101.898017S77.436263 104.405099 75.169972 104.915014C75.963173 102.025496 77.478756 99.050992 79.716714 95.991501S83.951839 90.169972 85.708215 87.705382C87.464592 85.240793 88.342776 82.988669 88.342776 80.949008C88.342776 79.13598 87.747875 77.634561 86.558074 76.444759S83.866853 74.660057 82.053824 74.660057C78.711051 74.660057 76.388099 76.699717 75.084986 80.779037C74.461757 78.682717 73.526915 77.138813 72.280453 76.147309S69.645892 74.660057 68.116147 74.660057C66.416431 74.660057 64.943346 75.254958 63.696884 76.444759C62.450422 77.634561 61.827195 79.050994 61.827195 80.694051C61.827195 83.016994 62.677054 85.467425 64.376771 88.045326C66.076487 90.623227 67.988669 93.385266 70.113314 96.331445S73.668552 102.138807 74.405099 104.915014C72.025496 104.291785 69.645892 103.215297 67.266289 101.685552S62.903686 98.668555 61.31728 97.223796S57.988666 94.490082 56.090652 93.356941S52.450428 91.657224 50.864023 91.657224C49.050994 91.657224 47.535408 92.266289 46.31728 93.484419S44.490085 96.189799 44.490085 97.946176C44.490085 101.288949 46.529745 103.611901 50.609065 104.915014Z" fill="#010101" />
<path d="M148.359165 25.366875Q148.5 25.163448 148.5 24.881779Q148.468703 24.41233 148.312221 24.31844T147.936662 24.224551H147.654993Q146.716095 24.224551 146.277943 23.739454T145.57377 22.644074T145.21386 21.814714L139.73696 8.857934Q139.54918 8.388485 139.54918 8.106816Q139.54918 7.543477 139.987332 7.293105T141.207899 6.886249Q141.73994 6.79236 141.865127 6.69847T141.990313 6.166428Q141.990313 5.790869 141.786885 5.665683T141.145306 5.540497Q139.580477 5.540497 138.657228 5.775221T137.045455 6.714118T135.762295 8.857934L130.504471 21.814714Q130.035022 23.003984 129.59687 23.598619T128.282414 24.224551H128.094635Q127.781669 24.224551 127.656483 24.334089T127.5 24.881779Q127.5 25.163448 127.640835 25.366875T128.063338 25.570303Q130.066319 25.476413 131.505961 25.476413Q133.383756 25.476413 135.386736 25.570303Q135.668405 25.570303 135.80924 25.366875T135.950075 24.881779Q135.918778 24.443627 135.793592 24.334089T135.35544 24.224551Q134.291356 24.224551 133.853204 24.021123T133.415052 23.285653Q133.415052 22.878798 133.790611 21.814714L134.854694 19.217099H142.584948Q143.367362 21.157486 143.4769 21.470452T143.586438 21.814714Q143.961997 23.003984 143.961997 23.348246Q143.961997 23.880288 143.492548 24.052419T141.708644 24.224551H141.520864Q141.207899 24.224551 141.082712 24.334089T140.92623 24.881779Q140.92623 25.163448 141.067064 25.366875T141.489568 25.570303Q143.492548 25.476413 144.900894 25.476413Q145.902385 25.476413 147.936662 25.570303Q148.218331 25.570303 148.359165 25.366875ZM141.990313 17.871346H135.418033L138.578987 9.828127H138.672876Z" fill="#010101" />
<path d="M137.687677 40.994039C137.672805 41.440215 137.654214 41.800874 137.631905 42.076015C137.609596 42.351156 137.553824 42.700661 137.464589 43.124528S137.267528 43.8979 137.141112 44.173041S136.82507 44.756788 136.572238 45.098855S136.021954 45.723501 135.679887 45.946589S134.906515 46.385329 134.385977 46.593543S133.270538 46.965357 132.601275 47.084337V47.530512H143.398725V47.084337C142.729462 46.965357 142.13456 46.798041 141.614023 46.582389S140.658464 46.147368 140.308959 45.92428S139.662004 45.414897 139.416608 45.065392S138.981586 44.407283 138.847734 44.139577S138.606056 43.522367 138.524256 43.091065S138.390404 42.313976 138.368095 42.053706C138.345786 41.793436 138.327196 41.440215 138.312323 40.994039C138.669263 41.648429 138.959278 42.109478 139.182365 42.377184C139.583924 42.88285 140.078436 43.284408 140.665899 43.581858C141.253363 43.879308 141.829675 44.028034 142.39483 44.028034C143.346672 44.028034 144.164659 43.674812 144.848796 42.968366S145.875 41.410471 145.875 40.414011C145.875 39.447298 145.566396 38.621873 144.949186 37.937736S143.584631 36.911532 142.707153 36.911532C142.409703 36.911532 142.13456 36.952431 141.881728 37.03423S141.376062 37.220137 141.123229 37.346553L140.654745 37.580796C141.234773 36.747935 141.524788 35.95969 141.524788 35.216065C141.524788 34.279096 141.179001 33.47598 140.487429 32.806716S138.966713 31.802821 138.0 31.802821S136.204143 32.137453 135.512571 32.806716S134.475212 34.279096 134.475212 35.216065C134.475212 35.95969 134.765227 36.747935 135.345255 37.580796C135.241147 37.536178 135.096139 37.469252 134.910234 37.380017S134.586756 37.223855 134.497521 37.179237S134.293024 37.090002 134.151735 37.045385S133.872875 36.967304 133.739023 36.944995S133.456444 36.911532 133.292847 36.911532C132.415369 36.911532 131.668025 37.253599 131.050814 37.937736S130.125 39.447298 130.125 40.414011C130.125 41.410471 130.467067 42.261921 131.151204 42.968366S132.653328 44.028034 133.60517 44.028034C135.241147 44.028034 136.601976 43.016703 137.687677 40.994039Z" fill="#010101" />
<path d="M1.640835 184.633125Q1.5 184.836552 1.5 185.118221Q1.531297 185.58767 1.687779 185.68156T2.063338 185.775449H2.345007Q3.283905 185.775449 3.722057 186.260546T4.42623 187.355926T4.78614 188.185286L10.26304 201.142066Q10.45082 201.611515 10.45082 201.893184Q10.45082 202.456523 10.012668 202.706895T8.792101 203.113751Q8.26006 203.20764 8.134873 203.30153T8.009687 203.833572Q8.009687 204.209131 8.213115 204.334317T8.854694 204.459503Q10.419523 204.459503 11.342772 204.224779T12.954545 203.285882T14.237705 201.142066L19.495529 188.185286Q19.964978 186.996016 20.40313 186.401381T21.717586 185.775449H21.905365Q22.218331 185.775449 22.343517 185.665911T22.5 185.118221Q22.5 184.836552 22.359165 184.633125T21.936662 184.429697Q19.933681 184.523587 18.494039 184.523587Q16.616244 184.523587 14.613264 184.429697Q14.331595 184.429697 14.19076 184.633125T14.049925 185.118221Q14.081222 185.556373 14.206408 185.665911T14.64456 185.775449Q15.708644 185.775449 16.146796 185.978877T16.584948 186.714347Q16.584948 187.121202 16.209389 188.185286L15.145306 190.782901H7.415052Q6.632638 188.842514 6.5231 188.529548T6.413562 188.185286Q6.038003 186.996016 6.038003 186.651754Q6.038003 186.119712 6.507452 185.947581T8.291356 185.775449H8.479136Q8.792101 185.775449 8.917288 185.665911T9.07377 185.118221Q9.07377 184.836552 8.932936 184.633125T8.510432 184.429697Q6.507452 184.523587 5.099106 184.523587Q4.097615 184.523587 2.063338 184.429697Q1.781669 184.429697 1.640835 184.633125ZM8.009687 192.128654H14.581967L11.421013 200.171873H11.327124Z" fill="#010101" />
<path d="M12.312323 169.005961C12.327195 168.559785 12.345786 168.199126 12.368095 167.923985C12.390404 167.648844 12.446176 167.299339 12.535411 166.875472S12.732472 166.1021 12.858888 165.826959S13.17493 165.243212 13.427762 164.901145S13.978046 164.276499 14.320113 164.053411S15.093485 163.614671 15.614023 163.406457S16.729462 163.034643 17.398725 162.915663V162.469488H6.601275V162.915663C7.270538 163.034643 7.86544 163.201959 8.385977 163.417611S9.341536 163.852632 9.691041 164.07572S10.337996 164.585103 10.583392 164.934608S11.018414 165.592717 11.152266 165.860423S11.393944 166.477633 11.475744 166.908935S11.609596 167.686024 11.631905 167.946294C11.654214 168.206564 11.672804 168.559785 11.687677 169.005961C11.330737 168.351571 11.040722 167.890522 10.817635 167.622816C10.416076 167.11715 9.921564 166.715592 9.334101 166.418142C8.746637 166.120692 8.170325 165.971966 7.60517 165.971966C6.653328 165.971966 5.835341 166.325188 5.151204 167.031634S4.125 168.589529 4.125 169.585989C4.125 170.552702 4.433604 171.378127 5.050814 172.062264S6.415369 173.088468 7.292847 173.088468C7.590297 173.088468 7.86544 173.047569 8.118272 172.96577S8.623938 172.779863 8.876771 172.653447L9.345255 172.419204C8.765227 173.252065 8.475212 174.04031 8.475212 174.783935C8.475212 175.720904 8.820999 176.52402 9.512571 177.193284S11.033287 178.197179 12.0 178.197179S13.795857 177.862547 14.487429 177.193284S15.524788 175.720904 15.524788 174.783935C15.524788 174.04031 15.234773 173.252065 14.654745 172.419204C14.758853 172.463822 14.903861 172.530748 15.089766 172.619983S15.413244 172.776145 15.502479 172.820763S15.706976 172.909998 15.848265 172.954615S16.127125 173.032696 16.260977 173.055005S16.543556 173.088468 16.707153 173.088468C17.584631 173.088468 18.331975 172.746401 18.949186 172.062264S19.875 170.552702 19.875 169.585989C19.875 168.589529 19.532933 167.738079 18.848796 167.031634S17.346672 165.971966 16.39483 165.971966C14.758853 165.971966 13.398024 166.983297 12.312323 169.005961Z" fill="#010101" />
</svg>
