<svg width="25.000000" height="35.000000" id="card-lightheart3">
<rect x="0" y="0" rx="1.25" ry="1.25" width="25" height="35.0" stroke="rgba(1,1,1,0.333)" fill="#fffdfa" />
<path d="M12.493036 4.336119C12.400186 3.992572 12.250464 3.739554 12.043872 3.577066S11.608635 3.333333 11.357939 3.333333C11.074744 3.333333 10.832173 3.430826 10.630223 3.625812S10.327298 4.055246 10.327298 4.329155C10.327298 4.579851 10.388811 4.835191 10.511838 5.095172S10.79039 5.605849 10.978412 5.847261S11.357939 6.331244 11.552925 6.574977S11.934772 7.0961 12.11351 7.407149S12.418756 8.026927 12.493036 8.333333C12.576602 8.012999 12.710075 7.691504 12.893454 7.368849S13.266017 6.760678 13.461003 6.512303C13.655989 6.263927 13.846332 6.020195 14.032033 5.781105S14.370938 5.301764 14.491643 5.060353S14.672702 4.589136 14.672702 4.370938C14.672702 4.078459 14.574048 3.832405 14.376741 3.632776C14.179434 3.433147 13.936861 3.333333 13.649025 3.333333C13.096565 3.333333 12.711233 3.667595 12.493036 4.336119Z" fill="#da0a0a" />
<path d="M12.506964 30.663881C12.599814 31.007428 12.749536 31.260446 12.956128 31.422934S13.391365 31.666667 13.642061 31.666667C13.925256 31.666667 14.167827 31.569174 14.369777 31.374188S14.672702 30.944754 14.672702 30.670845C14.672702 30.420149 14.611189 30.164809 14.488162 29.904828S14.20961 29.394151 14.021588 29.152739S13.642061 28.668756 13.447075 28.425023S13.065228 27.9039 12.88649 27.592851S12.581244 26.973073 12.506964 26.666667C12.423398 26.987001 12.289925 27.308496 12.106546 27.631151S11.733983 28.239322 11.538997 28.487697C11.344011 28.736073 11.153668 28.979805 10.967967 29.218895S10.629062 29.698236 10.508357 29.939647S10.327298 30.410864 10.327298 30.629062C10.327298 30.921541 10.425952 31.167595 10.623259 31.367224C10.820566 31.566853 11.063139 31.666667 11.350975 31.666667C11.903435 31.666667 12.288767 31.332405 12.506964 30.663881Z" fill="#da0a0a" />
<path d="M12.493036 16.002786C12.400186 15.659239 12.250464 15.406221 12.043872 15.243733S11.608635 15.0 11.357939 15.0C11.074744 15.0 10.832173 15.097493 10.630223 15.292479S10.327298 15.721913 10.327298 15.995822C10.327298 16.246518 10.388811 16.501857 10.511838 16.761838S10.79039 17.272516 10.978412 17.513928S11.357939 17.997911 11.552925 18.241643S11.934772 18.762767 12.11351 19.073816S12.418756 19.693593 12.493036 20.0C12.576602 19.679666 12.710075 19.358171 12.893454 19.035515S13.266017 18.427345 13.461003 18.178969C13.655989 17.930594 13.846332 17.686861 14.032033 17.447772S14.370938 16.968431 14.491643 16.727019S14.672702 16.255803 14.672702 16.037604C14.672702 15.745125 14.574048 15.499072 14.376741 15.299443C14.179434 15.099814 13.936861 15.0 13.649025 15.0C13.096565 15.0 12.711233 15.334262 12.493036 16.002786Z" fill="#da0a0a" />
<path d="M23.887681 4.16186Q24.20788 3.981154 24.20788 3.632422Q24.20788 3.448545 24.09375 3.315393T23.776721 3.182241Q23.65625 3.182241 23.570652 3.245646T23.485054 3.353436Q23.485054 3.359777 23.54212 3.400991T23.646739 3.511951T23.694293 3.689487Q23.694293 3.886045 23.526268 3.997005T23.085598 4.107965Q22.407156 4.107965 22.407156 3.353436Q22.407156 3.042748 22.572011 2.855701T23.066576 2.649632H23.301178Q23.345562 2.649632 23.370924 2.611588T23.396286 2.52282Q23.396286 2.465755 23.370924 2.424541T23.301178 2.376987H23.066576Q22.819293 2.351625 22.67029 2.155067T22.521286 1.679523Q22.521286 1.375175 22.692482 1.213491T23.091938 1.051806Q23.307518 1.051806 23.462862 1.175447T23.618207 1.514668Q23.618207 1.654161 23.564312 1.701715T23.459692 1.75878T23.408967 1.774632Q23.408967 1.819016 23.494565 1.882422T23.700634 1.945828Q23.903533 1.945828 24.017663 1.819016T24.131793 1.495646Q24.131793 1.184958 23.840127 1.013762T23.085598 0.842567Q22.591033 0.842567 22.267663 1.058146T21.944293 1.679523Q21.944293 1.945828 22.131341 2.174088T22.66712 2.497458V2.52282Q22.312047 2.560864 22.052083 2.747911T21.79212 3.340755Q21.79212 3.854342 22.166214 4.098454T23.10462 4.342567Q23.567482 4.342567 23.887681 4.16186Z" fill="#da0a0a" />
<path d="M22.996344 5.825074C22.947598 5.644712 22.868994 5.511877 22.760533 5.426571S22.532033 5.298611 22.400418 5.298611C22.251741 5.298611 22.124391 5.349795 22.018367 5.452163S21.859331 5.677615 21.859331 5.821418C21.859331 5.953033 21.891626 6.087086 21.956215 6.223576S22.102455 6.491682 22.201166 6.618423S22.400418 6.872514 22.502786 7.000474S22.703255 7.274064 22.797093 7.437365S22.957347 7.762748 22.996344 7.923611C23.040216 7.755436 23.110289 7.586651 23.206563 7.417257S23.402159 7.097967 23.504526 6.96757C23.606894 6.837173 23.706824 6.709213 23.804318 6.583691S23.982242 6.332037 24.045613 6.205296S24.140669 5.957908 24.140669 5.843353C24.140669 5.689802 24.088875 5.560624 23.985289 5.455819C23.881703 5.351013 23.754352 5.298611 23.603238 5.298611C23.313197 5.298611 23.110897 5.474099 22.996344 5.825074Z" fill="#da0a0a" />
<path d="M1.112319 30.83814Q0.79212 31.018846 0.79212 31.367578Q0.79212 31.551455 0.90625 31.684607T1.223279 31.817759Q1.34375 31.817759 1.429348 31.754354T1.514946 31.646564Q1.514946 31.640223 1.45788 31.599009T1.353261 31.488049T1.305707 31.310513Q1.305707 31.113955 1.473732 31.002995T1.914402 30.892035Q2.592844 30.892035 2.592844 31.646564Q2.592844 31.957252 2.427989 32.144299T1.933424 32.350368H1.698822Q1.654438 32.350368 1.629076 32.388412T1.603714 32.47718Q1.603714 32.534245 1.629076 32.575459T1.698822 32.623013H1.933424Q2.180707 32.648375 2.32971 32.844933T2.478714 33.320477Q2.478714 33.624825 2.307518 33.786509T1.908062 33.948194Q1.692482 33.948194 1.537138 33.824553T1.381793 33.485332Q1.381793 33.345839 1.435688 33.298285T1.540308 33.24122T1.591033 33.225368Q1.591033 33.180984 1.505435 33.117578T1.299366 33.054172Q1.096467 33.054172 0.982337 33.180984T0.868207 33.504354Q0.868207 33.815042 1.159873 33.986238T1.914402 34.157433Q2.408967 34.157433 2.732337 33.941854T3.055707 33.320477Q3.055707 33.054172 2.868659 32.825912T2.33288 32.502542V32.47718Q2.687953 32.439136 2.947917 32.252089T3.20788 31.659245Q3.20788 31.145658 2.833786 30.901546T1.89538 30.657433Q1.432518 30.657433 1.112319 30.83814Z" fill="#da0a0a" />
<path d="M2.003656 29.174926C2.052402 29.355288 2.131006 29.488123 2.239467 29.573429S2.467967 29.701389 2.599582 29.701389C2.748259 29.701389 2.875609 29.650205 2.981633 29.547837S3.140669 29.322385 3.140669 29.178582C3.140669 29.046967 3.108374 28.912914 3.043785 28.776424S2.897545 28.508318 2.798834 28.381577S2.599582 28.127486 2.497214 27.999526S2.296745 27.725936 2.202907 27.562635S2.042653 27.237252 2.003656 27.076389C1.959784 27.244564 1.889711 27.413349 1.793437 27.582743S1.597841 27.902033 1.495474 28.03243C1.393106 28.162827 1.293176 28.290787 1.195682 28.416309S1.017758 28.667963 0.954387 28.794704S0.859331 29.042092 0.859331 29.156647C0.859331 29.310198 0.911125 29.439376 1.014711 29.544181C1.118297 29.648987 1.245648 29.701389 1.396762 29.701389C1.686803 29.701389 1.889103 29.525901 2.003656 29.174926Z" fill="#da0a0a" />
</svg>
