<svg width="500.000000" height="700.000000" id="card-realdiamond10">
<radialGradient id="card-realwhitegradient" cx="250.0" cy="350.0" r="500" gradientTransform="matrix(1 0 0 1 0 -.25)" gradientUnits="userSpaceOnUse">
<stop stop-color="#FDFAF4" offset=".15"/>
<stop stop-color="#FDF9F2" offset=".35"/>
<stop stop-color="#FCF7F1" offset=".5"/>
<stop stop-color="#FDFDF8" offset=".75"/>
<stop stop-color="#FFFDFA" offset="1"/>
</radialGradient>
<rect x="0" y="0" rx="25.0" ry="25.0" width="500" height="700.0" stroke="rgba(1,1,1,0.333)" fill="url(#card-realwhitegradient)" />
<path d="M150.139082 66.666667C147.913769 71.117293 142.535925 79.114511 134.005563 90.658322C125.475202 102.202133 118.613769 110.848447 113.421419 116.597126C119.911919 124.014831 126.889193 132.823412 134.353268 143.022717C141.817344 153.222063 147.079277 161.103384 150.139082 166.666667C157.000459 154.427446 169.14701 137.737599 186.578581 116.597126C168.68331 94.993092 156.536857 78.34956 150.139082 66.666667Z" fill="#da0a0a" />
<path d="M149.860918 633.333333C152.086231 628.882707 157.464075 620.885489 165.994437 609.341678C174.524798 597.797867 181.386231 589.151553 186.578581 583.402874C180.088081 575.985169 173.110807 567.176588 165.646732 556.977283C158.182656 546.777937 152.920723 538.896616 149.860918 533.333333C142.999541 545.572554 130.85299 562.262401 113.421419 583.402874C131.31669 605.006908 143.463143 621.65044 149.860918 633.333333Z" fill="#da0a0a" />
<path d="M150.139082 222.222222C147.913769 226.672848 142.535925 234.670066 134.005563 246.213877C125.475202 257.757688 118.613769 266.404002 113.421419 272.152681C119.911919 279.570386 126.889193 288.378968 134.353268 298.578272C141.817344 308.777619 147.079277 316.65894 150.139082 322.222222C157.000459 309.983001 169.14701 293.293154 186.578581 272.152681C168.68331 250.548648 156.536857 233.905115 150.139082 222.222222Z" fill="#da0a0a" />
<path d="M149.860918 477.777778C152.086231 473.327152 157.464075 465.329934 165.994437 453.786123C174.524798 442.242312 181.386231 433.595998 186.578581 427.847319C180.088081 420.429614 173.110807 411.621032 165.646732 401.421728C158.182656 391.222381 152.920723 383.34106 149.860918 377.777778C142.999541 390.016999 130.85299 406.706846 113.421419 427.847319C131.31669 449.451352 143.463143 466.094885 149.860918 477.777778Z" fill="#da0a0a" />
<path d="M350.139082 66.666667C347.913769 71.117293 342.535925 79.114511 334.005563 90.658322C325.475202 102.202133 318.613769 110.848447 313.421419 116.597126C319.911919 124.014831 326.889193 132.823412 334.353268 143.022717C341.817344 153.222063 347.079277 161.103384 350.139082 166.666667C357.000459 154.427446 369.14701 137.737599 386.578581 116.597126C368.68331 94.993092 356.536857 78.34956 350.139082 66.666667Z" fill="#da0a0a" />
<path d="M349.860918 633.333333C352.086231 628.882707 357.464075 620.885489 365.994437 609.341678C374.524798 597.797867 381.386231 589.151553 386.578581 583.402874C380.088081 575.985169 373.110807 567.176588 365.646732 556.977283C358.182656 546.777937 352.920723 538.896616 349.860918 533.333333C342.999541 545.572554 330.85299 562.262401 313.421419 583.402874C331.31669 605.006908 343.463143 621.65044 349.860918 633.333333Z" fill="#da0a0a" />
<path d="M350.139082 222.222222C347.913769 226.672848 342.535925 234.670066 334.005563 246.213877C325.475202 257.757688 318.613769 266.404002 313.421419 272.152681C319.911919 279.570386 326.889193 288.378968 334.353268 298.578272C341.817344 308.777619 347.079277 316.65894 350.139082 322.222222C357.000459 309.983001 369.14701 293.293154 386.578581 272.152681C368.68331 250.548648 356.536857 233.905115 350.139082 222.222222Z" fill="#da0a0a" />
<path d="M349.860918 477.777778C352.086231 473.327152 357.464075 465.329934 365.994437 453.786123C374.524798 442.242312 381.386231 433.595998 386.578581 427.847319C380.088081 420.429614 373.110807 411.621032 365.646732 401.421728C358.182656 391.222381 352.920723 383.34106 349.860918 377.777778C342.999541 390.016999 330.85299 406.706846 313.421419 427.847319C331.31669 449.451352 343.463143 466.094885 349.860918 477.777778Z" fill="#da0a0a" />
<path d="M250.139082 144.444444C247.913769 148.89507 242.535925 156.892289 234.005563 168.4361C225.475202 179.97991 218.613769 188.626225 213.421419 194.374903C219.911919 201.792609 226.889193 210.60119 234.353268 220.800495C241.817344 230.999841 247.079277 238.881162 250.139082 244.444444C257.000459 232.205223 269.14701 215.515376 286.578581 194.374903C268.68331 172.77087 256.536857 156.127337 250.139082 144.444444Z" fill="#da0a0a" />
<path d="M249.860918 555.555556C252.086231 551.10493 257.464075 543.107711 265.994437 531.5639C274.524798 520.02009 281.386231 511.373775 286.578581 505.625097C280.088081 498.207391 273.110807 489.39881 265.646732 479.199505C258.182656 469.000159 252.920723 461.118838 249.860918 455.555556C242.999541 467.794777 230.85299 484.484624 213.421419 505.625097C231.31669 527.22913 243.463143 543.872663 249.860918 555.555556Z" fill="#da0a0a" />
<path d="M494.511942 83.033152Q494.427094 81.505879 494.130127 80.996788T493.154379 80.487697Q488.402912 80.487697 486.408992 79.91497T483.439325 76.924061T482.463577 68.778606V42.305879Q482.37873 36.324061 482.845392 33.71497T484.49992 30.342242T488.402912 29.578606H492.560446Q494.087703 29.578606 494.087703 26.524061Q494.002856 24.61497 493.578618 24.169515T492.518022 23.724061H491.627122Q488.063521 23.724061 484.669616 22.005879T477.287871 17.869515Q476.778786 17.61497 476.439395 17.61497Q475.081833 17.61497 475.081833 20.542242V68.778606Q475.081833 74.378606 474.190933 76.796788T471.390961 79.851333T465.239507 80.487697H464.391031Q463.71225 80.487697 463.415283 80.996788T463.033468 83.033152Q463.033468 86.087697 464.560726 86.087697Q470.669756 85.705879 478.815129 85.705879Q486.875654 85.705879 492.984684 86.087697Q494.511942 86.087697 494.511942 83.033152ZM456.83926 82.01497Q461.378609 77.178606 463.627071 69.160424T465.875533 51.724061Q465.875533 42.178606 463.627071 34.287697T456.83926 21.624061T445.681796 16.851333Q439.403071 16.851333 434.821298 21.687697T427.863792 34.542242T425.488058 51.724061T427.863792 68.905879T434.821298 81.887697T445.681796 86.851333Q452.299912 86.851333 456.83926 82.01497ZM436.772794 74.251333Q433.633432 66.360424 433.633432 51.724061T436.772794 29.324061T445.596948 21.560424Q451.451435 21.560424 454.590798 29.260424T457.73016 51.724061T454.590798 74.31497T445.596948 82.142242Q439.912157 82.142242 436.772794 74.251333Z" fill="#da0a0a" />
<path d="M460.073018 105.972222C458.904729 108.308801 456.081361 112.50734 451.602921 118.567841C447.124481 124.628342 443.522229 129.167657 440.796245 132.185713C444.203758 136.080008 447.866826 140.704514 451.785466 146.059149C455.704105 151.413805 458.46662 155.551499 460.073018 158.472222C463.675241 152.046631 470.05218 143.284461 479.203755 132.185713C469.808738 120.843596 463.43185 112.105741 460.073018 105.972222Z" fill="#da0a0a" />
<path d="M5.488058 616.966848Q5.572906 618.494121 5.869873 619.003212T6.845621 619.512303Q11.597088 619.512303 13.591008 620.08503T16.560675 623.075939T17.536423 631.221394V657.694121Q17.62127 663.675939 17.154608 666.28503T15.50008 669.657758T11.597088 670.421394H7.439554Q5.912297 670.421394 5.912297 673.475939Q5.997144 675.38503 6.421382 675.830485T7.481978 676.275939H8.372878Q11.936479 676.275939 15.330384 677.994121T22.712129 682.130485Q23.221214 682.38503 23.560605 682.38503Q24.918167 682.38503 24.918167 679.457758V631.221394Q24.918167 625.621394 25.809067 623.203212T28.609039 620.148667T34.760493 619.512303H35.608969Q36.28775 619.512303 36.584717 619.003212T36.966532 616.966848Q36.966532 613.912303 35.439274 613.912303Q29.330244 614.294121 21.184871 614.294121Q13.124346 614.294121 7.015316 613.912303Q5.488058 613.912303 5.488058 616.966848ZM43.16074 617.98503Q38.621391 622.821394 36.372929 630.839576T34.124467 648.275939Q34.124467 657.821394 36.372929 665.712303T43.16074 678.375939T54.318204 683.148667Q60.596929 683.148667 65.178702 678.312303T72.136208 665.457758T74.511942 648.275939T72.136208 631.094121T65.178702 618.112303T54.318204 613.148667Q47.700088 613.148667 43.16074 617.98503ZM63.227206 625.748667Q66.366568 633.639576 66.366568 648.275939T63.227206 670.675939T54.403052 678.439576Q48.548565 678.439576 45.409202 670.739576T42.26984 648.275939T45.409202 625.68503T54.403052 617.857758Q60.087843 617.857758 63.227206 625.748667Z" fill="#da0a0a" />
<path d="M39.926982 594.027778C41.095271 591.691199 43.918639 587.49266 48.397079 581.432159C52.875519 575.371658 56.477771 570.832343 59.203755 567.814287C55.796242 563.919992 52.133174 559.295486 48.214534 553.940851C44.295895 548.586195 41.53338 544.448501 39.926982 541.527778C36.324759 547.953369 29.94782 556.715539 20.796245 567.814287C30.191262 579.156404 36.56815 587.894259 39.926982 594.027778Z" fill="#da0a0a" />
</svg>
