<svg width="500.000000" height="700.000000" id="card-realdiamond11">
<radialGradient id="card-realwhitegradient" cx="250.0" cy="350.0" r="500" gradientTransform="matrix(1 0 0 1 0 -.25)" gradientUnits="userSpaceOnUse">
<stop stop-color="#FDFAF4" offset=".15"/>
<stop stop-color="#FDF9F2" offset=".35"/>
<stop stop-color="#FCF7F1" offset=".5"/>
<stop stop-color="#FDFDF8" offset=".75"/>
<stop stop-color="#FFFDFA" offset="1"/>
</radialGradient>
<rect x="0" y="0" rx="25.0" ry="25.0" width="500" height="700.0" stroke="rgba(1,1,1,0.333)" fill="url(#card-realwhitegradient)" />
<rect x="100.0" y="70.0" width="300.0" height="560.0" stroke="#010101" fill="#fffdfa" />
<path d="M313.004172 240.706321C310.407975 240.706321 309.109875 242.468026 309.109875 245.991439C309.109875 250.627517 311.427908 252.945542 316.063978 252.945542C317.918406 252.945542 318.845619 251.462001 318.845619 248.494916C318.845619 243.30251 316.89847 240.706321 313.004172 240.706321ZM292.976356 206.770298C295.572554 206.770298 296.870654 205.194034 296.870654 202.041508C296.870654 198.518087 295.108949 195.272857 291.585535 192.305764C288.062114 189.338671 284.445981 187.855138 280.737135 187.855138C276.471961 187.855138 274.33936 189.153238 274.33936 191.749436C274.33936 195.087405 276.564673 198.425375 281.015299 201.763344S289.452935 206.770298 292.976356 206.770298ZM290.751043 154.475444C290.009271 157.071642 289.638387 158.833358 289.638387 159.760563C289.638387 160.316891 289.916551 161.800432 290.472879 164.211188C289.360223 164.211188 287.366704 163.701222 284.49235 162.681286S279.531766 160.687775 278.233658 159.760563C283.240612 157.164365 287.413074 155.402649 290.751043 154.475444ZM242.072323 230.692412C242.072323 238.851884 244.297636 247.150465 248.748261 255.588101S257.881307 271.860702 262.795549 279.092969S270.445063 291.98123 271.001391 296.06098H179.207232C178.46546 287.530604 178.094576 281.225569 178.094576 277.14582C178.094576 261.012301 180.36625 246.084067 184.909597 232.361397C189.452935 218.638643 194.830793 207.882955 201.043115 200.094359S213.096885 186.278866 218.567455 182.013692C224.038025 177.748518 228.349569 175.615917 231.502086 175.615917H248.191933C249.675474 174.874145 251.019944 171.536168 252.225313 165.602009C253.43069 159.66785 254.960592 155.958977 256.815021 154.475444C258.298562 159.296946 260.848401 162.727656 264.464534 164.767517C268.080668 166.807386 272.531293 168.569102 277.816412 170.052635S287.227622 173.390604 290.194715 175.615917C292.420028 183.21906 298.400556 196.292774 308.1363 214.837058S323.110793 245.156946 323.852573 250.1639C323.110801 252.945542 321.349096 255.449019 318.567455 257.674332S312.81872 261.012301 309.666203 261.012301C308.368103 261.012301 306.69911 260.270529 304.659249 258.786988S300.764951 256.561675 299.095967 256.561675C298.168754 256.561675 297.705146 257.118003 297.705146 258.23066L298.539638 260.734137C299.095967 262.403122 299.374131 263.330334 299.374131 263.515778C299.374131 265.184763 298.076031 266.019255 295.479833 266.019255C295.108949 266.019255 292.790912 262.773998 288.52573 256.283511C280.366259 243.673414 268.776078 234.123094 253.755216 227.632607C252.642559 220.214888 250.278164 213.446237 246.662031 207.326626S240.217886 198.147211 238.178025 198.147211C236.50904 198.147211 235.674548 199.352588 235.674548 201.763344C235.674548 203.061444 236.833566 207.002092 239.151599 213.585319S242.628651 224.665514 242.628651 227.076279C242.628651 227.632607 242.443208 228.837984 242.072323 230.692412ZM236.230876 163.933024C232.336579 163.933024 227.793241 164.95296 222.600834 166.99283C217.408428 169.032699 211.47427 172.880646 204.798331 178.53664S192.049152 191.239478 186.578581 199.677113S176.471961 219.612218 172.670376 234.169464C168.86879 248.72671 166.968011 264.999227 166.968011 282.987266C166.968011 291.703066 167.338896 299.491661 168.080668 306.353052H284.631433C284.075104 297.822677 282.267038 290.219533 279.207232 283.543594S272.855828 271.767989 269.332406 268.244568C265.808985 264.721147 262.424673 260.316891 259.179416 255.031773S253.940668 244.04429 253.198887 237.924679C260.431154 241.077197 266.597135 244.925152 271.696801 249.46849S280.366259 258.137948 282.40612 261.846793S286.439499 268.754526 288.386648 271.443455C290.333797 274.132376 292.234576 275.476835 294.089013 275.476835C297.24153 275.476835 300.023171 274.735063 302.433936 273.251522S306.142782 269.913553 306.328234 267.68824C308.182662 268.615453 310.037079 269.07906 311.891516 269.07906C320.607316 269.07906 327.654159 263.515778 333.031989 252.389213C331.919332 245.342398 325.799722 230.089714 314.673157 206.631216S297.98331 168.012857 297.98331 161.151383C297.98331 160.22417 298.539638 155.031773 299.652295 145.574193C288.154854 145.574193 277.862782 148.72671 268.776078 155.031773C263.769124 146.315973 259.596662 141.958059 256.258693 141.958059C251.808067 144.368816 248.609179 147.057725 246.662031 150.024818S242.814103 157.813414 240.959666 164.489352C239.105238 164.118468 237.528985 163.933024 236.230876 163.933024Z" fill="#da0a0a" />
<path d="M186.995828 459.293679C189.592025 459.293679 190.890125 457.531974 190.890125 454.008561C190.890125 449.372483 188.572092 447.054458 183.936022 447.054458C182.081594 447.054458 181.154381 448.537999 181.154381 451.505084C181.154381 456.69749 183.10153 459.293679 186.995828 459.293679ZM207.023644 493.229702C204.427446 493.229702 203.129346 494.805966 203.129346 497.958492C203.129346 501.481913 204.891051 504.727143 208.414465 507.694236C211.937886 510.661329 215.554019 512.144862 219.262865 512.144862C223.528039 512.144862 225.66064 510.846762 225.66064 508.250564C225.66064 504.912595 223.435327 501.574625 218.984701 498.236656S210.547065 493.229702 207.023644 493.229702ZM209.248957 545.524556C209.990729 542.928358 210.361613 541.166642 210.361613 540.239437C210.361613 539.683109 210.083449 538.199568 209.527121 535.788812C210.639777 535.788812 212.633296 536.298778 215.50765 537.318714S220.468234 539.312225 221.766342 540.239437C216.759388 542.835635 212.586926 544.597351 209.248957 545.524556ZM257.927677 469.307588C257.927677 461.148116 255.702364 452.849535 251.251739 444.411899S242.118693 428.139298 237.204451 420.907031S229.554937 408.01877 228.998609 403.93902H320.792768C321.53454 412.469396 321.905424 418.774431 321.905424 422.85418C321.905424 438.987699 319.63375 453.915933 315.090403 467.638603C310.547065 481.361357 305.169207 492.117045 298.956885 499.905641S286.903115 513.721134 281.432545 517.986308C275.961975 522.251482 271.650431 524.384083 268.497914 524.384083H251.808067C250.324526 525.125855 248.980056 528.463832 247.774687 534.397991C246.56931 540.33215 245.039408 544.041023 243.184979 545.524556C241.701438 540.703054 239.151599 537.272344 235.535466 535.232483C231.919332 533.192614 227.468707 531.430898 222.183588 529.947365S212.772378 526.609396 209.805285 524.384083C207.579972 516.78094 201.599444 503.707226 191.8637 485.162942S176.889207 454.843054 176.147427 449.8361C176.889199 447.054458 178.650904 444.550981 181.432545 442.325668S187.18128 438.987699 190.333797 438.987699C191.631897 438.987699 193.30089 439.729471 195.340751 441.213012S199.235049 443.438325 200.904033 443.438325C201.831246 443.438325 202.294854 442.881997 202.294854 441.76934L201.460362 439.265863C200.904033 437.596878 200.625869 436.669666 200.625869 436.484222C200.625869 434.815237 201.923969 433.980745 204.520167 433.980745C204.891051 433.980745 207.209088 437.226002 211.47427 443.716489C219.633741 456.326586 231.223922 465.876906 246.244784 472.367393C247.357441 479.785112 249.721836 486.553763 253.337969 492.673374S259.782114 501.852789 261.821975 501.852789C263.49096 501.852789 264.325452 500.647412 264.325452 498.236656C264.325452 496.938556 263.166434 492.997908 260.848401 486.414681S257.371349 475.334486 257.371349 472.923721C257.371349 472.367393 257.556792 471.162016 257.927677 469.307588ZM263.769124 536.066976C267.663421 536.066976 272.206759 535.04704 277.399166 533.00717C282.591572 530.967301 288.52573 527.119354 295.201669 521.46336S307.950848 508.760522 313.421419 500.322887S323.528039 480.387782 327.329624 465.830536C331.13121 451.27329 333.031989 435.000773 333.031989 417.012734C333.031989 408.296934 332.661104 400.508339 331.919332 393.646948H215.368567C215.924896 402.177323 217.732962 409.780467 220.792768 416.456406S227.144172 428.232011 230.667594 431.755432C234.191015 435.278853 237.575327 439.683109 240.820584 444.968227S246.059332 455.95571 246.801113 462.075321C239.568846 458.922803 233.402865 455.074848 228.303199 450.53151S219.633741 441.862052 217.59388 438.153207S213.560501 431.245474 211.613352 428.556545C209.666203 425.867624 207.765424 424.523165 205.910987 424.523165C202.75847 424.523165 199.976829 425.264937 197.566064 426.748478S193.857218 430.086447 193.671766 432.31176C191.817338 431.384547 189.962921 430.92094 188.108484 430.92094C179.392684 430.92094 172.345841 436.484222 166.968011 447.610787C168.080668 454.657602 174.200278 469.910286 185.326843 493.368784S202.01669 531.987143 202.01669 538.848617C202.01669 539.77583 201.460362 544.968227 200.347705 554.425807C211.845146 554.425807 222.137218 551.27329 231.223922 544.968227C236.230876 553.684027 240.403338 558.041941 243.741307 558.041941C248.191933 555.631184 251.390821 552.942275 253.337969 549.975182S257.185897 542.186586 259.040334 535.510648C260.894762 535.881532 262.471015 536.066976 263.769124 536.066976Z" fill="#da0a0a" />
<path d="M471.525424 86.851333Q472.711864 86.851333 473.135593 85.410655Q473.220339 85.156418 473.220339 84.647944Q473.220339 83.630994 472.288136 83.292011Q468.050847 81.51235 466.016949 78.207266T463.389831 70.029299T462.79661 56.851333V27.020825Q462.881356 24.902181 463.177966 23.588621T464.661017 21.385232T468.305085 20.495401H468.813559Q469.661017 20.495401 470.042373 20.198791T470.508475 18.71574Q470.508475 17.953028 470.084746 17.402181T468.983051 16.851333Q463.559322 17.105571 458.898305 17.105571Q453.728814 17.105571 448.305085 16.851333Q447.542373 16.851333 447.161017 17.402181T446.779661 18.71574Q446.864407 19.986927 447.330508 20.241164T448.983051 20.495401Q451.440678 20.495401 452.627119 21.385232T454.110169 23.588621T454.491525 27.020825V59.732689Q454.491525 70.664893 458.347458 77.656418T471.186441 86.851333H471.525424Z" fill="#da0a0a" />
<path d="M460.073018 105.972222C458.904729 108.308801 456.081361 112.50734 451.602921 118.567841C447.124481 124.628342 443.522229 129.167657 440.796245 132.185713C444.203758 136.080008 447.866826 140.704514 451.785466 146.059149C455.704105 151.413805 458.46662 155.551499 460.073018 158.472222C463.675241 152.046631 470.05218 143.284461 479.203755 132.185713C469.808738 120.843596 463.43185 112.105741 460.073018 105.972222Z" fill="#da0a0a" />
<path d="M28.474576 613.148667Q27.288136 613.148667 26.864407 614.589345Q26.779661 614.843582 26.779661 615.352056Q26.779661 616.369006 27.711864 616.707989Q31.949153 618.48765 33.983051 621.792734T36.610169 629.970701T37.20339 643.148667V672.979175Q37.118644 675.097819 36.822034 676.411379T35.338983 678.614768T31.694915 679.504599H31.186441Q30.338983 679.504599 29.957627 679.801209T29.491525 681.28426Q29.491525 682.046972 29.915254 682.597819T31.016949 683.148667Q36.440678 682.894429 41.101695 682.894429Q46.271186 682.894429 51.694915 683.148667Q52.457627 683.148667 52.838983 682.597819T53.220339 681.28426Q53.135593 680.013073 52.669492 679.758836T51.016949 679.504599Q48.559322 679.504599 47.372881 678.614768T45.889831 676.411379T45.508475 672.979175V640.267311Q45.508475 629.335107 41.652542 622.343582T28.813559 613.148667H28.474576Z" fill="#da0a0a" />
<path d="M39.926982 594.027778C41.095271 591.691199 43.918639 587.49266 48.397079 581.432159C52.875519 575.371658 56.477771 570.832343 59.203755 567.814287C55.796242 563.919992 52.133174 559.295486 48.214534 553.940851C44.295895 548.586195 41.53338 544.448501 39.926982 541.527778C36.324759 547.953369 29.94782 556.715539 20.796245 567.814287C30.191262 579.156404 36.56815 587.894259 39.926982 594.027778Z" fill="#da0a0a" />
</svg>
