<svg width="25.000000" height="35.000000" id="card-lightheart11">
<rect x="0" y="0" rx="1.25" ry="1.25" width="25" height="35.0" stroke="rgba(1,1,1,0.333)" fill="#fffdfa" />
<rect x="5.0" y="3.5" width="15.0" height="28.0" stroke="#010101" fill="#fffdfa" />
<path d="M14.763231 10.351232C14.5961 10.351232 14.396472 10.260703 14.164345 10.079644S13.816156 9.733776 13.816156 9.585215C13.816156 9.464509 13.927577 9.404157 14.150418 9.404157C14.336118 9.404157 14.514857 9.478437 14.68663 9.626998S14.94429 9.933405 14.94429 10.100535S14.883937 10.351232 14.763231 10.351232ZM16.685237 12.635354C16.629526 12.291807 16.32312 11.530434 15.766017 10.351232S14.930362 8.406009 14.930362 8.053182C14.930362 7.77463 14.953575 7.523934 15.0 7.301093C14.266481 7.301093 13.746518 7.454296 13.440111 7.760703C13.170845 7.324306 12.966574 7.106106 12.827298 7.106106C12.576602 7.245382 12.411792 7.375372 12.332869 7.496079S12.154132 7.862838 12.033426 8.23424C11.959146 8.21567 11.884865 8.206385 11.810585 8.206385C11.615599 8.206385 11.385794 8.257453 11.12117 8.359588S10.557103 8.654389 10.222841 8.937583S9.582173 9.573609 9.303621 9.996079S8.790623 10.9919 8.600279 11.716134S8.314763 13.252806 8.314763 14.15346C8.314763 14.580573 8.333333 14.965902 8.370474 15.309449H14.247911C14.238626 14.900907 14.15506 14.531827 13.997214 14.202207S13.669916 13.614927 13.488858 13.429226C13.307799 13.243526 13.133705 13.016041 12.966574 12.746775S12.697308 12.198957 12.660167 11.91112C13.012999 12.050396 13.319405 12.236097 13.579387 12.468223S14.020428 12.911584 14.122563 13.101928S14.324513 13.459403 14.422006 13.603321C14.519499 13.747239 14.61467 13.819198 14.707521 13.819198C14.939648 13.819198 15.05571 13.675281 15.05571 13.387444C15.148561 13.508149 15.255338 13.568502 15.376045 13.568502L15.654596 13.498864C15.942433 13.424584 16.153667 13.329411 16.288301 13.213349C16.422934 13.097286 16.555247 12.90462 16.685237 12.635354ZM15.835655 12.189672C15.965645 12.189672 16.077065 12.231455 16.169916 12.31502S16.309192 12.500721 16.309192 12.621427C16.309192 12.658567 16.295265 12.704992 16.267409 12.760703C16.137419 12.760703 16.028319 12.723562 15.940111 12.649282S15.807799 12.477509 15.807799 12.356803C15.807799 12.338233 15.817084 12.282522 15.835655 12.189672ZM8.997214 14.334519C8.997214 13.647425 9.078459 12.992829 9.240947 12.37073S9.607706 11.228669 9.85376 10.810842S10.366759 10.028576 10.654596 9.717527C10.942433 9.406478 11.211699 9.178994 11.462396 9.035076S11.926648 8.819198 12.103064 8.819198C12.279481 8.837768 12.367688 8.898121 12.367688 9.000257C12.367688 9.055967 12.35376 9.093107 12.325905 9.111677C11.406685 9.57593 10.707981 10.288558 10.229805 11.249561S9.512535 13.23424 9.512535 14.320591C9.512535 14.571288 9.424327 14.696636 9.247911 14.696636C9.08078 14.696636 8.997214 14.57593 8.997214 14.334519Z" fill="#da0a0a" />
<path d="M10.236769 24.648768C10.4039 24.648768 10.603528 24.739297 10.835655 24.920356S11.183844 25.266224 11.183844 25.414785C11.183844 25.535491 11.072423 25.595843 10.849582 25.595843C10.663882 25.595843 10.485143 25.521563 10.31337 25.373002S10.05571 25.066595 10.05571 24.899465S10.116063 24.648768 10.236769 24.648768ZM8.314763 22.364646C8.370474 22.708193 8.67688 23.469566 9.233983 24.648768S10.069638 26.593991 10.069638 26.946818C10.069638 27.22537 10.046425 27.476066 10.0 27.698907C10.733519 27.698907 11.253482 27.545704 11.559889 27.239297C11.829155 27.675694 12.033426 27.893894 12.172702 27.893894C12.423398 27.754618 12.588208 27.624628 12.667131 27.503921S12.845868 27.137162 12.966574 26.76576C13.040854 26.78433 13.115135 26.793615 13.189415 26.793615C13.384401 26.793615 13.614206 26.742547 13.87883 26.640412S14.442897 26.345611 14.777159 26.062417S15.417827 25.426391 15.696379 25.003921S16.209377 24.0081 16.399721 23.283866S16.685237 21.747194 16.685237 20.84654C16.685237 20.419427 16.666667 20.034098 16.629526 19.690551H10.752089C10.761374 20.099093 10.84494 20.468173 11.002786 20.797793S11.330084 21.385073 11.511142 21.570774C11.692201 21.756474 11.866295 21.983959 12.033426 22.253225S12.302692 22.801043 12.339833 23.08888C11.987001 22.949604 11.680595 22.763903 11.420613 22.531777S10.979572 22.088416 10.877437 21.898072S10.675487 21.540597 10.577994 21.396679C10.480501 21.252761 10.38533 21.180802 10.292479 21.180802C10.060352 21.180802 9.94429 21.324719 9.94429 21.612556C9.851439 21.491851 9.744662 21.431498 9.623955 21.431498L9.345404 21.501136C9.057567 21.575416 8.846333 21.670589 8.711699 21.786651C8.577066 21.902714 8.444753 22.09538 8.314763 22.364646ZM9.164345 22.810328C9.034355 22.810328 8.922935 22.768545 8.830084 22.68498S8.690808 22.499279 8.690808 22.378573C8.690808 22.341433 8.704735 22.295008 8.732591 22.239297C8.862581 22.239297 8.971681 22.276438 9.059889 22.350718S9.192201 22.522491 9.192201 22.643197C9.192201 22.661767 9.182916 22.717478 9.164345 22.810328ZM16.002786 20.665481C16.002786 21.352575 15.921541 22.007171 15.759053 22.62927S15.392294 23.771331 15.14624 24.189158S14.633241 24.971424 14.345404 25.282473C14.057567 25.593522 13.788301 25.821006 13.537604 25.964924S13.073352 26.180802 12.896936 26.180802C12.720519 26.162232 12.632312 26.101879 12.632312 25.999743C12.632312 25.944033 12.64624 25.906893 12.674095 25.888323C13.593315 25.42407 14.292019 24.711442 14.770195 23.750439S15.487465 21.76576 15.487465 20.679409C15.487465 20.428712 15.575673 20.303364 15.752089 20.303364C15.91922 20.303364 16.002786 20.42407 16.002786 20.665481Z" fill="#da0a0a" />
<path d="M23.576271 4.342567Q23.635593 4.342567 23.65678 4.270533Q23.661017 4.257821 23.661017 4.232397Q23.661017 4.18155 23.614407 4.164601Q23.402542 4.075618 23.300847 3.910363T23.169492 3.501465T23.139831 2.842567V1.351041Q23.144068 1.245109 23.158898 1.179431T23.233051 1.069262T23.415254 1.02477H23.440678Q23.483051 1.02477 23.502119 1.00994T23.525424 0.935787Q23.525424 0.897651 23.504237 0.870109T23.449153 0.842567Q23.177966 0.855279 22.944915 0.855279Q22.686441 0.855279 22.415254 0.842567Q22.377119 0.842567 22.358051 0.870109T22.338983 0.935787Q22.34322 0.999346 22.366525 1.012058T22.449153 1.02477Q22.572034 1.02477 22.631356 1.069262T22.705508 1.179431T22.724576 1.351041V2.986634Q22.724576 3.533245 22.917373 3.882821T23.559322 4.342567H23.576271Z" fill="#da0a0a" />
<path d="M22.996344 5.825074C22.947598 5.644712 22.868994 5.511877 22.760533 5.426571S22.532033 5.298611 22.400418 5.298611C22.251741 5.298611 22.124391 5.349795 22.018367 5.452163S21.859331 5.677615 21.859331 5.821418C21.859331 5.953033 21.891626 6.087086 21.956215 6.223576S22.102455 6.491682 22.201166 6.618423S22.400418 6.872514 22.502786 7.000474S22.703255 7.274064 22.797093 7.437365S22.957347 7.762748 22.996344 7.923611C23.040216 7.755436 23.110289 7.586651 23.206563 7.417257S23.402159 7.097967 23.504526 6.96757C23.606894 6.837173 23.706824 6.709213 23.804318 6.583691S23.982242 6.332037 24.045613 6.205296S24.140669 5.957908 24.140669 5.843353C24.140669 5.689802 24.088875 5.560624 23.985289 5.455819C23.881703 5.351013 23.754352 5.298611 23.603238 5.298611C23.313197 5.298611 23.110897 5.474099 22.996344 5.825074Z" fill="#da0a0a" />
<path d="M1.423729 30.657433Q1.364407 30.657433 1.34322 30.729467Q1.338983 30.742179 1.338983 30.767603Q1.338983 30.81845 1.385593 30.835399Q1.597458 30.924382 1.699153 31.089637T1.830508 31.498535T1.860169 32.157433V33.648959Q1.855932 33.754891 1.841102 33.820569T1.766949 33.930738T1.584746 33.97523H1.559322Q1.516949 33.97523 1.497881 33.99006T1.474576 34.064213Q1.474576 34.102349 1.495763 34.129891T1.550847 34.157433Q1.822034 34.144721 2.055085 34.144721Q2.313559 34.144721 2.584746 34.157433Q2.622881 34.157433 2.641949 34.129891T2.661017 34.064213Q2.65678 34.000654 2.633475 33.987942T2.550847 33.97523Q2.427966 33.97523 2.368644 33.930738T2.294492 33.820569T2.275424 33.648959V32.013366Q2.275424 31.466755 2.082627 31.117179T1.440678 30.657433H1.423729Z" fill="#da0a0a" />
<path d="M2.003656 29.174926C2.052402 29.355288 2.131006 29.488123 2.239467 29.573429S2.467967 29.701389 2.599582 29.701389C2.748259 29.701389 2.875609 29.650205 2.981633 29.547837S3.140669 29.322385 3.140669 29.178582C3.140669 29.046967 3.108374 28.912914 3.043785 28.776424S2.897545 28.508318 2.798834 28.381577S2.599582 28.127486 2.497214 27.999526S2.296745 27.725936 2.202907 27.562635S2.042653 27.237252 2.003656 27.076389C1.959784 27.244564 1.889711 27.413349 1.793437 27.582743S1.597841 27.902033 1.495474 28.03243C1.393106 28.162827 1.293176 28.290787 1.195682 28.416309S1.017758 28.667963 0.954387 28.794704S0.859331 29.042092 0.859331 29.156647C0.859331 29.310198 0.911125 29.439376 1.014711 29.544181C1.118297 29.648987 1.245648 29.701389 1.396762 29.701389C1.686803 29.701389 1.889103 29.525901 2.003656 29.174926Z" fill="#da0a0a" />
</svg>
