<svg width="150.000000" height="210.000000" id="card-webdiamond2">
<radialGradient id="card-webwhitegradient" cx="75.0" cy="105.0" r="150" gradientTransform="matrix(1 0 0 1 0 -.25)" gradientUnits="userSpaceOnUse">
<stop stop-color="#FDFAF4" offset=".15"/>
<stop stop-color="#FDF9F2" offset=".35"/>
<stop stop-color="#FCF7F1" offset=".5"/>
<stop stop-color="#FDFDF8" offset=".75"/>
<stop stop-color="#FFFDFA" offset="1"/>
</radialGradient>
<rect x="0" y="0" rx="7.5" ry="7.5" width="150" height="210.0" stroke="rgba(1,1,1,0.333)" fill="url(#card-webwhitegradient)" />
<path d="M75.041725 20.0C74.374131 21.335188 72.760777 23.734353 70.201669 27.197497C67.642561 30.66064 65.584131 33.254534 64.026426 34.979138C65.973576 37.204449 68.066758 39.847024 70.305981 42.906815C72.545203 45.966619 74.123783 48.331015 75.041725 50.0C77.100138 46.328234 80.744103 41.32128 85.973574 34.979138C80.604993 28.497928 76.961057 23.504868 75.041725 20.0Z" fill="#da0a0a" />
<path d="M74.958275 190.0C75.625869 188.664812 77.239223 186.265647 79.798331 182.802503C82.357439 179.33936 84.415869 176.745466 85.973574 175.020862C84.026424 172.795551 81.933242 170.152976 79.694019 167.093185C77.454797 164.033381 75.876217 161.668985 74.958275 160.0C72.899862 163.671766 69.255897 168.67872 64.026426 175.020862C69.395007 181.502072 73.038943 186.495132 74.958275 190.0Z" fill="#da0a0a" />
<path d="M146.023585 24.628985Q145.983962 23.796909 145.567925 23.281815T144.200943 22.132758Q141.070755 20.032758 139.34717 18.665777T136.236792 15.198796T134.85 10.483702Q134.85 8.581815 135.860377 7.531815T138.693396 6.481815Q140.238679 6.481815 141.249057 7.254457T142.259434 9.374268Q142.259434 10.047853 141.942453 10.503513T141.288679 11.236532T140.951887 11.553513Q140.951887 11.830872 141.486792 12.227098T142.774528 12.623325Q144.00283 12.623325 144.735849 11.850683T145.468868 9.889362Q145.468868 8.304457 144.399057 7.195023T141.684906 5.570494T138.336792 5.0554Q135.365094 5.0554 133.20566 6.521438T131.046226 10.998796Q131.046226 13.178042 132.234906 14.96106T135.067925 17.992192T139.366981 20.944079Q141.466981 22.251626 142.49717 23.044079V23.242192H131.878302Q130.887736 23.242192 130.432075 23.460117T129.976415 24.628985Q129.976415 26.0554 131.363208 26.0554H144.636792Q146.023585 26.0554 146.023585 24.628985Z" fill="#da0a0a" />
<path d="M138.021905 31.791667C137.671419 32.49264 136.824408 33.752202 135.480876 35.570352C134.137344 37.388503 133.056669 38.750297 132.238873 39.655714C133.261127 40.824003 134.360048 42.211354 135.53564 43.817745C136.711232 45.424142 137.539986 46.66545 138.021905 47.541667C139.102572 45.613989 141.015654 42.985338 143.761127 39.655714C140.942621 36.253079 139.029555 33.631722 138.021905 31.791667Z" fill="#da0a0a" />
<path d="M3.976415 185.371015Q4.016038 186.203091 4.432075 186.718185T5.799057 187.867242Q8.929245 189.967242 10.65283 191.334223T13.763208 194.801204T15.15 199.516298Q15.15 201.418185 14.139623 202.468185T11.306604 203.518185Q9.761321 203.518185 8.750943 202.745543T7.740566 200.625732Q7.740566 199.952147 8.057547 199.496487T8.711321 198.763468T9.048113 198.446487Q9.048113 198.169128 8.513208 197.772902T7.225472 197.376675Q5.99717 197.376675 5.264151 198.149317T4.531132 200.110638Q4.531132 201.695543 5.600943 202.804977T8.315094 204.429506T11.663208 204.9446Q14.634906 204.9446 16.79434 203.478562T18.953774 199.001204Q18.953774 196.821958 17.765094 195.03894T14.932075 192.007808T10.633019 189.055921Q8.533019 187.748374 7.50283 186.955921V186.757808H18.121698Q19.112264 186.757808 19.567925 186.539883T20.023585 185.371015Q20.023585 183.9446 18.636792 183.9446H5.363208Q3.976415 183.9446 3.976415 185.371015Z" fill="#da0a0a" />
<path d="M11.978095 178.208333C12.328581 177.50736 13.175592 176.247798 14.519124 174.429648C15.862656 172.611497 16.943331 171.249703 17.761127 170.344286C16.738873 169.175997 15.639952 167.788646 14.46436 166.182255C13.288768 164.575858 12.460014 163.33455 11.978095 162.458333C10.897428 164.386011 8.984346 167.014662 6.238873 170.344286C9.057379 173.746921 10.970445 176.368278 11.978095 178.208333Z" fill="#da0a0a" />
</svg>
