<svg width="500.000000" height="700.000000" id="card-realspade11">
<radialGradient id="card-realwhitegradient" cx="250.0" cy="350.0" r="500" gradientTransform="matrix(1 0 0 1 0 -.25)" gradientUnits="userSpaceOnUse">
<stop stop-color="#FDFAF4" offset=".15"/>
<stop stop-color="#FDF9F2" offset=".35"/>
<stop stop-color="#FCF7F1" offset=".5"/>
<stop stop-color="#FDFDF8" offset=".75"/>
<stop stop-color="#FFFDFA" offset="1"/>
</radialGradient>
<rect x="0" y="0" rx="25.0" ry="25.0" width="500" height="700.0" stroke="rgba(1,1,1,0.333)" fill="url(#card-realwhitegradient)" />
<rect x="100.0" y="70.0" width="300.0" height="560.0" stroke="#010101" fill="#fffdfa" />
<path d="M296.099291 206.708747C292.695035 206.708747 288.628851 204.864775 283.900709 201.176832S276.808511 194.131924 276.808511 191.10591C276.808511 188.64728 279.078014 187.417967 283.617021 187.417967C287.399518 187.417967 291.040199 188.930968 294.539007 191.956974S299.787234 198.198109 299.787234 201.602364S298.557921 206.708747 296.099291 206.708747ZM335.248227 253.23357C334.113475 246.235924 327.87234 230.727669 316.524823 206.708747S299.503546 167.086903 299.503546 159.900236C299.503546 154.226478 299.97636 149.120095 300.921986 144.581087C285.981078 144.581087 275.390071 147.701655 269.148936 153.94279C263.664312 145.05391 259.503546 140.609456 256.666667 140.609456C251.560284 143.446336 248.203319 146.09408 246.595745 148.552719S242.955092 156.023158 240.496454 163.58818C238.983452 163.20993 237.47044 163.020804 235.957447 163.020804C231.985816 163.020804 227.304965 164.060994 221.914894 166.141371S210.425532 172.146109 203.617021 177.914421S190.567376 190.869513 184.893617 199.474704S174.444454 219.758392 170.567376 234.510165S164.751773 265.810307 164.751773 284.155556C164.751773 292.855329 165.130023 300.704009 165.886525 307.701655H285.602837C285.413711 299.380151 283.711583 291.862421 280.496454 285.148463S273.829787 273.186279 270.141844 269.403783C266.453901 265.621286 262.907801 260.987697 259.503546 255.503073S254.018922 244.34469 253.262411 238.481797C260.449163 241.318676 266.690298 245.101173 271.985816 249.829314S280.969277 258.860038 283.049645 262.737116S287.163121 270.018449 289.148936 272.949882C291.134752 275.881314 293.073277 277.347045 294.964539 277.347045C299.692681 277.347045 302.056738 274.415612 302.056738 268.552719C303.947991 271.011348 306.122922 272.240662 308.58156 272.240662L314.255319 270.822222C320.118213 269.309221 324.420794 267.370676 327.163121 265.006619C329.905438 262.642554 332.600482 258.718194 335.248227 253.23357ZM317.943262 244.155556C320.591016 244.155556 322.860511 245.006619 324.751773 246.708747S327.588652 250.491243 327.588652 252.949882C327.588652 253.706384 327.304965 254.652009 326.737589 255.786761C324.089835 255.786761 321.867603 255.030259 320.070922 253.517258S317.375887 250.018449 317.375887 247.559811C317.375887 247.181561 317.565012 246.046809 317.943262 244.155556ZM178.652482 287.843499C178.652482 273.848236 180.307328 260.514903 183.617021 247.843499S191.087461 224.581087 196.099291 216.070449S206.548454 200.136634 212.411348 193.800946C218.274241 187.465258 223.758865 182.831669 228.865248 179.900236S238.321504 175.503073 241.914894 175.503073C245.508284 175.881323 247.304965 177.110639 247.304965 179.191017C247.304965 180.325768 247.021277 181.08227 246.453901 181.46052C227.730496 190.916775 213.498723 205.432151 203.758865 225.006619S189.148936 265.432151 189.148936 287.559811C189.148936 292.666194 187.352247 295.219385 183.758865 295.219385C180.35461 295.219385 178.652482 292.760756 178.652482 287.843499Z" fill="#010101" />
<path d="M203.900709 493.291253C207.304965 493.291253 211.371149 495.135225 216.099291 498.823168S223.191489 505.868076 223.191489 508.89409C223.191489 511.35272 220.921986 512.582033 216.382979 512.582033C212.600482 512.582033 208.959801 511.069032 205.460993 508.043026S200.212766 501.801891 200.212766 498.397636S201.442079 493.291253 203.900709 493.291253ZM164.751773 446.76643C165.886525 453.764076 172.12766 469.272331 183.475177 493.291253S200.496454 532.913097 200.496454 540.099764C200.496454 545.773522 200.02364 550.879905 199.078014 555.418913C214.018922 555.418913 224.609929 552.298345 230.851064 546.05721C236.335688 554.94609 240.496454 559.390544 243.333333 559.390544C248.439716 556.553664 251.796681 553.90592 253.404255 551.447281S257.044908 543.976842 259.503546 536.41182C261.016548 536.79007 262.52956 536.979196 264.042553 536.979196C268.014184 536.979196 272.695035 535.939006 278.085106 533.858629S289.574468 527.853891 296.382979 522.085579S309.432624 509.130487 315.106383 500.525296S325.555546 480.241608 329.432624 465.489835S335.248227 434.189693 335.248227 415.844444C335.248227 407.144671 334.869977 399.295991 334.113475 392.298345H214.397163C214.586289 400.619849 216.288417 408.137579 219.503546 414.851537S226.170213 426.813721 229.858156 430.596217C233.546099 434.378714 237.092199 439.012303 240.496454 444.496927S245.981078 455.65531 246.737589 461.518203C239.550837 458.681324 233.309702 454.898827 228.014184 450.170686S219.030723 441.139962 216.950355 437.262884S212.836879 429.981551 210.851064 427.050118C208.865248 424.118686 206.926723 422.652955 205.035461 422.652955C200.307319 422.652955 197.943262 425.584388 197.943262 431.447281C196.052009 428.988652 193.877078 427.759338 191.41844 427.759338L185.744681 429.177778C179.881787 430.690779 175.579206 432.629324 172.836879 434.993381C170.094562 437.357446 167.399518 441.281806 164.751773 446.76643ZM182.056738 455.844444C179.408984 455.844444 177.139489 454.993381 175.248227 453.291253S172.411348 449.508757 172.411348 447.050118C172.411348 446.293616 172.695035 445.347991 173.262411 444.213239C175.910165 444.213239 178.132397 444.969741 179.929078 446.482742S182.624113 449.981551 182.624113 452.440189C182.624113 452.818439 182.434988 453.953191 182.056738 455.844444ZM321.347518 412.156501C321.347518 426.151764 319.692672 439.485097 316.382979 452.156501S308.912539 475.418913 303.900709 483.929551S293.451546 499.863366 287.588652 506.199054C281.725759 512.534742 276.241135 517.168331 271.134752 520.099764S261.678496 524.496927 258.085106 524.496927C254.491716 524.118677 252.695035 522.889361 252.695035 520.808983C252.695035 519.674232 252.978723 518.91773 253.546099 518.53948C272.269504 509.083225 286.501277 494.567849 296.241135 474.993381S310.851064 434.567849 310.851064 412.440189C310.851064 407.333806 312.647753 404.780615 316.241135 404.780615C319.64539 404.780615 321.347518 407.239244 321.347518 412.156501Z" fill="#010101" />
<path d="M471.525424 86.851333Q472.711864 86.851333 473.135593 85.410655Q473.220339 85.156418 473.220339 84.647944Q473.220339 83.630994 472.288136 83.292011Q468.050847 81.51235 466.016949 78.207266T463.389831 70.029299T462.79661 56.851333V27.020825Q462.881356 24.902181 463.177966 23.588621T464.661017 21.385232T468.305085 20.495401H468.813559Q469.661017 20.495401 470.042373 20.198791T470.508475 18.71574Q470.508475 17.953028 470.084746 17.402181T468.983051 16.851333Q463.559322 17.105571 458.898305 17.105571Q453.728814 17.105571 448.305085 16.851333Q447.542373 16.851333 447.161017 17.402181T446.779661 18.71574Q446.864407 19.986927 447.330508 20.241164T448.983051 20.495401Q451.440678 20.495401 452.627119 21.385232T454.110169 23.588621T454.491525 27.020825V59.732689Q454.491525 70.664893 458.347458 77.656418T471.186441 86.851333H471.525424Z" fill="#010101" />
<path d="M458.771277 140.748818C458.52305 143.330381 457.90248 145.614064 456.909574 147.599882C455.916669 149.5857 454.874116 151.099882 453.781915 152.142435S451.312054 154.078605 449.648936 154.823286C447.985818 155.567967 446.707447 156.052009 445.81383 156.275414S443.828012 156.709811 442.537234 156.908392C442.338652 156.958038 442.189716 156.982861 442.090426 156.982861V158.472222H477.909574V156.982861C473.689714 156.23818 470.487586 155.145979 468.303191 153.706265C464.132979 150.926125 461.77482 146.606976 461.228723 140.748818C463.810286 144.720447 467.136522 146.706265 471.207447 146.706265C473.83865 146.706265 476.085106 145.787828 477.946809 143.950946S480.739362 139.880021 480.739362 137.248818C480.739362 135.014775 480.193263 132.979317 479.101064 131.142435C478.008863 129.305553 476.593969 127.630021 474.856383 126.115839S471.331563 123.025414 469.494681 121.387116C467.657799 119.748818 465.845745 117.601657 464.058511 114.945626S460.906031 109.298466 459.962766 105.972222C459.118797 109.248818 457.815605 112.202721 456.053191 114.833924S452.478723 119.599882 450.617021 121.23818S446.955671 124.465128 445.218085 126.004137S442.053191 129.231085 440.93617 131.067967S439.260638 134.965128 439.260638 137.248818C439.260638 139.880021 440.191489 142.114064 442.053191 143.950946S446.16135 146.706265 448.792553 146.706265C452.863478 146.706265 456.189714 144.720447 458.771277 140.748818Z" fill="#010101" />
<path d="M28.474576 613.148667Q27.288136 613.148667 26.864407 614.589345Q26.779661 614.843582 26.779661 615.352056Q26.779661 616.369006 27.711864 616.707989Q31.949153 618.48765 33.983051 621.792734T36.610169 629.970701T37.20339 643.148667V672.979175Q37.118644 675.097819 36.822034 676.411379T35.338983 678.614768T31.694915 679.504599H31.186441Q30.338983 679.504599 29.957627 679.801209T29.491525 681.28426Q29.491525 682.046972 29.915254 682.597819T31.016949 683.148667Q36.440678 682.894429 41.101695 682.894429Q46.271186 682.894429 51.694915 683.148667Q52.457627 683.148667 52.838983 682.597819T53.220339 681.28426Q53.135593 680.013073 52.669492 679.758836T51.016949 679.504599Q48.559322 679.504599 47.372881 678.614768T45.889831 676.411379T45.508475 672.979175V640.267311Q45.508475 629.335107 41.652542 622.343582T28.813559 613.148667H28.474576Z" fill="#010101" />
<path d="M41.228723 559.251182C41.47695 556.669619 42.09752 554.385936 43.090426 552.400118C44.083331 550.4143 45.125884 548.900118 46.218085 547.857565S48.687946 545.921395 50.351064 545.176714C52.014182 544.432033 53.292553 543.947991 54.18617 543.724586S56.171988 543.290189 57.462766 543.091608C57.661348 543.041962 57.810284 543.017139 57.909574 543.017139V541.527778H22.090426V543.017139C26.310286 543.76182 29.512414 544.854021 31.696809 546.293735C35.867021 549.073875 38.22518 553.393024 38.771277 559.251182C36.189714 555.279553 32.863478 553.293735 28.792553 553.293735C26.16135 553.293735 23.914894 554.212172 22.053191 556.049054S19.260638 560.119979 19.260638 562.751182C19.260638 564.985225 19.806737 567.020683 20.898936 568.857565C21.991137 570.694447 23.406031 572.369979 25.143617 573.884161S28.668437 576.974586 30.505319 578.612884C32.342201 580.251182 34.154255 582.398343 35.941489 585.054374S39.093969 590.701534 40.037234 594.027778C40.881203 590.751182 42.184395 587.797279 43.946809 585.166076S47.521277 580.400118 49.382979 578.76182S53.044329 575.534872 54.781915 573.995863S57.946809 570.768915 59.06383 568.932033S60.739362 565.034872 60.739362 562.751182C60.739362 560.119979 59.808511 557.885936 57.946809 556.049054S53.83865 553.293735 51.207447 553.293735C47.136522 553.293735 43.810286 555.279553 41.228723 559.251182Z" fill="#010101" />
</svg>
