<svg width="150.000000" height="210.000000" id="card-webheart12">
<radialGradient id="card-webwhitegradient" cx="75.0" cy="105.0" r="150" gradientTransform="matrix(1 0 0 1 0 -.25)" gradientUnits="userSpaceOnUse">
<stop stop-color="#FDFAF4" offset=".15"/>
<stop stop-color="#FDF9F2" offset=".35"/>
<stop stop-color="#FCF7F1" offset=".5"/>
<stop stop-color="#FDFDF8" offset=".75"/>
<stop stop-color="#FFFDFA" offset="1"/>
</radialGradient>
<rect x="0" y="0" rx="7.5" ry="7.5" width="150" height="210.0" stroke="rgba(1,1,1,0.333)" fill="url(#card-webwhitegradient)" />
<rect x="30.0" y="21.0" width="90.0" height="168.0" stroke="#010101" fill="#fffdfa" />
<path d="M74.916435 82.789842C78.426184 82.789842 81.615602 83.040539 84.48468 83.541931C87.353758 84.043324 88.788301 84.683995 88.788301 85.463937C88.788301 86.355305 88.147632 86.800984 86.866295 86.800984C86.643454 86.800984 84.930359 86.689564 81.727019 86.466722S76.22563 86.132461 74.832869 86.132461C73.384404 86.132461 71.100276 86.243881 67.980501 86.466722C64.860727 86.689564 63.21727 86.800984 63.050139 86.800984C61.768805 86.800984 61.128134 86.355302 61.128134 85.463937C61.128134 83.68121 65.724234 82.789842 74.916435 82.789842ZM99.233983 50.533575C99.791087 50.533575 100.278552 50.728561 100.696379 51.118533C101.114206 51.508505 101.32312 52.009901 101.32312 52.622711S101.114206 53.736915 100.696379 54.12689S99.791089 54.711848 99.233983 54.711848C97.896936 54.711848 97.228412 54.015469 97.228412 52.622711C97.228412 51.229951 97.896936 50.533575 99.233983 50.533575ZM88.286908 45.268951C89.735373 45.268951 90.45961 45.965329 90.45961 47.358087S89.735376 49.447224 88.286908 49.447224C86.949861 49.447224 86.281337 48.750845 86.281337 47.358087S86.949861 45.268951 88.286908 45.268951ZM61.629526 45.268951C62.18663 45.268951 62.660164 45.477864 63.050139 45.895692S63.635097 46.800981 63.635097 47.358087C63.635097 48.750848 62.966574 49.447224 61.629526 49.447224C60.236766 49.447224 59.54039 48.750845 59.54039 47.358087S60.236769 45.268951 61.629526 45.268951ZM50.766017 50.533575C52.103064 50.533575 52.771588 51.229953 52.771588 52.622711C52.771588 54.015472 52.103064 54.711848 50.766017 54.711848C49.373256 54.711848 48.67688 54.015469 48.67688 52.622711C48.67688 52.009898 48.885794 51.508508 49.303621 51.118533C49.721448 50.728561 50.208911 50.533575 50.766017 50.533575ZM59.122563 82.372015C59.122563 82.706277 58.73259 83.778697 57.952646 85.589285S56.78273 89.029399 56.78273 90.477864C56.78273 91.814912 58.690805 92.775915 62.506964 93.360873C66.323123 93.945831 70.487465 94.23831 75.0 94.23831C80.125345 94.23831 84.428942 93.89012 87.910864 93.193742C91.39276 92.497363 93.133705 91.592068 93.133705 90.477864C93.133705 88.973686 92.75766 87.330229 92.005571 85.547502S90.877437 82.706277 90.877437 82.372015C90.877437 81.424942 91.922006 79.739703 94.011142 77.316305S97.144847 73.402658 97.144847 72.845552C97.144847 72.511291 97.35376 71.647784 97.771588 70.255023S98.649025 67.023823 99.150418 64.739703S99.986072 60.11575 100.153203 57.720204C102.71588 56.661706 103.997214 54.962544 103.997214 52.622711C103.997214 51.285664 103.537604 50.171461 102.618384 49.280093S100.571031 47.943045 99.233983 47.943045C98.008354 47.943045 96.922003 48.402656 95.97493 49.321876S94.554318 51.341377 94.554318 52.622711C94.554318 52.678422 94.623955 53.193742 94.763231 54.168672S94.972145 55.686781 94.972145 55.798199C94.972145 58.305162 93.189418 61.369232 89.623955 64.990399C89.345404 62.706279 89.206128 60.310734 89.206128 57.80377C89.206128 55.742486 89.401114 54.12689 89.791086 52.956973S90.626741 51.06282 91.128134 50.784271S92.075206 50.087893 92.465181 49.530789S93.050139 48.193742 93.050139 47.190956C93.050139 45.853909 92.590529 44.739706 91.671309 43.848338S89.623955 42.511291 88.286908 42.511291C87.005574 42.511291 85.905292 42.970901 84.986072 43.890121S83.607242 45.909622 83.607242 47.190956C83.607242 47.302377 83.704736 47.887335 83.899721 48.945831S84.192201 50.61714 84.192201 50.784271C84.192201 53.904045 82.66017 58.667277 79.5961 65.073965C78.426184 59.837193 77.841226 55.826026 77.841226 53.040539C77.841226 51.034968 78.133705 49.210458 78.718663 47.567001S79.5961 45.046107 79.5961 44.934689C79.5961 43.597642 79.13649 42.483438 78.21727 41.592071S76.197769 40.255023 74.916435 40.255023S72.562671 40.714633 71.699164 41.633853S70.4039 43.653355 70.4039 44.934689C70.4039 45.21324 70.696379 46.132458 71.281337 47.692349S72.158774 51.034968 72.158774 53.040539C72.158774 55.826051 71.573816 59.837193 70.4039 65.073965C67.395543 58.72299 65.891365 53.959759 65.891365 50.784271C65.891365 50.56143 65.97493 49.976471 66.142061 49.029396S66.392758 47.469505 66.392758 47.190956C66.392758 45.853909 65.933148 44.739706 65.013928 43.848338S62.966574 42.511291 61.629526 42.511291C60.348192 42.511291 59.247911 42.970901 58.328691 43.890121S56.949861 45.909622 56.949861 47.190956C56.949861 48.026611 57.075209 48.681204 57.325905 49.154745S57.896936 50.032182 58.286908 50.366444S59.066852 51.104605 59.456825 51.578143C59.846797 52.051681 60.167131 52.817695 60.417827 53.876193S60.793872 56.271739 60.793872 57.887335C60.793872 60.338586 60.654596 62.706279 60.376045 64.990399C56.810582 61.369232 55.027855 58.305162 55.027855 55.798199C55.027855 54.516864 55.167131 53.458366 55.445682 52.622711C55.445682 51.341377 54.986072 50.241096 54.066852 49.321876S52.047351 47.943045 50.766017 47.943045C49.428969 47.943045 48.300836 48.402656 47.381616 49.321876S46.002786 51.341377 46.002786 52.622711C46.002786 54.851126 47.28412 56.550288 49.846797 57.720204C50.181058 61.229954 50.766017 64.475076 51.601671 67.45558S52.855153 72.232742 52.855153 72.845552C52.855153 73.346945 53.899721 74.823271 55.988858 77.274522S59.122563 81.424942 59.122563 82.372015ZM74.916435 42.678422C75.529248 42.678422 76.030638 42.873407 76.420613 43.26338S77.005571 44.154747 77.005571 44.767558S76.810585 45.881761 76.420613 46.271736S75.529245 46.856695 74.916435 46.856695C73.579387 46.856695 72.910864 46.160316 72.910864 44.767558C72.910864 44.210455 73.105849 43.72299 73.495822 43.305162S74.359329 42.678422 74.916435 42.678422ZM59.874652 75.268951C59.874652 74.321878 61.532031 73.639424 64.846797 73.221597C68.161563 72.80377 71.518103 72.594856 74.916435 72.594856C78.147635 72.594856 81.476323 72.817698 84.902507 73.26338S90.041783 74.405444 90.041783 75.352516C90.041783 76.13246 89.317548 76.522433 87.869081 76.522433C86.643451 76.522433 84.582175 76.424939 81.685237 76.229954S76.504178 75.937474 74.832869 75.937474C73.105847 75.937474 70.5571 76.034968 67.18663 76.229954C63.816159 76.424939 62.047354 76.522433 61.880223 76.522433C60.543175 76.522433 59.874652 76.104605 59.874652 75.268951Z" fill="#da0a0a" />
<path d="M75.083565 127.210158C71.573816 127.210158 68.384398 126.959461 65.51532 126.458069C62.646242 125.956676 61.211699 125.316005 61.211699 124.536063C61.211699 123.644695 61.852368 123.199016 63.133705 123.199016C63.356546 123.199016 65.069641 123.310436 68.272981 123.533278S73.77437 123.867539 75.167131 123.867539C76.615596 123.867539 78.899724 123.756119 82.019499 123.533278C85.139273 123.310436 86.78273 123.199016 86.949861 123.199016C88.231195 123.199016 88.871866 123.644698 88.871866 124.536063C88.871866 126.31879 84.275766 127.210158 75.083565 127.210158ZM50.766017 159.466425C50.208913 159.466425 49.721448 159.271439 49.303621 158.881467C48.885794 158.491495 48.67688 157.990099 48.67688 157.377289S48.885794 156.263085 49.303621 155.87311S50.208911 155.288152 50.766017 155.288152C52.103064 155.288152 52.771588 155.984531 52.771588 157.377289C52.771588 158.770049 52.103064 159.466425 50.766017 159.466425ZM61.713092 164.731049C60.264627 164.731049 59.54039 164.034671 59.54039 162.641913S60.264624 160.552776 61.713092 160.552776C63.050139 160.552776 63.718663 161.249155 63.718663 162.641913S63.050139 164.731049 61.713092 164.731049ZM88.370474 164.731049C87.81337 164.731049 87.339836 164.522136 86.949861 164.104308S86.364903 163.199019 86.364903 162.641913C86.364903 161.249152 87.033426 160.552776 88.370474 160.552776C89.763234 160.552776 90.45961 161.249155 90.45961 162.641913S89.763231 164.731049 88.370474 164.731049ZM99.233983 159.466425C97.896936 159.466425 97.228412 158.770047 97.228412 157.377289C97.228412 155.984528 97.896936 155.288152 99.233983 155.288152C100.626744 155.288152 101.32312 155.984531 101.32312 157.377289C101.32312 157.990102 101.114206 158.491492 100.696379 158.881467C100.278552 159.271439 99.791089 159.466425 99.233983 159.466425ZM90.877437 127.627985C90.877437 127.293723 91.26741 126.221303 92.047354 124.410715S93.21727 120.970601 93.21727 119.522136C93.21727 118.185088 91.309195 117.224085 87.493036 116.639127C83.676877 116.054169 79.512535 115.76169 75.0 115.76169C69.874655 115.76169 65.571058 116.10988 62.089136 116.806258C58.60724 117.502637 56.866295 118.407932 56.866295 119.522136C56.866295 121.026314 57.24234 122.669771 57.994429 124.452498S59.122563 127.293723 59.122563 127.627985C59.122563 128.575058 58.077994 130.260297 55.988858 132.683695S52.855153 136.597342 52.855153 137.154448C52.855153 137.488709 52.64624 138.352216 52.228412 139.744977S51.350975 142.976177 50.849582 145.260297S50.013928 149.88425 49.846797 152.279796C47.28412 153.338294 46.002786 155.037456 46.002786 157.377289C46.002786 158.714336 46.462396 159.828539 47.381616 160.719907S49.428969 162.056955 50.766017 162.056955C51.991646 162.056955 53.077997 161.597344 54.02507 160.678124S55.445682 158.658623 55.445682 157.377289C55.445682 157.321578 55.376045 156.806258 55.236769 155.831328S55.027855 154.313219 55.027855 154.201801C55.027855 151.694838 56.810582 148.630768 60.376045 145.009601C60.654596 147.293721 60.793872 149.689266 60.793872 152.19623C60.793872 154.257514 60.598886 155.87311 60.208914 157.043027S59.373259 158.93718 58.871866 159.215729S57.924794 159.912107 57.534819 160.469211S56.949861 161.806258 56.949861 162.809044C56.949861 164.146091 57.409471 165.260294 58.328691 166.151662S60.376045 167.488709 61.713092 167.488709C62.994426 167.488709 64.094708 167.029099 65.013928 166.109879S66.392758 164.090378 66.392758 162.809044C66.392758 162.697623 66.295264 162.112665 66.100279 161.054169S65.807799 159.38286 65.807799 159.215729C65.807799 156.095955 67.33983 151.332723 70.4039 144.926035C71.573816 150.162807 72.158774 154.173974 72.158774 156.959461C72.158774 158.965032 71.866295 160.789542 71.281337 162.432999S70.4039 164.953893 70.4039 165.065311C70.4039 166.402358 70.86351 167.516562 71.78273 168.407929S73.802231 169.744977 75.083565 169.744977S77.437329 169.285367 78.300836 168.366147S79.5961 166.346645 79.5961 165.065311C79.5961 164.78676 79.303621 163.867542 78.718663 162.307651S77.841226 158.965032 77.841226 156.959461C77.841226 154.173949 78.426184 150.162807 79.5961 144.926035C82.604457 151.27701 84.108635 156.040241 84.108635 159.215729C84.108635 159.43857 84.02507 160.023529 83.857939 160.970604S83.607242 162.530495 83.607242 162.809044C83.607242 164.146091 84.066852 165.260294 84.986072 166.151662S87.033426 167.488709 88.370474 167.488709C89.651808 167.488709 90.752089 167.029099 91.671309 166.109879S93.050139 164.090378 93.050139 162.809044C93.050139 161.973389 92.924791 161.318796 92.674095 160.845255S92.103064 159.967818 91.713092 159.633556S90.933148 158.895395 90.543175 158.421857C90.153203 157.948319 89.832869 157.182305 89.582173 156.123807S89.206128 153.728261 89.206128 152.112665C89.206128 149.661414 89.345404 147.293721 89.623955 145.009601C93.189418 148.630768 94.972145 151.694838 94.972145 154.201801C94.972145 155.483136 94.832869 156.541634 94.554318 157.377289C94.554318 158.658623 95.013928 159.758904 95.933148 160.678124S97.952649 162.056955 99.233983 162.056955C100.571031 162.056955 101.699164 161.597344 102.618384 160.678124S103.997214 158.658623 103.997214 157.377289C103.997214 155.148874 102.71588 153.449712 100.153203 152.279796C99.818942 148.770046 99.233983 145.524924 98.398329 142.54442S97.144847 137.767258 97.144847 137.154448C97.144847 136.653055 96.100279 135.176729 94.011142 132.725478S90.877437 128.575058 90.877437 127.627985ZM75.083565 167.321578C74.470752 167.321578 73.969362 167.126593 73.579387 166.73662S72.994429 165.845253 72.994429 165.232442S73.189415 164.118239 73.579387 163.728264S74.470755 163.143305 75.083565 163.143305C76.420613 163.143305 77.089136 163.839684 77.089136 165.232442C77.089136 165.789545 76.894151 166.27701 76.504178 166.694838S75.640671 167.321578 75.083565 167.321578ZM90.125348 134.731049C90.125348 135.678122 88.467969 136.360576 85.153203 136.778403C81.838437 137.19623 78.481897 137.405144 75.083565 137.405144C71.852365 137.405144 68.523677 137.182302 65.097493 136.73662S59.958217 135.594556 59.958217 134.647484C59.958217 133.86754 60.682452 133.477567 62.130919 133.477567C63.356549 133.477567 65.417825 133.575061 68.314763 133.770046S73.495822 134.062526 75.167131 134.062526C76.894153 134.062526 79.4429 133.965032 82.81337 133.770046C86.183841 133.575061 87.952646 133.477567 88.119777 133.477567C89.456825 133.477567 90.125348 133.895395 90.125348 134.731049Z" fill="#da0a0a" />
<path d="M133.484136 25.783955Q134.273796 25.512509 134.86604 25.105341T136.396005 23.957868Q137.13631 23.340946 137.716216 22.92144T138.962397 22.156458Q139.752056 21.761628 140.837838 21.514859Q143.428907 20.922615 144.613396 20.009572Q146.06933 18.874436 146.871328 17.171734T147.673325 13.544237Q147.673325 10.953167 146.501175 9.028373T143.502938 6.079489T139.80141 5.0554Q137.432432 5.0554 135.606345 6.178197T132.805523 9.139419T131.830787 13.100053Q131.830787 15.863861 133.225029 17.924378T136.914219 20.897938Q137.309048 21.070676 137.925969 21.095353V21.144707Q137.259694 21.218737 136.716804 21.490183Q135.754407 21.959043 134.125734 23.143532Q132.916569 24.007221 132.176263 24.414389T130.720329 24.821557Q130.276146 24.772204 130.066392 24.537774T129.856639 23.957868Q129.856639 23.365623 130.313161 22.859748T131.485311 22.329196Q131.559342 21.934366 131.189189 21.564213T130.078731 21.19406Q129.757932 21.19406 129.350764 21.416152T128.635135 22.082427T128.326675 23.168208Q128.326675 23.908514 128.83255 24.562451T130.115746 25.623555T131.682726 26.0554Q132.694477 26.0554 133.484136 25.783955ZM137.012926 19.577727Q135.877791 18.553637 135.322562 16.850935T134.767333 13.100053Q134.767333 11.199936 135.3349 9.608279T137.049941 7.066563T139.826087 6.116505Q142.293772 6.116505 143.527615 8.201698T144.761457 13.470206Q144.761457 15.395 144.206228 17.023673T142.540541 19.62708T139.826087 20.601816Q138.148061 20.601816 137.012926 19.577727Z" fill="#da0a0a" />
<path d="M137.978064 34.950441C137.685586 33.868269 137.213963 33.071262 136.563196 32.559424S135.192201 31.791667 134.402507 31.791667C133.510445 31.791667 132.746344 32.09877 132.110202 32.712976S131.155989 34.065692 131.155989 34.928505C131.155989 35.718199 131.349756 36.522517 131.737291 37.341458S132.614728 38.950092 133.206999 39.710539S134.402507 41.235086 135.016713 42.002844S136.219533 43.644382 136.782556 44.624188S137.74408 46.576486 137.978064 47.541667C138.241295 46.532614 138.661735 45.519904 139.23938 44.50354S140.412953 42.587802 141.027159 41.80542C141.641365 41.023038 142.240946 40.25528 142.825905 39.502147S143.893455 37.992225 144.273677 37.231778S144.844011 35.747446 144.844011 35.060121C144.844011 34.138812 144.533251 33.363743 143.911734 32.734912C143.290217 32.106081 142.526113 31.791667 141.619429 31.791667C139.879179 31.791667 138.665383 32.844591 137.978064 34.950441Z" fill="#da0a0a" />
<path d="M16.515864 184.216045Q15.726204 184.487491 15.13396 184.894659T13.603995 186.042132Q12.86369 186.659054 12.283784 187.07856T11.037603 187.843542Q10.247944 188.238372 9.162162 188.485141Q6.571093 189.077385 5.386604 189.990428Q3.93067 191.125564 3.128672 192.828266T2.326675 196.455763Q2.326675 199.046833 3.498825 200.971627T6.497062 203.920511T10.19859 204.9446Q12.567568 204.9446 14.393655 203.821803T17.194477 200.860581T18.169213 196.899947Q18.169213 194.136139 16.774971 192.075622T13.085781 189.102062Q12.690952 188.929324 12.074031 188.904647V188.855293Q12.740306 188.781263 13.283196 188.509817Q14.245593 188.040957 15.874266 186.856468Q17.083431 185.992779 17.823737 185.585611T19.279671 185.178443Q19.723854 185.227796 19.933608 185.462226T20.143361 186.042132Q20.143361 186.634377 19.686839 187.140252T18.514689 187.670804Q18.440658 188.065634 18.810811 188.435787T19.921269 188.80594Q20.242068 188.80594 20.649236 188.583848T21.364865 187.917573T21.673325 186.831792Q21.673325 186.091486 21.16745 185.437549T19.884254 184.376445T18.317274 183.9446Q17.305523 183.9446 16.515864 184.216045ZM12.987074 190.422273Q14.122209 191.446363 14.677438 193.149065T15.232667 196.899947Q15.232667 198.800064 14.6651 200.391721T12.950059 202.933437T10.173913 203.883495Q7.706228 203.883495 6.472385 201.798302T5.238543 196.529794Q5.238543 194.605 5.793772 192.976327T7.459459 190.37292T10.173913 189.398184Q11.851939 189.398184 12.987074 190.422273Z" fill="#da0a0a" />
<path d="M12.021936 175.049559C12.314414 176.131731 12.786037 176.928738 13.436804 177.440576S14.807799 178.208333 15.597493 178.208333C16.489555 178.208333 17.253656 177.90123 17.889798 177.287024S18.844011 175.934308 18.844011 175.071495C18.844011 174.281801 18.650244 173.477483 18.262709 172.658542S17.385272 171.049908 16.793001 170.289461S15.597493 168.764914 14.983287 167.997156S13.780467 166.355618 13.217444 165.375812S12.25592 163.423514 12.021936 162.458333C11.758705 163.467386 11.338265 164.480096 10.76062 165.49646S9.587047 167.412198 8.972841 168.19458C8.358635 168.976962 7.759054 169.74472 7.174095 170.497853S6.106545 172.007775 5.726323 172.768222S5.155989 174.252554 5.155989 174.939879C5.155989 175.861188 5.466749 176.636257 6.088266 177.265088C6.709783 177.893919 7.473887 178.208333 8.380571 178.208333C10.120821 178.208333 11.334617 177.155409 12.021936 175.049559Z" fill="#da0a0a" />
</svg>
