<svg width="500.000000" height="700.000000" id="card-realclub2">
<radialGradient id="card-realwhitegradient" cx="250.0" cy="350.0" r="500" gradientTransform="matrix(1 0 0 1 0 -.25)" gradientUnits="userSpaceOnUse">
<stop stop-color="#FDFAF4" offset=".15"/>
<stop stop-color="#FDF9F2" offset=".35"/>
<stop stop-color="#FCF7F1" offset=".5"/>
<stop stop-color="#FDFDF8" offset=".75"/>
<stop stop-color="#FFFDFA" offset="1"/>
</radialGradient>
<rect x="0" y="0" rx="25.0" ry="25.0" width="500" height="700.0" stroke="rgba(1,1,1,0.333)" fill="url(#card-realwhitegradient)" />
<path d="M248.016997 125.094429C247.922568 127.92729 247.804533 130.217191 247.66289 131.964117C247.521246 133.711043 247.167139 135.930123 246.600567 138.621341S245.349387 143.531638 244.546742 145.278565S242.540127 148.984896 240.934844 151.156752S237.440977 155.122757 235.269122 156.539188S230.358824 159.324839 227.053824 160.646837S219.971671 163.007559 215.72238 163.762984V166.595845H284.27762V163.762984C280.028329 163.007555 276.251176 161.945236 272.946176 160.576015S266.879136 157.813975 264.660057 156.397545S260.552408 153.163366 258.994334 150.944287S256.232295 146.765817 255.382436 145.0661S253.847975 141.147304 253.328612 138.408876S252.478754 133.474981 252.33711 131.822474C252.195467 130.169967 252.077432 127.92729 251.983003 125.094429C254.249292 129.249287 256.090652 132.176582 257.507082 133.876298C260.056657 137.086879 263.196416 139.636454 266.926346 141.525024C270.656275 143.413593 274.315397 144.357885 277.903683 144.357885C283.947125 144.357885 289.140694 142.115208 293.484419 137.629839S300.0 127.738437 300.0 121.411709C300.0 115.273848 298.040609 110.033055 294.121813 105.68933S285.457975 99.173749 279.886686 99.173749C277.998116 99.173749 276.251176 99.433427 274.645892 99.952786S271.435312 101.133144 269.830028 101.935788L266.855524 103.423041C270.538244 98.135038 272.379603 93.130307 272.379603 88.408876C272.379603 82.459868 270.184136 77.360718 265.793201 73.111426S256.137861 66.737488 250.0 66.737488S238.597734 68.862134 234.206799 73.111426S227.620397 82.459868 227.620397 88.408876C227.620397 93.130307 229.461756 98.135038 233.144476 103.423041C232.483475 103.139754 231.56279 102.714825 230.382436 102.148253S228.328612 101.156752 227.76204 100.873466S226.463644 100.306893 225.566572 100.023607S223.796034 99.527856 222.946176 99.386213S221.152025 99.173749 220.113314 99.173749C214.542025 99.173749 209.796983 101.345604 205.878187 105.68933S200.0 115.273848 200.0 121.411709C200.0 127.738437 202.171856 133.144471 206.515581 137.629839S216.052875 144.357885 222.096317 144.357885C232.48347 144.357885 241.123654 137.936737 248.016997 125.094429Z" fill="#010101" />
<path d="M251.983003 574.905571C252.077432 572.07271 252.195467 569.782809 252.33711 568.035883C252.478754 566.288957 252.832861 564.069877 253.399433 561.378659S254.650613 556.468362 255.453258 554.721435S257.459873 551.015104 259.065156 548.843248S262.559023 544.877243 264.730878 543.460812S269.641176 540.675161 272.946176 539.353163S280.028329 536.992441 284.27762 536.237016V533.404155H215.72238V536.237016C219.971671 536.992445 223.748824 538.054764 227.053824 539.423985S233.120864 542.186025 235.339943 543.602455S239.447592 546.836634 241.005666 549.055713S243.767705 553.234183 244.617564 554.9339S246.152025 558.852696 246.671388 561.591124S247.521246 566.525019 247.66289 568.177526C247.804533 569.830033 247.922568 572.07271 248.016997 574.905571C245.750708 570.750713 243.909348 567.823418 242.492918 566.123702C239.943343 562.913121 236.803584 560.363546 233.073654 558.474976C229.343725 556.586407 225.684603 555.642115 222.096317 555.642115C216.052875 555.642115 210.859306 557.884792 206.515581 562.370161S200.0 572.261563 200.0 578.588291C200.0 584.726152 201.959391 589.966945 205.878187 594.31067S214.542025 600.826251 220.113314 600.826251C222.001884 600.826251 223.748824 600.566573 225.354108 600.047214S228.564688 598.866856 230.169972 598.064212L233.144476 596.576959C229.461756 601.864962 227.620397 606.869693 227.620397 611.591124C227.620397 617.540132 229.815864 622.639282 234.206799 626.888574S243.862139 633.262512 250.0 633.262512S261.402266 631.137866 265.793201 626.888574S272.379603 617.540132 272.379603 611.591124C272.379603 606.869693 270.538244 601.864962 266.855524 596.576959C267.516525 596.860246 268.43721 597.285175 269.617564 597.851747S271.671388 598.843248 272.23796 599.126534S273.536356 599.693107 274.433428 599.976393S276.203966 600.472144 277.053824 600.613787S278.847975 600.826251 279.886686 600.826251C285.457975 600.826251 290.203017 598.654396 294.121813 594.31067S300.0 584.726152 300.0 578.588291C300.0 572.261563 297.828144 566.855529 293.484419 562.370161S283.947125 555.642115 277.903683 555.642115C267.51653 555.642115 258.876346 562.063263 251.983003 574.905571Z" fill="#010101" />
<path d="M486.745283 82.096616Q486.613208 79.323031 485.226415 77.60605T480.669811 73.775862Q470.235849 66.775862 464.490566 62.219258T454.122642 50.662654T449.5 34.945673Q449.5 28.60605 452.867925 25.10605T462.311321 21.60605Q467.462264 21.60605 470.830189 24.181522T474.198113 31.24756Q474.198113 33.492843 473.141509 35.011711T470.962264 37.455107T469.839623 38.511711Q469.839623 39.436239 471.622642 40.756994T475.915094 42.077748Q480.009434 42.077748 482.45283 39.502277T484.896226 32.964541Q484.896226 27.681522 481.330189 23.983409T472.283019 18.568314T461.122642 16.851333Q451.216981 16.851333 444.018868 21.738126T436.820755 36.662654Q436.820755 43.926805 440.783019 49.870201T450.226415 59.973975T464.556604 69.813597Q471.556604 74.172088 474.990566 76.813597V77.473975H439.59434Q436.292453 77.473975 434.773585 78.20039T433.254717 82.096616Q433.254717 86.851333 437.877358 86.851333H482.122642Q486.745283 86.851333 486.745283 82.096616Z" fill="#010101" />
<path d="M458.958924 136.646797C458.909348 138.134049 458.84738 139.336247 458.773017 140.253384C458.698654 141.17052 458.512748 142.335537 458.215297 143.748426S457.558428 146.326332 457.13704 147.243469S456.083567 149.189293 455.240793 150.329517S453.406513 152.41167 452.266289 153.155296S449.688383 154.617763 447.953258 155.311811S444.235127 156.551191 442.004249 156.947789V158.435041H477.995751V156.947789C475.764873 156.551188 473.781867 155.993471 472.046742 155.27463S468.861546 153.824559 467.69653 153.080933S465.540014 151.38299 464.722025 150.217973S463.271955 148.024276 462.825779 147.131925S462.020187 145.074557 461.747521 143.636882S461.301346 141.046587 461.226983 140.179021C461.15262 139.311455 461.090652 138.134049 461.041076 136.646797C462.230878 138.828098 463.197592 140.364928 463.941218 141.257279C465.279745 142.942834 466.928119 144.281361 468.886331 145.27286C470.844544 146.264359 472.765583 146.760112 474.649433 146.760112C477.82224 146.760112 480.548864 145.582706 482.82932 143.227888S486.25 138.034902 486.25 134.71337C486.25 131.490992 485.22132 128.739576 483.163952 126.45912S478.615437 123.03844 475.69051 123.03844C474.699011 123.03844 473.781867 123.174772 472.939093 123.447435S471.253539 124.067123 470.410765 124.488511L468.84915 125.269319C470.782578 122.493117 471.749292 119.865633 471.749292 117.386882C471.749292 114.263653 470.596671 111.586599 468.291431 109.355721S463.222377 106.009404 460.0 106.009404S454.01381 107.124843 451.708569 109.355721S448.250708 114.263653 448.250708 117.386882C448.250708 119.865633 449.217422 122.493117 451.15085 125.269319C450.803824 125.120593 450.320465 124.897506 449.700779 124.600055S448.622521 124.079517 448.325071 123.930792S447.643413 123.633341 447.17245 123.484616S446.242918 123.224347 445.796742 123.149984S444.854813 123.03844 444.30949 123.03844C441.384563 123.03844 438.893416 124.178665 436.836048 126.45912S433.75 131.490992 433.75 134.71337C433.75 138.034902 434.890224 140.87307 437.17068 143.227888S442.17776 146.760112 445.350567 146.760112C450.803822 146.760112 455.339919 143.389009 458.958924 136.646797Z" fill="#010101" />
<path d="M13.254717 617.903384Q13.386792 620.676969 14.773585 622.39395T19.330189 626.224138Q29.764151 633.224138 35.509434 637.780742T45.877358 649.337346T50.5 665.054327Q50.5 671.39395 47.132075 674.89395T37.688679 678.39395Q32.537736 678.39395 29.169811 675.818478T25.801887 668.75244Q25.801887 666.507157 26.858491 664.988289T29.037736 662.544893T30.160377 661.488289Q30.160377 660.563761 28.377358 659.243006T24.084906 657.922252Q19.990566 657.922252 17.54717 660.497723T15.103774 667.035459Q15.103774 672.318478 18.669811 676.016591T27.716981 681.431686T38.877358 683.148667Q48.783019 683.148667 55.981132 678.261874T63.179245 663.337346Q63.179245 656.073195 59.216981 650.129799T49.773585 640.026025T35.443396 630.186403Q28.443396 625.827912 25.009434 623.186403V622.526025H60.40566Q63.707547 622.526025 65.226415 621.79961T66.745283 617.903384Q66.745283 613.148667 62.122642 613.148667H17.877358Q13.254717 613.148667 13.254717 617.903384Z" fill="#010101" />
<path d="M41.041076 563.353203C41.090652 561.865951 41.15262 560.663753 41.226983 559.746616C41.301346 558.82948 41.487252 557.664463 41.784703 556.251574S42.441572 553.673668 42.86296 552.756531S43.916433 550.810707 44.759207 549.670483S46.593487 547.58833 47.733711 546.844704S50.311617 545.382237 52.046742 544.688189S55.764873 543.448809 57.995751 543.052211V541.564959H22.004249V543.052211C24.235127 543.448812 26.218133 544.006529 27.953258 544.72537S31.138454 546.175441 32.30347 546.919067S34.459986 548.61701 35.277975 549.782027S36.728045 551.975724 37.174221 552.868075S37.979813 554.925443 38.252479 556.363118S38.698654 558.953413 38.773017 559.820979C38.84738 560.688545 38.909348 561.865951 38.958924 563.353203C37.769122 561.171902 36.802408 559.635072 36.058782 558.742721C34.720255 557.057166 33.071881 555.718639 31.113669 554.72714C29.155456 553.735641 27.234417 553.239888 25.350567 553.239888C22.17776 553.239888 19.451136 554.417294 17.17068 556.772112S13.75 561.965098 13.75 565.28663C13.75 568.509008 14.77868 571.260424 16.836048 573.54088S21.384563 576.96156 24.30949 576.96156C25.300989 576.96156 26.218133 576.825228 27.060907 576.552565S28.746461 575.932877 29.589235 575.511489L31.15085 574.730681C29.217422 577.506883 28.250708 580.134367 28.250708 582.613118C28.250708 585.736347 29.403329 588.413401 31.708569 590.644279S36.777623 593.990596 40.0 593.990596S45.98619 592.875157 48.291431 590.644279S51.749292 585.736347 51.749292 582.613118C51.749292 580.134367 50.782578 577.506883 48.84915 574.730681C49.196176 574.879407 49.679535 575.102494 50.299221 575.399945S51.377479 575.920483 51.674929 576.069208S52.356587 576.366659 52.82755 576.515384S53.757082 576.775653 54.203258 576.850016S55.145187 576.96156 55.69051 576.96156C58.615437 576.96156 61.106584 575.821335 63.163952 573.54088S66.25 568.509008 66.25 565.28663C66.25 561.965098 65.109776 559.12693 62.82932 556.772112S57.82224 553.239888 54.649433 553.239888C49.196178 553.239888 44.660081 556.610991 41.041076 563.353203Z" fill="#010101" />
</svg>
