<svg width="500.000000" height="700.000000" id="card-realdiamond1">
<radialGradient id="card-realwhitegradient" cx="250.0" cy="350.0" r="500" gradientTransform="matrix(1 0 0 1 0 -.25)" gradientUnits="userSpaceOnUse">
<stop stop-color="#FDFAF4" offset=".15"/>
<stop stop-color="#FDF9F2" offset=".35"/>
<stop stop-color="#FCF7F1" offset=".5"/>
<stop stop-color="#FDFDF8" offset=".75"/>
<stop stop-color="#FFFDFA" offset="1"/>
</radialGradient>
<rect x="0" y="0" rx="25.0" ry="25.0" width="500" height="700.0" stroke="rgba(1,1,1,0.333)" fill="url(#card-realwhitegradient)" />
<path d="M250.0 250.0L209.109875 294.784423L250.0 336.230876L291.446453 294.784423ZM150.69541 349.30459L195.201669 391.8637L236.648122 349.30459L195.201669 307.858136ZM250.0 450.0L291.446453 404.381085L250.0 362.656467L207.997218 404.381085ZM349.30459 349.30459L305.076495 307.858136L263.630042 349.30459L305.076495 390.472879Z" fill="#da0a0a" />
<path d="M494.530551 84.556251Q495.0 83.878159 495.0 82.939262Q494.895678 81.374433 494.374069 81.061467T493.122206 80.748502H492.183308Q489.053651 80.748502 487.593145 79.131512T485.245902 75.480245T484.0462 72.715715L465.789866 29.526445Q465.163934 27.961616 465.163934 27.022719Q465.163934 25.144925 466.624441 24.31035T470.692996 22.954165Q472.466468 22.641199 472.883756 22.328233T473.301043 20.554761Q473.301043 19.302898 472.622951 18.885611T470.484352 18.468323Q465.268256 18.468323 462.19076 19.250737T456.818182 22.380394T452.540984 29.526445L435.014903 72.715715Q433.450075 76.679947 431.989568 78.662064T427.608048 80.748502H426.982116Q425.938897 80.748502 425.52161 81.113628T425.0 82.939262Q425.0 83.878159 425.469449 84.556251T426.877794 85.234344Q433.554396 84.921378 438.353204 84.921378Q444.612519 84.921378 451.289121 85.234344Q452.228018 85.234344 452.697466 84.556251T453.166915 82.939262Q453.062593 81.478755 452.645306 81.113628T451.184799 80.748502Q447.637854 80.748502 446.177347 80.070409T444.716841 77.618845Q444.716841 76.26266 445.968703 72.715715L449.515648 64.056997H475.283159Q477.891207 70.524955 478.256334 71.568174T478.621461 72.715715Q479.873323 76.679947 479.873323 77.827488Q479.873323 79.600961 478.308495 80.174731T472.362146 80.748502H471.736215Q470.692996 80.748502 470.275708 81.113628T469.754098 82.939262Q469.754098 83.878159 470.223547 84.556251T471.631893 85.234344Q478.308495 84.921378 483.002981 84.921378Q486.341282 84.921378 493.122206 85.234344Q494.061103 85.234344 494.530551 84.556251ZM473.301043 59.571154H451.393443L461.929955 32.760424H462.242921Z" fill="#da0a0a" />
<path d="M460.073018 105.972222C458.904729 108.308801 456.081361 112.50734 451.602921 118.567841C447.124481 124.628342 443.522229 129.167657 440.796245 132.185713C444.203758 136.080008 447.866826 140.704514 451.785466 146.059149C455.704105 151.413805 458.46662 155.551499 460.073018 158.472222C463.675241 152.046631 470.05218 143.284461 479.203755 132.185713C469.808738 120.843596 463.43185 112.105741 460.073018 105.972222Z" fill="#da0a0a" />
<path d="M5.469449 615.443749Q5.0 616.121841 5.0 617.060738Q5.104322 618.625567 5.625931 618.938533T6.877794 619.251498H7.816692Q10.946349 619.251498 12.406855 620.868488T14.754098 624.519755T15.9538 627.284285L34.210134 670.473555Q34.836066 672.038384 34.836066 672.977281Q34.836066 674.855075 33.375559 675.68965T29.307004 677.045835Q27.533532 677.358801 27.116244 677.671767T26.698957 679.445239Q26.698957 680.697102 27.377049 681.114389T29.515648 681.531677Q34.731744 681.531677 37.80924 680.749263T43.181818 677.619606T47.459016 670.473555L64.985097 627.284285Q66.549925 623.320053 68.010432 621.337936T72.391952 619.251498H73.017884Q74.061103 619.251498 74.47839 618.886372T75.0 617.060738Q75.0 616.121841 74.530551 615.443749T73.122206 614.765656Q66.445604 615.078622 61.646796 615.078622Q55.387481 615.078622 48.710879 614.765656Q47.771982 614.765656 47.302534 615.443749T46.833085 617.060738Q46.937407 618.521245 47.354694 618.886372T48.815201 619.251498Q52.362146 619.251498 53.822653 619.929591T55.283159 622.381155Q55.283159 623.73734 54.031297 627.284285L50.484352 635.943003H24.716841Q22.108793 629.475045 21.743666 628.431826T21.378539 627.284285Q20.126677 623.320053 20.126677 622.172512Q20.126677 620.399039 21.691505 619.825269T27.637854 619.251498H28.263785Q29.307004 619.251498 29.724292 618.886372T30.245902 617.060738Q30.245902 616.121841 29.776453 615.443749T28.368107 614.765656Q21.691505 615.078622 16.997019 615.078622Q13.658718 615.078622 6.877794 614.765656Q5.938897 614.765656 5.469449 615.443749ZM26.698957 640.428846H48.606557L38.070045 667.239576H37.757079Z" fill="#da0a0a" />
<path d="M39.926982 594.027778C41.095271 591.691199 43.918639 587.49266 48.397079 581.432159C52.875519 575.371658 56.477771 570.832343 59.203755 567.814287C55.796242 563.919992 52.133174 559.295486 48.214534 553.940851C44.295895 548.586195 41.53338 544.448501 39.926982 541.527778C36.324759 547.953369 29.94782 556.715539 20.796245 567.814287C30.191262 579.156404 36.56815 587.894259 39.926982 594.027778Z" fill="#da0a0a" />
</svg>
