<svg width="25.000000" height="35.000000" id="card-lightclub1">
<rect x="0" y="0" rx="1.25" ry="1.25" width="25" height="35.0" fill="#fffdfa" />
<path d="M8.434844 17.485836C8.085458 17.589707 7.82814 17.747875 7.66289 17.96034S7.415014 18.401795 7.415014 18.647309C7.415014 18.930595 7.516525 19.176109 7.719547 19.383853S8.161001 19.695467 8.434844 19.695467C8.803116 19.695467 9.185552 19.560907 9.582153 19.291785S10.410765 18.703966 10.878187 18.335694S11.787064 17.712465 12.20255 17.570822C12.164778 17.948537 12.145892 18.212936 12.145892 18.364023C12.145892 20.280921 12.854108 21.67847 14.270538 22.556657C14.676582 22.188385 14.940982 21.928707 15.063739 21.77762C14.563268 21.418792 14.140698 21.008027 13.796034 20.545326S13.210576 19.636449 13.073654 19.206799S12.844664 18.434844 12.79745 18.179887S12.726629 17.712465 12.726629 17.542493C13.094901 17.66525 13.470255 17.854108 13.852691 18.109065S14.558545 18.607177 14.822946 18.838527C15.087347 19.069877 15.372993 19.272899 15.679887 19.447592S16.272426 19.709632 16.536827 19.709632C16.829557 19.709632 17.077432 19.610482 17.280453 19.412181C17.483475 19.213881 17.584986 18.968367 17.584986 18.675637C17.584986 18.109065 17.245042 17.712465 16.565156 17.485836C17.245042 17.306421 17.584986 16.923984 17.584986 16.338527C17.584986 16.045797 17.485836 15.797922 17.287535 15.594901S16.853163 15.290368 16.57932 15.290368C16.267705 15.290368 15.941926 15.387158 15.601983 15.580737S14.955146 15.993863 14.681303 16.239377C14.40746 16.484891 14.074599 16.732766 13.68272 16.983003S12.906044 17.40085 12.528329 17.485836C12.660529 17.004249 12.913126 16.508499 13.286119 15.998584S13.991973 15.028329 14.284703 14.617564C14.577432 14.206799 14.723796 13.831445 14.723796 13.491501C14.723796 13.18933 14.624646 12.939093 14.426346 12.740793S13.977809 12.443343 13.675637 12.443343C13.118508 12.443343 12.73135 12.783286 12.514164 13.463173C12.410293 13.113786 12.254486 12.856469 12.046742 12.691218S11.607649 12.443343 11.352691 12.443343C11.069405 12.443343 10.823891 12.542493 10.616147 12.740793C10.408404 12.939093 10.304533 13.175166 10.304533 13.449008C10.304533 13.836166 10.446176 14.244571 10.729462 14.674221C11.012748 15.103871 11.331445 15.564211 11.685552 16.055241S12.278092 17.023135 12.40085 17.485836C12.004249 17.381964 11.607649 17.20255 11.211048 16.947592S10.483948 16.444759 10.219547 16.203966S9.664778 15.748347 9.348442 15.55949S8.741738 15.276204 8.477337 15.276204C8.175166 15.276204 7.922568 15.377715 7.719547 15.580737S7.415014 16.031633 7.415014 16.324363C7.415014 16.881492 7.754958 17.26865 8.434844 17.485836Z" fill="#010101" />
<path d="M24.726528 5.524135Q24.75 5.49023 24.75 5.443285Q24.744784 5.365044 24.718703 5.349396T24.65611 5.333747H24.609165Q24.452683 5.333747 24.379657 5.252898T24.262295 5.070334T24.20231 4.932108L23.289493 2.772644Q23.258197 2.694403 23.258197 2.647458Q23.258197 2.553568 23.331222 2.51184T23.53465 2.44403Q23.623323 2.428382 23.644188 2.412734T23.665052 2.32406Q23.665052 2.261467 23.631148 2.240603T23.524218 2.219738Q23.263413 2.219738 23.109538 2.258859T22.840909 2.415342T22.627049 2.772644L21.750745 4.932108Q21.672504 5.13032 21.599478 5.229425T21.380402 5.333747H21.349106Q21.296945 5.333747 21.27608 5.352004T21.25 5.443285Q21.25 5.49023 21.273472 5.524135T21.34389 5.558039Q21.67772 5.542391 21.91766 5.542391Q22.230626 5.542391 22.564456 5.558039Q22.611401 5.558039 22.634873 5.524135T22.658346 5.443285Q22.65313 5.37026 22.632265 5.352004T22.55924 5.333747Q22.381893 5.333747 22.308867 5.299843T22.235842 5.177264Q22.235842 5.109455 22.298435 4.932108L22.475782 4.499172H23.764158Q23.89456 4.82257 23.912817 4.874731T23.931073 4.932108Q23.993666 5.13032 23.993666 5.187697Q23.993666 5.27637 23.915425 5.305059T23.618107 5.333747H23.586811Q23.53465 5.333747 23.513785 5.352004T23.487705 5.443285Q23.487705 5.49023 23.511177 5.524135T23.581595 5.558039Q23.915425 5.542391 24.150149 5.542391Q24.317064 5.542391 24.65611 5.558039Q24.703055 5.558039 24.726528 5.524135ZM23.665052 4.27488H22.569672L23.096498 2.934343H23.112146Z" fill="#010101" />
<path d="M22.95373 7.974424C22.951527 8.040523 22.948773 8.093954 22.945468 8.134715C22.942163 8.175476 22.933901 8.227254 22.920681 8.290048S22.891487 8.404621 22.872759 8.445382S22.825938 8.531862 22.788482 8.582538S22.706959 8.675078 22.656283 8.708127S22.54171 8.773125 22.464595 8.803971S22.299346 8.859054 22.200197 8.876681V8.94278H23.799803V8.876681C23.700654 8.859054 23.612521 8.834267 23.535405 8.802319S23.393843 8.737872 23.342065 8.704822S23.24622 8.629359 23.209866 8.577581S23.145419 8.480084 23.125589 8.440425S23.089785 8.348987 23.077667 8.285091S23.057837 8.169968 23.054532 8.13141C23.051227 8.092852 23.048473 8.040523 23.04627 7.974424C23.099149 8.071369 23.142114 8.139672 23.175163 8.179332C23.234653 8.254245 23.307913 8.313734 23.394944 8.3578C23.481975 8.401866 23.567354 8.4239 23.651079 8.4239C23.792092 8.4239 23.913274 8.371571 24.014626 8.266914S24.166655 8.036117 24.166655 7.888494C24.166655 7.745279 24.120936 7.622995 24.029499 7.521642S23.827344 7.369614 23.697349 7.369614C23.653283 7.369614 23.612521 7.375673 23.575065 7.387791S23.500152 7.415333 23.462696 7.434061L23.393292 7.468763C23.479221 7.345377 23.522186 7.228602 23.522186 7.118436C23.522186 6.979627 23.470958 6.860648 23.368504 6.761499S23.143215 6.612775 23.0 6.612775S22.73395 6.66235 22.631496 6.761499S22.477814 6.979627 22.477814 7.118436C22.477814 7.228602 22.520779 7.345377 22.606708 7.468763C22.591285 7.462153 22.569803 7.452238 22.542261 7.439018S22.494339 7.415883 22.481119 7.409273S22.450824 7.396054 22.429892 7.389444S22.38858 7.377876 22.36875 7.374571S22.326887 7.369614 22.302651 7.369614C22.172656 7.369614 22.061939 7.42029 21.970501 7.521642S21.833345 7.745279 21.833345 7.888494C21.833345 8.036117 21.884021 8.162256 21.985374 8.266914S22.207908 8.4239 22.348921 8.4239C22.591285 8.4239 22.792887 8.274074 22.95373 7.974424Z" fill="#010101" />
<path d="M0.273472 29.475865Q0.25 29.50977 0.25 29.556715Q0.255216 29.634956 0.281297 29.650604T0.34389 29.666253H0.390835Q0.547317 29.666253 0.620343 29.747102T0.737705 29.929666T0.79769 30.067892L1.710507 32.227356Q1.741803 32.305597 1.741803 32.352542Q1.741803 32.446432 1.668778 32.48816T1.46535 32.55597Q1.376677 32.571618 1.355812 32.587266T1.334948 32.67594Q1.334948 32.738533 1.368852 32.759397T1.475782 32.780262Q1.736587 32.780262 1.890462 32.741141T2.159091 32.584658T2.372951 32.227356L3.249255 30.067892Q3.327496 29.86968 3.400522 29.770575T3.619598 29.666253H3.650894Q3.703055 29.666253 3.72392 29.647996T3.75 29.556715Q3.75 29.50977 3.726528 29.475865T3.65611 29.441961Q3.32228 29.457609 3.08234 29.457609Q2.769374 29.457609 2.435544 29.441961Q2.388599 29.441961 2.365127 29.475865T2.341654 29.556715Q2.34687 29.62974 2.367735 29.647996T2.44076 29.666253Q2.618107 29.666253 2.691133 29.700157T2.764158 29.822736Q2.764158 29.890545 2.701565 30.067892L2.524218 30.500828H1.235842Q1.10544 30.17743 1.087183 30.125269T1.068927 30.067892Q1.006334 29.86968 1.006334 29.812303Q1.006334 29.72363 1.084575 29.694941T1.381893 29.666253H1.413189Q1.46535 29.666253 1.486215 29.647996T1.512295 29.556715Q1.512295 29.50977 1.488823 29.475865T1.418405 29.441961Q1.084575 29.457609 0.849851 29.457609Q0.682936 29.457609 0.34389 29.441961Q0.296945 29.441961 0.273472 29.475865ZM1.334948 30.72512H2.430328L1.903502 32.065657H1.887854Z" fill="#010101" />
<path d="M2.04627 27.025576C2.048473 26.959477 2.051227 26.906046 2.054532 26.865285C2.057837 26.824524 2.066099 26.772746 2.079319 26.709952S2.108513 26.595379 2.127241 26.554618S2.174062 26.468138 2.211518 26.417462S2.293041 26.324922 2.343717 26.291873S2.45829 26.226875 2.535405 26.196029S2.700654 26.140946 2.799803 26.123319V26.05722H1.200197V26.123319C1.299346 26.140946 1.387479 26.165733 1.464595 26.197681S1.606157 26.262128 1.657935 26.295178S1.75378 26.370641 1.790134 26.422419S1.854581 26.519916 1.874411 26.559575S1.910215 26.651013 1.922333 26.714909S1.942163 26.830032 1.945468 26.86859C1.948773 26.907148 1.951527 26.959477 1.95373 27.025576C1.900851 26.928631 1.857886 26.860328 1.824837 26.820668C1.765347 26.745755 1.692087 26.686266 1.605056 26.6422C1.518025 26.598134 1.432646 26.5761 1.348921 26.5761C1.207908 26.5761 1.086726 26.628429 0.985374 26.733086S0.833345 26.963883 0.833345 27.111506C0.833345 27.254721 0.879064 27.377005 0.970501 27.478358S1.172656 27.630386 1.302651 27.630386C1.346717 27.630386 1.387479 27.624327 1.424935 27.612209S1.499848 27.584667 1.537304 27.565939L1.606708 27.531237C1.520779 27.654623 1.477814 27.771398 1.477814 27.881564C1.477814 28.020373 1.529042 28.139352 1.631496 28.238501S1.856785 28.387225 2.0 28.387225S2.26605 28.33765 2.368504 28.238501S2.522186 28.020373 2.522186 27.881564C2.522186 27.771398 2.479221 27.654623 2.393292 27.531237C2.408715 27.537847 2.430197 27.547762 2.457739 27.560982S2.505661 27.584117 2.518881 27.590727S2.549176 27.603946 2.570108 27.610556S2.61142 27.622124 2.63125 27.625429S2.673113 27.630386 2.697349 27.630386C2.827344 27.630386 2.938061 27.57971 3.029499 27.478358S3.166655 27.254721 3.166655 27.111506C3.166655 26.963883 3.115979 26.837744 3.014626 26.733086S2.792092 26.5761 2.651079 26.5761C2.408715 26.5761 2.207113 26.725926 2.04627 27.025576Z" fill="#010101" />
</svg>
