<svg width="500.000000" height="700.000000" id="card-realspade13">
<radialGradient id="card-realwhitegradient" cx="250.0" cy="350.0" r="500" gradientTransform="matrix(1 0 0 1 0 -.25)" gradientUnits="userSpaceOnUse">
<stop stop-color="#FDFAF4" offset=".15"/>
<stop stop-color="#FDF9F2" offset=".35"/>
<stop stop-color="#FCF7F1" offset=".5"/>
<stop stop-color="#FDFDF8" offset=".75"/>
<stop stop-color="#FFFDFA" offset="1"/>
</radialGradient>
<rect x="0" y="0" rx="25.0" ry="25.0" width="500" height="700.0" stroke="rgba(1,1,1,0.333)" fill="url(#card-realwhitegradient)" />
<rect x="100.0" y="70.0" width="300.0" height="560.0" stroke="#010101" fill="#fffdfa" />
<path d="M200.212766 195.503073C202.860519 195.503073 206.312057 196.401419 210.567376 198.198109S219.456255 202.737116 224.468085 206.425059S233.782496 215.455783 237.375887 222.453428S242.765957 237.394336 242.765957 246.283215C242.765957 249.68747 245.224587 251.389598 250.141844 251.389598C255.248227 251.389598 257.801418 249.68747 257.801418 246.283215C257.801418 237.016066 259.550828 228.789116 263.049645 221.602364S270.851064 209.072804 275.957447 205.573995S285.69739 199.521995 289.858156 197.914421C294.018922 196.306855 297.51773 195.503073 300.35461 195.503073C308.108738 195.503073 314.255319 197.583451 318.794326 201.744208S325.602837 211.673286 325.602837 219.049173C325.602837 221.696926 324.184397 226.235924 321.347518 232.666194S313.877078 245.621286 307.446809 252.240662S293.92434 262.16974 286.170213 262.16974C278.794326 262.16974 266.879433 260.7513 250.425532 257.914421C233.782496 260.7513 221.77305 262.16974 214.397163 262.16974C208.53427 262.16974 202.907801 260.231207 197.51773 256.354137S187.919631 247.938052 184.893617 242.737116C181.867603 237.53618 179.456255 232.713485 177.659574 228.269031S174.964539 220.7513 174.964539 219.049173C174.964539 211.673286 177.234043 205.904974 181.77305 201.744208S192.458638 195.503073 200.212766 195.503073ZM235.957447 247.417967C235.768321 240.609456 234.680851 234.462875 232.695035 228.978251S228.345163 219.143726 225.602837 215.928605S219.787234 210.065712 216.382979 207.985343S210.0 204.486534 207.446809 203.730024S202.671404 202.595272 200.780142 202.595272C195.106383 202.595272 190.425532 204.060994 186.737589 206.992435S181.205674 213.94279 181.205674 219.049173C181.205674 220.562174 181.914894 223.115357 183.333333 226.708747S186.832142 234.226478 189.574468 238.481797S196.241135 246.47235 201.347518 249.68747S212.12766 254.510165 218.368794 254.510165C230.094553 254.510165 235.957447 252.1461 235.957447 247.417967ZM208.156028 291.10591C208.156028 286.188662 222.056738 283.730024 249.858156 283.730024C262.340426 283.730024 272.505901 284.391961 280.35461 285.715839S292.12766 288.741853 292.12766 290.822222C292.12766 293.659102 289.574468 295.077541 284.468085 295.077541C283.900709 295.077541 278.321504 294.604727 267.730496 293.659102S251.276596 292.240662 250.141844 292.240662C249.574468 292.240662 244.042553 292.713476 233.546099 293.659102S217.234043 295.077541 216.099291 295.077541C210.803773 295.077541 208.156028 293.753663 208.156028 291.10591ZM272.836879 196.354137C272.836879 188.22174 271.985816 182.264293 270.283688 178.481797S264.137106 170.3494 256.950355 165.432151V158.907329L268.58156 151.81513V141.602364H258.085106L254.680851 131.10591H245.035461L241.347518 141.602364H231.134752V151.81513L242.48227 158.907329V165.432151C235.862894 169.782024 231.607574 173.895499 229.716312 177.772577S226.879433 187.843499 226.879433 196.354137C217.990553 189.167385 208.817957 185.573995 199.361702 185.573995C189.527177 185.573995 181.158383 188.789116 174.255319 195.219385S163.900709 209.68747 163.900709 219.332861C163.900709 227.086988 167.588652 236.070449 174.964539 246.283215C179.503546 252.52435 182.576823 257.016066 184.184397 259.758392S187.494099 267.228832 189.29078 273.94279S192.080377 288.647272 192.269504 297.914421C192.647753 310.774931 211.938525 317.205201 250.141844 317.205201C287.966809 317.205201 307.163121 310.774931 307.730496 297.914421C307.919622 288.269031 309.101654 279.711102 311.276596 272.240662S315.390071 259.711102 317.092199 257.063357S321.442071 250.727669 325.035461 245.999527C332.411348 235.975896 336.099291 227.086988 336.099291 219.332861C336.099291 209.876605 332.647745 201.886052 325.744681 195.361229C318.841617 188.836407 310.567376 185.573995 300.921986 185.573995C291.087461 185.573995 281.725759 189.167385 272.836879 196.354137ZM300.070922 202.595272C297.612292 202.595272 294.63356 203.304492 291.134752 204.722931C287.635943 206.141371 283.758865 208.410875 279.503546 211.531442S271.702128 219.380151 268.865248 225.715839S264.609929 239.380151 264.609929 247.701655C264.609929 252.240662 270.378241 254.510165 281.914894 254.510165C288.345163 254.510165 294.160766 252.9026 299.361702 249.68747S308.487007 242.642563 311.134752 238.198109S315.768312 229.829314 317.092199 226.425059S319.078014 220.562165 319.078014 219.049173C319.078014 213.94279 317.234043 209.923868 313.546099 206.992435S305.36644 202.595272 300.070922 202.595272Z" fill="#010101" />
<path d="M299.787234 504.496927C297.139481 504.496927 293.687943 503.598581 289.432624 501.801891S280.543745 497.262884 275.531915 493.574941S266.217504 484.544217 262.624113 477.546572S257.234043 462.605664 257.234043 453.716785C257.234043 450.31253 254.775413 448.610402 249.858156 448.610402C244.751773 448.610402 242.198582 450.31253 242.198582 453.716785C242.198582 462.983934 240.449172 471.210884 236.950355 478.397636S229.148936 490.927196 224.042553 494.426005S214.30261 500.478005 210.141844 502.085579C205.981078 503.693145 202.48227 504.496927 199.64539 504.496927C191.891262 504.496927 185.744681 502.416549 181.205674 498.255792S174.397163 488.326714 174.397163 480.950827C174.397163 478.303074 175.815603 473.764076 178.652482 467.333806S186.122922 454.378714 192.553191 447.759338S206.07566 437.83026 213.829787 437.83026C221.205674 437.83026 233.120567 439.2487 249.574468 442.085579C266.217504 439.2487 278.22695 437.83026 285.602837 437.83026C291.46573 437.83026 297.092199 439.768793 302.48227 443.645863S312.080369 452.061948 315.106383 457.262884C318.132397 462.46382 320.543745 467.286515 322.340426 471.730969S325.035461 479.2487 325.035461 480.950827C325.035461 488.326714 322.765957 494.095026 318.22695 498.255792S307.541362 504.496927 299.787234 504.496927ZM264.042553 452.582033C264.231679 459.390544 265.319149 465.537125 267.304965 471.021749S271.654837 480.856274 274.397163 484.071395S280.212766 489.934288 283.617021 492.014657S290.0 495.513466 292.553191 496.269976S297.328596 497.404728 299.219858 497.404728C304.893617 497.404728 309.574468 495.939006 313.262411 493.007565S318.794326 486.05721 318.794326 480.950827C318.794326 479.437826 318.085106 476.884643 316.666667 473.291253S313.167858 465.773522 310.425532 461.518203S303.758865 453.52765 298.652482 450.31253S287.87234 445.489835 281.631206 445.489835C269.905447 445.489835 264.042553 447.8539 264.042553 452.582033ZM291.843972 408.89409C291.843972 413.811338 277.943262 416.269976 250.141844 416.269976C237.659574 416.269976 227.494099 415.608039 219.64539 414.284161S207.87234 411.258147 207.87234 409.177778C207.87234 406.340898 210.425532 404.922459 215.531915 404.922459C216.099291 404.922459 221.678496 405.395273 232.269504 406.340898S248.723404 407.759338 249.858156 407.759338C250.425532 407.759338 255.957447 407.286524 266.453901 406.340898S282.765957 404.922459 283.900709 404.922459C289.196227 404.922459 291.843972 406.246337 291.843972 408.89409ZM227.163121 503.645863C227.163121 511.77826 228.014184 517.735707 229.716312 521.518203S235.862894 529.6506 243.049645 534.567849V541.092671L231.41844 548.18487V558.397636H241.914894L245.319149 568.89409H254.964539L258.652482 558.397636H268.865248V548.18487L257.51773 541.092671V534.567849C264.137106 530.217976 268.392426 526.104501 270.283688 522.227423S273.120567 512.156501 273.120567 503.645863C282.009447 510.832615 291.182043 514.426005 300.638298 514.426005C310.472823 514.426005 318.841617 511.210884 325.744681 504.780615S336.099291 490.31253 336.099291 480.667139C336.099291 472.913012 332.411348 463.929551 325.035461 453.716785C320.496454 447.47565 317.423177 442.983934 315.815603 440.241608S312.505901 432.771168 310.70922 426.05721S307.919623 411.352728 307.730496 402.085579C307.352247 389.225069 288.061475 382.794799 249.858156 382.794799C212.033191 382.794799 192.836879 389.225069 192.269504 402.085579C192.080378 411.730969 190.898346 420.288898 188.723404 427.759338S184.609929 440.288898 182.907801 442.936643S178.557929 449.272331 174.964539 454.000473C167.588652 464.024104 163.900709 472.913012 163.900709 480.667139C163.900709 490.123395 167.352255 498.113948 174.255319 504.638771C181.158383 511.163593 189.432624 514.426005 199.078014 514.426005C208.912539 514.426005 218.274241 510.832615 227.163121 503.645863ZM199.929078 497.404728C202.387708 497.404728 205.36644 496.695508 208.865248 495.277069C212.364057 493.858629 216.241135 491.589125 220.496454 488.468558S228.297872 480.619849 231.134752 474.284161S235.390071 460.619849 235.390071 452.298345C235.390071 447.759338 229.621759 445.489835 218.085106 445.489835C211.654837 445.489835 205.839234 447.0974 200.638298 450.31253S191.512993 457.357437 188.865248 461.801891S184.231688 470.170686 182.907801 473.574941S180.921986 479.437835 180.921986 480.950827C180.921986 486.05721 182.765957 490.076132 186.453901 493.007565S194.63356 497.404728 199.929078 497.404728Z" fill="#010101" />
<path d="M494.520548 85.093342Q495.0 84.400801 495.0 83.441896Q494.893455 81.843723 494.360731 81.524088T492.336377 81.204454Q489.246575 81.204454 487.754947 80.085732T485.890411 77.315565T485.410959 73.000496V30.70217Q485.517504 28.038548 485.890411 26.387102T487.754947 23.616935T492.336377 22.498213H492.975647Q494.041096 22.498213 494.467275 22.125306T495.0 20.26077Q495.0 19.301866 494.520548 18.609324T493.082192 17.916782Q486.156773 18.236417 480.509893 18.236417Q474.117199 18.236417 467.191781 17.916782Q466.232877 17.916782 465.753425 18.609324T465.273973 20.26077Q465.380518 21.858944 465.913242 22.178578T467.937595 22.498213Q471.027397 22.498213 472.519026 23.616935T474.383562 26.387102T474.863014 30.70217V49.986798Q473.158295 49.667163 471.027397 48.175534T465.806697 44.020283Q459.840183 38.479948 450.783866 27.718913Q448.866058 25.588015 448.866058 24.309476Q448.866058 22.711303 451.74277 22.604758Q452.488584 22.498213 452.754947 22.018761T453.234399 20.367315Q453.234399 19.408411 452.701674 18.662597T451.316591 17.916782Q447.587519 18.236417 439.596651 18.236417Q437.039574 18.236417 432.138508 18.023327L429.901065 17.916782Q428.942161 17.916782 428.409437 18.609324T427.876712 20.367315Q427.983257 21.858944 428.515982 22.231851T430.00761 22.604758Q434.269406 22.391668 438.05175 23.989842T445.989346 29.743266L463.249619 47.749355Q459.520548 52.330785 455.578387 56.486037T446.09589 66.181623Q443.325723 68.95179 439.490107 73.000496Q438.318113 74.17249 437.891933 74.705215Q434.482496 78.114651 432.511416 79.499735T427.663623 81.204454Q427.450533 81.204454 426.704718 81.257726T425.479452 81.843723T425.0 83.441896Q425.0 84.400801 425.479452 85.093342T426.917808 85.785884Q428.196347 85.679339 430.00761 85.679339Q433.843227 85.46625 435.974125 85.46625H442.792998Q456.856925 69.804149 467.937595 57.018761Q471.347032 53.0766 474.863014 52.756965V73.000496Q474.756469 75.664119 474.383562 77.315565T472.519026 80.085732T467.937595 81.204454H467.298326Q466.232877 81.204454 465.806697 81.577361T465.273973 83.441896Q465.273973 84.400801 465.753425 85.093342T467.191781 85.785884Q474.010654 85.46625 480.403349 85.46625Q486.156773 85.46625 493.082192 85.785884Q494.041096 85.785884 494.520548 85.093342Z" fill="#010101" />
<path d="M458.771277 140.748818C458.52305 143.330381 457.90248 145.614064 456.909574 147.599882C455.916669 149.5857 454.874116 151.099882 453.781915 152.142435S451.312054 154.078605 449.648936 154.823286C447.985818 155.567967 446.707447 156.052009 445.81383 156.275414S443.828012 156.709811 442.537234 156.908392C442.338652 156.958038 442.189716 156.982861 442.090426 156.982861V158.472222H477.909574V156.982861C473.689714 156.23818 470.487586 155.145979 468.303191 153.706265C464.132979 150.926125 461.77482 146.606976 461.228723 140.748818C463.810286 144.720447 467.136522 146.706265 471.207447 146.706265C473.83865 146.706265 476.085106 145.787828 477.946809 143.950946S480.739362 139.880021 480.739362 137.248818C480.739362 135.014775 480.193263 132.979317 479.101064 131.142435C478.008863 129.305553 476.593969 127.630021 474.856383 126.115839S471.331563 123.025414 469.494681 121.387116C467.657799 119.748818 465.845745 117.601657 464.058511 114.945626S460.906031 109.298466 459.962766 105.972222C459.118797 109.248818 457.815605 112.202721 456.053191 114.833924S452.478723 119.599882 450.617021 121.23818S446.955671 124.465128 445.218085 126.004137S442.053191 129.231085 440.93617 131.067967S439.260638 134.965128 439.260638 137.248818C439.260638 139.880021 440.191489 142.114064 442.053191 143.950946S446.16135 146.706265 448.792553 146.706265C452.863478 146.706265 456.189714 144.720447 458.771277 140.748818Z" fill="#010101" />
<path d="M5.479452 614.906658Q5.0 615.599199 5.0 616.558104Q5.106545 618.156277 5.639269 618.475912T7.663623 618.795546Q10.753425 618.795546 12.245053 619.914268T14.109589 622.684435T14.589041 626.999504V669.29783Q14.482496 671.961452 14.109589 673.612898T12.245053 676.383065T7.663623 677.501787H7.024353Q5.958904 677.501787 5.532725 677.874694T5.0 679.73923Q5.0 680.698134 5.479452 681.390676T6.917808 682.083218Q13.843227 681.763583 19.490107 681.763583Q25.882801 681.763583 32.808219 682.083218Q33.767123 682.083218 34.246575 681.390676T34.726027 679.73923Q34.619482 678.141056 34.086758 677.821422T32.062405 677.501787Q28.972603 677.501787 27.480974 676.383065T25.616438 673.612898T25.136986 669.29783V650.013202Q26.841705 650.332837 28.972603 651.824466T34.193303 655.979717Q40.159817 661.520052 49.216134 672.281087Q51.133942 674.411985 51.133942 675.690524Q51.133942 677.288697 48.25723 677.395242Q47.511416 677.501787 47.245053 677.981239T46.765601 679.632685Q46.765601 680.591589 47.298326 681.337403T48.683409 682.083218Q52.412481 681.763583 60.403349 681.763583Q62.960426 681.763583 67.861492 681.976673L70.098935 682.083218Q71.057839 682.083218 71.590563 681.390676T72.123288 679.632685Q72.016743 678.141056 71.484018 677.768149T69.99239 677.395242Q65.730594 677.608332 61.94825 676.010158T54.010654 670.256734L36.750381 652.250645Q40.479452 647.669215 44.421613 643.513963T53.90411 633.818377Q56.674277 631.04821 60.509893 626.999504Q61.681887 625.82751 62.108067 625.294785Q65.517504 621.885349 67.488584 620.500265T72.336377 618.795546Q72.549467 618.795546 73.295282 618.742274T74.520548 618.156277T75.0 616.558104Q75.0 615.599199 74.520548 614.906658T73.082192 614.214116Q71.803653 614.320661 69.99239 614.320661Q66.156773 614.53375 64.025875 614.53375H57.207002Q43.143075 630.195851 32.062405 642.981239Q28.652968 646.9234 25.136986 647.243035V626.999504Q25.243531 624.335881 25.616438 622.684435T27.480974 619.914268T32.062405 618.795546H32.701674Q33.767123 618.795546 34.193303 618.422639T34.726027 616.558104Q34.726027 615.599199 34.246575 614.906658T32.808219 614.214116Q25.989346 614.53375 19.596651 614.53375Q13.843227 614.53375 6.917808 614.214116Q5.958904 614.214116 5.479452 614.906658Z" fill="#010101" />
<path d="M41.228723 559.251182C41.47695 556.669619 42.09752 554.385936 43.090426 552.400118C44.083331 550.4143 45.125884 548.900118 46.218085 547.857565S48.687946 545.921395 50.351064 545.176714C52.014182 544.432033 53.292553 543.947991 54.18617 543.724586S56.171988 543.290189 57.462766 543.091608C57.661348 543.041962 57.810284 543.017139 57.909574 543.017139V541.527778H22.090426V543.017139C26.310286 543.76182 29.512414 544.854021 31.696809 546.293735C35.867021 549.073875 38.22518 553.393024 38.771277 559.251182C36.189714 555.279553 32.863478 553.293735 28.792553 553.293735C26.16135 553.293735 23.914894 554.212172 22.053191 556.049054S19.260638 560.119979 19.260638 562.751182C19.260638 564.985225 19.806737 567.020683 20.898936 568.857565C21.991137 570.694447 23.406031 572.369979 25.143617 573.884161S28.668437 576.974586 30.505319 578.612884C32.342201 580.251182 34.154255 582.398343 35.941489 585.054374S39.093969 590.701534 40.037234 594.027778C40.881203 590.751182 42.184395 587.797279 43.946809 585.166076S47.521277 580.400118 49.382979 578.76182S53.044329 575.534872 54.781915 573.995863S57.946809 570.768915 59.06383 568.932033S60.739362 565.034872 60.739362 562.751182C60.739362 560.119979 59.808511 557.885936 57.946809 556.049054S53.83865 553.293735 51.207447 553.293735C47.136522 553.293735 43.810286 555.279553 41.228723 559.251182Z" fill="#010101" />
</svg>
