<svg width="25.000000" height="35.000000" id="card-lightdiamond10">
<rect x="0" y="0" rx="1.25" ry="1.25" width="25" height="35.0" stroke="rgba(1,1,1,0.333)" fill="#fffdfa" />
<path d="M7.506954 3.333333C7.395688 3.555865 7.126796 3.955726 6.700278 4.532916C6.27376 5.110107 5.930688 5.542422 5.671071 5.829856C5.995596 6.200742 6.34446 6.641171 6.717663 7.151136C7.090867 7.661103 7.353964 8.055169 7.506954 8.333333C7.850023 7.721372 8.45735 6.88688 9.328929 5.829856C8.434166 4.749655 7.826843 3.917478 7.506954 3.333333Z" fill="#da0a0a" />
<path d="M7.493046 31.666667C7.604312 31.444135 7.873204 31.044274 8.299722 30.467084C8.72624 29.889893 9.069312 29.457578 9.328929 29.170144C9.004404 28.799258 8.65554 28.358829 8.282337 27.848864C7.909133 27.338897 7.646036 26.944831 7.493046 26.666667C7.149977 27.278628 6.54265 28.11312 5.671071 29.170144C6.565834 30.250345 7.173157 31.082522 7.493046 31.666667Z" fill="#da0a0a" />
<path d="M7.506954 11.111111C7.395688 11.333642 7.126796 11.733503 6.700278 12.310694C6.27376 12.887884 5.930688 13.3202 5.671071 13.607634C5.995596 13.978519 6.34446 14.418948 6.717663 14.928914C7.090867 15.438881 7.353964 15.832947 7.506954 16.111111C7.850023 15.49915 8.45735 14.664658 9.328929 13.607634C8.434166 12.527432 7.826843 11.695256 7.506954 11.111111Z" fill="#da0a0a" />
<path d="M7.493046 23.888889C7.604312 23.666358 7.873204 23.266497 8.299722 22.689306C8.72624 22.112116 9.069312 21.6798 9.328929 21.392366C9.004404 21.021481 8.65554 20.581052 8.282337 20.071086C7.909133 19.561119 7.646036 19.167053 7.493046 18.888889C7.149977 19.50085 6.54265 20.335342 5.671071 21.392366C6.565834 22.472568 7.173157 23.304744 7.493046 23.888889Z" fill="#da0a0a" />
<path d="M17.506954 3.333333C17.395688 3.555865 17.126796 3.955726 16.700278 4.532916C16.27376 5.110107 15.930688 5.542422 15.671071 5.829856C15.995596 6.200742 16.34446 6.641171 16.717663 7.151136C17.090867 7.661103 17.353964 8.055169 17.506954 8.333333C17.850023 7.721372 18.45735 6.88688 19.328929 5.829856C18.434166 4.749655 17.826843 3.917478 17.506954 3.333333Z" fill="#da0a0a" />
<path d="M17.493046 31.666667C17.604312 31.444135 17.873204 31.044274 18.299722 30.467084C18.72624 29.889893 19.069312 29.457578 19.328929 29.170144C19.004404 28.799258 18.65554 28.358829 18.282337 27.848864C17.909133 27.338897 17.646036 26.944831 17.493046 26.666667C17.149977 27.278628 16.54265 28.11312 15.671071 29.170144C16.565834 30.250345 17.173157 31.082522 17.493046 31.666667Z" fill="#da0a0a" />
<path d="M17.506954 11.111111C17.395688 11.333642 17.126796 11.733503 16.700278 12.310694C16.27376 12.887884 15.930688 13.3202 15.671071 13.607634C15.995596 13.978519 16.34446 14.418948 16.717663 14.928914C17.090867 15.438881 17.353964 15.832947 17.506954 16.111111C17.850023 15.49915 18.45735 14.664658 19.328929 13.607634C18.434166 12.527432 17.826843 11.695256 17.506954 11.111111Z" fill="#da0a0a" />
<path d="M17.493046 23.888889C17.604312 23.666358 17.873204 23.266497 18.299722 22.689306C18.72624 22.112116 19.069312 21.6798 19.328929 21.392366C19.004404 21.021481 18.65554 20.581052 18.282337 20.071086C17.909133 19.561119 17.646036 19.167053 17.493046 18.888889C17.149977 19.50085 16.54265 20.335342 15.671071 21.392366C16.565834 22.472568 17.173157 23.304744 17.493046 23.888889Z" fill="#da0a0a" />
<path d="M12.506954 7.222222C12.395688 7.444754 12.126796 7.844614 11.700278 8.421805C11.27376 8.998996 10.930688 9.431311 10.671071 9.718745C10.995596 10.08963 11.34446 10.530059 11.717663 11.040025C12.090867 11.549992 12.353964 11.944058 12.506954 12.222222C12.850023 11.610261 13.45735 10.775769 14.328929 9.718745C13.434166 8.638544 12.826843 7.806367 12.506954 7.222222Z" fill="#da0a0a" />
<path d="M12.493046 27.777778C12.604312 27.555246 12.873204 27.155386 13.299722 26.578195C13.72624 26.001004 14.069312 25.568689 14.328929 25.281255C14.004404 24.91037 13.65554 24.469941 13.282337 23.959975C12.909133 23.450008 12.646036 23.055942 12.493046 22.777778C12.149977 23.389739 11.54265 24.224231 10.671071 25.281255C11.565834 26.361456 12.173157 27.193633 12.493046 27.777778Z" fill="#da0a0a" />
<path d="M24.725597 4.151658Q24.721355 4.075294 24.706506 4.049839T24.657719 4.024385Q24.420146 4.024385 24.32045 3.995748T24.171966 3.846203T24.123179 3.43893V2.115294Q24.118936 1.816203 24.14227 1.685748T24.224996 1.517112T24.420146 1.47893H24.628022Q24.704385 1.47893 24.704385 1.326203Q24.700143 1.230748 24.678931 1.208476T24.625901 1.186203H24.581356Q24.403176 1.186203 24.233481 1.100294T23.864394 0.893476Q23.838939 0.880748 23.82197 0.880748Q23.754092 0.880748 23.754092 1.027112V3.43893Q23.754092 3.71893 23.709547 3.839839T23.569548 3.992567T23.261975 4.024385H23.219552Q23.185612 4.024385 23.170764 4.049839T23.151673 4.151658Q23.151673 4.304385 23.228036 4.304385Q23.533488 4.285294 23.940756 4.285294Q24.343783 4.285294 24.649234 4.304385Q24.725597 4.304385 24.725597 4.151658ZM22.841963 4.100748Q23.06893 3.85893 23.181354 3.458021T23.293777 2.586203Q23.293777 2.10893 23.181354 1.714385T22.841963 1.081203T22.28409 0.842567Q21.970154 0.842567 21.741065 1.084385T21.39319 1.727112T21.274403 2.586203T21.39319 3.445294T21.741065 4.094385T22.28409 4.342567Q22.614996 4.342567 22.841963 4.100748ZM21.83864 3.712567Q21.681672 3.318021 21.681672 2.586203T21.83864 1.466203T22.279847 1.078021Q22.572572 1.078021 22.72954 1.463021T22.886508 2.586203T22.72954 3.715748T22.279847 4.107112Q21.995608 4.107112 21.83864 3.712567Z" fill="#da0a0a" />
<path d="M23.003651 5.298611C22.945236 5.41544 22.804068 5.625367 22.580146 5.928392C22.356224 6.231417 22.176111 6.458383 22.039812 6.609286C22.210188 6.804 22.393341 7.035226 22.589273 7.302957C22.785205 7.57069 22.923331 7.777575 23.003651 7.923611C23.183762 7.602332 23.502609 7.164223 23.960188 6.609286C23.490437 6.04218 23.171592 5.605287 23.003651 5.298611Z" fill="#da0a0a" />
<path d="M0.274403 30.848342Q0.278645 30.924706 0.293494 30.950161T0.342281 30.975615Q0.579854 30.975615 0.67955 31.004252T0.828034 31.153797T0.876821 31.56107V32.884706Q0.881064 33.183797 0.85773 33.314252T0.775004 33.482888T0.579854 33.52107H0.371978Q0.295615 33.52107 0.295615 33.673797Q0.299857 33.769252 0.321069 33.791524T0.374099 33.813797H0.418644Q0.596824 33.813797 0.766519 33.899706T1.135606 34.106524Q1.161061 34.119252 1.17803 34.119252Q1.245908 34.119252 1.245908 33.972888V31.56107Q1.245908 31.28107 1.290453 31.160161T1.430452 31.007433T1.738025 30.975615H1.780448Q1.814388 30.975615 1.829236 30.950161T1.848327 30.848342Q1.848327 30.695615 1.771964 30.695615Q1.466512 30.714706 1.059244 30.714706Q0.656217 30.714706 0.350766 30.695615Q0.274403 30.695615 0.274403 30.848342ZM2.158037 30.899252Q1.93107 31.14107 1.818646 31.541979T1.706223 32.413797Q1.706223 32.89107 1.818646 33.285615T2.158037 33.918797T2.71591 34.157433Q3.029846 34.157433 3.258935 33.915615T3.60681 33.272888T3.725597 32.413797T3.60681 31.554706T3.258935 30.905615T2.71591 30.657433Q2.385004 30.657433 2.158037 30.899252ZM3.16136 31.287433Q3.318328 31.681979 3.318328 32.413797T3.16136 33.533797T2.720153 33.921979Q2.427428 33.921979 2.27046 33.536979T2.113492 32.413797T2.27046 31.284252T2.720153 30.892888Q3.004392 30.892888 3.16136 31.287433Z" fill="#da0a0a" />
<path d="M1.996349 29.701389C2.054764 29.58456 2.195932 29.374633 2.419854 29.071608C2.643776 28.768583 2.823889 28.541617 2.960188 28.390714C2.789812 28.196 2.606659 27.964774 2.410727 27.697043C2.214795 27.42931 2.076669 27.222425 1.996349 27.076389C1.816238 27.397668 1.497391 27.835777 1.039812 28.390714C1.509563 28.95782 1.828408 29.394713 1.996349 29.701389Z" fill="#da0a0a" />
</svg>
