<svg width="25.000000" height="35.000000" id="card-lightspade1">
<rect x="0" y="0" rx="1.25" ry="1.25" width="25" height="35.0" fill="#fffdfa" />
<path d="M17.875887 18.102837C17.875887 17.970449 17.833333 17.861702 17.748227 17.776596S17.549645 17.648936 17.407801 17.648936C17.228132 17.648936 17.08156 17.738771 16.968085 17.91844C17.034279 18.117021 17.067376 18.268322 17.067376 18.37234C17.067376 18.599291 16.991726 18.788416 16.840426 18.939716S16.5 19.166667 16.27305 19.166667C15.942081 19.166667 15.682033 19.010638 15.492908 18.698582C15.398345 18.556738 15.317967 18.147755 15.251773 17.471631S15.043735 16.291962 14.826241 15.960993C14.62766 15.667848 14.360521 15.431443 14.024823 15.251773C13.689125 15.072104 13.346336 14.98227 12.996454 14.98227C12.608748 14.98227 12.27305 15.105201 11.989362 15.351064C11.705674 15.596926 11.56383 15.894799 11.56383 16.244681C11.56383 16.490543 11.644208 16.797872 11.804965 17.166667C11.275414 16.731678 10.760047 16.514184 10.258865 16.514184H10.14539C10.050827 16.306146 9.911348 16.117021 9.72695 15.946809S9.367613 15.646572 9.202128 15.556738S8.890071 15.353428 8.762411 15.216312C8.634752 15.079196 8.570922 14.925532 8.570922 14.755319S8.660756 14.438535 8.840426 14.315603H8.698582C8.405437 14.315603 8.169031 14.395981 7.989362 14.556738S7.719858 14.925532 7.719858 15.180851S7.804965 15.632387 7.975177 15.769504S8.339244 15.986997 8.556738 16.010638S8.994089 16.086288 9.216312 16.166667S9.587471 16.362884 9.663121 16.514184C9.086288 16.608747 8.57565 16.868794 8.131206 17.294326S7.455082 18.173759 7.43617 18.656028C7.265957 18.835698 7.161939 19.062648 7.124113 19.336879H7.43617C7.483451 19.724586 7.618203 20.034279 7.840426 20.265957S8.343972 20.613475 8.684397 20.613475C8.958628 20.613475 9.171394 20.540189 9.322695 20.393617S9.549645 20.041372 9.549645 19.776596C9.549645 19.663121 9.540189 19.516549 9.521277 19.336879C9.313238 19.516549 9.105201 19.606383 8.897163 19.606383C8.518912 19.606383 8.282506 19.403074 8.187943 18.996454C8.774231 18.750591 9.247045 18.431443 9.606383 18.039007S10.14539 17.247045 10.14539 16.840426V16.812057C10.457447 16.821513 10.743499 16.899527 11.003546 17.046099C11.263593 17.192671 11.445627 17.374705 11.549645 17.592199C11.199763 17.781323 10.958628 17.963357 10.826241 18.138298C10.693853 18.313238 10.62766 18.537826 10.62766 18.812057C10.62766 19.332152 10.885343 19.774231 11.400709 20.138298C11.916075 20.502365 12.537826 20.684397 13.265957 20.684397C13.852245 20.684397 14.516549 20.526004 15.258865 20.20922C16.001182 19.892435 16.622932 19.530733 17.124113 19.124113C17.625295 18.717494 17.875887 18.377068 17.875887 18.102837ZM8.131206 18.457447V18.400709C8.131206 18.003546 8.301418 17.641844 8.641844 17.315603S9.360521 16.821513 9.776596 16.812057C9.795508 16.925532 9.804965 16.991726 9.804965 17.010638C9.804965 17.256501 9.686761 17.490543 9.450355 17.712766S8.989362 18.098109 8.776596 18.202128S8.348699 18.391252 8.131206 18.457447Z" fill="#010101" />
<path d="M24.726528 5.524135Q24.75 5.49023 24.75 5.443285Q24.744784 5.365044 24.718703 5.349396T24.65611 5.333747H24.609165Q24.452683 5.333747 24.379657 5.252898T24.262295 5.070334T24.20231 4.932108L23.289493 2.772644Q23.258197 2.694403 23.258197 2.647458Q23.258197 2.553568 23.331222 2.51184T23.53465 2.44403Q23.623323 2.428382 23.644188 2.412734T23.665052 2.32406Q23.665052 2.261467 23.631148 2.240603T23.524218 2.219738Q23.263413 2.219738 23.109538 2.258859T22.840909 2.415342T22.627049 2.772644L21.750745 4.932108Q21.672504 5.13032 21.599478 5.229425T21.380402 5.333747H21.349106Q21.296945 5.333747 21.27608 5.352004T21.25 5.443285Q21.25 5.49023 21.273472 5.524135T21.34389 5.558039Q21.67772 5.542391 21.91766 5.542391Q22.230626 5.542391 22.564456 5.558039Q22.611401 5.558039 22.634873 5.524135T22.658346 5.443285Q22.65313 5.37026 22.632265 5.352004T22.55924 5.333747Q22.381893 5.333747 22.308867 5.299843T22.235842 5.177264Q22.235842 5.109455 22.298435 4.932108L22.475782 4.499172H23.764158Q23.89456 4.82257 23.912817 4.874731T23.931073 4.932108Q23.993666 5.13032 23.993666 5.187697Q23.993666 5.27637 23.915425 5.305059T23.618107 5.333747H23.586811Q23.53465 5.333747 23.513785 5.352004T23.487705 5.443285Q23.487705 5.49023 23.511177 5.524135T23.581595 5.558039Q23.915425 5.542391 24.150149 5.542391Q24.317064 5.542391 24.65611 5.558039Q24.703055 5.558039 24.726528 5.524135ZM23.665052 4.27488H22.569672L23.096498 2.934343H23.112146Z" fill="#010101" />
<path d="M22.945391 8.156734C22.934358 8.271469 22.906778 8.372965 22.862649 8.461222C22.81852 8.54948 22.772185 8.616776 22.723643 8.663112S22.613873 8.749163 22.539957 8.782259C22.466042 8.815356 22.409226 8.836869 22.36951 8.846798S22.281252 8.866104 22.223885 8.87493C22.215059 8.877136 22.20844 8.87824 22.204027 8.87824V8.944433H23.795973V8.87824C23.608426 8.845143 23.46611 8.796601 23.369027 8.732615C23.183686 8.609054 23.07888 8.417094 23.054609 8.156734C23.169344 8.333249 23.317176 8.421507 23.498104 8.421507C23.615045 8.421507 23.714886 8.380688 23.797628 8.299049S23.92174 8.118121 23.92174 8.00118C23.92174 7.90189 23.897469 7.811426 23.848928 7.729788C23.800386 7.648149 23.737502 7.573682 23.660277 7.506386S23.50362 7.369035 23.421982 7.296222C23.340343 7.22341 23.259808 7.127981 23.180376 7.009937S23.040268 6.758954 22.998345 6.611123C22.960836 6.756748 22.902917 6.888031 22.824588 7.004972S22.665724 7.21679 22.582983 7.289603S22.420258 7.433021 22.343033 7.501421S22.202372 7.64484 22.152727 7.726478S22.07826 7.899683 22.07826 8.00118C22.07826 8.118121 22.119631 8.217411 22.202372 8.299049S22.384955 8.421507 22.501896 8.421507C22.682824 8.421507 22.830656 8.333249 22.945391 8.156734Z" fill="#010101" />
<path d="M0.273472 29.475865Q0.25 29.50977 0.25 29.556715Q0.255216 29.634956 0.281297 29.650604T0.34389 29.666253H0.390835Q0.547317 29.666253 0.620343 29.747102T0.737705 29.929666T0.79769 30.067892L1.710507 32.227356Q1.741803 32.305597 1.741803 32.352542Q1.741803 32.446432 1.668778 32.48816T1.46535 32.55597Q1.376677 32.571618 1.355812 32.587266T1.334948 32.67594Q1.334948 32.738533 1.368852 32.759397T1.475782 32.780262Q1.736587 32.780262 1.890462 32.741141T2.159091 32.584658T2.372951 32.227356L3.249255 30.067892Q3.327496 29.86968 3.400522 29.770575T3.619598 29.666253H3.650894Q3.703055 29.666253 3.72392 29.647996T3.75 29.556715Q3.75 29.50977 3.726528 29.475865T3.65611 29.441961Q3.32228 29.457609 3.08234 29.457609Q2.769374 29.457609 2.435544 29.441961Q2.388599 29.441961 2.365127 29.475865T2.341654 29.556715Q2.34687 29.62974 2.367735 29.647996T2.44076 29.666253Q2.618107 29.666253 2.691133 29.700157T2.764158 29.822736Q2.764158 29.890545 2.701565 30.067892L2.524218 30.500828H1.235842Q1.10544 30.17743 1.087183 30.125269T1.068927 30.067892Q1.006334 29.86968 1.006334 29.812303Q1.006334 29.72363 1.084575 29.694941T1.381893 29.666253H1.413189Q1.46535 29.666253 1.486215 29.647996T1.512295 29.556715Q1.512295 29.50977 1.488823 29.475865T1.418405 29.441961Q1.084575 29.457609 0.849851 29.457609Q0.682936 29.457609 0.34389 29.441961Q0.296945 29.441961 0.273472 29.475865ZM1.334948 30.72512H2.430328L1.903502 32.065657H1.887854Z" fill="#010101" />
<path d="M2.054609 26.843266C2.065642 26.728531 2.093222 26.627035 2.137351 26.538778C2.18148 26.45052 2.227815 26.383224 2.276357 26.336888S2.386127 26.250837 2.460043 26.217741C2.533958 26.184644 2.590774 26.163131 2.63049 26.153202S2.718748 26.133896 2.776115 26.12507C2.784941 26.122864 2.79156 26.12176 2.795973 26.12176V26.055567H1.204027V26.12176C1.391574 26.154857 1.53389 26.203399 1.630973 26.267385C1.816314 26.390946 1.92112 26.582906 1.945391 26.843266C1.830656 26.666751 1.682824 26.578493 1.501896 26.578493C1.384955 26.578493 1.285114 26.619312 1.202372 26.700951S1.07826 26.881879 1.07826 26.99882C1.07826 27.09811 1.102531 27.188574 1.151072 27.270212C1.199614 27.351851 1.262498 27.426318 1.339723 27.493614S1.49638 27.630965 1.578018 27.703778C1.659657 27.77659 1.740192 27.872019 1.819624 27.990063S1.959732 28.241046 2.001655 28.388877C2.039164 28.243252 2.097083 28.111969 2.175412 27.995028S2.334276 27.78321 2.417017 27.710397S2.579742 27.566979 2.656967 27.498579S2.797628 27.35516 2.847273 27.273522S2.92174 27.100317 2.92174 26.99882C2.92174 26.881879 2.880369 26.782589 2.797628 26.700951S2.615045 26.578493 2.498104 26.578493C2.317176 26.578493 2.169344 26.666751 2.054609 26.843266Z" fill="#010101" />
</svg>
