<svg width="500.000000" height="700.000000" id="card-realdiamond3">
<radialGradient id="card-realwhitegradient" cx="250.0" cy="350.0" r="500" gradientTransform="matrix(1 0 0 1 0 -.25)" gradientUnits="userSpaceOnUse">
<stop stop-color="#FDFAF4" offset=".15"/>
<stop stop-color="#FDF9F2" offset=".35"/>
<stop stop-color="#FCF7F1" offset=".5"/>
<stop stop-color="#FDFDF8" offset=".75"/>
<stop stop-color="#FFFDFA" offset="1"/>
</radialGradient>
<rect x="0" y="0" rx="25.0" ry="25.0" width="500" height="700.0" stroke="rgba(1,1,1,0.333)" fill="url(#card-realwhitegradient)" />
<path d="M250.139082 66.666667C247.913769 71.117293 242.535925 79.114511 234.005563 90.658322C225.475202 102.202133 218.613769 110.848447 213.421419 116.597126C219.911919 124.014831 226.889193 132.823412 234.353268 143.022717C241.817344 153.222063 247.079277 161.103384 250.139082 166.666667C257.000459 154.427446 269.14701 137.737599 286.578581 116.597126C268.68331 94.993092 256.536857 78.34956 250.139082 66.666667Z" fill="#da0a0a" />
<path d="M249.860918 633.333333C252.086231 628.882707 257.464075 620.885489 265.994437 609.341678C274.524798 597.797867 281.386231 589.151553 286.578581 583.402874C280.088081 575.985169 273.110807 567.176588 265.646732 556.977283C258.182656 546.777937 252.920723 538.896616 249.860918 533.333333C242.999541 545.572554 230.85299 562.262401 213.421419 583.402874C231.31669 605.006908 243.463143 621.65044 249.860918 633.333333Z" fill="#da0a0a" />
<path d="M250.139082 300.0C247.913769 304.450626 242.535925 312.447844 234.005563 323.991655C225.475202 335.535466 218.613769 344.18178 213.421419 349.930459C219.911919 357.348164 226.889193 366.156745 234.353268 376.35605C241.817344 386.555396 247.079277 394.436718 250.139082 400.0C257.000459 387.760779 269.14701 371.070932 286.578581 349.930459C268.68331 328.326426 256.536857 311.682893 250.139082 300.0Z" fill="#da0a0a" />
<path d="M477.753623 83.237203Q484.157609 79.623072 484.157609 72.648435Q484.157609 68.970899 481.875 66.307855T475.53442 63.644812Q473.125 63.644812 471.413043 64.912928T469.701087 67.068725Q469.701087 67.195536 470.842391 68.019812T472.934783 70.239014T473.88587 73.789739Q473.88587 77.720899 470.525362 79.940101T461.711957 82.159304Q448.143116 82.159304 448.143116 67.068725Q448.143116 60.854957 451.440217 57.114014T461.331522 52.992638H466.023551Q466.911232 52.992638 467.418478 52.231768T467.925725 50.456406Q467.925725 49.315101 467.418478 48.490826T466.023551 47.539739H461.331522Q456.38587 47.032493 453.405797 43.101333T450.425725 33.590464Q450.425725 27.503507 453.849638 24.269812T461.838768 21.036116Q466.150362 21.036116 469.257246 23.508942T472.36413 30.293362Q472.36413 33.083217 471.286232 34.034304T469.193841 35.175609T468.179348 35.492638Q468.179348 36.380319 469.891304 37.648435T474.012681 38.916551Q478.070652 38.916551 480.353261 36.380319T482.63587 29.912928Q482.63587 23.699159 476.802536 20.275246T461.711957 16.851333Q451.820652 16.851333 445.353261 21.162928T438.88587 33.590464Q438.88587 38.916551 442.626812 43.481768T453.342391 49.949159V50.456406Q446.240942 51.217275 441.041667 54.958217T435.842391 66.815101Q435.842391 77.086841 443.324275 81.969087T462.092391 86.851333Q471.349638 86.851333 477.753623 83.237203Z" fill="#da0a0a" />
<path d="M460.073018 105.972222C458.904729 108.308801 456.081361 112.50734 451.602921 118.567841C447.124481 124.628342 443.522229 129.167657 440.796245 132.185713C444.203758 136.080008 447.866826 140.704514 451.785466 146.059149C455.704105 151.413805 458.46662 155.551499 460.073018 158.472222C463.675241 152.046631 470.05218 143.284461 479.203755 132.185713C469.808738 120.843596 463.43185 112.105741 460.073018 105.972222Z" fill="#da0a0a" />
<path d="M22.246377 616.762797Q15.842391 620.376928 15.842391 627.351565Q15.842391 631.029101 18.125 633.692145T24.46558 636.355188Q26.875 636.355188 28.586957 635.087072T30.298913 632.931275Q30.298913 632.804464 29.157609 631.980188T27.065217 629.760986T26.11413 626.210261Q26.11413 622.279101 29.474638 620.059899T38.288043 617.840696Q51.856884 617.840696 51.856884 632.931275Q51.856884 639.145043 48.559783 642.885986T38.668478 647.007362H33.976449Q33.088768 647.007362 32.581522 647.768232T32.074275 649.543594Q32.074275 650.684899 32.581522 651.509174T33.976449 652.460261H38.668478Q43.61413 652.967507 46.594203 656.898667T49.574275 666.409536Q49.574275 672.496493 46.150362 675.730188T38.161232 678.963884Q33.849638 678.963884 30.742754 676.491058T27.63587 669.706638Q27.63587 666.916783 28.713768 665.965696T30.806159 664.824391T31.820652 664.507362Q31.820652 663.619681 30.108696 662.351565T25.987319 661.083449Q21.929348 661.083449 19.646739 663.619681T17.36413 670.087072Q17.36413 676.300841 23.197464 679.724754T38.288043 683.148667Q48.179348 683.148667 54.646739 678.837072T61.11413 666.409536Q61.11413 661.083449 57.373188 656.518232T46.657609 650.050841V649.543594Q53.759058 648.782725 58.958333 645.041783T64.157609 633.184899Q64.157609 622.913159 56.675725 618.030913T37.907609 613.148667Q28.650362 613.148667 22.246377 616.762797Z" fill="#da0a0a" />
<path d="M39.926982 594.027778C41.095271 591.691199 43.918639 587.49266 48.397079 581.432159C52.875519 575.371658 56.477771 570.832343 59.203755 567.814287C55.796242 563.919992 52.133174 559.295486 48.214534 553.940851C44.295895 548.586195 41.53338 544.448501 39.926982 541.527778C36.324759 547.953369 29.94782 556.715539 20.796245 567.814287C30.191262 579.156404 36.56815 587.894259 39.926982 594.027778Z" fill="#da0a0a" />
</svg>
