<svg width="150.000000" height="210.000000" id="card-webheart3">
<radialGradient id="card-webwhitegradient" cx="75.0" cy="105.0" r="150" gradientTransform="matrix(1 0 0 1 0 -.25)" gradientUnits="userSpaceOnUse">
<stop stop-color="#FDFAF4" offset=".15"/>
<stop stop-color="#FDF9F2" offset=".35"/>
<stop stop-color="#FCF7F1" offset=".5"/>
<stop stop-color="#FDFDF8" offset=".75"/>
<stop stop-color="#FFFDFA" offset="1"/>
</radialGradient>
<rect x="0" y="0" rx="7.5" ry="7.5" width="150" height="210.0" stroke="rgba(1,1,1,0.333)" fill="url(#card-webwhitegradient)" />
<path d="M74.958217 26.016713C74.401116 23.955433 73.502787 22.437325 72.263231 21.462396S69.651811 20.0 68.147632 20.0C66.448467 20.0 64.993036 20.584958 63.781337 21.754875S61.963788 24.331478 61.963788 25.97493C61.963788 27.479109 62.332869 29.011143 63.071031 30.571031S64.74234 33.635096 65.870474 35.083565S68.147632 37.987465 69.317549 39.449861S71.608634 42.5766 72.681058 44.442897S74.512533 48.16156 74.958217 50.0C75.45961 48.077994 76.260447 46.149024 77.360724 44.213092S79.5961 40.564068 80.766017 39.073816C81.935933 37.583564 83.077993 36.121169 84.192201 34.68663S86.225628 31.810586 86.949861 30.362117S88.036212 27.534818 88.036212 26.225627C88.036212 24.470752 87.444288 22.99443 86.260446 21.796657C85.076603 20.598884 83.621169 20.0 81.89415 20.0C78.579389 20.0 76.267396 22.005571 74.958217 26.016713Z" fill="#da0a0a" />
<path d="M75.041783 183.983287C75.598884 186.044567 76.497213 187.562675 77.736769 188.537604S80.348189 190.0 81.852368 190.0C83.551533 190.0 85.006964 189.415042 86.218663 188.245125S88.036212 185.668522 88.036212 184.02507C88.036212 182.520891 87.667131 180.988857 86.928969 179.428969S85.25766 176.364904 84.129526 174.916435S81.852368 172.012535 80.682451 170.550139S78.391366 167.4234 77.318942 165.557103S75.487467 161.83844 75.041783 160.0C74.54039 161.922006 73.739553 163.850976 72.639276 165.786908S70.4039 169.435932 69.233983 170.926184C68.064067 172.416436 66.922007 173.878831 65.807799 175.31337S63.774372 178.189414 63.050139 179.637883S61.963788 182.465182 61.963788 183.774373C61.963788 185.529248 62.555712 187.00557 63.739554 188.203343C64.923397 189.401116 66.378831 190.0 68.10585 190.0C71.420611 190.0 73.732604 187.994429 75.041783 183.983287Z" fill="#da0a0a" />
<path d="M74.958217 96.016713C74.401116 93.955433 73.502787 92.437325 72.263231 91.462396S69.651811 90.0 68.147632 90.0C66.448467 90.0 64.993036 90.584958 63.781337 91.754875S61.963788 94.331478 61.963788 95.97493C61.963788 97.479109 62.332869 99.011143 63.071031 100.571031S64.74234 103.635096 65.870474 105.083565S68.147632 107.987465 69.317549 109.449861S71.608634 112.5766 72.681058 114.442897S74.512533 118.16156 74.958217 120.0C75.45961 118.077994 76.260447 116.149024 77.360724 114.213092S79.5961 110.564068 80.766017 109.073816C81.935933 107.583564 83.077993 106.121169 84.192201 104.68663S86.225628 101.810586 86.949861 100.362117S88.036212 97.534818 88.036212 96.225627C88.036212 94.470752 87.444288 92.99443 86.260446 91.796657C85.076603 90.598884 83.621169 90.0 81.89415 90.0C78.579389 90.0 76.267396 92.005571 74.958217 96.016713Z" fill="#da0a0a" />
<path d="M143.326087 24.971161Q145.247283 23.886922 145.247283 21.79453Q145.247283 20.69127 144.5625 19.892357T142.660326 19.093443Q141.9375 19.093443 141.423913 19.473878T140.910326 20.120617Q140.910326 20.158661 141.252717 20.405943T141.880435 21.071704T142.165761 22.136922Q142.165761 23.31627 141.157609 23.98203T138.513587 24.647791Q134.442935 24.647791 134.442935 20.120617Q134.442935 18.256487 135.432065 17.134204T138.399457 15.897791H139.807065Q140.07337 15.897791 140.225543 15.66953T140.377717 15.136922Q140.377717 14.79453 140.225543 14.547248T139.807065 14.261922H138.399457Q136.915761 14.109748 136.021739 12.9304T135.127717 10.077139Q135.127717 8.251052 136.154891 7.280943T138.55163 6.310835Q139.845109 6.310835 140.777174 7.052683T141.709239 9.088009Q141.709239 9.924965 141.38587 10.210291T140.758152 10.552683T140.453804 10.647791Q140.453804 10.914096 140.967391 11.29453T142.203804 11.674965Q143.421196 11.674965 144.105978 10.914096T144.790761 8.973878Q144.790761 7.109748 143.040761 6.082574T138.513587 5.0554Q135.546196 5.0554 133.605978 6.348878T131.665761 10.077139Q131.665761 11.674965 132.788043 13.04453T136.002717 14.984748V15.136922Q133.872283 15.365183 132.3125 16.487465T130.752717 20.04453Q130.752717 23.126052 132.997283 24.590726T138.627717 26.0554Q141.404891 26.0554 143.326087 24.971161Z" fill="#da0a0a" />
<path d="M137.978064 34.950441C137.685586 33.868269 137.213963 33.071262 136.563196 32.559424S135.192201 31.791667 134.402507 31.791667C133.510445 31.791667 132.746344 32.09877 132.110202 32.712976S131.155989 34.065692 131.155989 34.928505C131.155989 35.718199 131.349756 36.522517 131.737291 37.341458S132.614728 38.950092 133.206999 39.710539S134.402507 41.235086 135.016713 42.002844S136.219533 43.644382 136.782556 44.624188S137.74408 46.576486 137.978064 47.541667C138.241295 46.532614 138.661735 45.519904 139.23938 44.50354S140.412953 42.587802 141.027159 41.80542C141.641365 41.023038 142.240946 40.25528 142.825905 39.502147S143.893455 37.992225 144.273677 37.231778S144.844011 35.747446 144.844011 35.060121C144.844011 34.138812 144.533251 33.363743 143.911734 32.734912C143.290217 32.106081 142.526113 31.791667 141.619429 31.791667C139.879179 31.791667 138.665383 32.844591 137.978064 34.950441Z" fill="#da0a0a" />
<path d="M6.673913 185.028839Q4.752717 186.113078 4.752717 188.20547Q4.752717 189.30873 5.4375 190.107643T7.339674 190.906557Q8.0625 190.906557 8.576087 190.526122T9.089674 189.879383Q9.089674 189.841339 8.747283 189.594057T8.119565 188.928296T7.834239 187.863078Q7.834239 186.68373 8.842391 186.01797T11.486413 185.352209Q15.557065 185.352209 15.557065 189.879383Q15.557065 191.743513 14.567935 192.865796T11.600543 194.102209H10.192935Q9.92663 194.102209 9.774457 194.33047T9.622283 194.863078Q9.622283 195.20547 9.774457 195.452752T10.192935 195.738078H11.600543Q13.084239 195.890252 13.978261 197.0696T14.872283 199.922861Q14.872283 201.748948 13.845109 202.719057T11.44837 203.689165Q10.154891 203.689165 9.222826 202.947317T8.290761 200.911991Q8.290761 200.075035 8.61413 199.789709T9.241848 199.447317T9.546196 199.352209Q9.546196 199.085904 9.032609 198.70547T7.796196 198.325035Q6.578804 198.325035 5.894022 199.085904T5.209239 201.026122Q5.209239 202.890252 6.959239 203.917426T11.486413 204.9446Q14.453804 204.9446 16.394022 203.651122T18.334239 199.922861Q18.334239 198.325035 17.211957 196.95547T13.997283 195.015252V194.863078Q16.127717 194.634817 17.6875 193.512535T19.247283 189.95547Q19.247283 186.873948 17.002717 185.409274T11.372283 183.9446Q8.595109 183.9446 6.673913 185.028839Z" fill="#da0a0a" />
<path d="M12.021936 175.049559C12.314414 176.131731 12.786037 176.928738 13.436804 177.440576S14.807799 178.208333 15.597493 178.208333C16.489555 178.208333 17.253656 177.90123 17.889798 177.287024S18.844011 175.934308 18.844011 175.071495C18.844011 174.281801 18.650244 173.477483 18.262709 172.658542S17.385272 171.049908 16.793001 170.289461S15.597493 168.764914 14.983287 167.997156S13.780467 166.355618 13.217444 165.375812S12.25592 163.423514 12.021936 162.458333C11.758705 163.467386 11.338265 164.480096 10.76062 165.49646S9.587047 167.412198 8.972841 168.19458C8.358635 168.976962 7.759054 169.74472 7.174095 170.497853S6.106545 172.007775 5.726323 172.768222S5.155989 174.252554 5.155989 174.939879C5.155989 175.861188 5.466749 176.636257 6.088266 177.265088C6.709783 177.893919 7.473887 178.208333 8.380571 178.208333C10.120821 178.208333 11.334617 177.155409 12.021936 175.049559Z" fill="#da0a0a" />
</svg>
