<svg width="500.000000" height="700.000000" id="card-realback">
<radialGradient id="card-realbackgradient" cx="250.0" cy="350.0" r="500" gradientTransform="matrix(1 0 0 1 0 -.25)" gradientUnits="userSpaceOnUse">
<stop stop-color="#120110" offset=".15"/><stop stop-color="#200120" offset=".35"/><stop stop-color="#310530" offset=".5"/><stop stop-color="#210120" offset=".75"/><stop stop-color="#182110" offset="1"/></radialGradient><rect x="0" y="0" rx="25.0" ry="25.0" width="500" height="700.0" fill="#fffdfa" />
<rect x="12.5" y="17.5" rx="12.5" ry="12.5" width="475.0" height="665.0" stroke="#210126" fill="#210126" />
<rect x="37.5" y="52.5" rx="6.25" ry="6.25" width="425.0" height="595.0" stroke="#fffdfa" fill="url(#card-realbackgradient)" />
<path d="M255.255878 548.893499L280.705394 428.284924L393.015214 496.334716L396.887967 491.908714L328.284924 385.684647L450.0 355.809129V349.170124L329.944675 322.060858L394.674965 214.17704L389.695712 209.751037L285.684647 275.587828L255.255878 151.106501H248.616874L223.167358 270.608575L112.517289 205.325035L108.091286 209.751037L174.481328 314.315353L50.0 343.637621V349.170124L174.481328 377.385892L108.091286 489.695712L112.517289 493.568465L216.528354 426.625173L248.616874 548.893499H255.255878ZM224.827109 417.773167L251.936376 358.57538V529.529737ZM281.258645 416.666667L257.46888 356.915629L379.183956 478.630705ZM320.539419 377.385892L260.788382 351.936376H428.423237ZM316.666667 322.060858L259.681881 343.637621L378.077455 225.795297ZM277.939142 282.226833L251.936376 341.97787V171.023513ZM223.167358 282.226833L246.957123 343.637621L123.029046 219.709544ZM183.886584 322.060858L240.871369 349.170124L67.704011 347.510373ZM184.993084 377.385892L244.190871 355.809129L124.688797 475.864454Z" fill="#fffdfa" />
</svg>
