<svg width="500.000000" height="700.000000" id="card-realdiamond2">
<radialGradient id="card-realwhitegradient" cx="250.0" cy="350.0" r="500" gradientTransform="matrix(1 0 0 1 0 -.25)" gradientUnits="userSpaceOnUse">
<stop stop-color="#FDFAF4" offset=".15"/>
<stop stop-color="#FDF9F2" offset=".35"/>
<stop stop-color="#FCF7F1" offset=".5"/>
<stop stop-color="#FDFDF8" offset=".75"/>
<stop stop-color="#FFFDFA" offset="1"/>
</radialGradient>
<rect x="0" y="0" rx="25.0" ry="25.0" width="500" height="700.0" stroke="rgba(1,1,1,0.333)" fill="url(#card-realwhitegradient)" />
<path d="M250.139082 66.666667C247.913769 71.117293 242.535925 79.114511 234.005563 90.658322C225.475202 102.202133 218.613769 110.848447 213.421419 116.597126C219.911919 124.014831 226.889193 132.823412 234.353268 143.022717C241.817344 153.222063 247.079277 161.103384 250.139082 166.666667C257.000459 154.427446 269.14701 137.737599 286.578581 116.597126C268.68331 94.993092 256.536857 78.34956 250.139082 66.666667Z" fill="#da0a0a" />
<path d="M249.860918 633.333333C252.086231 628.882707 257.464075 620.885489 265.994437 609.341678C274.524798 597.797867 281.386231 589.151553 286.578581 583.402874C280.088081 575.985169 273.110807 567.176588 265.646732 556.977283C258.182656 546.777937 252.920723 538.896616 249.860918 533.333333C242.999541 545.572554 230.85299 562.262401 213.421419 583.402874C231.31669 605.006908 243.463143 621.65044 249.860918 633.333333Z" fill="#da0a0a" />
<path d="M486.745283 82.096616Q486.613208 79.323031 485.226415 77.60605T480.669811 73.775862Q470.235849 66.775862 464.490566 62.219258T454.122642 50.662654T449.5 34.945673Q449.5 28.60605 452.867925 25.10605T462.311321 21.60605Q467.462264 21.60605 470.830189 24.181522T474.198113 31.24756Q474.198113 33.492843 473.141509 35.011711T470.962264 37.455107T469.839623 38.511711Q469.839623 39.436239 471.622642 40.756994T475.915094 42.077748Q480.009434 42.077748 482.45283 39.502277T484.896226 32.964541Q484.896226 27.681522 481.330189 23.983409T472.283019 18.568314T461.122642 16.851333Q451.216981 16.851333 444.018868 21.738126T436.820755 36.662654Q436.820755 43.926805 440.783019 49.870201T450.226415 59.973975T464.556604 69.813597Q471.556604 74.172088 474.990566 76.813597V77.473975H439.59434Q436.292453 77.473975 434.773585 78.20039T433.254717 82.096616Q433.254717 86.851333 437.877358 86.851333H482.122642Q486.745283 86.851333 486.745283 82.096616Z" fill="#da0a0a" />
<path d="M460.073018 105.972222C458.904729 108.308801 456.081361 112.50734 451.602921 118.567841C447.124481 124.628342 443.522229 129.167657 440.796245 132.185713C444.203758 136.080008 447.866826 140.704514 451.785466 146.059149C455.704105 151.413805 458.46662 155.551499 460.073018 158.472222C463.675241 152.046631 470.05218 143.284461 479.203755 132.185713C469.808738 120.843596 463.43185 112.105741 460.073018 105.972222Z" fill="#da0a0a" />
<path d="M13.254717 617.903384Q13.386792 620.676969 14.773585 622.39395T19.330189 626.224138Q29.764151 633.224138 35.509434 637.780742T45.877358 649.337346T50.5 665.054327Q50.5 671.39395 47.132075 674.89395T37.688679 678.39395Q32.537736 678.39395 29.169811 675.818478T25.801887 668.75244Q25.801887 666.507157 26.858491 664.988289T29.037736 662.544893T30.160377 661.488289Q30.160377 660.563761 28.377358 659.243006T24.084906 657.922252Q19.990566 657.922252 17.54717 660.497723T15.103774 667.035459Q15.103774 672.318478 18.669811 676.016591T27.716981 681.431686T38.877358 683.148667Q48.783019 683.148667 55.981132 678.261874T63.179245 663.337346Q63.179245 656.073195 59.216981 650.129799T49.773585 640.026025T35.443396 630.186403Q28.443396 625.827912 25.009434 623.186403V622.526025H60.40566Q63.707547 622.526025 65.226415 621.79961T66.745283 617.903384Q66.745283 613.148667 62.122642 613.148667H17.877358Q13.254717 613.148667 13.254717 617.903384Z" fill="#da0a0a" />
<path d="M39.926982 594.027778C41.095271 591.691199 43.918639 587.49266 48.397079 581.432159C52.875519 575.371658 56.477771 570.832343 59.203755 567.814287C55.796242 563.919992 52.133174 559.295486 48.214534 553.940851C44.295895 548.586195 41.53338 544.448501 39.926982 541.527778C36.324759 547.953369 29.94782 556.715539 20.796245 567.814287C30.191262 579.156404 36.56815 587.894259 39.926982 594.027778Z" fill="#da0a0a" />
</svg>
