<svg width="25.000000" height="35.000000" id="card-lightdiamond1">
<rect x="0" y="0" rx="1.25" ry="1.25" width="25" height="35.0" fill="#fffdfa" />
<path d="M12.5 12.5L10.455494 14.739221L12.5 16.811544L14.572323 14.739221ZM7.534771 17.465229L9.760083 19.593185L11.832406 17.465229L9.760083 15.392907ZM12.5 22.5L14.572323 20.219054L12.5 18.132823L10.399861 20.219054ZM17.465229 17.465229L15.253825 15.392907L13.181502 17.465229L15.253825 19.523644Z" fill="#da0a0a" />
<path d="M24.726528 5.524135Q24.75 5.49023 24.75 5.443285Q24.744784 5.365044 24.718703 5.349396T24.65611 5.333747H24.609165Q24.452683 5.333747 24.379657 5.252898T24.262295 5.070334T24.20231 4.932108L23.289493 2.772644Q23.258197 2.694403 23.258197 2.647458Q23.258197 2.553568 23.331222 2.51184T23.53465 2.44403Q23.623323 2.428382 23.644188 2.412734T23.665052 2.32406Q23.665052 2.261467 23.631148 2.240603T23.524218 2.219738Q23.263413 2.219738 23.109538 2.258859T22.840909 2.415342T22.627049 2.772644L21.750745 4.932108Q21.672504 5.13032 21.599478 5.229425T21.380402 5.333747H21.349106Q21.296945 5.333747 21.27608 5.352004T21.25 5.443285Q21.25 5.49023 21.273472 5.524135T21.34389 5.558039Q21.67772 5.542391 21.91766 5.542391Q22.230626 5.542391 22.564456 5.558039Q22.611401 5.558039 22.634873 5.524135T22.658346 5.443285Q22.65313 5.37026 22.632265 5.352004T22.55924 5.333747Q22.381893 5.333747 22.308867 5.299843T22.235842 5.177264Q22.235842 5.109455 22.298435 4.932108L22.475782 4.499172H23.764158Q23.89456 4.82257 23.912817 4.874731T23.931073 4.932108Q23.993666 5.13032 23.993666 5.187697Q23.993666 5.27637 23.915425 5.305059T23.618107 5.333747H23.586811Q23.53465 5.333747 23.513785 5.352004T23.487705 5.443285Q23.487705 5.49023 23.511177 5.524135T23.581595 5.558039Q23.915425 5.542391 24.150149 5.542391Q24.317064 5.542391 24.65611 5.558039Q24.703055 5.558039 24.726528 5.524135ZM23.665052 4.27488H22.569672L23.096498 2.934343H23.112146Z" fill="#da0a0a" />
<path d="M23.003245 6.611123C22.951322 6.71497 22.82584 6.90157 22.6268 7.170922C22.42776 7.440275 22.267662 7.642021 22.146508 7.776155C22.297952 7.949233 22.460753 8.154765 22.634913 8.392746C22.809073 8.630728 22.93185 8.814624 23.003245 8.944433C23.163342 8.658854 23.446759 8.269428 23.853492 7.776155C23.43594 7.272066 23.152525 6.883721 23.003245 6.611123Z" fill="#da0a0a" />
<path d="M0.273472 29.475865Q0.25 29.50977 0.25 29.556715Q0.255216 29.634956 0.281297 29.650604T0.34389 29.666253H0.390835Q0.547317 29.666253 0.620343 29.747102T0.737705 29.929666T0.79769 30.067892L1.710507 32.227356Q1.741803 32.305597 1.741803 32.352542Q1.741803 32.446432 1.668778 32.48816T1.46535 32.55597Q1.376677 32.571618 1.355812 32.587266T1.334948 32.67594Q1.334948 32.738533 1.368852 32.759397T1.475782 32.780262Q1.736587 32.780262 1.890462 32.741141T2.159091 32.584658T2.372951 32.227356L3.249255 30.067892Q3.327496 29.86968 3.400522 29.770575T3.619598 29.666253H3.650894Q3.703055 29.666253 3.72392 29.647996T3.75 29.556715Q3.75 29.50977 3.726528 29.475865T3.65611 29.441961Q3.32228 29.457609 3.08234 29.457609Q2.769374 29.457609 2.435544 29.441961Q2.388599 29.441961 2.365127 29.475865T2.341654 29.556715Q2.34687 29.62974 2.367735 29.647996T2.44076 29.666253Q2.618107 29.666253 2.691133 29.700157T2.764158 29.822736Q2.764158 29.890545 2.701565 30.067892L2.524218 30.500828H1.235842Q1.10544 30.17743 1.087183 30.125269T1.068927 30.067892Q1.006334 29.86968 1.006334 29.812303Q1.006334 29.72363 1.084575 29.694941T1.381893 29.666253H1.413189Q1.46535 29.666253 1.486215 29.647996T1.512295 29.556715Q1.512295 29.50977 1.488823 29.475865T1.418405 29.441961Q1.084575 29.457609 0.849851 29.457609Q0.682936 29.457609 0.34389 29.441961Q0.296945 29.441961 0.273472 29.475865ZM1.334948 30.72512H2.430328L1.903502 32.065657H1.887854Z" fill="#da0a0a" />
<path d="M1.996755 28.388877C2.048678 28.28503 2.17416 28.09843 2.3732 27.829078C2.57224 27.559725 2.732338 27.357979 2.853492 27.223845C2.702048 27.050767 2.539247 26.845235 2.365087 26.607254C2.190927 26.369272 2.06815 26.185376 1.996755 26.055567C1.836658 26.341146 1.553241 26.730572 1.146508 27.223845C1.56406 27.727934 1.847475 28.116279 1.996755 28.388877Z" fill="#da0a0a" />
</svg>
