<svg width="150.000000" height="210.000000" id="card-webspade11">
<radialGradient id="card-webwhitegradient" cx="75.0" cy="105.0" r="150" gradientTransform="matrix(1 0 0 1 0 -.25)" gradientUnits="userSpaceOnUse">
<stop stop-color="#FDFAF4" offset=".15"/>
<stop stop-color="#FDF9F2" offset=".35"/>
<stop stop-color="#FCF7F1" offset=".5"/>
<stop stop-color="#FDFDF8" offset=".75"/>
<stop stop-color="#FFFDFA" offset="1"/>
</radialGradient>
<rect x="0" y="0" rx="7.5" ry="7.5" width="150" height="210.0" stroke="rgba(1,1,1,0.333)" fill="url(#card-webwhitegradient)" />
<rect x="30.0" y="21.0" width="90.0" height="168.0" stroke="#010101" fill="#fffdfa" />
<path d="M88.829787 62.012624C87.808511 62.012624 86.588655 61.459433 85.170213 60.35305S83.042553 58.239577 83.042553 57.331773C83.042553 56.594184 83.723404 56.22539 85.085106 56.22539C86.219855 56.22539 87.31206 56.67929 88.361702 57.587092S89.93617 59.459433 89.93617 60.480709S89.567376 62.012624 88.829787 62.012624ZM100.574468 75.970071C100.234043 73.870777 98.361702 69.218301 94.957447 62.012624S89.851064 50.126071 89.851064 47.970071C89.851064 46.267943 89.992908 44.736028 90.276596 43.374326C85.794323 43.374326 82.617021 44.310496 80.744681 46.182837C79.099294 43.516173 77.851064 42.182837 77.0 42.182837C75.468085 43.033901 74.460996 43.828224 73.978723 44.565816S72.886528 46.806948 72.148936 49.076454C71.695036 48.962979 71.241132 48.906241 70.787234 48.906241C69.595745 48.906241 68.191489 49.218298 66.574468 49.842411S63.12766 51.643833 61.085106 53.374326S57.170213 57.260854 55.468085 59.842411S52.333336 65.927518 51.170213 70.35305S49.425532 79.743092 49.425532 85.246667C49.425532 87.856599 49.539007 90.211203 49.765957 92.310496H85.680851C85.624113 89.814045 85.113475 87.558726 84.148936 85.544539S82.148936 81.955884 81.042553 80.821135C79.93617 79.686386 78.87234 78.296309 77.851064 76.650922S76.205677 73.303407 75.978723 71.544539C78.134749 72.395603 80.007089 73.530352 81.595745 74.948794S84.290783 77.658011 84.914894 78.821135S86.148936 81.005535 86.744681 81.884965C87.340426 82.764394 87.921983 83.204113 88.489362 83.204113C89.907804 83.204113 90.617021 82.324684 90.617021 80.565816C91.184397 81.303405 91.836877 81.672199 92.574468 81.672199L94.276596 81.246667C96.035464 80.792766 97.326238 80.211203 98.148936 79.501986C98.971631 78.792766 99.780145 77.615458 100.574468 75.970071ZM95.382979 73.246667C96.177305 73.246667 96.858153 73.501986 97.425532 74.012624S98.276596 75.147373 98.276596 75.884965C98.276596 76.111915 98.191489 76.395603 98.021277 76.736028C97.226951 76.736028 96.560281 76.509078 96.021277 76.055177S95.212766 75.005535 95.212766 74.267943C95.212766 74.154468 95.269504 73.814043 95.382979 73.246667ZM53.595745 86.35305C53.595745 82.154471 54.092198 78.154471 55.085106 74.35305S57.326238 67.374326 58.829787 64.821135S61.964536 60.04099 63.723404 58.140284C65.482272 56.239577 67.12766 54.849501 68.659574 53.970071S71.496451 52.650922 72.574468 52.650922C73.652485 52.764397 74.191489 53.133192 74.191489 53.757305C74.191489 54.09773 74.106383 54.324681 73.93617 54.438156C68.319149 57.275033 64.049617 61.629645 61.12766 67.501986S56.744681 79.629645 56.744681 86.267943C56.744681 87.799858 56.205674 88.565816 55.12766 88.565816C54.106383 88.565816 53.595745 87.828227 53.595745 86.35305Z" fill="#010101" />
<path d="M61.170213 147.987376C62.191489 147.987376 63.411345 148.540567 64.829787 149.64695S66.957447 151.760423 66.957447 152.668227C66.957447 153.405816 66.276596 153.77461 64.914894 153.77461C63.780145 153.77461 62.68794 153.32071 61.638298 152.412908S60.06383 150.540567 60.06383 149.519291S60.432624 147.987376 61.170213 147.987376ZM49.425532 134.029929C49.765957 136.129223 51.638298 140.781699 55.042553 147.987376S60.148936 159.873929 60.148936 162.029929C60.148936 163.732057 60.007092 165.263972 59.723404 166.625674C64.205677 166.625674 67.382979 165.689504 69.255319 163.817163C70.900706 166.483827 72.148936 167.817163 73.0 167.817163C74.531915 166.966099 75.539004 166.171776 76.021277 165.434184S77.113472 163.193052 77.851064 160.923546C78.304964 161.037021 78.758868 161.093759 79.212766 161.093759C80.404255 161.093759 81.808511 160.781702 83.425532 160.157589S86.87234 158.356167 88.914894 156.625674S92.829787 152.739146 94.531915 150.157589S97.666664 144.072482 98.829787 139.64695S100.574468 130.256908 100.574468 124.753333C100.574468 122.143401 100.460993 119.788797 100.234043 117.689504H64.319149C64.375887 120.185955 64.886525 122.441274 65.851064 124.455461S67.851064 128.044116 68.957447 129.178865C70.06383 130.313614 71.12766 131.703691 72.148936 133.349078S73.794323 136.696593 74.021277 138.455461C71.865251 137.604397 69.992911 136.469648 68.404255 135.051206S65.709217 132.341989 65.085106 131.178865S63.851064 128.994465 63.255319 128.115035C62.659574 127.235606 62.078017 126.795887 61.510638 126.795887C60.092196 126.795887 59.382979 127.675316 59.382979 129.434184C58.815603 128.696595 58.163123 128.327801 57.425532 128.327801L55.723404 128.753333C53.964536 129.207234 52.673762 129.788797 51.851064 130.498014C51.028369 131.207234 50.219855 132.384542 49.425532 134.029929ZM54.617021 136.753333C53.822695 136.753333 53.141847 136.498014 52.574468 135.987376S51.723404 134.852627 51.723404 134.115035C51.723404 133.888085 51.808511 133.604397 51.978723 133.263972C52.773049 133.263972 53.439719 133.490922 53.978723 133.944823S54.787234 134.994465 54.787234 135.732057C54.787234 135.845532 54.730496 136.185957 54.617021 136.753333ZM96.404255 123.64695C96.404255 127.845529 95.907802 131.845529 94.914894 135.64695S92.673762 142.625674 91.170213 145.178865S88.035464 149.95901 86.276596 151.859716C84.517728 153.760423 82.87234 155.150499 81.340426 156.029929S78.503549 157.349078 77.425532 157.349078C76.347515 157.235603 75.808511 156.866808 75.808511 156.242695C75.808511 155.90227 75.893617 155.675319 76.06383 155.561844C81.680851 152.724967 85.950383 148.370355 88.87234 142.498014S93.255319 130.370355 93.255319 123.732057C93.255319 122.200142 93.794326 121.434184 94.87234 121.434184C95.893617 121.434184 96.404255 122.171773 96.404255 123.64695Z" fill="#010101" />
<path d="M141.457627 26.0554Q141.813559 26.0554 141.940678 25.623197Q141.966102 25.546925 141.966102 25.394383Q141.966102 25.089298 141.686441 24.987603Q140.415254 24.453705 139.805085 23.46218T139.016949 21.00879T138.838983 17.0554V8.106247Q138.864407 7.470654 138.95339 7.076586T139.398305 6.415569T140.491525 6.14862H140.644068Q140.898305 6.14862 141.012712 6.059637T141.152542 5.614722Q141.152542 5.385908 141.025424 5.220654T140.694915 5.0554Q139.067797 5.131671 137.669492 5.131671Q136.118644 5.131671 134.491525 5.0554Q134.262712 5.0554 134.148305 5.220654T134.033898 5.614722Q134.059322 5.996078 134.199153 6.072349T134.694915 6.14862Q135.432203 6.14862 135.788136 6.415569T136.233051 7.076586T136.347458 8.106247V17.919807Q136.347458 21.199468 137.504237 23.296925T141.355932 26.0554H141.457627Z" fill="#010101" />
<path d="M137.631383 42.224645C137.556915 42.999114 137.370744 43.684219 137.072872 44.279965C136.775001 44.87571 136.462235 45.329965 136.134574 45.64273S135.393616 46.223582 134.894681 46.446986C134.395745 46.67039 134.012234 46.815603 133.744149 46.882624S133.148404 47.012943 132.76117 47.072518C132.701596 47.087411 132.656915 47.094858 132.627128 47.094858V47.541667H143.372872V47.094858C142.106914 46.871454 141.146276 46.543794 140.490957 46.111879C139.239894 45.277838 138.532446 43.982093 138.368617 42.224645C139.143086 43.416134 140.140957 44.011879 141.362234 44.011879C142.151595 44.011879 142.825532 43.736348 143.384043 43.185284S144.221809 41.964006 144.221809 41.174645C144.221809 40.504433 144.057979 39.893795 143.730319 39.34273C143.402659 38.791666 142.978191 38.289006 142.456915 37.834752S141.399469 36.907624 140.848404 36.416135C140.29734 35.924645 139.753723 35.280497 139.217553 34.483688S138.271809 32.78954 137.98883 31.791667C137.735639 32.774645 137.344682 33.660816 136.815957 34.450177S135.743617 35.879965 135.185106 36.371454S134.086701 37.339538 133.565426 37.801241S132.615957 38.769325 132.280851 39.32039S131.778191 40.489538 131.778191 41.174645C131.778191 41.964006 132.057447 42.634219 132.615957 43.185284S133.848405 44.011879 134.637766 44.011879C135.859043 44.011879 136.856914 43.416134 137.631383 42.224645Z" fill="#010101" />
<path d="M8.542373 183.9446Q8.186441 183.9446 8.059322 184.376803Q8.033898 184.453075 8.033898 184.605617Q8.033898 184.910702 8.313559 185.012397Q9.584746 185.546295 10.194915 186.53782T10.983051 188.99121T11.161017 192.9446V201.893753Q11.135593 202.529346 11.04661 202.923414T10.601695 203.584431T9.508475 203.85138H9.355932Q9.101695 203.85138 8.987288 203.940363T8.847458 204.385278Q8.847458 204.614092 8.974576 204.779346T9.305085 204.9446Q10.932203 204.868329 12.330508 204.868329Q13.881356 204.868329 15.508475 204.9446Q15.737288 204.9446 15.851695 204.779346T15.966102 204.385278Q15.940678 204.003922 15.800847 203.927651T15.305085 203.85138Q14.567797 203.85138 14.211864 203.584431T13.766949 202.923414T13.652542 201.893753V192.080193Q13.652542 188.800532 12.495763 186.703075T8.644068 183.9446H8.542373Z" fill="#010101" />
<path d="M12.368617 167.775355C12.443085 167.000886 12.629256 166.315781 12.927128 165.720035C13.224999 165.12429 13.537765 164.670035 13.865426 164.35727S14.606384 163.776418 15.105319 163.553014C15.604255 163.32961 15.987766 163.184397 16.255851 163.117376S16.851596 162.987057 17.23883 162.927482C17.298404 162.912589 17.343085 162.905142 17.372872 162.905142V162.458333H6.627128V162.905142C7.893086 163.128546 8.853724 163.456206 9.509043 163.888121C10.760106 164.722162 11.467554 166.017907 11.631383 167.775355C10.856914 166.583866 9.859043 165.988121 8.637766 165.988121C7.848405 165.988121 7.174468 166.263652 6.615957 166.814716S5.778191 168.035994 5.778191 168.825355C5.778191 169.495567 5.942021 170.106205 6.269681 170.65727C6.597341 171.208334 7.021809 171.710994 7.543085 172.165248S8.600531 173.092376 9.151596 173.583865C9.70266 174.075355 10.246277 174.719503 10.782447 175.516312S11.728191 177.21046 12.01117 178.208333C12.264361 177.225355 12.655318 176.339184 13.184043 175.549823S14.256383 174.120035 14.814894 173.628546S15.913299 172.660462 16.434574 172.198759S17.384043 171.230675 17.719149 170.67961S18.221809 169.510462 18.221809 168.825355C18.221809 168.035994 17.942553 167.365781 17.384043 166.814716S16.151595 165.988121 15.362234 165.988121C14.140957 165.988121 13.143086 166.583866 12.368617 167.775355Z" fill="#010101" />
</svg>
