<svg width="25.000000" height="35.000000" id="card-lightclub12">
<rect x="0" y="0" rx="1.25" ry="1.25" width="25" height="35.0" stroke="rgba(1,1,1,0.333)" fill="#fffdfa" />
<rect x="5.0" y="3.5" width="15.0" height="28.0" stroke="#010101" fill="#fffdfa" />
<path d="M12.507082 12.59588C11.987724 12.59588 11.503778 12.612405 11.055241 12.645455C10.606704 12.678505 10.344664 12.69503 10.269122 12.69503C10.155807 12.69503 10.084986 12.687948 10.056657 12.673783S10.014164 12.624208 10.014164 12.567551C10.014164 12.378694 10.304533 12.23469 10.885269 12.13554S12.001888 11.986815 12.492918 11.986815C12.99339 11.986815 13.531633 12.03639 14.107649 12.13554C14.683664 12.23469 14.971671 12.378694 14.971671 12.567551C14.971671 12.614765 14.957507 12.647816 14.929178 12.666701S14.830028 12.69503 14.716714 12.69503C14.707271 12.69503 14.423984 12.678505 13.866856 12.645455S12.856469 12.59588 12.507082 12.59588ZM10.1983 13.233274C10.944288 13.138845 11.709164 13.09163 12.492918 13.09163C13.314448 13.09163 14.07932 13.138845 14.787535 13.233274C14.674221 13.327702 14.617564 13.511839 14.617564 13.785681C14.617564 13.965096 14.645892 14.073689 14.70255 14.11146C14.126534 14.007589 13.38999 13.955653 12.492918 13.955653C11.586402 13.955653 10.849858 14.007589 10.283286 14.11146C10.339943 14.073689 10.368272 13.965096 10.368272 13.785681C10.368272 13.511839 10.311615 13.327703 10.1983 13.233274ZM10.184136 14.848004C10.184136 14.583604 10.953729 14.451404 12.492918 14.451404S14.8017 14.583604 14.8017 14.848004C14.8017 15.084077 14.032106 15.202112 12.492918 15.202112S10.184136 15.084076 10.184136 14.848004ZM12.492918 7.043472C12.72899 7.043472 12.847025 7.156786 12.847025 7.383415C12.847025 7.628929 12.72899 7.751687 12.492918 7.751687C12.266289 7.751687 12.152975 7.62893 12.152975 7.383415C12.152975 7.156786 12.266289 7.043472 12.492918 7.043472ZM12.988669 8.785681C12.988669 8.464623 13.038244 8.167173 13.137394 7.89333S13.286119 7.46368 13.286119 7.425908C13.286119 7.208723 13.208215 7.022225 13.052408 6.866418S12.710103 6.632707 12.492918 6.632707S12.091596 6.710611 11.94051 6.866418S11.713881 7.208723 11.713881 7.425908C11.713881 7.46368 11.765817 7.617126 11.869688 7.886248S12.025496 8.455181 12.025496 8.785681C12.025496 9.248383 11.921624 9.93299 11.713881 10.839506C11.203966 9.763019 10.949008 8.950936 10.949008 8.403245C10.949008 8.346588 10.963173 8.240356 10.991501 8.084548S11.033994 7.831952 11.033994 7.79418C11.033994 7.576994 10.958451 7.390497 10.807365 7.23469C10.656279 7.078883 10.472143 7.000979 10.254958 7.000979C10.028329 7.000979 9.83711 7.078883 9.681303 7.23469S9.447592 7.576994 9.447592 7.79418C9.447592 7.964152 9.480642 8.098713 9.546742 8.197863S9.688385 8.372555 9.773371 8.424492S9.933899 8.601545 10.0 8.799846S10.09915 9.271989 10.09915 9.621376C10.09915 9.86689 10.075543 10.26349 10.028329 10.811177C9.414542 10.178504 9.107649 9.663868 9.107649 9.267268L9.121813 9.139789C9.131256 9.054803 9.143059 8.967456 9.157224 8.877749S9.17847 8.733745 9.17847 8.71486C9.17847 8.507116 9.100567 8.32298 8.944759 8.162452S8.607177 7.921659 8.399433 7.921659C8.182248 7.921659 7.99339 7.999562 7.832861 8.15537S7.592068 8.497674 7.592068 8.71486C7.592068 9.102017 7.809254 9.394747 8.243626 9.593047C8.262512 9.970762 8.432483 10.820621 8.753541 12.142622C8.753541 12.227608 8.930595 12.487286 9.284703 12.921659S9.815864 13.639317 9.815864 13.771517C9.815864 13.856503 9.749764 14.035918 9.617564 14.309761S9.419263 14.810232 9.419263 14.989647V15.216276C9.419263 15.433462 9.761568 15.582187 10.446176 15.662452C11.130783 15.742716 11.817752 15.782849 12.507082 15.782849C13.271955 15.782849 13.975453 15.737995 14.617564 15.648288C15.259678 15.55858 15.580737 15.414577 15.580737 15.216276V14.989647C15.580737 14.791347 15.516997 14.555275 15.389518 14.281432S15.1983 13.837618 15.1983 13.771517C15.1983 13.573217 15.351746 13.304095 15.65864 12.964152S16.161473 12.350366 16.246459 12.142622C16.567517 10.839506 16.737489 9.989647 16.756374 9.593047C17.190746 9.394747 17.407932 9.102017 17.407932 8.71486C17.407932 8.497674 17.327668 8.311177 17.167139 8.15537C17.00661 7.999562 16.822475 7.921659 16.614731 7.921659C16.397545 7.921659 16.211048 7.999562 16.055241 8.15537S15.82153 8.497674 15.82153 8.71486C15.82153 8.724303 15.833333 8.81401 15.856941 8.983982S15.892351 9.248383 15.892351 9.267268C15.892351 9.682754 15.59018 10.197391 14.985836 10.811177C14.938621 10.395691 14.915014 9.999091 14.915014 9.621376C14.915014 9.281432 14.948064 9.009949 15.014164 8.806928S15.155807 8.476428 15.240793 8.424492S15.401322 8.294652 15.467422 8.190781S15.566572 7.954708 15.566572 7.79418C15.566572 7.576994 15.486308 7.390497 15.325779 7.23469S14.976392 7.000979 14.759207 7.000979C14.542021 7.000979 14.355524 7.078883 14.199717 7.23469S13.966006 7.576994 13.966006 7.79418L14.008499 8.063302C14.036827 8.242717 14.050992 8.356031 14.050992 8.403245C14.050992 8.941489 13.796034 9.753575 13.286119 10.839506C13.087819 9.980204 12.988669 9.295596 12.988669 8.785681ZM8.399433 8.374917C8.484419 8.374917 8.562323 8.407967 8.633144 8.474067C8.703966 8.540167 8.739377 8.620431 8.739377 8.71486C8.739377 8.818731 8.706327 8.906078 8.640227 8.9769S8.493863 9.083132 8.399433 9.083132C8.163361 9.083132 8.045326 8.960375 8.045326 8.71486C8.045326 8.488231 8.163362 8.374917 8.399433 8.374917ZM10.254958 7.468401C10.349386 7.468401 10.42965 7.503812 10.495751 7.574633S10.594901 7.728079 10.594901 7.822509S10.561851 7.999562 10.495751 8.070384S10.349387 8.176616 10.254958 8.176616C10.009443 8.176616 9.886686 8.05858 9.886686 7.822509S10.009443 7.468401 10.254958 7.468401ZM14.759207 7.468401C14.995279 7.468401 15.113314 7.586437 15.113314 7.822509S14.995279 8.176616 14.759207 8.176616C14.532578 8.176616 14.419263 8.05858 14.419263 7.822509S14.532578 7.468401 14.759207 7.468401ZM16.614731 8.374917C16.850803 8.374917 16.968839 8.488231 16.968839 8.71486C16.968839 8.960374 16.850803 9.083132 16.614731 9.083132C16.388102 9.083132 16.274788 8.960375 16.274788 8.71486C16.274788 8.620431 16.310198 8.540167 16.38102 8.474067C16.451841 8.407967 16.529745 8.374917 16.614731 8.374917ZM12.492918 9.281432C12.577904 9.800791 12.672333 10.209194 12.776204 10.506645S12.974504 11.014198 13.05949 11.136956S13.196412 11.358864 13.215297 11.434407C13.262512 11.377749 13.342776 11.28332 13.456091 11.151121S13.640227 10.929213 13.668555 10.881999S13.75118 10.752159 13.831445 10.634123S13.975449 10.400412 14.022663 10.287098S14.131256 10.022697 14.206799 9.83384S14.362606 9.427796 14.447592 9.182282C14.428706 9.314482 14.419263 9.451404 14.419263 9.593047C14.419263 10.036861 14.499528 10.72147 14.660057 11.646871C15.169972 11.3447 15.665722 10.863113 16.147309 10.202112C15.92068 11.325813 15.745987 11.953769 15.623229 12.085965C15.604344 12.10485 15.585458 12.119015 15.566572 12.128458C14.792256 11.684643 13.767705 11.462735 12.492918 11.462735C11.208687 11.462735 10.184136 11.684643 9.419263 12.128458C9.249292 12.0718 9.060435 11.429686 8.852691 10.202112C9.343721 10.881999 9.834749 11.363585 10.325779 11.646871C10.486307 10.825342 10.566572 10.1785 10.566572 9.706361C10.566572 9.583604 10.557129 9.408911 10.538244 9.182282C10.679887 9.616655 10.823891 9.982565 10.970255 10.280016C11.116619 10.577466 11.234656 10.778128 11.324363 10.881999S11.501416 11.08502 11.586402 11.179449S11.732766 11.358864 11.770538 11.434407C11.817753 11.349421 11.87441 11.252632 11.94051 11.144038S12.049103 10.957541 12.067989 10.910327S12.119925 10.771045 12.167139 10.634123S12.261568 10.32723 12.308782 10.124208S12.417375 9.640261 12.492918 9.281432Z" fill="#010101" />
<path d="M12.492918 22.40412C13.012276 22.40412 13.496222 22.387595 13.944759 22.354545C14.393296 22.321495 14.655336 22.30497 14.730878 22.30497C14.844193 22.30497 14.915014 22.312052 14.943343 22.326217S14.985836 22.375792 14.985836 22.432449C14.985836 22.621306 14.695467 22.76531 14.114731 22.86446S12.998112 23.013185 12.507082 23.013185C12.00661 23.013185 11.468367 22.96361 10.892351 22.86446C10.316336 22.76531 10.028329 22.621306 10.028329 22.432449C10.028329 22.385235 10.042493 22.352184 10.070822 22.333299S10.169972 22.30497 10.283286 22.30497C10.292729 22.30497 10.576016 22.321495 11.133144 22.354545S12.143531 22.40412 12.492918 22.40412ZM14.8017 21.766726C14.055712 21.861155 13.290836 21.90837 12.507082 21.90837C11.685552 21.90837 10.92068 21.861155 10.212465 21.766726C10.325779 21.672298 10.382436 21.488161 10.382436 21.214319C10.382436 21.034904 10.354108 20.926311 10.29745 20.88854C10.873466 20.992411 11.61001 21.044347 12.507082 21.044347C13.413598 21.044347 14.150142 20.992411 14.716714 20.88854C14.660057 20.926311 14.631728 21.034904 14.631728 21.214319C14.631728 21.488161 14.688385 21.672297 14.8017 21.766726ZM14.815864 20.151996C14.815864 20.416396 14.046271 20.548596 12.507082 20.548596S10.1983 20.416396 10.1983 20.151996C10.1983 19.915923 10.967894 19.797888 12.507082 19.797888S14.815864 19.915924 14.815864 20.151996ZM12.507082 27.956528C12.27101 27.956528 12.152975 27.843214 12.152975 27.616585C12.152975 27.371071 12.27101 27.248313 12.507082 27.248313C12.733711 27.248313 12.847025 27.37107 12.847025 27.616585C12.847025 27.843214 12.733711 27.956528 12.507082 27.956528ZM12.011331 26.214319C12.011331 26.535377 11.961756 26.832827 11.862606 27.10667S11.713881 27.53632 11.713881 27.574092C11.713881 27.791277 11.791785 27.977775 11.947592 28.133582S12.289897 28.367293 12.507082 28.367293S12.908404 28.289389 13.05949 28.133582S13.286119 27.791277 13.286119 27.574092C13.286119 27.53632 13.234183 27.382874 13.130312 27.113752S12.974504 26.544819 12.974504 26.214319C12.974504 25.751617 13.078376 25.06701 13.286119 24.160494C13.796034 25.236981 14.050992 26.049064 14.050992 26.596755C14.050992 26.653412 14.036827 26.759644 14.008499 26.915452S13.966006 27.168048 13.966006 27.20582C13.966006 27.423006 14.041549 27.609503 14.192635 27.76531C14.343721 27.921117 14.527857 27.999021 14.745042 27.999021C14.971671 27.999021 15.16289 27.921117 15.318697 27.76531S15.552408 27.423006 15.552408 27.20582C15.552408 27.035848 15.519358 26.901287 15.453258 26.802137S15.311615 26.627445 15.226629 26.575508S15.066101 26.398455 15.0 26.200154S14.90085 25.728011 14.90085 25.378624C14.90085 25.13311 14.924457 24.73651 14.971671 24.188823C15.585458 24.821496 15.892351 25.336132 15.892351 25.732732L15.878187 25.860211C15.868744 25.945197 15.856941 26.032544 15.842776 26.122251S15.82153 26.266255 15.82153 26.28514C15.82153 26.492884 15.899433 26.67702 16.055241 26.837548S16.392823 27.078341 16.600567 27.078341C16.817752 27.078341 17.00661 27.000438 17.167139 26.84463S17.407932 26.502326 17.407932 26.28514C17.407932 25.897983 17.190746 25.605253 16.756374 25.406953C16.737488 25.029238 16.567517 24.179379 16.246459 22.857378C16.246459 22.772392 16.069405 22.512714 15.715297 22.078341S15.184136 21.360683 15.184136 21.228483C15.184136 21.143497 15.250236 20.964082 15.382436 20.690239S15.580737 20.189768 15.580737 20.010353V19.783724C15.580737 19.566538 15.238432 19.417813 14.553824 19.337548C13.869217 19.257284 13.182248 19.217151 12.492918 19.217151C11.728045 19.217151 11.024547 19.262005 10.382436 19.351712C9.740322 19.44142 9.419263 19.585423 9.419263 19.783724V20.010353C9.419263 20.208653 9.483003 20.444725 9.610482 20.718568S9.8017 21.162382 9.8017 21.228483C9.8017 21.426783 9.648254 21.695905 9.34136 22.035848S8.838527 22.649634 8.753541 22.857378C8.432483 24.160494 8.262511 25.010353 8.243626 25.406953C7.809254 25.605253 7.592068 25.897983 7.592068 26.28514C7.592068 26.502326 7.672332 26.688823 7.832861 26.84463C7.99339 27.000438 8.177525 27.078341 8.385269 27.078341C8.602455 27.078341 8.788952 27.000438 8.944759 26.84463S9.17847 26.502326 9.17847 26.28514C9.17847 26.275697 9.166667 26.18599 9.143059 26.016018S9.107649 25.751617 9.107649 25.732732C9.107649 25.317246 9.40982 24.802609 10.014164 24.188823C10.061379 24.604309 10.084986 25.000909 10.084986 25.378624C10.084986 25.718568 10.051936 25.990051 9.985836 26.193072S9.844193 26.523572 9.759207 26.575508S9.598678 26.705348 9.532578 26.809219S9.433428 27.045292 9.433428 27.20582C9.433428 27.423006 9.513692 27.609503 9.674221 27.76531S10.023608 27.999021 10.240793 27.999021C10.457979 27.999021 10.644476 27.921117 10.800283 27.76531S11.033994 27.423006 11.033994 27.20582L10.991501 26.936698C10.963173 26.757283 10.949008 26.643969 10.949008 26.596755C10.949008 26.058511 11.203966 25.246425 11.713881 24.160494C11.912181 25.019796 12.011331 25.704404 12.011331 26.214319ZM16.600567 26.625083C16.515581 26.625083 16.437677 26.592033 16.366856 26.525933C16.296034 26.459833 16.260623 26.379569 16.260623 26.28514C16.260623 26.181269 16.293673 26.093922 16.359773 26.0231S16.506137 25.916868 16.600567 25.916868C16.836639 25.916868 16.954674 26.039625 16.954674 26.28514C16.954674 26.511769 16.836638 26.625083 16.600567 26.625083ZM14.745042 27.531599C14.650614 27.531599 14.57035 27.496188 14.504249 27.425367S14.405099 27.271921 14.405099 27.177491S14.438149 27.000438 14.504249 26.929616S14.650613 26.823384 14.745042 26.823384C14.990557 26.823384 15.113314 26.94142 15.113314 27.177491S14.990557 27.531599 14.745042 27.531599ZM10.240793 27.531599C10.004721 27.531599 9.886686 27.413563 9.886686 27.177491S10.004721 26.823384 10.240793 26.823384C10.467422 26.823384 10.580737 26.94142 10.580737 27.177491S10.467422 27.531599 10.240793 27.531599ZM8.385269 26.625083C8.149197 26.625083 8.031161 26.511769 8.031161 26.28514C8.031161 26.039626 8.149197 25.916868 8.385269 25.916868C8.611898 25.916868 8.725212 26.039625 8.725212 26.28514C8.725212 26.379569 8.689802 26.459833 8.61898 26.525933C8.548159 26.592033 8.470255 26.625083 8.385269 26.625083ZM12.507082 25.718568C12.422096 25.199209 12.327667 24.790806 12.223796 24.493355S12.025496 23.985802 11.94051 23.863044S11.803588 23.641136 11.784703 23.565593C11.737488 23.622251 11.657224 23.71668 11.543909 23.848879S11.359773 24.070787 11.331445 24.118001S11.24882 24.247841 11.168555 24.365877S11.024551 24.599588 10.977337 24.712902S10.868744 24.977303 10.793201 25.16616S10.637394 25.572204 10.552408 25.817718C10.571294 25.685518 10.580737 25.548596 10.580737 25.406953C10.580737 24.963139 10.500472 24.27853 10.339943 23.353129C9.830028 23.6553 9.334278 24.136887 8.852691 24.797888C9.07932 23.674187 9.254013 23.046231 9.376771 22.914035C9.395656 22.89515 9.414542 22.880985 9.433428 22.871542C10.207744 23.315357 11.232295 23.537265 12.507082 23.537265C13.791313 23.537265 14.815864 23.315357 15.580737 22.871542C15.750708 22.9282 15.939565 23.570314 16.147309 24.797888C15.656279 24.118001 15.165251 23.636415 14.674221 23.353129C14.513693 24.174658 14.433428 24.8215 14.433428 25.293639C14.433428 25.416396 14.442871 25.591089 14.461756 25.817718C14.320113 25.383345 14.176109 25.017435 14.029745 24.719984C13.883381 24.422534 13.765344 24.221872 13.675637 24.118001S13.498584 23.91498 13.413598 23.820551S13.267234 23.641136 13.229462 23.565593C13.182247 23.650579 13.12559 23.747368 13.05949 23.855962S12.950897 24.042459 12.932011 24.089673S12.880075 24.228955 12.832861 24.365877S12.738432 24.67277 12.691218 24.875792S12.582625 25.359739 12.507082 25.718568Z" fill="#010101" />
<path d="M22.247356 4.297326Q22.378966 4.252085 22.477673 4.184224T22.732667 3.992978Q22.856052 3.890158 22.952703 3.82024T23.1604 3.692743Q23.292009 3.626938 23.472973 3.58581Q23.904818 3.487103 24.102233 3.334929Q24.344888 3.145739 24.478555 2.861956T24.612221 2.257373Q24.612221 1.825528 24.416863 1.504729T23.917156 1.013248T23.300235 0.842567Q22.905405 0.842567 22.601058 1.029699T22.134254 1.523236T21.971798 2.183342Q21.971798 2.643977 22.204172 2.987396T22.819036 3.48299Q22.884841 3.511779 22.987662 3.515892V3.524118Q22.876616 3.536456 22.786134 3.581697Q22.625734 3.65984 22.354289 3.857255Q22.152761 4.001204 22.029377 4.069065T21.786722 4.136926Q21.712691 4.128701 21.677732 4.089629T21.642773 3.992978Q21.642773 3.894271 21.71886 3.809958T21.914219 3.721533Q21.926557 3.655728 21.864865 3.594036T21.679788 3.532343Q21.626322 3.532343 21.558461 3.569359T21.439189 3.680405T21.387779 3.861368Q21.387779 3.984752 21.472092 4.093742T21.685958 4.270593T21.947121 4.342567Q22.115746 4.342567 22.247356 4.297326ZM22.835488 3.262954Q22.646298 3.092273 22.55376 2.808489T22.461222 2.183342Q22.461222 1.866656 22.555817 1.60138T22.841657 1.177761T23.304348 1.019417Q23.715629 1.019417 23.921269 1.36695T24.12691 2.245034Q24.12691 2.565833 24.034371 2.837279T23.756757 3.27118T23.304348 3.433636Q23.024677 3.433636 22.835488 3.262954Z" fill="#010101" />
<path d="M22.947946 6.83234C22.945467 6.906702 22.942369 6.966812 22.938651 7.012669C22.934933 7.058526 22.925637 7.116777 22.910765 7.187421S22.877921 7.316317 22.856852 7.362173S22.804178 7.459465 22.76204 7.516476S22.670326 7.620583 22.613314 7.657765S22.484419 7.730888 22.397663 7.765591S22.211756 7.82756 22.100212 7.847389V7.921752H23.899788V7.847389C23.788244 7.827559 23.689093 7.799674 23.602337 7.763732S23.443077 7.691228 23.384826 7.654047S23.277001 7.569149 23.236101 7.510899S23.163598 7.401214 23.141289 7.356596S23.101009 7.253728 23.087376 7.181844S23.065067 7.052329 23.061349 7.008951C23.057631 6.965573 23.054533 6.906702 23.052054 6.83234C23.111544 6.941405 23.15988 7.018246 23.197061 7.062864C23.263987 7.147142 23.346406 7.214068 23.444317 7.263643C23.542227 7.313218 23.638279 7.338006 23.732472 7.338006C23.891112 7.338006 24.027443 7.279135 24.141466 7.161394S24.3125 6.901745 24.3125 6.735668C24.3125 6.57455 24.261066 6.436979 24.158198 6.322956S23.930772 6.151922 23.784525 6.151922C23.734951 6.151922 23.689093 6.158739 23.646955 6.172372S23.562677 6.203356 23.520538 6.224426L23.442458 6.263466C23.539129 6.124656 23.587465 5.993282 23.587465 5.869344C23.587465 5.713183 23.529834 5.57933 23.414572 5.467786S23.161119 5.30047 23.0 5.30047S22.700691 5.356242 22.585428 5.467786S22.412535 5.713183 22.412535 5.869344C22.412535 5.993282 22.460871 6.124656 22.557542 6.263466C22.540191 6.25603 22.516023 6.244875 22.485039 6.230003S22.431126 6.203976 22.416254 6.19654S22.382171 6.181667 22.358623 6.174231S22.312146 6.161217 22.289837 6.157499S22.242741 6.151922 22.215475 6.151922C22.069228 6.151922 21.944671 6.208933 21.841802 6.322956S21.6875 6.57455 21.6875 6.735668C21.6875 6.901745 21.744511 7.043653 21.858534 7.161394S22.108888 7.338006 22.267528 7.338006C22.540191 7.338006 22.766996 7.16945 22.947946 6.83234Z" fill="#010101" />
<path d="M2.752644 30.702674Q2.621034 30.747915 2.522327 30.815776T2.267333 31.007022Q2.143948 31.109842 2.047297 31.17976T1.8396 31.307257Q1.707991 31.373062 1.527027 31.41419Q1.095182 31.512897 0.897767 31.665071Q0.655112 31.854261 0.521445 32.138044T0.387779 32.742627Q0.387779 33.174472 0.583137 33.495271T1.082844 33.986752T1.699765 34.157433Q2.094595 34.157433 2.398942 33.970301T2.865746 33.476764T3.028202 32.816658Q3.028202 32.356023 2.795828 32.012604T2.180964 31.51701Q2.115159 31.488221 2.012338 31.484108V31.475882Q2.123384 31.463544 2.213866 31.418303Q2.374266 31.34016 2.645711 31.142745Q2.847239 30.998796 2.970623 30.930935T3.213278 30.863074Q3.287309 30.871299 3.322268 30.910371T3.357227 31.007022Q3.357227 31.105729 3.28114 31.190042T3.085781 31.278467Q3.073443 31.344272 3.135135 31.405964T3.320212 31.467657Q3.373678 31.467657 3.441539 31.430641T3.560811 31.319595T3.612221 31.138632Q3.612221 31.015248 3.527908 30.906258T3.314042 30.729407T3.052879 30.657433Q2.884254 30.657433 2.752644 30.702674ZM2.164512 31.737046Q2.353702 31.907727 2.44624 32.191511T2.538778 32.816658Q2.538778 33.133344 2.444183 33.39862T2.158343 33.822239T1.695652 33.980583Q1.284371 33.980583 1.078731 33.63305T0.87309 32.754966Q0.87309 32.434167 0.965629 32.162721T1.243243 31.72882T1.695652 31.566364Q1.975323 31.566364 2.164512 31.737046Z" fill="#010101" />
<path d="M2.052054 28.16766C2.054533 28.093298 2.057631 28.033188 2.061349 27.987331C2.065067 27.941474 2.074363 27.883223 2.089235 27.812579S2.122079 27.683683 2.143148 27.637827S2.195822 27.540535 2.23796 27.483524S2.329674 27.379417 2.386686 27.342235S2.515581 27.269112 2.602337 27.234409S2.788244 27.17244 2.899788 27.152611V27.078248H1.100212V27.152611C1.211756 27.172441 1.310907 27.200326 1.397663 27.236268S1.556923 27.308772 1.615174 27.345953S1.722999 27.430851 1.763899 27.489101S1.836402 27.598786 1.858711 27.643404S1.898991 27.746272 1.912624 27.818156S1.934933 27.947671 1.938651 27.991049C1.942369 28.034427 1.945467 28.093298 1.947946 28.16766C1.888456 28.058595 1.84012 27.981754 1.802939 27.937136C1.736013 27.852858 1.653594 27.785932 1.555683 27.736357C1.457773 27.686782 1.361721 27.661994 1.267528 27.661994C1.108888 27.661994 0.972557 27.720865 0.858534 27.838606S0.6875 28.098255 0.6875 28.264332C0.6875 28.42545 0.738934 28.563021 0.841802 28.677044S1.069228 28.848078 1.215475 28.848078C1.265049 28.848078 1.310907 28.841261 1.353045 28.827628S1.437323 28.796644 1.479462 28.775574L1.557542 28.736534C1.460871 28.875344 1.412535 29.006718 1.412535 29.130656C1.412535 29.286817 1.470166 29.42067 1.585428 29.532214S1.838881 29.69953 2.0 29.69953S2.299309 29.643758 2.414572 29.532214S2.587465 29.286817 2.587465 29.130656C2.587465 29.006718 2.539129 28.875344 2.442458 28.736534C2.459809 28.74397 2.483977 28.755125 2.514961 28.769997S2.568874 28.796024 2.583746 28.80346S2.617829 28.818333 2.641377 28.825769S2.687854 28.838783 2.710163 28.842501S2.757259 28.848078 2.784525 28.848078C2.930772 28.848078 3.055329 28.791067 3.158198 28.677044S3.3125 28.42545 3.3125 28.264332C3.3125 28.098255 3.255489 27.956347 3.141466 27.838606S2.891112 27.661994 2.732472 27.661994C2.459809 27.661994 2.233004 27.83055 2.052054 28.16766Z" fill="#010101" />
</svg>
