<svg width="150.000000" height="210.000000" id="card-webback">
<radialGradient id="card-webbackgradient" cx="75.0" cy="105.0" r="150" gradientTransform="matrix(1 0 0 1 0 -.25)" gradientUnits="userSpaceOnUse">
<stop stop-color="#120110" offset=".15"/><stop stop-color="#200120" offset=".35"/><stop stop-color="#310530" offset=".5"/><stop stop-color="#210120" offset=".75"/><stop stop-color="#182110" offset="1"/></radialGradient><rect x="0" y="0" rx="7.5" ry="7.5" width="150" height="210.0" stroke="rgba(1,1,1,0.333)" fill="#fffdfa" />
<rect x="3.75" y="5.25" rx="3.75" ry="3.75" width="142.5" height="199.5" stroke="#210126" fill="#210126" />
<rect x="11.25" y="15.75" rx="1.875" ry="1.875" width="127.5" height="178.5" stroke="#fffdfa" fill="url(#card-webbackgradient)" />
<path d="M76.576763 164.66805L84.211618 128.485477L117.904564 148.900415L119.06639 147.572614L98.485477 115.705394L135.0 106.742739V104.751037L98.983402 96.618257L118.40249 64.253112L116.908714 62.925311L85.705394 82.676349L76.576763 45.33195H74.585062L66.950207 81.182573L33.755187 61.59751L32.427386 62.925311L52.344398 94.294606L15.0 103.091286V104.751037L52.344398 113.215768L32.427386 146.908714L33.755187 148.070539L64.958506 127.987552L74.585062 164.66805H76.576763ZM67.448133 125.33195L75.580913 107.572614V158.858921ZM84.377593 125.0L77.240664 107.074689L113.755187 143.589212ZM96.161826 113.215768L78.236515 105.580913H128.526971ZM95.0 96.618257L77.904564 103.091286L113.423237 67.738589ZM83.381743 84.66805L75.580913 102.593361V51.307054ZM66.950207 84.66805L74.087137 103.091286L36.908714 65.912863ZM55.165975 96.618257L72.261411 104.751037L20.311203 104.253112ZM55.497925 113.215768L73.257261 106.742739L37.406639 142.759336Z" fill="#fffdfa" />
</svg>
