<svg width="150.000000" height="210.000000" id="card-webclub8">
<radialGradient id="card-webwhitegradient" cx="75.0" cy="105.0" r="150" gradientTransform="matrix(1 0 0 1 0 -.25)" gradientUnits="userSpaceOnUse">
<stop stop-color="#FDFAF4" offset=".15"/>
<stop stop-color="#FDF9F2" offset=".35"/>
<stop stop-color="#FCF7F1" offset=".5"/>
<stop stop-color="#FDFDF8" offset=".75"/>
<stop stop-color="#FFFDFA" offset="1"/>
</radialGradient>
<rect x="0" y="0" rx="7.5" ry="7.5" width="150" height="210.0" stroke="rgba(1,1,1,0.333)" fill="url(#card-webwhitegradient)" />
<path d="M44.405099 37.528329C44.376771 38.378187 44.34136 39.065157 44.298867 39.589235C44.256374 40.113313 44.150142 40.779037 43.98017 41.586402S43.604816 43.059492 43.364023 43.583569S42.762038 44.695469 42.280453 45.347025S41.232293 46.536827 40.580737 46.961756S39.107647 47.797452 38.116147 48.194051S35.991501 48.902268 34.716714 49.128895V49.978754H55.283286V49.128895C54.008499 48.902266 52.875353 48.583571 51.883853 48.172805S50.063741 47.344193 49.398017 46.919263S48.165722 45.94901 47.6983 45.283286S46.869688 44.029745 46.614731 43.51983S46.154392 42.344191 45.998584 41.522663S45.743626 40.042494 45.701133 39.546742C45.65864 39.05099 45.62323 38.378187 45.594901 37.528329C46.274788 38.774786 46.827195 39.652975 47.252125 40.16289C48.016997 41.126064 48.958925 41.890936 50.077904 42.457507C51.196882 43.024078 52.294619 43.307365 53.371105 43.307365C55.184137 43.307365 56.742208 42.634562 58.045326 41.288952S60.0 38.321531 60.0 36.423513C60.0 34.582154 59.412183 33.009916 58.236544 31.706799S55.637392 29.752125 53.966006 29.752125C53.399435 29.752125 52.875353 29.830028 52.393768 29.985836S51.430593 30.339943 50.949008 30.580737L50.056657 31.026912C51.161473 29.440511 51.713881 27.939092 51.713881 26.522663C51.713881 24.73796 51.055241 23.208215 49.73796 21.933428S46.841358 20.021246 45.0 20.021246S41.57932 20.65864 40.26204 21.933428S38.286119 24.73796 38.286119 26.522663C38.286119 27.939092 38.838527 29.440511 39.943343 31.026912C39.745042 30.941926 39.468837 30.814448 39.114731 30.644476S38.498584 30.347025 38.328612 30.26204S37.939093 30.092068 37.669972 30.007082S37.13881 29.858357 36.883853 29.815864S36.345608 29.752125 36.033994 29.752125C34.362608 29.752125 32.939095 30.403681 31.763456 31.706799S30.0 34.582154 30.0 36.423513C30.0 38.321531 30.651557 39.943341 31.954674 41.288952S34.815863 43.307365 36.628895 43.307365C39.745041 43.307365 42.337096 41.381021 44.405099 37.528329Z" fill="#010101" />
<path d="M45.594901 172.471671C45.623229 171.621813 45.65864 170.934843 45.701133 170.410765C45.743626 169.886687 45.849858 169.220963 46.01983 168.413598S46.395184 166.940508 46.635977 166.416431S47.237962 165.304531 47.719547 164.652975S48.767707 163.463173 49.419263 163.038244S50.892353 162.202548 51.883853 161.805949S54.008499 161.097732 55.283286 160.871105V160.021246H34.716714V160.871105C35.991501 161.097734 37.124647 161.416429 38.116147 161.827195S39.936259 162.655807 40.601983 163.080737S41.834278 164.05099 42.3017 164.716714S43.130312 165.970255 43.385269 166.48017S43.845608 167.655809 44.001416 168.477337S44.256374 169.957506 44.298867 170.453258C44.34136 170.94901 44.37677 171.621813 44.405099 172.471671C43.725212 171.225214 43.172805 170.347025 42.747875 169.83711C41.983003 168.873936 41.041075 168.109064 39.922096 167.542493C38.803118 166.975922 37.705381 166.692635 36.628895 166.692635C34.815863 166.692635 33.257792 167.365438 31.954674 168.711048S30.0 171.678469 30.0 173.576487C30.0 175.417846 30.587817 176.990084 31.763456 178.293201S34.362608 180.247875 36.033994 180.247875C36.600565 180.247875 37.124647 180.169972 37.606232 180.014164S38.569407 179.660057 39.050992 179.419263L39.943343 178.973088C38.838527 180.559489 38.286119 182.060908 38.286119 183.477337C38.286119 185.26204 38.944759 186.791785 40.26204 188.066572S43.158642 189.978754 45.0 189.978754S48.42068 189.34136 49.73796 188.066572S51.713881 185.26204 51.713881 183.477337C51.713881 182.060908 51.161473 180.559489 50.056657 178.973088C50.254958 179.058074 50.531163 179.185552 50.885269 179.355524S51.501416 179.652975 51.671388 179.73796S52.060907 179.907932 52.330028 179.992918S52.86119 180.141643 53.116147 180.184136S53.654392 180.247875 53.966006 180.247875C55.637392 180.247875 57.060905 179.596319 58.236544 178.293201S60.0 175.417846 60.0 173.576487C60.0 171.678469 59.348443 170.056659 58.045326 168.711048S55.184137 166.692635 53.371105 166.692635C50.254959 166.692635 47.662904 168.618979 45.594901 172.471671Z" fill="#010101" />
<path d="M44.405099 84.194995C44.376771 85.044854 44.34136 85.731824 44.298867 86.255902C44.256374 86.77998 44.150142 87.445703 43.98017 88.253069S43.604816 89.726158 43.364023 90.250236S42.762038 91.362136 42.280453 92.013692S41.232293 93.203494 40.580737 93.628423S39.107647 94.464119 38.116147 94.860718S35.991501 95.568934 34.716714 95.795562V96.64542H55.283286V95.795562C54.008499 95.568933 52.875353 95.250237 51.883853 94.839471S50.063741 94.010859 49.398017 93.58593S48.165722 92.615677 47.6983 91.949953S46.869688 90.696412 46.614731 90.186497S46.154392 89.010858 45.998584 88.18933S45.743626 86.709161 45.701133 86.213409C45.65864 85.717657 45.62323 85.044854 45.594901 84.194995C46.274788 85.441453 46.827195 86.319641 47.252125 86.829556C48.016997 87.79273 48.958925 88.557603 50.077904 89.124174C51.196882 89.690745 52.294619 89.974032 53.371105 89.974032C55.184137 89.974032 56.742208 89.301229 58.045326 87.955619S60.0 84.988198 60.0 83.090179C60.0 81.248821 59.412183 79.676583 58.236544 78.373466S55.637392 76.418791 53.966006 76.418791C53.399435 76.418791 52.875353 76.496695 52.393768 76.652502S51.430593 77.00661 50.949008 77.247403L50.056657 77.693579C51.161473 76.107178 51.713881 74.605759 51.713881 73.18933C51.713881 71.404627 51.055241 69.874882 49.73796 68.600094S46.841358 66.687913 45.0 66.687913S41.57932 67.325307 40.26204 68.600094S38.286119 71.404627 38.286119 73.18933C38.286119 74.605759 38.838527 76.107178 39.943343 77.693579C39.745042 77.608593 39.468837 77.481114 39.114731 77.311143S38.498584 77.013692 38.328612 76.928706S37.939093 76.758735 37.669972 76.673749S37.13881 76.525024 36.883853 76.482531S36.345608 76.418791 36.033994 76.418791C34.362608 76.418791 32.939095 77.070348 31.763456 78.373466S30.0 81.248821 30.0 83.090179C30.0 84.988198 30.651557 86.610008 31.954674 87.955619S34.815863 89.974032 36.628895 89.974032C39.745041 89.974032 42.337096 88.047688 44.405099 84.194995Z" fill="#010101" />
<path d="M45.594901 125.805005C45.623229 124.955146 45.65864 124.268176 45.701133 123.744098C45.743626 123.22002 45.849858 122.554297 46.01983 121.746931S46.395184 120.273842 46.635977 119.749764S47.237962 118.637864 47.719547 117.986308S48.767707 116.796506 49.419263 116.371577S50.892353 115.535881 51.883853 115.139282S54.008499 114.431066 55.283286 114.204438V113.35458H34.716714V114.204438C35.991501 114.431067 37.124647 114.749763 38.116147 115.160529S39.936259 115.989141 40.601983 116.41407S41.834278 117.384323 42.3017 118.050047S43.130312 119.303588 43.385269 119.813503S43.845608 120.989142 44.001416 121.81067S44.256374 123.290839 44.298867 123.786591C44.34136 124.282343 44.37677 124.955146 44.405099 125.805005C43.725212 124.558547 43.172805 123.680359 42.747875 123.170444C41.983003 122.20727 41.041075 121.442397 39.922096 120.875826C38.803118 120.309255 37.705381 120.025968 36.628895 120.025968C34.815863 120.025968 33.257792 120.698771 31.954674 122.044381S30.0 125.011802 30.0 126.909821C30.0 128.751179 30.587817 130.323417 31.763456 131.626534S34.362608 133.581209 36.033994 133.581209C36.600565 133.581209 37.124647 133.503305 37.606232 133.347498S38.569407 132.99339 39.050992 132.752597L39.943343 132.306421C38.838527 133.892822 38.286119 135.394241 38.286119 136.81067C38.286119 138.595373 38.944759 140.125118 40.26204 141.399906S43.158642 143.312087 45.0 143.312087S48.42068 142.674693 49.73796 141.399906S51.713881 138.595373 51.713881 136.81067C51.713881 135.394241 51.161473 133.892822 50.056657 132.306421C50.254958 132.391407 50.531163 132.518886 50.885269 132.688857S51.501416 132.986308 51.671388 133.071294S52.060907 133.241265 52.330028 133.326251S52.86119 133.474976 53.116147 133.517469S53.654392 133.581209 53.966006 133.581209C55.637392 133.581209 57.060905 132.929652 58.236544 131.626534S60.0 128.751179 60.0 126.909821C60.0 125.011802 59.348443 123.389992 58.045326 122.044381S55.184137 120.025968 53.371105 120.025968C50.254959 120.025968 47.662904 121.952312 45.594901 125.805005Z" fill="#010101" />
<path d="M104.405099 37.528329C104.376771 38.378187 104.34136 39.065157 104.298867 39.589235C104.256374 40.113313 104.150142 40.779037 103.98017 41.586402S103.604816 43.059492 103.364023 43.583569S102.762038 44.695469 102.280453 45.347025S101.232293 46.536827 100.580737 46.961756S99.107647 47.797452 98.116147 48.194051S95.991501 48.902268 94.716714 49.128895V49.978754H115.283286V49.128895C114.008499 48.902266 112.875353 48.583571 111.883853 48.172805S110.063741 47.344193 109.398017 46.919263S108.165722 45.94901 107.6983 45.283286S106.869688 44.029745 106.614731 43.51983S106.154392 42.344191 105.998584 41.522663S105.743626 40.042494 105.701133 39.546742C105.65864 39.05099 105.62323 38.378187 105.594901 37.528329C106.274788 38.774786 106.827195 39.652975 107.252125 40.16289C108.016997 41.126064 108.958925 41.890936 110.077904 42.457507C111.196882 43.024078 112.294619 43.307365 113.371105 43.307365C115.184137 43.307365 116.742208 42.634562 118.045326 41.288952S120.0 38.321531 120.0 36.423513C120.0 34.582154 119.412183 33.009916 118.236544 31.706799S115.637392 29.752125 113.966006 29.752125C113.399435 29.752125 112.875353 29.830028 112.393768 29.985836S111.430593 30.339943 110.949008 30.580737L110.056657 31.026912C111.161473 29.440511 111.713881 27.939092 111.713881 26.522663C111.713881 24.73796 111.055241 23.208215 109.73796 21.933428S106.841358 20.021246 105.0 20.021246S101.57932 20.65864 100.26204 21.933428S98.286119 24.73796 98.286119 26.522663C98.286119 27.939092 98.838527 29.440511 99.943343 31.026912C99.745042 30.941926 99.468837 30.814448 99.114731 30.644476S98.498584 30.347025 98.328612 30.26204S97.939093 30.092068 97.669972 30.007082S97.13881 29.858357 96.883853 29.815864S96.345608 29.752125 96.033994 29.752125C94.362608 29.752125 92.939095 30.403681 91.763456 31.706799S90.0 34.582154 90.0 36.423513C90.0 38.321531 90.651557 39.943341 91.954674 41.288952S94.815863 43.307365 96.628895 43.307365C99.745041 43.307365 102.337096 41.381021 104.405099 37.528329Z" fill="#010101" />
<path d="M105.594901 172.471671C105.623229 171.621813 105.65864 170.934843 105.701133 170.410765C105.743626 169.886687 105.849858 169.220963 106.01983 168.413598S106.395184 166.940508 106.635977 166.416431S107.237962 165.304531 107.719547 164.652975S108.767707 163.463173 109.419263 163.038244S110.892353 162.202548 111.883853 161.805949S114.008499 161.097732 115.283286 160.871105V160.021246H94.716714V160.871105C95.991501 161.097734 97.124647 161.416429 98.116147 161.827195S99.936259 162.655807 100.601983 163.080737S101.834278 164.05099 102.3017 164.716714S103.130312 165.970255 103.385269 166.48017S103.845608 167.655809 104.001416 168.477337S104.256374 169.957506 104.298867 170.453258C104.34136 170.94901 104.37677 171.621813 104.405099 172.471671C103.725212 171.225214 103.172805 170.347025 102.747875 169.83711C101.983003 168.873936 101.041075 168.109064 99.922096 167.542493C98.803118 166.975922 97.705381 166.692635 96.628895 166.692635C94.815863 166.692635 93.257792 167.365438 91.954674 168.711048S90.0 171.678469 90.0 173.576487C90.0 175.417846 90.587817 176.990084 91.763456 178.293201S94.362608 180.247875 96.033994 180.247875C96.600565 180.247875 97.124647 180.169972 97.606232 180.014164S98.569407 179.660057 99.050992 179.419263L99.943343 178.973088C98.838527 180.559489 98.286119 182.060908 98.286119 183.477337C98.286119 185.26204 98.944759 186.791785 100.26204 188.066572S103.158642 189.978754 105.0 189.978754S108.42068 189.34136 109.73796 188.066572S111.713881 185.26204 111.713881 183.477337C111.713881 182.060908 111.161473 180.559489 110.056657 178.973088C110.254958 179.058074 110.531163 179.185552 110.885269 179.355524S111.501416 179.652975 111.671388 179.73796S112.060907 179.907932 112.330028 179.992918S112.86119 180.141643 113.116147 180.184136S113.654392 180.247875 113.966006 180.247875C115.637392 180.247875 117.060905 179.596319 118.236544 178.293201S120.0 175.417846 120.0 173.576487C120.0 171.678469 119.348443 170.056659 118.045326 168.711048S115.184137 166.692635 113.371105 166.692635C110.254959 166.692635 107.662904 168.618979 105.594901 172.471671Z" fill="#010101" />
<path d="M104.405099 84.194995C104.376771 85.044854 104.34136 85.731824 104.298867 86.255902C104.256374 86.77998 104.150142 87.445703 103.98017 88.253069S103.604816 89.726158 103.364023 90.250236S102.762038 91.362136 102.280453 92.013692S101.232293 93.203494 100.580737 93.628423S99.107647 94.464119 98.116147 94.860718S95.991501 95.568934 94.716714 95.795562V96.64542H115.283286V95.795562C114.008499 95.568933 112.875353 95.250237 111.883853 94.839471S110.063741 94.010859 109.398017 93.58593S108.165722 92.615677 107.6983 91.949953S106.869688 90.696412 106.614731 90.186497S106.154392 89.010858 105.998584 88.18933S105.743626 86.709161 105.701133 86.213409C105.65864 85.717657 105.62323 85.044854 105.594901 84.194995C106.274788 85.441453 106.827195 86.319641 107.252125 86.829556C108.016997 87.79273 108.958925 88.557603 110.077904 89.124174C111.196882 89.690745 112.294619 89.974032 113.371105 89.974032C115.184137 89.974032 116.742208 89.301229 118.045326 87.955619S120.0 84.988198 120.0 83.090179C120.0 81.248821 119.412183 79.676583 118.236544 78.373466S115.637392 76.418791 113.966006 76.418791C113.399435 76.418791 112.875353 76.496695 112.393768 76.652502S111.430593 77.00661 110.949008 77.247403L110.056657 77.693579C111.161473 76.107178 111.713881 74.605759 111.713881 73.18933C111.713881 71.404627 111.055241 69.874882 109.73796 68.600094S106.841358 66.687913 105.0 66.687913S101.57932 67.325307 100.26204 68.600094S98.286119 71.404627 98.286119 73.18933C98.286119 74.605759 98.838527 76.107178 99.943343 77.693579C99.745042 77.608593 99.468837 77.481114 99.114731 77.311143S98.498584 77.013692 98.328612 76.928706S97.939093 76.758735 97.669972 76.673749S97.13881 76.525024 96.883853 76.482531S96.345608 76.418791 96.033994 76.418791C94.362608 76.418791 92.939095 77.070348 91.763456 78.373466S90.0 81.248821 90.0 83.090179C90.0 84.988198 90.651557 86.610008 91.954674 87.955619S94.815863 89.974032 96.628895 89.974032C99.745041 89.974032 102.337096 88.047688 104.405099 84.194995Z" fill="#010101" />
<path d="M105.594901 125.805005C105.623229 124.955146 105.65864 124.268176 105.701133 123.744098C105.743626 123.22002 105.849858 122.554297 106.01983 121.746931S106.395184 120.273842 106.635977 119.749764S107.237962 118.637864 107.719547 117.986308S108.767707 116.796506 109.419263 116.371577S110.892353 115.535881 111.883853 115.139282S114.008499 114.431066 115.283286 114.204438V113.35458H94.716714V114.204438C95.991501 114.431067 97.124647 114.749763 98.116147 115.160529S99.936259 115.989141 100.601983 116.41407S101.834278 117.384323 102.3017 118.050047S103.130312 119.303588 103.385269 119.813503S103.845608 120.989142 104.001416 121.81067S104.256374 123.290839 104.298867 123.786591C104.34136 124.282343 104.37677 124.955146 104.405099 125.805005C103.725212 124.558547 103.172805 123.680359 102.747875 123.170444C101.983003 122.20727 101.041075 121.442397 99.922096 120.875826C98.803118 120.309255 97.705381 120.025968 96.628895 120.025968C94.815863 120.025968 93.257792 120.698771 91.954674 122.044381S90.0 125.011802 90.0 126.909821C90.0 128.751179 90.587817 130.323417 91.763456 131.626534S94.362608 133.581209 96.033994 133.581209C96.600565 133.581209 97.124647 133.503305 97.606232 133.347498S98.569407 132.99339 99.050992 132.752597L99.943343 132.306421C98.838527 133.892822 98.286119 135.394241 98.286119 136.81067C98.286119 138.595373 98.944759 140.125118 100.26204 141.399906S103.158642 143.312087 105.0 143.312087S108.42068 142.674693 109.73796 141.399906S111.713881 138.595373 111.713881 136.81067C111.713881 135.394241 111.161473 133.892822 110.056657 132.306421C110.254958 132.391407 110.531163 132.518886 110.885269 132.688857S111.501416 132.986308 111.671388 133.071294S112.060907 133.241265 112.330028 133.326251S112.86119 133.474976 113.116147 133.517469S113.654392 133.581209 113.966006 133.581209C115.637392 133.581209 117.060905 132.929652 118.236544 131.626534S120.0 128.751179 120.0 126.909821C120.0 125.011802 119.348443 123.389992 118.045326 122.044381S115.184137 120.025968 113.371105 120.025968C110.254959 120.025968 107.662904 121.952312 105.594901 125.805005Z" fill="#010101" />
<path d="M142.180909 25.329945Q143.88 24.604491 144.796364 23.344491T145.712727 20.480855Q145.712727 18.800855 144.586364 17.559945T141.245455 15.364491Q143.078182 14.257218 143.937273 13.111764T144.796364 10.5154Q144.796364 9.026309 143.803636 7.766309T141.169091 5.780855T137.656364 5.0554Q135.747273 5.0554 134.258182 5.742673T131.929091 7.613582T131.089091 10.286309Q131.089091 11.660855 132.043636 12.863582T134.907273 15.020855Q132.387273 16.089945 131.337273 17.273582T130.287273 20.289945Q130.287273 21.8554 131.299091 23.172673T134.124545 25.272673T138.267273 26.0554Q140.481818 26.0554 142.180909 25.329945ZM134.620909 12.519945Q134.067273 11.431764 134.067273 10.248127Q134.067273 8.606309 135.06 7.479945T137.847273 6.353582Q139.565455 6.353582 140.596364 7.346309T141.627273 9.866309Q141.627273 11.279036 140.233636 12.252673T136.205455 14.333582Q135.174545 13.608127 134.620909 12.519945ZM134.869091 23.726309Q133.723636 22.657218 133.723636 20.977218Q133.723636 19.869945 134.43 19.049036T136.262727 17.636309T139.794545 15.9754Q140.978182 16.777218 141.627273 17.884491T142.276364 20.328127Q142.276364 22.313582 141.073636 23.554491T137.923636 24.7954Q136.014545 24.7954 134.869091 23.726309Z" fill="#010101" />
<path d="M137.687677 40.994039C137.672805 41.440215 137.654214 41.800874 137.631905 42.076015C137.609596 42.351156 137.553824 42.700661 137.464589 43.124528S137.267528 43.8979 137.141112 44.173041S136.82507 44.756788 136.572238 45.098855S136.021954 45.723501 135.679887 45.946589S134.906515 46.385329 134.385977 46.593543S133.270538 46.965357 132.601275 47.084337V47.530512H143.398725V47.084337C142.729462 46.965357 142.13456 46.798041 141.614023 46.582389S140.658464 46.147368 140.308959 45.92428S139.662004 45.414897 139.416608 45.065392S138.981586 44.407283 138.847734 44.139577S138.606056 43.522367 138.524256 43.091065S138.390404 42.313976 138.368095 42.053706C138.345786 41.793436 138.327196 41.440215 138.312323 40.994039C138.669263 41.648429 138.959278 42.109478 139.182365 42.377184C139.583924 42.88285 140.078436 43.284408 140.665899 43.581858C141.253363 43.879308 141.829675 44.028034 142.39483 44.028034C143.346672 44.028034 144.164659 43.674812 144.848796 42.968366S145.875 41.410471 145.875 40.414011C145.875 39.447298 145.566396 38.621873 144.949186 37.937736S143.584631 36.911532 142.707153 36.911532C142.409703 36.911532 142.13456 36.952431 141.881728 37.03423S141.376062 37.220137 141.123229 37.346553L140.654745 37.580796C141.234773 36.747935 141.524788 35.95969 141.524788 35.216065C141.524788 34.279096 141.179001 33.47598 140.487429 32.806716S138.966713 31.802821 138.0 31.802821S136.204143 32.137453 135.512571 32.806716S134.475212 34.279096 134.475212 35.216065C134.475212 35.95969 134.765227 36.747935 135.345255 37.580796C135.241147 37.536178 135.096139 37.469252 134.910234 37.380017S134.586756 37.223855 134.497521 37.179237S134.293024 37.090002 134.151735 37.045385S133.872875 36.967304 133.739023 36.944995S133.456444 36.911532 133.292847 36.911532C132.415369 36.911532 131.668025 37.253599 131.050814 37.937736S130.125 39.447298 130.125 40.414011C130.125 41.410471 130.467067 42.261921 131.151204 42.968366S132.653328 44.028034 133.60517 44.028034C135.241147 44.028034 136.601976 43.016703 137.687677 40.994039Z" fill="#010101" />
<path d="M7.819091 184.670055Q6.12 185.395509 5.203636 186.655509T4.287273 189.519145Q4.287273 191.199145 5.413636 192.440055T8.754545 194.635509Q6.921818 195.742782 6.062727 196.888236T5.203636 199.4846Q5.203636 200.973691 6.196364 202.233691T8.830909 204.219145T12.343636 204.9446Q14.252727 204.9446 15.741818 204.257327T18.070909 202.386418T18.910909 199.713691Q18.910909 198.339145 17.956364 197.136418T15.092727 194.979145Q17.612727 193.910055 18.662727 192.726418T19.712727 189.710055Q19.712727 188.1446 18.700909 186.827327T15.875455 184.727327T11.732727 183.9446Q9.518182 183.9446 7.819091 184.670055ZM15.379091 197.480055Q15.932727 198.568236 15.932727 199.751873Q15.932727 201.393691 14.94 202.520055T12.152727 203.646418Q10.434545 203.646418 9.403636 202.653691T8.372727 200.133691Q8.372727 198.720964 9.766364 197.747327T13.794545 195.666418Q14.825455 196.391873 15.379091 197.480055ZM15.130909 186.273691Q16.276364 187.342782 16.276364 189.022782Q16.276364 190.130055 15.57 190.950964T13.737273 192.363691T10.205455 194.0246Q9.021818 193.222782 8.372727 192.115509T7.723636 189.671873Q7.723636 187.686418 8.926364 186.445509T12.076364 185.2046Q13.985455 185.2046 15.130909 186.273691Z" fill="#010101" />
<path d="M12.312323 169.005961C12.327195 168.559785 12.345786 168.199126 12.368095 167.923985C12.390404 167.648844 12.446176 167.299339 12.535411 166.875472S12.732472 166.1021 12.858888 165.826959S13.17493 165.243212 13.427762 164.901145S13.978046 164.276499 14.320113 164.053411S15.093485 163.614671 15.614023 163.406457S16.729462 163.034643 17.398725 162.915663V162.469488H6.601275V162.915663C7.270538 163.034643 7.86544 163.201959 8.385977 163.417611S9.341536 163.852632 9.691041 164.07572S10.337996 164.585103 10.583392 164.934608S11.018414 165.592717 11.152266 165.860423S11.393944 166.477633 11.475744 166.908935S11.609596 167.686024 11.631905 167.946294C11.654214 168.206564 11.672804 168.559785 11.687677 169.005961C11.330737 168.351571 11.040722 167.890522 10.817635 167.622816C10.416076 167.11715 9.921564 166.715592 9.334101 166.418142C8.746637 166.120692 8.170325 165.971966 7.60517 165.971966C6.653328 165.971966 5.835341 166.325188 5.151204 167.031634S4.125 168.589529 4.125 169.585989C4.125 170.552702 4.433604 171.378127 5.050814 172.062264S6.415369 173.088468 7.292847 173.088468C7.590297 173.088468 7.86544 173.047569 8.118272 172.96577S8.623938 172.779863 8.876771 172.653447L9.345255 172.419204C8.765227 173.252065 8.475212 174.04031 8.475212 174.783935C8.475212 175.720904 8.820999 176.52402 9.512571 177.193284S11.033287 178.197179 12.0 178.197179S13.795857 177.862547 14.487429 177.193284S15.524788 175.720904 15.524788 174.783935C15.524788 174.04031 15.234773 173.252065 14.654745 172.419204C14.758853 172.463822 14.903861 172.530748 15.089766 172.619983S15.413244 172.776145 15.502479 172.820763S15.706976 172.909998 15.848265 172.954615S16.127125 173.032696 16.260977 173.055005S16.543556 173.088468 16.707153 173.088468C17.584631 173.088468 18.331975 172.746401 18.949186 172.062264S19.875 170.552702 19.875 169.585989C19.875 168.589529 19.532933 167.738079 18.848796 167.031634S17.346672 165.971966 16.39483 165.971966C14.758853 165.971966 13.398024 166.983297 12.312323 169.005961Z" fill="#010101" />
</svg>
