<svg width="150.000000" height="210.000000" id="card-webspade7">
<radialGradient id="card-webwhitegradient" cx="75.0" cy="105.0" r="150" gradientTransform="matrix(1 0 0 1 0 -.25)" gradientUnits="userSpaceOnUse">
<stop stop-color="#FDFAF4" offset=".15"/>
<stop stop-color="#FDF9F2" offset=".35"/>
<stop stop-color="#FCF7F1" offset=".5"/>
<stop stop-color="#FDFDF8" offset=".75"/>
<stop stop-color="#FFFDFA" offset="1"/>
</radialGradient>
<rect x="0" y="0" rx="7.5" ry="7.5" width="150" height="210.0" stroke="rgba(1,1,1,0.333)" fill="url(#card-webwhitegradient)" />
<path d="M44.297872 39.87234C44.156029 41.347519 43.801417 42.652481 43.234043 43.787234C42.666668 44.921987 42.070923 45.787234 41.446809 46.382979S40.03546 47.489362 39.085106 47.914894C38.134753 48.340426 37.404255 48.617021 36.893617 48.744681S35.758864 48.992908 35.021277 49.106383C34.907801 49.134752 34.822695 49.148936 34.765957 49.148936V50.0H55.234043V49.148936C52.822694 48.723404 50.992906 48.099289 49.744681 47.276596C47.361702 45.687945 46.014183 43.21986 45.702128 39.87234C47.177306 42.141843 49.078013 43.276596 51.404255 43.276596C52.9078 43.276596 54.191489 42.751774 55.255319 41.702128S56.851064 39.375885 56.851064 37.87234C56.851064 36.595745 56.539007 35.432626 55.914894 34.382979C55.290779 33.333332 54.482268 32.375885 53.489362 31.510638S51.475179 29.744681 50.425532 28.808511C49.375885 27.87234 48.340426 26.645391 47.319149 25.12766S45.517732 21.900711 44.978723 20.0C44.496455 21.87234 43.751774 23.560285 42.744681 25.06383S40.702128 27.787234 39.638298 28.723404S37.546098 30.567374 36.553191 31.446809S34.744681 33.290779 34.106383 34.340426S33.148936 36.567374 33.148936 37.87234C33.148936 39.375885 33.680851 40.652481 34.744681 41.702128S37.0922 43.276596 38.595745 43.276596C40.921987 43.276596 42.822694 42.141843 44.297872 39.87234Z" fill="#010101" />
<path d="M45.702128 170.12766C45.843971 168.652481 46.198583 167.347519 46.765957 166.212766C47.333332 165.078013 47.929077 164.212766 48.553191 163.617021S49.96454 162.510638 50.914894 162.085106C51.865247 161.659574 52.595745 161.382979 53.106383 161.255319S54.241136 161.007092 54.978723 160.893617C55.092199 160.865248 55.177305 160.851064 55.234043 160.851064V160.0H34.765957V160.851064C37.177306 161.276596 39.007094 161.900711 40.255319 162.723404C42.638298 164.312055 43.985817 166.78014 44.297872 170.12766C42.822694 167.858157 40.921987 166.723404 38.595745 166.723404C37.0922 166.723404 35.808511 167.248226 34.744681 168.297872S33.148936 170.624115 33.148936 172.12766C33.148936 173.404255 33.460993 174.567374 34.085106 175.617021C34.709221 176.666668 35.517732 177.624115 36.510638 178.489362S38.524821 180.255319 39.574468 181.191489C40.624115 182.12766 41.659574 183.354609 42.680851 184.87234S44.482268 188.099289 45.021277 190.0C45.503545 188.12766 46.248226 186.439715 47.255319 184.93617S49.297872 182.212766 50.361702 181.276596S52.453902 179.432626 53.446809 178.553191S55.255319 176.709221 55.893617 175.659574S56.851064 173.432626 56.851064 172.12766C56.851064 170.624115 56.319149 169.347519 55.255319 168.297872S52.9078 166.723404 51.404255 166.723404C49.078013 166.723404 47.177306 167.858157 45.702128 170.12766Z" fill="#010101" />
<path d="M44.297872 109.87234C44.156029 111.347519 43.801417 112.652481 43.234043 113.787234C42.666668 114.921987 42.070923 115.787234 41.446809 116.382979S40.03546 117.489362 39.085106 117.914894C38.134753 118.340426 37.404255 118.617021 36.893617 118.744681S35.758864 118.992908 35.021277 119.106383C34.907801 119.134752 34.822695 119.148936 34.765957 119.148936V120.0H55.234043V119.148936C52.822694 118.723404 50.992906 118.099289 49.744681 117.276596C47.361702 115.687945 46.014183 113.21986 45.702128 109.87234C47.177306 112.141843 49.078013 113.276596 51.404255 113.276596C52.9078 113.276596 54.191489 112.751774 55.255319 111.702128S56.851064 109.375885 56.851064 107.87234C56.851064 106.595745 56.539007 105.432626 55.914894 104.382979C55.290779 103.333332 54.482268 102.375885 53.489362 101.510638S51.475179 99.744681 50.425532 98.808511C49.375885 97.87234 48.340426 96.645391 47.319149 95.12766S45.517732 91.900711 44.978723 90.0C44.496455 91.87234 43.751774 93.560285 42.744681 95.06383S40.702128 97.787234 39.638298 98.723404S37.546098 100.567374 36.553191 101.446809S34.744681 103.290779 34.106383 104.340426S33.148936 106.567374 33.148936 107.87234C33.148936 109.375885 33.680851 110.652481 34.744681 111.702128S37.0922 113.276596 38.595745 113.276596C40.921987 113.276596 42.822694 112.141843 44.297872 109.87234Z" fill="#010101" />
<path d="M104.297872 39.87234C104.156029 41.347519 103.801417 42.652481 103.234043 43.787234C102.666668 44.921987 102.070923 45.787234 101.446809 46.382979S100.03546 47.489362 99.085106 47.914894C98.134753 48.340426 97.404255 48.617021 96.893617 48.744681S95.758864 48.992908 95.021277 49.106383C94.907801 49.134752 94.822695 49.148936 94.765957 49.148936V50.0H115.234043V49.148936C112.822694 48.723404 110.992906 48.099289 109.744681 47.276596C107.361702 45.687945 106.014183 43.21986 105.702128 39.87234C107.177306 42.141843 109.078013 43.276596 111.404255 43.276596C112.9078 43.276596 114.191489 42.751774 115.255319 41.702128S116.851064 39.375885 116.851064 37.87234C116.851064 36.595745 116.539007 35.432626 115.914894 34.382979C115.290779 33.333332 114.482268 32.375885 113.489362 31.510638S111.475179 29.744681 110.425532 28.808511C109.375885 27.87234 108.340426 26.645391 107.319149 25.12766S105.517732 21.900711 104.978723 20.0C104.496455 21.87234 103.751774 23.560285 102.744681 25.06383S100.702128 27.787234 99.638298 28.723404S97.546098 30.567374 96.553191 31.446809S94.744681 33.290779 94.106383 34.340426S93.148936 36.567374 93.148936 37.87234C93.148936 39.375885 93.680851 40.652481 94.744681 41.702128S97.0922 43.276596 98.595745 43.276596C100.921987 43.276596 102.822694 42.141843 104.297872 39.87234Z" fill="#010101" />
<path d="M105.702128 170.12766C105.843971 168.652481 106.198583 167.347519 106.765957 166.212766C107.333332 165.078013 107.929077 164.212766 108.553191 163.617021S109.96454 162.510638 110.914894 162.085106C111.865247 161.659574 112.595745 161.382979 113.106383 161.255319S114.241136 161.007092 114.978723 160.893617C115.092199 160.865248 115.177305 160.851064 115.234043 160.851064V160.0H94.765957V160.851064C97.177306 161.276596 99.007094 161.900711 100.255319 162.723404C102.638298 164.312055 103.985817 166.78014 104.297872 170.12766C102.822694 167.858157 100.921987 166.723404 98.595745 166.723404C97.0922 166.723404 95.808511 167.248226 94.744681 168.297872S93.148936 170.624115 93.148936 172.12766C93.148936 173.404255 93.460993 174.567374 94.085106 175.617021C94.709221 176.666668 95.517732 177.624115 96.510638 178.489362S98.524821 180.255319 99.574468 181.191489C100.624115 182.12766 101.659574 183.354609 102.680851 184.87234S104.482268 188.099289 105.021277 190.0C105.503545 188.12766 106.248226 186.439715 107.255319 184.93617S109.297872 182.212766 110.361702 181.276596S112.453902 179.432626 113.446809 178.553191S115.255319 176.709221 115.893617 175.659574S116.851064 173.432626 116.851064 172.12766C116.851064 170.624115 116.319149 169.347519 115.255319 168.297872S112.9078 166.723404 111.404255 166.723404C109.078013 166.723404 107.177306 167.858157 105.702128 170.12766Z" fill="#010101" />
<path d="M104.297872 109.87234C104.156029 111.347519 103.801417 112.652481 103.234043 113.787234C102.666668 114.921987 102.070923 115.787234 101.446809 116.382979S100.03546 117.489362 99.085106 117.914894C98.134753 118.340426 97.404255 118.617021 96.893617 118.744681S95.758864 118.992908 95.021277 119.106383C94.907801 119.134752 94.822695 119.148936 94.765957 119.148936V120.0H115.234043V119.148936C112.822694 118.723404 110.992906 118.099289 109.744681 117.276596C107.361702 115.687945 106.014183 113.21986 105.702128 109.87234C107.177306 112.141843 109.078013 113.276596 111.404255 113.276596C112.9078 113.276596 114.191489 112.751774 115.255319 111.702128S116.851064 109.375885 116.851064 107.87234C116.851064 106.595745 116.539007 105.432626 115.914894 104.382979C115.290779 103.333332 114.482268 102.375885 113.489362 101.510638S111.475179 99.744681 110.425532 98.808511C109.375885 97.87234 108.340426 96.645391 107.319149 95.12766S105.517732 91.900711 104.978723 90.0C104.496455 91.87234 103.751774 93.560285 102.744681 95.06383S100.702128 97.787234 99.638298 98.723404S97.546098 100.567374 96.553191 101.446809S94.744681 103.290779 94.106383 104.340426S93.148936 106.567374 93.148936 107.87234C93.148936 109.375885 93.680851 110.652481 94.744681 111.702128S97.0922 113.276596 98.595745 113.276596C100.921987 113.276596 102.822694 112.141843 104.297872 109.87234Z" fill="#010101" />
<path d="M74.297872 74.87234C74.156029 76.347519 73.801417 77.652481 73.234043 78.787234C72.666668 79.921987 72.070923 80.787234 71.446809 81.382979S70.03546 82.489362 69.085106 82.914894C68.134753 83.340426 67.404255 83.617021 66.893617 83.744681S65.758864 83.992908 65.021277 84.106383C64.907801 84.134752 64.822695 84.148936 64.765957 84.148936V85.0H85.234043V84.148936C82.822694 83.723404 80.992906 83.099289 79.744681 82.276596C77.361702 80.687945 76.014183 78.21986 75.702128 74.87234C77.177306 77.141843 79.078013 78.276596 81.404255 78.276596C82.9078 78.276596 84.191489 77.751774 85.255319 76.702128S86.851064 74.375885 86.851064 72.87234C86.851064 71.595745 86.539007 70.432626 85.914894 69.382979C85.290779 68.333332 84.482268 67.375885 83.489362 66.510638S81.475179 64.744681 80.425532 63.808511C79.375885 62.87234 78.340426 61.645391 77.319149 60.12766S75.517732 56.900711 74.978723 55.0C74.496455 56.87234 73.751774 58.560285 72.744681 60.06383S70.702128 62.787234 69.638298 63.723404S67.546098 65.567374 66.553191 66.446809S64.744681 68.290779 64.106383 69.340426S63.148936 71.567374 63.148936 72.87234C63.148936 74.375885 63.680851 75.652481 64.744681 76.702128S67.0922 78.276596 68.595745 78.276596C70.921987 78.276596 72.822694 77.141843 74.297872 74.87234Z" fill="#010101" />
<path d="M141.312731 25.609828Q141.700185 25.164256 141.700185 24.389348Q141.700185 22.684551 139.782288 18.829385T134.76476 9.394883L133.873616 7.806323H140.654059Q141.700185 7.806323 142.223247 7.961304T143.075646 8.697466T143.559963 10.5185Q143.637454 10.828463 143.811808 10.964072T144.451107 11.09968Q145.109779 11.09968 145.109779 10.441009L144.954797 5.907799Q144.954797 5.0554 143.831181 5.0554H132.013838Q130.890221 5.0554 130.890221 5.791562Q130.890221 6.372743 131.74262 7.806323Q133.176199 10.208537 134.396679 13.172559T137.089483 20.204846Q138.29059 23.498204 138.833026 24.815548Q139.414207 26.0554 140.421587 26.0554Q140.925277 26.0554 141.312731 25.609828Z" fill="#010101" />
<path d="M137.631383 42.224645C137.556915 42.999114 137.370744 43.684219 137.072872 44.279965C136.775001 44.87571 136.462235 45.329965 136.134574 45.64273S135.393616 46.223582 134.894681 46.446986C134.395745 46.67039 134.012234 46.815603 133.744149 46.882624S133.148404 47.012943 132.76117 47.072518C132.701596 47.087411 132.656915 47.094858 132.627128 47.094858V47.541667H143.372872V47.094858C142.106914 46.871454 141.146276 46.543794 140.490957 46.111879C139.239894 45.277838 138.532446 43.982093 138.368617 42.224645C139.143086 43.416134 140.140957 44.011879 141.362234 44.011879C142.151595 44.011879 142.825532 43.736348 143.384043 43.185284S144.221809 41.964006 144.221809 41.174645C144.221809 40.504433 144.057979 39.893795 143.730319 39.34273C143.402659 38.791666 142.978191 38.289006 142.456915 37.834752S141.399469 36.907624 140.848404 36.416135C140.29734 35.924645 139.753723 35.280497 139.217553 34.483688S138.271809 32.78954 137.98883 31.791667C137.735639 32.774645 137.344682 33.660816 136.815957 34.450177S135.743617 35.879965 135.185106 36.371454S134.086701 37.339538 133.565426 37.801241S132.615957 38.769325 132.280851 39.32039S131.778191 40.489538 131.778191 41.174645C131.778191 41.964006 132.057447 42.634219 132.615957 43.185284S133.848405 44.011879 134.637766 44.011879C135.859043 44.011879 136.856914 43.416134 137.631383 42.224645Z" fill="#010101" />
<path d="M8.687269 184.390172Q8.299815 184.835744 8.299815 185.610652Q8.299815 187.315449 10.217712 191.170615T15.23524 200.605117L16.126384 202.193677H9.345941Q8.299815 202.193677 7.776753 202.038696T6.924354 201.302534T6.440037 199.4815Q6.362546 199.171537 6.188192 199.035928T5.548893 198.90032Q4.890221 198.90032 4.890221 199.558991L5.045203 204.092201Q5.045203 204.9446 6.168819 204.9446H17.986162Q19.109779 204.9446 19.109779 204.208438Q19.109779 203.627257 18.25738 202.193677Q16.823801 199.791463 15.603321 196.827441T12.910517 189.795154Q11.70941 186.501796 11.166974 185.184452Q10.585793 183.9446 9.578413 183.9446Q9.074723 183.9446 8.687269 184.390172Z" fill="#010101" />
<path d="M12.368617 167.775355C12.443085 167.000886 12.629256 166.315781 12.927128 165.720035C13.224999 165.12429 13.537765 164.670035 13.865426 164.35727S14.606384 163.776418 15.105319 163.553014C15.604255 163.32961 15.987766 163.184397 16.255851 163.117376S16.851596 162.987057 17.23883 162.927482C17.298404 162.912589 17.343085 162.905142 17.372872 162.905142V162.458333H6.627128V162.905142C7.893086 163.128546 8.853724 163.456206 9.509043 163.888121C10.760106 164.722162 11.467554 166.017907 11.631383 167.775355C10.856914 166.583866 9.859043 165.988121 8.637766 165.988121C7.848405 165.988121 7.174468 166.263652 6.615957 166.814716S5.778191 168.035994 5.778191 168.825355C5.778191 169.495567 5.942021 170.106205 6.269681 170.65727C6.597341 171.208334 7.021809 171.710994 7.543085 172.165248S8.600531 173.092376 9.151596 173.583865C9.70266 174.075355 10.246277 174.719503 10.782447 175.516312S11.728191 177.21046 12.01117 178.208333C12.264361 177.225355 12.655318 176.339184 13.184043 175.549823S14.256383 174.120035 14.814894 173.628546S15.913299 172.660462 16.434574 172.198759S17.384043 171.230675 17.719149 170.67961S18.221809 169.510462 18.221809 168.825355C18.221809 168.035994 17.942553 167.365781 17.384043 166.814716S16.151595 165.988121 15.362234 165.988121C14.140957 165.988121 13.143086 166.583866 12.368617 167.775355Z" fill="#010101" />
</svg>
