<svg width="500.000000" height="700.000000" id="card-realdiamond13">
<radialGradient id="card-realwhitegradient" cx="250.0" cy="350.0" r="500" gradientTransform="matrix(1 0 0 1 0 -.25)" gradientUnits="userSpaceOnUse">
<stop stop-color="#FDFAF4" offset=".15"/>
<stop stop-color="#FDF9F2" offset=".35"/>
<stop stop-color="#FCF7F1" offset=".5"/>
<stop stop-color="#FDFDF8" offset=".75"/>
<stop stop-color="#FFFDFA" offset="1"/>
</radialGradient>
<rect x="0" y="0" rx="25.0" ry="25.0" width="500" height="700.0" stroke="rgba(1,1,1,0.333)" fill="url(#card-realwhitegradient)" />
<rect x="100.0" y="70.0" width="300.0" height="560.0" stroke="#010101" fill="#fffdfa" />
<path d="M200.208623 186.325236C197.98331 186.325236 195.201669 186.835202 191.8637 187.855138S184.770515 190.451336 180.598053 192.583928S172.90217 198.193581 170.027816 203.015083S165.716273 213.399867 165.716273 219.70493C165.716273 224.711884 166.597127 229.16251 168.358832 233.056807S172.299499 240.474526 174.895688 243.627044C177.491886 246.779561 180.134437 250.302983 182.823366 254.19728S187.923032 263.70123 190.055633 271.026209S193.439972 287.020646 193.810848 297.034554C194.181733 309.459227 212.91146 315.67155 250.0 315.67155C286.903199 315.67155 305.632823 309.459227 306.189152 297.034554C306.930924 284.053553 308.831711 273.390604 311.891516 265.045681S318.103839 251.044763 321.349096 248.07767S327.561419 241.309019 330.250348 236.672941S334.283727 226.380868 334.283727 219.70493C334.283727 213.214443 332.846545 207.558421 329.972184 202.736919S323.574409 194.438365 319.401947 192.305764S311.4279 188.643261 307.997218 187.716056S301.645814 186.325236 299.235049 186.325236C290.148345 186.325236 281.061669 189.941369 271.974965 197.173636C271.974965 188.457837 271.140473 182.291856 269.471488 178.675722S263.53733 171.026209 256.675939 166.575583V159.899645L268.080668 153.223706V143.209798H257.788595L254.172462 132.639561H245.827538L242.211405 143.209798H231.919332V153.223706L243.324061 159.899645V166.575583C236.46267 170.840757 232.197497 174.966877 230.528512 178.953887S228.025035 189.014165 228.025035 197.173636C225.614278 194.76288 221.766342 192.352134 216.481224 189.941369S205.771905 186.325236 200.208623 186.325236ZM250.0 221.930243C248.887344 219.890373 247.311079 217.294165 245.27121 214.141647S241.886871 208.810159 241.23783 207.604791S239.93973 204.544985 239.290682 202.041508S238.317107 196.617308 238.317107 193.279339C238.317107 182.338226 242.118693 176.867656 249.721836 176.867656C257.695883 176.867656 261.682893 182.338226 261.682893 193.279339C261.682893 196.617308 261.358367 199.538031 260.709318 202.041508S259.411218 206.445764 258.76217 207.743873S256.768659 211.220924 254.72879 214.280729S251.112656 219.890382 250.0 221.930243ZM200.486787 196.339144C209.573491 196.339144 218.938331 201.021564 228.581363 210.386432S243.694937 231.944151 244.993046 246.965013C244.993046 251.415639 228.025035 253.640952 194.089013 253.640952C193.718128 253.270067 191.585535 250.673859 187.691238 245.852357C183.79694 241.030855 180.829847 236.626571 178.789986 232.639561S175.730181 224.897336 175.730181 221.373914C175.730181 213.956195 178.094576 207.929325 182.823366 203.293247S193.439972 196.339144 200.486787 196.339144ZM199.095967 264.767517C204.473797 264.396632 210.268901 263.979386 216.481224 263.515778C222.693547 263.05217 227.05146 262.727647 229.554937 262.542204S234.793686 262.078596 237.760779 261.707711S243.045897 260.965939 244.714882 260.595055S248.145563 259.667842 250.0 258.92607C252.225313 259.853283 254.914242 260.641416 258.066759 261.290465S264.047288 262.35676 266.550765 262.542204S274.014826 263.05217 281.432545 263.515778S295.340751 264.396632 300.904033 264.767517C299.049605 271.814332 297.844228 279.602927 297.2879 288.133302C284.49235 284.053553 268.729624 282.013692 250.0 282.013692C230.899388 282.013692 215.136857 284.053561 202.7121 288.133302C202.155772 278.861174 200.950395 271.072579 199.095967 264.767517ZM299.513213 196.339144C306.189152 196.339144 311.984228 198.657177 316.89847 203.293247S324.269819 213.956195 324.269819 221.373914C324.269819 223.970112 323.528047 226.844485 322.044506 229.997002S319.077413 235.838448 317.59388 238.063761S313.977747 243.163428 311.196106 246.686849C308.414465 250.21027 306.652768 252.528295 305.910987 253.640952C271.974965 253.640952 255.006954 251.415639 255.006954 246.965013C256.305054 231.944151 261.729263 219.7513 271.279555 210.386432S290.241085 196.339144 299.513213 196.339144ZM249.721836 293.140257C275.683811 293.140257 288.664812 295.551013 288.664812 300.372524C288.664812 302.041508 284.214186 303.339617 275.312935 304.266821S257.974047 305.657642 250.0 305.657642C224.223449 305.657642 211.335188 303.895937 211.335188 300.372524C211.335188 295.551021 224.130737 293.140257 249.721836 293.140257Z" fill="#da0a0a" />
<path d="M299.791377 513.674764C302.01669 513.674764 304.798331 513.164798 308.1363 512.144862S315.229485 509.548664 319.401947 507.416072S327.09783 501.806419 329.972184 496.984917S334.283727 486.600133 334.283727 480.29507C334.283727 475.288116 333.402873 470.83749 331.641168 466.943193S327.700501 459.525474 325.104312 456.372956C322.508114 453.220439 319.865563 449.697017 317.176634 445.80272S312.076968 436.29877 309.944367 428.973791S306.560028 412.979354 306.189152 402.965446C305.818267 390.540773 287.08854 384.32845 250.0 384.32845C213.096801 384.32845 194.367177 390.540773 193.810848 402.965446C193.069076 415.946447 191.168289 426.609396 188.108484 434.954319S181.896161 448.955237 178.650904 451.92233S172.438581 458.690981 169.749652 463.327059S165.716273 473.619132 165.716273 480.29507C165.716273 486.785557 167.153455 492.441579 170.027816 497.263081S176.425591 505.561635 180.598053 507.694236S188.5721 511.356739 192.002782 512.283944S198.354186 513.674764 200.764951 513.674764C209.851655 513.674764 218.938331 510.058631 228.025035 502.826364C228.025035 511.542163 228.859527 517.708144 230.528512 521.324278S236.46267 528.973791 243.324061 533.424417V540.100355L231.919332 546.776294V556.790202H242.211405L245.827538 567.360439H254.172462L257.788595 556.790202H268.080668V546.776294L256.675939 540.100355V533.424417C263.53733 529.159243 267.802503 525.033123 269.471488 521.046113S271.974965 510.985835 271.974965 502.826364C274.385722 505.23712 278.233658 507.647866 283.518776 510.058631S294.228095 513.674764 299.791377 513.674764ZM250.0 478.069757C251.112656 480.109627 252.688921 482.705835 254.72879 485.858353S258.113129 491.189841 258.76217 492.395209S260.06027 495.455015 260.709318 497.958492S261.682893 503.382692 261.682893 506.720661C261.682893 517.661774 257.881307 523.132344 250.278164 523.132344C242.304117 523.132344 238.317107 517.661774 238.317107 506.720661C238.317107 503.382692 238.641633 500.461969 239.290682 497.958492S240.588782 493.554236 241.23783 492.256127S243.231341 488.779076 245.27121 485.719271S248.887344 480.109618 250.0 478.069757ZM299.513213 503.660856C290.426509 503.660856 281.061669 498.978436 271.418637 489.613568S256.305063 468.055849 255.006954 453.034987C255.006954 448.584361 271.974965 446.359048 305.910987 446.359048C306.281872 446.729933 308.414465 449.326141 312.308762 454.147643C316.20306 458.969145 319.170153 463.373429 321.210014 467.360439S324.269819 475.102664 324.269819 478.626086C324.269819 486.043805 321.905424 492.070675 317.176634 496.706753S306.560028 503.660856 299.513213 503.660856ZM300.904033 435.232483C295.526203 435.603368 289.731099 436.020614 283.518776 436.484222C277.306453 436.94783 272.94854 437.272353 270.445063 437.457796S265.206314 437.921404 262.239221 438.292289S256.954103 439.034061 255.285118 439.404945S251.854437 440.332158 250.0 441.07393C247.774687 440.146717 245.085758 439.358584 241.933241 438.709535S235.952712 437.64324 233.449235 437.457796S225.985174 436.94783 218.567455 436.484222S204.659249 435.603368 199.095967 435.232483C200.950395 428.185668 202.155772 420.397073 202.7121 411.866698C215.50765 415.946447 231.270376 417.986308 250.0 417.986308C269.100612 417.986308 284.863143 415.946439 297.2879 411.866698C297.844228 421.138826 299.049605 428.927421 300.904033 435.232483ZM200.486787 503.660856C193.810848 503.660856 188.015772 501.342823 183.10153 496.706753S175.730181 486.043805 175.730181 478.626086C175.730181 476.029888 176.471953 473.155515 177.955494 470.002998S180.922587 464.161552 182.40612 461.936239S186.022253 456.836572 188.803894 453.313151C191.585535 449.78973 193.347232 447.471705 194.089013 446.359048C228.025035 446.359048 244.993046 448.584361 244.993046 453.034987C243.694946 468.055849 238.270737 480.2487 228.720445 489.613568S209.758915 503.660856 200.486787 503.660856ZM250.278164 406.859743C224.316189 406.859743 211.335188 404.448987 211.335188 399.627476C211.335188 397.958492 215.785814 396.660383 224.687065 395.733179S242.025953 394.342358 250.0 394.342358C275.776551 394.342358 288.664812 396.104063 288.664812 399.627476C288.664812 404.448979 275.869263 406.859743 250.278164 406.859743Z" fill="#da0a0a" />
<path d="M494.520548 85.093342Q495.0 84.400801 495.0 83.441896Q494.893455 81.843723 494.360731 81.524088T492.336377 81.204454Q489.246575 81.204454 487.754947 80.085732T485.890411 77.315565T485.410959 73.000496V30.70217Q485.517504 28.038548 485.890411 26.387102T487.754947 23.616935T492.336377 22.498213H492.975647Q494.041096 22.498213 494.467275 22.125306T495.0 20.26077Q495.0 19.301866 494.520548 18.609324T493.082192 17.916782Q486.156773 18.236417 480.509893 18.236417Q474.117199 18.236417 467.191781 17.916782Q466.232877 17.916782 465.753425 18.609324T465.273973 20.26077Q465.380518 21.858944 465.913242 22.178578T467.937595 22.498213Q471.027397 22.498213 472.519026 23.616935T474.383562 26.387102T474.863014 30.70217V49.986798Q473.158295 49.667163 471.027397 48.175534T465.806697 44.020283Q459.840183 38.479948 450.783866 27.718913Q448.866058 25.588015 448.866058 24.309476Q448.866058 22.711303 451.74277 22.604758Q452.488584 22.498213 452.754947 22.018761T453.234399 20.367315Q453.234399 19.408411 452.701674 18.662597T451.316591 17.916782Q447.587519 18.236417 439.596651 18.236417Q437.039574 18.236417 432.138508 18.023327L429.901065 17.916782Q428.942161 17.916782 428.409437 18.609324T427.876712 20.367315Q427.983257 21.858944 428.515982 22.231851T430.00761 22.604758Q434.269406 22.391668 438.05175 23.989842T445.989346 29.743266L463.249619 47.749355Q459.520548 52.330785 455.578387 56.486037T446.09589 66.181623Q443.325723 68.95179 439.490107 73.000496Q438.318113 74.17249 437.891933 74.705215Q434.482496 78.114651 432.511416 79.499735T427.663623 81.204454Q427.450533 81.204454 426.704718 81.257726T425.479452 81.843723T425.0 83.441896Q425.0 84.400801 425.479452 85.093342T426.917808 85.785884Q428.196347 85.679339 430.00761 85.679339Q433.843227 85.46625 435.974125 85.46625H442.792998Q456.856925 69.804149 467.937595 57.018761Q471.347032 53.0766 474.863014 52.756965V73.000496Q474.756469 75.664119 474.383562 77.315565T472.519026 80.085732T467.937595 81.204454H467.298326Q466.232877 81.204454 465.806697 81.577361T465.273973 83.441896Q465.273973 84.400801 465.753425 85.093342T467.191781 85.785884Q474.010654 85.46625 480.403349 85.46625Q486.156773 85.46625 493.082192 85.785884Q494.041096 85.785884 494.520548 85.093342Z" fill="#da0a0a" />
<path d="M460.073018 105.972222C458.904729 108.308801 456.081361 112.50734 451.602921 118.567841C447.124481 124.628342 443.522229 129.167657 440.796245 132.185713C444.203758 136.080008 447.866826 140.704514 451.785466 146.059149C455.704105 151.413805 458.46662 155.551499 460.073018 158.472222C463.675241 152.046631 470.05218 143.284461 479.203755 132.185713C469.808738 120.843596 463.43185 112.105741 460.073018 105.972222Z" fill="#da0a0a" />
<path d="M5.479452 614.906658Q5.0 615.599199 5.0 616.558104Q5.106545 618.156277 5.639269 618.475912T7.663623 618.795546Q10.753425 618.795546 12.245053 619.914268T14.109589 622.684435T14.589041 626.999504V669.29783Q14.482496 671.961452 14.109589 673.612898T12.245053 676.383065T7.663623 677.501787H7.024353Q5.958904 677.501787 5.532725 677.874694T5.0 679.73923Q5.0 680.698134 5.479452 681.390676T6.917808 682.083218Q13.843227 681.763583 19.490107 681.763583Q25.882801 681.763583 32.808219 682.083218Q33.767123 682.083218 34.246575 681.390676T34.726027 679.73923Q34.619482 678.141056 34.086758 677.821422T32.062405 677.501787Q28.972603 677.501787 27.480974 676.383065T25.616438 673.612898T25.136986 669.29783V650.013202Q26.841705 650.332837 28.972603 651.824466T34.193303 655.979717Q40.159817 661.520052 49.216134 672.281087Q51.133942 674.411985 51.133942 675.690524Q51.133942 677.288697 48.25723 677.395242Q47.511416 677.501787 47.245053 677.981239T46.765601 679.632685Q46.765601 680.591589 47.298326 681.337403T48.683409 682.083218Q52.412481 681.763583 60.403349 681.763583Q62.960426 681.763583 67.861492 681.976673L70.098935 682.083218Q71.057839 682.083218 71.590563 681.390676T72.123288 679.632685Q72.016743 678.141056 71.484018 677.768149T69.99239 677.395242Q65.730594 677.608332 61.94825 676.010158T54.010654 670.256734L36.750381 652.250645Q40.479452 647.669215 44.421613 643.513963T53.90411 633.818377Q56.674277 631.04821 60.509893 626.999504Q61.681887 625.82751 62.108067 625.294785Q65.517504 621.885349 67.488584 620.500265T72.336377 618.795546Q72.549467 618.795546 73.295282 618.742274T74.520548 618.156277T75.0 616.558104Q75.0 615.599199 74.520548 614.906658T73.082192 614.214116Q71.803653 614.320661 69.99239 614.320661Q66.156773 614.53375 64.025875 614.53375H57.207002Q43.143075 630.195851 32.062405 642.981239Q28.652968 646.9234 25.136986 647.243035V626.999504Q25.243531 624.335881 25.616438 622.684435T27.480974 619.914268T32.062405 618.795546H32.701674Q33.767123 618.795546 34.193303 618.422639T34.726027 616.558104Q34.726027 615.599199 34.246575 614.906658T32.808219 614.214116Q25.989346 614.53375 19.596651 614.53375Q13.843227 614.53375 6.917808 614.214116Q5.958904 614.214116 5.479452 614.906658Z" fill="#da0a0a" />
<path d="M39.926982 594.027778C41.095271 591.691199 43.918639 587.49266 48.397079 581.432159C52.875519 575.371658 56.477771 570.832343 59.203755 567.814287C55.796242 563.919992 52.133174 559.295486 48.214534 553.940851C44.295895 548.586195 41.53338 544.448501 39.926982 541.527778C36.324759 547.953369 29.94782 556.715539 20.796245 567.814287C30.191262 579.156404 36.56815 587.894259 39.926982 594.027778Z" fill="#da0a0a" />
</svg>
