<svg width="150.000000" height="210.000000" id="card-webclub13">
<radialGradient id="card-webwhitegradient" cx="75.0" cy="105.0" r="150" gradientTransform="matrix(1 0 0 1 0 -.25)" gradientUnits="userSpaceOnUse">
<stop stop-color="#FDFAF4" offset=".15"/>
<stop stop-color="#FDF9F2" offset=".35"/>
<stop stop-color="#FCF7F1" offset=".5"/>
<stop stop-color="#FDFDF8" offset=".75"/>
<stop stop-color="#FFFDFA" offset="1"/>
</radialGradient>
<rect x="0" y="0" rx="7.5" ry="7.5" width="150" height="210.0" stroke="rgba(1,1,1,0.333)" fill="url(#card-webwhitegradient)" />
<rect x="30.0" y="21.0" width="90.0" height="168.0" stroke="#010101" fill="#fffdfa" />
<path d="M59.787535 55.688593C59.107649 55.688593 58.25779 55.8444 57.23796 56.156015S55.070822 56.949216 53.796034 57.600774S51.444756 59.314658 50.566572 60.787743S49.249292 63.960545 49.249292 65.886893C49.249292 67.416638 49.518414 68.776412 50.056657 69.966213S51.260626 72.232505 52.053824 73.195675C52.847025 74.158845 53.654388 75.235335 54.475921 76.425137S56.033992 79.328822 56.685552 81.56678S57.71955 86.453466 57.832861 89.512956C57.946175 93.308992 63.668558 95.207007 75.0 95.207007C86.274816 95.207007 91.997167 93.308992 92.167139 89.512956C92.393768 85.546947 92.974504 82.28916 93.909348 79.739585S95.807363 75.461967 96.798867 74.555449S98.696881 72.487463 99.518414 71.071029S100.750708 67.926553 100.750708 65.886893C100.750708 63.903893 100.311614 62.175842 99.433428 60.702757S97.478754 58.167349 96.203966 57.515788S93.767703 56.396805 92.719547 56.113522S90.77904 55.688593 90.042493 55.688593C87.266286 55.688593 84.490088 56.793409 81.713881 59.003041C81.713881 56.340154 81.458924 54.456298 80.949008 53.351483S79.13598 51.014372 77.03966 49.654599V47.614939L80.524079 45.575279V42.515788H77.379603L76.274788 39.286327H73.725212L72.620397 42.515788H69.475921V45.575279L72.96034 47.614939V49.654599C70.86402 50.957712 69.560907 52.218341 69.050992 53.436468S68.286119 56.510126 68.286119 59.003041C67.549575 58.266496 66.373938 57.529956 64.759207 56.793409S61.487252 55.688593 59.787535 55.688593ZM75.0 66.56678C74.660057 65.943551 74.17847 65.150347 73.555241 64.187177S72.521244 62.558279 72.322946 62.190009S71.926345 61.255165 71.728045 60.490293S71.430595 58.833069 71.430595 57.813239C71.430595 54.470466 72.592071 52.799075 74.915014 52.799075C77.351278 52.799075 78.569405 54.470466 78.569405 57.813239C78.569405 58.833069 78.470255 59.72542 78.271955 60.490293S77.875354 61.835899 77.677054 62.232502S77.067988 63.294825 76.444759 64.229669S75.339943 65.943553 75.0 66.56678ZM59.872521 58.748083C62.648728 58.748083 65.509912 60.178675 68.456091 63.039868S73.073652 69.62627 73.470255 74.215505C73.470255 75.575279 68.286119 76.255165 57.917847 76.255165C57.804533 76.141851 57.152975 75.348647 55.963173 73.875562C54.773371 72.402477 53.866853 71.056862 53.243626 69.838735S52.308782 67.473298 52.308782 66.396808C52.308782 64.130517 53.031161 62.289162 54.475921 60.872729S57.71955 58.748083 59.872521 58.748083ZM59.447592 79.654599C61.090649 79.541285 62.861193 79.413806 64.759207 79.272162C66.657221 79.130519 67.988669 79.031369 68.753541 78.974712S70.354105 78.833069 71.260623 78.719754S72.875354 78.493125 73.385269 78.379811S74.433425 78.096525 75.0 77.869896C75.679887 78.153182 76.501419 78.393976 77.464589 78.592276S79.291785 78.918054 80.056657 78.974712S82.337108 79.130519 84.603399 79.272162S88.852691 79.541285 90.552408 79.654599C89.985835 81.80757 89.617564 84.187174 89.447592 86.793409C85.538244 85.546947 80.722351 84.92372 75.0 84.92372C69.164303 84.92372 64.34847 85.54695 60.552408 86.793409C60.382436 83.960551 60.014165 81.580947 59.447592 79.654599ZM90.127479 58.748083C92.167139 58.748083 93.937674 59.456298 95.439093 60.872729S97.691218 64.130517 97.691218 66.396808C97.691218 67.190009 97.464589 68.068199 97.011331 69.031369S96.104813 70.816072 95.651558 71.495958S94.546742 73.054029 93.696884 74.130519C92.847025 75.207009 92.308785 75.915222 92.082153 76.255165C81.713881 76.255165 76.529745 75.575279 76.529745 74.215505C76.926346 69.62627 78.583572 65.90106 81.501416 63.039868S87.29462 58.748083 90.127479 58.748083ZM74.915014 88.323154C82.847023 88.323154 86.813031 89.059698 86.813031 90.532786C86.813031 91.042701 85.453258 91.439304 82.733711 91.722587S77.436263 92.147517 75.0 92.147517C67.124643 92.147517 63.186969 91.609273 63.186969 90.532786C63.186969 89.059701 67.096317 88.323154 74.915014 88.323154Z" fill="#010101" />
<path d="M90.212465 154.311407C90.892351 154.311407 91.74221 154.1556 92.76204 153.843985S94.929178 153.050784 96.203966 152.399226S98.555244 150.685342 99.433428 149.212257S100.750708 146.039455 100.750708 144.113107C100.750708 142.583362 100.481586 141.223588 99.943343 140.033787S98.739374 137.767495 97.946176 136.804325C97.152975 135.841155 96.345612 134.764665 95.524079 133.574863S93.966008 130.671178 93.314448 128.43322S92.28045 123.546534 92.167139 120.487044C92.053825 116.691008 86.331442 114.792993 75.0 114.792993C63.725184 114.792993 58.002833 116.691008 57.832861 120.487044C57.606232 124.453053 57.025496 127.71084 56.090652 130.260415S54.192637 134.538033 53.201133 135.444551S51.303119 137.512537 50.481586 138.928971S49.249292 142.073447 49.249292 144.113107C49.249292 146.096107 49.688386 147.824158 50.566572 149.297243S52.521246 151.832651 53.796034 152.484212S56.232297 153.603195 57.280453 153.886478S59.22096 154.311407 59.957507 154.311407C62.733714 154.311407 65.509912 153.206591 68.286119 150.996959C68.286119 153.659846 68.541076 155.543702 69.050992 156.648517S70.86402 158.985628 72.96034 160.345401V162.385061L69.475921 164.424721V167.484212H72.620397L73.725212 170.713673H76.274788L77.379603 167.484212H80.524079V164.424721L77.03966 162.385061V160.345401C79.13598 159.042288 80.439093 157.781659 80.949008 156.563532S81.713881 153.489874 81.713881 150.996959C82.450425 151.733504 83.626062 152.470044 85.240793 153.206591S88.512748 154.311407 90.212465 154.311407ZM75.0 143.43322C75.339943 144.056449 75.82153 144.849653 76.444759 145.812823S77.478756 147.441721 77.677054 147.809991S78.073655 148.744835 78.271955 149.509707S78.569405 151.166931 78.569405 152.186761C78.569405 155.529534 77.407929 157.200925 75.084986 157.200925C72.648722 157.200925 71.430595 155.529534 71.430595 152.186761C71.430595 151.166931 71.529745 150.27458 71.728045 149.509707S72.124646 148.164101 72.322946 147.767498S72.932012 146.705175 73.555241 145.770331S74.660057 144.056447 75.0 143.43322ZM90.127479 151.251917C87.351272 151.251917 84.490088 149.821325 81.543909 146.960132S76.926348 140.37373 76.529745 135.784495C76.529745 134.424721 81.713881 133.744835 92.082153 133.744835C92.195467 133.858149 92.847025 134.651353 94.036827 136.124438C95.226629 137.597523 96.133147 138.943138 96.756374 140.161265S97.691218 142.526702 97.691218 143.603192C97.691218 145.869483 96.968839 147.710838 95.524079 149.127271S92.28045 151.251917 90.127479 151.251917ZM90.552408 130.345401C88.909351 130.458715 87.138807 130.586194 85.240793 130.727838C83.342779 130.869481 82.011331 130.968631 81.246459 131.025288S79.645895 131.166931 78.739377 131.280246S77.124646 131.506875 76.614731 131.620189S75.566575 131.903475 75.0 132.130104C74.320113 131.846818 73.498581 131.606024 72.535411 131.407724S70.708215 131.081946 69.943343 131.025288S67.662892 130.869481 65.396601 130.727838S61.147309 130.458715 59.447592 130.345401C60.014165 128.19243 60.382436 125.812826 60.552408 123.206591C64.461756 124.453053 69.277649 125.07628 75.0 125.07628C80.835697 125.07628 85.65153 124.45305 89.447592 123.206591C89.617564 126.039449 89.985835 128.419053 90.552408 130.345401ZM59.872521 151.251917C57.832861 151.251917 56.062326 150.543702 54.560907 149.127271S52.308782 145.869483 52.308782 143.603192C52.308782 142.809991 52.535411 141.931801 52.988669 140.968631S53.895187 139.183928 54.348442 138.504042S55.453258 136.945971 56.303116 135.869481C57.152975 134.792991 57.691215 134.084778 57.917847 133.744835C68.286119 133.744835 73.470255 134.424721 73.470255 135.784495C73.073654 140.37373 71.416428 144.09894 68.498584 146.960132S62.70538 151.251917 59.872521 151.251917ZM75.084986 121.676846C67.152977 121.676846 63.186969 120.940302 63.186969 119.467214C63.186969 118.957299 64.546742 118.560696 67.266289 118.277413S72.563737 117.852483 75.0 117.852483C82.875357 117.852483 86.813031 118.390727 86.813031 119.467214C86.813031 120.940299 82.903683 121.676846 75.084986 121.676846Z" fill="#010101" />
<path d="M148.356164 25.528003Q148.5 25.32024 148.5 25.032569Q148.468037 24.553117 148.308219 24.457226T147.700913 24.361336Q146.773973 24.361336 146.326484 24.02572T145.767123 23.194669T145.623288 21.900149V9.210651Q145.655251 8.411564 145.767123 7.916131T146.326484 7.08508T147.700913 6.749464H147.892694Q148.212329 6.749464 148.340183 6.637592T148.5 6.078231Q148.5 5.79056 148.356164 5.582797T147.924658 5.375035Q145.847032 5.470925 144.152968 5.470925Q142.23516 5.470925 140.157534 5.375035Q139.869863 5.375035 139.726027 5.582797T139.582192 6.078231Q139.614155 6.557683 139.773973 6.653574T140.381279 6.749464Q141.308219 6.749464 141.755708 7.08508T142.315068 7.916131T142.458904 9.210651V14.996039Q141.947489 14.900149 141.308219 14.45266T139.742009 13.206085Q137.952055 11.543984 135.23516 8.315674Q134.659817 7.676405 134.659817 7.292843Q134.659817 6.813391 135.522831 6.781427Q135.746575 6.749464 135.826484 6.605628T135.97032 6.110195Q135.97032 5.822523 135.810502 5.598779T135.394977 5.375035Q134.276256 5.470925 131.878995 5.470925Q131.111872 5.470925 129.641553 5.406998L128.97032 5.375035Q128.682648 5.375035 128.522831 5.582797T128.363014 6.110195Q128.394977 6.557683 128.554795 6.669555T129.002283 6.781427Q130.280822 6.7175 131.415525 7.196953T133.796804 8.92298L138.974886 14.324806Q137.856164 15.699236 136.673516 16.945811T133.828767 19.854487Q132.997717 20.685537 131.847032 21.900149Q131.495434 22.251747 131.36758 22.411564Q130.344749 23.434395 129.753425 23.849921T128.299087 24.361336Q128.23516 24.361336 128.011416 24.377318T127.643836 24.553117T127.5 25.032569Q127.5 25.32024 127.643836 25.528003T128.075342 25.735765Q128.458904 25.703802 129.002283 25.703802Q130.152968 25.639875 130.792237 25.639875H132.8379Q137.057078 20.941245 140.381279 17.105628Q141.40411 15.92298 142.458904 15.827089V21.900149Q142.426941 22.699236 142.315068 23.194669T141.755708 24.02572T140.381279 24.361336H140.189498Q139.869863 24.361336 139.742009 24.473208T139.582192 25.032569Q139.582192 25.32024 139.726027 25.528003T140.157534 25.735765Q142.203196 25.639875 144.121005 25.639875Q145.847032 25.639875 147.924658 25.735765Q148.212329 25.735765 148.356164 25.528003Z" fill="#010101" />
<path d="M137.687677 40.994039C137.672805 41.440215 137.654214 41.800874 137.631905 42.076015C137.609596 42.351156 137.553824 42.700661 137.464589 43.124528S137.267528 43.8979 137.141112 44.173041S136.82507 44.756788 136.572238 45.098855S136.021954 45.723501 135.679887 45.946589S134.906515 46.385329 134.385977 46.593543S133.270538 46.965357 132.601275 47.084337V47.530512H143.398725V47.084337C142.729462 46.965357 142.13456 46.798041 141.614023 46.582389S140.658464 46.147368 140.308959 45.92428S139.662004 45.414897 139.416608 45.065392S138.981586 44.407283 138.847734 44.139577S138.606056 43.522367 138.524256 43.091065S138.390404 42.313976 138.368095 42.053706C138.345786 41.793436 138.327196 41.440215 138.312323 40.994039C138.669263 41.648429 138.959278 42.109478 139.182365 42.377184C139.583924 42.88285 140.078436 43.284408 140.665899 43.581858C141.253363 43.879308 141.829675 44.028034 142.39483 44.028034C143.346672 44.028034 144.164659 43.674812 144.848796 42.968366S145.875 41.410471 145.875 40.414011C145.875 39.447298 145.566396 38.621873 144.949186 37.937736S143.584631 36.911532 142.707153 36.911532C142.409703 36.911532 142.13456 36.952431 141.881728 37.03423S141.376062 37.220137 141.123229 37.346553L140.654745 37.580796C141.234773 36.747935 141.524788 35.95969 141.524788 35.216065C141.524788 34.279096 141.179001 33.47598 140.487429 32.806716S138.966713 31.802821 138.0 31.802821S136.204143 32.137453 135.512571 32.806716S134.475212 34.279096 134.475212 35.216065C134.475212 35.95969 134.765227 36.747935 135.345255 37.580796C135.241147 37.536178 135.096139 37.469252 134.910234 37.380017S134.586756 37.223855 134.497521 37.179237S134.293024 37.090002 134.151735 37.045385S133.872875 36.967304 133.739023 36.944995S133.456444 36.911532 133.292847 36.911532C132.415369 36.911532 131.668025 37.253599 131.050814 37.937736S130.125 39.447298 130.125 40.414011C130.125 41.410471 130.467067 42.261921 131.151204 42.968366S132.653328 44.028034 133.60517 44.028034C135.241147 44.028034 136.601976 43.016703 137.687677 40.994039Z" fill="#010101" />
<path d="M1.643836 184.471997Q1.5 184.67976 1.5 184.967431Q1.531963 185.446883 1.691781 185.542774T2.299087 185.638664Q3.226027 185.638664 3.673516 185.97428T4.232877 186.805331T4.376712 188.099851V200.789349Q4.344749 201.588436 4.232877 202.083869T3.673516 202.91492T2.299087 203.250536H2.107306Q1.787671 203.250536 1.659817 203.362408T1.5 203.921769Q1.5 204.20944 1.643836 204.417203T2.075342 204.624965Q4.152968 204.529075 5.847032 204.529075Q7.76484 204.529075 9.842466 204.624965Q10.130137 204.624965 10.273973 204.417203T10.417808 203.921769Q10.385845 203.442317 10.226027 203.346426T9.618721 203.250536Q8.691781 203.250536 8.244292 202.91492T7.684932 202.083869T7.541096 200.789349V195.003961Q8.052511 195.099851 8.691781 195.54734T10.257991 196.793915Q12.047945 198.456016 14.76484 201.684326Q15.340183 202.323595 15.340183 202.707157Q15.340183 203.186609 14.477169 203.218573Q14.253425 203.250536 14.173516 203.394372T14.02968 203.889805Q14.02968 204.177477 14.189498 204.401221T14.605023 204.624965Q15.723744 204.529075 18.121005 204.529075Q18.888128 204.529075 20.358447 204.593002L21.02968 204.624965Q21.317352 204.624965 21.477169 204.417203T21.636986 203.889805Q21.605023 203.442317 21.445205 203.330445T20.997717 203.218573Q19.719178 203.2825 18.584475 202.803047T16.203196 201.07702L11.025114 195.675194Q12.143836 194.300764 13.326484 193.054189T16.171233 190.145513Q17.002283 189.314463 18.152968 188.099851Q18.504566 187.748253 18.63242 187.588436Q19.655251 186.565605 20.246575 186.150079T21.700913 185.638664Q21.76484 185.638664 21.988584 185.622682T22.356164 185.446883T22.5 184.967431Q22.5 184.67976 22.356164 184.471997T21.924658 184.264235Q21.541096 184.296198 20.997717 184.296198Q19.847032 184.360125 19.207763 184.360125H17.1621Q12.942922 189.058755 9.618721 192.894372Q8.59589 194.07702 7.541096 194.172911V188.099851Q7.573059 187.300764 7.684932 186.805331T8.244292 185.97428T9.618721 185.638664H9.810502Q10.130137 185.638664 10.257991 185.526792T10.417808 184.967431Q10.417808 184.67976 10.273973 184.471997T9.842466 184.264235Q7.796804 184.360125 5.878995 184.360125Q4.152968 184.360125 2.075342 184.264235Q1.787671 184.264235 1.643836 184.471997Z" fill="#010101" />
<path d="M12.312323 169.005961C12.327195 168.559785 12.345786 168.199126 12.368095 167.923985C12.390404 167.648844 12.446176 167.299339 12.535411 166.875472S12.732472 166.1021 12.858888 165.826959S13.17493 165.243212 13.427762 164.901145S13.978046 164.276499 14.320113 164.053411S15.093485 163.614671 15.614023 163.406457S16.729462 163.034643 17.398725 162.915663V162.469488H6.601275V162.915663C7.270538 163.034643 7.86544 163.201959 8.385977 163.417611S9.341536 163.852632 9.691041 164.07572S10.337996 164.585103 10.583392 164.934608S11.018414 165.592717 11.152266 165.860423S11.393944 166.477633 11.475744 166.908935S11.609596 167.686024 11.631905 167.946294C11.654214 168.206564 11.672804 168.559785 11.687677 169.005961C11.330737 168.351571 11.040722 167.890522 10.817635 167.622816C10.416076 167.11715 9.921564 166.715592 9.334101 166.418142C8.746637 166.120692 8.170325 165.971966 7.60517 165.971966C6.653328 165.971966 5.835341 166.325188 5.151204 167.031634S4.125 168.589529 4.125 169.585989C4.125 170.552702 4.433604 171.378127 5.050814 172.062264S6.415369 173.088468 7.292847 173.088468C7.590297 173.088468 7.86544 173.047569 8.118272 172.96577S8.623938 172.779863 8.876771 172.653447L9.345255 172.419204C8.765227 173.252065 8.475212 174.04031 8.475212 174.783935C8.475212 175.720904 8.820999 176.52402 9.512571 177.193284S11.033287 178.197179 12.0 178.197179S13.795857 177.862547 14.487429 177.193284S15.524788 175.720904 15.524788 174.783935C15.524788 174.04031 15.234773 173.252065 14.654745 172.419204C14.758853 172.463822 14.903861 172.530748 15.089766 172.619983S15.413244 172.776145 15.502479 172.820763S15.706976 172.909998 15.848265 172.954615S16.127125 173.032696 16.260977 173.055005S16.543556 173.088468 16.707153 173.088468C17.584631 173.088468 18.331975 172.746401 18.949186 172.062264S19.875 170.552702 19.875 169.585989C19.875 168.589529 19.532933 167.738079 18.848796 167.031634S17.346672 165.971966 16.39483 165.971966C14.758853 165.971966 13.398024 166.983297 12.312323 169.005961Z" fill="#010101" />
</svg>
