<svg width="25.000000" height="35.000000" id="card-lightspade8">
<rect x="0" y="0" rx="1.25" ry="1.25" width="25" height="35.0" stroke="rgba(1,1,1,0.333)" fill="#fffdfa" />
<path d="M7.382979 6.64539C7.359338 6.891253 7.300236 7.108747 7.205674 7.297872C7.111111 7.486998 7.011821 7.631206 6.907801 7.730496S6.672577 7.914894 6.514184 7.985816C6.355792 8.056738 6.234043 8.102837 6.148936 8.124113S5.959811 8.165485 5.836879 8.184397C5.817967 8.189125 5.803782 8.191489 5.794326 8.191489V8.333333H9.205674V8.191489C8.803782 8.120567 8.498818 8.016548 8.29078 7.879433C7.893617 7.614657 7.66903 7.20331 7.617021 6.64539C7.862884 7.02364 8.179669 7.212766 8.567376 7.212766C8.817967 7.212766 9.031915 7.125296 9.20922 6.950355S9.475177 6.562648 9.475177 6.312057C9.475177 6.099291 9.423168 5.905438 9.319149 5.730496C9.21513 5.555555 9.080378 5.395981 8.914894 5.251773S8.579196 4.957447 8.404255 4.801418C8.229314 4.64539 8.056738 4.440899 7.886525 4.187943S7.586289 3.650118 7.496454 3.333333C7.416076 3.64539 7.291962 3.926714 7.124113 4.177305S6.783688 4.631206 6.606383 4.787234S6.257683 5.094562 6.092199 5.241135S5.79078 5.548463 5.684397 5.723404S5.524823 6.094562 5.524823 6.312057C5.524823 6.562648 5.613475 6.775413 5.79078 6.950355S6.182033 7.212766 6.432624 7.212766C6.820331 7.212766 7.137116 7.02364 7.382979 6.64539Z" fill="#010101" />
<path d="M7.617021 28.35461C7.640662 28.108747 7.699764 27.891253 7.794326 27.702128C7.888889 27.513002 7.988179 27.368794 8.092199 27.269504S8.327423 27.085106 8.485816 27.014184C8.644208 26.943262 8.765957 26.897163 8.851064 26.875887S9.040189 26.834515 9.163121 26.815603C9.182033 26.810875 9.196218 26.808511 9.205674 26.808511V26.666667H5.794326V26.808511C6.196218 26.879433 6.501182 26.983452 6.70922 27.120567C7.106383 27.385343 7.33097 27.79669 7.382979 28.35461C7.137116 27.97636 6.820331 27.787234 6.432624 27.787234C6.182033 27.787234 5.968085 27.874704 5.79078 28.049645S5.524823 28.437352 5.524823 28.687943C5.524823 28.900709 5.576832 29.094562 5.680851 29.269504C5.78487 29.444445 5.919622 29.604019 6.085106 29.748227S6.420804 30.042553 6.595745 30.198582C6.770686 30.35461 6.943262 30.559101 7.113475 30.812057S7.413711 31.349882 7.503546 31.666667C7.583924 31.35461 7.708038 31.073286 7.875887 30.822695S8.216312 30.368794 8.393617 30.212766S8.742317 29.905438 8.907801 29.758865S9.20922 29.451537 9.315603 29.276596S9.475177 28.905438 9.475177 28.687943C9.475177 28.437352 9.386525 28.224587 9.20922 28.049645S8.817967 27.787234 8.567376 27.787234C8.179669 27.787234 7.862884 27.97636 7.617021 28.35461Z" fill="#010101" />
<path d="M7.382979 14.423168C7.359338 14.669031 7.300236 14.886525 7.205674 15.07565C7.111111 15.264776 7.011821 15.408983 6.907801 15.508274S6.672577 15.692671 6.514184 15.763593C6.355792 15.834515 6.234043 15.880615 6.148936 15.901891S5.959811 15.943262 5.836879 15.962175C5.817967 15.966903 5.803782 15.969267 5.794326 15.969267V16.111111H9.205674V15.969267C8.803782 15.898345 8.498818 15.794326 8.29078 15.65721C7.893617 15.392435 7.66903 14.981088 7.617021 14.423168C7.862884 14.801418 8.179669 14.990544 8.567376 14.990544C8.817967 14.990544 9.031915 14.903074 9.20922 14.728132S9.475177 14.340425 9.475177 14.089835C9.475177 13.877069 9.423168 13.683215 9.319149 13.508274C9.21513 13.333333 9.080378 13.173759 8.914894 13.029551S8.579196 12.735225 8.404255 12.579196C8.229314 12.423168 8.056738 12.218676 7.886525 11.965721S7.586289 11.427896 7.496454 11.111111C7.416076 11.423168 7.291962 11.704492 7.124113 11.955083S6.783688 12.408983 6.606383 12.565012S6.257683 12.87234 6.092199 13.018913S5.79078 13.326241 5.684397 13.501182S5.524823 13.87234 5.524823 14.089835C5.524823 14.340425 5.613475 14.553191 5.79078 14.728132S6.182033 14.990544 6.432624 14.990544C6.820331 14.990544 7.137116 14.801418 7.382979 14.423168Z" fill="#010101" />
<path d="M7.617021 20.576832C7.640662 20.330969 7.699764 20.113475 7.794326 19.92435C7.888889 19.735224 7.988179 19.591017 8.092199 19.491726S8.327423 19.307329 8.485816 19.236407C8.644208 19.165485 8.765957 19.119385 8.851064 19.098109S9.040189 19.056738 9.163121 19.037825C9.182033 19.033097 9.196218 19.030733 9.205674 19.030733V18.888889H5.794326V19.030733C6.196218 19.101655 6.501182 19.205674 6.70922 19.34279C7.106383 19.607565 7.33097 20.018912 7.382979 20.576832C7.137116 20.198582 6.820331 20.009456 6.432624 20.009456C6.182033 20.009456 5.968085 20.096926 5.79078 20.271868S5.524823 20.659575 5.524823 20.910165C5.524823 21.122931 5.576832 21.316785 5.680851 21.491726C5.78487 21.666667 5.919622 21.826241 6.085106 21.970449S6.420804 22.264775 6.595745 22.420804C6.770686 22.576832 6.943262 22.781324 7.113475 23.034279S7.413711 23.572104 7.503546 23.888889C7.583924 23.576832 7.708038 23.295508 7.875887 23.044917S8.216312 22.591017 8.393617 22.434988S8.742317 22.12766 8.907801 21.981087S9.20922 21.673759 9.315603 21.498818S9.475177 21.12766 9.475177 20.910165C9.475177 20.659575 9.386525 20.446809 9.20922 20.271868S8.817967 20.009456 8.567376 20.009456C8.179669 20.009456 7.862884 20.198582 7.617021 20.576832Z" fill="#010101" />
<path d="M17.382979 6.64539C17.359338 6.891253 17.300236 7.108747 17.205674 7.297872C17.111111 7.486998 17.011821 7.631206 16.907801 7.730496S16.672577 7.914894 16.514184 7.985816C16.355792 8.056738 16.234043 8.102837 16.148936 8.124113S15.959811 8.165485 15.836879 8.184397C15.817967 8.189125 15.803782 8.191489 15.794326 8.191489V8.333333H19.205674V8.191489C18.803782 8.120567 18.498818 8.016548 18.29078 7.879433C17.893617 7.614657 17.66903 7.20331 17.617021 6.64539C17.862884 7.02364 18.179669 7.212766 18.567376 7.212766C18.817967 7.212766 19.031915 7.125296 19.20922 6.950355S19.475177 6.562648 19.475177 6.312057C19.475177 6.099291 19.423168 5.905438 19.319149 5.730496C19.21513 5.555555 19.080378 5.395981 18.914894 5.251773S18.579196 4.957447 18.404255 4.801418C18.229314 4.64539 18.056738 4.440899 17.886525 4.187943S17.586289 3.650118 17.496454 3.333333C17.416076 3.64539 17.291962 3.926714 17.124113 4.177305S16.783688 4.631206 16.606383 4.787234S16.257683 5.094562 16.092199 5.241135S15.79078 5.548463 15.684397 5.723404S15.524823 6.094562 15.524823 6.312057C15.524823 6.562648 15.613475 6.775413 15.79078 6.950355S16.182033 7.212766 16.432624 7.212766C16.820331 7.212766 17.137116 7.02364 17.382979 6.64539Z" fill="#010101" />
<path d="M17.617021 28.35461C17.640662 28.108747 17.699764 27.891253 17.794326 27.702128C17.888889 27.513002 17.988179 27.368794 18.092199 27.269504S18.327423 27.085106 18.485816 27.014184C18.644208 26.943262 18.765957 26.897163 18.851064 26.875887S19.040189 26.834515 19.163121 26.815603C19.182033 26.810875 19.196218 26.808511 19.205674 26.808511V26.666667H15.794326V26.808511C16.196218 26.879433 16.501182 26.983452 16.70922 27.120567C17.106383 27.385343 17.33097 27.79669 17.382979 28.35461C17.137116 27.97636 16.820331 27.787234 16.432624 27.787234C16.182033 27.787234 15.968085 27.874704 15.79078 28.049645S15.524823 28.437352 15.524823 28.687943C15.524823 28.900709 15.576832 29.094562 15.680851 29.269504C15.78487 29.444445 15.919622 29.604019 16.085106 29.748227S16.420804 30.042553 16.595745 30.198582C16.770686 30.35461 16.943262 30.559101 17.113475 30.812057S17.413711 31.349882 17.503546 31.666667C17.583924 31.35461 17.708038 31.073286 17.875887 30.822695S18.216312 30.368794 18.393617 30.212766S18.742317 29.905438 18.907801 29.758865S19.20922 29.451537 19.315603 29.276596S19.475177 28.905438 19.475177 28.687943C19.475177 28.437352 19.386525 28.224587 19.20922 28.049645S18.817967 27.787234 18.567376 27.787234C18.179669 27.787234 17.862884 27.97636 17.617021 28.35461Z" fill="#010101" />
<path d="M17.382979 14.423168C17.359338 14.669031 17.300236 14.886525 17.205674 15.07565C17.111111 15.264776 17.011821 15.408983 16.907801 15.508274S16.672577 15.692671 16.514184 15.763593C16.355792 15.834515 16.234043 15.880615 16.148936 15.901891S15.959811 15.943262 15.836879 15.962175C15.817967 15.966903 15.803782 15.969267 15.794326 15.969267V16.111111H19.205674V15.969267C18.803782 15.898345 18.498818 15.794326 18.29078 15.65721C17.893617 15.392435 17.66903 14.981088 17.617021 14.423168C17.862884 14.801418 18.179669 14.990544 18.567376 14.990544C18.817967 14.990544 19.031915 14.903074 19.20922 14.728132S19.475177 14.340425 19.475177 14.089835C19.475177 13.877069 19.423168 13.683215 19.319149 13.508274C19.21513 13.333333 19.080378 13.173759 18.914894 13.029551S18.579196 12.735225 18.404255 12.579196C18.229314 12.423168 18.056738 12.218676 17.886525 11.965721S17.586289 11.427896 17.496454 11.111111C17.416076 11.423168 17.291962 11.704492 17.124113 11.955083S16.783688 12.408983 16.606383 12.565012S16.257683 12.87234 16.092199 13.018913S15.79078 13.326241 15.684397 13.501182S15.524823 13.87234 15.524823 14.089835C15.524823 14.340425 15.613475 14.553191 15.79078 14.728132S16.182033 14.990544 16.432624 14.990544C16.820331 14.990544 17.137116 14.801418 17.382979 14.423168Z" fill="#010101" />
<path d="M17.617021 20.576832C17.640662 20.330969 17.699764 20.113475 17.794326 19.92435C17.888889 19.735224 17.988179 19.591017 18.092199 19.491726S18.327423 19.307329 18.485816 19.236407C18.644208 19.165485 18.765957 19.119385 18.851064 19.098109S19.040189 19.056738 19.163121 19.037825C19.182033 19.033097 19.196218 19.030733 19.205674 19.030733V18.888889H15.794326V19.030733C16.196218 19.101655 16.501182 19.205674 16.70922 19.34279C17.106383 19.607565 17.33097 20.018912 17.382979 20.576832C17.137116 20.198582 16.820331 20.009456 16.432624 20.009456C16.182033 20.009456 15.968085 20.096926 15.79078 20.271868S15.524823 20.659575 15.524823 20.910165C15.524823 21.122931 15.576832 21.316785 15.680851 21.491726C15.78487 21.666667 15.919622 21.826241 16.085106 21.970449S16.420804 22.264775 16.595745 22.420804C16.770686 22.576832 16.943262 22.781324 17.113475 23.034279S17.413711 23.572104 17.503546 23.888889C17.583924 23.576832 17.708038 23.295508 17.875887 23.044917S18.216312 22.591017 18.393617 22.434988S18.742317 22.12766 18.907801 21.981087S19.20922 21.673759 19.315603 21.498818S19.475177 21.12766 19.475177 20.910165C19.475177 20.659575 19.386525 20.446809 19.20922 20.271868S18.817967 20.009456 18.567376 20.009456C18.179669 20.009456 17.862884 20.198582 17.617021 20.576832Z" fill="#010101" />
<path d="M23.696818 4.221658Q23.98 4.100748 24.132727 3.890748T24.285455 3.413476Q24.285455 3.133476 24.097727 2.926658T23.540909 2.560748Q23.846364 2.376203 23.989545 2.185294T24.132727 1.752567Q24.132727 1.504385 23.967273 1.294385T23.528182 0.963476T22.942727 0.842567Q22.624545 0.842567 22.376364 0.957112T21.988182 1.26893T21.848182 1.714385Q21.848182 1.943476 22.007273 2.14393T22.484545 2.503476Q22.064545 2.681658 21.889545 2.87893T21.714545 3.381658Q21.714545 3.642567 21.883182 3.862112T22.354091 4.212112T23.044545 4.342567Q23.413636 4.342567 23.696818 4.221658ZM22.436818 2.086658Q22.344545 1.905294 22.344545 1.708021Q22.344545 1.434385 22.51 1.246658T22.974545 1.05893Q23.260909 1.05893 23.432727 1.224385T23.604545 1.644385Q23.604545 1.879839 23.372273 2.042112T22.700909 2.38893Q22.529091 2.268021 22.436818 2.086658ZM22.478182 3.954385Q22.287273 3.776203 22.287273 3.496203Q22.287273 3.311658 22.405 3.174839T22.710455 2.939385T23.299091 2.662567Q23.496364 2.796203 23.604545 2.980748T23.712727 3.388021Q23.712727 3.71893 23.512273 3.925748T22.987273 4.132567Q22.669091 4.132567 22.478182 3.954385Z" fill="#010101" />
<path d="M22.938564 7.037441C22.926152 7.166519 22.895124 7.280703 22.845479 7.379994C22.795833 7.479285 22.743706 7.554994 22.689096 7.607122S22.565603 7.70393 22.482447 7.741164C22.399291 7.778398 22.335372 7.8026 22.290691 7.813771S22.191401 7.835491 22.126862 7.84542C22.116933 7.847902 22.109486 7.849143 22.104521 7.849143V7.923611H23.895479V7.849143C23.684486 7.811909 23.524379 7.757299 23.41516 7.685313C23.206649 7.546306 23.088741 7.330349 23.061436 7.037441C23.190514 7.236022 23.356826 7.335313 23.560372 7.335313C23.691933 7.335313 23.804255 7.289391 23.89734 7.197547S24.036968 6.994001 24.036968 6.862441C24.036968 6.750739 24.009663 6.648966 23.955053 6.557122C23.900443 6.465278 23.829698 6.381501 23.742819 6.305792S23.566578 6.151271 23.474734 6.069356C23.38289 5.987441 23.292287 5.880083 23.202926 5.747281S23.045302 5.464923 22.998138 5.298611C22.95594 5.462441 22.89078 5.610136 22.80266 5.741696S22.623936 5.979994 22.530851 6.061909S22.347784 6.223256 22.260904 6.300207S22.10266 6.461554 22.046809 6.553398S21.963032 6.748256 21.963032 6.862441C21.963032 6.994001 22.009574 7.105703 22.10266 7.197547S22.308067 7.335313 22.439628 7.335313C22.643174 7.335313 22.809486 7.236022 22.938564 7.037441Z" fill="#010101" />
<path d="M1.303182 30.778342Q1.02 30.899252 0.867273 31.109252T0.714545 31.586524Q0.714545 31.866524 0.902273 32.073342T1.459091 32.439252Q1.153636 32.623797 1.010455 32.814706T0.867273 33.247433Q0.867273 33.495615 1.032727 33.705615T1.471818 34.036524T2.057273 34.157433Q2.375455 34.157433 2.623636 34.042888T3.011818 33.73107T3.151818 33.285615Q3.151818 33.056524 2.992727 32.85607T2.515455 32.496524Q2.935455 32.318342 3.110455 32.12107T3.285455 31.618342Q3.285455 31.357433 3.116818 31.137888T2.645909 30.787888T1.955455 30.657433Q1.586364 30.657433 1.303182 30.778342ZM2.563182 32.913342Q2.655455 33.094706 2.655455 33.291979Q2.655455 33.565615 2.49 33.753342T2.025455 33.94107Q1.739091 33.94107 1.567273 33.775615T1.395455 33.355615Q1.395455 33.120161 1.627727 32.957888T2.299091 32.61107Q2.470909 32.731979 2.563182 32.913342ZM2.521818 31.045615Q2.712727 31.223797 2.712727 31.503797Q2.712727 31.688342 2.595 31.825161T2.289545 32.060615T1.700909 32.337433Q1.503636 32.203797 1.395455 32.019252T1.287273 31.611979Q1.287273 31.28107 1.487727 31.074252T2.012727 30.867433Q2.330909 30.867433 2.521818 31.045615Z" fill="#010101" />
<path d="M2.061436 27.962559C2.073848 27.833481 2.104876 27.719297 2.154521 27.620006C2.204167 27.520715 2.256294 27.445006 2.310904 27.392878S2.434397 27.29607 2.517553 27.258836C2.600709 27.221602 2.664628 27.1974 2.709309 27.186229S2.808599 27.164509 2.873138 27.15458C2.883067 27.152098 2.890514 27.150857 2.895479 27.150857V27.076389H1.104521V27.150857C1.315514 27.188091 1.475621 27.242701 1.58484 27.314687C1.793351 27.453694 1.911259 27.669651 1.938564 27.962559C1.809486 27.763978 1.643174 27.664687 1.439628 27.664687C1.308067 27.664687 1.195745 27.710609 1.10266 27.802453S0.963032 28.005999 0.963032 28.137559C0.963032 28.249261 0.990337 28.351034 1.044947 28.442878C1.099557 28.534722 1.170302 28.618499 1.257181 28.694208S1.433422 28.848729 1.525266 28.930644C1.61711 29.012559 1.707713 29.119917 1.797074 29.252719S1.954698 29.535077 2.001862 29.701389C2.04406 29.537559 2.10922 29.389864 2.19734 29.258304S2.376064 29.020006 2.469149 28.938091S2.652216 28.776744 2.739096 28.699793S2.89734 28.538446 2.953191 28.446602S3.036968 28.251744 3.036968 28.137559C3.036968 28.005999 2.990426 27.894297 2.89734 27.802453S2.691933 27.664687 2.560372 27.664687C2.356826 27.664687 2.190514 27.763978 2.061436 27.962559Z" fill="#010101" />
</svg>
