<svg width="150.000000" height="210.000000" id="card-webclub10">
<radialGradient id="card-webwhitegradient" cx="75.0" cy="105.0" r="150" gradientTransform="matrix(1 0 0 1 0 -.25)" gradientUnits="userSpaceOnUse">
<stop stop-color="#FDFAF4" offset=".15"/>
<stop stop-color="#FDF9F2" offset=".35"/>
<stop stop-color="#FCF7F1" offset=".5"/>
<stop stop-color="#FDFDF8" offset=".75"/>
<stop stop-color="#FFFDFA" offset="1"/>
</radialGradient>
<rect x="0" y="0" rx="7.5" ry="7.5" width="150" height="210.0" stroke="rgba(1,1,1,0.333)" fill="url(#card-webwhitegradient)" />
<path d="M44.405099 37.528329C44.376771 38.378187 44.34136 39.065157 44.298867 39.589235C44.256374 40.113313 44.150142 40.779037 43.98017 41.586402S43.604816 43.059492 43.364023 43.583569S42.762038 44.695469 42.280453 45.347025S41.232293 46.536827 40.580737 46.961756S39.107647 47.797452 38.116147 48.194051S35.991501 48.902268 34.716714 49.128895V49.978754H55.283286V49.128895C54.008499 48.902266 52.875353 48.583571 51.883853 48.172805S50.063741 47.344193 49.398017 46.919263S48.165722 45.94901 47.6983 45.283286S46.869688 44.029745 46.614731 43.51983S46.154392 42.344191 45.998584 41.522663S45.743626 40.042494 45.701133 39.546742C45.65864 39.05099 45.62323 38.378187 45.594901 37.528329C46.274788 38.774786 46.827195 39.652975 47.252125 40.16289C48.016997 41.126064 48.958925 41.890936 50.077904 42.457507C51.196882 43.024078 52.294619 43.307365 53.371105 43.307365C55.184137 43.307365 56.742208 42.634562 58.045326 41.288952S60.0 38.321531 60.0 36.423513C60.0 34.582154 59.412183 33.009916 58.236544 31.706799S55.637392 29.752125 53.966006 29.752125C53.399435 29.752125 52.875353 29.830028 52.393768 29.985836S51.430593 30.339943 50.949008 30.580737L50.056657 31.026912C51.161473 29.440511 51.713881 27.939092 51.713881 26.522663C51.713881 24.73796 51.055241 23.208215 49.73796 21.933428S46.841358 20.021246 45.0 20.021246S41.57932 20.65864 40.26204 21.933428S38.286119 24.73796 38.286119 26.522663C38.286119 27.939092 38.838527 29.440511 39.943343 31.026912C39.745042 30.941926 39.468837 30.814448 39.114731 30.644476S38.498584 30.347025 38.328612 30.26204S37.939093 30.092068 37.669972 30.007082S37.13881 29.858357 36.883853 29.815864S36.345608 29.752125 36.033994 29.752125C34.362608 29.752125 32.939095 30.403681 31.763456 31.706799S30.0 34.582154 30.0 36.423513C30.0 38.321531 30.651557 39.943341 31.954674 41.288952S34.815863 43.307365 36.628895 43.307365C39.745041 43.307365 42.337096 41.381021 44.405099 37.528329Z" fill="#010101" />
<path d="M45.594901 172.471671C45.623229 171.621813 45.65864 170.934843 45.701133 170.410765C45.743626 169.886687 45.849858 169.220963 46.01983 168.413598S46.395184 166.940508 46.635977 166.416431S47.237962 165.304531 47.719547 164.652975S48.767707 163.463173 49.419263 163.038244S50.892353 162.202548 51.883853 161.805949S54.008499 161.097732 55.283286 160.871105V160.021246H34.716714V160.871105C35.991501 161.097734 37.124647 161.416429 38.116147 161.827195S39.936259 162.655807 40.601983 163.080737S41.834278 164.05099 42.3017 164.716714S43.130312 165.970255 43.385269 166.48017S43.845608 167.655809 44.001416 168.477337S44.256374 169.957506 44.298867 170.453258C44.34136 170.94901 44.37677 171.621813 44.405099 172.471671C43.725212 171.225214 43.172805 170.347025 42.747875 169.83711C41.983003 168.873936 41.041075 168.109064 39.922096 167.542493C38.803118 166.975922 37.705381 166.692635 36.628895 166.692635C34.815863 166.692635 33.257792 167.365438 31.954674 168.711048S30.0 171.678469 30.0 173.576487C30.0 175.417846 30.587817 176.990084 31.763456 178.293201S34.362608 180.247875 36.033994 180.247875C36.600565 180.247875 37.124647 180.169972 37.606232 180.014164S38.569407 179.660057 39.050992 179.419263L39.943343 178.973088C38.838527 180.559489 38.286119 182.060908 38.286119 183.477337C38.286119 185.26204 38.944759 186.791785 40.26204 188.066572S43.158642 189.978754 45.0 189.978754S48.42068 189.34136 49.73796 188.066572S51.713881 185.26204 51.713881 183.477337C51.713881 182.060908 51.161473 180.559489 50.056657 178.973088C50.254958 179.058074 50.531163 179.185552 50.885269 179.355524S51.501416 179.652975 51.671388 179.73796S52.060907 179.907932 52.330028 179.992918S52.86119 180.141643 53.116147 180.184136S53.654392 180.247875 53.966006 180.247875C55.637392 180.247875 57.060905 179.596319 58.236544 178.293201S60.0 175.417846 60.0 173.576487C60.0 171.678469 59.348443 170.056659 58.045326 168.711048S55.184137 166.692635 53.371105 166.692635C50.254959 166.692635 47.662904 168.618979 45.594901 172.471671Z" fill="#010101" />
<path d="M44.405099 84.194995C44.376771 85.044854 44.34136 85.731824 44.298867 86.255902C44.256374 86.77998 44.150142 87.445703 43.98017 88.253069S43.604816 89.726158 43.364023 90.250236S42.762038 91.362136 42.280453 92.013692S41.232293 93.203494 40.580737 93.628423S39.107647 94.464119 38.116147 94.860718S35.991501 95.568934 34.716714 95.795562V96.64542H55.283286V95.795562C54.008499 95.568933 52.875353 95.250237 51.883853 94.839471S50.063741 94.010859 49.398017 93.58593S48.165722 92.615677 47.6983 91.949953S46.869688 90.696412 46.614731 90.186497S46.154392 89.010858 45.998584 88.18933S45.743626 86.709161 45.701133 86.213409C45.65864 85.717657 45.62323 85.044854 45.594901 84.194995C46.274788 85.441453 46.827195 86.319641 47.252125 86.829556C48.016997 87.79273 48.958925 88.557603 50.077904 89.124174C51.196882 89.690745 52.294619 89.974032 53.371105 89.974032C55.184137 89.974032 56.742208 89.301229 58.045326 87.955619S60.0 84.988198 60.0 83.090179C60.0 81.248821 59.412183 79.676583 58.236544 78.373466S55.637392 76.418791 53.966006 76.418791C53.399435 76.418791 52.875353 76.496695 52.393768 76.652502S51.430593 77.00661 50.949008 77.247403L50.056657 77.693579C51.161473 76.107178 51.713881 74.605759 51.713881 73.18933C51.713881 71.404627 51.055241 69.874882 49.73796 68.600094S46.841358 66.687913 45.0 66.687913S41.57932 67.325307 40.26204 68.600094S38.286119 71.404627 38.286119 73.18933C38.286119 74.605759 38.838527 76.107178 39.943343 77.693579C39.745042 77.608593 39.468837 77.481114 39.114731 77.311143S38.498584 77.013692 38.328612 76.928706S37.939093 76.758735 37.669972 76.673749S37.13881 76.525024 36.883853 76.482531S36.345608 76.418791 36.033994 76.418791C34.362608 76.418791 32.939095 77.070348 31.763456 78.373466S30.0 81.248821 30.0 83.090179C30.0 84.988198 30.651557 86.610008 31.954674 87.955619S34.815863 89.974032 36.628895 89.974032C39.745041 89.974032 42.337096 88.047688 44.405099 84.194995Z" fill="#010101" />
<path d="M45.594901 125.805005C45.623229 124.955146 45.65864 124.268176 45.701133 123.744098C45.743626 123.22002 45.849858 122.554297 46.01983 121.746931S46.395184 120.273842 46.635977 119.749764S47.237962 118.637864 47.719547 117.986308S48.767707 116.796506 49.419263 116.371577S50.892353 115.535881 51.883853 115.139282S54.008499 114.431066 55.283286 114.204438V113.35458H34.716714V114.204438C35.991501 114.431067 37.124647 114.749763 38.116147 115.160529S39.936259 115.989141 40.601983 116.41407S41.834278 117.384323 42.3017 118.050047S43.130312 119.303588 43.385269 119.813503S43.845608 120.989142 44.001416 121.81067S44.256374 123.290839 44.298867 123.786591C44.34136 124.282343 44.37677 124.955146 44.405099 125.805005C43.725212 124.558547 43.172805 123.680359 42.747875 123.170444C41.983003 122.20727 41.041075 121.442397 39.922096 120.875826C38.803118 120.309255 37.705381 120.025968 36.628895 120.025968C34.815863 120.025968 33.257792 120.698771 31.954674 122.044381S30.0 125.011802 30.0 126.909821C30.0 128.751179 30.587817 130.323417 31.763456 131.626534S34.362608 133.581209 36.033994 133.581209C36.600565 133.581209 37.124647 133.503305 37.606232 133.347498S38.569407 132.99339 39.050992 132.752597L39.943343 132.306421C38.838527 133.892822 38.286119 135.394241 38.286119 136.81067C38.286119 138.595373 38.944759 140.125118 40.26204 141.399906S43.158642 143.312087 45.0 143.312087S48.42068 142.674693 49.73796 141.399906S51.713881 138.595373 51.713881 136.81067C51.713881 135.394241 51.161473 133.892822 50.056657 132.306421C50.254958 132.391407 50.531163 132.518886 50.885269 132.688857S51.501416 132.986308 51.671388 133.071294S52.060907 133.241265 52.330028 133.326251S52.86119 133.474976 53.116147 133.517469S53.654392 133.581209 53.966006 133.581209C55.637392 133.581209 57.060905 132.929652 58.236544 131.626534S60.0 128.751179 60.0 126.909821C60.0 125.011802 59.348443 123.389992 58.045326 122.044381S55.184137 120.025968 53.371105 120.025968C50.254959 120.025968 47.662904 121.952312 45.594901 125.805005Z" fill="#010101" />
<path d="M104.405099 37.528329C104.376771 38.378187 104.34136 39.065157 104.298867 39.589235C104.256374 40.113313 104.150142 40.779037 103.98017 41.586402S103.604816 43.059492 103.364023 43.583569S102.762038 44.695469 102.280453 45.347025S101.232293 46.536827 100.580737 46.961756S99.107647 47.797452 98.116147 48.194051S95.991501 48.902268 94.716714 49.128895V49.978754H115.283286V49.128895C114.008499 48.902266 112.875353 48.583571 111.883853 48.172805S110.063741 47.344193 109.398017 46.919263S108.165722 45.94901 107.6983 45.283286S106.869688 44.029745 106.614731 43.51983S106.154392 42.344191 105.998584 41.522663S105.743626 40.042494 105.701133 39.546742C105.65864 39.05099 105.62323 38.378187 105.594901 37.528329C106.274788 38.774786 106.827195 39.652975 107.252125 40.16289C108.016997 41.126064 108.958925 41.890936 110.077904 42.457507C111.196882 43.024078 112.294619 43.307365 113.371105 43.307365C115.184137 43.307365 116.742208 42.634562 118.045326 41.288952S120.0 38.321531 120.0 36.423513C120.0 34.582154 119.412183 33.009916 118.236544 31.706799S115.637392 29.752125 113.966006 29.752125C113.399435 29.752125 112.875353 29.830028 112.393768 29.985836S111.430593 30.339943 110.949008 30.580737L110.056657 31.026912C111.161473 29.440511 111.713881 27.939092 111.713881 26.522663C111.713881 24.73796 111.055241 23.208215 109.73796 21.933428S106.841358 20.021246 105.0 20.021246S101.57932 20.65864 100.26204 21.933428S98.286119 24.73796 98.286119 26.522663C98.286119 27.939092 98.838527 29.440511 99.943343 31.026912C99.745042 30.941926 99.468837 30.814448 99.114731 30.644476S98.498584 30.347025 98.328612 30.26204S97.939093 30.092068 97.669972 30.007082S97.13881 29.858357 96.883853 29.815864S96.345608 29.752125 96.033994 29.752125C94.362608 29.752125 92.939095 30.403681 91.763456 31.706799S90.0 34.582154 90.0 36.423513C90.0 38.321531 90.651557 39.943341 91.954674 41.288952S94.815863 43.307365 96.628895 43.307365C99.745041 43.307365 102.337096 41.381021 104.405099 37.528329Z" fill="#010101" />
<path d="M105.594901 172.471671C105.623229 171.621813 105.65864 170.934843 105.701133 170.410765C105.743626 169.886687 105.849858 169.220963 106.01983 168.413598S106.395184 166.940508 106.635977 166.416431S107.237962 165.304531 107.719547 164.652975S108.767707 163.463173 109.419263 163.038244S110.892353 162.202548 111.883853 161.805949S114.008499 161.097732 115.283286 160.871105V160.021246H94.716714V160.871105C95.991501 161.097734 97.124647 161.416429 98.116147 161.827195S99.936259 162.655807 100.601983 163.080737S101.834278 164.05099 102.3017 164.716714S103.130312 165.970255 103.385269 166.48017S103.845608 167.655809 104.001416 168.477337S104.256374 169.957506 104.298867 170.453258C104.34136 170.94901 104.37677 171.621813 104.405099 172.471671C103.725212 171.225214 103.172805 170.347025 102.747875 169.83711C101.983003 168.873936 101.041075 168.109064 99.922096 167.542493C98.803118 166.975922 97.705381 166.692635 96.628895 166.692635C94.815863 166.692635 93.257792 167.365438 91.954674 168.711048S90.0 171.678469 90.0 173.576487C90.0 175.417846 90.587817 176.990084 91.763456 178.293201S94.362608 180.247875 96.033994 180.247875C96.600565 180.247875 97.124647 180.169972 97.606232 180.014164S98.569407 179.660057 99.050992 179.419263L99.943343 178.973088C98.838527 180.559489 98.286119 182.060908 98.286119 183.477337C98.286119 185.26204 98.944759 186.791785 100.26204 188.066572S103.158642 189.978754 105.0 189.978754S108.42068 189.34136 109.73796 188.066572S111.713881 185.26204 111.713881 183.477337C111.713881 182.060908 111.161473 180.559489 110.056657 178.973088C110.254958 179.058074 110.531163 179.185552 110.885269 179.355524S111.501416 179.652975 111.671388 179.73796S112.060907 179.907932 112.330028 179.992918S112.86119 180.141643 113.116147 180.184136S113.654392 180.247875 113.966006 180.247875C115.637392 180.247875 117.060905 179.596319 118.236544 178.293201S120.0 175.417846 120.0 173.576487C120.0 171.678469 119.348443 170.056659 118.045326 168.711048S115.184137 166.692635 113.371105 166.692635C110.254959 166.692635 107.662904 168.618979 105.594901 172.471671Z" fill="#010101" />
<path d="M104.405099 84.194995C104.376771 85.044854 104.34136 85.731824 104.298867 86.255902C104.256374 86.77998 104.150142 87.445703 103.98017 88.253069S103.604816 89.726158 103.364023 90.250236S102.762038 91.362136 102.280453 92.013692S101.232293 93.203494 100.580737 93.628423S99.107647 94.464119 98.116147 94.860718S95.991501 95.568934 94.716714 95.795562V96.64542H115.283286V95.795562C114.008499 95.568933 112.875353 95.250237 111.883853 94.839471S110.063741 94.010859 109.398017 93.58593S108.165722 92.615677 107.6983 91.949953S106.869688 90.696412 106.614731 90.186497S106.154392 89.010858 105.998584 88.18933S105.743626 86.709161 105.701133 86.213409C105.65864 85.717657 105.62323 85.044854 105.594901 84.194995C106.274788 85.441453 106.827195 86.319641 107.252125 86.829556C108.016997 87.79273 108.958925 88.557603 110.077904 89.124174C111.196882 89.690745 112.294619 89.974032 113.371105 89.974032C115.184137 89.974032 116.742208 89.301229 118.045326 87.955619S120.0 84.988198 120.0 83.090179C120.0 81.248821 119.412183 79.676583 118.236544 78.373466S115.637392 76.418791 113.966006 76.418791C113.399435 76.418791 112.875353 76.496695 112.393768 76.652502S111.430593 77.00661 110.949008 77.247403L110.056657 77.693579C111.161473 76.107178 111.713881 74.605759 111.713881 73.18933C111.713881 71.404627 111.055241 69.874882 109.73796 68.600094S106.841358 66.687913 105.0 66.687913S101.57932 67.325307 100.26204 68.600094S98.286119 71.404627 98.286119 73.18933C98.286119 74.605759 98.838527 76.107178 99.943343 77.693579C99.745042 77.608593 99.468837 77.481114 99.114731 77.311143S98.498584 77.013692 98.328612 76.928706S97.939093 76.758735 97.669972 76.673749S97.13881 76.525024 96.883853 76.482531S96.345608 76.418791 96.033994 76.418791C94.362608 76.418791 92.939095 77.070348 91.763456 78.373466S90.0 81.248821 90.0 83.090179C90.0 84.988198 90.651557 86.610008 91.954674 87.955619S94.815863 89.974032 96.628895 89.974032C99.745041 89.974032 102.337096 88.047688 104.405099 84.194995Z" fill="#010101" />
<path d="M105.594901 125.805005C105.623229 124.955146 105.65864 124.268176 105.701133 123.744098C105.743626 123.22002 105.849858 122.554297 106.01983 121.746931S106.395184 120.273842 106.635977 119.749764S107.237962 118.637864 107.719547 117.986308S108.767707 116.796506 109.419263 116.371577S110.892353 115.535881 111.883853 115.139282S114.008499 114.431066 115.283286 114.204438V113.35458H94.716714V114.204438C95.991501 114.431067 97.124647 114.749763 98.116147 115.160529S99.936259 115.989141 100.601983 116.41407S101.834278 117.384323 102.3017 118.050047S103.130312 119.303588 103.385269 119.813503S103.845608 120.989142 104.001416 121.81067S104.256374 123.290839 104.298867 123.786591C104.34136 124.282343 104.37677 124.955146 104.405099 125.805005C103.725212 124.558547 103.172805 123.680359 102.747875 123.170444C101.983003 122.20727 101.041075 121.442397 99.922096 120.875826C98.803118 120.309255 97.705381 120.025968 96.628895 120.025968C94.815863 120.025968 93.257792 120.698771 91.954674 122.044381S90.0 125.011802 90.0 126.909821C90.0 128.751179 90.587817 130.323417 91.763456 131.626534S94.362608 133.581209 96.033994 133.581209C96.600565 133.581209 97.124647 133.503305 97.606232 133.347498S98.569407 132.99339 99.050992 132.752597L99.943343 132.306421C98.838527 133.892822 98.286119 135.394241 98.286119 136.81067C98.286119 138.595373 98.944759 140.125118 100.26204 141.399906S103.158642 143.312087 105.0 143.312087S108.42068 142.674693 109.73796 141.399906S111.713881 138.595373 111.713881 136.81067C111.713881 135.394241 111.161473 133.892822 110.056657 132.306421C110.254958 132.391407 110.531163 132.518886 110.885269 132.688857S111.501416 132.986308 111.671388 133.071294S112.060907 133.241265 112.330028 133.326251S112.86119 133.474976 113.116147 133.517469S113.654392 133.581209 113.966006 133.581209C115.637392 133.581209 117.060905 132.929652 118.236544 131.626534S120.0 128.751179 120.0 126.909821C120.0 125.011802 119.348443 123.389992 118.045326 122.044381S115.184137 120.025968 113.371105 120.025968C110.254959 120.025968 107.662904 121.952312 105.594901 125.805005Z" fill="#010101" />
<path d="M74.405099 60.861662C74.376771 61.71152 74.34136 62.398491 74.298867 62.922568C74.256374 63.446646 74.150142 64.11237 73.98017 64.919736S73.604816 66.392825 73.364023 66.916903S72.762038 68.028802 72.280453 68.680359S71.232293 69.870161 70.580737 70.29509S69.107647 71.130785 68.116147 71.527384S65.991501 72.235601 64.716714 72.462229V73.312087H85.283286V72.462229C84.008499 72.2356 82.875353 71.916904 81.883853 71.506138S80.063741 70.677526 79.398017 70.252597S78.165722 69.282343 77.6983 68.616619S76.869688 67.363078 76.614731 66.853163S76.154392 65.677525 75.998584 64.855996S75.743626 63.375828 75.701133 62.880076C75.65864 62.384323 75.62323 61.71152 75.594901 60.861662C76.274788 62.108119 76.827195 62.986308 77.252125 63.496223C78.016997 64.459397 78.958925 65.22427 80.077904 65.79084C81.196882 66.357411 82.294619 66.640699 83.371105 66.640699C85.184137 66.640699 86.742208 65.967896 88.045326 64.622285S90.0 61.654864 90.0 59.756846C90.0 57.915488 89.412183 56.34325 88.236544 55.040132S85.637392 53.085458 83.966006 53.085458C83.399435 53.085458 82.875353 53.163362 82.393768 53.319169S81.430593 53.673277 80.949008 53.91407L80.056657 54.360246C81.161473 52.773845 81.713881 51.272425 81.713881 49.855996C81.713881 48.071294 81.055241 46.541549 79.73796 45.266761S76.841358 43.35458 75.0 43.35458S71.57932 43.991974 70.26204 45.266761S68.286119 48.071294 68.286119 49.855996C68.286119 51.272425 68.838527 52.773845 69.943343 54.360246C69.745042 54.27526 69.468837 54.147781 69.114731 53.977809S68.498584 53.680359 68.328612 53.595373S67.939093 53.425401 67.669972 53.340415S67.13881 53.19169 66.883853 53.149197S66.345608 53.085458 66.033994 53.085458C64.362608 53.085458 62.939095 53.737015 61.763456 55.040132S60.0 57.915488 60.0 59.756846C60.0 61.654864 60.651557 63.276675 61.954674 64.622285S64.815863 66.640699 66.628895 66.640699C69.745041 66.640699 72.337096 64.714355 74.405099 60.861662Z" fill="#010101" />
<path d="M75.594901 149.138338C75.623229 148.28848 75.65864 147.601509 75.701133 147.077432C75.743626 146.553354 75.849858 145.88763 76.01983 145.080264S76.395184 143.607175 76.635977 143.083097S77.237962 141.971198 77.719547 141.319641S78.767707 140.129839 79.419263 139.70491S80.892353 138.869215 81.883853 138.472616S84.008499 137.764399 85.283286 137.537771V136.687913H64.716714V137.537771C65.991501 137.7644 67.124647 138.083096 68.116147 138.493862S69.936259 139.322474 70.601983 139.747403S71.834278 140.717657 72.3017 141.383381S73.130312 142.636922 73.385269 143.146837S73.845608 144.322475 74.001416 145.144004S74.256374 146.624172 74.298867 147.119924C74.34136 147.615677 74.37677 148.28848 74.405099 149.138338C73.725212 147.891881 73.172805 147.013692 72.747875 146.503777C71.983003 145.540603 71.041075 144.77573 69.922096 144.20916C68.803118 143.642589 67.705381 143.359301 66.628895 143.359301C64.815863 143.359301 63.257792 144.032104 61.954674 145.377715S60.0 148.345136 60.0 150.243154C60.0 152.084512 60.587817 153.65675 61.763456 154.959868S64.362608 156.914542 66.033994 156.914542C66.600565 156.914542 67.124647 156.836638 67.606232 156.680831S68.569407 156.326723 69.050992 156.08593L69.943343 155.639754C68.838527 157.226155 68.286119 158.727575 68.286119 160.144004C68.286119 161.928706 68.944759 163.458451 70.26204 164.733239S73.158642 166.64542 75.0 166.64542S78.42068 166.008026 79.73796 164.733239S81.713881 161.928706 81.713881 160.144004C81.713881 158.727575 81.161473 157.226155 80.056657 155.639754C80.254958 155.72474 80.531163 155.852219 80.885269 156.022191S81.501416 156.319641 81.671388 156.404627S82.060907 156.574599 82.330028 156.659585S82.86119 156.80831 83.116147 156.850803S83.654392 156.914542 83.966006 156.914542C85.637392 156.914542 87.060905 156.262985 88.236544 154.959868S90.0 152.084512 90.0 150.243154C90.0 148.345136 89.348443 146.723325 88.045326 145.377715S85.184137 143.359301 83.371105 143.359301C80.254959 143.359301 77.662904 145.285645 75.594901 149.138338Z" fill="#010101" />
<path d="M148.353582 24.909945Q148.328128 24.451764 148.239038 24.299036T147.946314 24.146309Q146.520874 24.146309 145.922698 23.974491T145.031798 23.077218T144.739073 20.633582V12.691764Q144.713619 10.897218 144.853617 10.114491T145.349976 9.102673T146.520874 8.873582H147.768134Q148.226311 8.873582 148.226311 7.957218Q148.200857 7.384491 148.073585 7.250855T147.755407 7.117218H147.488137Q146.419056 7.117218 145.400885 6.601764T143.186361 5.360855Q143.033636 5.284491 142.931818 5.284491Q142.52455 5.284491 142.52455 6.162673V20.633582Q142.52455 22.313582 142.25728 23.039036T141.417288 23.9554T139.571852 24.146309H139.317309Q139.113675 24.146309 139.024585 24.299036T138.910041 24.909945Q138.910041 25.826309 139.368218 25.826309Q141.200927 25.711764 143.644539 25.711764Q146.062696 25.711764 147.895405 25.826309Q148.353582 25.826309 148.353582 24.909945ZM137.051778 24.604491Q138.413583 23.153582 139.088121 20.748127T139.76266 15.517218Q139.76266 12.653582 139.088121 10.286309T137.051778 6.487218T133.704539 5.0554Q131.820921 5.0554 130.44639 6.506309T128.359138 10.362673T127.646418 15.517218T128.359138 20.671764T130.44639 24.566309T133.704539 26.0554Q135.689973 26.0554 137.051778 24.604491ZM131.031838 22.2754Q130.090029 19.908127 130.090029 15.517218T131.031838 8.797218T133.679084 6.468127Q135.435431 6.468127 136.377239 8.778127T137.319048 15.517218T136.377239 22.294491T133.679084 24.642673Q131.973647 24.642673 131.031838 22.2754Z" fill="#010101" />
<path d="M137.687677 40.994039C137.672805 41.440215 137.654214 41.800874 137.631905 42.076015C137.609596 42.351156 137.553824 42.700661 137.464589 43.124528S137.267528 43.8979 137.141112 44.173041S136.82507 44.756788 136.572238 45.098855S136.021954 45.723501 135.679887 45.946589S134.906515 46.385329 134.385977 46.593543S133.270538 46.965357 132.601275 47.084337V47.530512H143.398725V47.084337C142.729462 46.965357 142.13456 46.798041 141.614023 46.582389S140.658464 46.147368 140.308959 45.92428S139.662004 45.414897 139.416608 45.065392S138.981586 44.407283 138.847734 44.139577S138.606056 43.522367 138.524256 43.091065S138.390404 42.313976 138.368095 42.053706C138.345786 41.793436 138.327196 41.440215 138.312323 40.994039C138.669263 41.648429 138.959278 42.109478 139.182365 42.377184C139.583924 42.88285 140.078436 43.284408 140.665899 43.581858C141.253363 43.879308 141.829675 44.028034 142.39483 44.028034C143.346672 44.028034 144.164659 43.674812 144.848796 42.968366S145.875 41.410471 145.875 40.414011C145.875 39.447298 145.566396 38.621873 144.949186 37.937736S143.584631 36.911532 142.707153 36.911532C142.409703 36.911532 142.13456 36.952431 141.881728 37.03423S141.376062 37.220137 141.123229 37.346553L140.654745 37.580796C141.234773 36.747935 141.524788 35.95969 141.524788 35.216065C141.524788 34.279096 141.179001 33.47598 140.487429 32.806716S138.966713 31.802821 138.0 31.802821S136.204143 32.137453 135.512571 32.806716S134.475212 34.279096 134.475212 35.216065C134.475212 35.95969 134.765227 36.747935 135.345255 37.580796C135.241147 37.536178 135.096139 37.469252 134.910234 37.380017S134.586756 37.223855 134.497521 37.179237S134.293024 37.090002 134.151735 37.045385S133.872875 36.967304 133.739023 36.944995S133.456444 36.911532 133.292847 36.911532C132.415369 36.911532 131.668025 37.253599 131.050814 37.937736S130.125 39.447298 130.125 40.414011C130.125 41.410471 130.467067 42.261921 131.151204 42.968366S132.653328 44.028034 133.60517 44.028034C135.241147 44.028034 136.601976 43.016703 137.687677 40.994039Z" fill="#010101" />
<path d="M1.646418 185.090055Q1.671872 185.548236 1.760962 185.700964T2.053686 185.853691Q3.479126 185.853691 4.077302 186.025509T4.968203 186.922782T5.260927 189.366418V197.308236Q5.286381 199.102782 5.146383 199.885509T4.650024 200.897327T3.479126 201.126418H2.231866Q1.773689 201.126418 1.773689 202.042782Q1.799143 202.615509 1.926415 202.749145T2.244593 202.882782H2.511863Q3.580944 202.882782 4.599115 203.398236T6.813639 204.639145Q6.966364 204.715509 7.068182 204.715509Q7.47545 204.715509 7.47545 203.837327V189.366418Q7.47545 187.686418 7.74272 186.960964T8.582712 186.0446T10.428148 185.853691H10.682691Q10.886325 185.853691 10.975415 185.700964T11.089959 185.090055Q11.089959 184.173691 10.631782 184.173691Q8.799073 184.288236 6.355461 184.288236Q3.937304 184.288236 2.104595 184.173691Q1.646418 184.173691 1.646418 185.090055ZM12.948222 185.395509Q11.586417 186.846418 10.911879 189.251873T10.23734 194.482782Q10.23734 197.346418 10.911879 199.713691T12.948222 203.512782T16.295461 204.9446Q18.179079 204.9446 19.55361 203.493691T21.640862 199.637327T22.353582 194.482782T21.640862 189.328236T19.55361 185.433691T16.295461 183.9446Q14.310027 183.9446 12.948222 185.395509ZM18.968162 187.7246Q19.909971 190.091873 19.909971 194.482782T18.968162 201.202782T16.320916 203.531873Q14.564569 203.531873 13.622761 201.221873T12.680952 194.482782T13.622761 187.705509T16.320916 185.357327Q18.026353 185.357327 18.968162 187.7246Z" fill="#010101" />
<path d="M12.312323 169.005961C12.327195 168.559785 12.345786 168.199126 12.368095 167.923985C12.390404 167.648844 12.446176 167.299339 12.535411 166.875472S12.732472 166.1021 12.858888 165.826959S13.17493 165.243212 13.427762 164.901145S13.978046 164.276499 14.320113 164.053411S15.093485 163.614671 15.614023 163.406457S16.729462 163.034643 17.398725 162.915663V162.469488H6.601275V162.915663C7.270538 163.034643 7.86544 163.201959 8.385977 163.417611S9.341536 163.852632 9.691041 164.07572S10.337996 164.585103 10.583392 164.934608S11.018414 165.592717 11.152266 165.860423S11.393944 166.477633 11.475744 166.908935S11.609596 167.686024 11.631905 167.946294C11.654214 168.206564 11.672804 168.559785 11.687677 169.005961C11.330737 168.351571 11.040722 167.890522 10.817635 167.622816C10.416076 167.11715 9.921564 166.715592 9.334101 166.418142C8.746637 166.120692 8.170325 165.971966 7.60517 165.971966C6.653328 165.971966 5.835341 166.325188 5.151204 167.031634S4.125 168.589529 4.125 169.585989C4.125 170.552702 4.433604 171.378127 5.050814 172.062264S6.415369 173.088468 7.292847 173.088468C7.590297 173.088468 7.86544 173.047569 8.118272 172.96577S8.623938 172.779863 8.876771 172.653447L9.345255 172.419204C8.765227 173.252065 8.475212 174.04031 8.475212 174.783935C8.475212 175.720904 8.820999 176.52402 9.512571 177.193284S11.033287 178.197179 12.0 178.197179S13.795857 177.862547 14.487429 177.193284S15.524788 175.720904 15.524788 174.783935C15.524788 174.04031 15.234773 173.252065 14.654745 172.419204C14.758853 172.463822 14.903861 172.530748 15.089766 172.619983S15.413244 172.776145 15.502479 172.820763S15.706976 172.909998 15.848265 172.954615S16.127125 173.032696 16.260977 173.055005S16.543556 173.088468 16.707153 173.088468C17.584631 173.088468 18.331975 172.746401 18.949186 172.062264S19.875 170.552702 19.875 169.585989C19.875 168.589529 19.532933 167.738079 18.848796 167.031634S17.346672 165.971966 16.39483 165.971966C14.758853 165.971966 13.398024 166.983297 12.312323 169.005961Z" fill="#010101" />
</svg>
