<svg width="25.000000" height="35.000000" id="card-lightheart8">
<rect x="0" y="0" rx="1.25" ry="1.25" width="25" height="35.0" stroke="rgba(1,1,1,0.333)" fill="#fffdfa" />
<path d="M7.493036 4.336119C7.400186 3.992572 7.250464 3.739554 7.043872 3.577066S6.608635 3.333333 6.357939 3.333333C6.074744 3.333333 5.832173 3.430826 5.630223 3.625812S5.327298 4.055246 5.327298 4.329155C5.327298 4.579851 5.388811 4.835191 5.511838 5.095172S5.79039 5.605849 5.978412 5.847261S6.357939 6.331244 6.552925 6.574977S6.934772 7.0961 7.11351 7.407149S7.418756 8.026927 7.493036 8.333333C7.576602 8.012999 7.710075 7.691504 7.893454 7.368849S8.266017 6.760678 8.461003 6.512303C8.655989 6.263927 8.846332 6.020195 9.032033 5.781105S9.370938 5.301764 9.491643 5.060353S9.672702 4.589136 9.672702 4.370938C9.672702 4.078459 9.574048 3.832405 9.376741 3.632776C9.179434 3.433147 8.936861 3.333333 8.649025 3.333333C8.096565 3.333333 7.711233 3.667595 7.493036 4.336119Z" fill="#da0a0a" />
<path d="M7.506964 30.663881C7.599814 31.007428 7.749536 31.260446 7.956128 31.422934S8.391365 31.666667 8.642061 31.666667C8.925256 31.666667 9.167827 31.569174 9.369777 31.374188S9.672702 30.944754 9.672702 30.670845C9.672702 30.420149 9.611189 30.164809 9.488162 29.904828S9.20961 29.394151 9.021588 29.152739S8.642061 28.668756 8.447075 28.425023S8.065228 27.9039 7.88649 27.592851S7.581244 26.973073 7.506964 26.666667C7.423398 26.987001 7.289925 27.308496 7.106546 27.631151S6.733983 28.239322 6.538997 28.487697C6.344011 28.736073 6.153668 28.979805 5.967967 29.218895S5.629062 29.698236 5.508357 29.939647S5.327298 30.410864 5.327298 30.629062C5.327298 30.921541 5.425952 31.167595 5.623259 31.367224C5.820566 31.566853 6.063139 31.666667 6.350975 31.666667C6.903435 31.666667 7.288767 31.332405 7.506964 30.663881Z" fill="#da0a0a" />
<path d="M7.493036 12.113897C7.400186 11.77035 7.250464 11.517332 7.043872 11.354844S6.608635 11.111111 6.357939 11.111111C6.074744 11.111111 5.832173 11.208604 5.630223 11.40359S5.327298 11.833024 5.327298 12.106933C5.327298 12.357629 5.388811 12.612968 5.511838 12.87295S5.79039 13.383627 5.978412 13.625039S6.357939 14.109022 6.552925 14.352755S6.934772 14.873878 7.11351 15.184927S7.418756 15.804704 7.493036 16.111111C7.576602 15.790777 7.710075 15.469282 7.893454 15.146626S8.266017 14.538456 8.461003 14.29008C8.655989 14.041705 8.846332 13.797973 9.032033 13.558883S9.370938 13.079542 9.491643 12.838131S9.672702 12.366914 9.672702 12.148716C9.672702 11.856236 9.574048 11.610183 9.376741 11.410554C9.179434 11.210925 8.936861 11.111111 8.649025 11.111111C8.096565 11.111111 7.711233 11.445373 7.493036 12.113897Z" fill="#da0a0a" />
<path d="M7.506964 22.886103C7.599814 23.22965 7.749536 23.482668 7.956128 23.645156S8.391365 23.888889 8.642061 23.888889C8.925256 23.888889 9.167827 23.791396 9.369777 23.59641S9.672702 23.166976 9.672702 22.893067C9.672702 22.642371 9.611189 22.387032 9.488162 22.12705S9.20961 21.616373 9.021588 21.374961S8.642061 20.890978 8.447075 20.647245S8.065228 20.126122 7.88649 19.815073S7.581244 19.195296 7.506964 18.888889C7.423398 19.209223 7.289925 19.530718 7.106546 19.853374S6.733983 20.461544 6.538997 20.70992C6.344011 20.958295 6.153668 21.202027 5.967967 21.441117S5.629062 21.920458 5.508357 22.161869S5.327298 22.633086 5.327298 22.851284C5.327298 23.143764 5.425952 23.389817 5.623259 23.589446C5.820566 23.789075 6.063139 23.888889 6.350975 23.888889C6.903435 23.888889 7.288767 23.554627 7.506964 22.886103Z" fill="#da0a0a" />
<path d="M17.493036 4.336119C17.400186 3.992572 17.250464 3.739554 17.043872 3.577066S16.608635 3.333333 16.357939 3.333333C16.074744 3.333333 15.832173 3.430826 15.630223 3.625812S15.327298 4.055246 15.327298 4.329155C15.327298 4.579851 15.388811 4.835191 15.511838 5.095172S15.79039 5.605849 15.978412 5.847261S16.357939 6.331244 16.552925 6.574977S16.934772 7.0961 17.11351 7.407149S17.418756 8.026927 17.493036 8.333333C17.576602 8.012999 17.710075 7.691504 17.893454 7.368849S18.266017 6.760678 18.461003 6.512303C18.655989 6.263927 18.846332 6.020195 19.032033 5.781105S19.370938 5.301764 19.491643 5.060353S19.672702 4.589136 19.672702 4.370938C19.672702 4.078459 19.574048 3.832405 19.376741 3.632776C19.179434 3.433147 18.936861 3.333333 18.649025 3.333333C18.096565 3.333333 17.711233 3.667595 17.493036 4.336119Z" fill="#da0a0a" />
<path d="M17.506964 30.663881C17.599814 31.007428 17.749536 31.260446 17.956128 31.422934S18.391365 31.666667 18.642061 31.666667C18.925256 31.666667 19.167827 31.569174 19.369777 31.374188S19.672702 30.944754 19.672702 30.670845C19.672702 30.420149 19.611189 30.164809 19.488162 29.904828S19.20961 29.394151 19.021588 29.152739S18.642061 28.668756 18.447075 28.425023S18.065228 27.9039 17.88649 27.592851S17.581244 26.973073 17.506964 26.666667C17.423398 26.987001 17.289925 27.308496 17.106546 27.631151S16.733983 28.239322 16.538997 28.487697C16.344011 28.736073 16.153668 28.979805 15.967967 29.218895S15.629062 29.698236 15.508357 29.939647S15.327298 30.410864 15.327298 30.629062C15.327298 30.921541 15.425952 31.167595 15.623259 31.367224C15.820566 31.566853 16.063139 31.666667 16.350975 31.666667C16.903435 31.666667 17.288767 31.332405 17.506964 30.663881Z" fill="#da0a0a" />
<path d="M17.493036 12.113897C17.400186 11.77035 17.250464 11.517332 17.043872 11.354844S16.608635 11.111111 16.357939 11.111111C16.074744 11.111111 15.832173 11.208604 15.630223 11.40359S15.327298 11.833024 15.327298 12.106933C15.327298 12.357629 15.388811 12.612968 15.511838 12.87295S15.79039 13.383627 15.978412 13.625039S16.357939 14.109022 16.552925 14.352755S16.934772 14.873878 17.11351 15.184927S17.418756 15.804704 17.493036 16.111111C17.576602 15.790777 17.710075 15.469282 17.893454 15.146626S18.266017 14.538456 18.461003 14.29008C18.655989 14.041705 18.846332 13.797973 19.032033 13.558883S19.370938 13.079542 19.491643 12.838131S19.672702 12.366914 19.672702 12.148716C19.672702 11.856236 19.574048 11.610183 19.376741 11.410554C19.179434 11.210925 18.936861 11.111111 18.649025 11.111111C18.096565 11.111111 17.711233 11.445373 17.493036 12.113897Z" fill="#da0a0a" />
<path d="M17.506964 22.886103C17.599814 23.22965 17.749536 23.482668 17.956128 23.645156S18.391365 23.888889 18.642061 23.888889C18.925256 23.888889 19.167827 23.791396 19.369777 23.59641S19.672702 23.166976 19.672702 22.893067C19.672702 22.642371 19.611189 22.387032 19.488162 22.12705S19.20961 21.616373 19.021588 21.374961S18.642061 20.890978 18.447075 20.647245S18.065228 20.126122 17.88649 19.815073S17.581244 19.195296 17.506964 18.888889C17.423398 19.209223 17.289925 19.530718 17.106546 19.853374S16.733983 20.461544 16.538997 20.70992C16.344011 20.958295 16.153668 21.202027 15.967967 21.441117S15.629062 21.920458 15.508357 22.161869S15.327298 22.633086 15.327298 22.851284C15.327298 23.143764 15.425952 23.389817 15.623259 23.589446C15.820566 23.789075 16.063139 23.888889 16.350975 23.888889C16.903435 23.888889 17.288767 23.554627 17.506964 22.886103Z" fill="#da0a0a" />
<path d="M23.696818 4.221658Q23.98 4.100748 24.132727 3.890748T24.285455 3.413476Q24.285455 3.133476 24.097727 2.926658T23.540909 2.560748Q23.846364 2.376203 23.989545 2.185294T24.132727 1.752567Q24.132727 1.504385 23.967273 1.294385T23.528182 0.963476T22.942727 0.842567Q22.624545 0.842567 22.376364 0.957112T21.988182 1.26893T21.848182 1.714385Q21.848182 1.943476 22.007273 2.14393T22.484545 2.503476Q22.064545 2.681658 21.889545 2.87893T21.714545 3.381658Q21.714545 3.642567 21.883182 3.862112T22.354091 4.212112T23.044545 4.342567Q23.413636 4.342567 23.696818 4.221658ZM22.436818 2.086658Q22.344545 1.905294 22.344545 1.708021Q22.344545 1.434385 22.51 1.246658T22.974545 1.05893Q23.260909 1.05893 23.432727 1.224385T23.604545 1.644385Q23.604545 1.879839 23.372273 2.042112T22.700909 2.38893Q22.529091 2.268021 22.436818 2.086658ZM22.478182 3.954385Q22.287273 3.776203 22.287273 3.496203Q22.287273 3.311658 22.405 3.174839T22.710455 2.939385T23.299091 2.662567Q23.496364 2.796203 23.604545 2.980748T23.712727 3.388021Q23.712727 3.71893 23.512273 3.925748T22.987273 4.132567Q22.669091 4.132567 22.478182 3.954385Z" fill="#da0a0a" />
<path d="M22.996344 5.825074C22.947598 5.644712 22.868994 5.511877 22.760533 5.426571S22.532033 5.298611 22.400418 5.298611C22.251741 5.298611 22.124391 5.349795 22.018367 5.452163S21.859331 5.677615 21.859331 5.821418C21.859331 5.953033 21.891626 6.087086 21.956215 6.223576S22.102455 6.491682 22.201166 6.618423S22.400418 6.872514 22.502786 7.000474S22.703255 7.274064 22.797093 7.437365S22.957347 7.762748 22.996344 7.923611C23.040216 7.755436 23.110289 7.586651 23.206563 7.417257S23.402159 7.097967 23.504526 6.96757C23.606894 6.837173 23.706824 6.709213 23.804318 6.583691S23.982242 6.332037 24.045613 6.205296S24.140669 5.957908 24.140669 5.843353C24.140669 5.689802 24.088875 5.560624 23.985289 5.455819C23.881703 5.351013 23.754352 5.298611 23.603238 5.298611C23.313197 5.298611 23.110897 5.474099 22.996344 5.825074Z" fill="#da0a0a" />
<path d="M1.303182 30.778342Q1.02 30.899252 0.867273 31.109252T0.714545 31.586524Q0.714545 31.866524 0.902273 32.073342T1.459091 32.439252Q1.153636 32.623797 1.010455 32.814706T0.867273 33.247433Q0.867273 33.495615 1.032727 33.705615T1.471818 34.036524T2.057273 34.157433Q2.375455 34.157433 2.623636 34.042888T3.011818 33.73107T3.151818 33.285615Q3.151818 33.056524 2.992727 32.85607T2.515455 32.496524Q2.935455 32.318342 3.110455 32.12107T3.285455 31.618342Q3.285455 31.357433 3.116818 31.137888T2.645909 30.787888T1.955455 30.657433Q1.586364 30.657433 1.303182 30.778342ZM2.563182 32.913342Q2.655455 33.094706 2.655455 33.291979Q2.655455 33.565615 2.49 33.753342T2.025455 33.94107Q1.739091 33.94107 1.567273 33.775615T1.395455 33.355615Q1.395455 33.120161 1.627727 32.957888T2.299091 32.61107Q2.470909 32.731979 2.563182 32.913342ZM2.521818 31.045615Q2.712727 31.223797 2.712727 31.503797Q2.712727 31.688342 2.595 31.825161T2.289545 32.060615T1.700909 32.337433Q1.503636 32.203797 1.395455 32.019252T1.287273 31.611979Q1.287273 31.28107 1.487727 31.074252T2.012727 30.867433Q2.330909 30.867433 2.521818 31.045615Z" fill="#da0a0a" />
<path d="M2.003656 29.174926C2.052402 29.355288 2.131006 29.488123 2.239467 29.573429S2.467967 29.701389 2.599582 29.701389C2.748259 29.701389 2.875609 29.650205 2.981633 29.547837S3.140669 29.322385 3.140669 29.178582C3.140669 29.046967 3.108374 28.912914 3.043785 28.776424S2.897545 28.508318 2.798834 28.381577S2.599582 28.127486 2.497214 27.999526S2.296745 27.725936 2.202907 27.562635S2.042653 27.237252 2.003656 27.076389C1.959784 27.244564 1.889711 27.413349 1.793437 27.582743S1.597841 27.902033 1.495474 28.03243C1.393106 28.162827 1.293176 28.290787 1.195682 28.416309S1.017758 28.667963 0.954387 28.794704S0.859331 29.042092 0.859331 29.156647C0.859331 29.310198 0.911125 29.439376 1.014711 29.544181C1.118297 29.648987 1.245648 29.701389 1.396762 29.701389C1.686803 29.701389 1.889103 29.525901 2.003656 29.174926Z" fill="#da0a0a" />
</svg>
