<svg width="500.000000" height="700.000000" id="card-realheart3">
<radialGradient id="card-realwhitegradient" cx="250.0" cy="350.0" r="500" gradientTransform="matrix(1 0 0 1 0 -.25)" gradientUnits="userSpaceOnUse">
<stop stop-color="#FDFAF4" offset=".15"/>
<stop stop-color="#FDF9F2" offset=".35"/>
<stop stop-color="#FCF7F1" offset=".5"/>
<stop stop-color="#FDFDF8" offset=".75"/>
<stop stop-color="#FFFDFA" offset="1"/>
</radialGradient>
<rect x="0" y="0" rx="25.0" ry="25.0" width="500" height="700.0" stroke="rgba(1,1,1,0.333)" fill="url(#card-realwhitegradient)" />
<path d="M249.860724 86.722377C248.003719 79.851444 245.00929 74.791082 240.877437 71.541318S232.172702 66.666667 227.158774 66.666667C221.494889 66.666667 216.643454 68.616527 212.604457 72.516249S206.545961 81.104926 206.545961 86.583101C206.545961 91.597029 207.77623 96.703812 210.236769 101.903435S215.807799 112.116987 219.568245 116.945218S227.158774 126.624884 231.058496 131.499536S238.695446 141.922001 242.270195 148.14299S248.375111 160.538533 249.860724 166.666667C251.532033 160.259981 254.20149 153.830079 257.869081 147.376973S265.320334 135.213561 269.220056 130.246054C273.119777 125.278547 276.926643 120.403895 280.640669 115.622098S287.41876 106.035288 289.832869 101.207057S293.454039 91.782725 293.454039 87.418756C293.454039 81.569174 291.480961 76.648101 287.534819 72.655525C283.588677 68.662948 278.737228 66.666667 272.980501 66.666667C261.931295 66.666667 254.224652 73.351903 249.860724 86.722377Z" fill="#da0a0a" />
<path d="M250.139276 613.277623C251.996281 620.148556 254.99071 625.208918 259.122563 628.458682S267.827298 633.333333 272.841226 633.333333C278.505111 633.333333 283.356546 631.383473 287.395543 627.483751S293.454039 618.895074 293.454039 613.416899C293.454039 608.402971 292.22377 603.296188 289.763231 598.096565S284.192201 587.883013 280.431755 583.054782S272.841226 573.375116 268.941504 568.500464S261.304554 558.077999 257.729805 551.85701S251.624889 539.461467 250.139276 533.333333C248.467967 539.740019 245.79851 546.169921 242.130919 552.623027S234.679666 564.786439 230.779944 569.753946C226.880223 574.721453 223.073357 579.596105 219.359331 584.377902S212.58124 593.964712 210.167131 598.792943S206.545961 608.217275 206.545961 612.581244C206.545961 618.430826 208.519039 623.351899 212.465181 627.344475C216.411323 631.337052 221.262772 633.333333 227.019499 633.333333C238.068705 633.333333 245.775348 626.648097 250.139276 613.277623Z" fill="#da0a0a" />
<path d="M249.860724 320.05571C248.003719 313.184777 245.00929 308.124415 240.877437 304.874652S232.172702 300.0 227.158774 300.0C221.494889 300.0 216.643454 301.949861 212.604457 305.849582S206.545961 314.438259 206.545961 319.916435C206.545961 324.930362 207.77623 330.037145 210.236769 335.236769S215.807799 345.45032 219.568245 350.278552S227.158774 359.958217 231.058496 364.832869S238.695446 375.255334 242.270195 381.476323S248.375111 393.871866 249.860724 400.0C251.532033 393.593315 254.20149 387.163412 257.869081 380.710306S265.320334 368.546894 269.220056 363.579387C273.119777 358.61188 276.926643 353.737228 280.640669 348.955432S287.41876 339.368621 289.832869 334.54039S293.454039 325.116058 293.454039 320.752089C293.454039 314.902507 291.480961 309.981435 287.534819 305.988858C283.588677 301.996281 278.737228 300.0 272.980501 300.0C261.931295 300.0 254.224652 306.685237 249.860724 320.05571Z" fill="#da0a0a" />
<path d="M477.753623 83.237203Q484.157609 79.623072 484.157609 72.648435Q484.157609 68.970899 481.875 66.307855T475.53442 63.644812Q473.125 63.644812 471.413043 64.912928T469.701087 67.068725Q469.701087 67.195536 470.842391 68.019812T472.934783 70.239014T473.88587 73.789739Q473.88587 77.720899 470.525362 79.940101T461.711957 82.159304Q448.143116 82.159304 448.143116 67.068725Q448.143116 60.854957 451.440217 57.114014T461.331522 52.992638H466.023551Q466.911232 52.992638 467.418478 52.231768T467.925725 50.456406Q467.925725 49.315101 467.418478 48.490826T466.023551 47.539739H461.331522Q456.38587 47.032493 453.405797 43.101333T450.425725 33.590464Q450.425725 27.503507 453.849638 24.269812T461.838768 21.036116Q466.150362 21.036116 469.257246 23.508942T472.36413 30.293362Q472.36413 33.083217 471.286232 34.034304T469.193841 35.175609T468.179348 35.492638Q468.179348 36.380319 469.891304 37.648435T474.012681 38.916551Q478.070652 38.916551 480.353261 36.380319T482.63587 29.912928Q482.63587 23.699159 476.802536 20.275246T461.711957 16.851333Q451.820652 16.851333 445.353261 21.162928T438.88587 33.590464Q438.88587 38.916551 442.626812 43.481768T453.342391 49.949159V50.456406Q446.240942 51.217275 441.041667 54.958217T435.842391 66.815101Q435.842391 77.086841 443.324275 81.969087T462.092391 86.851333Q471.349638 86.851333 477.753623 83.237203Z" fill="#da0a0a" />
<path d="M459.92688 116.50147C458.951952 112.89423 457.379877 110.23754 455.210655 108.531414S450.640669 105.972222 448.008357 105.972222C445.034817 105.972222 442.487813 106.995899 440.36734 109.043253S437.18663 113.552308 437.18663 116.42835C437.18663 119.060662 437.832521 121.741723 439.124304 124.471526S442.049095 129.83364 444.023329 132.368462S448.008357 137.450286 450.05571 140.009478S454.065109 145.481273 455.941852 148.747292S459.146933 155.254952 459.92688 158.472222C460.804318 155.108712 462.205782 151.733014 464.131267 148.345133S468.043175 141.959342 470.090529 139.3514C472.137883 136.743459 474.136488 134.184267 476.086351 131.673824S479.644849 126.640748 480.912256 124.105927S482.81337 119.158153 482.81337 116.867069C482.81337 113.796038 481.777505 111.212475 479.70578 109.116373C477.634055 107.02027 475.087045 105.972222 472.064763 105.972222C466.26393 105.972222 462.217942 109.481972 459.92688 116.50147Z" fill="#da0a0a" />
<path d="M22.246377 616.762797Q15.842391 620.376928 15.842391 627.351565Q15.842391 631.029101 18.125 633.692145T24.46558 636.355188Q26.875 636.355188 28.586957 635.087072T30.298913 632.931275Q30.298913 632.804464 29.157609 631.980188T27.065217 629.760986T26.11413 626.210261Q26.11413 622.279101 29.474638 620.059899T38.288043 617.840696Q51.856884 617.840696 51.856884 632.931275Q51.856884 639.145043 48.559783 642.885986T38.668478 647.007362H33.976449Q33.088768 647.007362 32.581522 647.768232T32.074275 649.543594Q32.074275 650.684899 32.581522 651.509174T33.976449 652.460261H38.668478Q43.61413 652.967507 46.594203 656.898667T49.574275 666.409536Q49.574275 672.496493 46.150362 675.730188T38.161232 678.963884Q33.849638 678.963884 30.742754 676.491058T27.63587 669.706638Q27.63587 666.916783 28.713768 665.965696T30.806159 664.824391T31.820652 664.507362Q31.820652 663.619681 30.108696 662.351565T25.987319 661.083449Q21.929348 661.083449 19.646739 663.619681T17.36413 670.087072Q17.36413 676.300841 23.197464 679.724754T38.288043 683.148667Q48.179348 683.148667 54.646739 678.837072T61.11413 666.409536Q61.11413 661.083449 57.373188 656.518232T46.657609 650.050841V649.543594Q53.759058 648.782725 58.958333 645.041783T64.157609 633.184899Q64.157609 622.913159 56.675725 618.030913T37.907609 613.148667Q28.650362 613.148667 22.246377 616.762797Z" fill="#da0a0a" />
<path d="M40.07312 583.49853C41.048048 587.10577 42.620123 589.76246 44.789345 591.468586S49.359331 594.027778 51.991643 594.027778C54.965183 594.027778 57.512187 593.004101 59.63266 590.956747S62.81337 586.447692 62.81337 583.57165C62.81337 580.939338 62.167479 578.258277 60.875696 575.528474S57.950905 570.16636 55.976671 567.631538S51.991643 562.549714 49.94429 559.990522S45.934891 554.518727 44.058148 551.252708S40.853067 544.745048 40.07312 541.527778C39.195682 544.891288 37.794218 548.266986 35.868733 551.654867S31.956825 558.040658 29.909471 560.6486C27.862117 563.256541 25.863512 565.815733 23.913649 568.326176S20.355151 573.359252 19.087744 575.894073S17.18663 580.841847 17.18663 583.132931C17.18663 586.203962 18.222495 588.787525 20.29422 590.883627C22.365945 592.97973 24.912955 594.027778 27.935237 594.027778C33.73607 594.027778 37.782058 590.518028 40.07312 583.49853Z" fill="#da0a0a" />
</svg>
