<svg width="500.000000" height="700.000000" id="card-realclub8">
<radialGradient id="card-realwhitegradient" cx="250.0" cy="350.0" r="500" gradientTransform="matrix(1 0 0 1 0 -.25)" gradientUnits="userSpaceOnUse">
<stop stop-color="#FDFAF4" offset=".15"/>
<stop stop-color="#FDF9F2" offset=".35"/>
<stop stop-color="#FCF7F1" offset=".5"/>
<stop stop-color="#FDFDF8" offset=".75"/>
<stop stop-color="#FFFDFA" offset="1"/>
</radialGradient>
<rect x="0" y="0" rx="25.0" ry="25.0" width="500" height="700.0" stroke="rgba(1,1,1,0.333)" fill="url(#card-realwhitegradient)" />
<path d="M148.016997 125.094429C147.922568 127.92729 147.804533 130.217191 147.66289 131.964117C147.521246 133.711043 147.167139 135.930123 146.600567 138.621341S145.349387 143.531638 144.546742 145.278565S142.540127 148.984896 140.934844 151.156752S137.440977 155.122757 135.269122 156.539188S130.358824 159.324839 127.053824 160.646837S119.971671 163.007559 115.72238 163.762984V166.595845H184.27762V163.762984C180.028329 163.007555 176.251176 161.945236 172.946176 160.576015S166.879136 157.813975 164.660057 156.397545S160.552408 153.163366 158.994334 150.944287S156.232295 146.765817 155.382436 145.0661S153.847975 141.147304 153.328612 138.408876S152.478754 133.474981 152.33711 131.822474C152.195467 130.169967 152.077432 127.92729 151.983003 125.094429C154.249292 129.249287 156.090652 132.176582 157.507082 133.876298C160.056657 137.086879 163.196416 139.636454 166.926346 141.525024C170.656275 143.413593 174.315397 144.357885 177.903683 144.357885C183.947125 144.357885 189.140694 142.115208 193.484419 137.629839S200.0 127.738437 200.0 121.411709C200.0 115.273848 198.040609 110.033055 194.121813 105.68933S185.457975 99.173749 179.886686 99.173749C177.998116 99.173749 176.251176 99.433427 174.645892 99.952786S171.435312 101.133144 169.830028 101.935788L166.855524 103.423041C170.538244 98.135038 172.379603 93.130307 172.379603 88.408876C172.379603 82.459868 170.184136 77.360718 165.793201 73.111426S156.137861 66.737488 150.0 66.737488S138.597734 68.862134 134.206799 73.111426S127.620397 82.459868 127.620397 88.408876C127.620397 93.130307 129.461756 98.135038 133.144476 103.423041C132.483475 103.139754 131.56279 102.714825 130.382436 102.148253S128.328612 101.156752 127.76204 100.873466S126.463644 100.306893 125.566572 100.023607S123.796034 99.527856 122.946176 99.386213S121.152025 99.173749 120.113314 99.173749C114.542025 99.173749 109.796983 101.345604 105.878187 105.68933S100.0 115.273848 100.0 121.411709C100.0 127.738437 102.171856 133.144471 106.515581 137.629839S116.052875 144.357885 122.096317 144.357885C132.48347 144.357885 141.123654 137.936737 148.016997 125.094429Z" fill="#010101" />
<path d="M151.983003 574.905571C152.077432 572.07271 152.195467 569.782809 152.33711 568.035883C152.478754 566.288957 152.832861 564.069877 153.399433 561.378659S154.650613 556.468362 155.453258 554.721435S157.459873 551.015104 159.065156 548.843248S162.559023 544.877243 164.730878 543.460812S169.641176 540.675161 172.946176 539.353163S180.028329 536.992441 184.27762 536.237016V533.404155H115.72238V536.237016C119.971671 536.992445 123.748824 538.054764 127.053824 539.423985S133.120864 542.186025 135.339943 543.602455S139.447592 546.836634 141.005666 549.055713S143.767705 553.234183 144.617564 554.9339S146.152025 558.852696 146.671388 561.591124S147.521246 566.525019 147.66289 568.177526C147.804533 569.830033 147.922568 572.07271 148.016997 574.905571C145.750708 570.750713 143.909348 567.823418 142.492918 566.123702C139.943343 562.913121 136.803584 560.363546 133.073654 558.474976C129.343725 556.586407 125.684603 555.642115 122.096317 555.642115C116.052875 555.642115 110.859306 557.884792 106.515581 562.370161S100.0 572.261563 100.0 578.588291C100.0 584.726152 101.959391 589.966945 105.878187 594.31067S114.542025 600.826251 120.113314 600.826251C122.001884 600.826251 123.748824 600.566573 125.354108 600.047214S128.564688 598.866856 130.169972 598.064212L133.144476 596.576959C129.461756 601.864962 127.620397 606.869693 127.620397 611.591124C127.620397 617.540132 129.815864 622.639282 134.206799 626.888574S143.862139 633.262512 150.0 633.262512S161.402266 631.137866 165.793201 626.888574S172.379603 617.540132 172.379603 611.591124C172.379603 606.869693 170.538244 601.864962 166.855524 596.576959C167.516525 596.860246 168.43721 597.285175 169.617564 597.851747S171.671388 598.843248 172.23796 599.126534S173.536356 599.693107 174.433428 599.976393S176.203966 600.472144 177.053824 600.613787S178.847975 600.826251 179.886686 600.826251C185.457975 600.826251 190.203017 598.654396 194.121813 594.31067S200.0 584.726152 200.0 578.588291C200.0 572.261563 197.828144 566.855529 193.484419 562.370161S183.947125 555.642115 177.903683 555.642115C167.51653 555.642115 158.876346 562.063263 151.983003 574.905571Z" fill="#010101" />
<path d="M148.016997 280.649984C147.922568 283.482845 147.804533 285.772746 147.66289 287.519673C147.521246 289.266599 147.167139 291.485678 146.600567 294.176896S145.349387 299.087194 144.546742 300.83412S142.540127 304.540452 140.934844 306.712307S137.440977 310.678313 135.269122 312.094743S130.358824 314.880395 127.053824 316.202392S119.971671 318.563115 115.72238 319.31854V322.151401H184.27762V319.31854C180.028329 318.56311 176.251176 317.500792 172.946176 316.131571S166.879136 313.369531 164.660057 311.9531S160.552408 308.718922 158.994334 306.499843S156.232295 302.321372 155.382436 300.621656S153.847975 296.70286 153.328612 293.964432S152.478754 289.030537 152.33711 287.37803C152.195467 285.725523 152.077432 283.482845 151.983003 280.649984C154.249292 284.804843 156.090652 287.732137 157.507082 289.431854C160.056657 292.642435 163.196416 295.19201 166.926346 297.080579C170.656275 298.969149 174.315397 299.91344 177.903683 299.91344C183.947125 299.91344 189.140694 297.670763 193.484419 293.185395S200.0 283.293993 200.0 276.967265C200.0 270.829404 198.040609 265.58861 194.121813 261.244885S185.457975 254.729304 179.886686 254.729304C177.998116 254.729304 176.251176 254.988983 174.645892 255.508341S171.435312 256.6887 169.830028 257.491344L166.855524 258.978596C170.538244 253.690593 172.379603 248.685862 172.379603 243.964432C172.379603 238.015423 170.184136 232.916273 165.793201 228.666981S156.137861 222.293044 150.0 222.293044S138.597734 224.41769 134.206799 228.666981S127.620397 238.015423 127.620397 243.964432C127.620397 248.685862 129.461756 253.690593 133.144476 258.978596C132.483475 258.69531 131.56279 258.270381 130.382436 257.703809S128.328612 256.712307 127.76204 256.429021S126.463644 255.862449 125.566572 255.579163S123.796034 255.083412 122.946176 254.941769S121.152025 254.729304 120.113314 254.729304C114.542025 254.729304 109.796983 256.90116 105.878187 261.244885S100.0 270.829404 100.0 276.967265C100.0 283.293993 102.171856 288.700027 106.515581 293.185395S116.052875 299.91344 122.096317 299.91344C132.48347 299.91344 141.123654 293.492293 148.016997 280.649984Z" fill="#010101" />
<path d="M151.983003 419.350016C152.077432 416.517155 152.195467 414.227254 152.33711 412.480327C152.478754 410.733401 152.832861 408.514322 153.399433 405.823104S154.650613 400.912806 155.453258 399.16588S157.459873 395.459548 159.065156 393.287693S162.559023 389.321687 164.730878 387.905257S169.641176 385.119605 172.946176 383.797608S180.028329 381.436885 184.27762 380.68146V377.848599H115.72238V380.68146C119.971671 381.43689 123.748824 382.499208 127.053824 383.868429S133.120864 386.630469 135.339943 388.0469S139.447592 391.281078 141.005666 393.500157S143.767705 397.678628 144.617564 399.378344S146.152025 403.29714 146.671388 406.035568S147.521246 410.969463 147.66289 412.62197C147.804533 414.274477 147.922568 416.517155 148.016997 419.350016C145.750708 415.195157 143.909348 412.267863 142.492918 410.568146C139.943343 407.357565 136.803584 404.80799 133.073654 402.919421C129.343725 401.030851 125.684603 400.08656 122.096317 400.08656C116.052875 400.08656 110.859306 402.329237 106.515581 406.814605S100.0 416.706007 100.0 423.032735C100.0 429.170596 101.959391 434.41139 105.878187 438.755115S114.542025 445.270696 120.113314 445.270696C122.001884 445.270696 123.748824 445.011017 125.354108 444.491659S128.564688 443.3113 130.169972 442.508656L133.144476 441.021404C129.461756 446.309407 127.620397 451.314138 127.620397 456.035568C127.620397 461.984577 129.815864 467.083727 134.206799 471.333019S143.862139 477.706956 150.0 477.706956S161.402266 475.58231 165.793201 471.333019S172.379603 461.984577 172.379603 456.035568C172.379603 451.314138 170.538244 446.309407 166.855524 441.021404C167.516525 441.30469 168.43721 441.729619 169.617564 442.296191S171.671388 443.287693 172.23796 443.570979S173.536356 444.137551 174.433428 444.420837S176.203966 444.916588 177.053824 445.058231S178.847975 445.270696 179.886686 445.270696C185.457975 445.270696 190.203017 443.09884 194.121813 438.755115S200.0 429.170596 200.0 423.032735C200.0 416.706007 197.828144 411.299973 193.484419 406.814605S183.947125 400.08656 177.903683 400.08656C167.51653 400.08656 158.876346 406.507707 151.983003 419.350016Z" fill="#010101" />
<path d="M348.016997 125.094429C347.922568 127.92729 347.804533 130.217191 347.66289 131.964117C347.521246 133.711043 347.167139 135.930123 346.600567 138.621341S345.349387 143.531638 344.546742 145.278565S342.540127 148.984896 340.934844 151.156752S337.440977 155.122757 335.269122 156.539188S330.358824 159.324839 327.053824 160.646837S319.971671 163.007559 315.72238 163.762984V166.595845H384.27762V163.762984C380.028329 163.007555 376.251176 161.945236 372.946176 160.576015S366.879136 157.813975 364.660057 156.397545S360.552408 153.163366 358.994334 150.944287S356.232295 146.765817 355.382436 145.0661S353.847975 141.147304 353.328612 138.408876S352.478754 133.474981 352.33711 131.822474C352.195467 130.169967 352.077432 127.92729 351.983003 125.094429C354.249292 129.249287 356.090652 132.176582 357.507082 133.876298C360.056657 137.086879 363.196416 139.636454 366.926346 141.525024C370.656275 143.413593 374.315397 144.357885 377.903683 144.357885C383.947125 144.357885 389.140694 142.115208 393.484419 137.629839S400.0 127.738437 400.0 121.411709C400.0 115.273848 398.040609 110.033055 394.121813 105.68933S385.457975 99.173749 379.886686 99.173749C377.998116 99.173749 376.251176 99.433427 374.645892 99.952786S371.435312 101.133144 369.830028 101.935788L366.855524 103.423041C370.538244 98.135038 372.379603 93.130307 372.379603 88.408876C372.379603 82.459868 370.184136 77.360718 365.793201 73.111426S356.137861 66.737488 350.0 66.737488S338.597734 68.862134 334.206799 73.111426S327.620397 82.459868 327.620397 88.408876C327.620397 93.130307 329.461756 98.135038 333.144476 103.423041C332.483475 103.139754 331.56279 102.714825 330.382436 102.148253S328.328612 101.156752 327.76204 100.873466S326.463644 100.306893 325.566572 100.023607S323.796034 99.527856 322.946176 99.386213S321.152025 99.173749 320.113314 99.173749C314.542025 99.173749 309.796983 101.345604 305.878187 105.68933S300.0 115.273848 300.0 121.411709C300.0 127.738437 302.171856 133.144471 306.515581 137.629839S316.052875 144.357885 322.096317 144.357885C332.48347 144.357885 341.123654 137.936737 348.016997 125.094429Z" fill="#010101" />
<path d="M351.983003 574.905571C352.077432 572.07271 352.195467 569.782809 352.33711 568.035883C352.478754 566.288957 352.832861 564.069877 353.399433 561.378659S354.650613 556.468362 355.453258 554.721435S357.459873 551.015104 359.065156 548.843248S362.559023 544.877243 364.730878 543.460812S369.641176 540.675161 372.946176 539.353163S380.028329 536.992441 384.27762 536.237016V533.404155H315.72238V536.237016C319.971671 536.992445 323.748824 538.054764 327.053824 539.423985S333.120864 542.186025 335.339943 543.602455S339.447592 546.836634 341.005666 549.055713S343.767705 553.234183 344.617564 554.9339S346.152025 558.852696 346.671388 561.591124S347.521246 566.525019 347.66289 568.177526C347.804533 569.830033 347.922568 572.07271 348.016997 574.905571C345.750708 570.750713 343.909348 567.823418 342.492918 566.123702C339.943343 562.913121 336.803584 560.363546 333.073654 558.474976C329.343725 556.586407 325.684603 555.642115 322.096317 555.642115C316.052875 555.642115 310.859306 557.884792 306.515581 562.370161S300.0 572.261563 300.0 578.588291C300.0 584.726152 301.959391 589.966945 305.878187 594.31067S314.542025 600.826251 320.113314 600.826251C322.001884 600.826251 323.748824 600.566573 325.354108 600.047214S328.564688 598.866856 330.169972 598.064212L333.144476 596.576959C329.461756 601.864962 327.620397 606.869693 327.620397 611.591124C327.620397 617.540132 329.815864 622.639282 334.206799 626.888574S343.862139 633.262512 350.0 633.262512S361.402266 631.137866 365.793201 626.888574S372.379603 617.540132 372.379603 611.591124C372.379603 606.869693 370.538244 601.864962 366.855524 596.576959C367.516525 596.860246 368.43721 597.285175 369.617564 597.851747S371.671388 598.843248 372.23796 599.126534S373.536356 599.693107 374.433428 599.976393S376.203966 600.472144 377.053824 600.613787S378.847975 600.826251 379.886686 600.826251C385.457975 600.826251 390.203017 598.654396 394.121813 594.31067S400.0 584.726152 400.0 578.588291C400.0 572.261563 397.828144 566.855529 393.484419 562.370161S383.947125 555.642115 377.903683 555.642115C367.51653 555.642115 358.876346 562.063263 351.983003 574.905571Z" fill="#010101" />
<path d="M348.016997 280.649984C347.922568 283.482845 347.804533 285.772746 347.66289 287.519673C347.521246 289.266599 347.167139 291.485678 346.600567 294.176896S345.349387 299.087194 344.546742 300.83412S342.540127 304.540452 340.934844 306.712307S337.440977 310.678313 335.269122 312.094743S330.358824 314.880395 327.053824 316.202392S319.971671 318.563115 315.72238 319.31854V322.151401H384.27762V319.31854C380.028329 318.56311 376.251176 317.500792 372.946176 316.131571S366.879136 313.369531 364.660057 311.9531S360.552408 308.718922 358.994334 306.499843S356.232295 302.321372 355.382436 300.621656S353.847975 296.70286 353.328612 293.964432S352.478754 289.030537 352.33711 287.37803C352.195467 285.725523 352.077432 283.482845 351.983003 280.649984C354.249292 284.804843 356.090652 287.732137 357.507082 289.431854C360.056657 292.642435 363.196416 295.19201 366.926346 297.080579C370.656275 298.969149 374.315397 299.91344 377.903683 299.91344C383.947125 299.91344 389.140694 297.670763 393.484419 293.185395S400.0 283.293993 400.0 276.967265C400.0 270.829404 398.040609 265.58861 394.121813 261.244885S385.457975 254.729304 379.886686 254.729304C377.998116 254.729304 376.251176 254.988983 374.645892 255.508341S371.435312 256.6887 369.830028 257.491344L366.855524 258.978596C370.538244 253.690593 372.379603 248.685862 372.379603 243.964432C372.379603 238.015423 370.184136 232.916273 365.793201 228.666981S356.137861 222.293044 350.0 222.293044S338.597734 224.41769 334.206799 228.666981S327.620397 238.015423 327.620397 243.964432C327.620397 248.685862 329.461756 253.690593 333.144476 258.978596C332.483475 258.69531 331.56279 258.270381 330.382436 257.703809S328.328612 256.712307 327.76204 256.429021S326.463644 255.862449 325.566572 255.579163S323.796034 255.083412 322.946176 254.941769S321.152025 254.729304 320.113314 254.729304C314.542025 254.729304 309.796983 256.90116 305.878187 261.244885S300.0 270.829404 300.0 276.967265C300.0 283.293993 302.171856 288.700027 306.515581 293.185395S316.052875 299.91344 322.096317 299.91344C332.48347 299.91344 341.123654 293.492293 348.016997 280.649984Z" fill="#010101" />
<path d="M351.983003 419.350016C352.077432 416.517155 352.195467 414.227254 352.33711 412.480327C352.478754 410.733401 352.832861 408.514322 353.399433 405.823104S354.650613 400.912806 355.453258 399.16588S357.459873 395.459548 359.065156 393.287693S362.559023 389.321687 364.730878 387.905257S369.641176 385.119605 372.946176 383.797608S380.028329 381.436885 384.27762 380.68146V377.848599H315.72238V380.68146C319.971671 381.43689 323.748824 382.499208 327.053824 383.868429S333.120864 386.630469 335.339943 388.0469S339.447592 391.281078 341.005666 393.500157S343.767705 397.678628 344.617564 399.378344S346.152025 403.29714 346.671388 406.035568S347.521246 410.969463 347.66289 412.62197C347.804533 414.274477 347.922568 416.517155 348.016997 419.350016C345.750708 415.195157 343.909348 412.267863 342.492918 410.568146C339.943343 407.357565 336.803584 404.80799 333.073654 402.919421C329.343725 401.030851 325.684603 400.08656 322.096317 400.08656C316.052875 400.08656 310.859306 402.329237 306.515581 406.814605S300.0 416.706007 300.0 423.032735C300.0 429.170596 301.959391 434.41139 305.878187 438.755115S314.542025 445.270696 320.113314 445.270696C322.001884 445.270696 323.748824 445.011017 325.354108 444.491659S328.564688 443.3113 330.169972 442.508656L333.144476 441.021404C329.461756 446.309407 327.620397 451.314138 327.620397 456.035568C327.620397 461.984577 329.815864 467.083727 334.206799 471.333019S343.862139 477.706956 350.0 477.706956S361.402266 475.58231 365.793201 471.333019S372.379603 461.984577 372.379603 456.035568C372.379603 451.314138 370.538244 446.309407 366.855524 441.021404C367.516525 441.30469 368.43721 441.729619 369.617564 442.296191S371.671388 443.287693 372.23796 443.570979S373.536356 444.137551 374.433428 444.420837S376.203966 444.916588 377.053824 445.058231S378.847975 445.270696 379.886686 445.270696C385.457975 445.270696 390.203017 443.09884 394.121813 438.755115S400.0 429.170596 400.0 423.032735C400.0 416.706007 397.828144 411.299973 393.484419 406.814605S383.947125 400.08656 377.903683 400.08656C367.51653 400.08656 358.876346 406.507707 351.983003 419.350016Z" fill="#010101" />
<path d="M473.936364 84.433152Q479.6 82.01497 482.654545 77.81497T485.709091 68.269515Q485.709091 62.669515 481.954545 58.533152T470.818182 51.21497Q476.927273 47.524061 479.790909 43.705879T482.654545 35.051333Q482.654545 30.087697 479.345455 25.887697T470.563636 19.269515T458.854545 16.851333Q452.490909 16.851333 447.527273 19.142242T439.763636 25.378606T436.963636 34.287697Q436.963636 38.869515 440.145455 42.878606T449.690909 50.069515Q441.290909 53.633152 437.790909 57.578606T434.290909 67.633152Q434.290909 72.851333 437.663636 77.242242T447.081818 84.242242T460.890909 86.851333Q468.272727 86.851333 473.936364 84.433152ZM448.736364 41.733152Q446.890909 38.105879 446.890909 34.160424Q446.890909 28.687697 450.2 24.933152T459.490909 21.178606Q465.218182 21.178606 468.654545 24.487697T472.090909 32.887697Q472.090909 37.596788 467.445455 40.842242T454.018182 47.778606Q450.581818 45.360424 448.736364 41.733152ZM449.563636 79.087697Q445.745455 75.524061 445.745455 69.924061Q445.745455 66.233152 448.1 63.496788T454.209091 58.787697T465.981818 53.251333Q469.927273 55.924061 472.090909 59.61497T474.254545 67.760424Q474.254545 74.378606 470.245455 78.51497T459.745455 82.651333Q453.381818 82.651333 449.563636 79.087697Z" fill="#010101" />
<path d="M458.958924 136.646797C458.909348 138.134049 458.84738 139.336247 458.773017 140.253384C458.698654 141.17052 458.512748 142.335537 458.215297 143.748426S457.558428 146.326332 457.13704 147.243469S456.083567 149.189293 455.240793 150.329517S453.406513 152.41167 452.266289 153.155296S449.688383 154.617763 447.953258 155.311811S444.235127 156.551191 442.004249 156.947789V158.435041H477.995751V156.947789C475.764873 156.551188 473.781867 155.993471 472.046742 155.27463S468.861546 153.824559 467.69653 153.080933S465.540014 151.38299 464.722025 150.217973S463.271955 148.024276 462.825779 147.131925S462.020187 145.074557 461.747521 143.636882S461.301346 141.046587 461.226983 140.179021C461.15262 139.311455 461.090652 138.134049 461.041076 136.646797C462.230878 138.828098 463.197592 140.364928 463.941218 141.257279C465.279745 142.942834 466.928119 144.281361 468.886331 145.27286C470.844544 146.264359 472.765583 146.760112 474.649433 146.760112C477.82224 146.760112 480.548864 145.582706 482.82932 143.227888S486.25 138.034902 486.25 134.71337C486.25 131.490992 485.22132 128.739576 483.163952 126.45912S478.615437 123.03844 475.69051 123.03844C474.699011 123.03844 473.781867 123.174772 472.939093 123.447435S471.253539 124.067123 470.410765 124.488511L468.84915 125.269319C470.782578 122.493117 471.749292 119.865633 471.749292 117.386882C471.749292 114.263653 470.596671 111.586599 468.291431 109.355721S463.222377 106.009404 460.0 106.009404S454.01381 107.124843 451.708569 109.355721S448.250708 114.263653 448.250708 117.386882C448.250708 119.865633 449.217422 122.493117 451.15085 125.269319C450.803824 125.120593 450.320465 124.897506 449.700779 124.600055S448.622521 124.079517 448.325071 123.930792S447.643413 123.633341 447.17245 123.484616S446.242918 123.224347 445.796742 123.149984S444.854813 123.03844 444.30949 123.03844C441.384563 123.03844 438.893416 124.178665 436.836048 126.45912S433.75 131.490992 433.75 134.71337C433.75 138.034902 434.890224 140.87307 437.17068 143.227888S442.17776 146.760112 445.350567 146.760112C450.803822 146.760112 455.339919 143.389009 458.958924 136.646797Z" fill="#010101" />
<path d="M26.063636 615.566848Q20.4 617.98503 17.345455 622.18503T14.290909 631.730485Q14.290909 637.330485 18.045455 641.466848T29.181818 648.78503Q23.072727 652.475939 20.209091 656.294121T17.345455 664.948667Q17.345455 669.912303 20.654545 674.112303T29.436364 680.730485T41.145455 683.148667Q47.509091 683.148667 52.472727 680.857758T60.236364 674.621394T63.036364 665.712303Q63.036364 661.130485 59.854545 657.121394T50.309091 649.930485Q58.709091 646.366848 62.209091 642.421394T65.709091 632.366848Q65.709091 627.148667 62.336364 622.757758T52.918182 615.757758T39.109091 613.148667Q31.727273 613.148667 26.063636 615.566848ZM51.263636 658.266848Q53.109091 661.894121 53.109091 665.839576Q53.109091 671.312303 49.8 675.066848T40.509091 678.821394Q34.781818 678.821394 31.345455 675.512303T27.909091 667.112303Q27.909091 662.403212 32.554545 659.157758T45.981818 652.221394Q49.418182 654.639576 51.263636 658.266848ZM50.436364 620.912303Q54.254545 624.475939 54.254545 630.075939Q54.254545 633.766848 51.9 636.503212T45.790909 641.212303T34.018182 646.748667Q30.072727 644.075939 27.909091 640.38503T25.745455 632.239576Q25.745455 625.621394 29.754545 621.48503T40.254545 617.348667Q46.618182 617.348667 50.436364 620.912303Z" fill="#010101" />
<path d="M41.041076 563.353203C41.090652 561.865951 41.15262 560.663753 41.226983 559.746616C41.301346 558.82948 41.487252 557.664463 41.784703 556.251574S42.441572 553.673668 42.86296 552.756531S43.916433 550.810707 44.759207 549.670483S46.593487 547.58833 47.733711 546.844704S50.311617 545.382237 52.046742 544.688189S55.764873 543.448809 57.995751 543.052211V541.564959H22.004249V543.052211C24.235127 543.448812 26.218133 544.006529 27.953258 544.72537S31.138454 546.175441 32.30347 546.919067S34.459986 548.61701 35.277975 549.782027S36.728045 551.975724 37.174221 552.868075S37.979813 554.925443 38.252479 556.363118S38.698654 558.953413 38.773017 559.820979C38.84738 560.688545 38.909348 561.865951 38.958924 563.353203C37.769122 561.171902 36.802408 559.635072 36.058782 558.742721C34.720255 557.057166 33.071881 555.718639 31.113669 554.72714C29.155456 553.735641 27.234417 553.239888 25.350567 553.239888C22.17776 553.239888 19.451136 554.417294 17.17068 556.772112S13.75 561.965098 13.75 565.28663C13.75 568.509008 14.77868 571.260424 16.836048 573.54088S21.384563 576.96156 24.30949 576.96156C25.300989 576.96156 26.218133 576.825228 27.060907 576.552565S28.746461 575.932877 29.589235 575.511489L31.15085 574.730681C29.217422 577.506883 28.250708 580.134367 28.250708 582.613118C28.250708 585.736347 29.403329 588.413401 31.708569 590.644279S36.777623 593.990596 40.0 593.990596S45.98619 592.875157 48.291431 590.644279S51.749292 585.736347 51.749292 582.613118C51.749292 580.134367 50.782578 577.506883 48.84915 574.730681C49.196176 574.879407 49.679535 575.102494 50.299221 575.399945S51.377479 575.920483 51.674929 576.069208S52.356587 576.366659 52.82755 576.515384S53.757082 576.775653 54.203258 576.850016S55.145187 576.96156 55.69051 576.96156C58.615437 576.96156 61.106584 575.821335 63.163952 573.54088S66.25 568.509008 66.25 565.28663C66.25 561.965098 65.109776 559.12693 62.82932 556.772112S57.82224 553.239888 54.649433 553.239888C49.196178 553.239888 44.660081 556.610991 41.041076 563.353203Z" fill="#010101" />
</svg>
