<svg width="25.000000" height="35.000000" id="card-lightspade11">
<rect x="0" y="0" rx="1.25" ry="1.25" width="25" height="35.0" stroke="rgba(1,1,1,0.333)" fill="#fffdfa" />
<rect x="5.0" y="3.5" width="15.0" height="28.0" stroke="#010101" fill="#fffdfa" />
<path d="M14.804965 10.335437C14.634752 10.335437 14.431443 10.243239 14.195035 10.058842S13.840426 9.706596 13.840426 9.555296C13.840426 9.432364 13.953901 9.370898 14.180851 9.370898C14.369976 9.370898 14.55201 9.446548 14.72695 9.597849S14.989362 9.909905 14.989362 10.080118S14.927896 10.335437 14.804965 10.335437ZM16.762411 12.661678C16.705674 12.311796 16.393617 11.536383 15.826241 10.335437S14.975177 8.354345 14.975177 7.995012C14.975177 7.711324 14.998818 7.456005 15.046099 7.229054C14.299054 7.229054 13.769504 7.385083 13.457447 7.697139C13.183216 7.252696 12.975177 7.030473 12.833333 7.030473C12.578014 7.172317 12.410166 7.304704 12.329787 7.427636S12.147755 7.801158 12.024823 8.179409C11.949173 8.160497 11.873522 8.15104 11.797872 8.15104C11.599291 8.15104 11.365248 8.20305 11.095745 8.307069S10.521277 8.607305 10.180851 8.895721S9.528369 9.543476 9.244681 9.973735S8.722223 10.98792 8.528369 11.725508S8.237589 13.290515 8.237589 14.207778C8.237589 14.642766 8.256501 15.0352 8.294326 15.385083H14.280142C14.270686 14.969008 14.185579 14.593121 14.024823 14.257423S13.691489 13.659314 13.507092 13.470189C13.322695 13.281064 13.14539 13.049385 12.975177 12.775154S12.700946 12.217235 12.663121 11.92409C13.022458 12.065934 13.334515 12.255059 13.599291 12.491466S14.048464 12.943002 14.152482 13.136856S14.358156 13.500922 14.457447 13.647494C14.556738 13.794066 14.653664 13.867352 14.748227 13.867352C14.984634 13.867352 15.102837 13.720781 15.102837 13.427636C15.1974 13.550567 15.306146 13.612033 15.429078 13.612033L15.712766 13.541111C16.005911 13.465461 16.22104 13.368534 16.358156 13.250331C16.495272 13.132128 16.630024 12.93591 16.762411 12.661678ZM15.897163 12.207778C16.029551 12.207778 16.143026 12.250331 16.237589 12.335437S16.379433 12.524562 16.379433 12.647494C16.379433 12.685319 16.365248 12.7326 16.336879 12.789338C16.204492 12.789338 16.09338 12.751513 16.003546 12.675863S15.868794 12.500922 15.868794 12.377991C15.868794 12.359078 15.878251 12.30234 15.897163 12.207778ZM8.932624 14.392175C8.932624 13.692412 9.015366 13.025745 9.180851 12.392175S9.554373 11.229054 9.804965 10.803522S10.327423 10.006832 10.620567 9.690047C10.913712 9.373263 11.187943 9.141583 11.443262 8.995012S11.916075 8.775154 12.095745 8.775154C12.275414 8.794066 12.365248 8.855532 12.365248 8.959551C12.365248 9.016288 12.351064 9.054114 12.322695 9.073026C11.386525 9.545839 10.674936 10.271608 10.187943 11.250331S9.457447 13.271608 9.457447 14.377991C9.457447 14.63331 9.367612 14.760969 9.187943 14.760969C9.01773 14.760969 8.932624 14.638038 8.932624 14.392175Z" fill="#010101" />
<path d="M10.195035 24.664563C10.365248 24.664563 10.568557 24.756761 10.804965 24.941158S11.159574 25.293404 11.159574 25.444704C11.159574 25.567636 11.046099 25.629102 10.819149 25.629102C10.630024 25.629102 10.44799 25.553452 10.27305 25.402151S10.010638 25.090095 10.010638 24.919882S10.072104 24.664563 10.195035 24.664563ZM8.237589 22.338322C8.294326 22.688204 8.606383 23.463617 9.173759 24.664563S10.024823 26.645655 10.024823 27.004988C10.024823 27.288676 10.001182 27.543995 9.953901 27.770946C10.700946 27.770946 11.230496 27.614917 11.542553 27.302861C11.816784 27.747304 12.024823 27.969527 12.166667 27.969527C12.421986 27.827683 12.589834 27.695296 12.670213 27.572364S12.852245 27.198842 12.975177 26.820591C13.050827 26.839503 13.126478 26.84896 13.202128 26.84896C13.400709 26.84896 13.634752 26.79695 13.904255 26.692931S14.478723 26.392695 14.819149 26.104279S15.471631 25.456524 15.755319 25.026265S16.277777 24.01208 16.471631 23.274492S16.762411 21.709485 16.762411 20.792222C16.762411 20.357234 16.743499 19.9648 16.705674 19.614917H10.719858C10.729314 20.030992 10.814421 20.406879 10.975177 20.742577S11.308511 21.340686 11.492908 21.529811C11.677305 21.718936 11.85461 21.950615 12.024823 22.224846S12.299054 22.782765 12.336879 23.07591C11.977542 22.934066 11.665485 22.744941 11.400709 22.508534S10.951536 22.056998 10.847518 21.863144S10.641844 21.499078 10.542553 21.352506C10.443262 21.205934 10.346336 21.132648 10.251773 21.132648C10.015366 21.132648 9.897163 21.279219 9.897163 21.572364C9.8026 21.449433 9.693854 21.387967 9.570922 21.387967L9.287234 21.458889C8.994089 21.534539 8.77896 21.631466 8.641844 21.749669C8.504728 21.867872 8.369976 22.06409 8.237589 22.338322ZM9.102837 22.792222C8.970449 22.792222 8.856974 22.749669 8.762411 22.664563S8.620567 22.475438 8.620567 22.352506C8.620567 22.314681 8.634752 22.2674 8.663121 22.210662C8.795508 22.210662 8.90662 22.248487 8.996454 22.324137S9.131206 22.499078 9.131206 22.622009C9.131206 22.640922 9.121749 22.69766 9.102837 22.792222ZM16.067376 20.607825C16.067376 21.307588 15.984634 21.974255 15.819149 22.607825S15.445627 23.770946 15.195035 24.196478S14.672577 24.993168 14.379433 25.309953C14.086288 25.626737 13.812057 25.858417 13.556738 26.004988S13.083925 26.224846 12.904255 26.224846C12.724586 26.205934 12.634752 26.144468 12.634752 26.040449C12.634752 25.983712 12.648936 25.945886 12.677305 25.926974C13.613475 25.454161 14.325064 24.728392 14.812057 23.749669S15.542553 21.728392 15.542553 20.622009C15.542553 20.36669 15.632388 20.239031 15.812057 20.239031C15.98227 20.239031 16.067376 20.361962 16.067376 20.607825Z" fill="#010101" />
<path d="M23.576271 4.342567Q23.635593 4.342567 23.65678 4.270533Q23.661017 4.257821 23.661017 4.232397Q23.661017 4.18155 23.614407 4.164601Q23.402542 4.075618 23.300847 3.910363T23.169492 3.501465T23.139831 2.842567V1.351041Q23.144068 1.245109 23.158898 1.179431T23.233051 1.069262T23.415254 1.02477H23.440678Q23.483051 1.02477 23.502119 1.00994T23.525424 0.935787Q23.525424 0.897651 23.504237 0.870109T23.449153 0.842567Q23.177966 0.855279 22.944915 0.855279Q22.686441 0.855279 22.415254 0.842567Q22.377119 0.842567 22.358051 0.870109T22.338983 0.935787Q22.34322 0.999346 22.366525 1.012058T22.449153 1.02477Q22.572034 1.02477 22.631356 1.069262T22.705508 1.179431T22.724576 1.351041V2.986634Q22.724576 3.533245 22.917373 3.882821T23.559322 4.342567H23.576271Z" fill="#010101" />
<path d="M22.938564 7.037441C22.926152 7.166519 22.895124 7.280703 22.845479 7.379994C22.795833 7.479285 22.743706 7.554994 22.689096 7.607122S22.565603 7.70393 22.482447 7.741164C22.399291 7.778398 22.335372 7.8026 22.290691 7.813771S22.191401 7.835491 22.126862 7.84542C22.116933 7.847902 22.109486 7.849143 22.104521 7.849143V7.923611H23.895479V7.849143C23.684486 7.811909 23.524379 7.757299 23.41516 7.685313C23.206649 7.546306 23.088741 7.330349 23.061436 7.037441C23.190514 7.236022 23.356826 7.335313 23.560372 7.335313C23.691933 7.335313 23.804255 7.289391 23.89734 7.197547S24.036968 6.994001 24.036968 6.862441C24.036968 6.750739 24.009663 6.648966 23.955053 6.557122C23.900443 6.465278 23.829698 6.381501 23.742819 6.305792S23.566578 6.151271 23.474734 6.069356C23.38289 5.987441 23.292287 5.880083 23.202926 5.747281S23.045302 5.464923 22.998138 5.298611C22.95594 5.462441 22.89078 5.610136 22.80266 5.741696S22.623936 5.979994 22.530851 6.061909S22.347784 6.223256 22.260904 6.300207S22.10266 6.461554 22.046809 6.553398S21.963032 6.748256 21.963032 6.862441C21.963032 6.994001 22.009574 7.105703 22.10266 7.197547S22.308067 7.335313 22.439628 7.335313C22.643174 7.335313 22.809486 7.236022 22.938564 7.037441Z" fill="#010101" />
<path d="M1.423729 30.657433Q1.364407 30.657433 1.34322 30.729467Q1.338983 30.742179 1.338983 30.767603Q1.338983 30.81845 1.385593 30.835399Q1.597458 30.924382 1.699153 31.089637T1.830508 31.498535T1.860169 32.157433V33.648959Q1.855932 33.754891 1.841102 33.820569T1.766949 33.930738T1.584746 33.97523H1.559322Q1.516949 33.97523 1.497881 33.99006T1.474576 34.064213Q1.474576 34.102349 1.495763 34.129891T1.550847 34.157433Q1.822034 34.144721 2.055085 34.144721Q2.313559 34.144721 2.584746 34.157433Q2.622881 34.157433 2.641949 34.129891T2.661017 34.064213Q2.65678 34.000654 2.633475 33.987942T2.550847 33.97523Q2.427966 33.97523 2.368644 33.930738T2.294492 33.820569T2.275424 33.648959V32.013366Q2.275424 31.466755 2.082627 31.117179T1.440678 30.657433H1.423729Z" fill="#010101" />
<path d="M2.061436 27.962559C2.073848 27.833481 2.104876 27.719297 2.154521 27.620006C2.204167 27.520715 2.256294 27.445006 2.310904 27.392878S2.434397 27.29607 2.517553 27.258836C2.600709 27.221602 2.664628 27.1974 2.709309 27.186229S2.808599 27.164509 2.873138 27.15458C2.883067 27.152098 2.890514 27.150857 2.895479 27.150857V27.076389H1.104521V27.150857C1.315514 27.188091 1.475621 27.242701 1.58484 27.314687C1.793351 27.453694 1.911259 27.669651 1.938564 27.962559C1.809486 27.763978 1.643174 27.664687 1.439628 27.664687C1.308067 27.664687 1.195745 27.710609 1.10266 27.802453S0.963032 28.005999 0.963032 28.137559C0.963032 28.249261 0.990337 28.351034 1.044947 28.442878C1.099557 28.534722 1.170302 28.618499 1.257181 28.694208S1.433422 28.848729 1.525266 28.930644C1.61711 29.012559 1.707713 29.119917 1.797074 29.252719S1.954698 29.535077 2.001862 29.701389C2.04406 29.537559 2.10922 29.389864 2.19734 29.258304S2.376064 29.020006 2.469149 28.938091S2.652216 28.776744 2.739096 28.699793S2.89734 28.538446 2.953191 28.446602S3.036968 28.251744 3.036968 28.137559C3.036968 28.005999 2.990426 27.894297 2.89734 27.802453S2.691933 27.664687 2.560372 27.664687C2.356826 27.664687 2.190514 27.763978 2.061436 27.962559Z" fill="#010101" />
</svg>
