<svg width="150.000000" height="210.000000" id="card-webspade3">
<radialGradient id="card-webwhitegradient" cx="75.0" cy="105.0" r="150" gradientTransform="matrix(1 0 0 1 0 -.25)" gradientUnits="userSpaceOnUse">
<stop stop-color="#FDFAF4" offset=".15"/>
<stop stop-color="#FDF9F2" offset=".35"/>
<stop stop-color="#FCF7F1" offset=".5"/>
<stop stop-color="#FDFDF8" offset=".75"/>
<stop stop-color="#FFFDFA" offset="1"/>
</radialGradient>
<rect x="0" y="0" rx="7.5" ry="7.5" width="150" height="210.0" stroke="rgba(1,1,1,0.333)" fill="url(#card-webwhitegradient)" />
<path d="M74.297872 39.87234C74.156029 41.347519 73.801417 42.652481 73.234043 43.787234C72.666668 44.921987 72.070923 45.787234 71.446809 46.382979S70.03546 47.489362 69.085106 47.914894C68.134753 48.340426 67.404255 48.617021 66.893617 48.744681S65.758864 48.992908 65.021277 49.106383C64.907801 49.134752 64.822695 49.148936 64.765957 49.148936V50.0H85.234043V49.148936C82.822694 48.723404 80.992906 48.099289 79.744681 47.276596C77.361702 45.687945 76.014183 43.21986 75.702128 39.87234C77.177306 42.141843 79.078013 43.276596 81.404255 43.276596C82.9078 43.276596 84.191489 42.751774 85.255319 41.702128S86.851064 39.375885 86.851064 37.87234C86.851064 36.595745 86.539007 35.432626 85.914894 34.382979C85.290779 33.333332 84.482268 32.375885 83.489362 31.510638S81.475179 29.744681 80.425532 28.808511C79.375885 27.87234 78.340426 26.645391 77.319149 25.12766S75.517732 21.900711 74.978723 20.0C74.496455 21.87234 73.751774 23.560285 72.744681 25.06383S70.702128 27.787234 69.638298 28.723404S67.546098 30.567374 66.553191 31.446809S64.744681 33.290779 64.106383 34.340426S63.148936 36.567374 63.148936 37.87234C63.148936 39.375885 63.680851 40.652481 64.744681 41.702128S67.0922 43.276596 68.595745 43.276596C70.921987 43.276596 72.822694 42.141843 74.297872 39.87234Z" fill="#010101" />
<path d="M75.702128 170.12766C75.843971 168.652481 76.198583 167.347519 76.765957 166.212766C77.333332 165.078013 77.929077 164.212766 78.553191 163.617021S79.96454 162.510638 80.914894 162.085106C81.865247 161.659574 82.595745 161.382979 83.106383 161.255319S84.241136 161.007092 84.978723 160.893617C85.092199 160.865248 85.177305 160.851064 85.234043 160.851064V160.0H64.765957V160.851064C67.177306 161.276596 69.007094 161.900711 70.255319 162.723404C72.638298 164.312055 73.985817 166.78014 74.297872 170.12766C72.822694 167.858157 70.921987 166.723404 68.595745 166.723404C67.0922 166.723404 65.808511 167.248226 64.744681 168.297872S63.148936 170.624115 63.148936 172.12766C63.148936 173.404255 63.460993 174.567374 64.085106 175.617021C64.709221 176.666668 65.517732 177.624115 66.510638 178.489362S68.524821 180.255319 69.574468 181.191489C70.624115 182.12766 71.659574 183.354609 72.680851 184.87234S74.482268 188.099289 75.021277 190.0C75.503545 188.12766 76.248226 186.439715 77.255319 184.93617S79.297872 182.212766 80.361702 181.276596S82.453902 179.432626 83.446809 178.553191S85.255319 176.709221 85.893617 175.659574S86.851064 173.432626 86.851064 172.12766C86.851064 170.624115 86.319149 169.347519 85.255319 168.297872S82.9078 166.723404 81.404255 166.723404C79.078013 166.723404 77.177306 167.858157 75.702128 170.12766Z" fill="#010101" />
<path d="M74.297872 109.87234C74.156029 111.347519 73.801417 112.652481 73.234043 113.787234C72.666668 114.921987 72.070923 115.787234 71.446809 116.382979S70.03546 117.489362 69.085106 117.914894C68.134753 118.340426 67.404255 118.617021 66.893617 118.744681S65.758864 118.992908 65.021277 119.106383C64.907801 119.134752 64.822695 119.148936 64.765957 119.148936V120.0H85.234043V119.148936C82.822694 118.723404 80.992906 118.099289 79.744681 117.276596C77.361702 115.687945 76.014183 113.21986 75.702128 109.87234C77.177306 112.141843 79.078013 113.276596 81.404255 113.276596C82.9078 113.276596 84.191489 112.751774 85.255319 111.702128S86.851064 109.375885 86.851064 107.87234C86.851064 106.595745 86.539007 105.432626 85.914894 104.382979C85.290779 103.333332 84.482268 102.375885 83.489362 101.510638S81.475179 99.744681 80.425532 98.808511C79.375885 97.87234 78.340426 96.645391 77.319149 95.12766S75.517732 91.900711 74.978723 90.0C74.496455 91.87234 73.751774 93.560285 72.744681 95.06383S70.702128 97.787234 69.638298 98.723404S67.546098 100.567374 66.553191 101.446809S64.744681 103.290779 64.106383 104.340426S63.148936 106.567374 63.148936 107.87234C63.148936 109.375885 63.680851 110.652481 64.744681 111.702128S67.0922 113.276596 68.595745 113.276596C70.921987 113.276596 72.822694 112.141843 74.297872 109.87234Z" fill="#010101" />
<path d="M143.326087 24.971161Q145.247283 23.886922 145.247283 21.79453Q145.247283 20.69127 144.5625 19.892357T142.660326 19.093443Q141.9375 19.093443 141.423913 19.473878T140.910326 20.120617Q140.910326 20.158661 141.252717 20.405943T141.880435 21.071704T142.165761 22.136922Q142.165761 23.31627 141.157609 23.98203T138.513587 24.647791Q134.442935 24.647791 134.442935 20.120617Q134.442935 18.256487 135.432065 17.134204T138.399457 15.897791H139.807065Q140.07337 15.897791 140.225543 15.66953T140.377717 15.136922Q140.377717 14.79453 140.225543 14.547248T139.807065 14.261922H138.399457Q136.915761 14.109748 136.021739 12.9304T135.127717 10.077139Q135.127717 8.251052 136.154891 7.280943T138.55163 6.310835Q139.845109 6.310835 140.777174 7.052683T141.709239 9.088009Q141.709239 9.924965 141.38587 10.210291T140.758152 10.552683T140.453804 10.647791Q140.453804 10.914096 140.967391 11.29453T142.203804 11.674965Q143.421196 11.674965 144.105978 10.914096T144.790761 8.973878Q144.790761 7.109748 143.040761 6.082574T138.513587 5.0554Q135.546196 5.0554 133.605978 6.348878T131.665761 10.077139Q131.665761 11.674965 132.788043 13.04453T136.002717 14.984748V15.136922Q133.872283 15.365183 132.3125 16.487465T130.752717 20.04453Q130.752717 23.126052 132.997283 24.590726T138.627717 26.0554Q141.404891 26.0554 143.326087 24.971161Z" fill="#010101" />
<path d="M137.631383 42.224645C137.556915 42.999114 137.370744 43.684219 137.072872 44.279965C136.775001 44.87571 136.462235 45.329965 136.134574 45.64273S135.393616 46.223582 134.894681 46.446986C134.395745 46.67039 134.012234 46.815603 133.744149 46.882624S133.148404 47.012943 132.76117 47.072518C132.701596 47.087411 132.656915 47.094858 132.627128 47.094858V47.541667H143.372872V47.094858C142.106914 46.871454 141.146276 46.543794 140.490957 46.111879C139.239894 45.277838 138.532446 43.982093 138.368617 42.224645C139.143086 43.416134 140.140957 44.011879 141.362234 44.011879C142.151595 44.011879 142.825532 43.736348 143.384043 43.185284S144.221809 41.964006 144.221809 41.174645C144.221809 40.504433 144.057979 39.893795 143.730319 39.34273C143.402659 38.791666 142.978191 38.289006 142.456915 37.834752S141.399469 36.907624 140.848404 36.416135C140.29734 35.924645 139.753723 35.280497 139.217553 34.483688S138.271809 32.78954 137.98883 31.791667C137.735639 32.774645 137.344682 33.660816 136.815957 34.450177S135.743617 35.879965 135.185106 36.371454S134.086701 37.339538 133.565426 37.801241S132.615957 38.769325 132.280851 39.32039S131.778191 40.489538 131.778191 41.174645C131.778191 41.964006 132.057447 42.634219 132.615957 43.185284S133.848405 44.011879 134.637766 44.011879C135.859043 44.011879 136.856914 43.416134 137.631383 42.224645Z" fill="#010101" />
<path d="M6.673913 185.028839Q4.752717 186.113078 4.752717 188.20547Q4.752717 189.30873 5.4375 190.107643T7.339674 190.906557Q8.0625 190.906557 8.576087 190.526122T9.089674 189.879383Q9.089674 189.841339 8.747283 189.594057T8.119565 188.928296T7.834239 187.863078Q7.834239 186.68373 8.842391 186.01797T11.486413 185.352209Q15.557065 185.352209 15.557065 189.879383Q15.557065 191.743513 14.567935 192.865796T11.600543 194.102209H10.192935Q9.92663 194.102209 9.774457 194.33047T9.622283 194.863078Q9.622283 195.20547 9.774457 195.452752T10.192935 195.738078H11.600543Q13.084239 195.890252 13.978261 197.0696T14.872283 199.922861Q14.872283 201.748948 13.845109 202.719057T11.44837 203.689165Q10.154891 203.689165 9.222826 202.947317T8.290761 200.911991Q8.290761 200.075035 8.61413 199.789709T9.241848 199.447317T9.546196 199.352209Q9.546196 199.085904 9.032609 198.70547T7.796196 198.325035Q6.578804 198.325035 5.894022 199.085904T5.209239 201.026122Q5.209239 202.890252 6.959239 203.917426T11.486413 204.9446Q14.453804 204.9446 16.394022 203.651122T18.334239 199.922861Q18.334239 198.325035 17.211957 196.95547T13.997283 195.015252V194.863078Q16.127717 194.634817 17.6875 193.512535T19.247283 189.95547Q19.247283 186.873948 17.002717 185.409274T11.372283 183.9446Q8.595109 183.9446 6.673913 185.028839Z" fill="#010101" />
<path d="M12.368617 167.775355C12.443085 167.000886 12.629256 166.315781 12.927128 165.720035C13.224999 165.12429 13.537765 164.670035 13.865426 164.35727S14.606384 163.776418 15.105319 163.553014C15.604255 163.32961 15.987766 163.184397 16.255851 163.117376S16.851596 162.987057 17.23883 162.927482C17.298404 162.912589 17.343085 162.905142 17.372872 162.905142V162.458333H6.627128V162.905142C7.893086 163.128546 8.853724 163.456206 9.509043 163.888121C10.760106 164.722162 11.467554 166.017907 11.631383 167.775355C10.856914 166.583866 9.859043 165.988121 8.637766 165.988121C7.848405 165.988121 7.174468 166.263652 6.615957 166.814716S5.778191 168.035994 5.778191 168.825355C5.778191 169.495567 5.942021 170.106205 6.269681 170.65727C6.597341 171.208334 7.021809 171.710994 7.543085 172.165248S8.600531 173.092376 9.151596 173.583865C9.70266 174.075355 10.246277 174.719503 10.782447 175.516312S11.728191 177.21046 12.01117 178.208333C12.264361 177.225355 12.655318 176.339184 13.184043 175.549823S14.256383 174.120035 14.814894 173.628546S15.913299 172.660462 16.434574 172.198759S17.384043 171.230675 17.719149 170.67961S18.221809 169.510462 18.221809 168.825355C18.221809 168.035994 17.942553 167.365781 17.384043 166.814716S16.151595 165.988121 15.362234 165.988121C14.140957 165.988121 13.143086 166.583866 12.368617 167.775355Z" fill="#010101" />
</svg>
