<svg width="25.000000" height="35.000000" id="card-lightdiamond12">
<rect x="0" y="0" rx="1.25" ry="1.25" width="25" height="35.0" stroke="rgba(1,1,1,0.333)" fill="#fffdfa" />
<rect x="5.0" y="3.5" width="15.0" height="28.0" stroke="#010101" fill="#fffdfa" />
<path d="M12.506954 12.570782C11.996986 12.570782 11.52179 12.587008 11.081363 12.619461C10.640936 12.651913 10.383634 12.668139 10.309458 12.668139C10.198192 12.668139 10.128651 12.661185 10.100834 12.647277S10.05911 12.598598 10.05911 12.542966C10.05911 12.357523 10.344228 12.216123 10.914465 12.118765S12.010894 11.972729 12.493046 11.972729C12.984469 11.972729 13.512981 12.021408 14.078581 12.118765C14.644182 12.216123 14.926982 12.357523 14.926982 12.542966C14.926982 12.589326 14.913074 12.621779 14.885257 12.640323S14.7879 12.668139 14.676634 12.668139C14.667362 12.668139 14.389197 12.651913 13.842142 12.619461S12.850024 12.570782 12.506954 12.570782ZM10.239917 13.196651C10.972416 13.10393 11.723463 13.057569 12.493046 13.057569C13.299722 13.057569 14.050765 13.10393 14.746175 13.196651C14.63491 13.289373 14.579277 13.47018 14.579277 13.739071C14.579277 13.915242 14.607093 14.021871 14.662726 14.05896C14.097125 13.956967 13.373898 13.90597 12.493046 13.90597C11.602921 13.90597 10.879694 13.956967 10.323366 14.05896C10.378999 14.021871 10.406815 13.915242 10.406815 13.739071C10.406815 13.47018 10.351182 13.289373 10.239917 13.196651ZM10.226008 14.782187C10.226008 14.522566 10.981687 14.392757 12.493046 14.392757S14.760083 14.522567 14.760083 14.782187C14.760083 15.013991 14.004405 15.129892 12.493046 15.129892S10.226008 15.01399 10.226008 14.782187ZM12.493046 7.118765C12.72485 7.118765 12.840751 7.230031 12.840751 7.452562C12.840751 7.693637 12.724849 7.814176 12.493046 7.814176C12.270515 7.814176 12.159249 7.693638 12.159249 7.452562C12.159249 7.230031 12.270515 7.118765 12.493046 7.118765ZM12.979833 8.829475C12.979833 8.514221 13.028512 8.222149 13.125869 7.953258S13.271905 7.531376 13.271905 7.494287C13.271905 7.281028 13.19541 7.097903 13.04242 6.944913S12.706305 6.715427 12.493046 6.715427S12.098981 6.791922 11.950626 6.944913S11.728095 7.281028 11.728095 7.494287C11.728095 7.531375 11.779091 7.682048 11.881085 7.946304S12.034075 8.50495 12.034075 8.829475C12.034075 9.28381 11.932082 9.956039 11.728095 10.846164C11.227399 9.789141 10.977051 8.991742 10.977051 8.453953C10.977051 8.39832 10.99096 8.294009 11.018776 8.141018S11.060501 7.892989 11.060501 7.8559C11.060501 7.642641 10.986324 7.459516 10.837969 7.306526C10.689615 7.153536 10.508808 7.077041 10.295549 7.077041C10.073018 7.077041 9.885257 7.153536 9.732267 7.306526S9.502782 7.642641 9.502782 7.8559C9.502782 8.022799 9.535234 8.154927 9.600139 8.252284S9.739221 8.423818 9.82267 8.474815S9.980296 8.648668 10.045202 8.843383S10.142559 9.306989 10.142559 9.650059C10.142559 9.891134 10.119379 10.280564 10.073018 10.818348C9.47033 10.197114 9.168985 9.691783 9.168985 9.302354L9.182893 9.17718C9.192165 9.09373 9.203755 9.007963 9.217663 8.919878S9.238526 8.778477 9.238526 8.759934C9.238526 8.555946 9.162031 8.375139 9.00904 8.217514S8.677562 7.981074 8.473574 7.981074C8.260316 7.981074 8.074872 8.057569 7.917246 8.210559S7.680807 8.546675 7.680807 8.759934C7.680807 9.140091 7.894065 9.427527 8.320584 9.622242C8.339128 9.993128 8.506026 10.827621 8.82128 12.125719C8.82128 12.209169 8.995132 12.464152 9.342837 12.890671S9.864395 13.595354 9.864395 13.725163C9.864395 13.808612 9.79949 13.984783 9.66968 14.253675S9.474965 14.745098 9.474965 14.921269V15.1438C9.474965 15.357059 9.811081 15.503095 10.48331 15.581909C11.15554 15.660722 11.830088 15.700128 12.506954 15.700128C13.257997 15.700128 13.948776 15.656086 14.579277 15.568C15.209782 15.479915 15.525035 15.338515 15.525035 15.1438V14.921269C15.525035 14.726554 15.462448 14.49475 15.337274 14.225858S15.149513 13.790068 15.149513 13.725163C15.149513 13.530448 15.300185 13.266192 15.60153 12.932395S16.095271 12.329707 16.17872 12.125719C16.493974 10.846164 16.660872 10.011672 16.679416 9.622242C17.105935 9.427527 17.319193 9.140091 17.319193 8.759934C17.319193 8.546675 17.24038 8.36355 17.082754 8.210559C16.925128 8.057569 16.744321 7.981074 16.540334 7.981074C16.327075 7.981074 16.14395 8.057569 15.99096 8.210559S15.761474 8.546675 15.761474 8.759934C15.761474 8.769206 15.773064 8.857291 15.796245 9.024189S15.831015 9.28381 15.831015 9.302354C15.831015 9.710327 15.534307 10.21566 14.94089 10.818348C14.894529 10.410374 14.871349 10.020945 14.871349 9.650059C14.871349 9.316262 14.903802 9.049687 14.968707 8.850337S15.107789 8.525813 15.191238 8.474815S15.348864 8.347323 15.413769 8.24533S15.511127 8.013526 15.511127 7.8559C15.511127 7.642641 15.432313 7.459516 15.274687 7.306526S14.931618 7.077041 14.718359 7.077041C14.5051 7.077041 14.321975 7.153536 14.168985 7.306526S13.939499 7.642641 13.939499 7.8559L13.981224 8.120156C14.00904 8.296327 14.022949 8.407593 14.022949 8.453953C14.022949 8.982465 13.772601 9.779868 13.271905 10.846164C13.077191 10.002399 12.979833 9.33017 12.979833 8.829475ZM8.473574 8.426137C8.557024 8.426137 8.633519 8.458589 8.70306 8.523494C8.772601 8.588399 8.807371 8.667212 8.807371 8.759934C8.807371 8.861927 8.774919 8.947694 8.710014 9.017235S8.566296 9.121547 8.473574 9.121547C8.241771 9.121547 8.125869 9.001009 8.125869 8.759934C8.125869 8.537402 8.241771 8.426137 8.473574 8.426137ZM10.295549 7.536011C10.388271 7.536011 10.467083 7.570782 10.531989 7.640323S10.629346 7.790995 10.629346 7.883717S10.596894 8.057569 10.531989 8.12711S10.388271 8.231422 10.295549 8.231422C10.054474 8.231422 9.933936 8.11552 9.933936 7.883717S10.054474 7.536011 10.295549 7.536011ZM14.718359 7.536011C14.950163 7.536011 15.066064 7.651913 15.066064 7.883717S14.950162 8.231422 14.718359 8.231422C14.495828 8.231422 14.384562 8.11552 14.384562 7.883717S14.495828 7.536011 14.718359 7.536011ZM16.540334 8.426137C16.772138 8.426137 16.888039 8.537402 16.888039 8.759934C16.888039 9.001009 16.772137 9.121547 16.540334 9.121547C16.317803 9.121547 16.206537 9.001009 16.206537 8.759934C16.206537 8.667212 16.241307 8.588399 16.310848 8.523494C16.380389 8.458589 16.456885 8.426137 16.540334 8.426137ZM12.493046 9.316262C12.576495 9.82623 12.669217 10.227249 12.77121 10.519322S12.965925 11.017699 13.049374 11.138237S13.18382 11.356132 13.202364 11.430309C13.248725 11.374676 13.327538 11.281954 13.438804 11.152145S13.619611 10.934249 13.647427 10.887889S13.728558 10.760397 13.807371 10.644495S13.948772 10.41501 13.995132 10.303744S14.101762 10.044124 14.175939 9.858682S14.328929 9.459979 14.412378 9.218904C14.393834 9.348714 14.384562 9.48316 14.384562 9.622242C14.384562 10.058032 14.463375 10.730263 14.621001 11.638932C15.121697 11.342224 15.608484 10.869345 16.081363 10.220295C15.858832 11.323679 15.687298 11.940281 15.566759 12.070087C15.548215 12.088631 15.529671 12.102539 15.511127 12.111811C14.750811 11.676021 13.744784 11.458125 12.493046 11.458125C11.232035 11.458125 10.226008 11.676021 9.474965 12.111811C9.308067 12.056178 9.122624 11.425673 8.918637 10.220295C9.400789 10.887889 9.882939 11.360768 10.36509 11.638932C10.522716 10.832256 10.60153 10.19711 10.60153 9.733508C10.60153 9.61297 10.592258 9.441436 10.573713 9.218904C10.712796 9.645423 10.854196 10.004718 10.997914 10.29679C11.141631 10.588863 11.257534 10.785896 11.345619 10.887889S11.519471 11.08724 11.602921 11.179961S11.746638 11.356132 11.783727 11.430309C11.830088 11.34686 11.885721 11.251821 11.950626 11.145191S12.057255 10.962066 12.0758 10.915705S12.126797 10.778941 12.173157 10.644495S12.265879 10.343151 12.312239 10.1438S12.418869 9.668603 12.493046 9.316262Z" fill="#da0a0a" />
<path d="M12.493046 22.429218C13.003014 22.429218 13.47821 22.412992 13.918637 22.380539C14.359064 22.348087 14.616366 22.331861 14.690542 22.331861C14.801808 22.331861 14.871349 22.338815 14.899166 22.352723S14.94089 22.401402 14.94089 22.457034C14.94089 22.642477 14.655772 22.783877 14.085535 22.881235S12.989106 23.027271 12.506954 23.027271C12.015531 23.027271 11.487019 22.978592 10.921419 22.881235C10.355818 22.783877 10.073018 22.642477 10.073018 22.457034C10.073018 22.410674 10.086926 22.378221 10.114743 22.359677S10.2121 22.331861 10.323366 22.331861C10.332638 22.331861 10.610803 22.348087 11.157858 22.380539S12.149976 22.429218 12.493046 22.429218ZM14.760083 21.803349C14.027584 21.89607 13.276537 21.942431 12.506954 21.942431C11.700278 21.942431 10.949235 21.89607 10.253825 21.803349C10.36509 21.710627 10.420723 21.52982 10.420723 21.260929C10.420723 21.084758 10.392907 20.978129 10.337274 20.94104C10.902875 21.043033 11.626102 21.09403 12.506954 21.09403C13.397079 21.09403 14.120306 21.043033 14.676634 20.94104C14.621001 20.978129 14.593185 21.084758 14.593185 21.260929C14.593185 21.52982 14.648818 21.710627 14.760083 21.803349ZM14.773992 20.217813C14.773992 20.477434 14.018313 20.607243 12.506954 20.607243S10.239917 20.477433 10.239917 20.217813C10.239917 19.986009 10.995595 19.870108 12.506954 19.870108S14.773992 19.98601 14.773992 20.217813ZM12.506954 27.881235C12.27515 27.881235 12.159249 27.769969 12.159249 27.547438C12.159249 27.306363 12.275151 27.185824 12.506954 27.185824C12.729485 27.185824 12.840751 27.306362 12.840751 27.547438C12.840751 27.769969 12.729485 27.881235 12.506954 27.881235ZM12.020167 26.170525C12.020167 26.485779 11.971488 26.777851 11.874131 27.046742S11.728095 27.468624 11.728095 27.505713C11.728095 27.718972 11.80459 27.902097 11.95758 28.055087S12.293695 28.284573 12.506954 28.284573S12.901019 28.208078 13.049374 28.055087S13.271905 27.718972 13.271905 27.505713C13.271905 27.468625 13.220909 27.317952 13.118915 27.053696S12.965925 26.49505 12.965925 26.170525C12.965925 25.71619 13.067918 25.043961 13.271905 24.153836C13.772601 25.210859 14.022949 26.008258 14.022949 26.546047C14.022949 26.60168 14.00904 26.705991 13.981224 26.858982S13.939499 27.107011 13.939499 27.1441C13.939499 27.357359 14.013676 27.540484 14.162031 27.693474C14.310385 27.846464 14.491192 27.922959 14.704451 27.922959C14.926982 27.922959 15.114743 27.846464 15.267733 27.693474S15.497218 27.357359 15.497218 27.1441C15.497218 26.977201 15.464766 26.845073 15.399861 26.747716S15.260779 26.576182 15.17733 26.525185S15.019704 26.351332 14.954798 26.156617S14.857441 25.693011 14.857441 25.349941C14.857441 25.108866 14.880621 24.719436 14.926982 24.181652C15.52967 24.802886 15.831015 25.308217 15.831015 25.697646L15.817107 25.82282C15.807835 25.90627 15.796245 25.992037 15.782337 26.080122S15.761474 26.221523 15.761474 26.240066C15.761474 26.444054 15.837969 26.624861 15.99096 26.782486S16.322438 27.018926 16.526426 27.018926C16.739684 27.018926 16.925128 26.942431 17.082754 26.789441S17.319193 26.453325 17.319193 26.240066C17.319193 25.859909 17.105935 25.572473 16.679416 25.377758C16.660872 25.006872 16.493974 24.172379 16.17872 22.874281C16.17872 22.790831 16.004868 22.535848 15.657163 22.109329S15.135605 21.404646 15.135605 21.274837C15.135605 21.191388 15.20051 21.015217 15.33032 20.746325S15.525035 20.254902 15.525035 20.078731V19.8562C15.525035 19.642941 15.188919 19.496905 14.51669 19.418091C13.84446 19.339278 13.169912 19.299872 12.493046 19.299872C11.742003 19.299872 11.051224 19.343914 10.420723 19.432C9.790218 19.520085 9.474965 19.661485 9.474965 19.8562V20.078731C9.474965 20.273446 9.537552 20.50525 9.662726 20.774142S9.850487 21.209932 9.850487 21.274837C9.850487 21.469552 9.699815 21.733808 9.39847 22.067605S8.904729 22.670293 8.82128 22.874281C8.506026 24.153836 8.339128 24.988328 8.320584 25.377758C7.894065 25.572473 7.680807 25.859909 7.680807 26.240066C7.680807 26.453325 7.75962 26.63645 7.917246 26.789441C8.074872 26.942431 8.255679 27.018926 8.459666 27.018926C8.672925 27.018926 8.85605 26.942431 9.00904 26.789441S9.238526 26.453325 9.238526 26.240066C9.238526 26.230794 9.226936 26.142709 9.203755 25.975811S9.168985 25.71619 9.168985 25.697646C9.168985 25.289673 9.465693 24.78434 10.05911 24.181652C10.105471 24.589626 10.128651 24.979055 10.128651 25.349941C10.128651 25.683738 10.096198 25.950313 10.031293 26.149663S9.892211 26.474187 9.808762 26.525185S9.651136 26.652677 9.586231 26.75467S9.488873 26.986474 9.488873 27.1441C9.488873 27.357359 9.567687 27.540484 9.725313 27.693474S10.068382 27.922959 10.281641 27.922959C10.4949 27.922959 10.678025 27.846464 10.831015 27.693474S11.060501 27.357359 11.060501 27.1441L11.018776 26.879844C10.99096 26.703673 10.977051 26.592407 10.977051 26.546047C10.977051 26.017535 11.227399 25.220132 11.728095 24.153836C11.922809 24.997601 12.020167 25.66983 12.020167 26.170525ZM16.526426 26.573863C16.442976 26.573863 16.366481 26.541411 16.29694 26.476506C16.227399 26.411601 16.192629 26.332788 16.192629 26.240066C16.192629 26.138073 16.225081 26.052306 16.289986 25.982765S16.433704 25.878453 16.526426 25.878453C16.758229 25.878453 16.874131 25.998991 16.874131 26.240066C16.874131 26.462598 16.758229 26.573863 16.526426 26.573863ZM14.704451 27.463989C14.611729 27.463989 14.532917 27.429218 14.468011 27.359677S14.370654 27.209005 14.370654 27.116283S14.403106 26.942431 14.468011 26.87289S14.611729 26.768578 14.704451 26.768578C14.945526 26.768578 15.066064 26.88448 15.066064 27.116283S14.945526 27.463989 14.704451 27.463989ZM10.281641 27.463989C10.049837 27.463989 9.933936 27.348087 9.933936 27.116283S10.049838 26.768578 10.281641 26.768578C10.504172 26.768578 10.615438 26.88448 10.615438 27.116283S10.504172 27.463989 10.281641 27.463989ZM8.459666 26.573863C8.227862 26.573863 8.111961 26.462598 8.111961 26.240066C8.111961 25.998991 8.227863 25.878453 8.459666 25.878453C8.682197 25.878453 8.793463 25.998991 8.793463 26.240066C8.793463 26.332788 8.758693 26.411601 8.689152 26.476506C8.619611 26.541411 8.543115 26.573863 8.459666 26.573863ZM12.506954 25.683738C12.423505 25.17377 12.330783 24.772751 12.22879 24.480678S12.034075 23.982301 11.950626 23.861763S11.81618 23.643868 11.797636 23.569691C11.751275 23.625324 11.672462 23.718046 11.561196 23.847855S11.380389 24.065751 11.352573 24.112111S11.271442 24.239603 11.192629 24.355505S11.051228 24.58499 11.004868 24.696256S10.898238 24.955876 10.824061 25.141318S10.671071 25.540021 10.587622 25.781096C10.606166 25.651286 10.615438 25.51684 10.615438 25.377758C10.615438 24.941968 10.536625 24.269737 10.378999 23.361068C9.878303 23.657776 9.391516 24.130655 8.918637 24.779705C9.141168 23.676321 9.312702 23.059719 9.433241 22.929913C9.451785 22.911369 9.470329 22.897461 9.488873 22.888189C10.249189 23.323979 11.255216 23.541875 12.506954 23.541875C13.767965 23.541875 14.773992 23.323979 15.525035 22.888189C15.691933 22.943822 15.877376 23.574327 16.081363 24.779705C15.599211 24.112111 15.117061 23.639232 14.63491 23.361068C14.477284 24.167744 14.39847 24.80289 14.39847 25.266492C14.39847 25.38703 14.407742 25.558564 14.426287 25.781096C14.287204 25.354577 14.145804 24.995282 14.002086 24.70321C13.858369 24.411137 13.742466 24.214104 13.654381 24.112111S13.480529 23.91276 13.397079 23.820039S13.253362 23.643868 13.216273 23.569691C13.169912 23.65314 13.114279 23.748179 13.049374 23.854809S12.942745 24.037934 12.9242 24.084295S12.873203 24.221059 12.826843 24.355505S12.734121 24.656849 12.687761 24.8562S12.581131 25.331397 12.506954 25.683738Z" fill="#da0a0a" />
<path d="M22.247356 4.297326Q22.378966 4.252085 22.477673 4.184224T22.732667 3.992978Q22.856052 3.890158 22.952703 3.82024T23.1604 3.692743Q23.292009 3.626938 23.472973 3.58581Q23.904818 3.487103 24.102233 3.334929Q24.344888 3.145739 24.478555 2.861956T24.612221 2.257373Q24.612221 1.825528 24.416863 1.504729T23.917156 1.013248T23.300235 0.842567Q22.905405 0.842567 22.601058 1.029699T22.134254 1.523236T21.971798 2.183342Q21.971798 2.643977 22.204172 2.987396T22.819036 3.48299Q22.884841 3.511779 22.987662 3.515892V3.524118Q22.876616 3.536456 22.786134 3.581697Q22.625734 3.65984 22.354289 3.857255Q22.152761 4.001204 22.029377 4.069065T21.786722 4.136926Q21.712691 4.128701 21.677732 4.089629T21.642773 3.992978Q21.642773 3.894271 21.71886 3.809958T21.914219 3.721533Q21.926557 3.655728 21.864865 3.594036T21.679788 3.532343Q21.626322 3.532343 21.558461 3.569359T21.439189 3.680405T21.387779 3.861368Q21.387779 3.984752 21.472092 4.093742T21.685958 4.270593T21.947121 4.342567Q22.115746 4.342567 22.247356 4.297326ZM22.835488 3.262954Q22.646298 3.092273 22.55376 2.808489T22.461222 2.183342Q22.461222 1.866656 22.555817 1.60138T22.841657 1.177761T23.304348 1.019417Q23.715629 1.019417 23.921269 1.36695T24.12691 2.245034Q24.12691 2.565833 24.034371 2.837279T23.756757 3.27118T23.304348 3.433636Q23.024677 3.433636 22.835488 3.262954Z" fill="#da0a0a" />
<path d="M23.003651 5.298611C22.945236 5.41544 22.804068 5.625367 22.580146 5.928392C22.356224 6.231417 22.176111 6.458383 22.039812 6.609286C22.210188 6.804 22.393341 7.035226 22.589273 7.302957C22.785205 7.57069 22.923331 7.777575 23.003651 7.923611C23.183762 7.602332 23.502609 7.164223 23.960188 6.609286C23.490437 6.04218 23.171592 5.605287 23.003651 5.298611Z" fill="#da0a0a" />
<path d="M2.752644 30.702674Q2.621034 30.747915 2.522327 30.815776T2.267333 31.007022Q2.143948 31.109842 2.047297 31.17976T1.8396 31.307257Q1.707991 31.373062 1.527027 31.41419Q1.095182 31.512897 0.897767 31.665071Q0.655112 31.854261 0.521445 32.138044T0.387779 32.742627Q0.387779 33.174472 0.583137 33.495271T1.082844 33.986752T1.699765 34.157433Q2.094595 34.157433 2.398942 33.970301T2.865746 33.476764T3.028202 32.816658Q3.028202 32.356023 2.795828 32.012604T2.180964 31.51701Q2.115159 31.488221 2.012338 31.484108V31.475882Q2.123384 31.463544 2.213866 31.418303Q2.374266 31.34016 2.645711 31.142745Q2.847239 30.998796 2.970623 30.930935T3.213278 30.863074Q3.287309 30.871299 3.322268 30.910371T3.357227 31.007022Q3.357227 31.105729 3.28114 31.190042T3.085781 31.278467Q3.073443 31.344272 3.135135 31.405964T3.320212 31.467657Q3.373678 31.467657 3.441539 31.430641T3.560811 31.319595T3.612221 31.138632Q3.612221 31.015248 3.527908 30.906258T3.314042 30.729407T3.052879 30.657433Q2.884254 30.657433 2.752644 30.702674ZM2.164512 31.737046Q2.353702 31.907727 2.44624 32.191511T2.538778 32.816658Q2.538778 33.133344 2.444183 33.39862T2.158343 33.822239T1.695652 33.980583Q1.284371 33.980583 1.078731 33.63305T0.87309 32.754966Q0.87309 32.434167 0.965629 32.162721T1.243243 31.72882T1.695652 31.566364Q1.975323 31.566364 2.164512 31.737046Z" fill="#da0a0a" />
<path d="M1.996349 29.701389C2.054764 29.58456 2.195932 29.374633 2.419854 29.071608C2.643776 28.768583 2.823889 28.541617 2.960188 28.390714C2.789812 28.196 2.606659 27.964774 2.410727 27.697043C2.214795 27.42931 2.076669 27.222425 1.996349 27.076389C1.816238 27.397668 1.497391 27.835777 1.039812 28.390714C1.509563 28.95782 1.828408 29.394713 1.996349 29.701389Z" fill="#da0a0a" />
</svg>
