<svg width="150.000000" height="210.000000" id="card-webdiamond7">
<radialGradient id="card-webwhitegradient" cx="75.0" cy="105.0" r="150" gradientTransform="matrix(1 0 0 1 0 -.25)" gradientUnits="userSpaceOnUse">
<stop stop-color="#FDFAF4" offset=".15"/>
<stop stop-color="#FDF9F2" offset=".35"/>
<stop stop-color="#FCF7F1" offset=".5"/>
<stop stop-color="#FDFDF8" offset=".75"/>
<stop stop-color="#FFFDFA" offset="1"/>
</radialGradient>
<rect x="0" y="0" rx="7.5" ry="7.5" width="150" height="210.0" stroke="rgba(1,1,1,0.333)" fill="url(#card-webwhitegradient)" />
<path d="M45.041725 20.0C44.374131 21.335188 42.760777 23.734353 40.201669 27.197497C37.642561 30.66064 35.584131 33.254534 34.026426 34.979138C35.973576 37.204449 38.066758 39.847024 40.305981 42.906815C42.545203 45.966619 44.123783 48.331015 45.041725 50.0C47.100138 46.328234 50.744103 41.32128 55.973574 34.979138C50.604993 28.497928 46.961057 23.504868 45.041725 20.0Z" fill="#da0a0a" />
<path d="M44.958275 190.0C45.625869 188.664812 47.239223 186.265647 49.798331 182.802503C52.357439 179.33936 54.415869 176.745466 55.973574 175.020862C54.026424 172.795551 51.933242 170.152976 49.694019 167.093185C47.454797 164.033381 45.876217 161.668985 44.958275 160.0C42.899862 163.671766 39.255897 168.67872 34.026426 175.020862C39.395007 181.502072 43.038943 186.495132 44.958275 190.0Z" fill="#da0a0a" />
<path d="M45.041725 90.0C44.374131 91.335188 42.760777 93.734353 40.201669 97.197497C37.642561 100.66064 35.584131 103.254534 34.026426 104.979138C35.973576 107.204449 38.066758 109.847024 40.305981 112.906815C42.545203 115.966619 44.123783 118.331015 45.041725 120.0C47.100138 116.328234 50.744103 111.32128 55.973574 104.979138C50.604993 98.497928 46.961057 93.504868 45.041725 90.0Z" fill="#da0a0a" />
<path d="M105.041725 20.0C104.374131 21.335188 102.760777 23.734353 100.201669 27.197497C97.642561 30.66064 95.584131 33.254534 94.026426 34.979138C95.973576 37.204449 98.066758 39.847024 100.305981 42.906815C102.545203 45.966619 104.123783 48.331015 105.041725 50.0C107.100138 46.328234 110.744103 41.32128 115.973574 34.979138C110.604993 28.497928 106.961057 23.504868 105.041725 20.0Z" fill="#da0a0a" />
<path d="M104.958275 190.0C105.625869 188.664812 107.239223 186.265647 109.798331 182.802503C112.357439 179.33936 114.415869 176.745466 115.973574 175.020862C114.026424 172.795551 111.933242 170.152976 109.694019 167.093185C107.454797 164.033381 105.876217 161.668985 104.958275 160.0C102.899862 163.671766 99.255897 168.67872 94.026426 175.020862C99.395007 181.502072 103.038943 186.495132 104.958275 190.0Z" fill="#da0a0a" />
<path d="M105.041725 90.0C104.374131 91.335188 102.760777 93.734353 100.201669 97.197497C97.642561 100.66064 95.584131 103.254534 94.026426 104.979138C95.973576 107.204449 98.066758 109.847024 100.305981 112.906815C102.545203 115.966619 104.123783 118.331015 105.041725 120.0C107.100138 116.328234 110.744103 111.32128 115.973574 104.979138C110.604993 98.497928 106.961057 93.504868 105.041725 90.0Z" fill="#da0a0a" />
<path d="M75.041725 55.0C74.374131 56.335188 72.760777 58.734353 70.201669 62.197497C67.642561 65.66064 65.584131 68.254534 64.026426 69.979138C65.973576 72.204449 68.066758 74.847024 70.305981 77.906815C72.545203 80.966619 74.123783 83.331015 75.041725 85.0C77.100138 81.328234 80.744103 76.32128 85.973574 69.979138C80.604993 63.497928 76.961057 58.504868 75.041725 55.0Z" fill="#da0a0a" />
<path d="M141.312731 25.609828Q141.700185 25.164256 141.700185 24.389348Q141.700185 22.684551 139.782288 18.829385T134.76476 9.394883L133.873616 7.806323H140.654059Q141.700185 7.806323 142.223247 7.961304T143.075646 8.697466T143.559963 10.5185Q143.637454 10.828463 143.811808 10.964072T144.451107 11.09968Q145.109779 11.09968 145.109779 10.441009L144.954797 5.907799Q144.954797 5.0554 143.831181 5.0554H132.013838Q130.890221 5.0554 130.890221 5.791562Q130.890221 6.372743 131.74262 7.806323Q133.176199 10.208537 134.396679 13.172559T137.089483 20.204846Q138.29059 23.498204 138.833026 24.815548Q139.414207 26.0554 140.421587 26.0554Q140.925277 26.0554 141.312731 25.609828Z" fill="#da0a0a" />
<path d="M138.021905 31.791667C137.671419 32.49264 136.824408 33.752202 135.480876 35.570352C134.137344 37.388503 133.056669 38.750297 132.238873 39.655714C133.261127 40.824003 134.360048 42.211354 135.53564 43.817745C136.711232 45.424142 137.539986 46.66545 138.021905 47.541667C139.102572 45.613989 141.015654 42.985338 143.761127 39.655714C140.942621 36.253079 139.029555 33.631722 138.021905 31.791667Z" fill="#da0a0a" />
<path d="M8.687269 184.390172Q8.299815 184.835744 8.299815 185.610652Q8.299815 187.315449 10.217712 191.170615T15.23524 200.605117L16.126384 202.193677H9.345941Q8.299815 202.193677 7.776753 202.038696T6.924354 201.302534T6.440037 199.4815Q6.362546 199.171537 6.188192 199.035928T5.548893 198.90032Q4.890221 198.90032 4.890221 199.558991L5.045203 204.092201Q5.045203 204.9446 6.168819 204.9446H17.986162Q19.109779 204.9446 19.109779 204.208438Q19.109779 203.627257 18.25738 202.193677Q16.823801 199.791463 15.603321 196.827441T12.910517 189.795154Q11.70941 186.501796 11.166974 185.184452Q10.585793 183.9446 9.578413 183.9446Q9.074723 183.9446 8.687269 184.390172Z" fill="#da0a0a" />
<path d="M11.978095 178.208333C12.328581 177.50736 13.175592 176.247798 14.519124 174.429648C15.862656 172.611497 16.943331 171.249703 17.761127 170.344286C16.738873 169.175997 15.639952 167.788646 14.46436 166.182255C13.288768 164.575858 12.460014 163.33455 11.978095 162.458333C10.897428 164.386011 8.984346 167.014662 6.238873 170.344286C9.057379 173.746921 10.970445 176.368278 11.978095 178.208333Z" fill="#da0a0a" />
</svg>
