<svg width="25.000000" height="35.000000" id="card-lightheart12">
<rect x="0" y="0" rx="1.25" ry="1.25" width="25" height="35.0" stroke="rgba(1,1,1,0.333)" fill="#fffdfa" />
<rect x="5.0" y="3.5" width="15.0" height="28.0" stroke="#010101" fill="#fffdfa" />
<path d="M12.486072 13.798307C13.071031 13.798307 13.6026 13.84009 14.08078 13.923655C14.55896 14.007221 14.79805 14.113999 14.79805 14.243989C14.79805 14.392551 14.691272 14.466831 14.477716 14.466831C14.440576 14.466831 14.15506 14.448261 13.62117 14.41112S12.704272 14.35541 12.472145 14.35541C12.230734 14.35541 11.850046 14.37398 11.330084 14.41112C10.810121 14.448261 10.536212 14.466831 10.508357 14.466831C10.294801 14.466831 10.188022 14.39255 10.188022 14.243989C10.188022 13.946868 10.954039 13.798307 12.486072 13.798307ZM16.538997 8.422262C16.631848 8.422262 16.713092 8.45476 16.78273 8.519755C16.852368 8.584751 16.887187 8.668317 16.887187 8.770452S16.852368 8.956152 16.78273 9.021148S16.631848 9.118641 16.538997 9.118641C16.316156 9.118641 16.204735 9.002578 16.204735 8.770452C16.204735 8.538325 16.316156 8.422262 16.538997 8.422262ZM14.714485 7.544825C14.955896 7.544825 15.076602 7.660888 15.076602 7.893015S14.955896 8.241204 14.714485 8.241204C14.491643 8.241204 14.380223 8.125141 14.380223 7.893015S14.491643 7.544825 14.714485 7.544825ZM10.271588 7.544825C10.364438 7.544825 10.443361 7.579644 10.508357 7.649282S10.60585 7.800164 10.60585 7.893015C10.60585 8.125141 10.494429 8.241204 10.271588 8.241204C10.039461 8.241204 9.923398 8.125141 9.923398 7.893015S10.039461 7.544825 10.271588 7.544825ZM8.461003 8.422262C8.683844 8.422262 8.795265 8.538326 8.795265 8.770452C8.795265 9.002579 8.683844 9.118641 8.461003 9.118641C8.228876 9.118641 8.112813 9.002578 8.112813 8.770452C8.112813 8.668316 8.147632 8.584751 8.21727 8.519755C8.286908 8.45476 8.368152 8.422262 8.461003 8.422262ZM9.85376 13.728669C9.85376 13.784379 9.788765 13.963116 9.658774 14.264881S9.463788 14.838233 9.463788 15.079644C9.463788 15.302485 9.781801 15.462652 10.417827 15.560145C11.053854 15.657639 11.747911 15.706385 12.5 15.706385C13.354224 15.706385 14.07149 15.648353 14.651811 15.53229C15.232127 15.416227 15.522284 15.265345 15.522284 15.079644C15.522284 14.828948 15.45961 14.555038 15.334262 14.257917S15.14624 13.784379 15.14624 13.728669C15.14624 13.570824 15.320334 13.28995 15.668524 12.886051S16.190808 12.233776 16.190808 12.140925C16.190808 12.085215 16.225627 11.941297 16.295265 11.709171S16.441504 11.170637 16.52507 10.78995S16.664345 10.019292 16.692201 9.620034C17.119313 9.443618 17.332869 9.160424 17.332869 8.770452C17.332869 8.547611 17.256267 8.36191 17.103064 8.213349S16.761838 7.990508 16.538997 7.990508C16.334726 7.990508 16.153667 8.067109 15.995822 8.220313S15.759053 8.556896 15.759053 8.770452C15.759053 8.779737 15.770659 8.865624 15.793872 9.028112S15.828691 9.28113 15.828691 9.2997C15.828691 9.717527 15.53157 10.228205 14.937326 10.831733C14.890901 10.451047 14.867688 10.051789 14.867688 9.633962C14.867688 9.290414 14.900186 9.021148 14.965181 8.826162S15.104457 8.51047 15.188022 8.464045S15.345868 8.347982 15.410864 8.255132S15.508357 8.03229 15.508357 7.865159C15.508357 7.642318 15.431755 7.456618 15.278552 7.308056S14.937326 7.085215 14.714485 7.085215C14.500929 7.085215 14.317549 7.161817 14.164345 7.31502S13.93454 7.651604 13.93454 7.865159C13.93454 7.883729 13.950789 7.981222 13.983287 8.157639S14.032033 8.43619 14.032033 8.464045C14.032033 8.984008 13.776695 9.777879 13.266017 10.845661C13.071031 9.972866 12.973538 9.304338 12.973538 8.84009C12.973538 8.505828 13.022284 8.201743 13.119777 7.927833S13.266017 7.507684 13.266017 7.489115C13.266017 7.266274 13.189415 7.080573 13.036212 6.932012S12.699628 6.709171 12.486072 6.709171S12.093779 6.785772 11.949861 6.938976S11.733983 7.275559 11.733983 7.489115C11.733983 7.53554 11.78273 7.688743 11.880223 7.948725S12.026462 8.505828 12.026462 8.84009C12.026462 9.304342 11.928969 9.972866 11.733983 10.845661C11.232591 9.787165 10.981894 8.993293 10.981894 8.464045C10.981894 8.426905 10.995822 8.329412 11.023677 8.171566S11.06546 7.911584 11.06546 7.865159C11.06546 7.642318 10.988858 7.456618 10.835655 7.308056S10.494429 7.085215 10.271588 7.085215C10.058032 7.085215 9.874652 7.161817 9.721448 7.31502S9.491643 7.651604 9.491643 7.865159C9.491643 8.004435 9.512535 8.113534 9.554318 8.192457S9.649489 8.338697 9.714485 8.394407S9.844475 8.517434 9.909471 8.596357C9.974466 8.67528 10.027855 8.802949 10.069638 8.979366S10.132312 9.378623 10.132312 9.647889C10.132312 10.056431 10.109099 10.451047 10.062674 10.831733C9.46843 10.228205 9.171309 9.717527 9.171309 9.2997C9.171309 9.086144 9.194522 8.909728 9.240947 8.770452C9.240947 8.556896 9.164345 8.373516 9.011142 8.220313S8.674558 7.990508 8.461003 7.990508C8.238162 7.990508 8.050139 8.067109 7.896936 8.220313S7.667131 8.556896 7.667131 8.770452C7.667131 9.141854 7.880687 9.425048 8.307799 9.620034C8.36351 10.204992 8.461003 10.745846 8.600279 11.242597S8.809192 12.03879 8.809192 12.140925C8.809192 12.224491 8.983287 12.470545 9.331476 12.879087S9.85376 13.570824 9.85376 13.728669ZM12.486072 7.11307C12.588208 7.11307 12.671773 7.145568 12.736769 7.210563S12.834262 7.359125 12.834262 7.46126S12.801764 7.64696 12.736769 7.711956S12.588208 7.809449 12.486072 7.809449C12.263231 7.809449 12.151811 7.693386 12.151811 7.46126C12.151811 7.368409 12.184308 7.287165 12.249304 7.217527S12.393221 7.11307 12.486072 7.11307ZM9.979109 12.544825C9.979109 12.38698 10.255338 12.273237 10.807799 12.2036C11.36026 12.133962 11.919684 12.099143 12.486072 12.099143C13.024606 12.099143 13.579387 12.136283 14.150418 12.210563S15.006964 12.400907 15.006964 12.558753C15.006964 12.688743 14.886258 12.753739 14.644847 12.753739C14.440575 12.753739 14.097029 12.73749 13.614206 12.704992S12.750696 12.656246 12.472145 12.656246C12.184308 12.656246 11.759517 12.672495 11.197772 12.704992C10.636026 12.73749 10.341226 12.753739 10.31337 12.753739C10.090529 12.753739 9.979109 12.684101 9.979109 12.544825Z" fill="#da0a0a" />
<path d="M12.513928 21.201693C11.928969 21.201693 11.3974 21.15991 10.91922 21.076345C10.44104 20.992779 10.20195 20.886001 10.20195 20.756011C10.20195 20.607449 10.308728 20.533169 10.522284 20.533169C10.559424 20.533169 10.84494 20.551739 11.37883 20.58888S12.295728 20.64459 12.527855 20.64459C12.769266 20.64459 13.149954 20.62602 13.669916 20.58888C14.189879 20.551739 14.463788 20.533169 14.491643 20.533169C14.705199 20.533169 14.811978 20.60745 14.811978 20.756011C14.811978 21.053132 14.045961 21.201693 12.513928 21.201693ZM8.461003 26.577738C8.368152 26.577738 8.286908 26.54524 8.21727 26.480245C8.147632 26.415249 8.112813 26.331683 8.112813 26.229548S8.147632 26.043848 8.21727 25.978852S8.368152 25.881359 8.461003 25.881359C8.683844 25.881359 8.795265 25.997422 8.795265 26.229548C8.795265 26.461675 8.683844 26.577738 8.461003 26.577738ZM10.285515 27.455175C10.044104 27.455175 9.923398 27.339112 9.923398 27.106985S10.044104 26.758796 10.285515 26.758796C10.508357 26.758796 10.619777 26.874859 10.619777 27.106985S10.508357 27.455175 10.285515 27.455175ZM14.728412 27.455175C14.635562 27.455175 14.556639 27.420356 14.491643 27.350718S14.39415 27.199836 14.39415 27.106985C14.39415 26.874859 14.505571 26.758796 14.728412 26.758796C14.960539 26.758796 15.076602 26.874859 15.076602 27.106985S14.960539 27.455175 14.728412 27.455175ZM16.538997 26.577738C16.316156 26.577738 16.204735 26.461674 16.204735 26.229548C16.204735 25.997421 16.316156 25.881359 16.538997 25.881359C16.771124 25.881359 16.887187 25.997422 16.887187 26.229548C16.887187 26.331684 16.852368 26.415249 16.78273 26.480245C16.713092 26.54524 16.631848 26.577738 16.538997 26.577738ZM15.14624 21.271331C15.14624 21.215621 15.211235 21.036884 15.341226 20.735119S15.536212 20.161767 15.536212 19.920356C15.536212 19.697515 15.218199 19.537348 14.582173 19.439855C13.946146 19.342361 13.252089 19.293615 12.5 19.293615C11.645776 19.293615 10.92851 19.351647 10.348189 19.46771C9.767873 19.583773 9.477716 19.734655 9.477716 19.920356C9.477716 20.171052 9.54039 20.444962 9.665738 20.742083S9.85376 21.215621 9.85376 21.271331C9.85376 21.429176 9.679666 21.71005 9.331476 22.113949S8.809192 22.766224 8.809192 22.859075C8.809192 22.914785 8.774373 23.058703 8.704735 23.290829S8.558496 23.829363 8.47493 24.21005S8.335655 24.980708 8.307799 25.379966C7.880687 25.556382 7.667131 25.839576 7.667131 26.229548C7.667131 26.452389 7.743733 26.63809 7.896936 26.786651S8.238162 27.009492 8.461003 27.009492C8.665274 27.009492 8.846333 26.932891 9.004178 26.779687S9.240947 26.443104 9.240947 26.229548C9.240947 26.220263 9.229341 26.134376 9.206128 25.971888S9.171309 25.71887 9.171309 25.7003C9.171309 25.282473 9.46843 24.771795 10.062674 24.168267C10.109099 24.548953 10.132312 24.948211 10.132312 25.366038C10.132312 25.709586 10.099814 25.978852 10.034819 26.173838S9.895543 26.48953 9.811978 26.535955S9.654132 26.652018 9.589136 26.744868S9.491643 26.96771 9.491643 27.134841C9.491643 27.357682 9.568245 27.543382 9.721448 27.691944S10.062674 27.914785 10.285515 27.914785C10.499071 27.914785 10.682451 27.838183 10.835655 27.68498S11.06546 27.348396 11.06546 27.134841C11.06546 27.116271 11.049211 27.018778 11.016713 26.842361S10.967967 26.56381 10.967967 26.535955C10.967967 26.015992 11.223305 25.222121 11.733983 24.154339C11.928969 25.027134 12.026462 25.695662 12.026462 26.15991C12.026462 26.494172 11.977716 26.798257 11.880223 27.072167S11.733983 27.492316 11.733983 27.510885C11.733983 27.733726 11.810585 27.919427 11.963788 28.067988S12.300372 28.290829 12.513928 28.290829S12.906221 28.214228 13.050139 28.061024S13.266017 27.724441 13.266017 27.510885C13.266017 27.46446 13.21727 27.311257 13.119777 27.051275S12.973538 26.494172 12.973538 26.15991C12.973538 25.695658 13.071031 25.027134 13.266017 24.154339C13.767409 25.212835 14.018106 26.006707 14.018106 26.535955C14.018106 26.573095 14.004178 26.670588 13.976323 26.828434S13.93454 27.088416 13.93454 27.134841C13.93454 27.357682 14.011142 27.543382 14.164345 27.691944S14.505571 27.914785 14.728412 27.914785C14.941968 27.914785 15.125348 27.838183 15.278552 27.68498S15.508357 27.348396 15.508357 27.134841C15.508357 26.995565 15.487465 26.886466 15.445682 26.807543S15.350511 26.661303 15.285515 26.605593S15.155525 26.482566 15.090529 26.403643C15.025534 26.32472 14.972145 26.197051 14.930362 26.020634S14.867688 25.621377 14.867688 25.352111C14.867688 24.943569 14.890901 24.548953 14.937326 24.168267C15.53157 24.771795 15.828691 25.282473 15.828691 25.7003C15.828691 25.913856 15.805478 26.090272 15.759053 26.229548C15.759053 26.443104 15.835655 26.626484 15.988858 26.779687S16.325442 27.009492 16.538997 27.009492C16.761838 27.009492 16.949861 26.932891 17.103064 26.779687S17.332869 26.443104 17.332869 26.229548C17.332869 25.858146 17.119313 25.574952 16.692201 25.379966C16.63649 24.795008 16.538997 24.254154 16.399721 23.757403S16.190808 22.96121 16.190808 22.859075C16.190808 22.775509 16.016713 22.529455 15.668524 22.120913S15.14624 21.429176 15.14624 21.271331ZM12.513928 27.88693C12.411792 27.88693 12.328227 27.854432 12.263231 27.789437S12.165738 27.640875 12.165738 27.53874S12.198236 27.35304 12.263231 27.288044S12.411792 27.190551 12.513928 27.190551C12.736769 27.190551 12.848189 27.306614 12.848189 27.53874C12.848189 27.631591 12.815692 27.712835 12.750696 27.782473S12.606779 27.88693 12.513928 27.88693ZM15.020891 22.455175C15.020891 22.61302 14.744662 22.726763 14.192201 22.7964C13.63974 22.866038 13.080316 22.900857 12.513928 22.900857C11.975394 22.900857 11.420613 22.863717 10.849582 22.789437S9.993036 22.599093 9.993036 22.441247C9.993036 22.311257 10.113742 22.246261 10.355153 22.246261C10.559425 22.246261 10.902971 22.26251 11.385794 22.295008S12.249304 22.343754 12.527855 22.343754C12.815692 22.343754 13.240483 22.327505 13.802228 22.295008C14.363974 22.26251 14.658774 22.246261 14.68663 22.246261C14.909471 22.246261 15.020891 22.315899 15.020891 22.455175Z" fill="#da0a0a" />
<path d="M22.247356 4.297326Q22.378966 4.252085 22.477673 4.184224T22.732667 3.992978Q22.856052 3.890158 22.952703 3.82024T23.1604 3.692743Q23.292009 3.626938 23.472973 3.58581Q23.904818 3.487103 24.102233 3.334929Q24.344888 3.145739 24.478555 2.861956T24.612221 2.257373Q24.612221 1.825528 24.416863 1.504729T23.917156 1.013248T23.300235 0.842567Q22.905405 0.842567 22.601058 1.029699T22.134254 1.523236T21.971798 2.183342Q21.971798 2.643977 22.204172 2.987396T22.819036 3.48299Q22.884841 3.511779 22.987662 3.515892V3.524118Q22.876616 3.536456 22.786134 3.581697Q22.625734 3.65984 22.354289 3.857255Q22.152761 4.001204 22.029377 4.069065T21.786722 4.136926Q21.712691 4.128701 21.677732 4.089629T21.642773 3.992978Q21.642773 3.894271 21.71886 3.809958T21.914219 3.721533Q21.926557 3.655728 21.864865 3.594036T21.679788 3.532343Q21.626322 3.532343 21.558461 3.569359T21.439189 3.680405T21.387779 3.861368Q21.387779 3.984752 21.472092 4.093742T21.685958 4.270593T21.947121 4.342567Q22.115746 4.342567 22.247356 4.297326ZM22.835488 3.262954Q22.646298 3.092273 22.55376 2.808489T22.461222 2.183342Q22.461222 1.866656 22.555817 1.60138T22.841657 1.177761T23.304348 1.019417Q23.715629 1.019417 23.921269 1.36695T24.12691 2.245034Q24.12691 2.565833 24.034371 2.837279T23.756757 3.27118T23.304348 3.433636Q23.024677 3.433636 22.835488 3.262954Z" fill="#da0a0a" />
<path d="M22.996344 5.825074C22.947598 5.644712 22.868994 5.511877 22.760533 5.426571S22.532033 5.298611 22.400418 5.298611C22.251741 5.298611 22.124391 5.349795 22.018367 5.452163S21.859331 5.677615 21.859331 5.821418C21.859331 5.953033 21.891626 6.087086 21.956215 6.223576S22.102455 6.491682 22.201166 6.618423S22.400418 6.872514 22.502786 7.000474S22.703255 7.274064 22.797093 7.437365S22.957347 7.762748 22.996344 7.923611C23.040216 7.755436 23.110289 7.586651 23.206563 7.417257S23.402159 7.097967 23.504526 6.96757C23.606894 6.837173 23.706824 6.709213 23.804318 6.583691S23.982242 6.332037 24.045613 6.205296S24.140669 5.957908 24.140669 5.843353C24.140669 5.689802 24.088875 5.560624 23.985289 5.455819C23.881703 5.351013 23.754352 5.298611 23.603238 5.298611C23.313197 5.298611 23.110897 5.474099 22.996344 5.825074Z" fill="#da0a0a" />
<path d="M2.752644 30.702674Q2.621034 30.747915 2.522327 30.815776T2.267333 31.007022Q2.143948 31.109842 2.047297 31.17976T1.8396 31.307257Q1.707991 31.373062 1.527027 31.41419Q1.095182 31.512897 0.897767 31.665071Q0.655112 31.854261 0.521445 32.138044T0.387779 32.742627Q0.387779 33.174472 0.583137 33.495271T1.082844 33.986752T1.699765 34.157433Q2.094595 34.157433 2.398942 33.970301T2.865746 33.476764T3.028202 32.816658Q3.028202 32.356023 2.795828 32.012604T2.180964 31.51701Q2.115159 31.488221 2.012338 31.484108V31.475882Q2.123384 31.463544 2.213866 31.418303Q2.374266 31.34016 2.645711 31.142745Q2.847239 30.998796 2.970623 30.930935T3.213278 30.863074Q3.287309 30.871299 3.322268 30.910371T3.357227 31.007022Q3.357227 31.105729 3.28114 31.190042T3.085781 31.278467Q3.073443 31.344272 3.135135 31.405964T3.320212 31.467657Q3.373678 31.467657 3.441539 31.430641T3.560811 31.319595T3.612221 31.138632Q3.612221 31.015248 3.527908 30.906258T3.314042 30.729407T3.052879 30.657433Q2.884254 30.657433 2.752644 30.702674ZM2.164512 31.737046Q2.353702 31.907727 2.44624 32.191511T2.538778 32.816658Q2.538778 33.133344 2.444183 33.39862T2.158343 33.822239T1.695652 33.980583Q1.284371 33.980583 1.078731 33.63305T0.87309 32.754966Q0.87309 32.434167 0.965629 32.162721T1.243243 31.72882T1.695652 31.566364Q1.975323 31.566364 2.164512 31.737046Z" fill="#da0a0a" />
<path d="M2.003656 29.174926C2.052402 29.355288 2.131006 29.488123 2.239467 29.573429S2.467967 29.701389 2.599582 29.701389C2.748259 29.701389 2.875609 29.650205 2.981633 29.547837S3.140669 29.322385 3.140669 29.178582C3.140669 29.046967 3.108374 28.912914 3.043785 28.776424S2.897545 28.508318 2.798834 28.381577S2.599582 28.127486 2.497214 27.999526S2.296745 27.725936 2.202907 27.562635S2.042653 27.237252 2.003656 27.076389C1.959784 27.244564 1.889711 27.413349 1.793437 27.582743S1.597841 27.902033 1.495474 28.03243C1.393106 28.162827 1.293176 28.290787 1.195682 28.416309S1.017758 28.667963 0.954387 28.794704S0.859331 29.042092 0.859331 29.156647C0.859331 29.310198 0.911125 29.439376 1.014711 29.544181C1.118297 29.648987 1.245648 29.701389 1.396762 29.701389C1.686803 29.701389 1.889103 29.525901 2.003656 29.174926Z" fill="#da0a0a" />
</svg>
