<svg width="150.000000" height="210.000000" id="card-webspade8">
<radialGradient id="card-webwhitegradient" cx="75.0" cy="105.0" r="150" gradientTransform="matrix(1 0 0 1 0 -.25)" gradientUnits="userSpaceOnUse">
<stop stop-color="#FDFAF4" offset=".15"/>
<stop stop-color="#FDF9F2" offset=".35"/>
<stop stop-color="#FCF7F1" offset=".5"/>
<stop stop-color="#FDFDF8" offset=".75"/>
<stop stop-color="#FFFDFA" offset="1"/>
</radialGradient>
<rect x="0" y="0" rx="7.5" ry="7.5" width="150" height="210.0" stroke="rgba(1,1,1,0.333)" fill="url(#card-webwhitegradient)" />
<path d="M44.297872 39.87234C44.156029 41.347519 43.801417 42.652481 43.234043 43.787234C42.666668 44.921987 42.070923 45.787234 41.446809 46.382979S40.03546 47.489362 39.085106 47.914894C38.134753 48.340426 37.404255 48.617021 36.893617 48.744681S35.758864 48.992908 35.021277 49.106383C34.907801 49.134752 34.822695 49.148936 34.765957 49.148936V50.0H55.234043V49.148936C52.822694 48.723404 50.992906 48.099289 49.744681 47.276596C47.361702 45.687945 46.014183 43.21986 45.702128 39.87234C47.177306 42.141843 49.078013 43.276596 51.404255 43.276596C52.9078 43.276596 54.191489 42.751774 55.255319 41.702128S56.851064 39.375885 56.851064 37.87234C56.851064 36.595745 56.539007 35.432626 55.914894 34.382979C55.290779 33.333332 54.482268 32.375885 53.489362 31.510638S51.475179 29.744681 50.425532 28.808511C49.375885 27.87234 48.340426 26.645391 47.319149 25.12766S45.517732 21.900711 44.978723 20.0C44.496455 21.87234 43.751774 23.560285 42.744681 25.06383S40.702128 27.787234 39.638298 28.723404S37.546098 30.567374 36.553191 31.446809S34.744681 33.290779 34.106383 34.340426S33.148936 36.567374 33.148936 37.87234C33.148936 39.375885 33.680851 40.652481 34.744681 41.702128S37.0922 43.276596 38.595745 43.276596C40.921987 43.276596 42.822694 42.141843 44.297872 39.87234Z" fill="#010101" />
<path d="M45.702128 170.12766C45.843971 168.652481 46.198583 167.347519 46.765957 166.212766C47.333332 165.078013 47.929077 164.212766 48.553191 163.617021S49.96454 162.510638 50.914894 162.085106C51.865247 161.659574 52.595745 161.382979 53.106383 161.255319S54.241136 161.007092 54.978723 160.893617C55.092199 160.865248 55.177305 160.851064 55.234043 160.851064V160.0H34.765957V160.851064C37.177306 161.276596 39.007094 161.900711 40.255319 162.723404C42.638298 164.312055 43.985817 166.78014 44.297872 170.12766C42.822694 167.858157 40.921987 166.723404 38.595745 166.723404C37.0922 166.723404 35.808511 167.248226 34.744681 168.297872S33.148936 170.624115 33.148936 172.12766C33.148936 173.404255 33.460993 174.567374 34.085106 175.617021C34.709221 176.666668 35.517732 177.624115 36.510638 178.489362S38.524821 180.255319 39.574468 181.191489C40.624115 182.12766 41.659574 183.354609 42.680851 184.87234S44.482268 188.099289 45.021277 190.0C45.503545 188.12766 46.248226 186.439715 47.255319 184.93617S49.297872 182.212766 50.361702 181.276596S52.453902 179.432626 53.446809 178.553191S55.255319 176.709221 55.893617 175.659574S56.851064 173.432626 56.851064 172.12766C56.851064 170.624115 56.319149 169.347519 55.255319 168.297872S52.9078 166.723404 51.404255 166.723404C49.078013 166.723404 47.177306 167.858157 45.702128 170.12766Z" fill="#010101" />
<path d="M44.297872 86.539007C44.156029 88.014186 43.801417 89.319148 43.234043 90.453901C42.666668 91.588654 42.070923 92.453901 41.446809 93.049645S40.03546 94.156028 39.085106 94.58156C38.134753 95.007092 37.404255 95.283688 36.893617 95.411348S35.758864 95.659574 35.021277 95.77305C34.907801 95.801418 34.822695 95.815603 34.765957 95.815603V96.666667H55.234043V95.815603C52.822694 95.390071 50.992906 94.765956 49.744681 93.943262C47.361702 92.354611 46.014183 89.886526 45.702128 86.539007C47.177306 88.808509 49.078013 89.943262 51.404255 89.943262C52.9078 89.943262 54.191489 89.418441 55.255319 88.368794S56.851064 86.042552 56.851064 84.539007C56.851064 83.262411 56.539007 82.099292 55.914894 81.049645C55.290779 79.999999 54.482268 79.042552 53.489362 78.177305S51.475179 76.411348 50.425532 75.475177C49.375885 74.539007 48.340426 73.312058 47.319149 71.794326S45.517732 68.567377 44.978723 66.666667C44.496455 68.539007 43.751774 70.226952 42.744681 71.730496S40.702128 74.453901 39.638298 75.390071S37.546098 77.234041 36.553191 78.113475S34.744681 79.957445 34.106383 81.007092S33.148936 83.234041 33.148936 84.539007C33.148936 86.042552 33.680851 87.319148 34.744681 88.368794S37.0922 89.943262 38.595745 89.943262C40.921987 89.943262 42.822694 88.808509 44.297872 86.539007Z" fill="#010101" />
<path d="M45.702128 123.460993C45.843971 121.985814 46.198583 120.680852 46.765957 119.546099C47.333332 118.411346 47.929077 117.546099 48.553191 116.950355S49.96454 115.843972 50.914894 115.41844C51.865247 114.992908 52.595745 114.716312 53.106383 114.588652S54.241136 114.340426 54.978723 114.22695C55.092199 114.198582 55.177305 114.184397 55.234043 114.184397V113.333333H34.765957V114.184397C37.177306 114.609929 39.007094 115.234044 40.255319 116.056738C42.638298 117.645389 43.985817 120.113474 44.297872 123.460993C42.822694 121.191491 40.921987 120.056738 38.595745 120.056738C37.0922 120.056738 35.808511 120.581559 34.744681 121.631206S33.148936 123.957448 33.148936 125.460993C33.148936 126.737589 33.460993 127.900708 34.085106 128.950355C34.709221 130.000001 35.517732 130.957448 36.510638 131.822695S38.524821 133.588652 39.574468 134.524823C40.624115 135.460993 41.659574 136.687942 42.680851 138.205674S44.482268 141.432623 45.021277 143.333333C45.503545 141.460993 46.248226 139.773048 47.255319 138.269504S49.297872 135.546099 50.361702 134.609929S52.453902 132.765959 53.446809 131.886525S55.255319 130.042555 55.893617 128.992908S56.851064 126.765959 56.851064 125.460993C56.851064 123.957448 56.319149 122.680852 55.255319 121.631206S52.9078 120.056738 51.404255 120.056738C49.078013 120.056738 47.177306 121.191491 45.702128 123.460993Z" fill="#010101" />
<path d="M104.297872 39.87234C104.156029 41.347519 103.801417 42.652481 103.234043 43.787234C102.666668 44.921987 102.070923 45.787234 101.446809 46.382979S100.03546 47.489362 99.085106 47.914894C98.134753 48.340426 97.404255 48.617021 96.893617 48.744681S95.758864 48.992908 95.021277 49.106383C94.907801 49.134752 94.822695 49.148936 94.765957 49.148936V50.0H115.234043V49.148936C112.822694 48.723404 110.992906 48.099289 109.744681 47.276596C107.361702 45.687945 106.014183 43.21986 105.702128 39.87234C107.177306 42.141843 109.078013 43.276596 111.404255 43.276596C112.9078 43.276596 114.191489 42.751774 115.255319 41.702128S116.851064 39.375885 116.851064 37.87234C116.851064 36.595745 116.539007 35.432626 115.914894 34.382979C115.290779 33.333332 114.482268 32.375885 113.489362 31.510638S111.475179 29.744681 110.425532 28.808511C109.375885 27.87234 108.340426 26.645391 107.319149 25.12766S105.517732 21.900711 104.978723 20.0C104.496455 21.87234 103.751774 23.560285 102.744681 25.06383S100.702128 27.787234 99.638298 28.723404S97.546098 30.567374 96.553191 31.446809S94.744681 33.290779 94.106383 34.340426S93.148936 36.567374 93.148936 37.87234C93.148936 39.375885 93.680851 40.652481 94.744681 41.702128S97.0922 43.276596 98.595745 43.276596C100.921987 43.276596 102.822694 42.141843 104.297872 39.87234Z" fill="#010101" />
<path d="M105.702128 170.12766C105.843971 168.652481 106.198583 167.347519 106.765957 166.212766C107.333332 165.078013 107.929077 164.212766 108.553191 163.617021S109.96454 162.510638 110.914894 162.085106C111.865247 161.659574 112.595745 161.382979 113.106383 161.255319S114.241136 161.007092 114.978723 160.893617C115.092199 160.865248 115.177305 160.851064 115.234043 160.851064V160.0H94.765957V160.851064C97.177306 161.276596 99.007094 161.900711 100.255319 162.723404C102.638298 164.312055 103.985817 166.78014 104.297872 170.12766C102.822694 167.858157 100.921987 166.723404 98.595745 166.723404C97.0922 166.723404 95.808511 167.248226 94.744681 168.297872S93.148936 170.624115 93.148936 172.12766C93.148936 173.404255 93.460993 174.567374 94.085106 175.617021C94.709221 176.666668 95.517732 177.624115 96.510638 178.489362S98.524821 180.255319 99.574468 181.191489C100.624115 182.12766 101.659574 183.354609 102.680851 184.87234S104.482268 188.099289 105.021277 190.0C105.503545 188.12766 106.248226 186.439715 107.255319 184.93617S109.297872 182.212766 110.361702 181.276596S112.453902 179.432626 113.446809 178.553191S115.255319 176.709221 115.893617 175.659574S116.851064 173.432626 116.851064 172.12766C116.851064 170.624115 116.319149 169.347519 115.255319 168.297872S112.9078 166.723404 111.404255 166.723404C109.078013 166.723404 107.177306 167.858157 105.702128 170.12766Z" fill="#010101" />
<path d="M104.297872 86.539007C104.156029 88.014186 103.801417 89.319148 103.234043 90.453901C102.666668 91.588654 102.070923 92.453901 101.446809 93.049645S100.03546 94.156028 99.085106 94.58156C98.134753 95.007092 97.404255 95.283688 96.893617 95.411348S95.758864 95.659574 95.021277 95.77305C94.907801 95.801418 94.822695 95.815603 94.765957 95.815603V96.666667H115.234043V95.815603C112.822694 95.390071 110.992906 94.765956 109.744681 93.943262C107.361702 92.354611 106.014183 89.886526 105.702128 86.539007C107.177306 88.808509 109.078013 89.943262 111.404255 89.943262C112.9078 89.943262 114.191489 89.418441 115.255319 88.368794S116.851064 86.042552 116.851064 84.539007C116.851064 83.262411 116.539007 82.099292 115.914894 81.049645C115.290779 79.999999 114.482268 79.042552 113.489362 78.177305S111.475179 76.411348 110.425532 75.475177C109.375885 74.539007 108.340426 73.312058 107.319149 71.794326S105.517732 68.567377 104.978723 66.666667C104.496455 68.539007 103.751774 70.226952 102.744681 71.730496S100.702128 74.453901 99.638298 75.390071S97.546098 77.234041 96.553191 78.113475S94.744681 79.957445 94.106383 81.007092S93.148936 83.234041 93.148936 84.539007C93.148936 86.042552 93.680851 87.319148 94.744681 88.368794S97.0922 89.943262 98.595745 89.943262C100.921987 89.943262 102.822694 88.808509 104.297872 86.539007Z" fill="#010101" />
<path d="M105.702128 123.460993C105.843971 121.985814 106.198583 120.680852 106.765957 119.546099C107.333332 118.411346 107.929077 117.546099 108.553191 116.950355S109.96454 115.843972 110.914894 115.41844C111.865247 114.992908 112.595745 114.716312 113.106383 114.588652S114.241136 114.340426 114.978723 114.22695C115.092199 114.198582 115.177305 114.184397 115.234043 114.184397V113.333333H94.765957V114.184397C97.177306 114.609929 99.007094 115.234044 100.255319 116.056738C102.638298 117.645389 103.985817 120.113474 104.297872 123.460993C102.822694 121.191491 100.921987 120.056738 98.595745 120.056738C97.0922 120.056738 95.808511 120.581559 94.744681 121.631206S93.148936 123.957448 93.148936 125.460993C93.148936 126.737589 93.460993 127.900708 94.085106 128.950355C94.709221 130.000001 95.517732 130.957448 96.510638 131.822695S98.524821 133.588652 99.574468 134.524823C100.624115 135.460993 101.659574 136.687942 102.680851 138.205674S104.482268 141.432623 105.021277 143.333333C105.503545 141.460993 106.248226 139.773048 107.255319 138.269504S109.297872 135.546099 110.361702 134.609929S112.453902 132.765959 113.446809 131.886525S115.255319 130.042555 115.893617 128.992908S116.851064 126.765959 116.851064 125.460993C116.851064 123.957448 116.319149 122.680852 115.255319 121.631206S112.9078 120.056738 111.404255 120.056738C109.078013 120.056738 107.177306 121.191491 105.702128 123.460993Z" fill="#010101" />
<path d="M142.180909 25.329945Q143.88 24.604491 144.796364 23.344491T145.712727 20.480855Q145.712727 18.800855 144.586364 17.559945T141.245455 15.364491Q143.078182 14.257218 143.937273 13.111764T144.796364 10.5154Q144.796364 9.026309 143.803636 7.766309T141.169091 5.780855T137.656364 5.0554Q135.747273 5.0554 134.258182 5.742673T131.929091 7.613582T131.089091 10.286309Q131.089091 11.660855 132.043636 12.863582T134.907273 15.020855Q132.387273 16.089945 131.337273 17.273582T130.287273 20.289945Q130.287273 21.8554 131.299091 23.172673T134.124545 25.272673T138.267273 26.0554Q140.481818 26.0554 142.180909 25.329945ZM134.620909 12.519945Q134.067273 11.431764 134.067273 10.248127Q134.067273 8.606309 135.06 7.479945T137.847273 6.353582Q139.565455 6.353582 140.596364 7.346309T141.627273 9.866309Q141.627273 11.279036 140.233636 12.252673T136.205455 14.333582Q135.174545 13.608127 134.620909 12.519945ZM134.869091 23.726309Q133.723636 22.657218 133.723636 20.977218Q133.723636 19.869945 134.43 19.049036T136.262727 17.636309T139.794545 15.9754Q140.978182 16.777218 141.627273 17.884491T142.276364 20.328127Q142.276364 22.313582 141.073636 23.554491T137.923636 24.7954Q136.014545 24.7954 134.869091 23.726309Z" fill="#010101" />
<path d="M137.631383 42.224645C137.556915 42.999114 137.370744 43.684219 137.072872 44.279965C136.775001 44.87571 136.462235 45.329965 136.134574 45.64273S135.393616 46.223582 134.894681 46.446986C134.395745 46.67039 134.012234 46.815603 133.744149 46.882624S133.148404 47.012943 132.76117 47.072518C132.701596 47.087411 132.656915 47.094858 132.627128 47.094858V47.541667H143.372872V47.094858C142.106914 46.871454 141.146276 46.543794 140.490957 46.111879C139.239894 45.277838 138.532446 43.982093 138.368617 42.224645C139.143086 43.416134 140.140957 44.011879 141.362234 44.011879C142.151595 44.011879 142.825532 43.736348 143.384043 43.185284S144.221809 41.964006 144.221809 41.174645C144.221809 40.504433 144.057979 39.893795 143.730319 39.34273C143.402659 38.791666 142.978191 38.289006 142.456915 37.834752S141.399469 36.907624 140.848404 36.416135C140.29734 35.924645 139.753723 35.280497 139.217553 34.483688S138.271809 32.78954 137.98883 31.791667C137.735639 32.774645 137.344682 33.660816 136.815957 34.450177S135.743617 35.879965 135.185106 36.371454S134.086701 37.339538 133.565426 37.801241S132.615957 38.769325 132.280851 39.32039S131.778191 40.489538 131.778191 41.174645C131.778191 41.964006 132.057447 42.634219 132.615957 43.185284S133.848405 44.011879 134.637766 44.011879C135.859043 44.011879 136.856914 43.416134 137.631383 42.224645Z" fill="#010101" />
<path d="M7.819091 184.670055Q6.12 185.395509 5.203636 186.655509T4.287273 189.519145Q4.287273 191.199145 5.413636 192.440055T8.754545 194.635509Q6.921818 195.742782 6.062727 196.888236T5.203636 199.4846Q5.203636 200.973691 6.196364 202.233691T8.830909 204.219145T12.343636 204.9446Q14.252727 204.9446 15.741818 204.257327T18.070909 202.386418T18.910909 199.713691Q18.910909 198.339145 17.956364 197.136418T15.092727 194.979145Q17.612727 193.910055 18.662727 192.726418T19.712727 189.710055Q19.712727 188.1446 18.700909 186.827327T15.875455 184.727327T11.732727 183.9446Q9.518182 183.9446 7.819091 184.670055ZM15.379091 197.480055Q15.932727 198.568236 15.932727 199.751873Q15.932727 201.393691 14.94 202.520055T12.152727 203.646418Q10.434545 203.646418 9.403636 202.653691T8.372727 200.133691Q8.372727 198.720964 9.766364 197.747327T13.794545 195.666418Q14.825455 196.391873 15.379091 197.480055ZM15.130909 186.273691Q16.276364 187.342782 16.276364 189.022782Q16.276364 190.130055 15.57 190.950964T13.737273 192.363691T10.205455 194.0246Q9.021818 193.222782 8.372727 192.115509T7.723636 189.671873Q7.723636 187.686418 8.926364 186.445509T12.076364 185.2046Q13.985455 185.2046 15.130909 186.273691Z" fill="#010101" />
<path d="M12.368617 167.775355C12.443085 167.000886 12.629256 166.315781 12.927128 165.720035C13.224999 165.12429 13.537765 164.670035 13.865426 164.35727S14.606384 163.776418 15.105319 163.553014C15.604255 163.32961 15.987766 163.184397 16.255851 163.117376S16.851596 162.987057 17.23883 162.927482C17.298404 162.912589 17.343085 162.905142 17.372872 162.905142V162.458333H6.627128V162.905142C7.893086 163.128546 8.853724 163.456206 9.509043 163.888121C10.760106 164.722162 11.467554 166.017907 11.631383 167.775355C10.856914 166.583866 9.859043 165.988121 8.637766 165.988121C7.848405 165.988121 7.174468 166.263652 6.615957 166.814716S5.778191 168.035994 5.778191 168.825355C5.778191 169.495567 5.942021 170.106205 6.269681 170.65727C6.597341 171.208334 7.021809 171.710994 7.543085 172.165248S8.600531 173.092376 9.151596 173.583865C9.70266 174.075355 10.246277 174.719503 10.782447 175.516312S11.728191 177.21046 12.01117 178.208333C12.264361 177.225355 12.655318 176.339184 13.184043 175.549823S14.256383 174.120035 14.814894 173.628546S15.913299 172.660462 16.434574 172.198759S17.384043 171.230675 17.719149 170.67961S18.221809 169.510462 18.221809 168.825355C18.221809 168.035994 17.942553 167.365781 17.384043 166.814716S16.151595 165.988121 15.362234 165.988121C14.140957 165.988121 13.143086 166.583866 12.368617 167.775355Z" fill="#010101" />
</svg>
