<svg width="500.000000" height="700.000000" id="card-realheart9">
<radialGradient id="card-realwhitegradient" cx="250.0" cy="350.0" r="500" gradientTransform="matrix(1 0 0 1 0 -.25)" gradientUnits="userSpaceOnUse">
<stop stop-color="#FDFAF4" offset=".15"/>
<stop stop-color="#FDF9F2" offset=".35"/>
<stop stop-color="#FCF7F1" offset=".5"/>
<stop stop-color="#FDFDF8" offset=".75"/>
<stop stop-color="#FFFDFA" offset="1"/>
</radialGradient>
<rect x="0" y="0" rx="25.0" ry="25.0" width="500" height="700.0" stroke="rgba(1,1,1,0.333)" fill="url(#card-realwhitegradient)" />
<path d="M149.860724 86.722377C148.003719 79.851444 145.00929 74.791082 140.877437 71.541318S132.172702 66.666667 127.158774 66.666667C121.494889 66.666667 116.643454 68.616527 112.604457 72.516249S106.545961 81.104926 106.545961 86.583101C106.545961 91.597029 107.77623 96.703812 110.236769 101.903435S115.807799 112.116987 119.568245 116.945218S127.158774 126.624884 131.058496 131.499536S138.695446 141.922001 142.270195 148.14299S148.375111 160.538533 149.860724 166.666667C151.532033 160.259981 154.20149 153.830079 157.869081 147.376973S165.320334 135.213561 169.220056 130.246054C173.119777 125.278547 176.926643 120.403895 180.640669 115.622098S187.41876 106.035288 189.832869 101.207057S193.454039 91.782725 193.454039 87.418756C193.454039 81.569174 191.480961 76.648101 187.534819 72.655525C183.588677 68.662948 178.737228 66.666667 172.980501 66.666667C161.931295 66.666667 154.224652 73.351903 149.860724 86.722377Z" fill="#da0a0a" />
<path d="M150.139276 613.277623C151.996281 620.148556 154.99071 625.208918 159.122563 628.458682S167.827298 633.333333 172.841226 633.333333C178.505111 633.333333 183.356546 631.383473 187.395543 627.483751S193.454039 618.895074 193.454039 613.416899C193.454039 608.402971 192.22377 603.296188 189.763231 598.096565S184.192201 587.883013 180.431755 583.054782S172.841226 573.375116 168.941504 568.500464S161.304554 558.077999 157.729805 551.85701S151.624889 539.461467 150.139276 533.333333C148.467967 539.740019 145.79851 546.169921 142.130919 552.623027S134.679666 564.786439 130.779944 569.753946C126.880223 574.721453 123.073357 579.596105 119.359331 584.377902S112.58124 593.964712 110.167131 598.792943S106.545961 608.217275 106.545961 612.581244C106.545961 618.430826 108.519039 623.351899 112.465181 627.344475C116.411323 631.337052 121.262772 633.333333 127.019499 633.333333C138.068705 633.333333 145.775348 626.648097 150.139276 613.277623Z" fill="#da0a0a" />
<path d="M149.860724 242.277933C148.003719 235.406999 145.00929 230.346637 140.877437 227.096874S132.172702 222.222222 127.158774 222.222222C121.494889 222.222222 116.643454 224.172083 112.604457 228.071804S106.545961 236.660481 106.545961 242.138657C106.545961 247.152584 107.77623 252.259367 110.236769 257.458991S115.807799 267.672543 119.568245 272.500774S127.158774 282.180439 131.058496 287.055091S138.695446 297.477556 142.270195 303.698545S148.375111 316.094089 149.860724 322.222222C151.532033 315.815537 154.20149 309.385634 157.869081 302.932529S165.320334 290.769116 169.220056 285.801609C173.119777 280.834102 176.926643 275.959451 180.640669 271.177654S187.41876 261.590843 189.832869 256.762612S193.454039 247.338281 193.454039 242.974311C193.454039 237.124729 191.480961 232.203657 187.534819 228.21108C183.588677 224.218504 178.737228 222.222222 172.980501 222.222222C161.931295 222.222222 154.224652 228.907459 149.860724 242.277933Z" fill="#da0a0a" />
<path d="M150.139276 457.722067C151.996281 464.593001 154.99071 469.653363 159.122563 472.903126S167.827298 477.777778 172.841226 477.777778C178.505111 477.777778 183.356546 475.827917 187.395543 471.928196S193.454039 463.339519 193.454039 457.861343C193.454039 452.847416 192.22377 447.740633 189.763231 442.541009S184.192201 432.327457 180.431755 427.499226S172.841226 417.819561 168.941504 412.944909S161.304554 402.522444 157.729805 396.301455S151.624889 383.905911 150.139276 377.777778C148.467967 384.184463 145.79851 390.614366 142.130919 397.067471S134.679666 409.230884 130.779944 414.198391C126.880223 419.165898 123.073357 424.040549 119.359331 428.822346S112.58124 438.409157 110.167131 443.237388S106.545961 452.661719 106.545961 457.025689C106.545961 462.875271 108.519039 467.796343 112.465181 471.78892C116.411323 475.781496 121.262772 477.777778 127.019499 477.777778C138.068705 477.777778 145.775348 471.092541 150.139276 457.722067Z" fill="#da0a0a" />
<path d="M349.860724 86.722377C348.003719 79.851444 345.00929 74.791082 340.877437 71.541318S332.172702 66.666667 327.158774 66.666667C321.494889 66.666667 316.643454 68.616527 312.604457 72.516249S306.545961 81.104926 306.545961 86.583101C306.545961 91.597029 307.77623 96.703812 310.236769 101.903435S315.807799 112.116987 319.568245 116.945218S327.158774 126.624884 331.058496 131.499536S338.695446 141.922001 342.270195 148.14299S348.375111 160.538533 349.860724 166.666667C351.532033 160.259981 354.20149 153.830079 357.869081 147.376973S365.320334 135.213561 369.220056 130.246054C373.119777 125.278547 376.926643 120.403895 380.640669 115.622098S387.41876 106.035288 389.832869 101.207057S393.454039 91.782725 393.454039 87.418756C393.454039 81.569174 391.480961 76.648101 387.534819 72.655525C383.588677 68.662948 378.737228 66.666667 372.980501 66.666667C361.931295 66.666667 354.224652 73.351903 349.860724 86.722377Z" fill="#da0a0a" />
<path d="M350.139276 613.277623C351.996281 620.148556 354.99071 625.208918 359.122563 628.458682S367.827298 633.333333 372.841226 633.333333C378.505111 633.333333 383.356546 631.383473 387.395543 627.483751S393.454039 618.895074 393.454039 613.416899C393.454039 608.402971 392.22377 603.296188 389.763231 598.096565S384.192201 587.883013 380.431755 583.054782S372.841226 573.375116 368.941504 568.500464S361.304554 558.077999 357.729805 551.85701S351.624889 539.461467 350.139276 533.333333C348.467967 539.740019 345.79851 546.169921 342.130919 552.623027S334.679666 564.786439 330.779944 569.753946C326.880223 574.721453 323.073357 579.596105 319.359331 584.377902S312.58124 593.964712 310.167131 598.792943S306.545961 608.217275 306.545961 612.581244C306.545961 618.430826 308.519039 623.351899 312.465181 627.344475C316.411323 631.337052 321.262772 633.333333 327.019499 633.333333C338.068705 633.333333 345.775348 626.648097 350.139276 613.277623Z" fill="#da0a0a" />
<path d="M349.860724 242.277933C348.003719 235.406999 345.00929 230.346637 340.877437 227.096874S332.172702 222.222222 327.158774 222.222222C321.494889 222.222222 316.643454 224.172083 312.604457 228.071804S306.545961 236.660481 306.545961 242.138657C306.545961 247.152584 307.77623 252.259367 310.236769 257.458991S315.807799 267.672543 319.568245 272.500774S327.158774 282.180439 331.058496 287.055091S338.695446 297.477556 342.270195 303.698545S348.375111 316.094089 349.860724 322.222222C351.532033 315.815537 354.20149 309.385634 357.869081 302.932529S365.320334 290.769116 369.220056 285.801609C373.119777 280.834102 376.926643 275.959451 380.640669 271.177654S387.41876 261.590843 389.832869 256.762612S393.454039 247.338281 393.454039 242.974311C393.454039 237.124729 391.480961 232.203657 387.534819 228.21108C383.588677 224.218504 378.737228 222.222222 372.980501 222.222222C361.931295 222.222222 354.224652 228.907459 349.860724 242.277933Z" fill="#da0a0a" />
<path d="M350.139276 457.722067C351.996281 464.593001 354.99071 469.653363 359.122563 472.903126S367.827298 477.777778 372.841226 477.777778C378.505111 477.777778 383.356546 475.827917 387.395543 471.928196S393.454039 463.339519 393.454039 457.861343C393.454039 452.847416 392.22377 447.740633 389.763231 442.541009S384.192201 432.327457 380.431755 427.499226S372.841226 417.819561 368.941504 412.944909S361.304554 402.522444 357.729805 396.301455S351.624889 383.905911 350.139276 377.777778C348.467967 384.184463 345.79851 390.614366 342.130919 397.067471S334.679666 409.230884 330.779944 414.198391C326.880223 419.165898 323.073357 424.040549 319.359331 428.822346S312.58124 438.409157 310.167131 443.237388S306.545961 452.661719 306.545961 457.025689C306.545961 462.875271 308.519039 467.796343 312.465181 471.78892C316.411323 475.781496 321.262772 477.777778 327.019499 477.777778C338.068705 477.777778 345.775348 471.092541 350.139276 457.722067Z" fill="#da0a0a" />
<path d="M249.860724 164.500155C248.003719 157.629222 245.00929 152.568859 240.877437 149.319096S232.172702 144.444444 227.158774 144.444444C221.494889 144.444444 216.643454 146.394305 212.604457 150.294027S206.545961 158.882703 206.545961 164.360879C206.545961 169.374807 207.77623 174.481589 210.236769 179.681213S215.807799 189.894765 219.568245 194.722996S227.158774 204.402662 231.058496 209.277314S238.695446 219.699779 242.270195 225.920768S248.375111 238.316311 249.860724 244.444444C251.532033 238.037759 254.20149 231.607857 257.869081 225.154751S265.320334 212.991339 269.220056 208.023832C273.119777 203.056325 276.926643 198.181673 280.640669 193.399876S287.41876 183.813066 289.832869 178.984834S293.454039 169.560503 293.454039 165.196534C293.454039 159.346951 291.480961 154.425879 287.534819 150.433302C283.588677 146.440726 278.737228 144.444444 272.980501 144.444444C261.931295 144.444444 254.224652 151.129681 249.860724 164.500155Z" fill="#da0a0a" />
<path d="M474.620253 86.851333Q477.151899 86.851333 477.151899 84.572852Q477.151899 82.547536 474.873418 81.914624Q451.708861 74.699435 447.278481 55.965257Q451.455696 58.750068 455.56962 59.889308T464.113924 61.028549Q470.189873 61.028549 475.253165 58.30703T483.227848 50.838675T486.139241 40.01589Q486.139241 33.180447 482.468354 27.927283T472.848101 19.762726T460.189873 16.851333Q448.164557 16.851333 441.012658 24.319688T433.860759 44.699435Q433.860759 54.952599 438.734177 63.813359T452.468354 78.686776T472.721519 86.724751Q473.35443 86.851333 474.620253 86.851333ZM453.227848 53.750068Q449.810127 52.167789 446.772152 49.509561Q446.012658 46.471586 446.012658 44.572852Q446.012658 39.509561 447.341772 34.066523T451.898734 24.762726T460.189873 20.901966Q466.139241 20.901966 470.063291 25.901966T473.987342 38.87665Q473.987342 46.345004 470.063291 50.838675T459.810127 55.332346Q456.64557 55.332346 453.227848 53.750068Z" fill="#da0a0a" />
<path d="M459.92688 116.50147C458.951952 112.89423 457.379877 110.23754 455.210655 108.531414S450.640669 105.972222 448.008357 105.972222C445.034817 105.972222 442.487813 106.995899 440.36734 109.043253S437.18663 113.552308 437.18663 116.42835C437.18663 119.060662 437.832521 121.741723 439.124304 124.471526S442.049095 129.83364 444.023329 132.368462S448.008357 137.450286 450.05571 140.009478S454.065109 145.481273 455.941852 148.747292S459.146933 155.254952 459.92688 158.472222C460.804318 155.108712 462.205782 151.733014 464.131267 148.345133S468.043175 141.959342 470.090529 139.3514C472.137883 136.743459 474.136488 134.184267 476.086351 131.673824S479.644849 126.640748 480.912256 124.105927S482.81337 119.158153 482.81337 116.867069C482.81337 113.796038 481.777505 111.212475 479.70578 109.116373C477.634055 107.02027 475.087045 105.972222 472.064763 105.972222C466.26393 105.972222 462.217942 109.481972 459.92688 116.50147Z" fill="#da0a0a" />
<path d="M25.379747 613.148667Q22.848101 613.148667 22.848101 615.427148Q22.848101 617.452464 25.126582 618.085376Q48.291139 625.300565 52.721519 644.034743Q48.544304 641.249932 44.43038 640.110692T35.886076 638.971451Q29.810127 638.971451 24.746835 641.69297T16.772152 649.161325T13.860759 659.98411Q13.860759 666.819553 17.531646 672.072717T27.151899 680.237274T39.810127 683.148667Q51.835443 683.148667 58.987342 675.680312T66.139241 655.300565Q66.139241 645.047401 61.265823 636.186641T47.531646 621.313224T27.278481 613.275249Q26.64557 613.148667 25.379747 613.148667ZM46.772152 646.249932Q50.189873 647.832211 53.227848 650.490439Q53.987342 653.528414 53.987342 655.427148Q53.987342 660.490439 52.658228 665.933477T48.101266 675.237274T39.810127 679.098034Q33.860759 679.098034 29.936709 674.098034T26.012658 661.12335Q26.012658 653.654996 29.936709 649.161325T40.189873 644.667654Q43.35443 644.667654 46.772152 646.249932Z" fill="#da0a0a" />
<path d="M40.07312 583.49853C41.048048 587.10577 42.620123 589.76246 44.789345 591.468586S49.359331 594.027778 51.991643 594.027778C54.965183 594.027778 57.512187 593.004101 59.63266 590.956747S62.81337 586.447692 62.81337 583.57165C62.81337 580.939338 62.167479 578.258277 60.875696 575.528474S57.950905 570.16636 55.976671 567.631538S51.991643 562.549714 49.94429 559.990522S45.934891 554.518727 44.058148 551.252708S40.853067 544.745048 40.07312 541.527778C39.195682 544.891288 37.794218 548.266986 35.868733 551.654867S31.956825 558.040658 29.909471 560.6486C27.862117 563.256541 25.863512 565.815733 23.913649 568.326176S20.355151 573.359252 19.087744 575.894073S17.18663 580.841847 17.18663 583.132931C17.18663 586.203962 18.222495 588.787525 20.29422 590.883627C22.365945 592.97973 24.912955 594.027778 27.935237 594.027778C33.73607 594.027778 37.782058 590.518028 40.07312 583.49853Z" fill="#da0a0a" />
</svg>
