<svg width="150.000000" height="210.000000" id="card-webspade12">
<radialGradient id="card-webwhitegradient" cx="75.0" cy="105.0" r="150" gradientTransform="matrix(1 0 0 1 0 -.25)" gradientUnits="userSpaceOnUse">
<stop stop-color="#FDFAF4" offset=".15"/>
<stop stop-color="#FDF9F2" offset=".35"/>
<stop stop-color="#FCF7F1" offset=".5"/>
<stop stop-color="#FDFDF8" offset=".75"/>
<stop stop-color="#FFFDFA" offset="1"/>
</radialGradient>
<rect x="0" y="0" rx="7.5" ry="7.5" width="150" height="210.0" stroke="rgba(1,1,1,0.333)" fill="url(#card-webwhitegradient)" />
<rect x="30.0" y="21.0" width="90.0" height="168.0" stroke="#010101" fill="#fffdfa" />
<path d="M74.914894 83.076454C78.489362 83.076454 81.737591 83.331773 84.659574 83.842411C87.581557 84.35305 89.042553 85.005535 89.042553 85.799858C89.042553 86.707662 88.390071 87.16156 87.085106 87.16156C86.858156 87.16156 85.113472 87.048085 81.851064 86.821135S76.24823 86.480709 74.829787 86.480709C73.354613 86.480709 71.028366 86.594184 67.851064 86.821135C64.673762 87.048085 63.0 87.16156 62.829787 87.16156C61.524826 87.16156 60.87234 86.70766 60.87234 85.799858C60.87234 83.984258 65.553191 83.076454 74.914894 83.076454ZM99.680851 50.22539C100.248227 50.22539 100.744681 50.423971 101.170213 50.821135C101.595745 51.218298 101.808511 51.728939 101.808511 52.35305S101.595745 53.487799 101.170213 53.884965S100.24823 54.480709 99.680851 54.480709C98.319149 54.480709 97.638298 53.77149 97.638298 52.35305C97.638298 50.934607 98.319149 50.22539 99.680851 50.22539ZM88.531915 44.863688C90.007089 44.863688 90.744681 45.572908 90.744681 46.991348S90.007092 49.119007 88.531915 49.119007C87.170213 49.119007 86.489362 48.409788 86.489362 46.991348S87.170213 44.863688 88.531915 44.863688ZM61.382979 44.863688C61.950355 44.863688 62.432621 45.076454 62.829787 45.501986S63.425532 46.423969 63.425532 46.991348C63.425532 48.40979 62.744681 49.119007 61.382979 49.119007C59.964536 49.119007 59.255319 48.409788 59.255319 46.991348S59.964539 44.863688 61.382979 44.863688ZM50.319149 50.22539C51.680851 50.22539 52.361702 50.93461 52.361702 52.35305C52.361702 53.771492 51.680851 54.480709 50.319149 54.480709C48.900706 54.480709 48.191489 53.77149 48.191489 52.35305C48.191489 51.728936 48.404255 51.218301 48.829787 50.821135C49.255319 50.423971 49.75177 50.22539 50.319149 50.22539ZM58.829787 82.650922C58.829787 82.991348 58.432624 84.083543 57.638298 85.927518S56.446809 89.431067 56.446809 90.906241C56.446809 92.267943 58.390068 93.246667 62.276596 93.842411C66.163123 94.438156 70.404255 94.736028 75.0 94.736028C80.219855 94.736028 84.602809 94.381418 88.148936 93.672199C91.695038 92.962979 93.468085 92.04099 93.468085 90.906241C93.468085 89.374326 93.085106 87.700565 92.319149 85.884965S91.170213 82.991348 91.170213 82.650922C91.170213 81.686386 92.234043 79.970071 94.361702 77.501986S97.553191 73.516173 97.553191 72.948794C97.553191 72.608369 97.765957 71.728939 98.191489 70.310496S99.085106 67.019713 99.595745 64.693475S100.446809 59.984258 100.617021 57.544539C103.226953 56.466522 104.531915 54.736028 104.531915 52.35305C104.531915 50.991348 104.06383 49.856599 103.12766 48.948794S101.042553 47.587092 99.680851 47.587092C98.432621 47.587092 97.326238 48.055177 96.361702 48.991348S94.914894 51.048088 94.914894 52.35305C94.914894 52.409787 94.985816 52.93461 95.12766 53.927518S95.340426 55.47362 95.340426 55.587092C95.340426 58.140284 93.524826 61.260854 89.893617 64.948794C89.609929 62.622556 89.468085 60.182837 89.468085 57.629645C89.468085 55.530352 89.666666 53.884965 90.06383 52.693475S90.914894 50.764394 91.425532 50.480709S92.390068 49.77149 92.787234 49.204113S93.382979 47.842411 93.382979 46.821135C93.382979 45.459433 92.914894 44.324684 91.978723 43.416879S89.893617 42.055177 88.531915 42.055177C87.226953 42.055177 86.106383 42.523262 85.170213 43.459433S83.765957 45.516173 83.765957 46.821135C83.765957 46.93461 83.865249 47.530354 84.06383 48.608369S84.361702 50.310496 84.361702 50.480709C84.361702 53.658011 82.801421 58.509075 79.680851 65.033901C78.489362 59.700565 77.893617 55.615433 77.893617 52.778582C77.893617 50.736028 78.191489 48.877875 78.787234 47.204113S79.680851 44.636735 79.680851 44.523262C79.680851 43.16156 79.212766 42.026811 78.276596 41.119007S76.219855 39.757305 74.914894 39.757305S72.517728 40.22539 71.638298 41.16156S70.319149 43.218301 70.319149 44.523262C70.319149 44.80695 70.617021 45.743118 71.212766 47.331773S72.106383 50.736028 72.106383 52.778582C72.106383 55.615458 71.510638 59.700565 70.319149 65.033901C67.255319 58.565816 65.723404 53.714752 65.723404 50.480709C65.723404 50.253759 65.808511 49.658014 65.978723 48.693475S66.234043 47.10482 66.234043 46.821135C66.234043 45.459433 65.765957 44.324684 64.829787 43.416879S62.744681 42.055177 61.382979 42.055177C60.078017 42.055177 58.957447 42.523262 58.021277 43.459433S56.617021 45.516173 56.617021 46.821135C56.617021 47.672199 56.744681 48.338862 57.0 48.821135S57.58156 49.714752 57.978723 50.055177S58.773049 50.80695 59.170213 51.28922C59.567376 51.77149 59.893617 52.551628 60.148936 53.629645S60.531915 56.069365 60.531915 57.714752C60.531915 60.211203 60.390071 62.622556 60.106383 64.948794C56.475174 61.260854 54.659574 58.140284 54.659574 55.587092C54.659574 54.28213 54.801419 53.204113 55.085106 52.35305C55.085106 51.048088 54.617021 49.927518 53.680851 48.991348S51.624111 47.587092 50.319149 47.587092C48.957447 47.587092 47.808511 48.055177 46.87234 48.991348S45.468085 51.048088 45.468085 52.35305C45.468085 54.622556 46.773047 56.35305 49.382979 57.544539C49.723404 61.119007 50.319149 64.423969 51.170213 67.459433S52.446809 72.324684 52.446809 72.948794C52.446809 73.459433 53.510638 74.962982 55.638298 77.459433S58.829787 81.686386 58.829787 82.650922ZM74.914894 42.22539C75.539007 42.22539 76.049643 42.423971 76.446809 42.821135S77.042553 43.728939 77.042553 44.35305S76.843972 45.487799 76.446809 45.884965S75.539004 46.480709 74.914894 46.480709C73.553191 46.480709 72.87234 45.77149 72.87234 44.35305C72.87234 43.785673 73.070922 43.28922 73.468085 42.863688S74.347515 42.22539 74.914894 42.22539ZM59.595745 75.416879C59.595745 74.452343 61.283685 73.757305 64.659574 73.331773C68.035464 72.906241 71.453898 72.693475 74.914894 72.693475C78.205677 72.693475 81.595745 72.920426 85.085106 73.374326S90.319149 74.53745 90.319149 75.501986C90.319149 76.296312 89.58156 76.693475 88.106383 76.693475C86.858153 76.693475 84.758868 76.594184 81.808511 76.395603S76.531915 76.09773 74.829787 76.09773C73.070919 76.09773 70.475174 76.197022 67.042553 76.395603C63.609932 76.594184 61.808511 76.693475 61.638298 76.693475C60.276596 76.693475 59.595745 76.267943 59.595745 75.416879Z" fill="#010101" />
<path d="M75.085106 126.923546C71.510638 126.923546 68.262409 126.668227 65.340426 126.157589C62.418443 125.64695 60.957447 124.994465 60.957447 124.200142C60.957447 123.292338 61.609929 122.83844 62.914894 122.83844C63.141844 122.83844 64.886528 122.951915 68.148936 123.178865S73.75177 123.519291 75.170213 123.519291C76.645387 123.519291 78.971634 123.405816 82.148936 123.178865C85.326238 122.951915 87.0 122.83844 87.170213 122.83844C88.475174 122.83844 89.12766 123.29234 89.12766 124.200142C89.12766 126.015742 84.446809 126.923546 75.085106 126.923546ZM50.319149 159.77461C49.751773 159.77461 49.255319 159.576029 48.829787 159.178865C48.404255 158.781702 48.191489 158.271061 48.191489 157.64695S48.404255 156.512201 48.829787 156.115035S49.75177 155.519291 50.319149 155.519291C51.680851 155.519291 52.361702 156.22851 52.361702 157.64695C52.361702 159.065393 51.680851 159.77461 50.319149 159.77461ZM61.468085 165.136312C59.992911 165.136312 59.255319 164.427092 59.255319 163.008652S59.992908 160.880993 61.468085 160.880993C62.829787 160.880993 63.510638 161.590212 63.510638 163.008652S62.829787 165.136312 61.468085 165.136312ZM88.617021 165.136312C88.049645 165.136312 87.567379 164.923546 87.170213 164.498014S86.574468 163.576031 86.574468 163.008652C86.574468 161.59021 87.255319 160.880993 88.617021 160.880993C90.035464 160.880993 90.744681 161.590212 90.744681 163.008652S90.035461 165.136312 88.617021 165.136312ZM99.680851 159.77461C98.319149 159.77461 97.638298 159.06539 97.638298 157.64695C97.638298 156.228508 98.319149 155.519291 99.680851 155.519291C101.099294 155.519291 101.808511 156.22851 101.808511 157.64695C101.808511 158.271064 101.595745 158.781699 101.170213 159.178865C100.744681 159.576029 100.24823 159.77461 99.680851 159.77461ZM91.170213 127.349078C91.170213 127.008652 91.567376 125.916457 92.361702 124.072482S93.553191 120.568933 93.553191 119.093759C93.553191 117.732057 91.609932 116.753333 87.723404 116.157589C83.836877 115.561844 79.595745 115.263972 75.0 115.263972C69.780145 115.263972 65.397191 115.618582 61.851064 116.327801C58.304962 117.037021 56.531915 117.95901 56.531915 119.093759C56.531915 120.625674 56.914894 122.299435 57.680851 124.115035S58.829787 127.008652 58.829787 127.349078C58.829787 128.313614 57.765957 130.029929 55.638298 132.498014S52.446809 136.483827 52.446809 137.051206C52.446809 137.391631 52.234043 138.271061 51.808511 139.689504S50.914894 142.980287 50.404255 145.306525S49.553191 150.015742 49.382979 152.455461C46.773047 153.533478 45.468085 155.263972 45.468085 157.64695C45.468085 159.008652 45.93617 160.143401 46.87234 161.051206S48.957447 162.412908 50.319149 162.412908C51.567379 162.412908 52.673762 161.944823 53.638298 161.008652S55.085106 158.951912 55.085106 157.64695C55.085106 157.590213 55.014184 157.06539 54.87234 156.072482S54.659574 154.52638 54.659574 154.412908C54.659574 151.859716 56.475174 148.739146 60.106383 145.051206C60.390071 147.377444 60.531915 149.817163 60.531915 152.370355C60.531915 154.469648 60.333334 156.115035 59.93617 157.306525S59.085106 159.235606 58.574468 159.519291S57.609932 160.22851 57.212766 160.795887S56.617021 162.157589 56.617021 163.178865C56.617021 164.540567 57.085106 165.675316 58.021277 166.583121S60.106383 167.944823 61.468085 167.944823C62.773047 167.944823 63.893617 167.476738 64.829787 166.540567S66.234043 164.483827 66.234043 163.178865C66.234043 163.06539 66.134751 162.469646 65.93617 161.391631S65.638298 159.689504 65.638298 159.519291C65.638298 156.341989 67.198579 151.490925 70.319149 144.966099C71.510638 150.299435 72.106383 154.384567 72.106383 157.221418C72.106383 159.263972 71.808511 161.122125 71.212766 162.795887S70.319149 165.363265 70.319149 165.476738C70.319149 166.83844 70.787234 167.973189 71.723404 168.880993S73.780145 170.242695 75.085106 170.242695S77.482272 169.77461 78.361702 168.83844S79.680851 166.781699 79.680851 165.476738C79.680851 165.19305 79.382979 164.256882 78.787234 162.668227S77.893617 159.263972 77.893617 157.221418C77.893617 154.384542 78.489362 150.299435 79.680851 144.966099C82.744681 151.434184 84.276596 156.285248 84.276596 159.519291C84.276596 159.746241 84.191489 160.341986 84.021277 161.306525S83.765957 162.89518 83.765957 163.178865C83.765957 164.540567 84.234043 165.675316 85.170213 166.583121S87.255319 167.944823 88.617021 167.944823C89.921983 167.944823 91.042553 167.476738 91.978723 166.540567S93.382979 164.483827 93.382979 163.178865C93.382979 162.327801 93.255319 161.661138 93.0 161.178865S92.41844 160.285248 92.021277 159.944823S91.226951 159.19305 90.829787 158.71078C90.432624 158.22851 90.106383 157.448372 89.851064 156.370355S89.468085 153.930635 89.468085 152.285248C89.468085 149.788797 89.609929 147.377444 89.893617 145.051206C93.524826 148.739146 95.340426 151.859716 95.340426 154.412908C95.340426 155.71787 95.198581 156.795887 94.914894 157.64695C94.914894 158.951912 95.382979 160.072482 96.319149 161.008652S98.375889 162.412908 99.680851 162.412908C101.042553 162.412908 102.191489 161.944823 103.12766 161.008652S104.531915 158.951912 104.531915 157.64695C104.531915 155.377444 103.226953 153.64695 100.617021 152.455461C100.276596 148.880993 99.680851 145.576031 98.829787 142.540567S97.553191 137.675316 97.553191 137.051206C97.553191 136.540567 96.489362 135.037018 94.361702 132.540567S91.170213 128.313614 91.170213 127.349078ZM75.085106 167.77461C74.460993 167.77461 73.950357 167.576029 73.553191 167.178865S72.957447 166.271061 72.957447 165.64695S73.156028 164.512201 73.553191 164.115035S74.460996 163.519291 75.085106 163.519291C76.446809 163.519291 77.12766 164.22851 77.12766 165.64695C77.12766 166.214327 76.929078 166.71078 76.531915 167.136312S75.652485 167.77461 75.085106 167.77461ZM90.404255 134.583121C90.404255 135.547657 88.716315 136.242695 85.340426 136.668227C81.964536 137.093759 78.546102 137.306525 75.085106 137.306525C71.794323 137.306525 68.404255 137.079574 64.914894 136.625674S59.680851 135.46255 59.680851 134.498014C59.680851 133.703688 60.41844 133.306525 61.893617 133.306525C63.141847 133.306525 65.241132 133.405816 68.191489 133.604397S73.468085 133.90227 75.170213 133.90227C76.929081 133.90227 79.524826 133.802978 82.957447 133.604397C86.390068 133.405816 88.191489 133.306525 88.361702 133.306525C89.723404 133.306525 90.404255 133.732057 90.404255 134.583121Z" fill="#010101" />
<path d="M133.484136 25.783955Q134.273796 25.512509 134.86604 25.105341T136.396005 23.957868Q137.13631 23.340946 137.716216 22.92144T138.962397 22.156458Q139.752056 21.761628 140.837838 21.514859Q143.428907 20.922615 144.613396 20.009572Q146.06933 18.874436 146.871328 17.171734T147.673325 13.544237Q147.673325 10.953167 146.501175 9.028373T143.502938 6.079489T139.80141 5.0554Q137.432432 5.0554 135.606345 6.178197T132.805523 9.139419T131.830787 13.100053Q131.830787 15.863861 133.225029 17.924378T136.914219 20.897938Q137.309048 21.070676 137.925969 21.095353V21.144707Q137.259694 21.218737 136.716804 21.490183Q135.754407 21.959043 134.125734 23.143532Q132.916569 24.007221 132.176263 24.414389T130.720329 24.821557Q130.276146 24.772204 130.066392 24.537774T129.856639 23.957868Q129.856639 23.365623 130.313161 22.859748T131.485311 22.329196Q131.559342 21.934366 131.189189 21.564213T130.078731 21.19406Q129.757932 21.19406 129.350764 21.416152T128.635135 22.082427T128.326675 23.168208Q128.326675 23.908514 128.83255 24.562451T130.115746 25.623555T131.682726 26.0554Q132.694477 26.0554 133.484136 25.783955ZM137.012926 19.577727Q135.877791 18.553637 135.322562 16.850935T134.767333 13.100053Q134.767333 11.199936 135.3349 9.608279T137.049941 7.066563T139.826087 6.116505Q142.293772 6.116505 143.527615 8.201698T144.761457 13.470206Q144.761457 15.395 144.206228 17.023673T142.540541 19.62708T139.826087 20.601816Q138.148061 20.601816 137.012926 19.577727Z" fill="#010101" />
<path d="M137.631383 42.224645C137.556915 42.999114 137.370744 43.684219 137.072872 44.279965C136.775001 44.87571 136.462235 45.329965 136.134574 45.64273S135.393616 46.223582 134.894681 46.446986C134.395745 46.67039 134.012234 46.815603 133.744149 46.882624S133.148404 47.012943 132.76117 47.072518C132.701596 47.087411 132.656915 47.094858 132.627128 47.094858V47.541667H143.372872V47.094858C142.106914 46.871454 141.146276 46.543794 140.490957 46.111879C139.239894 45.277838 138.532446 43.982093 138.368617 42.224645C139.143086 43.416134 140.140957 44.011879 141.362234 44.011879C142.151595 44.011879 142.825532 43.736348 143.384043 43.185284S144.221809 41.964006 144.221809 41.174645C144.221809 40.504433 144.057979 39.893795 143.730319 39.34273C143.402659 38.791666 142.978191 38.289006 142.456915 37.834752S141.399469 36.907624 140.848404 36.416135C140.29734 35.924645 139.753723 35.280497 139.217553 34.483688S138.271809 32.78954 137.98883 31.791667C137.735639 32.774645 137.344682 33.660816 136.815957 34.450177S135.743617 35.879965 135.185106 36.371454S134.086701 37.339538 133.565426 37.801241S132.615957 38.769325 132.280851 39.32039S131.778191 40.489538 131.778191 41.174645C131.778191 41.964006 132.057447 42.634219 132.615957 43.185284S133.848405 44.011879 134.637766 44.011879C135.859043 44.011879 136.856914 43.416134 137.631383 42.224645Z" fill="#010101" />
<path d="M16.515864 184.216045Q15.726204 184.487491 15.13396 184.894659T13.603995 186.042132Q12.86369 186.659054 12.283784 187.07856T11.037603 187.843542Q10.247944 188.238372 9.162162 188.485141Q6.571093 189.077385 5.386604 189.990428Q3.93067 191.125564 3.128672 192.828266T2.326675 196.455763Q2.326675 199.046833 3.498825 200.971627T6.497062 203.920511T10.19859 204.9446Q12.567568 204.9446 14.393655 203.821803T17.194477 200.860581T18.169213 196.899947Q18.169213 194.136139 16.774971 192.075622T13.085781 189.102062Q12.690952 188.929324 12.074031 188.904647V188.855293Q12.740306 188.781263 13.283196 188.509817Q14.245593 188.040957 15.874266 186.856468Q17.083431 185.992779 17.823737 185.585611T19.279671 185.178443Q19.723854 185.227796 19.933608 185.462226T20.143361 186.042132Q20.143361 186.634377 19.686839 187.140252T18.514689 187.670804Q18.440658 188.065634 18.810811 188.435787T19.921269 188.80594Q20.242068 188.80594 20.649236 188.583848T21.364865 187.917573T21.673325 186.831792Q21.673325 186.091486 21.16745 185.437549T19.884254 184.376445T18.317274 183.9446Q17.305523 183.9446 16.515864 184.216045ZM12.987074 190.422273Q14.122209 191.446363 14.677438 193.149065T15.232667 196.899947Q15.232667 198.800064 14.6651 200.391721T12.950059 202.933437T10.173913 203.883495Q7.706228 203.883495 6.472385 201.798302T5.238543 196.529794Q5.238543 194.605 5.793772 192.976327T7.459459 190.37292T10.173913 189.398184Q11.851939 189.398184 12.987074 190.422273Z" fill="#010101" />
<path d="M12.368617 167.775355C12.443085 167.000886 12.629256 166.315781 12.927128 165.720035C13.224999 165.12429 13.537765 164.670035 13.865426 164.35727S14.606384 163.776418 15.105319 163.553014C15.604255 163.32961 15.987766 163.184397 16.255851 163.117376S16.851596 162.987057 17.23883 162.927482C17.298404 162.912589 17.343085 162.905142 17.372872 162.905142V162.458333H6.627128V162.905142C7.893086 163.128546 8.853724 163.456206 9.509043 163.888121C10.760106 164.722162 11.467554 166.017907 11.631383 167.775355C10.856914 166.583866 9.859043 165.988121 8.637766 165.988121C7.848405 165.988121 7.174468 166.263652 6.615957 166.814716S5.778191 168.035994 5.778191 168.825355C5.778191 169.495567 5.942021 170.106205 6.269681 170.65727C6.597341 171.208334 7.021809 171.710994 7.543085 172.165248S8.600531 173.092376 9.151596 173.583865C9.70266 174.075355 10.246277 174.719503 10.782447 175.516312S11.728191 177.21046 12.01117 178.208333C12.264361 177.225355 12.655318 176.339184 13.184043 175.549823S14.256383 174.120035 14.814894 173.628546S15.913299 172.660462 16.434574 172.198759S17.384043 171.230675 17.719149 170.67961S18.221809 169.510462 18.221809 168.825355C18.221809 168.035994 17.942553 167.365781 17.384043 166.814716S16.151595 165.988121 15.362234 165.988121C14.140957 165.988121 13.143086 166.583866 12.368617 167.775355Z" fill="#010101" />
</svg>
