<svg width="500.000000" height="700.000000" id="card-realspade1">
<radialGradient id="card-realwhitegradient" cx="250.0" cy="350.0" r="500" gradientTransform="matrix(1 0 0 1 0 -.25)" gradientUnits="userSpaceOnUse">
<stop stop-color="#FDFAF4" offset=".15"/>
<stop stop-color="#FDF9F2" offset=".35"/>
<stop stop-color="#FCF7F1" offset=".5"/>
<stop stop-color="#FDFDF8" offset=".75"/>
<stop stop-color="#FFFDFA" offset="1"/>
</radialGradient>
<rect x="0" y="0" rx="25.0" ry="25.0" width="500" height="700.0" fill="url(#card-realwhitegradient)" />
<path d="M357.51773 362.056738C357.51773 359.408984 356.666667 357.234043 354.964539 355.531915S350.992908 352.978723 348.156028 352.978723C344.562638 352.978723 341.631206 354.775413 339.361702 358.368794C340.68558 362.340426 341.347518 365.36644 341.347518 367.446809C341.347518 371.985816 339.834516 375.768312 336.808511 378.794326S330.0 383.333333 325.460993 383.333333C318.841617 383.333333 313.640652 380.212766 309.858156 373.971631C307.966902 371.134752 306.359348 362.955092 305.035461 349.432624S300.874695 325.839234 296.524823 319.219858C292.553191 313.356965 287.210411 308.628851 280.496454 305.035461C273.782496 301.442071 266.926723 299.64539 259.929078 299.64539C252.17495 299.64539 245.460993 302.10402 239.787234 307.021277C234.113475 311.938525 231.276596 317.895972 231.276596 324.893617C231.276596 329.810865 232.884162 335.957447 236.099291 343.333333C225.508284 334.63356 215.200936 330.283688 205.177305 330.283688H202.907801C201.016548 326.122922 198.22695 322.340426 194.539007 318.93617S187.352255 312.931433 184.042553 311.134752S177.801418 307.068567 175.248227 304.326241C172.695035 301.583923 171.41844 298.510638 171.41844 295.106383S173.215129 288.770695 176.808511 286.312057H173.971631C168.108738 286.312057 163.380624 287.919623 159.787234 291.134752S154.397163 298.510638 154.397163 303.617021S156.099291 312.647745 159.503546 315.390071S166.784879 319.739943 171.134752 320.212766S179.881787 321.725767 184.326241 323.333333S191.749418 327.257674 193.262411 330.283688C181.725759 332.174942 171.512993 337.375887 162.624113 345.886525S149.101645 363.475177 148.723404 373.120567C145.319149 376.713957 143.23878 381.252965 142.48227 386.737589H148.723404C149.66903 394.491716 152.364057 400.685589 156.808511 405.319149S166.879433 412.269504 173.687943 412.269504C179.172567 412.269504 183.427887 410.803782 186.453901 407.87234S190.992908 400.827433 190.992908 395.531915C190.992908 393.262411 190.803782 390.330979 190.425532 386.737589C186.264766 390.330979 182.104028 392.12766 177.943262 392.12766C170.378241 392.12766 165.650128 388.061475 163.758865 379.929078C175.484624 375.01183 184.940908 368.628851 192.12766 360.780142S202.907801 344.940908 202.907801 336.808511V336.241135C209.148936 336.43026 214.869986 337.990545 220.070922 340.921986C225.271858 343.853418 228.912539 347.494099 230.992908 351.843972C223.995262 355.626468 219.172567 359.267149 216.524823 362.765957C213.87707 366.264766 212.553191 370.756511 212.553191 376.241135C212.553191 386.643035 217.706865 395.484624 228.014184 402.765957C238.321504 410.047291 250.756511 413.687943 265.319149 413.687943C277.044908 413.687943 290.330979 410.520085 305.177305 404.184397C320.023631 397.848709 332.458638 390.614667 342.48227 382.48227C352.505901 374.349872 357.51773 367.541362 357.51773 362.056738ZM162.624113 369.148936V368.014184C162.624113 360.070922 166.028369 352.836879 172.836879 346.312057S187.210411 336.43027 195.531915 336.241135C195.910165 338.510638 196.099291 339.834525 196.099291 340.212766C196.099291 345.130014 193.735226 349.810865 189.007092 354.255319S179.787234 361.962184 175.531915 364.042553S166.973986 367.82505 162.624113 369.148936Z" fill="#010101" />
<path d="M494.530551 110.482696Q495.0 109.804603 495.0 108.865706Q494.895678 107.300878 494.374069 106.987912T493.122206 106.674946H492.183308Q489.053651 106.674946 487.593145 105.057957T485.245902 101.40669T484.0462 98.642159L465.789866 55.45289Q465.163934 53.888061 465.163934 52.949164Q465.163934 51.071369 466.624441 50.236794T470.692996 48.880609Q472.466468 48.567644 472.883756 48.254678T473.301043 46.481205Q473.301043 45.229343 472.622951 44.812055T470.484352 44.394767Q465.268256 44.394767 462.19076 45.177182T456.818182 48.306839T452.540984 55.45289L435.014903 98.642159Q433.450075 102.606392 431.989568 104.588508T427.608048 106.674946H426.982116Q425.938897 106.674946 425.52161 107.040073T425.0 108.865706Q425.0 109.804603 425.469449 110.482696T426.877794 111.160788Q433.554396 110.847822 438.353204 110.847822Q444.612519 110.847822 451.289121 111.160788Q452.228018 111.160788 452.697466 110.482696T453.166915 108.865706Q453.062593 107.4052 452.645306 107.040073T451.184799 106.674946Q447.637854 106.674946 446.177347 105.996854T444.716841 103.545289Q444.716841 102.189104 445.968703 98.642159L449.515648 89.983441H475.283159Q477.891207 96.451399 478.256334 97.494618T478.621461 98.642159Q479.873323 102.606392 479.873323 103.753933Q479.873323 105.527405 478.308495 106.101176T472.362146 106.674946H471.736215Q470.692996 106.674946 470.275708 107.040073T469.754098 108.865706Q469.754098 109.804603 470.223547 110.482696T471.631893 111.160788Q478.308495 110.847822 483.002981 110.847822Q486.341282 110.847822 493.122206 111.160788Q494.061103 111.160788 494.530551 110.482696ZM473.301043 85.497599H451.393443L461.929955 58.686869H462.242921Z" fill="#010101" />
<path d="M458.907812 163.134676C458.687169 165.429375 458.135556 167.459296 457.252983 169.22445C456.370409 170.989604 455.443704 172.33553 454.472869 173.262234S452.277459 174.983257 450.799146 175.645189C449.320834 176.307121 448.184515 176.737377 447.390197 176.935956S445.625043 177.322083 444.477697 177.498599C444.301181 177.542727 444.168795 177.564792 444.080537 177.564792V178.888656H475.919463V177.564792C472.168513 176.90286 469.322206 175.932024 467.380541 174.652291C463.673722 172.181081 461.577602 168.341876 461.092188 163.134676C463.386887 166.664977 466.343512 168.430131 469.962075 168.430131C472.300899 168.430131 474.297729 167.613751 475.952559 165.980983S478.434804 162.36242 478.434804 160.023596C478.434804 158.0378 477.949387 156.228522 476.978554 154.595754C476.007718 152.962987 474.750047 151.47364 473.205542 150.127714S470.0724 147.380696 468.439632 145.924446C466.806864 144.468196 465.196166 142.559628 463.607529 140.198735S460.805353 135.179087 459.966903 132.222456C459.216716 135.134956 458.058335 137.760621 456.491761 140.099445S453.314488 144.33581 451.659658 145.79206S448.405157 148.660429 446.860651 150.028424S444.047441 152.896793 443.054543 154.529561S441.565196 157.993669 441.565196 160.023596C441.565196 162.36242 442.392611 164.348216 444.047441 165.980983S447.699101 168.430131 450.037925 168.430131C453.656488 168.430131 456.613113 166.664977 458.907812 163.134676Z" fill="#010101" />
<path d="M5.469449 589.517304Q5.0 590.195397 5.0 591.134294Q5.104322 592.699122 5.625931 593.012088T6.877794 593.325054H7.816692Q10.946349 593.325054 12.406855 594.942043T14.754098 598.59331T15.9538 601.357841L34.210134 644.54711Q34.836066 646.111939 34.836066 647.050836Q34.836066 648.928631 33.375559 649.763206T29.307004 651.119391Q27.533532 651.432356 27.116244 651.745322T26.698957 653.518795Q26.698957 654.770657 27.377049 655.187945T29.515648 655.605233Q34.731744 655.605233 37.80924 654.822818T43.181818 651.693161T47.459016 644.54711L64.985097 601.357841Q66.549925 597.393608 68.010432 595.411492T72.391952 593.325054H73.017884Q74.061103 593.325054 74.47839 592.959927T75.0 591.134294Q75.0 590.195397 74.530551 589.517304T73.122206 588.839212Q66.445604 589.152178 61.646796 589.152178Q55.387481 589.152178 48.710879 588.839212Q47.771982 588.839212 47.302534 589.517304T46.833085 591.134294Q46.937407 592.5948 47.354694 592.959927T48.815201 593.325054Q52.362146 593.325054 53.822653 594.003146T55.283159 596.454711Q55.283159 597.810896 54.031297 601.357841L50.484352 610.016559H24.716841Q22.108793 603.548601 21.743666 602.505382T21.378539 601.357841Q20.126677 597.393608 20.126677 596.246067Q20.126677 594.472595 21.691505 593.898824T27.637854 593.325054H28.263785Q29.307004 593.325054 29.724292 592.959927T30.245902 591.134294Q30.245902 590.195397 29.776453 589.517304T28.368107 588.839212Q21.691505 589.152178 16.997019 589.152178Q13.658718 589.152178 6.877794 588.839212Q5.938897 588.839212 5.469449 589.517304ZM26.698957 614.502401H48.606557L38.070045 641.313131H37.757079Z" fill="#010101" />
<path d="M41.092188 536.865324C41.312831 534.570625 41.864444 532.540704 42.747017 530.77555C43.629591 529.010396 44.556296 527.66447 45.527131 526.737766S47.722541 525.016743 49.200854 524.354811C50.679166 523.692879 51.815485 523.262623 52.609803 523.064044S54.374957 522.677917 55.522303 522.501401C55.698819 522.457273 55.831205 522.435208 55.919463 522.435208V521.111344H24.080537V522.435208C27.831487 523.09714 30.677794 524.067976 32.619459 525.347709C36.326278 527.818919 38.422398 531.658124 38.907812 536.865324C36.613113 533.335023 33.656488 531.569869 30.037925 531.569869C27.699101 531.569869 25.702271 532.386249 24.047441 534.019017S21.565196 537.63758 21.565196 539.976404C21.565196 541.9622 22.050613 543.771478 23.021446 545.404246C23.992282 547.037013 25.249953 548.52636 26.794458 549.872286S29.9276 552.619304 31.560368 554.075554C33.193136 555.531804 34.803834 557.440372 36.392471 559.801265S39.194647 564.820913 40.033097 567.777544C40.783284 564.865044 41.941665 562.239379 43.508239 559.900555S46.685512 555.66419 48.340342 554.20794S51.594843 551.339571 53.139349 549.971576S55.952559 547.103207 56.945457 545.470439S58.434804 542.006331 58.434804 539.976404C58.434804 537.63758 57.607389 535.651784 55.952559 534.019017S52.300899 531.569869 49.962075 531.569869C46.343512 531.569869 43.386887 533.335023 41.092188 536.865324Z" fill="#010101" />
</svg>
