<svg width="25.000000" height="35.000000" id="card-lightheart2">
<rect x="0" y="0" rx="1.25" ry="1.25" width="25" height="35.0" stroke="rgba(1,1,1,0.333)" fill="#fffdfa" />
<path d="M12.493036 4.336119C12.400186 3.992572 12.250464 3.739554 12.043872 3.577066S11.608635 3.333333 11.357939 3.333333C11.074744 3.333333 10.832173 3.430826 10.630223 3.625812S10.327298 4.055246 10.327298 4.329155C10.327298 4.579851 10.388811 4.835191 10.511838 5.095172S10.79039 5.605849 10.978412 5.847261S11.357939 6.331244 11.552925 6.574977S11.934772 7.0961 12.11351 7.407149S12.418756 8.026927 12.493036 8.333333C12.576602 8.012999 12.710075 7.691504 12.893454 7.368849S13.266017 6.760678 13.461003 6.512303C13.655989 6.263927 13.846332 6.020195 14.032033 5.781105S14.370938 5.301764 14.491643 5.060353S14.672702 4.589136 14.672702 4.370938C14.672702 4.078459 14.574048 3.832405 14.376741 3.632776C14.179434 3.433147 13.936861 3.333333 13.649025 3.333333C13.096565 3.333333 12.711233 3.667595 12.493036 4.336119Z" fill="#da0a0a" />
<path d="M12.506964 30.663881C12.599814 31.007428 12.749536 31.260446 12.956128 31.422934S13.391365 31.666667 13.642061 31.666667C13.925256 31.666667 14.167827 31.569174 14.369777 31.374188S14.672702 30.944754 14.672702 30.670845C14.672702 30.420149 14.611189 30.164809 14.488162 29.904828S14.20961 29.394151 14.021588 29.152739S13.642061 28.668756 13.447075 28.425023S13.065228 27.9039 12.88649 27.592851S12.581244 26.973073 12.506964 26.666667C12.423398 26.987001 12.289925 27.308496 12.106546 27.631151S11.733983 28.239322 11.538997 28.487697C11.344011 28.736073 11.153668 28.979805 10.967967 29.218895S10.629062 29.698236 10.508357 29.939647S10.327298 30.410864 10.327298 30.629062C10.327298 30.921541 10.425952 31.167595 10.623259 31.367224C10.820566 31.566853 11.063139 31.666667 11.350975 31.666667C11.903435 31.666667 12.288767 31.332405 12.506964 30.663881Z" fill="#da0a0a" />
<path d="M24.337264 4.104831Q24.33066 3.966152 24.261321 3.880303T24.033491 3.688793Q23.511792 3.338793 23.224528 3.110963T22.706132 2.533133T22.475 1.747284Q22.475 1.430303 22.643396 1.255303T23.115566 1.080303Q23.373113 1.080303 23.541509 1.209076T23.709906 1.562378Q23.709906 1.674642 23.657075 1.750586T23.548113 1.872755T23.491981 1.925586Q23.491981 1.971812 23.581132 2.03785T23.795755 2.103887Q24.000472 2.103887 24.122642 1.975114T24.244811 1.648227Q24.244811 1.384076 24.066509 1.19917T23.614151 0.928416T23.056132 0.842567Q22.560849 0.842567 22.200943 1.086906T21.841038 1.833133Q21.841038 2.19634 22.039151 2.49351T22.511321 2.998699T23.22783 3.49068Q23.57783 3.708604 23.749528 3.84068V3.873699H21.979717Q21.814623 3.873699 21.738679 3.910019T21.662736 4.104831Q21.662736 4.342567 21.893868 4.342567H24.106132Q24.337264 4.342567 24.337264 4.104831Z" fill="#da0a0a" />
<path d="M22.996344 5.825074C22.947598 5.644712 22.868994 5.511877 22.760533 5.426571S22.532033 5.298611 22.400418 5.298611C22.251741 5.298611 22.124391 5.349795 22.018367 5.452163S21.859331 5.677615 21.859331 5.821418C21.859331 5.953033 21.891626 6.087086 21.956215 6.223576S22.102455 6.491682 22.201166 6.618423S22.400418 6.872514 22.502786 7.000474S22.703255 7.274064 22.797093 7.437365S22.957347 7.762748 22.996344 7.923611C23.040216 7.755436 23.110289 7.586651 23.206563 7.417257S23.402159 7.097967 23.504526 6.96757C23.606894 6.837173 23.706824 6.709213 23.804318 6.583691S23.982242 6.332037 24.045613 6.205296S24.140669 5.957908 24.140669 5.843353C24.140669 5.689802 24.088875 5.560624 23.985289 5.455819C23.881703 5.351013 23.754352 5.298611 23.603238 5.298611C23.313197 5.298611 23.110897 5.474099 22.996344 5.825074Z" fill="#da0a0a" />
<path d="M0.662736 30.895169Q0.66934 31.033848 0.738679 31.119697T0.966509 31.311207Q1.488208 31.661207 1.775472 31.889037T2.293868 32.466867T2.525 33.252716Q2.525 33.569697 2.356604 33.744697T1.884434 33.919697Q1.626887 33.919697 1.458491 33.790924T1.290094 33.437622Q1.290094 33.325358 1.342925 33.249414T1.451887 33.127245T1.508019 33.074414Q1.508019 33.028188 1.418868 32.96215T1.204245 32.896113Q0.999528 32.896113 0.877358 33.024886T0.755189 33.351773Q0.755189 33.615924 0.933491 33.80083T1.385849 34.071584T1.943868 34.157433Q2.439151 34.157433 2.799057 33.913094T3.158962 33.166867Q3.158962 32.80366 2.960849 32.50649T2.488679 32.001301T1.77217 31.50932Q1.42217 31.291396 1.250472 31.15932V31.126301H3.020283Q3.185377 31.126301 3.261321 31.089981T3.337264 30.895169Q3.337264 30.657433 3.106132 30.657433H0.893868Q0.662736 30.657433 0.662736 30.895169Z" fill="#da0a0a" />
<path d="M2.003656 29.174926C2.052402 29.355288 2.131006 29.488123 2.239467 29.573429S2.467967 29.701389 2.599582 29.701389C2.748259 29.701389 2.875609 29.650205 2.981633 29.547837S3.140669 29.322385 3.140669 29.178582C3.140669 29.046967 3.108374 28.912914 3.043785 28.776424S2.897545 28.508318 2.798834 28.381577S2.599582 28.127486 2.497214 27.999526S2.296745 27.725936 2.202907 27.562635S2.042653 27.237252 2.003656 27.076389C1.959784 27.244564 1.889711 27.413349 1.793437 27.582743S1.597841 27.902033 1.495474 28.03243C1.393106 28.162827 1.293176 28.290787 1.195682 28.416309S1.017758 28.667963 0.954387 28.794704S0.859331 29.042092 0.859331 29.156647C0.859331 29.310198 0.911125 29.439376 1.014711 29.544181C1.118297 29.648987 1.245648 29.701389 1.396762 29.701389C1.686803 29.701389 1.889103 29.525901 2.003656 29.174926Z" fill="#da0a0a" />
</svg>
