<svg width="150.000000" height="210.000000" id="card-webdiamond1">
<radialGradient id="card-webwhitegradient" cx="75.0" cy="105.0" r="150" gradientTransform="matrix(1 0 0 1 0 -.25)" gradientUnits="userSpaceOnUse">
<stop stop-color="#FDFAF4" offset=".15"/>
<stop stop-color="#FDF9F2" offset=".35"/>
<stop stop-color="#FCF7F1" offset=".5"/>
<stop stop-color="#FDFDF8" offset=".75"/>
<stop stop-color="#FFFDFA" offset="1"/>
</radialGradient>
<rect x="0" y="0" rx="7.5" ry="7.5" width="150" height="210.0" stroke="rgba(1,1,1,0.333)" fill="url(#card-webwhitegradient)" />
<path d="M75.0 75.0L62.732962 88.435327L75.0 100.869263L87.433936 88.435327ZM45.208623 104.791377L58.560501 117.55911L70.994437 104.791377L58.560501 92.357441ZM75.0 135.0L87.433936 121.314325L75.0 108.79694L62.399166 121.314325ZM104.791377 104.791377L91.522949 92.357441L79.089013 104.791377L91.522949 117.141864Z" fill="#da0a0a" />
<path d="M148.359165 25.366875Q148.5 25.163448 148.5 24.881779Q148.468703 24.41233 148.312221 24.31844T147.936662 24.224551H147.654993Q146.716095 24.224551 146.277943 23.739454T145.57377 22.644074T145.21386 21.814714L139.73696 8.857934Q139.54918 8.388485 139.54918 8.106816Q139.54918 7.543477 139.987332 7.293105T141.207899 6.886249Q141.73994 6.79236 141.865127 6.69847T141.990313 6.166428Q141.990313 5.790869 141.786885 5.665683T141.145306 5.540497Q139.580477 5.540497 138.657228 5.775221T137.045455 6.714118T135.762295 8.857934L130.504471 21.814714Q130.035022 23.003984 129.59687 23.598619T128.282414 24.224551H128.094635Q127.781669 24.224551 127.656483 24.334089T127.5 24.881779Q127.5 25.163448 127.640835 25.366875T128.063338 25.570303Q130.066319 25.476413 131.505961 25.476413Q133.383756 25.476413 135.386736 25.570303Q135.668405 25.570303 135.80924 25.366875T135.950075 24.881779Q135.918778 24.443627 135.793592 24.334089T135.35544 24.224551Q134.291356 24.224551 133.853204 24.021123T133.415052 23.285653Q133.415052 22.878798 133.790611 21.814714L134.854694 19.217099H142.584948Q143.367362 21.157486 143.4769 21.470452T143.586438 21.814714Q143.961997 23.003984 143.961997 23.348246Q143.961997 23.880288 143.492548 24.052419T141.708644 24.224551H141.520864Q141.207899 24.224551 141.082712 24.334089T140.92623 24.881779Q140.92623 25.163448 141.067064 25.366875T141.489568 25.570303Q143.492548 25.476413 144.900894 25.476413Q145.902385 25.476413 147.936662 25.570303Q148.218331 25.570303 148.359165 25.366875ZM141.990313 17.871346H135.418033L138.578987 9.828127H138.672876Z" fill="#da0a0a" />
<path d="M138.021905 31.791667C137.671419 32.49264 136.824408 33.752202 135.480876 35.570352C134.137344 37.388503 133.056669 38.750297 132.238873 39.655714C133.261127 40.824003 134.360048 42.211354 135.53564 43.817745C136.711232 45.424142 137.539986 46.66545 138.021905 47.541667C139.102572 45.613989 141.015654 42.985338 143.761127 39.655714C140.942621 36.253079 139.029555 33.631722 138.021905 31.791667Z" fill="#da0a0a" />
<path d="M1.640835 184.633125Q1.5 184.836552 1.5 185.118221Q1.531297 185.58767 1.687779 185.68156T2.063338 185.775449H2.345007Q3.283905 185.775449 3.722057 186.260546T4.42623 187.355926T4.78614 188.185286L10.26304 201.142066Q10.45082 201.611515 10.45082 201.893184Q10.45082 202.456523 10.012668 202.706895T8.792101 203.113751Q8.26006 203.20764 8.134873 203.30153T8.009687 203.833572Q8.009687 204.209131 8.213115 204.334317T8.854694 204.459503Q10.419523 204.459503 11.342772 204.224779T12.954545 203.285882T14.237705 201.142066L19.495529 188.185286Q19.964978 186.996016 20.40313 186.401381T21.717586 185.775449H21.905365Q22.218331 185.775449 22.343517 185.665911T22.5 185.118221Q22.5 184.836552 22.359165 184.633125T21.936662 184.429697Q19.933681 184.523587 18.494039 184.523587Q16.616244 184.523587 14.613264 184.429697Q14.331595 184.429697 14.19076 184.633125T14.049925 185.118221Q14.081222 185.556373 14.206408 185.665911T14.64456 185.775449Q15.708644 185.775449 16.146796 185.978877T16.584948 186.714347Q16.584948 187.121202 16.209389 188.185286L15.145306 190.782901H7.415052Q6.632638 188.842514 6.5231 188.529548T6.413562 188.185286Q6.038003 186.996016 6.038003 186.651754Q6.038003 186.119712 6.507452 185.947581T8.291356 185.775449H8.479136Q8.792101 185.775449 8.917288 185.665911T9.07377 185.118221Q9.07377 184.836552 8.932936 184.633125T8.510432 184.429697Q6.507452 184.523587 5.099106 184.523587Q4.097615 184.523587 2.063338 184.429697Q1.781669 184.429697 1.640835 184.633125ZM8.009687 192.128654H14.581967L11.421013 200.171873H11.327124Z" fill="#da0a0a" />
<path d="M11.978095 178.208333C12.328581 177.50736 13.175592 176.247798 14.519124 174.429648C15.862656 172.611497 16.943331 171.249703 17.761127 170.344286C16.738873 169.175997 15.639952 167.788646 14.46436 166.182255C13.288768 164.575858 12.460014 163.33455 11.978095 162.458333C10.897428 164.386011 8.984346 167.014662 6.238873 170.344286C9.057379 173.746921 10.970445 176.368278 11.978095 178.208333Z" fill="#da0a0a" />
</svg>
