<svg width="150.000000" height="210.000000" id="card-webheart10">
<radialGradient id="card-webwhitegradient" cx="75.0" cy="105.0" r="150" gradientTransform="matrix(1 0 0 1 0 -.25)" gradientUnits="userSpaceOnUse">
<stop stop-color="#FDFAF4" offset=".15"/>
<stop stop-color="#FDF9F2" offset=".35"/>
<stop stop-color="#FCF7F1" offset=".5"/>
<stop stop-color="#FDFDF8" offset=".75"/>
<stop stop-color="#FFFDFA" offset="1"/>
</radialGradient>
<rect x="0" y="0" rx="7.5" ry="7.5" width="150" height="210.0" stroke="rgba(1,1,1,0.333)" fill="url(#card-webwhitegradient)" />
<path d="M44.958217 26.016713C44.401116 23.955433 43.502787 22.437325 42.263231 21.462396S39.651811 20.0 38.147632 20.0C36.448467 20.0 34.993036 20.584958 33.781337 21.754875S31.963788 24.331478 31.963788 25.97493C31.963788 27.479109 32.332869 29.011143 33.071031 30.571031S34.74234 33.635096 35.870474 35.083565S38.147632 37.987465 39.317549 39.449861S41.608634 42.5766 42.681058 44.442897S44.512533 48.16156 44.958217 50.0C45.45961 48.077994 46.260447 46.149024 47.360724 44.213092S49.5961 40.564068 50.766017 39.073816C51.935933 37.583564 53.077993 36.121169 54.192201 34.68663S56.225628 31.810586 56.949861 30.362117S58.036212 27.534818 58.036212 26.225627C58.036212 24.470752 57.444288 22.99443 56.260446 21.796657C55.076603 20.598884 53.621169 20.0 51.89415 20.0C48.579389 20.0 46.267396 22.005571 44.958217 26.016713Z" fill="#da0a0a" />
<path d="M45.041783 183.983287C45.598884 186.044567 46.497213 187.562675 47.736769 188.537604S50.348189 190.0 51.852368 190.0C53.551533 190.0 55.006964 189.415042 56.218663 188.245125S58.036212 185.668522 58.036212 184.02507C58.036212 182.520891 57.667131 180.988857 56.928969 179.428969S55.25766 176.364904 54.129526 174.916435S51.852368 172.012535 50.682451 170.550139S48.391366 167.4234 47.318942 165.557103S45.487467 161.83844 45.041783 160.0C44.54039 161.922006 43.739553 163.850976 42.639276 165.786908S40.4039 169.435932 39.233983 170.926184C38.064067 172.416436 36.922007 173.878831 35.807799 175.31337S33.774372 178.189414 33.050139 179.637883S31.963788 182.465182 31.963788 183.774373C31.963788 185.529248 32.555712 187.00557 33.739554 188.203343C34.923397 189.401116 36.378831 190.0 38.10585 190.0C41.420611 190.0 43.732604 187.994429 45.041783 183.983287Z" fill="#da0a0a" />
<path d="M44.958217 72.68338C44.401116 70.6221 43.502787 69.103991 42.263231 68.129062S39.651811 66.666667 38.147632 66.666667C36.448467 66.666667 34.993036 67.251625 33.781337 68.421541S31.963788 70.998144 31.963788 72.641597C31.963788 74.145775 32.332869 75.67781 33.071031 77.237697S34.74234 80.301763 35.870474 81.750232S38.147632 84.654132 39.317549 86.116527S41.608634 89.243267 42.681058 91.109564S44.512533 94.828227 44.958217 96.666667C45.45961 94.744661 46.260447 92.81569 47.360724 90.879759S49.5961 87.230735 50.766017 85.740483C51.935933 84.250231 53.077993 82.787835 54.192201 81.353296S56.225628 78.477253 56.949861 77.028784S58.036212 74.201484 58.036212 72.892293C58.036212 71.137419 57.444288 69.661097 56.260446 68.463324C55.076603 67.265551 53.621169 66.666667 51.89415 66.666667C48.579389 66.666667 46.267396 68.672238 44.958217 72.68338Z" fill="#da0a0a" />
<path d="M45.041783 137.31662C45.598884 139.3779 46.497213 140.896009 47.736769 141.870938S50.348189 143.333333 51.852368 143.333333C53.551533 143.333333 55.006964 142.748375 56.218663 141.578459S58.036212 139.001856 58.036212 137.358403C58.036212 135.854225 57.667131 134.32219 56.928969 132.762303S55.25766 129.698237 54.129526 128.249768S51.852368 125.345868 50.682451 123.883473S48.391366 120.756733 47.318942 118.890436S45.487467 115.171773 45.041783 113.333333C44.54039 115.255339 43.739553 117.18431 42.639276 119.120241S40.4039 122.769265 39.233983 124.259517C38.064067 125.749769 36.922007 127.212165 35.807799 128.646704S33.774372 131.522747 33.050139 132.971216S31.963788 135.798516 31.963788 137.107707C31.963788 138.862581 32.555712 140.338903 33.739554 141.536676C34.923397 142.734449 36.378831 143.333333 38.10585 143.333333C41.420611 143.333333 43.732604 141.327762 45.041783 137.31662Z" fill="#da0a0a" />
<path d="M104.958217 26.016713C104.401116 23.955433 103.502787 22.437325 102.263231 21.462396S99.651811 20.0 98.147632 20.0C96.448467 20.0 94.993036 20.584958 93.781337 21.754875S91.963788 24.331478 91.963788 25.97493C91.963788 27.479109 92.332869 29.011143 93.071031 30.571031S94.74234 33.635096 95.870474 35.083565S98.147632 37.987465 99.317549 39.449861S101.608634 42.5766 102.681058 44.442897S104.512533 48.16156 104.958217 50.0C105.45961 48.077994 106.260447 46.149024 107.360724 44.213092S109.5961 40.564068 110.766017 39.073816C111.935933 37.583564 113.077993 36.121169 114.192201 34.68663S116.225628 31.810586 116.949861 30.362117S118.036212 27.534818 118.036212 26.225627C118.036212 24.470752 117.444288 22.99443 116.260446 21.796657C115.076603 20.598884 113.621169 20.0 111.89415 20.0C108.579389 20.0 106.267396 22.005571 104.958217 26.016713Z" fill="#da0a0a" />
<path d="M105.041783 183.983287C105.598884 186.044567 106.497213 187.562675 107.736769 188.537604S110.348189 190.0 111.852368 190.0C113.551533 190.0 115.006964 189.415042 116.218663 188.245125S118.036212 185.668522 118.036212 184.02507C118.036212 182.520891 117.667131 180.988857 116.928969 179.428969S115.25766 176.364904 114.129526 174.916435S111.852368 172.012535 110.682451 170.550139S108.391366 167.4234 107.318942 165.557103S105.487467 161.83844 105.041783 160.0C104.54039 161.922006 103.739553 163.850976 102.639276 165.786908S100.4039 169.435932 99.233983 170.926184C98.064067 172.416436 96.922007 173.878831 95.807799 175.31337S93.774372 178.189414 93.050139 179.637883S91.963788 182.465182 91.963788 183.774373C91.963788 185.529248 92.555712 187.00557 93.739554 188.203343C94.923397 189.401116 96.378831 190.0 98.10585 190.0C101.420611 190.0 103.732604 187.994429 105.041783 183.983287Z" fill="#da0a0a" />
<path d="M104.958217 72.68338C104.401116 70.6221 103.502787 69.103991 102.263231 68.129062S99.651811 66.666667 98.147632 66.666667C96.448467 66.666667 94.993036 67.251625 93.781337 68.421541S91.963788 70.998144 91.963788 72.641597C91.963788 74.145775 92.332869 75.67781 93.071031 77.237697S94.74234 80.301763 95.870474 81.750232S98.147632 84.654132 99.317549 86.116527S101.608634 89.243267 102.681058 91.109564S104.512533 94.828227 104.958217 96.666667C105.45961 94.744661 106.260447 92.81569 107.360724 90.879759S109.5961 87.230735 110.766017 85.740483C111.935933 84.250231 113.077993 82.787835 114.192201 81.353296S116.225628 78.477253 116.949861 77.028784S118.036212 74.201484 118.036212 72.892293C118.036212 71.137419 117.444288 69.661097 116.260446 68.463324C115.076603 67.265551 113.621169 66.666667 111.89415 66.666667C108.579389 66.666667 106.267396 68.672238 104.958217 72.68338Z" fill="#da0a0a" />
<path d="M105.041783 137.31662C105.598884 139.3779 106.497213 140.896009 107.736769 141.870938S110.348189 143.333333 111.852368 143.333333C113.551533 143.333333 115.006964 142.748375 116.218663 141.578459S118.036212 139.001856 118.036212 137.358403C118.036212 135.854225 117.667131 134.32219 116.928969 132.762303S115.25766 129.698237 114.129526 128.249768S111.852368 125.345868 110.682451 123.883473S108.391366 120.756733 107.318942 118.890436S105.487467 115.171773 105.041783 113.333333C104.54039 115.255339 103.739553 117.18431 102.639276 119.120241S100.4039 122.769265 99.233983 124.259517C98.064067 125.749769 96.922007 127.212165 95.807799 128.646704S93.774372 131.522747 93.050139 132.971216S91.963788 135.798516 91.963788 137.107707C91.963788 138.862581 92.555712 140.338903 93.739554 141.536676C94.923397 142.734449 96.378831 143.333333 98.10585 143.333333C101.420611 143.333333 103.732604 141.327762 105.041783 137.31662Z" fill="#da0a0a" />
<path d="M74.958217 49.350046C74.401116 47.288766 73.502787 45.770658 72.263231 44.795729S69.651811 43.333333 68.147632 43.333333C66.448467 43.333333 64.993036 43.918292 63.781337 45.088208S61.963788 47.664811 61.963788 49.308264C61.963788 50.812442 62.332869 52.344477 63.071031 53.904364S64.74234 56.968429 65.870474 58.416899S68.147632 61.320799 69.317549 62.783194S71.608634 65.909934 72.681058 67.77623S74.512533 71.494893 74.958217 73.333333C75.45961 71.411328 76.260447 69.482357 77.360724 67.546425S79.5961 63.897402 80.766017 62.407149C81.935933 60.916897 83.077993 59.454502 84.192201 58.019963S86.225628 55.14392 86.949861 53.69545S88.036212 50.868151 88.036212 49.55896C88.036212 47.804085 87.444288 46.327764 86.260446 45.129991C85.076603 43.932218 83.621169 43.333333 81.89415 43.333333C78.579389 43.333333 76.267396 45.338904 74.958217 49.350046Z" fill="#da0a0a" />
<path d="M75.041783 160.649954C75.598884 162.711234 76.497213 164.229342 77.736769 165.204271S80.348189 166.666667 81.852368 166.666667C83.551533 166.666667 85.006964 166.081708 86.218663 164.911792S88.036212 162.335189 88.036212 160.691736C88.036212 159.187558 87.667131 157.655523 86.928969 156.095636S85.25766 153.031571 84.129526 151.583101S81.852368 148.679201 80.682451 147.216806S78.391366 144.090066 77.318942 142.22377S75.487467 138.505107 75.041783 136.666667C74.54039 138.588672 73.739553 140.517643 72.639276 142.453575S70.4039 146.102598 69.233983 147.592851C68.064067 149.083103 66.922007 150.545498 65.807799 151.980037S63.774372 154.85608 63.050139 156.30455S61.963788 159.131849 61.963788 160.44104C61.963788 162.195915 62.555712 163.672236 63.739554 164.870009C64.923397 166.067782 66.378831 166.666667 68.10585 166.666667C71.420611 166.666667 73.732604 164.661096 75.041783 160.649954Z" fill="#da0a0a" />
<path d="M148.353582 24.909945Q148.328128 24.451764 148.239038 24.299036T147.946314 24.146309Q146.520874 24.146309 145.922698 23.974491T145.031798 23.077218T144.739073 20.633582V12.691764Q144.713619 10.897218 144.853617 10.114491T145.349976 9.102673T146.520874 8.873582H147.768134Q148.226311 8.873582 148.226311 7.957218Q148.200857 7.384491 148.073585 7.250855T147.755407 7.117218H147.488137Q146.419056 7.117218 145.400885 6.601764T143.186361 5.360855Q143.033636 5.284491 142.931818 5.284491Q142.52455 5.284491 142.52455 6.162673V20.633582Q142.52455 22.313582 142.25728 23.039036T141.417288 23.9554T139.571852 24.146309H139.317309Q139.113675 24.146309 139.024585 24.299036T138.910041 24.909945Q138.910041 25.826309 139.368218 25.826309Q141.200927 25.711764 143.644539 25.711764Q146.062696 25.711764 147.895405 25.826309Q148.353582 25.826309 148.353582 24.909945ZM137.051778 24.604491Q138.413583 23.153582 139.088121 20.748127T139.76266 15.517218Q139.76266 12.653582 139.088121 10.286309T137.051778 6.487218T133.704539 5.0554Q131.820921 5.0554 130.44639 6.506309T128.359138 10.362673T127.646418 15.517218T128.359138 20.671764T130.44639 24.566309T133.704539 26.0554Q135.689973 26.0554 137.051778 24.604491ZM131.031838 22.2754Q130.090029 19.908127 130.090029 15.517218T131.031838 8.797218T133.679084 6.468127Q135.435431 6.468127 136.377239 8.778127T137.319048 15.517218T136.377239 22.294491T133.679084 24.642673Q131.973647 24.642673 131.031838 22.2754Z" fill="#da0a0a" />
<path d="M137.978064 34.950441C137.685586 33.868269 137.213963 33.071262 136.563196 32.559424S135.192201 31.791667 134.402507 31.791667C133.510445 31.791667 132.746344 32.09877 132.110202 32.712976S131.155989 34.065692 131.155989 34.928505C131.155989 35.718199 131.349756 36.522517 131.737291 37.341458S132.614728 38.950092 133.206999 39.710539S134.402507 41.235086 135.016713 42.002844S136.219533 43.644382 136.782556 44.624188S137.74408 46.576486 137.978064 47.541667C138.241295 46.532614 138.661735 45.519904 139.23938 44.50354S140.412953 42.587802 141.027159 41.80542C141.641365 41.023038 142.240946 40.25528 142.825905 39.502147S143.893455 37.992225 144.273677 37.231778S144.844011 35.747446 144.844011 35.060121C144.844011 34.138812 144.533251 33.363743 143.911734 32.734912C143.290217 32.106081 142.526113 31.791667 141.619429 31.791667C139.879179 31.791667 138.665383 32.844591 137.978064 34.950441Z" fill="#da0a0a" />
<path d="M1.646418 185.090055Q1.671872 185.548236 1.760962 185.700964T2.053686 185.853691Q3.479126 185.853691 4.077302 186.025509T4.968203 186.922782T5.260927 189.366418V197.308236Q5.286381 199.102782 5.146383 199.885509T4.650024 200.897327T3.479126 201.126418H2.231866Q1.773689 201.126418 1.773689 202.042782Q1.799143 202.615509 1.926415 202.749145T2.244593 202.882782H2.511863Q3.580944 202.882782 4.599115 203.398236T6.813639 204.639145Q6.966364 204.715509 7.068182 204.715509Q7.47545 204.715509 7.47545 203.837327V189.366418Q7.47545 187.686418 7.74272 186.960964T8.582712 186.0446T10.428148 185.853691H10.682691Q10.886325 185.853691 10.975415 185.700964T11.089959 185.090055Q11.089959 184.173691 10.631782 184.173691Q8.799073 184.288236 6.355461 184.288236Q3.937304 184.288236 2.104595 184.173691Q1.646418 184.173691 1.646418 185.090055ZM12.948222 185.395509Q11.586417 186.846418 10.911879 189.251873T10.23734 194.482782Q10.23734 197.346418 10.911879 199.713691T12.948222 203.512782T16.295461 204.9446Q18.179079 204.9446 19.55361 203.493691T21.640862 199.637327T22.353582 194.482782T21.640862 189.328236T19.55361 185.433691T16.295461 183.9446Q14.310027 183.9446 12.948222 185.395509ZM18.968162 187.7246Q19.909971 190.091873 19.909971 194.482782T18.968162 201.202782T16.320916 203.531873Q14.564569 203.531873 13.622761 201.221873T12.680952 194.482782T13.622761 187.705509T16.320916 185.357327Q18.026353 185.357327 18.968162 187.7246Z" fill="#da0a0a" />
<path d="M12.021936 175.049559C12.314414 176.131731 12.786037 176.928738 13.436804 177.440576S14.807799 178.208333 15.597493 178.208333C16.489555 178.208333 17.253656 177.90123 17.889798 177.287024S18.844011 175.934308 18.844011 175.071495C18.844011 174.281801 18.650244 173.477483 18.262709 172.658542S17.385272 171.049908 16.793001 170.289461S15.597493 168.764914 14.983287 167.997156S13.780467 166.355618 13.217444 165.375812S12.25592 163.423514 12.021936 162.458333C11.758705 163.467386 11.338265 164.480096 10.76062 165.49646S9.587047 167.412198 8.972841 168.19458C8.358635 168.976962 7.759054 169.74472 7.174095 170.497853S6.106545 172.007775 5.726323 172.768222S5.155989 174.252554 5.155989 174.939879C5.155989 175.861188 5.466749 176.636257 6.088266 177.265088C6.709783 177.893919 7.473887 178.208333 8.380571 178.208333C10.120821 178.208333 11.334617 177.155409 12.021936 175.049559Z" fill="#da0a0a" />
</svg>
