<svg width="25.000000" height="35.000000" id="card-lightheart9">
<rect x="0" y="0" rx="1.25" ry="1.25" width="25" height="35.0" stroke="rgba(1,1,1,0.333)" fill="#fffdfa" />
<path d="M7.493036 4.336119C7.400186 3.992572 7.250464 3.739554 7.043872 3.577066S6.608635 3.333333 6.357939 3.333333C6.074744 3.333333 5.832173 3.430826 5.630223 3.625812S5.327298 4.055246 5.327298 4.329155C5.327298 4.579851 5.388811 4.835191 5.511838 5.095172S5.79039 5.605849 5.978412 5.847261S6.357939 6.331244 6.552925 6.574977S6.934772 7.0961 7.11351 7.407149S7.418756 8.026927 7.493036 8.333333C7.576602 8.012999 7.710075 7.691504 7.893454 7.368849S8.266017 6.760678 8.461003 6.512303C8.655989 6.263927 8.846332 6.020195 9.032033 5.781105S9.370938 5.301764 9.491643 5.060353S9.672702 4.589136 9.672702 4.370938C9.672702 4.078459 9.574048 3.832405 9.376741 3.632776C9.179434 3.433147 8.936861 3.333333 8.649025 3.333333C8.096565 3.333333 7.711233 3.667595 7.493036 4.336119Z" fill="#da0a0a" />
<path d="M7.506964 30.663881C7.599814 31.007428 7.749536 31.260446 7.956128 31.422934S8.391365 31.666667 8.642061 31.666667C8.925256 31.666667 9.167827 31.569174 9.369777 31.374188S9.672702 30.944754 9.672702 30.670845C9.672702 30.420149 9.611189 30.164809 9.488162 29.904828S9.20961 29.394151 9.021588 29.152739S8.642061 28.668756 8.447075 28.425023S8.065228 27.9039 7.88649 27.592851S7.581244 26.973073 7.506964 26.666667C7.423398 26.987001 7.289925 27.308496 7.106546 27.631151S6.733983 28.239322 6.538997 28.487697C6.344011 28.736073 6.153668 28.979805 5.967967 29.218895S5.629062 29.698236 5.508357 29.939647S5.327298 30.410864 5.327298 30.629062C5.327298 30.921541 5.425952 31.167595 5.623259 31.367224C5.820566 31.566853 6.063139 31.666667 6.350975 31.666667C6.903435 31.666667 7.288767 31.332405 7.506964 30.663881Z" fill="#da0a0a" />
<path d="M7.493036 12.113897C7.400186 11.77035 7.250464 11.517332 7.043872 11.354844S6.608635 11.111111 6.357939 11.111111C6.074744 11.111111 5.832173 11.208604 5.630223 11.40359S5.327298 11.833024 5.327298 12.106933C5.327298 12.357629 5.388811 12.612968 5.511838 12.87295S5.79039 13.383627 5.978412 13.625039S6.357939 14.109022 6.552925 14.352755S6.934772 14.873878 7.11351 15.184927S7.418756 15.804704 7.493036 16.111111C7.576602 15.790777 7.710075 15.469282 7.893454 15.146626S8.266017 14.538456 8.461003 14.29008C8.655989 14.041705 8.846332 13.797973 9.032033 13.558883S9.370938 13.079542 9.491643 12.838131S9.672702 12.366914 9.672702 12.148716C9.672702 11.856236 9.574048 11.610183 9.376741 11.410554C9.179434 11.210925 8.936861 11.111111 8.649025 11.111111C8.096565 11.111111 7.711233 11.445373 7.493036 12.113897Z" fill="#da0a0a" />
<path d="M7.506964 22.886103C7.599814 23.22965 7.749536 23.482668 7.956128 23.645156S8.391365 23.888889 8.642061 23.888889C8.925256 23.888889 9.167827 23.791396 9.369777 23.59641S9.672702 23.166976 9.672702 22.893067C9.672702 22.642371 9.611189 22.387032 9.488162 22.12705S9.20961 21.616373 9.021588 21.374961S8.642061 20.890978 8.447075 20.647245S8.065228 20.126122 7.88649 19.815073S7.581244 19.195296 7.506964 18.888889C7.423398 19.209223 7.289925 19.530718 7.106546 19.853374S6.733983 20.461544 6.538997 20.70992C6.344011 20.958295 6.153668 21.202027 5.967967 21.441117S5.629062 21.920458 5.508357 22.161869S5.327298 22.633086 5.327298 22.851284C5.327298 23.143764 5.425952 23.389817 5.623259 23.589446C5.820566 23.789075 6.063139 23.888889 6.350975 23.888889C6.903435 23.888889 7.288767 23.554627 7.506964 22.886103Z" fill="#da0a0a" />
<path d="M17.493036 4.336119C17.400186 3.992572 17.250464 3.739554 17.043872 3.577066S16.608635 3.333333 16.357939 3.333333C16.074744 3.333333 15.832173 3.430826 15.630223 3.625812S15.327298 4.055246 15.327298 4.329155C15.327298 4.579851 15.388811 4.835191 15.511838 5.095172S15.79039 5.605849 15.978412 5.847261S16.357939 6.331244 16.552925 6.574977S16.934772 7.0961 17.11351 7.407149S17.418756 8.026927 17.493036 8.333333C17.576602 8.012999 17.710075 7.691504 17.893454 7.368849S18.266017 6.760678 18.461003 6.512303C18.655989 6.263927 18.846332 6.020195 19.032033 5.781105S19.370938 5.301764 19.491643 5.060353S19.672702 4.589136 19.672702 4.370938C19.672702 4.078459 19.574048 3.832405 19.376741 3.632776C19.179434 3.433147 18.936861 3.333333 18.649025 3.333333C18.096565 3.333333 17.711233 3.667595 17.493036 4.336119Z" fill="#da0a0a" />
<path d="M17.506964 30.663881C17.599814 31.007428 17.749536 31.260446 17.956128 31.422934S18.391365 31.666667 18.642061 31.666667C18.925256 31.666667 19.167827 31.569174 19.369777 31.374188S19.672702 30.944754 19.672702 30.670845C19.672702 30.420149 19.611189 30.164809 19.488162 29.904828S19.20961 29.394151 19.021588 29.152739S18.642061 28.668756 18.447075 28.425023S18.065228 27.9039 17.88649 27.592851S17.581244 26.973073 17.506964 26.666667C17.423398 26.987001 17.289925 27.308496 17.106546 27.631151S16.733983 28.239322 16.538997 28.487697C16.344011 28.736073 16.153668 28.979805 15.967967 29.218895S15.629062 29.698236 15.508357 29.939647S15.327298 30.410864 15.327298 30.629062C15.327298 30.921541 15.425952 31.167595 15.623259 31.367224C15.820566 31.566853 16.063139 31.666667 16.350975 31.666667C16.903435 31.666667 17.288767 31.332405 17.506964 30.663881Z" fill="#da0a0a" />
<path d="M17.493036 12.113897C17.400186 11.77035 17.250464 11.517332 17.043872 11.354844S16.608635 11.111111 16.357939 11.111111C16.074744 11.111111 15.832173 11.208604 15.630223 11.40359S15.327298 11.833024 15.327298 12.106933C15.327298 12.357629 15.388811 12.612968 15.511838 12.87295S15.79039 13.383627 15.978412 13.625039S16.357939 14.109022 16.552925 14.352755S16.934772 14.873878 17.11351 15.184927S17.418756 15.804704 17.493036 16.111111C17.576602 15.790777 17.710075 15.469282 17.893454 15.146626S18.266017 14.538456 18.461003 14.29008C18.655989 14.041705 18.846332 13.797973 19.032033 13.558883S19.370938 13.079542 19.491643 12.838131S19.672702 12.366914 19.672702 12.148716C19.672702 11.856236 19.574048 11.610183 19.376741 11.410554C19.179434 11.210925 18.936861 11.111111 18.649025 11.111111C18.096565 11.111111 17.711233 11.445373 17.493036 12.113897Z" fill="#da0a0a" />
<path d="M17.506964 22.886103C17.599814 23.22965 17.749536 23.482668 17.956128 23.645156S18.391365 23.888889 18.642061 23.888889C18.925256 23.888889 19.167827 23.791396 19.369777 23.59641S19.672702 23.166976 19.672702 22.893067C19.672702 22.642371 19.611189 22.387032 19.488162 22.12705S19.20961 21.616373 19.021588 21.374961S18.642061 20.890978 18.447075 20.647245S18.065228 20.126122 17.88649 19.815073S17.581244 19.195296 17.506964 18.888889C17.423398 19.209223 17.289925 19.530718 17.106546 19.853374S16.733983 20.461544 16.538997 20.70992C16.344011 20.958295 16.153668 21.202027 15.967967 21.441117S15.629062 21.920458 15.508357 22.161869S15.327298 22.633086 15.327298 22.851284C15.327298 23.143764 15.425952 23.389817 15.623259 23.589446C15.820566 23.789075 16.063139 23.888889 16.350975 23.888889C16.903435 23.888889 17.288767 23.554627 17.506964 22.886103Z" fill="#da0a0a" />
<path d="M12.493036 8.225008C12.400186 7.881461 12.250464 7.628443 12.043872 7.465955S11.608635 7.222222 11.357939 7.222222C11.074744 7.222222 10.832173 7.319715 10.630223 7.514701S10.327298 7.944135 10.327298 8.218044C10.327298 8.46874 10.388811 8.724079 10.511838 8.984061S10.79039 9.494738 10.978412 9.73615S11.357939 10.220133 11.552925 10.463866S11.934772 10.984989 12.11351 11.296038S12.418756 11.915816 12.493036 12.222222C12.576602 11.901888 12.710075 11.580393 12.893454 11.257738S13.266017 10.649567 13.461003 10.401192C13.655989 10.152816 13.846332 9.909084 14.032033 9.669994S14.370938 9.190653 14.491643 8.949242S14.672702 8.478025 14.672702 8.259827C14.672702 7.967348 14.574048 7.721294 14.376741 7.521665C14.179434 7.322036 13.936861 7.222222 13.649025 7.222222C13.096565 7.222222 12.711233 7.556484 12.493036 8.225008Z" fill="#da0a0a" />
<path d="M23.731013 4.342567Q23.857595 4.342567 23.857595 4.228643Q23.857595 4.127377 23.743671 4.095731Q22.585443 3.734972 22.363924 2.798263Q22.572785 2.937503 22.778481 2.994465T23.205696 3.051427Q23.509494 3.051427 23.762658 2.915351T24.161392 2.541934T24.306962 2.000795Q24.306962 1.659022 24.123418 1.396364T23.642405 0.988136T23.009494 0.842567Q22.408228 0.842567 22.050633 1.215984T21.693038 2.234972Q21.693038 2.74763 21.936709 3.190668T22.623418 3.934339T23.636076 4.336238Q23.667722 4.342567 23.731013 4.342567ZM22.661392 2.687503Q22.490506 2.608389 22.338608 2.475478Q22.300633 2.323579 22.300633 2.228643Q22.300633 1.975478 22.367089 1.703326T22.594937 1.238136T23.009494 1.045098Q23.306962 1.045098 23.503165 1.295098T23.699367 1.943832Q23.699367 2.31725 23.503165 2.541934T22.990506 2.766617Q22.832278 2.766617 22.661392 2.687503Z" fill="#da0a0a" />
<path d="M22.996344 5.825074C22.947598 5.644712 22.868994 5.511877 22.760533 5.426571S22.532033 5.298611 22.400418 5.298611C22.251741 5.298611 22.124391 5.349795 22.018367 5.452163S21.859331 5.677615 21.859331 5.821418C21.859331 5.953033 21.891626 6.087086 21.956215 6.223576S22.102455 6.491682 22.201166 6.618423S22.400418 6.872514 22.502786 7.000474S22.703255 7.274064 22.797093 7.437365S22.957347 7.762748 22.996344 7.923611C23.040216 7.755436 23.110289 7.586651 23.206563 7.417257S23.402159 7.097967 23.504526 6.96757C23.606894 6.837173 23.706824 6.709213 23.804318 6.583691S23.982242 6.332037 24.045613 6.205296S24.140669 5.957908 24.140669 5.843353C24.140669 5.689802 24.088875 5.560624 23.985289 5.455819C23.881703 5.351013 23.754352 5.298611 23.603238 5.298611C23.313197 5.298611 23.110897 5.474099 22.996344 5.825074Z" fill="#da0a0a" />
<path d="M1.268987 30.657433Q1.142405 30.657433 1.142405 30.771357Q1.142405 30.872623 1.256329 30.904269Q2.414557 31.265028 2.636076 32.201737Q2.427215 32.062497 2.221519 32.005535T1.794304 31.948573Q1.490506 31.948573 1.237342 32.084649T0.838608 32.458066T0.693038 32.999205Q0.693038 33.340978 0.876582 33.603636T1.357595 34.011864T1.990506 34.157433Q2.591772 34.157433 2.949367 33.784016T3.306962 32.765028Q3.306962 32.25237 3.063291 31.809332T2.376582 31.065661T1.363924 30.663762Q1.332278 30.657433 1.268987 30.657433ZM2.338608 32.312497Q2.509494 32.391611 2.661392 32.524522Q2.699367 32.676421 2.699367 32.771357Q2.699367 33.024522 2.632911 33.296674T2.405063 33.761864T1.990506 33.954902Q1.693038 33.954902 1.496835 33.704902T1.300633 33.056168Q1.300633 32.68275 1.496835 32.458066T2.009494 32.233383Q2.167722 32.233383 2.338608 32.312497Z" fill="#da0a0a" />
<path d="M2.003656 29.174926C2.052402 29.355288 2.131006 29.488123 2.239467 29.573429S2.467967 29.701389 2.599582 29.701389C2.748259 29.701389 2.875609 29.650205 2.981633 29.547837S3.140669 29.322385 3.140669 29.178582C3.140669 29.046967 3.108374 28.912914 3.043785 28.776424S2.897545 28.508318 2.798834 28.381577S2.599582 28.127486 2.497214 27.999526S2.296745 27.725936 2.202907 27.562635S2.042653 27.237252 2.003656 27.076389C1.959784 27.244564 1.889711 27.413349 1.793437 27.582743S1.597841 27.902033 1.495474 28.03243C1.393106 28.162827 1.293176 28.290787 1.195682 28.416309S1.017758 28.667963 0.954387 28.794704S0.859331 29.042092 0.859331 29.156647C0.859331 29.310198 0.911125 29.439376 1.014711 29.544181C1.118297 29.648987 1.245648 29.701389 1.396762 29.701389C1.686803 29.701389 1.889103 29.525901 2.003656 29.174926Z" fill="#da0a0a" />
</svg>
