<svg width="25.000000" height="35.000000" id="card-lightdiamond3">
<rect x="0" y="0" rx="1.25" ry="1.25" width="25" height="35.0" stroke="rgba(1,1,1,0.333)" fill="#fffdfa" />
<path d="M12.506954 3.333333C12.395688 3.555865 12.126796 3.955726 11.700278 4.532916C11.27376 5.110107 10.930688 5.542422 10.671071 5.829856C10.995596 6.200742 11.34446 6.641171 11.717663 7.151136C12.090867 7.661103 12.353964 8.055169 12.506954 8.333333C12.850023 7.721372 13.45735 6.88688 14.328929 5.829856C13.434166 4.749655 12.826843 3.917478 12.506954 3.333333Z" fill="#da0a0a" />
<path d="M12.493046 31.666667C12.604312 31.444135 12.873204 31.044274 13.299722 30.467084C13.72624 29.889893 14.069312 29.457578 14.328929 29.170144C14.004404 28.799258 13.65554 28.358829 13.282337 27.848864C12.909133 27.338897 12.646036 26.944831 12.493046 26.666667C12.149977 27.278628 11.54265 28.11312 10.671071 29.170144C11.565834 30.250345 12.173157 31.082522 12.493046 31.666667Z" fill="#da0a0a" />
<path d="M12.506954 15.0C12.395688 15.222531 12.126796 15.622392 11.700278 16.199583C11.27376 16.776773 10.930688 17.209089 10.671071 17.496523C10.995596 17.867408 11.34446 18.307837 11.717663 18.817803C12.090867 19.32777 12.353964 19.721836 12.506954 20.0C12.850023 19.388039 13.45735 18.553547 14.328929 17.496523C13.434166 16.416321 12.826843 15.584145 12.506954 15.0Z" fill="#da0a0a" />
<path d="M23.887681 4.16186Q24.20788 3.981154 24.20788 3.632422Q24.20788 3.448545 24.09375 3.315393T23.776721 3.182241Q23.65625 3.182241 23.570652 3.245646T23.485054 3.353436Q23.485054 3.359777 23.54212 3.400991T23.646739 3.511951T23.694293 3.689487Q23.694293 3.886045 23.526268 3.997005T23.085598 4.107965Q22.407156 4.107965 22.407156 3.353436Q22.407156 3.042748 22.572011 2.855701T23.066576 2.649632H23.301178Q23.345562 2.649632 23.370924 2.611588T23.396286 2.52282Q23.396286 2.465755 23.370924 2.424541T23.301178 2.376987H23.066576Q22.819293 2.351625 22.67029 2.155067T22.521286 1.679523Q22.521286 1.375175 22.692482 1.213491T23.091938 1.051806Q23.307518 1.051806 23.462862 1.175447T23.618207 1.514668Q23.618207 1.654161 23.564312 1.701715T23.459692 1.75878T23.408967 1.774632Q23.408967 1.819016 23.494565 1.882422T23.700634 1.945828Q23.903533 1.945828 24.017663 1.819016T24.131793 1.495646Q24.131793 1.184958 23.840127 1.013762T23.085598 0.842567Q22.591033 0.842567 22.267663 1.058146T21.944293 1.679523Q21.944293 1.945828 22.131341 2.174088T22.66712 2.497458V2.52282Q22.312047 2.560864 22.052083 2.747911T21.79212 3.340755Q21.79212 3.854342 22.166214 4.098454T23.10462 4.342567Q23.567482 4.342567 23.887681 4.16186Z" fill="#da0a0a" />
<path d="M23.003651 5.298611C22.945236 5.41544 22.804068 5.625367 22.580146 5.928392C22.356224 6.231417 22.176111 6.458383 22.039812 6.609286C22.210188 6.804 22.393341 7.035226 22.589273 7.302957C22.785205 7.57069 22.923331 7.777575 23.003651 7.923611C23.183762 7.602332 23.502609 7.164223 23.960188 6.609286C23.490437 6.04218 23.171592 5.605287 23.003651 5.298611Z" fill="#da0a0a" />
<path d="M1.112319 30.83814Q0.79212 31.018846 0.79212 31.367578Q0.79212 31.551455 0.90625 31.684607T1.223279 31.817759Q1.34375 31.817759 1.429348 31.754354T1.514946 31.646564Q1.514946 31.640223 1.45788 31.599009T1.353261 31.488049T1.305707 31.310513Q1.305707 31.113955 1.473732 31.002995T1.914402 30.892035Q2.592844 30.892035 2.592844 31.646564Q2.592844 31.957252 2.427989 32.144299T1.933424 32.350368H1.698822Q1.654438 32.350368 1.629076 32.388412T1.603714 32.47718Q1.603714 32.534245 1.629076 32.575459T1.698822 32.623013H1.933424Q2.180707 32.648375 2.32971 32.844933T2.478714 33.320477Q2.478714 33.624825 2.307518 33.786509T1.908062 33.948194Q1.692482 33.948194 1.537138 33.824553T1.381793 33.485332Q1.381793 33.345839 1.435688 33.298285T1.540308 33.24122T1.591033 33.225368Q1.591033 33.180984 1.505435 33.117578T1.299366 33.054172Q1.096467 33.054172 0.982337 33.180984T0.868207 33.504354Q0.868207 33.815042 1.159873 33.986238T1.914402 34.157433Q2.408967 34.157433 2.732337 33.941854T3.055707 33.320477Q3.055707 33.054172 2.868659 32.825912T2.33288 32.502542V32.47718Q2.687953 32.439136 2.947917 32.252089T3.20788 31.659245Q3.20788 31.145658 2.833786 30.901546T1.89538 30.657433Q1.432518 30.657433 1.112319 30.83814Z" fill="#da0a0a" />
<path d="M1.996349 29.701389C2.054764 29.58456 2.195932 29.374633 2.419854 29.071608C2.643776 28.768583 2.823889 28.541617 2.960188 28.390714C2.789812 28.196 2.606659 27.964774 2.410727 27.697043C2.214795 27.42931 2.076669 27.222425 1.996349 27.076389C1.816238 27.397668 1.497391 27.835777 1.039812 28.390714C1.509563 28.95782 1.828408 29.394713 1.996349 29.701389Z" fill="#da0a0a" />
</svg>
