<svg width="25.000000" height="35.000000" id="card-lightdiamond2">
<rect x="0" y="0" rx="1.25" ry="1.25" width="25" height="35.0" stroke="rgba(1,1,1,0.333)" fill="#fffdfa" />
<path d="M12.506954 3.333333C12.395688 3.555865 12.126796 3.955726 11.700278 4.532916C11.27376 5.110107 10.930688 5.542422 10.671071 5.829856C10.995596 6.200742 11.34446 6.641171 11.717663 7.151136C12.090867 7.661103 12.353964 8.055169 12.506954 8.333333C12.850023 7.721372 13.45735 6.88688 14.328929 5.829856C13.434166 4.749655 12.826843 3.917478 12.506954 3.333333Z" fill="#da0a0a" />
<path d="M12.493046 31.666667C12.604312 31.444135 12.873204 31.044274 13.299722 30.467084C13.72624 29.889893 14.069312 29.457578 14.328929 29.170144C14.004404 28.799258 13.65554 28.358829 13.282337 27.848864C12.909133 27.338897 12.646036 26.944831 12.493046 26.666667C12.149977 27.278628 11.54265 28.11312 10.671071 29.170144C11.565834 30.250345 12.173157 31.082522 12.493046 31.666667Z" fill="#da0a0a" />
<path d="M24.337264 4.104831Q24.33066 3.966152 24.261321 3.880303T24.033491 3.688793Q23.511792 3.338793 23.224528 3.110963T22.706132 2.533133T22.475 1.747284Q22.475 1.430303 22.643396 1.255303T23.115566 1.080303Q23.373113 1.080303 23.541509 1.209076T23.709906 1.562378Q23.709906 1.674642 23.657075 1.750586T23.548113 1.872755T23.491981 1.925586Q23.491981 1.971812 23.581132 2.03785T23.795755 2.103887Q24.000472 2.103887 24.122642 1.975114T24.244811 1.648227Q24.244811 1.384076 24.066509 1.19917T23.614151 0.928416T23.056132 0.842567Q22.560849 0.842567 22.200943 1.086906T21.841038 1.833133Q21.841038 2.19634 22.039151 2.49351T22.511321 2.998699T23.22783 3.49068Q23.57783 3.708604 23.749528 3.84068V3.873699H21.979717Q21.814623 3.873699 21.738679 3.910019T21.662736 4.104831Q21.662736 4.342567 21.893868 4.342567H24.106132Q24.337264 4.342567 24.337264 4.104831Z" fill="#da0a0a" />
<path d="M23.003651 5.298611C22.945236 5.41544 22.804068 5.625367 22.580146 5.928392C22.356224 6.231417 22.176111 6.458383 22.039812 6.609286C22.210188 6.804 22.393341 7.035226 22.589273 7.302957C22.785205 7.57069 22.923331 7.777575 23.003651 7.923611C23.183762 7.602332 23.502609 7.164223 23.960188 6.609286C23.490437 6.04218 23.171592 5.605287 23.003651 5.298611Z" fill="#da0a0a" />
<path d="M0.662736 30.895169Q0.66934 31.033848 0.738679 31.119697T0.966509 31.311207Q1.488208 31.661207 1.775472 31.889037T2.293868 32.466867T2.525 33.252716Q2.525 33.569697 2.356604 33.744697T1.884434 33.919697Q1.626887 33.919697 1.458491 33.790924T1.290094 33.437622Q1.290094 33.325358 1.342925 33.249414T1.451887 33.127245T1.508019 33.074414Q1.508019 33.028188 1.418868 32.96215T1.204245 32.896113Q0.999528 32.896113 0.877358 33.024886T0.755189 33.351773Q0.755189 33.615924 0.933491 33.80083T1.385849 34.071584T1.943868 34.157433Q2.439151 34.157433 2.799057 33.913094T3.158962 33.166867Q3.158962 32.80366 2.960849 32.50649T2.488679 32.001301T1.77217 31.50932Q1.42217 31.291396 1.250472 31.15932V31.126301H3.020283Q3.185377 31.126301 3.261321 31.089981T3.337264 30.895169Q3.337264 30.657433 3.106132 30.657433H0.893868Q0.662736 30.657433 0.662736 30.895169Z" fill="#da0a0a" />
<path d="M1.996349 29.701389C2.054764 29.58456 2.195932 29.374633 2.419854 29.071608C2.643776 28.768583 2.823889 28.541617 2.960188 28.390714C2.789812 28.196 2.606659 27.964774 2.410727 27.697043C2.214795 27.42931 2.076669 27.222425 1.996349 27.076389C1.816238 27.397668 1.497391 27.835777 1.039812 28.390714C1.509563 28.95782 1.828408 29.394713 1.996349 29.701389Z" fill="#da0a0a" />
</svg>
