<svg width="25.000000" height="35.000000" id="card-lightheart13">
<rect x="0" y="0" rx="1.25" ry="1.25" width="25" height="35.0" stroke="rgba(1,1,1,0.333)" fill="#fffdfa" />
<rect x="5.0" y="3.5" width="15.0" height="28.0" stroke="#010101" fill="#fffdfa" />
<path d="M10.05571 9.801093C10.185701 9.801093 10.355153 9.845197 10.564067 9.933405S11.000464 10.156246 11.246518 10.337304S11.703806 10.780665 11.880223 11.124212S12.144847 11.857732 12.144847 12.294129C12.144847 12.46126 12.265553 12.544825 12.506964 12.544825C12.75766 12.544825 12.883008 12.46126 12.883008 12.294129C12.883008 11.839161 12.968895 11.435261 13.140669 11.08243S13.523677 10.467294 13.774373 10.295522S14.252553 9.9984 14.456825 9.919477C14.661096 9.840554 14.832869 9.801093 14.972145 9.801093C15.352831 9.801093 15.654596 9.903228 15.877437 10.107499S16.211699 10.594964 16.211699 10.957081C16.211699 11.087072 16.142061 11.309913 16.002786 11.625605S15.636026 12.261632 15.320334 12.586608S14.656453 13.074073 14.275766 13.074073C13.913649 13.074073 13.328691 13.004435 12.520891 12.865159C11.703806 13.004435 11.114206 13.074073 10.752089 13.074073C10.464252 13.074073 10.188022 12.978901 9.923398 12.788558S9.452182 12.375372 9.303621 12.120034C9.15506 11.864696 9.036675 11.627927 8.948468 11.409728S8.816156 11.040647 8.816156 10.957081C8.816156 10.594964 8.927577 10.311771 9.150418 10.107499S9.675024 9.801093 10.05571 9.801093ZM11.810585 12.349839C11.8013 12.015577 11.747911 11.713813 11.650418 11.444547S11.436862 10.961723 11.302228 10.803878S11.016713 10.516041 10.849582 10.413906S10.536212 10.242133 10.410864 10.204992S10.176416 10.149282 10.083565 10.149282C9.805014 10.149282 9.575209 10.221241 9.39415 10.365159S9.122563 10.706385 9.122563 10.957081C9.122563 11.031362 9.157382 11.15671 9.227019 11.333126S9.398792 11.702207 9.533426 11.91112S9.860724 12.303414 10.111421 12.46126S10.640669 12.698028 10.947075 12.698028C11.522748 12.698028 11.810585 12.581965 11.810585 12.349839ZM10.445682 14.494686C10.445682 14.253275 11.128134 14.132569 12.493036 14.132569C13.10585 14.132569 13.604921 14.165066 13.990251 14.230062S14.568245 14.378623 14.568245 14.480758C14.568245 14.620034 14.442897 14.689672 14.192201 14.689672C14.164345 14.689672 13.890436 14.666459 13.370474 14.620034S12.562674 14.550396 12.506964 14.550396C12.479109 14.550396 12.207521 14.573609 11.692201 14.620034S10.891365 14.689672 10.835655 14.689672C10.575673 14.689672 10.445682 14.624677 10.445682 14.494686ZM13.62117 9.842875C13.62117 9.443618 13.579387 9.151139 13.495822 8.965438S13.194057 8.56618 12.841226 8.324769V8.004435L13.412256 7.656246V7.154853H12.896936L12.729805 6.639533H12.256267L12.075209 7.154853H11.573816V7.656246L12.130919 8.004435V8.324769C11.805943 8.538325 11.597029 8.740275 11.504178 8.930619S11.364903 9.425048 11.364903 9.842875C10.928506 9.490044 10.47818 9.313627 10.013928 9.313627C9.531104 9.313627 9.120241 9.471473 8.781337 9.787165S8.272981 10.497471 8.272981 10.971009C8.272981 11.351696 8.454039 11.792736 8.816156 12.294129C9.038997 12.600535 9.189879 12.821055 9.268802 12.955689S9.431291 13.322448 9.519499 13.652067S9.656453 14.37398 9.665738 14.828948C9.684308 15.460331 10.631383 15.776023 12.506964 15.776023C14.363969 15.776023 15.306407 15.460331 15.334262 14.828948C15.343547 14.35541 15.401578 13.935261 15.508357 13.568502S15.710306 12.953367 15.793872 12.823377S16.007428 12.512328 16.183844 12.280201C16.545961 11.788094 16.727019 11.351696 16.727019 10.971009C16.727019 10.506757 16.557567 10.114463 16.218663 9.794129C15.879759 9.473794 15.473538 9.313627 15.0 9.313627C14.517177 9.313627 14.057567 9.490044 13.62117 9.842875ZM14.958217 10.149282C14.837512 10.149282 14.691272 10.184101 14.519499 10.253739C14.347726 10.323377 14.157382 10.434797 13.948468 10.588001S13.56546 10.973331 13.426184 11.284379S13.21727 11.955225 13.21727 12.363767C13.21727 12.586608 13.500464 12.698028 14.066852 12.698028C14.382545 12.698028 14.66806 12.619105 14.923398 12.46126S15.371403 12.115392 15.501393 11.897193S15.728876 11.486329 15.793872 11.319198S15.891365 11.031361 15.891365 10.957081C15.891365 10.706385 15.800836 10.509077 15.619777 10.365159S15.218199 10.149282 14.958217 10.149282Z" fill="#da0a0a" />
<path d="M14.94429 25.198907C14.814299 25.198907 14.644847 25.154803 14.435933 25.066595S13.999536 24.843754 13.753482 24.662696S13.296194 24.219335 13.119777 23.875788S12.855153 23.142268 12.855153 22.705871C12.855153 22.53874 12.734447 22.455175 12.493036 22.455175C12.24234 22.455175 12.116992 22.53874 12.116992 22.705871C12.116992 23.160839 12.031105 23.564739 11.859331 23.91757S11.476323 24.532706 11.225627 24.704478S10.747447 25.0016 10.543175 25.080523C10.338904 25.159446 10.167131 25.198907 10.027855 25.198907C9.647169 25.198907 9.345404 25.096772 9.122563 24.892501S8.788301 24.405036 8.788301 24.042919C8.788301 23.912928 8.857939 23.690087 8.997214 23.374395S9.363974 22.738368 9.679666 22.413392S10.343547 21.925927 10.724234 21.925927C11.086351 21.925927 11.671309 21.995565 12.479109 22.134841C13.296194 21.995565 13.885794 21.925927 14.247911 21.925927C14.535748 21.925927 14.811978 22.021099 15.076602 22.211442S15.547818 22.624628 15.696379 22.879966C15.84494 23.135304 15.963325 23.372073 16.051532 23.590272S16.183844 23.959353 16.183844 24.042919C16.183844 24.405036 16.072423 24.688229 15.849582 24.892501S15.324976 25.198907 14.94429 25.198907ZM13.189415 22.650161C13.1987 22.984423 13.252089 23.286187 13.349582 23.555453S13.563138 24.038277 13.697772 24.196122S13.983287 24.483959 14.150418 24.586094S14.463788 24.757867 14.589136 24.795008S14.823584 24.850718 14.916435 24.850718C15.194986 24.850718 15.424791 24.778759 15.60585 24.634841S15.877437 24.293615 15.877437 24.042919C15.877437 23.968638 15.842618 23.84329 15.772981 23.666874S15.601208 23.297793 15.466574 23.08888S15.139276 22.696586 14.888579 22.53874S14.359331 22.301972 14.052925 22.301972C13.477252 22.301972 13.189415 22.418035 13.189415 22.650161ZM14.554318 20.505314C14.554318 20.746725 13.871866 20.867431 12.506964 20.867431C11.89415 20.867431 11.395079 20.834934 11.009749 20.769938S10.431755 20.621377 10.431755 20.519242C10.431755 20.379966 10.557103 20.310328 10.807799 20.310328C10.835655 20.310328 11.109564 20.333541 11.629526 20.379966S12.437326 20.449604 12.493036 20.449604C12.520891 20.449604 12.792479 20.426391 13.307799 20.379966S14.108635 20.310328 14.164345 20.310328C14.424327 20.310328 14.554318 20.375323 14.554318 20.505314ZM11.37883 25.157125C11.37883 25.556382 11.420613 25.848861 11.504178 26.034562S11.805943 26.43382 12.158774 26.675231V26.995565L11.587744 27.343754V27.845147H12.103064L12.270195 28.360467H12.743733L12.924791 27.845147H13.426184V27.343754L12.869081 26.995565V26.675231C13.194057 26.461675 13.402971 26.259725 13.495822 26.069381S13.635097 25.574952 13.635097 25.157125C14.071494 25.509956 14.52182 25.686373 14.986072 25.686373C15.468896 25.686373 15.879759 25.528527 16.218663 25.212835S16.727019 24.502529 16.727019 24.028991C16.727019 23.648304 16.545961 23.207264 16.183844 22.705871C15.961003 22.399465 15.810121 22.178945 15.731198 22.044311S15.568709 21.677552 15.480501 21.347933S15.343547 20.62602 15.334262 20.171052C15.315692 19.539669 14.368617 19.223977 12.493036 19.223977C10.636031 19.223977 9.693593 19.539669 9.665738 20.171052C9.656453 20.64459 9.598422 21.064739 9.491643 21.431498S9.289694 22.046633 9.206128 22.176623S8.992572 22.487672 8.816156 22.719799C8.454039 23.211906 8.272981 23.648304 8.272981 24.028991C8.272981 24.493243 8.442433 24.885537 8.781337 25.205871C9.120241 25.526206 9.526462 25.686373 10.0 25.686373C10.482823 25.686373 10.942433 25.509956 11.37883 25.157125ZM10.041783 24.850718C10.162488 24.850718 10.308728 24.815899 10.480501 24.746261C10.652274 24.676623 10.842618 24.565203 11.051532 24.411999S11.43454 24.026669 11.573816 23.715621S11.78273 23.044775 11.78273 22.636233C11.78273 22.413392 11.499536 22.301972 10.933148 22.301972C10.617455 22.301972 10.33194 22.380895 10.076602 22.53874S9.628597 22.884608 9.498607 23.102807S9.271124 23.513671 9.206128 23.680802S9.108635 23.968639 9.108635 24.042919C9.108635 24.293615 9.199164 24.490923 9.380223 24.634841S9.781801 24.850718 10.041783 24.850718Z" fill="#da0a0a" />
<path d="M24.726027 4.254667Q24.75 4.22004 24.75 4.172095Q24.744673 4.092186 24.718037 4.076204T24.616819 4.060223Q24.462329 4.060223 24.387747 4.004287T24.294521 3.865778T24.270548 3.650025V1.535109Q24.275875 1.401927 24.294521 1.319355T24.387747 1.180847T24.616819 1.124911H24.648782Q24.702055 1.124911 24.723364 1.106265T24.75 1.013039Q24.75 0.965093 24.726027 0.930466T24.65411 0.895839Q24.307839 0.911821 24.025495 0.911821Q23.70586 0.911821 23.359589 0.895839Q23.311644 0.895839 23.287671 0.930466T23.263699 1.013039Q23.269026 1.092947 23.295662 1.108929T23.39688 1.124911Q23.55137 1.124911 23.625951 1.180847T23.719178 1.319355T23.743151 1.535109V2.49934Q23.657915 2.483358 23.55137 2.408777T23.290335 2.201014Q22.992009 1.923997 22.539193 1.385946Q22.443303 1.279401 22.443303 1.215474Q22.443303 1.135565 22.587139 1.130238Q22.624429 1.124911 22.637747 1.100938T22.66172 1.018366Q22.66172 0.970421 22.635084 0.93313T22.56583 0.895839Q22.379376 0.911821 21.979833 0.911821Q21.851979 0.911821 21.606925 0.901166L21.495053 0.895839Q21.447108 0.895839 21.420472 0.930466T21.393836 1.018366Q21.399163 1.092947 21.425799 1.111593T21.500381 1.130238Q21.71347 1.119583 21.902588 1.199492T22.299467 1.487163L23.162481 2.387468Q22.976027 2.616539 22.778919 2.824302T22.304795 3.309081Q22.166286 3.447589 21.974505 3.650025Q21.915906 3.708625 21.894597 3.735261Q21.724125 3.905733 21.625571 3.974987T21.383181 4.060223Q21.372527 4.060223 21.335236 4.062886T21.273973 4.092186T21.25 4.172095Q21.25 4.22004 21.273973 4.254667T21.34589 4.289294Q21.409817 4.283967 21.500381 4.283967Q21.692161 4.273312 21.798706 4.273312H22.13965Q22.842846 3.490207 23.39688 2.850938Q23.567352 2.65383 23.743151 2.637848V3.650025Q23.737823 3.783206 23.719178 3.865778T23.625951 4.004287T23.39688 4.060223H23.364916Q23.311644 4.060223 23.290335 4.078868T23.263699 4.172095Q23.263699 4.22004 23.287671 4.254667T23.359589 4.289294Q23.700533 4.273312 24.020167 4.273312Q24.307839 4.273312 24.65411 4.289294Q24.702055 4.289294 24.726027 4.254667Z" fill="#da0a0a" />
<path d="M22.996344 5.825074C22.947598 5.644712 22.868994 5.511877 22.760533 5.426571S22.532033 5.298611 22.400418 5.298611C22.251741 5.298611 22.124391 5.349795 22.018367 5.452163S21.859331 5.677615 21.859331 5.821418C21.859331 5.953033 21.891626 6.087086 21.956215 6.223576S22.102455 6.491682 22.201166 6.618423S22.400418 6.872514 22.502786 7.000474S22.703255 7.274064 22.797093 7.437365S22.957347 7.762748 22.996344 7.923611C23.040216 7.755436 23.110289 7.586651 23.206563 7.417257S23.402159 7.097967 23.504526 6.96757C23.606894 6.837173 23.706824 6.709213 23.804318 6.583691S23.982242 6.332037 24.045613 6.205296S24.140669 5.957908 24.140669 5.843353C24.140669 5.689802 24.088875 5.560624 23.985289 5.455819C23.881703 5.351013 23.754352 5.298611 23.603238 5.298611C23.313197 5.298611 23.110897 5.474099 22.996344 5.825074Z" fill="#da0a0a" />
<path d="M0.273973 30.745333Q0.25 30.77996 0.25 30.827905Q0.255327 30.907814 0.281963 30.923796T0.383181 30.939777Q0.537671 30.939777 0.612253 30.995713T0.705479 31.134222T0.729452 31.349975V33.464891Q0.724125 33.598073 0.705479 33.680645T0.612253 33.819153T0.383181 33.875089H0.351218Q0.297945 33.875089 0.276636 33.893735T0.25 33.986961Q0.25 34.034907 0.273973 34.069534T0.34589 34.104161Q0.692161 34.088179 0.974505 34.088179Q1.29414 34.088179 1.640411 34.104161Q1.688356 34.104161 1.712329 34.069534T1.736301 33.986961Q1.730974 33.907053 1.704338 33.891071T1.60312 33.875089Q1.44863 33.875089 1.374049 33.819153T1.280822 33.680645T1.256849 33.464891V32.50066Q1.342085 32.516642 1.44863 32.591223T1.709665 32.798986Q2.007991 33.076003 2.460807 33.614054Q2.556697 33.720599 2.556697 33.784526Q2.556697 33.864435 2.412861 33.869762Q2.375571 33.875089 2.362253 33.899062T2.33828 33.981634Q2.33828 34.029579 2.364916 34.06687T2.43417 34.104161Q2.620624 34.088179 3.020167 34.088179Q3.148021 34.088179 3.393075 34.098834L3.504947 34.104161Q3.552892 34.104161 3.579528 34.069534T3.606164 33.981634Q3.600837 33.907053 3.574201 33.888407T3.499619 33.869762Q3.28653 33.880417 3.097412 33.800508T2.700533 33.512837L1.837519 32.612532Q2.023973 32.383461 2.221081 32.175698T2.695205 31.690919Q2.833714 31.552411 3.025495 31.349975Q3.084094 31.291375 3.105403 31.264739Q3.275875 31.094267 3.374429 31.025013T3.616819 30.939777Q3.627473 30.939777 3.664764 30.937114T3.726027 30.907814T3.75 30.827905Q3.75 30.77996 3.726027 30.745333T3.65411 30.710706Q3.590183 30.716033 3.499619 30.716033Q3.307839 30.726688 3.201294 30.726688H2.86035Q2.157154 31.509793 1.60312 32.149062Q1.432648 32.34617 1.256849 32.362152V31.349975Q1.262177 31.216794 1.280822 31.134222T1.374049 30.995713T1.60312 30.939777H1.635084Q1.688356 30.939777 1.709665 30.921132T1.736301 30.827905Q1.736301 30.77996 1.712329 30.745333T1.640411 30.710706Q1.299467 30.726688 0.979833 30.726688Q0.692161 30.726688 0.34589 30.710706Q0.297945 30.710706 0.273973 30.745333Z" fill="#da0a0a" />
<path d="M2.003656 29.174926C2.052402 29.355288 2.131006 29.488123 2.239467 29.573429S2.467967 29.701389 2.599582 29.701389C2.748259 29.701389 2.875609 29.650205 2.981633 29.547837S3.140669 29.322385 3.140669 29.178582C3.140669 29.046967 3.108374 28.912914 3.043785 28.776424S2.897545 28.508318 2.798834 28.381577S2.599582 28.127486 2.497214 27.999526S2.296745 27.725936 2.202907 27.562635S2.042653 27.237252 2.003656 27.076389C1.959784 27.244564 1.889711 27.413349 1.793437 27.582743S1.597841 27.902033 1.495474 28.03243C1.393106 28.162827 1.293176 28.290787 1.195682 28.416309S1.017758 28.667963 0.954387 28.794704S0.859331 29.042092 0.859331 29.156647C0.859331 29.310198 0.911125 29.439376 1.014711 29.544181C1.118297 29.648987 1.245648 29.701389 1.396762 29.701389C1.686803 29.701389 1.889103 29.525901 2.003656 29.174926Z" fill="#da0a0a" />
</svg>
