<svg width="500.000000" height="700.000000" id="card-realdiamond5">
<radialGradient id="card-realwhitegradient" cx="250.0" cy="350.0" r="500" gradientTransform="matrix(1 0 0 1 0 -.25)" gradientUnits="userSpaceOnUse">
<stop stop-color="#FDFAF4" offset=".15"/>
<stop stop-color="#FDF9F2" offset=".35"/>
<stop stop-color="#FCF7F1" offset=".5"/>
<stop stop-color="#FDFDF8" offset=".75"/>
<stop stop-color="#FFFDFA" offset="1"/>
</radialGradient>
<rect x="0" y="0" rx="25.0" ry="25.0" width="500" height="700.0" stroke="rgba(1,1,1,0.333)" fill="url(#card-realwhitegradient)" />
<path d="M150.139082 66.666667C147.913769 71.117293 142.535925 79.114511 134.005563 90.658322C125.475202 102.202133 118.613769 110.848447 113.421419 116.597126C119.911919 124.014831 126.889193 132.823412 134.353268 143.022717C141.817344 153.222063 147.079277 161.103384 150.139082 166.666667C157.000459 154.427446 169.14701 137.737599 186.578581 116.597126C168.68331 94.993092 156.536857 78.34956 150.139082 66.666667Z" fill="#da0a0a" />
<path d="M149.860918 633.333333C152.086231 628.882707 157.464075 620.885489 165.994437 609.341678C174.524798 597.797867 181.386231 589.151553 186.578581 583.402874C180.088081 575.985169 173.110807 567.176588 165.646732 556.977283C158.182656 546.777937 152.920723 538.896616 149.860918 533.333333C142.999541 545.572554 130.85299 562.262401 113.421419 583.402874C131.31669 605.006908 143.463143 621.65044 149.860918 633.333333Z" fill="#da0a0a" />
<path d="M350.139082 66.666667C347.913769 71.117293 342.535925 79.114511 334.005563 90.658322C325.475202 102.202133 318.613769 110.848447 313.421419 116.597126C319.911919 124.014831 326.889193 132.823412 334.353268 143.022717C341.817344 153.222063 347.079277 161.103384 350.139082 166.666667C357.000459 154.427446 369.14701 137.737599 386.578581 116.597126C368.68331 94.993092 356.536857 78.34956 350.139082 66.666667Z" fill="#da0a0a" />
<path d="M349.860918 633.333333C352.086231 628.882707 357.464075 620.885489 365.994437 609.341678C374.524798 597.797867 381.386231 589.151553 386.578581 583.402874C380.088081 575.985169 373.110807 567.176588 365.646732 556.977283C358.182656 546.777937 352.920723 538.896616 349.860918 533.333333C342.999541 545.572554 330.85299 562.262401 313.421419 583.402874C331.31669 605.006908 343.463143 621.65044 349.860918 633.333333Z" fill="#da0a0a" />
<path d="M250.139082 300.0C247.913769 304.450626 242.535925 312.447844 234.005563 323.991655C225.475202 335.535466 218.613769 344.18178 213.421419 349.930459C219.911919 357.348164 226.889193 366.156745 234.353268 376.35605C241.817344 386.555396 247.079277 394.436718 250.139082 400.0C257.000459 387.760779 269.14701 371.070932 286.578581 349.930459C268.68331 328.326426 256.536857 311.682893 250.139082 300.0Z" fill="#da0a0a" />
<path d="M478.277778 83.351333Q484.62963 79.851333 484.62963 72.462444Q484.62963 68.443926 482.231481 65.39763T475.814815 62.351333Q473.351852 62.351333 471.601852 63.64763T469.851852 65.851333Q469.851852 65.980963 471.018519 67.018T473.157407 69.545778T474.12963 72.980963Q474.12963 77.38837 470.953704 79.721704T462.074074 82.055037Q454.944444 82.055037 451.37963 76.999481T447.814815 63.777259Q447.814815 56.258741 451.444444 51.268T462.722222 46.277259Q466.222222 46.277259 468.75 47.379111T474.12963 50.555037Q475.814815 51.721704 476.916667 52.305037T479.055556 52.88837Q481.12963 52.88837 481.12963 49.258741L481.0 47.703185L476.981481 16.851333H441.333333Q439.518519 16.851333 438.416667 18.018T437.314815 21.258741Q437.314815 26.055037 442.240741 26.055037H471.018519L473.740741 44.073556Q468.037037 40.573556 459.740741 40.573556Q454.166667 40.573556 448.527778 43.036519T439.12963 50.555037T435.37037 63.129111T439.064815 76.027259T448.916667 84.129111T462.333333 86.851333Q471.925926 86.851333 478.277778 83.351333Z" fill="#da0a0a" />
<path d="M460.073018 105.972222C458.904729 108.308801 456.081361 112.50734 451.602921 118.567841C447.124481 124.628342 443.522229 129.167657 440.796245 132.185713C444.203758 136.080008 447.866826 140.704514 451.785466 146.059149C455.704105 151.413805 458.46662 155.551499 460.073018 158.472222C463.675241 152.046631 470.05218 143.284461 479.203755 132.185713C469.808738 120.843596 463.43185 112.105741 460.073018 105.972222Z" fill="#da0a0a" />
<path d="M21.722222 616.648667Q15.37037 620.148667 15.37037 627.537556Q15.37037 631.556074 17.768519 634.60237T24.185185 637.648667Q26.648148 637.648667 28.398148 636.35237T30.148148 634.148667Q30.148148 634.019037 28.981481 632.982T26.842593 630.454222T25.87037 627.019037Q25.87037 622.61163 29.046296 620.278296T37.925926 617.944963Q45.055556 617.944963 48.62037 623.000519T52.185185 636.222741Q52.185185 643.741259 48.555556 648.732T37.277778 653.722741Q33.777778 653.722741 31.25 652.620889T25.87037 649.444963Q24.185185 648.278296 23.083333 647.694963T20.944444 647.11163Q18.87037 647.11163 18.87037 650.741259L19.0 652.296815L23.018519 683.148667H58.666667Q60.481481 683.148667 61.583333 681.982T62.685185 678.741259Q62.685185 673.944963 57.759259 673.944963H28.981481L26.259259 655.926444Q31.962963 659.426444 40.259259 659.426444Q45.833333 659.426444 51.472222 656.963481T60.87037 649.444963T64.62963 636.870889T60.935185 623.972741T51.083333 615.870889T37.666667 613.148667Q28.074074 613.148667 21.722222 616.648667Z" fill="#da0a0a" />
<path d="M39.926982 594.027778C41.095271 591.691199 43.918639 587.49266 48.397079 581.432159C52.875519 575.371658 56.477771 570.832343 59.203755 567.814287C55.796242 563.919992 52.133174 559.295486 48.214534 553.940851C44.295895 548.586195 41.53338 544.448501 39.926982 541.527778C36.324759 547.953369 29.94782 556.715539 20.796245 567.814287C30.191262 579.156404 36.56815 587.894259 39.926982 594.027778Z" fill="#da0a0a" />
</svg>
