<svg width="500.000000" height="700.000000" id="card-realheart7">
<radialGradient id="card-realwhitegradient" cx="250.0" cy="350.0" r="500" gradientTransform="matrix(1 0 0 1 0 -.25)" gradientUnits="userSpaceOnUse">
<stop stop-color="#FDFAF4" offset=".15"/>
<stop stop-color="#FDF9F2" offset=".35"/>
<stop stop-color="#FCF7F1" offset=".5"/>
<stop stop-color="#FDFDF8" offset=".75"/>
<stop stop-color="#FFFDFA" offset="1"/>
</radialGradient>
<rect x="0" y="0" rx="25.0" ry="25.0" width="500" height="700.0" stroke="rgba(1,1,1,0.333)" fill="url(#card-realwhitegradient)" />
<path d="M149.860724 86.722377C148.003719 79.851444 145.00929 74.791082 140.877437 71.541318S132.172702 66.666667 127.158774 66.666667C121.494889 66.666667 116.643454 68.616527 112.604457 72.516249S106.545961 81.104926 106.545961 86.583101C106.545961 91.597029 107.77623 96.703812 110.236769 101.903435S115.807799 112.116987 119.568245 116.945218S127.158774 126.624884 131.058496 131.499536S138.695446 141.922001 142.270195 148.14299S148.375111 160.538533 149.860724 166.666667C151.532033 160.259981 154.20149 153.830079 157.869081 147.376973S165.320334 135.213561 169.220056 130.246054C173.119777 125.278547 176.926643 120.403895 180.640669 115.622098S187.41876 106.035288 189.832869 101.207057S193.454039 91.782725 193.454039 87.418756C193.454039 81.569174 191.480961 76.648101 187.534819 72.655525C183.588677 68.662948 178.737228 66.666667 172.980501 66.666667C161.931295 66.666667 154.224652 73.351903 149.860724 86.722377Z" fill="#da0a0a" />
<path d="M150.139276 613.277623C151.996281 620.148556 154.99071 625.208918 159.122563 628.458682S167.827298 633.333333 172.841226 633.333333C178.505111 633.333333 183.356546 631.383473 187.395543 627.483751S193.454039 618.895074 193.454039 613.416899C193.454039 608.402971 192.22377 603.296188 189.763231 598.096565S184.192201 587.883013 180.431755 583.054782S172.841226 573.375116 168.941504 568.500464S161.304554 558.077999 157.729805 551.85701S151.624889 539.461467 150.139276 533.333333C148.467967 539.740019 145.79851 546.169921 142.130919 552.623027S134.679666 564.786439 130.779944 569.753946C126.880223 574.721453 123.073357 579.596105 119.359331 584.377902S112.58124 593.964712 110.167131 598.792943S106.545961 608.217275 106.545961 612.581244C106.545961 618.430826 108.519039 623.351899 112.465181 627.344475C116.411323 631.337052 121.262772 633.333333 127.019499 633.333333C138.068705 633.333333 145.775348 626.648097 150.139276 613.277623Z" fill="#da0a0a" />
<path d="M149.860724 320.05571C148.003719 313.184777 145.00929 308.124415 140.877437 304.874652S132.172702 300.0 127.158774 300.0C121.494889 300.0 116.643454 301.949861 112.604457 305.849582S106.545961 314.438259 106.545961 319.916435C106.545961 324.930362 107.77623 330.037145 110.236769 335.236769S115.807799 345.45032 119.568245 350.278552S127.158774 359.958217 131.058496 364.832869S138.695446 375.255334 142.270195 381.476323S148.375111 393.871866 149.860724 400.0C151.532033 393.593315 154.20149 387.163412 157.869081 380.710306S165.320334 368.546894 169.220056 363.579387C173.119777 358.61188 176.926643 353.737228 180.640669 348.955432S187.41876 339.368621 189.832869 334.54039S193.454039 325.116058 193.454039 320.752089C193.454039 314.902507 191.480961 309.981435 187.534819 305.988858C183.588677 301.996281 178.737228 300.0 172.980501 300.0C161.931295 300.0 154.224652 306.685237 149.860724 320.05571Z" fill="#da0a0a" />
<path d="M349.860724 86.722377C348.003719 79.851444 345.00929 74.791082 340.877437 71.541318S332.172702 66.666667 327.158774 66.666667C321.494889 66.666667 316.643454 68.616527 312.604457 72.516249S306.545961 81.104926 306.545961 86.583101C306.545961 91.597029 307.77623 96.703812 310.236769 101.903435S315.807799 112.116987 319.568245 116.945218S327.158774 126.624884 331.058496 131.499536S338.695446 141.922001 342.270195 148.14299S348.375111 160.538533 349.860724 166.666667C351.532033 160.259981 354.20149 153.830079 357.869081 147.376973S365.320334 135.213561 369.220056 130.246054C373.119777 125.278547 376.926643 120.403895 380.640669 115.622098S387.41876 106.035288 389.832869 101.207057S393.454039 91.782725 393.454039 87.418756C393.454039 81.569174 391.480961 76.648101 387.534819 72.655525C383.588677 68.662948 378.737228 66.666667 372.980501 66.666667C361.931295 66.666667 354.224652 73.351903 349.860724 86.722377Z" fill="#da0a0a" />
<path d="M350.139276 613.277623C351.996281 620.148556 354.99071 625.208918 359.122563 628.458682S367.827298 633.333333 372.841226 633.333333C378.505111 633.333333 383.356546 631.383473 387.395543 627.483751S393.454039 618.895074 393.454039 613.416899C393.454039 608.402971 392.22377 603.296188 389.763231 598.096565S384.192201 587.883013 380.431755 583.054782S372.841226 573.375116 368.941504 568.500464S361.304554 558.077999 357.729805 551.85701S351.624889 539.461467 350.139276 533.333333C348.467967 539.740019 345.79851 546.169921 342.130919 552.623027S334.679666 564.786439 330.779944 569.753946C326.880223 574.721453 323.073357 579.596105 319.359331 584.377902S312.58124 593.964712 310.167131 598.792943S306.545961 608.217275 306.545961 612.581244C306.545961 618.430826 308.519039 623.351899 312.465181 627.344475C316.411323 631.337052 321.262772 633.333333 327.019499 633.333333C338.068705 633.333333 345.775348 626.648097 350.139276 613.277623Z" fill="#da0a0a" />
<path d="M349.860724 320.05571C348.003719 313.184777 345.00929 308.124415 340.877437 304.874652S332.172702 300.0 327.158774 300.0C321.494889 300.0 316.643454 301.949861 312.604457 305.849582S306.545961 314.438259 306.545961 319.916435C306.545961 324.930362 307.77623 330.037145 310.236769 335.236769S315.807799 345.45032 319.568245 350.278552S327.158774 359.958217 331.058496 364.832869S338.695446 375.255334 342.270195 381.476323S348.375111 393.871866 349.860724 400.0C351.532033 393.593315 354.20149 387.163412 357.869081 380.710306S365.320334 368.546894 369.220056 363.579387C373.119777 358.61188 376.926643 353.737228 380.640669 348.955432S387.41876 339.368621 389.832869 334.54039S393.454039 325.116058 393.454039 320.752089C393.454039 314.902507 391.480961 309.981435 387.534819 305.988858C383.588677 301.996281 378.737228 300.0 372.980501 300.0C361.931295 300.0 354.224652 306.685237 349.860724 320.05571Z" fill="#da0a0a" />
<path d="M249.860724 203.389044C248.003719 196.51811 245.00929 191.457748 240.877437 188.207985S232.172702 183.333333 227.158774 183.333333C221.494889 183.333333 216.643454 185.283194 212.604457 189.182916S206.545961 197.771592 206.545961 203.249768C206.545961 208.263695 207.77623 213.370478 210.236769 218.570102S215.807799 228.783654 219.568245 233.611885S227.158774 243.291551 231.058496 248.166202S238.695446 258.588668 242.270195 264.809656S248.375111 277.2052 249.860724 283.333333C251.532033 276.926648 254.20149 270.496746 257.869081 264.04364S265.320334 251.880227 269.220056 246.912721C273.119777 241.945214 276.926643 237.070562 280.640669 232.288765S287.41876 222.701955 289.832869 217.873723S293.454039 208.449392 293.454039 204.085422C293.454039 198.23584 291.480961 193.314768 287.534819 189.322191C283.588677 185.329615 278.737228 183.333333 272.980501 183.333333C261.931295 183.333333 254.224652 190.01857 249.860724 203.389044Z" fill="#da0a0a" />
<path d="M471.042435 85.366093Q472.333948 83.880854 472.333948 81.297828Q472.333948 75.615171 465.940959 62.764617T449.215867 31.316278L446.245387 26.021075H468.846863Q472.333948 26.021075 474.077491 26.53768T476.918819 28.991555T478.53321 35.061665Q478.791513 36.094876 479.372694 36.546905T481.50369 36.998935Q483.699262 36.998935 483.699262 34.803363L483.182657 19.692662Q483.182657 16.851333 479.437269 16.851333H440.046125Q436.300738 16.851333 436.300738 19.305208Q436.300738 21.242477 439.142066 26.021075Q443.920664 34.028455 447.98893 43.908529T456.964945 67.349488Q460.968635 78.327348 462.776753 82.718492Q464.714022 86.851333 468.071956 86.851333Q469.750923 86.851333 471.042435 85.366093Z" fill="#da0a0a" />
<path d="M459.92688 116.50147C458.951952 112.89423 457.379877 110.23754 455.210655 108.531414S450.640669 105.972222 448.008357 105.972222C445.034817 105.972222 442.487813 106.995899 440.36734 109.043253S437.18663 113.552308 437.18663 116.42835C437.18663 119.060662 437.832521 121.741723 439.124304 124.471526S442.049095 129.83364 444.023329 132.368462S448.008357 137.450286 450.05571 140.009478S454.065109 145.481273 455.941852 148.747292S459.146933 155.254952 459.92688 158.472222C460.804318 155.108712 462.205782 151.733014 464.131267 148.345133S468.043175 141.959342 470.090529 139.3514C472.137883 136.743459 474.136488 134.184267 476.086351 131.673824S479.644849 126.640748 480.912256 124.105927S482.81337 119.158153 482.81337 116.867069C482.81337 113.796038 481.777505 111.212475 479.70578 109.116373C477.634055 107.02027 475.087045 105.972222 472.064763 105.972222C466.26393 105.972222 462.217942 109.481972 459.92688 116.50147Z" fill="#da0a0a" />
<path d="M28.957565 614.633907Q27.666052 616.119146 27.666052 618.702172Q27.666052 624.384829 34.059041 637.235383T50.784133 668.683722L53.754613 673.978925H31.153137Q27.666052 673.978925 25.922509 673.46232T23.081181 671.008445T21.46679 664.938335Q21.208487 663.905124 20.627306 663.453095T18.49631 663.001065Q16.300738 663.001065 16.300738 665.196637L16.817343 680.307338Q16.817343 683.148667 20.562731 683.148667H59.953875Q63.699262 683.148667 63.699262 680.694792Q63.699262 678.757523 60.857934 673.978925Q56.079336 665.971545 52.01107 656.091471T43.035055 632.650512Q39.031365 621.672652 37.223247 617.281508Q35.285978 613.148667 31.928044 613.148667Q30.249077 613.148667 28.957565 614.633907Z" fill="#da0a0a" />
<path d="M40.07312 583.49853C41.048048 587.10577 42.620123 589.76246 44.789345 591.468586S49.359331 594.027778 51.991643 594.027778C54.965183 594.027778 57.512187 593.004101 59.63266 590.956747S62.81337 586.447692 62.81337 583.57165C62.81337 580.939338 62.167479 578.258277 60.875696 575.528474S57.950905 570.16636 55.976671 567.631538S51.991643 562.549714 49.94429 559.990522S45.934891 554.518727 44.058148 551.252708S40.853067 544.745048 40.07312 541.527778C39.195682 544.891288 37.794218 548.266986 35.868733 551.654867S31.956825 558.040658 29.909471 560.6486C27.862117 563.256541 25.863512 565.815733 23.913649 568.326176S20.355151 573.359252 19.087744 575.894073S17.18663 580.841847 17.18663 583.132931C17.18663 586.203962 18.222495 588.787525 20.29422 590.883627C22.365945 592.97973 24.912955 594.027778 27.935237 594.027778C33.73607 594.027778 37.782058 590.518028 40.07312 583.49853Z" fill="#da0a0a" />
</svg>
