<svg width="150.000000" height="210.000000" id="card-webspade13">
<radialGradient id="card-webwhitegradient" cx="75.0" cy="105.0" r="150" gradientTransform="matrix(1 0 0 1 0 -.25)" gradientUnits="userSpaceOnUse">
<stop stop-color="#FDFAF4" offset=".15"/>
<stop stop-color="#FDF9F2" offset=".35"/>
<stop stop-color="#FCF7F1" offset=".5"/>
<stop stop-color="#FDFDF8" offset=".75"/>
<stop stop-color="#FFFDFA" offset="1"/>
</radialGradient>
<rect x="0" y="0" rx="7.5" ry="7.5" width="150" height="210.0" stroke="rgba(1,1,1,0.333)" fill="url(#card-webwhitegradient)" />
<rect x="30.0" y="21.0" width="90.0" height="168.0" stroke="#010101" fill="#fffdfa" />
<path d="M60.06383 58.650922C60.858156 58.650922 61.893617 58.920426 63.170213 59.459433S65.836877 60.821135 67.340426 61.927518S70.134749 64.636735 71.212766 66.736028S72.829787 71.218301 72.829787 73.884965C72.829787 74.906241 73.567376 75.416879 75.042553 75.416879C76.574468 75.416879 77.340426 74.906241 77.340426 73.884965C77.340426 71.10482 77.865249 68.636735 78.914894 66.480709S81.255319 62.721841 82.787234 61.672199S85.709217 59.856599 86.957447 59.374326C88.205677 58.892056 89.255319 58.650922 90.106383 58.650922C92.432621 58.650922 94.276596 59.275035 95.638298 60.523262S97.680851 63.501986 97.680851 65.714752C97.680851 66.509078 97.255319 67.870777 96.404255 69.799858S94.163123 73.686386 92.234043 75.672199S88.177302 78.650922 85.851064 78.650922C83.638298 78.650922 80.06383 78.22539 75.12766 77.374326C70.134749 78.22539 66.531915 78.650922 64.319149 78.650922C62.560281 78.650922 60.87234 78.069362 59.255319 76.906241S56.375889 74.381416 55.468085 72.821135C54.560281 71.260854 53.836877 69.814045 53.297872 68.480709S52.489362 66.22539 52.489362 65.714752C52.489362 63.501986 53.170213 61.771492 54.531915 60.523262S57.737591 58.650922 60.06383 58.650922ZM70.787234 74.22539C70.730496 72.182837 70.404255 70.338862 69.808511 68.693475S68.503549 65.743118 67.680851 64.778582S65.93617 63.019713 64.914894 62.395603S63.0 61.34596 62.234043 61.119007S60.801421 60.778582 60.234043 60.778582C58.531915 60.778582 57.12766 61.218298 56.021277 62.09773S54.361702 64.182837 54.361702 65.714752C54.361702 66.168652 54.574468 66.934607 55.0 68.012624S56.049643 70.267943 56.87234 71.544539S58.87234 73.941705 60.404255 74.906241S63.638298 76.35305 65.510638 76.35305C69.028366 76.35305 70.787234 75.64383 70.787234 74.22539ZM62.446809 87.331773C62.446809 85.856599 66.617021 85.119007 74.957447 85.119007C78.702128 85.119007 81.75177 85.317588 84.106383 85.714752S87.638298 86.622556 87.638298 87.246667C87.638298 88.09773 86.87234 88.523262 85.340426 88.523262C85.170213 88.523262 83.496451 88.381418 80.319149 88.09773S75.382979 87.672199 75.042553 87.672199C74.87234 87.672199 73.212766 87.814043 70.06383 88.09773S65.170213 88.523262 64.829787 88.523262C63.241132 88.523262 62.446809 88.126099 62.446809 87.331773ZM81.851064 58.906241C81.851064 56.466522 81.595745 54.679288 81.085106 53.544539S79.241132 51.10482 77.085106 49.629645V47.672199L80.574468 45.544539V42.480709H77.425532L76.404255 39.331773H73.510638L72.404255 42.480709H69.340426V45.544539L72.744681 47.672199V49.629645C70.758868 50.934607 69.482272 52.16865 68.914894 53.331773S68.06383 56.35305 68.06383 58.906241C65.397166 56.750216 62.645387 55.672199 59.808511 55.672199C56.858153 55.672199 54.347515 56.636735 52.276596 58.565816S49.170213 62.906241 49.170213 65.799858C49.170213 68.126096 50.276596 70.821135 52.489362 73.884965C53.851064 75.757305 54.773047 77.10482 55.255319 77.927518S56.24823 80.16865 56.787234 82.182837S57.624113 86.594182 57.680851 89.374326C57.794326 93.232479 63.581557 95.16156 75.042553 95.16156C86.390043 95.16156 92.148936 93.232479 92.319149 89.374326C92.375887 86.480709 92.730496 83.91333 93.382979 81.672199S94.617021 77.91333 95.12766 77.119007S96.432621 75.218301 97.510638 73.799858C99.723404 70.792769 100.829787 68.126096 100.829787 65.799858C100.829787 62.962982 99.794323 60.565816 97.723404 58.608369C95.652485 56.650922 93.170213 55.672199 90.276596 55.672199C87.326238 55.672199 84.517728 56.750216 81.851064 58.906241ZM90.021277 60.778582C89.283688 60.778582 88.390068 60.991348 87.340426 61.416879C86.290783 61.842411 85.12766 62.523262 83.851064 63.459433S81.510638 65.814045 80.659574 67.714752S79.382979 71.814045 79.382979 74.310496C79.382979 75.672199 81.113472 76.35305 84.574468 76.35305C86.503549 76.35305 88.24823 75.87078 89.808511 74.906241S92.546102 72.792769 93.340426 71.459433S94.730494 68.948794 95.12766 67.927518S95.723404 66.16865 95.723404 65.714752C95.723404 64.182837 95.170213 62.97716 94.06383 62.09773S91.609932 60.778582 90.021277 60.778582Z" fill="#010101" />
<path d="M89.93617 151.349078C89.141844 151.349078 88.106383 151.079574 86.829787 150.540567S84.163123 149.178865 82.659574 148.072482S79.865251 145.363265 78.787234 143.263972S77.170213 138.781699 77.170213 136.115035C77.170213 135.093759 76.432624 134.583121 74.957447 134.583121C73.425532 134.583121 72.659574 135.093759 72.659574 136.115035C72.659574 138.89518 72.134751 141.363265 71.085106 143.519291S68.744681 147.278159 67.212766 148.327801S64.290783 150.143401 63.042553 150.625674C61.794323 151.107944 60.744681 151.349078 59.893617 151.349078C57.567379 151.349078 55.723404 150.724965 54.361702 149.476738S52.319149 146.498014 52.319149 144.285248C52.319149 143.490922 52.744681 142.129223 53.595745 140.200142S55.836877 136.313614 57.765957 134.327801S61.822698 131.349078 64.148936 131.349078C66.361702 131.349078 69.93617 131.77461 74.87234 132.625674C79.865251 131.77461 83.468085 131.349078 85.680851 131.349078C87.439719 131.349078 89.12766 131.930638 90.744681 133.093759S93.624111 135.618584 94.531915 137.178865C95.439719 138.739146 96.163123 140.185955 96.702128 141.519291S97.510638 143.77461 97.510638 144.285248C97.510638 146.498014 96.829787 148.228508 95.468085 149.476738S92.262409 151.349078 89.93617 151.349078ZM79.212766 135.77461C79.269504 137.817163 79.595745 139.661138 80.191489 141.306525S81.496451 144.256882 82.319149 145.221418S84.06383 146.980287 85.085106 147.604397S87.0 148.65404 87.765957 148.880993S89.198579 149.221418 89.765957 149.221418C91.468085 149.221418 92.87234 148.781702 93.978723 147.90227S95.638298 145.817163 95.638298 144.285248C95.638298 143.831348 95.425532 143.065393 95.0 141.987376S93.950357 139.732057 93.12766 138.455461S91.12766 136.058295 89.595745 135.093759S86.361702 133.64695 84.489362 133.64695C80.971634 133.64695 79.212766 134.35617 79.212766 135.77461ZM87.553191 122.668227C87.553191 124.143401 83.382979 124.880993 75.042553 124.880993C71.297872 124.880993 68.24823 124.682412 65.893617 124.285248S62.361702 123.377444 62.361702 122.753333C62.361702 121.90227 63.12766 121.476738 64.659574 121.476738C64.829787 121.476738 66.503549 121.618582 69.680851 121.90227S74.617021 122.327801 74.957447 122.327801C75.12766 122.327801 76.787234 122.185957 79.93617 121.90227S84.829787 121.476738 85.170213 121.476738C86.758868 121.476738 87.553191 121.873901 87.553191 122.668227ZM68.148936 151.093759C68.148936 153.533478 68.404255 155.320712 68.914894 156.455461S70.758868 158.89518 72.914894 160.370355V162.327801L69.425532 164.455461V167.519291H72.574468L73.595745 170.668227H76.489362L77.595745 167.519291H80.659574V164.455461L77.255319 162.327801V160.370355C79.241132 159.065393 80.517728 157.83135 81.085106 156.668227S81.93617 153.64695 81.93617 151.093759C84.602834 153.249784 87.354613 154.327801 90.191489 154.327801C93.141847 154.327801 95.652485 153.363265 97.723404 151.434184S100.829787 147.093759 100.829787 144.200142C100.829787 141.873904 99.723404 139.178865 97.510638 136.115035C96.148936 134.242695 95.226953 132.89518 94.744681 132.072482S93.75177 129.83135 93.212766 127.817163S92.375887 123.405818 92.319149 120.625674C92.205674 116.767521 86.418443 114.83844 74.957447 114.83844C63.609957 114.83844 57.851064 116.767521 57.680851 120.625674C57.624113 123.519291 57.269504 126.08667 56.617021 128.327801S55.382979 132.08667 54.87234 132.880993S53.567379 134.781699 52.489362 136.200142C50.276596 139.207231 49.170213 141.873904 49.170213 144.200142C49.170213 147.037018 50.205677 149.434184 52.276596 151.391631C54.347515 153.349078 56.829787 154.327801 59.723404 154.327801C62.673762 154.327801 65.482272 153.249784 68.148936 151.093759ZM59.978723 149.221418C60.716312 149.221418 61.609932 149.008652 62.659574 148.583121C63.709217 148.157589 64.87234 147.476738 66.148936 146.540567S68.489362 144.185955 69.340426 142.285248S70.617021 138.185955 70.617021 135.689504C70.617021 134.327801 68.886528 133.64695 65.425532 133.64695C63.496451 133.64695 61.75177 134.12922 60.191489 135.093759S57.453898 137.207231 56.659574 138.540567S55.269506 141.051206 54.87234 142.072482S54.276596 143.83135 54.276596 144.285248C54.276596 145.817163 54.829787 147.02284 55.93617 147.90227S58.390068 149.221418 59.978723 149.221418Z" fill="#010101" />
<path d="M148.356164 25.528003Q148.5 25.32024 148.5 25.032569Q148.468037 24.553117 148.308219 24.457226T147.700913 24.361336Q146.773973 24.361336 146.326484 24.02572T145.767123 23.194669T145.623288 21.900149V9.210651Q145.655251 8.411564 145.767123 7.916131T146.326484 7.08508T147.700913 6.749464H147.892694Q148.212329 6.749464 148.340183 6.637592T148.5 6.078231Q148.5 5.79056 148.356164 5.582797T147.924658 5.375035Q145.847032 5.470925 144.152968 5.470925Q142.23516 5.470925 140.157534 5.375035Q139.869863 5.375035 139.726027 5.582797T139.582192 6.078231Q139.614155 6.557683 139.773973 6.653574T140.381279 6.749464Q141.308219 6.749464 141.755708 7.08508T142.315068 7.916131T142.458904 9.210651V14.996039Q141.947489 14.900149 141.308219 14.45266T139.742009 13.206085Q137.952055 11.543984 135.23516 8.315674Q134.659817 7.676405 134.659817 7.292843Q134.659817 6.813391 135.522831 6.781427Q135.746575 6.749464 135.826484 6.605628T135.97032 6.110195Q135.97032 5.822523 135.810502 5.598779T135.394977 5.375035Q134.276256 5.470925 131.878995 5.470925Q131.111872 5.470925 129.641553 5.406998L128.97032 5.375035Q128.682648 5.375035 128.522831 5.582797T128.363014 6.110195Q128.394977 6.557683 128.554795 6.669555T129.002283 6.781427Q130.280822 6.7175 131.415525 7.196953T133.796804 8.92298L138.974886 14.324806Q137.856164 15.699236 136.673516 16.945811T133.828767 19.854487Q132.997717 20.685537 131.847032 21.900149Q131.495434 22.251747 131.36758 22.411564Q130.344749 23.434395 129.753425 23.849921T128.299087 24.361336Q128.23516 24.361336 128.011416 24.377318T127.643836 24.553117T127.5 25.032569Q127.5 25.32024 127.643836 25.528003T128.075342 25.735765Q128.458904 25.703802 129.002283 25.703802Q130.152968 25.639875 130.792237 25.639875H132.8379Q137.057078 20.941245 140.381279 17.105628Q141.40411 15.92298 142.458904 15.827089V21.900149Q142.426941 22.699236 142.315068 23.194669T141.755708 24.02572T140.381279 24.361336H140.189498Q139.869863 24.361336 139.742009 24.473208T139.582192 25.032569Q139.582192 25.32024 139.726027 25.528003T140.157534 25.735765Q142.203196 25.639875 144.121005 25.639875Q145.847032 25.639875 147.924658 25.735765Q148.212329 25.735765 148.356164 25.528003Z" fill="#010101" />
<path d="M137.631383 42.224645C137.556915 42.999114 137.370744 43.684219 137.072872 44.279965C136.775001 44.87571 136.462235 45.329965 136.134574 45.64273S135.393616 46.223582 134.894681 46.446986C134.395745 46.67039 134.012234 46.815603 133.744149 46.882624S133.148404 47.012943 132.76117 47.072518C132.701596 47.087411 132.656915 47.094858 132.627128 47.094858V47.541667H143.372872V47.094858C142.106914 46.871454 141.146276 46.543794 140.490957 46.111879C139.239894 45.277838 138.532446 43.982093 138.368617 42.224645C139.143086 43.416134 140.140957 44.011879 141.362234 44.011879C142.151595 44.011879 142.825532 43.736348 143.384043 43.185284S144.221809 41.964006 144.221809 41.174645C144.221809 40.504433 144.057979 39.893795 143.730319 39.34273C143.402659 38.791666 142.978191 38.289006 142.456915 37.834752S141.399469 36.907624 140.848404 36.416135C140.29734 35.924645 139.753723 35.280497 139.217553 34.483688S138.271809 32.78954 137.98883 31.791667C137.735639 32.774645 137.344682 33.660816 136.815957 34.450177S135.743617 35.879965 135.185106 36.371454S134.086701 37.339538 133.565426 37.801241S132.615957 38.769325 132.280851 39.32039S131.778191 40.489538 131.778191 41.174645C131.778191 41.964006 132.057447 42.634219 132.615957 43.185284S133.848405 44.011879 134.637766 44.011879C135.859043 44.011879 136.856914 43.416134 137.631383 42.224645Z" fill="#010101" />
<path d="M1.643836 184.471997Q1.5 184.67976 1.5 184.967431Q1.531963 185.446883 1.691781 185.542774T2.299087 185.638664Q3.226027 185.638664 3.673516 185.97428T4.232877 186.805331T4.376712 188.099851V200.789349Q4.344749 201.588436 4.232877 202.083869T3.673516 202.91492T2.299087 203.250536H2.107306Q1.787671 203.250536 1.659817 203.362408T1.5 203.921769Q1.5 204.20944 1.643836 204.417203T2.075342 204.624965Q4.152968 204.529075 5.847032 204.529075Q7.76484 204.529075 9.842466 204.624965Q10.130137 204.624965 10.273973 204.417203T10.417808 203.921769Q10.385845 203.442317 10.226027 203.346426T9.618721 203.250536Q8.691781 203.250536 8.244292 202.91492T7.684932 202.083869T7.541096 200.789349V195.003961Q8.052511 195.099851 8.691781 195.54734T10.257991 196.793915Q12.047945 198.456016 14.76484 201.684326Q15.340183 202.323595 15.340183 202.707157Q15.340183 203.186609 14.477169 203.218573Q14.253425 203.250536 14.173516 203.394372T14.02968 203.889805Q14.02968 204.177477 14.189498 204.401221T14.605023 204.624965Q15.723744 204.529075 18.121005 204.529075Q18.888128 204.529075 20.358447 204.593002L21.02968 204.624965Q21.317352 204.624965 21.477169 204.417203T21.636986 203.889805Q21.605023 203.442317 21.445205 203.330445T20.997717 203.218573Q19.719178 203.2825 18.584475 202.803047T16.203196 201.07702L11.025114 195.675194Q12.143836 194.300764 13.326484 193.054189T16.171233 190.145513Q17.002283 189.314463 18.152968 188.099851Q18.504566 187.748253 18.63242 187.588436Q19.655251 186.565605 20.246575 186.150079T21.700913 185.638664Q21.76484 185.638664 21.988584 185.622682T22.356164 185.446883T22.5 184.967431Q22.5 184.67976 22.356164 184.471997T21.924658 184.264235Q21.541096 184.296198 20.997717 184.296198Q19.847032 184.360125 19.207763 184.360125H17.1621Q12.942922 189.058755 9.618721 192.894372Q8.59589 194.07702 7.541096 194.172911V188.099851Q7.573059 187.300764 7.684932 186.805331T8.244292 185.97428T9.618721 185.638664H9.810502Q10.130137 185.638664 10.257991 185.526792T10.417808 184.967431Q10.417808 184.67976 10.273973 184.471997T9.842466 184.264235Q7.796804 184.360125 5.878995 184.360125Q4.152968 184.360125 2.075342 184.264235Q1.787671 184.264235 1.643836 184.471997Z" fill="#010101" />
<path d="M12.368617 167.775355C12.443085 167.000886 12.629256 166.315781 12.927128 165.720035C13.224999 165.12429 13.537765 164.670035 13.865426 164.35727S14.606384 163.776418 15.105319 163.553014C15.604255 163.32961 15.987766 163.184397 16.255851 163.117376S16.851596 162.987057 17.23883 162.927482C17.298404 162.912589 17.343085 162.905142 17.372872 162.905142V162.458333H6.627128V162.905142C7.893086 163.128546 8.853724 163.456206 9.509043 163.888121C10.760106 164.722162 11.467554 166.017907 11.631383 167.775355C10.856914 166.583866 9.859043 165.988121 8.637766 165.988121C7.848405 165.988121 7.174468 166.263652 6.615957 166.814716S5.778191 168.035994 5.778191 168.825355C5.778191 169.495567 5.942021 170.106205 6.269681 170.65727C6.597341 171.208334 7.021809 171.710994 7.543085 172.165248S8.600531 173.092376 9.151596 173.583865C9.70266 174.075355 10.246277 174.719503 10.782447 175.516312S11.728191 177.21046 12.01117 178.208333C12.264361 177.225355 12.655318 176.339184 13.184043 175.549823S14.256383 174.120035 14.814894 173.628546S15.913299 172.660462 16.434574 172.198759S17.384043 171.230675 17.719149 170.67961S18.221809 169.510462 18.221809 168.825355C18.221809 168.035994 17.942553 167.365781 17.384043 166.814716S16.151595 165.988121 15.362234 165.988121C14.140957 165.988121 13.143086 166.583866 12.368617 167.775355Z" fill="#010101" />
</svg>
