<svg width="500.000000" height="700.000000" id="card-realheart13">
<radialGradient id="card-realwhitegradient" cx="250.0" cy="350.0" r="500" gradientTransform="matrix(1 0 0 1 0 -.25)" gradientUnits="userSpaceOnUse">
<stop stop-color="#FDFAF4" offset=".15"/>
<stop stop-color="#FDF9F2" offset=".35"/>
<stop stop-color="#FCF7F1" offset=".5"/>
<stop stop-color="#FDFDF8" offset=".75"/>
<stop stop-color="#FFFDFA" offset="1"/>
</radialGradient>
<rect x="0" y="0" rx="25.0" ry="25.0" width="500" height="700.0" stroke="rgba(1,1,1,0.333)" fill="url(#card-realwhitegradient)" />
<rect x="100.0" y="70.0" width="300.0" height="560.0" stroke="#010101" fill="#fffdfa" />
<path d="M201.114206 196.021851C203.714019 196.021851 207.103064 196.903932 211.281337 198.66809S220.009276 203.124915 224.930362 206.746085S234.076128 215.613299 237.604457 222.484246S242.896936 237.154636 242.896936 245.882575C242.896936 249.225193 245.31105 250.896503 250.139276 250.896503C255.153203 250.896503 257.660167 249.225193 257.660167 245.882575C257.660167 236.783216 259.377903 228.705221 262.81337 221.648592S270.473538 209.34589 275.487465 205.91043S285.051058 199.968007 289.13649 198.389539C293.221922 196.811079 296.657382 196.021851 299.442897 196.021851C307.05663 196.021851 313.091922 198.064561 317.548747 202.149985S324.233983 211.899288 324.233983 219.141628C324.233983 221.741441 322.841226 226.198258 320.05571 232.512102S312.720529 245.232631 306.406685 251.732157S293.129053 261.481461 285.51532 261.481461C278.272981 261.481461 266.573816 260.088703 250.417827 257.303188C234.076128 260.088703 222.284123 261.481461 215.041783 261.481461C209.285042 261.481461 203.760446 259.578026 198.467967 255.771154S189.043649 247.50745 186.072423 242.400681C183.101198 237.293912 180.73351 232.558536 178.969359 228.194553S176.32312 220.812937 176.32312 219.141628C176.32312 211.899288 178.551532 206.235416 183.008357 202.149985S193.500474 196.021851 201.114206 196.021851ZM236.211699 246.996781C236.025998 240.311544 234.958217 234.276252 233.008357 228.890932S228.737242 219.234469 226.044568 216.077561S220.334262 210.32082 216.991643 208.278118S210.724234 204.842659 208.21727 204.099845S203.528329 202.985639 201.671309 202.985639C196.100279 202.985639 191.504178 204.424823 187.883008 207.303188S182.451253 214.1277 182.451253 219.141628C182.451253 220.627235 183.147632 223.134191 184.54039 226.662519S187.97585 234.044135 190.668524 238.222408S197.214485 246.068285 202.228412 249.225193S212.81337 253.960569 218.941504 253.960569C230.454958 253.960569 236.211699 251.639308 236.211699 246.996781ZM208.913649 289.893717C208.913649 285.0655 222.562674 282.651377 249.860724 282.651377C262.116992 282.651377 272.098412 283.30133 279.805014 284.601238S291.364903 287.572464 291.364903 289.615166C291.364903 292.400681 288.857939 293.793439 283.844011 293.793439C283.286908 293.793439 277.808719 293.329185 267.409471 292.400681S251.253482 291.007923 250.139276 291.007923C249.582173 291.007923 244.150418 291.472177 233.844011 292.400681S217.827298 293.793439 216.713092 293.793439C211.513454 293.793439 208.913649 292.49353 208.913649 289.893717ZM272.423398 196.857505C272.423398 188.872352 271.587744 183.02277 269.916435 179.308759S263.881142 171.323606 256.824513 166.495388V160.088703L268.245125 153.124915V143.09706H257.938719L254.5961 132.790653H245.125348L241.504178 143.09706H231.476323V153.124915L242.618384 160.088703V166.495388C236.118858 170.766503 231.940585 174.8055 230.083565 178.61238S227.29805 188.500959 227.29805 196.857505C218.570111 189.800876 209.563593 186.272547 200.278552 186.272547C190.622089 186.272547 182.404819 189.429455 175.626741 195.743299S165.45961 209.949427 165.45961 219.42018C165.45961 227.033912 169.08078 235.85472 176.32312 245.882575C180.779944 252.010709 183.797577 256.421099 185.376045 259.113773S188.625822 266.448954 190.389972 273.041349S193.129061 287.479595 193.314763 296.578954C193.686164 309.206614 212.62766 315.520458 250.139276 315.520458C287.279387 315.520458 306.128134 309.206614 306.685237 296.578954C306.870938 287.108202 308.031568 278.705221 310.167131 271.37004S314.206128 259.067338 315.877437 256.467533S320.148552 250.246558 323.67688 245.604024C330.91922 235.761879 334.54039 227.033912 334.54039 219.42018C334.54039 210.135138 331.151337 202.28926 324.373259 195.882575C317.595181 189.47589 309.470752 186.272547 300.0 186.272547C290.343538 186.272547 281.151337 189.800876 272.423398 196.857505ZM299.164345 202.985639C296.750231 202.985639 293.825432 203.682018 290.389972 205.074776C286.954513 206.467533 283.147632 208.695946 278.969359 211.760012S271.309192 219.466614 268.523677 225.687589S264.345404 239.104497 264.345404 247.275333C264.345404 251.732157 270.009276 253.960569 281.337047 253.960569C287.650891 253.960569 293.361198 252.38211 298.467967 249.225193S307.42805 242.30784 310.027855 237.943856S314.577521 229.726586 315.877437 226.383968S317.827298 220.627227 317.827298 219.141628C317.827298 214.1277 316.016713 210.181544 312.395543 207.303188S304.363983 202.985639 299.164345 202.985639Z" fill="#da0a0a" />
<path d="M298.885794 503.978149C296.285981 503.978149 292.896936 503.096068 288.718663 501.33191S279.990724 496.875085 275.069638 493.253915S265.923872 484.386701 262.395543 477.515754S257.103064 462.845364 257.103064 454.117425C257.103064 450.774807 254.68895 449.103497 249.860724 449.103497C244.846797 449.103497 242.339833 450.774807 242.339833 454.117425C242.339833 463.216784 240.622097 471.294779 237.18663 478.351408S229.526462 490.65411 224.512535 494.08957S214.948942 500.031993 210.86351 501.610461C206.778078 503.188921 203.342618 503.978149 200.557103 503.978149C192.94337 503.978149 186.908078 501.935439 182.451253 497.850015S175.766017 488.100712 175.766017 480.858372C175.766017 478.258559 177.158774 473.801742 179.94429 467.487898S187.279471 454.767369 193.593315 448.267843S206.870947 438.518539 214.48468 438.518539C221.727019 438.518539 233.426184 439.911297 249.582173 442.696812C265.923872 439.911297 277.715877 438.518539 284.958217 438.518539C290.714958 438.518539 296.239554 440.421974 301.532033 444.228846S310.956351 452.49255 313.927577 457.599319C316.898802 462.706088 319.26649 467.441464 321.030641 471.805447S323.67688 479.187063 323.67688 480.858372C323.67688 488.100712 321.448468 493.764584 316.991643 497.850015S306.499526 503.978149 298.885794 503.978149ZM263.788301 453.003219C263.974002 459.688456 265.041783 465.723748 266.991643 471.109068S271.262758 480.765531 273.955432 483.922439S279.665738 489.67918 283.008357 491.721882S289.275766 495.157341 291.78273 495.900155S296.471671 497.014361 298.328691 497.014361C303.899721 497.014361 308.495822 495.575177 312.116992 492.696812S317.548747 485.8723 317.548747 480.858372C317.548747 479.372765 316.852368 476.865809 315.45961 473.337481S312.02415 465.955865 309.331476 461.777592S302.785515 453.931715 297.771588 450.774807S287.18663 446.039431 281.058496 446.039431C269.545042 446.039431 263.788301 448.360692 263.788301 453.003219ZM291.086351 410.106283C291.086351 414.9345 277.437326 417.348623 250.139276 417.348623C237.883008 417.348623 227.901588 416.69867 220.194986 415.398762S208.635097 412.427536 208.635097 410.384834C208.635097 407.599319 211.142061 406.206561 216.155989 406.206561C216.713092 406.206561 222.191281 406.670815 232.590529 407.599319S248.746518 408.992077 249.860724 408.992077C250.417827 408.992077 255.849582 408.527823 266.155989 407.599319S282.172702 406.206561 283.286908 406.206561C288.486546 406.206561 291.086351 407.50647 291.086351 410.106283ZM227.576602 503.142495C227.576602 511.127648 228.412256 516.97723 230.083565 520.691241S236.118858 528.676394 243.175487 533.504612V539.911297L231.754875 546.875085V556.90294H242.061281L245.4039 567.209347H254.874652L258.495822 556.90294H268.523677V546.875085L257.381616 539.911297V533.504612C263.881142 529.233497 268.059415 525.1945 269.916435 521.38762S272.70195 511.499041 272.70195 503.142495C281.429889 510.199124 290.436407 513.727453 299.721448 513.727453C309.377911 513.727453 317.595181 510.570545 324.373259 504.256701S334.54039 490.050573 334.54039 480.57982C334.54039 472.966088 330.91922 464.14528 323.67688 454.117425C319.220056 447.989291 316.202423 443.578901 314.623955 440.886227S311.374178 433.551046 309.610028 426.958651S306.870939 412.520405 306.685237 403.421046C306.313836 390.793386 287.37234 384.479542 249.860724 384.479542C212.720613 384.479542 193.871866 390.793386 193.314763 403.421046C193.129062 412.891798 191.968432 421.294779 189.832869 428.62996S185.793872 440.932662 184.122563 443.532467S179.851448 449.753442 176.32312 454.395976C169.08078 464.238121 165.45961 472.966088 165.45961 480.57982C165.45961 489.864862 168.848663 497.71074 175.626741 504.117425C182.404819 510.52411 190.529248 513.727453 200.0 513.727453C209.656462 513.727453 218.848663 510.199124 227.576602 503.142495ZM200.835655 497.014361C203.249769 497.014361 206.174568 496.317982 209.610028 494.925224C213.045487 493.532467 216.852368 491.304054 221.030641 488.239988S228.690808 480.533386 231.476323 474.312411S235.654596 460.895503 235.654596 452.724667C235.654596 448.267843 229.990724 446.039431 218.662953 446.039431C212.349109 446.039431 206.638802 447.61789 201.532033 450.774807S192.57195 457.69216 189.972145 462.056144S185.422479 470.273414 184.122563 473.616032S182.172702 479.372773 182.172702 480.858372C182.172702 485.8723 183.983287 489.818456 187.604457 492.696812S195.636017 497.014361 200.835655 497.014361Z" fill="#da0a0a" />
<path d="M494.520548 85.093342Q495.0 84.400801 495.0 83.441896Q494.893455 81.843723 494.360731 81.524088T492.336377 81.204454Q489.246575 81.204454 487.754947 80.085732T485.890411 77.315565T485.410959 73.000496V30.70217Q485.517504 28.038548 485.890411 26.387102T487.754947 23.616935T492.336377 22.498213H492.975647Q494.041096 22.498213 494.467275 22.125306T495.0 20.26077Q495.0 19.301866 494.520548 18.609324T493.082192 17.916782Q486.156773 18.236417 480.509893 18.236417Q474.117199 18.236417 467.191781 17.916782Q466.232877 17.916782 465.753425 18.609324T465.273973 20.26077Q465.380518 21.858944 465.913242 22.178578T467.937595 22.498213Q471.027397 22.498213 472.519026 23.616935T474.383562 26.387102T474.863014 30.70217V49.986798Q473.158295 49.667163 471.027397 48.175534T465.806697 44.020283Q459.840183 38.479948 450.783866 27.718913Q448.866058 25.588015 448.866058 24.309476Q448.866058 22.711303 451.74277 22.604758Q452.488584 22.498213 452.754947 22.018761T453.234399 20.367315Q453.234399 19.408411 452.701674 18.662597T451.316591 17.916782Q447.587519 18.236417 439.596651 18.236417Q437.039574 18.236417 432.138508 18.023327L429.901065 17.916782Q428.942161 17.916782 428.409437 18.609324T427.876712 20.367315Q427.983257 21.858944 428.515982 22.231851T430.00761 22.604758Q434.269406 22.391668 438.05175 23.989842T445.989346 29.743266L463.249619 47.749355Q459.520548 52.330785 455.578387 56.486037T446.09589 66.181623Q443.325723 68.95179 439.490107 73.000496Q438.318113 74.17249 437.891933 74.705215Q434.482496 78.114651 432.511416 79.499735T427.663623 81.204454Q427.450533 81.204454 426.704718 81.257726T425.479452 81.843723T425.0 83.441896Q425.0 84.400801 425.479452 85.093342T426.917808 85.785884Q428.196347 85.679339 430.00761 85.679339Q433.843227 85.46625 435.974125 85.46625H442.792998Q456.856925 69.804149 467.937595 57.018761Q471.347032 53.0766 474.863014 52.756965V73.000496Q474.756469 75.664119 474.383562 77.315565T472.519026 80.085732T467.937595 81.204454H467.298326Q466.232877 81.204454 465.806697 81.577361T465.273973 83.441896Q465.273973 84.400801 465.753425 85.093342T467.191781 85.785884Q474.010654 85.46625 480.403349 85.46625Q486.156773 85.46625 493.082192 85.785884Q494.041096 85.785884 494.520548 85.093342Z" fill="#da0a0a" />
<path d="M459.92688 116.50147C458.951952 112.89423 457.379877 110.23754 455.210655 108.531414S450.640669 105.972222 448.008357 105.972222C445.034817 105.972222 442.487813 106.995899 440.36734 109.043253S437.18663 113.552308 437.18663 116.42835C437.18663 119.060662 437.832521 121.741723 439.124304 124.471526S442.049095 129.83364 444.023329 132.368462S448.008357 137.450286 450.05571 140.009478S454.065109 145.481273 455.941852 148.747292S459.146933 155.254952 459.92688 158.472222C460.804318 155.108712 462.205782 151.733014 464.131267 148.345133S468.043175 141.959342 470.090529 139.3514C472.137883 136.743459 474.136488 134.184267 476.086351 131.673824S479.644849 126.640748 480.912256 124.105927S482.81337 119.158153 482.81337 116.867069C482.81337 113.796038 481.777505 111.212475 479.70578 109.116373C477.634055 107.02027 475.087045 105.972222 472.064763 105.972222C466.26393 105.972222 462.217942 109.481972 459.92688 116.50147Z" fill="#da0a0a" />
<path d="M5.479452 614.906658Q5.0 615.599199 5.0 616.558104Q5.106545 618.156277 5.639269 618.475912T7.663623 618.795546Q10.753425 618.795546 12.245053 619.914268T14.109589 622.684435T14.589041 626.999504V669.29783Q14.482496 671.961452 14.109589 673.612898T12.245053 676.383065T7.663623 677.501787H7.024353Q5.958904 677.501787 5.532725 677.874694T5.0 679.73923Q5.0 680.698134 5.479452 681.390676T6.917808 682.083218Q13.843227 681.763583 19.490107 681.763583Q25.882801 681.763583 32.808219 682.083218Q33.767123 682.083218 34.246575 681.390676T34.726027 679.73923Q34.619482 678.141056 34.086758 677.821422T32.062405 677.501787Q28.972603 677.501787 27.480974 676.383065T25.616438 673.612898T25.136986 669.29783V650.013202Q26.841705 650.332837 28.972603 651.824466T34.193303 655.979717Q40.159817 661.520052 49.216134 672.281087Q51.133942 674.411985 51.133942 675.690524Q51.133942 677.288697 48.25723 677.395242Q47.511416 677.501787 47.245053 677.981239T46.765601 679.632685Q46.765601 680.591589 47.298326 681.337403T48.683409 682.083218Q52.412481 681.763583 60.403349 681.763583Q62.960426 681.763583 67.861492 681.976673L70.098935 682.083218Q71.057839 682.083218 71.590563 681.390676T72.123288 679.632685Q72.016743 678.141056 71.484018 677.768149T69.99239 677.395242Q65.730594 677.608332 61.94825 676.010158T54.010654 670.256734L36.750381 652.250645Q40.479452 647.669215 44.421613 643.513963T53.90411 633.818377Q56.674277 631.04821 60.509893 626.999504Q61.681887 625.82751 62.108067 625.294785Q65.517504 621.885349 67.488584 620.500265T72.336377 618.795546Q72.549467 618.795546 73.295282 618.742274T74.520548 618.156277T75.0 616.558104Q75.0 615.599199 74.520548 614.906658T73.082192 614.214116Q71.803653 614.320661 69.99239 614.320661Q66.156773 614.53375 64.025875 614.53375H57.207002Q43.143075 630.195851 32.062405 642.981239Q28.652968 646.9234 25.136986 647.243035V626.999504Q25.243531 624.335881 25.616438 622.684435T27.480974 619.914268T32.062405 618.795546H32.701674Q33.767123 618.795546 34.193303 618.422639T34.726027 616.558104Q34.726027 615.599199 34.246575 614.906658T32.808219 614.214116Q25.989346 614.53375 19.596651 614.53375Q13.843227 614.53375 6.917808 614.214116Q5.958904 614.214116 5.479452 614.906658Z" fill="#da0a0a" />
<path d="M40.07312 583.49853C41.048048 587.10577 42.620123 589.76246 44.789345 591.468586S49.359331 594.027778 51.991643 594.027778C54.965183 594.027778 57.512187 593.004101 59.63266 590.956747S62.81337 586.447692 62.81337 583.57165C62.81337 580.939338 62.167479 578.258277 60.875696 575.528474S57.950905 570.16636 55.976671 567.631538S51.991643 562.549714 49.94429 559.990522S45.934891 554.518727 44.058148 551.252708S40.853067 544.745048 40.07312 541.527778C39.195682 544.891288 37.794218 548.266986 35.868733 551.654867S31.956825 558.040658 29.909471 560.6486C27.862117 563.256541 25.863512 565.815733 23.913649 568.326176S20.355151 573.359252 19.087744 575.894073S17.18663 580.841847 17.18663 583.132931C17.18663 586.203962 18.222495 588.787525 20.29422 590.883627C22.365945 592.97973 24.912955 594.027778 27.935237 594.027778C33.73607 594.027778 37.782058 590.518028 40.07312 583.49853Z" fill="#da0a0a" />
</svg>
