<svg width="500.000000" height="700.000000" id="card-realdiamond1">
<radialGradient id="card-realwhitegradient" cx="250.0" cy="350.0" r="500" gradientTransform="matrix(1 0 0 1 0 -.25)" gradientUnits="userSpaceOnUse">
<stop stop-color="#FDFAF4" offset=".15"/>
<stop stop-color="#FDF9F2" offset=".35"/>
<stop stop-color="#FCF7F1" offset=".5"/>
<stop stop-color="#FDFDF8" offset=".75"/>
<stop stop-color="#FFFDFA" offset="1"/>
</radialGradient>
<rect x="0" y="0" rx="25.0" ry="25.0" width="500" height="700.0" fill="url(#card-realwhitegradient)" />
<path d="M250.0 250.0L209.109875 294.784423L250.0 336.230876L291.446453 294.784423ZM150.69541 349.30459L195.201669 391.8637L236.648122 349.30459L195.201669 307.858136ZM250.0 450.0L291.446453 404.381085L250.0 362.656467L207.997218 404.381085ZM349.30459 349.30459L305.076495 307.858136L263.630042 349.30459L305.076495 390.472879Z" fill="#da0a0a" />
<path d="M494.530551 110.482696Q495.0 109.804603 495.0 108.865706Q494.895678 107.300878 494.374069 106.987912T493.122206 106.674946H492.183308Q489.053651 106.674946 487.593145 105.057957T485.245902 101.40669T484.0462 98.642159L465.789866 55.45289Q465.163934 53.888061 465.163934 52.949164Q465.163934 51.071369 466.624441 50.236794T470.692996 48.880609Q472.466468 48.567644 472.883756 48.254678T473.301043 46.481205Q473.301043 45.229343 472.622951 44.812055T470.484352 44.394767Q465.268256 44.394767 462.19076 45.177182T456.818182 48.306839T452.540984 55.45289L435.014903 98.642159Q433.450075 102.606392 431.989568 104.588508T427.608048 106.674946H426.982116Q425.938897 106.674946 425.52161 107.040073T425.0 108.865706Q425.0 109.804603 425.469449 110.482696T426.877794 111.160788Q433.554396 110.847822 438.353204 110.847822Q444.612519 110.847822 451.289121 111.160788Q452.228018 111.160788 452.697466 110.482696T453.166915 108.865706Q453.062593 107.4052 452.645306 107.040073T451.184799 106.674946Q447.637854 106.674946 446.177347 105.996854T444.716841 103.545289Q444.716841 102.189104 445.968703 98.642159L449.515648 89.983441H475.283159Q477.891207 96.451399 478.256334 97.494618T478.621461 98.642159Q479.873323 102.606392 479.873323 103.753933Q479.873323 105.527405 478.308495 106.101176T472.362146 106.674946H471.736215Q470.692996 106.674946 470.275708 107.040073T469.754098 108.865706Q469.754098 109.804603 470.223547 110.482696T471.631893 111.160788Q478.308495 110.847822 483.002981 110.847822Q486.341282 110.847822 493.122206 111.160788Q494.061103 111.160788 494.530551 110.482696ZM473.301043 85.497599H451.393443L461.929955 58.686869H462.242921Z" fill="#da0a0a" />
<path d="M460.064904 132.222456C459.026435 134.299394 456.5168 138.031391 452.536004 143.418449C448.555209 148.805507 445.353239 152.840413 442.930166 155.523103C445.959036 158.984665 449.215065 163.095295 452.698265 167.854923C456.181465 172.61457 458.637009 176.292483 460.064904 178.888656C463.266848 173.177076 468.935182 165.388559 477.069834 155.523103C468.718791 145.441322 463.050503 137.674418 460.064904 132.222456Z" fill="#da0a0a" />
<path d="M5.469449 589.517304Q5.0 590.195397 5.0 591.134294Q5.104322 592.699122 5.625931 593.012088T6.877794 593.325054H7.816692Q10.946349 593.325054 12.406855 594.942043T14.754098 598.59331T15.9538 601.357841L34.210134 644.54711Q34.836066 646.111939 34.836066 647.050836Q34.836066 648.928631 33.375559 649.763206T29.307004 651.119391Q27.533532 651.432356 27.116244 651.745322T26.698957 653.518795Q26.698957 654.770657 27.377049 655.187945T29.515648 655.605233Q34.731744 655.605233 37.80924 654.822818T43.181818 651.693161T47.459016 644.54711L64.985097 601.357841Q66.549925 597.393608 68.010432 595.411492T72.391952 593.325054H73.017884Q74.061103 593.325054 74.47839 592.959927T75.0 591.134294Q75.0 590.195397 74.530551 589.517304T73.122206 588.839212Q66.445604 589.152178 61.646796 589.152178Q55.387481 589.152178 48.710879 588.839212Q47.771982 588.839212 47.302534 589.517304T46.833085 591.134294Q46.937407 592.5948 47.354694 592.959927T48.815201 593.325054Q52.362146 593.325054 53.822653 594.003146T55.283159 596.454711Q55.283159 597.810896 54.031297 601.357841L50.484352 610.016559H24.716841Q22.108793 603.548601 21.743666 602.505382T21.378539 601.357841Q20.126677 597.393608 20.126677 596.246067Q20.126677 594.472595 21.691505 593.898824T27.637854 593.325054H28.263785Q29.307004 593.325054 29.724292 592.959927T30.245902 591.134294Q30.245902 590.195397 29.776453 589.517304T28.368107 588.839212Q21.691505 589.152178 16.997019 589.152178Q13.658718 589.152178 6.877794 588.839212Q5.938897 588.839212 5.469449 589.517304ZM26.698957 614.502401H48.606557L38.070045 641.313131H37.757079Z" fill="#da0a0a" />
<path d="M39.935096 567.777544C40.973565 565.700606 43.4832 561.968609 47.463996 556.581551C51.444791 551.194493 54.646761 547.159587 57.069834 544.476897C54.040964 541.015335 50.784935 536.904705 47.301735 532.145077C43.818535 527.38543 41.362991 523.707517 39.935096 521.111344C36.733152 526.822924 31.064818 534.611441 22.930166 544.476897C31.281209 554.558678 36.949497 562.325582 39.935096 567.777544Z" fill="#da0a0a" />
</svg>
