<svg width="150.000000" height="210.000000" id="card-webspade1">
<radialGradient id="card-webwhitegradient" cx="75.0" cy="105.0" r="150" gradientTransform="matrix(1 0 0 1 0 -.25)" gradientUnits="userSpaceOnUse">
<stop stop-color="#FDFAF4" offset=".15"/>
<stop stop-color="#FDF9F2" offset=".35"/>
<stop stop-color="#FCF7F1" offset=".5"/>
<stop stop-color="#FDFDF8" offset=".75"/>
<stop stop-color="#FFFDFA" offset="1"/>
</radialGradient>
<rect x="0" y="0" rx="7.5" ry="7.5" width="150" height="210.0" stroke="rgba(1,1,1,0.333)" fill="url(#card-webwhitegradient)" />
<path d="M107.255319 108.617021C107.255319 107.822695 107.0 107.170213 106.489362 106.659574S105.297872 105.893617 104.446809 105.893617C103.368791 105.893617 102.489362 106.432624 101.808511 107.510638C102.205674 108.702128 102.404255 109.609932 102.404255 110.234043C102.404255 111.595745 101.950355 112.730494 101.042553 113.638298S99.0 115.0 97.638298 115.0C95.652485 115.0 94.092196 114.06383 92.957447 112.191489C92.390071 111.340426 91.907804 108.886528 91.510638 104.829787S90.262409 97.75177 88.957447 95.765957C87.765957 94.007089 86.163123 92.588655 84.148936 91.510638C82.134749 90.432621 80.078017 89.893617 77.978723 89.893617C75.652485 89.893617 73.638298 90.631206 71.93617 92.106383C70.234043 93.581557 69.382979 95.368791 69.382979 97.468085C69.382979 98.94326 69.865249 100.787234 70.829787 103.0C67.652485 100.390068 64.560281 99.085106 61.553191 99.085106H60.87234C60.304964 97.836877 59.468085 96.702128 58.361702 95.680851S56.205677 93.87943 55.212766 93.340426S53.340426 92.12057 52.574468 91.297872C51.808511 90.475177 51.425532 89.553191 51.425532 88.531915S51.964539 86.631209 53.042553 85.893617H52.191489C50.432621 85.893617 49.014187 86.375887 47.93617 87.340426S46.319149 89.553191 46.319149 91.085106S46.829787 93.794323 47.851064 94.617021S50.035464 95.921983 51.340426 96.06383S53.964536 96.51773 55.297872 97.0S57.524826 98.177302 57.978723 99.085106C54.517728 99.652483 51.453898 101.212766 48.787234 103.765957S44.730494 109.042553 44.617021 111.93617C43.595745 113.014187 42.971634 114.375889 42.744681 116.021277H44.617021C44.900709 118.347515 45.709217 120.205677 47.042553 121.595745S50.06383 123.680851 52.106383 123.680851C53.75177 123.680851 55.028366 123.241134 55.93617 122.361702S57.297872 120.24823 57.297872 118.659574C57.297872 117.978723 57.241135 117.099294 57.12766 116.021277C55.87943 117.099294 54.631209 117.638298 53.382979 117.638298C51.113472 117.638298 49.695038 116.418443 49.12766 113.978723C52.645387 112.503549 55.482272 110.588655 57.638298 108.234043S60.87234 103.482272 60.87234 101.042553V100.87234C62.744681 100.929078 64.460996 101.397163 66.021277 102.276596C67.581557 103.156026 68.673762 104.24823 69.297872 105.553191C67.198579 106.68794 65.75177 107.780145 64.957447 108.829787C64.163121 109.87943 63.765957 111.226953 63.765957 112.87234C63.765957 115.992911 65.31206 118.645387 68.404255 120.829787C71.496451 123.014187 75.226953 124.106383 79.595745 124.106383C83.113472 124.106383 87.099294 123.156026 91.553191 121.255319C96.007089 119.354613 99.737591 117.1844 102.744681 114.744681C105.75177 112.304962 107.255319 110.262409 107.255319 108.617021ZM48.787234 110.744681V110.404255C48.787234 108.021277 49.808511 105.851064 51.851064 103.893617S56.163123 100.929081 58.659574 100.87234C58.773049 101.553191 58.829787 101.950357 58.829787 102.06383C58.829787 103.539004 58.120568 104.94326 56.702128 106.276596S53.93617 108.588655 52.659574 109.212766S50.092196 110.347515 48.787234 110.744681Z" fill="#010101" />
<path d="M148.359165 25.366875Q148.5 25.163448 148.5 24.881779Q148.468703 24.41233 148.312221 24.31844T147.936662 24.224551H147.654993Q146.716095 24.224551 146.277943 23.739454T145.57377 22.644074T145.21386 21.814714L139.73696 8.857934Q139.54918 8.388485 139.54918 8.106816Q139.54918 7.543477 139.987332 7.293105T141.207899 6.886249Q141.73994 6.79236 141.865127 6.69847T141.990313 6.166428Q141.990313 5.790869 141.786885 5.665683T141.145306 5.540497Q139.580477 5.540497 138.657228 5.775221T137.045455 6.714118T135.762295 8.857934L130.504471 21.814714Q130.035022 23.003984 129.59687 23.598619T128.282414 24.224551H128.094635Q127.781669 24.224551 127.656483 24.334089T127.5 24.881779Q127.5 25.163448 127.640835 25.366875T128.063338 25.570303Q130.066319 25.476413 131.505961 25.476413Q133.383756 25.476413 135.386736 25.570303Q135.668405 25.570303 135.80924 25.366875T135.950075 24.881779Q135.918778 24.443627 135.793592 24.334089T135.35544 24.224551Q134.291356 24.224551 133.853204 24.021123T133.415052 23.285653Q133.415052 22.878798 133.790611 21.814714L134.854694 19.217099H142.584948Q143.367362 21.157486 143.4769 21.470452T143.586438 21.814714Q143.961997 23.003984 143.961997 23.348246Q143.961997 23.880288 143.492548 24.052419T141.708644 24.224551H141.520864Q141.207899 24.224551 141.082712 24.334089T140.92623 24.881779Q140.92623 25.163448 141.067064 25.366875T141.489568 25.570303Q143.492548 25.476413 144.900894 25.476413Q145.902385 25.476413 147.936662 25.570303Q148.218331 25.570303 148.359165 25.366875ZM141.990313 17.871346H135.418033L138.578987 9.828127H138.672876Z" fill="#010101" />
<path d="M137.631383 42.224645C137.556915 42.999114 137.370744 43.684219 137.072872 44.279965C136.775001 44.87571 136.462235 45.329965 136.134574 45.64273S135.393616 46.223582 134.894681 46.446986C134.395745 46.67039 134.012234 46.815603 133.744149 46.882624S133.148404 47.012943 132.76117 47.072518C132.701596 47.087411 132.656915 47.094858 132.627128 47.094858V47.541667H143.372872V47.094858C142.106914 46.871454 141.146276 46.543794 140.490957 46.111879C139.239894 45.277838 138.532446 43.982093 138.368617 42.224645C139.143086 43.416134 140.140957 44.011879 141.362234 44.011879C142.151595 44.011879 142.825532 43.736348 143.384043 43.185284S144.221809 41.964006 144.221809 41.174645C144.221809 40.504433 144.057979 39.893795 143.730319 39.34273C143.402659 38.791666 142.978191 38.289006 142.456915 37.834752S141.399469 36.907624 140.848404 36.416135C140.29734 35.924645 139.753723 35.280497 139.217553 34.483688S138.271809 32.78954 137.98883 31.791667C137.735639 32.774645 137.344682 33.660816 136.815957 34.450177S135.743617 35.879965 135.185106 36.371454S134.086701 37.339538 133.565426 37.801241S132.615957 38.769325 132.280851 39.32039S131.778191 40.489538 131.778191 41.174645C131.778191 41.964006 132.057447 42.634219 132.615957 43.185284S133.848405 44.011879 134.637766 44.011879C135.859043 44.011879 136.856914 43.416134 137.631383 42.224645Z" fill="#010101" />
<path d="M1.640835 184.633125Q1.5 184.836552 1.5 185.118221Q1.531297 185.58767 1.687779 185.68156T2.063338 185.775449H2.345007Q3.283905 185.775449 3.722057 186.260546T4.42623 187.355926T4.78614 188.185286L10.26304 201.142066Q10.45082 201.611515 10.45082 201.893184Q10.45082 202.456523 10.012668 202.706895T8.792101 203.113751Q8.26006 203.20764 8.134873 203.30153T8.009687 203.833572Q8.009687 204.209131 8.213115 204.334317T8.854694 204.459503Q10.419523 204.459503 11.342772 204.224779T12.954545 203.285882T14.237705 201.142066L19.495529 188.185286Q19.964978 186.996016 20.40313 186.401381T21.717586 185.775449H21.905365Q22.218331 185.775449 22.343517 185.665911T22.5 185.118221Q22.5 184.836552 22.359165 184.633125T21.936662 184.429697Q19.933681 184.523587 18.494039 184.523587Q16.616244 184.523587 14.613264 184.429697Q14.331595 184.429697 14.19076 184.633125T14.049925 185.118221Q14.081222 185.556373 14.206408 185.665911T14.64456 185.775449Q15.708644 185.775449 16.146796 185.978877T16.584948 186.714347Q16.584948 187.121202 16.209389 188.185286L15.145306 190.782901H7.415052Q6.632638 188.842514 6.5231 188.529548T6.413562 188.185286Q6.038003 186.996016 6.038003 186.651754Q6.038003 186.119712 6.507452 185.947581T8.291356 185.775449H8.479136Q8.792101 185.775449 8.917288 185.665911T9.07377 185.118221Q9.07377 184.836552 8.932936 184.633125T8.510432 184.429697Q6.507452 184.523587 5.099106 184.523587Q4.097615 184.523587 2.063338 184.429697Q1.781669 184.429697 1.640835 184.633125ZM8.009687 192.128654H14.581967L11.421013 200.171873H11.327124Z" fill="#010101" />
<path d="M12.368617 167.775355C12.443085 167.000886 12.629256 166.315781 12.927128 165.720035C13.224999 165.12429 13.537765 164.670035 13.865426 164.35727S14.606384 163.776418 15.105319 163.553014C15.604255 163.32961 15.987766 163.184397 16.255851 163.117376S16.851596 162.987057 17.23883 162.927482C17.298404 162.912589 17.343085 162.905142 17.372872 162.905142V162.458333H6.627128V162.905142C7.893086 163.128546 8.853724 163.456206 9.509043 163.888121C10.760106 164.722162 11.467554 166.017907 11.631383 167.775355C10.856914 166.583866 9.859043 165.988121 8.637766 165.988121C7.848405 165.988121 7.174468 166.263652 6.615957 166.814716S5.778191 168.035994 5.778191 168.825355C5.778191 169.495567 5.942021 170.106205 6.269681 170.65727C6.597341 171.208334 7.021809 171.710994 7.543085 172.165248S8.600531 173.092376 9.151596 173.583865C9.70266 174.075355 10.246277 174.719503 10.782447 175.516312S11.728191 177.21046 12.01117 178.208333C12.264361 177.225355 12.655318 176.339184 13.184043 175.549823S14.256383 174.120035 14.814894 173.628546S15.913299 172.660462 16.434574 172.198759S17.384043 171.230675 17.719149 170.67961S18.221809 169.510462 18.221809 168.825355C18.221809 168.035994 17.942553 167.365781 17.384043 166.814716S16.151595 165.988121 15.362234 165.988121C14.140957 165.988121 13.143086 166.583866 12.368617 167.775355Z" fill="#010101" />
</svg>
