<svg width="500.000000" height="700.000000" id="card-realspade2">
<radialGradient id="card-realwhitegradient" cx="250.0" cy="350.0" r="500" gradientTransform="matrix(1 0 0 1 0 -.25)" gradientUnits="userSpaceOnUse">
<stop stop-color="#FDFAF4" offset=".15"/>
<stop stop-color="#FDF9F2" offset=".35"/>
<stop stop-color="#FCF7F1" offset=".5"/>
<stop stop-color="#FDFDF8" offset=".75"/>
<stop stop-color="#FFFDFA" offset="1"/>
</radialGradient>
<rect x="0" y="0" rx="25.0" ry="25.0" width="500" height="700.0" stroke="rgba(1,1,1,0.333)" fill="url(#card-realwhitegradient)" />
<path d="M247.659574 132.907801C247.186762 137.825064 246.004723 142.174936 244.113475 145.957447C242.222227 149.739957 240.236411 152.624113 238.156028 154.609929S233.451532 158.297872 230.283688 159.716312C227.115844 161.134752 224.680851 162.056738 222.978723 162.48227S219.196213 163.309692 216.737589 163.687943C216.359338 163.782506 216.07565 163.829787 215.886525 163.829787V166.666667H284.113475V163.829787C276.075645 162.411348 269.976355 160.330965 265.815603 157.588652C257.87234 152.293149 253.38061 144.066199 252.340426 132.907801C257.257688 140.472809 263.593376 144.255319 271.347518 144.255319C276.359333 144.255319 280.638298 142.505915 284.184397 139.007092S289.503546 131.25295 289.503546 126.241135C289.503546 121.985816 288.463357 118.108752 286.382979 114.609929C284.302596 111.111106 281.60756 107.919617 278.297872 105.035461S271.583929 99.148936 268.085106 96.028369C264.586284 92.907801 261.134752 88.817972 257.730496 83.758865S251.725773 73.002369 249.929078 66.666667C248.321518 72.907801 245.839248 78.534284 242.48227 83.546099S235.673759 92.624113 232.12766 95.744681S225.15366 101.891248 221.843972 104.822695S215.815603 110.969262 213.687943 114.468085S210.496454 121.891248 210.496454 126.241135C210.496454 131.25295 212.269504 135.50827 215.815603 139.007092S223.640667 144.255319 228.652482 144.255319C236.406624 144.255319 242.742312 140.472809 247.659574 132.907801Z" fill="#010101" />
<path d="M252.340426 567.092199C252.813238 562.174936 253.995277 557.825064 255.886525 554.042553C257.777773 550.260043 259.763589 547.375887 261.843972 545.390071S266.548468 541.702128 269.716312 540.283688C272.884156 538.865248 275.319149 537.943262 277.021277 537.51773S280.803787 536.690308 283.262411 536.312057C283.640662 536.217494 283.92435 536.170213 284.113475 536.170213V533.333333H215.886525V536.170213C223.924355 537.588652 230.023645 539.669035 234.184397 542.411348C242.12766 547.706851 246.61939 555.933801 247.659574 567.092199C242.742312 559.527191 236.406624 555.744681 228.652482 555.744681C223.640667 555.744681 219.361702 557.494085 215.815603 560.992908S210.496454 568.74705 210.496454 573.758865C210.496454 578.014184 211.536643 581.891248 213.617021 585.390071C215.697404 588.888894 218.39244 592.080383 221.702128 594.964539S228.416071 600.851064 231.914894 603.971631C235.413716 607.092199 238.865248 611.182028 242.269504 616.241135S248.274227 626.997631 250.070922 633.333333C251.678482 627.092199 254.160752 621.465716 257.51773 616.453901S264.326241 607.375887 267.87234 604.255319S274.84634 598.108752 278.156028 595.177305S284.184397 589.030738 286.312057 585.531915S289.503546 578.108752 289.503546 573.758865C289.503546 568.74705 287.730496 564.49173 284.184397 560.992908S276.359333 555.744681 271.347518 555.744681C263.593376 555.744681 257.257688 559.527191 252.340426 567.092199Z" fill="#010101" />
<path d="M486.745283 82.096616Q486.613208 79.323031 485.226415 77.60605T480.669811 73.775862Q470.235849 66.775862 464.490566 62.219258T454.122642 50.662654T449.5 34.945673Q449.5 28.60605 452.867925 25.10605T462.311321 21.60605Q467.462264 21.60605 470.830189 24.181522T474.198113 31.24756Q474.198113 33.492843 473.141509 35.011711T470.962264 37.455107T469.839623 38.511711Q469.839623 39.436239 471.622642 40.756994T475.915094 42.077748Q480.009434 42.077748 482.45283 39.502277T484.896226 32.964541Q484.896226 27.681522 481.330189 23.983409T472.283019 18.568314T461.122642 16.851333Q451.216981 16.851333 444.018868 21.738126T436.820755 36.662654Q436.820755 43.926805 440.783019 49.870201T450.226415 59.973975T464.556604 69.813597Q471.556604 74.172088 474.990566 76.813597V77.473975H439.59434Q436.292453 77.473975 434.773585 78.20039T433.254717 82.096616Q433.254717 86.851333 437.877358 86.851333H482.122642Q486.745283 86.851333 486.745283 82.096616Z" fill="#010101" />
<path d="M458.771277 140.748818C458.52305 143.330381 457.90248 145.614064 456.909574 147.599882C455.916669 149.5857 454.874116 151.099882 453.781915 152.142435S451.312054 154.078605 449.648936 154.823286C447.985818 155.567967 446.707447 156.052009 445.81383 156.275414S443.828012 156.709811 442.537234 156.908392C442.338652 156.958038 442.189716 156.982861 442.090426 156.982861V158.472222H477.909574V156.982861C473.689714 156.23818 470.487586 155.145979 468.303191 153.706265C464.132979 150.926125 461.77482 146.606976 461.228723 140.748818C463.810286 144.720447 467.136522 146.706265 471.207447 146.706265C473.83865 146.706265 476.085106 145.787828 477.946809 143.950946S480.739362 139.880021 480.739362 137.248818C480.739362 135.014775 480.193263 132.979317 479.101064 131.142435C478.008863 129.305553 476.593969 127.630021 474.856383 126.115839S471.331563 123.025414 469.494681 121.387116C467.657799 119.748818 465.845745 117.601657 464.058511 114.945626S460.906031 109.298466 459.962766 105.972222C459.118797 109.248818 457.815605 112.202721 456.053191 114.833924S452.478723 119.599882 450.617021 121.23818S446.955671 124.465128 445.218085 126.004137S442.053191 129.231085 440.93617 131.067967S439.260638 134.965128 439.260638 137.248818C439.260638 139.880021 440.191489 142.114064 442.053191 143.950946S446.16135 146.706265 448.792553 146.706265C452.863478 146.706265 456.189714 144.720447 458.771277 140.748818Z" fill="#010101" />
<path d="M13.254717 617.903384Q13.386792 620.676969 14.773585 622.39395T19.330189 626.224138Q29.764151 633.224138 35.509434 637.780742T45.877358 649.337346T50.5 665.054327Q50.5 671.39395 47.132075 674.89395T37.688679 678.39395Q32.537736 678.39395 29.169811 675.818478T25.801887 668.75244Q25.801887 666.507157 26.858491 664.988289T29.037736 662.544893T30.160377 661.488289Q30.160377 660.563761 28.377358 659.243006T24.084906 657.922252Q19.990566 657.922252 17.54717 660.497723T15.103774 667.035459Q15.103774 672.318478 18.669811 676.016591T27.716981 681.431686T38.877358 683.148667Q48.783019 683.148667 55.981132 678.261874T63.179245 663.337346Q63.179245 656.073195 59.216981 650.129799T49.773585 640.026025T35.443396 630.186403Q28.443396 625.827912 25.009434 623.186403V622.526025H60.40566Q63.707547 622.526025 65.226415 621.79961T66.745283 617.903384Q66.745283 613.148667 62.122642 613.148667H17.877358Q13.254717 613.148667 13.254717 617.903384Z" fill="#010101" />
<path d="M41.228723 559.251182C41.47695 556.669619 42.09752 554.385936 43.090426 552.400118C44.083331 550.4143 45.125884 548.900118 46.218085 547.857565S48.687946 545.921395 50.351064 545.176714C52.014182 544.432033 53.292553 543.947991 54.18617 543.724586S56.171988 543.290189 57.462766 543.091608C57.661348 543.041962 57.810284 543.017139 57.909574 543.017139V541.527778H22.090426V543.017139C26.310286 543.76182 29.512414 544.854021 31.696809 546.293735C35.867021 549.073875 38.22518 553.393024 38.771277 559.251182C36.189714 555.279553 32.863478 553.293735 28.792553 553.293735C26.16135 553.293735 23.914894 554.212172 22.053191 556.049054S19.260638 560.119979 19.260638 562.751182C19.260638 564.985225 19.806737 567.020683 20.898936 568.857565C21.991137 570.694447 23.406031 572.369979 25.143617 573.884161S28.668437 576.974586 30.505319 578.612884C32.342201 580.251182 34.154255 582.398343 35.941489 585.054374S39.093969 590.701534 40.037234 594.027778C40.881203 590.751182 42.184395 587.797279 43.946809 585.166076S47.521277 580.400118 49.382979 578.76182S53.044329 575.534872 54.781915 573.995863S57.946809 570.768915 59.06383 568.932033S60.739362 565.034872 60.739362 562.751182C60.739362 560.119979 59.808511 557.885936 57.946809 556.049054S53.83865 553.293735 51.207447 553.293735C47.136522 553.293735 43.810286 555.279553 41.228723 559.251182Z" fill="#010101" />
</svg>
