<svg width="25.000000" height="35.000000" id="card-lightdiamond7">
<rect x="0" y="0" rx="1.25" ry="1.25" width="25" height="35.0" stroke="rgba(1,1,1,0.333)" fill="#fffdfa" />
<path d="M7.506954 3.333333C7.395688 3.555865 7.126796 3.955726 6.700278 4.532916C6.27376 5.110107 5.930688 5.542422 5.671071 5.829856C5.995596 6.200742 6.34446 6.641171 6.717663 7.151136C7.090867 7.661103 7.353964 8.055169 7.506954 8.333333C7.850023 7.721372 8.45735 6.88688 9.328929 5.829856C8.434166 4.749655 7.826843 3.917478 7.506954 3.333333Z" fill="#da0a0a" />
<path d="M7.493046 31.666667C7.604312 31.444135 7.873204 31.044274 8.299722 30.467084C8.72624 29.889893 9.069312 29.457578 9.328929 29.170144C9.004404 28.799258 8.65554 28.358829 8.282337 27.848864C7.909133 27.338897 7.646036 26.944831 7.493046 26.666667C7.149977 27.278628 6.54265 28.11312 5.671071 29.170144C6.565834 30.250345 7.173157 31.082522 7.493046 31.666667Z" fill="#da0a0a" />
<path d="M7.506954 15.0C7.395688 15.222531 7.126796 15.622392 6.700278 16.199583C6.27376 16.776773 5.930688 17.209089 5.671071 17.496523C5.995596 17.867408 6.34446 18.307837 6.717663 18.817803C7.090867 19.32777 7.353964 19.721836 7.506954 20.0C7.850023 19.388039 8.45735 18.553547 9.328929 17.496523C8.434166 16.416321 7.826843 15.584145 7.506954 15.0Z" fill="#da0a0a" />
<path d="M17.506954 3.333333C17.395688 3.555865 17.126796 3.955726 16.700278 4.532916C16.27376 5.110107 15.930688 5.542422 15.671071 5.829856C15.995596 6.200742 16.34446 6.641171 16.717663 7.151136C17.090867 7.661103 17.353964 8.055169 17.506954 8.333333C17.850023 7.721372 18.45735 6.88688 19.328929 5.829856C18.434166 4.749655 17.826843 3.917478 17.506954 3.333333Z" fill="#da0a0a" />
<path d="M17.493046 31.666667C17.604312 31.444135 17.873204 31.044274 18.299722 30.467084C18.72624 29.889893 19.069312 29.457578 19.328929 29.170144C19.004404 28.799258 18.65554 28.358829 18.282337 27.848864C17.909133 27.338897 17.646036 26.944831 17.493046 26.666667C17.149977 27.278628 16.54265 28.11312 15.671071 29.170144C16.565834 30.250345 17.173157 31.082522 17.493046 31.666667Z" fill="#da0a0a" />
<path d="M17.506954 15.0C17.395688 15.222531 17.126796 15.622392 16.700278 16.199583C16.27376 16.776773 15.930688 17.209089 15.671071 17.496523C15.995596 17.867408 16.34446 18.307837 16.717663 18.817803C17.090867 19.32777 17.353964 19.721836 17.506954 20.0C17.850023 19.388039 18.45735 18.553547 19.328929 17.496523C18.434166 16.416321 17.826843 15.584145 17.506954 15.0Z" fill="#da0a0a" />
<path d="M12.506954 9.166667C12.395688 9.389198 12.126796 9.789059 11.700278 10.366249C11.27376 10.94344 10.930688 11.375756 10.671071 11.66319C10.995596 12.034075 11.34446 12.474504 11.717663 12.984469C12.090867 13.494436 12.353964 13.888503 12.506954 14.166667C12.850023 13.554706 13.45735 12.720213 14.328929 11.66319C13.434166 10.582988 12.826843 9.750811 12.506954 9.166667Z" fill="#da0a0a" />
<path d="M23.552122 4.268305Q23.616697 4.194043 23.616697 4.064891Q23.616697 3.780759 23.297048 3.138231T22.460793 1.565814L22.312269 1.301054H23.442343Q23.616697 1.301054 23.703875 1.326884T23.845941 1.449578T23.926661 1.753083Q23.939576 1.804744 23.968635 1.827345T24.075185 1.849947Q24.184963 1.849947 24.184963 1.740168L24.159133 0.984633Q24.159133 0.842567 23.971863 0.842567H22.002306Q21.815037 0.842567 21.815037 0.96526Q21.815037 1.062124 21.957103 1.301054Q22.196033 1.701423 22.399446 2.195426T22.848247 3.367474Q23.048432 3.916367 23.138838 4.135925Q23.235701 4.342567 23.403598 4.342567Q23.487546 4.342567 23.552122 4.268305Z" fill="#da0a0a" />
<path d="M23.003651 5.298611C22.945236 5.41544 22.804068 5.625367 22.580146 5.928392C22.356224 6.231417 22.176111 6.458383 22.039812 6.609286C22.210188 6.804 22.393341 7.035226 22.589273 7.302957C22.785205 7.57069 22.923331 7.777575 23.003651 7.923611C23.183762 7.602332 23.502609 7.164223 23.960188 6.609286C23.490437 6.04218 23.171592 5.605287 23.003651 5.298611Z" fill="#da0a0a" />
<path d="M1.447878 30.731695Q1.383303 30.805957 1.383303 30.935109Q1.383303 31.219241 1.702952 31.861769T2.539207 33.434186L2.687731 33.698946H1.557657Q1.383303 33.698946 1.296125 33.673116T1.154059 33.550422T1.073339 33.246917Q1.060424 33.195256 1.031365 33.172655T0.924815 33.150053Q0.815037 33.150053 0.815037 33.259832L0.840867 34.015367Q0.840867 34.157433 1.028137 34.157433H2.997694Q3.184963 34.157433 3.184963 34.03474Q3.184963 33.937876 3.042897 33.698946Q2.803967 33.298577 2.600554 32.804574T2.151753 31.632526Q1.951568 31.083633 1.861162 30.864075Q1.764299 30.657433 1.596402 30.657433Q1.512454 30.657433 1.447878 30.731695Z" fill="#da0a0a" />
<path d="M1.996349 29.701389C2.054764 29.58456 2.195932 29.374633 2.419854 29.071608C2.643776 28.768583 2.823889 28.541617 2.960188 28.390714C2.789812 28.196 2.606659 27.964774 2.410727 27.697043C2.214795 27.42931 2.076669 27.222425 1.996349 27.076389C1.816238 27.397668 1.497391 27.835777 1.039812 28.390714C1.509563 28.95782 1.828408 29.394713 1.996349 29.701389Z" fill="#da0a0a" />
</svg>
