<svg width="150.000000" height="210.000000" id="card-webheart11">
<radialGradient id="card-webwhitegradient" cx="75.0" cy="105.0" r="150" gradientTransform="matrix(1 0 0 1 0 -.25)" gradientUnits="userSpaceOnUse">
<stop stop-color="#FDFAF4" offset=".15"/>
<stop stop-color="#FDF9F2" offset=".35"/>
<stop stop-color="#FCF7F1" offset=".5"/>
<stop stop-color="#FDFDF8" offset=".75"/>
<stop stop-color="#FFFDFA" offset="1"/>
</radialGradient>
<rect x="0" y="0" rx="7.5" ry="7.5" width="150" height="210.0" stroke="rgba(1,1,1,0.333)" fill="url(#card-webwhitegradient)" />
<rect x="30.0" y="21.0" width="90.0" height="168.0" stroke="#010101" fill="#fffdfa" />
<path d="M88.579387 62.107391C87.576602 62.107391 86.378833 61.564215 84.986072 60.477864S82.896936 58.402658 82.896936 57.511291C82.896936 56.787056 83.56546 56.42494 84.902507 56.42494C86.01671 56.42494 87.089139 56.870622 88.119777 57.761987S89.665738 59.600427 89.665738 60.603213S89.303621 62.107391 88.579387 62.107391ZM100.111421 75.812126C99.777159 73.750842 97.938719 69.182603 94.5961 62.107391S89.582173 50.436054 89.582173 48.31909C89.582173 46.647781 89.721449 45.143603 90.0 43.806555C85.598883 43.806555 82.479109 44.725775 80.640669 46.564215C79.025072 43.945834 77.799443 42.636639 76.963788 42.636639C75.45961 43.472293 74.470755 44.252235 73.997214 44.976472S72.924794 47.177026 72.200557 49.405441C71.754875 49.294021 71.309189 49.23831 70.86351 49.23831C69.693593 49.23831 68.314763 49.544717 66.727019 50.15753S63.342618 51.926335 61.337047 53.625497S57.493036 57.441656 55.821727 59.976472S52.743735 65.951402 51.601671 70.296806S49.888579 79.516834 49.888579 84.920761C49.888579 87.483438 50.0 89.79541 50.222841 91.856695H85.487465C85.431755 89.405444 84.930362 87.190959 83.983287 85.21324S82.019499 81.689561 80.933148 80.575357C79.846797 79.461154 78.802228 78.096246 77.799443 76.48065S76.183847 73.193745 75.961003 71.466722C78.077992 72.302377 79.916432 73.41658 81.476323 74.809341S84.122565 77.469505 84.735376 78.611569S85.947075 80.756419 86.532033 81.619926C87.116992 82.483433 87.688019 82.91519 88.245125 82.91519C89.637886 82.91519 90.334262 82.051683 90.334262 80.324661C90.891365 81.048895 91.532031 81.411012 92.256267 81.411012L93.927577 80.993185C95.654599 80.547503 96.922003 79.976469 97.729805 79.280093C98.537605 78.583714 99.331479 77.427722 100.111421 75.812126ZM95.013928 73.138032C95.793872 73.138032 96.462393 73.388728 97.019499 73.890121S97.855153 75.004324 97.855153 75.728561C97.855153 75.951402 97.771588 76.229954 97.604457 76.564215C96.824513 76.564215 96.169914 76.341374 95.640669 75.895692S94.846797 74.865054 94.846797 74.140817C94.846797 74.029397 94.902507 73.695135 95.013928 73.138032ZM53.983287 86.007112C53.983287 81.884552 54.470752 77.956976 55.445682 74.224383S57.646237 67.372015 59.122563 64.865051S62.200554 60.171455 63.927577 58.305162C65.654599 56.43887 67.270195 55.073962 68.774373 54.210455S71.559886 52.91519 72.618384 52.91519C73.676883 53.026611 74.206128 53.388728 74.206128 54.001541C74.206128 54.335803 74.122563 54.558645 73.955432 54.670065C68.440111 57.455578 64.247883 61.731346 61.37883 67.497363S57.075209 79.405441 57.075209 85.923547C57.075209 87.427725 56.545961 88.179814 55.487465 88.179814C54.48468 88.179814 53.983287 87.45558 53.983287 86.007112Z" fill="#da0a0a" />
<path d="M61.420613 147.892609C62.423398 147.892609 63.621167 148.435785 65.013928 149.522136S67.103064 151.597342 67.103064 152.488709C67.103064 153.212944 66.43454 153.57506 65.097493 153.57506C63.98329 153.57506 62.910861 153.129378 61.880223 152.238013S60.334262 150.399573 60.334262 149.396787S60.696379 147.892609 61.420613 147.892609ZM49.888579 134.187874C50.222841 136.249158 52.061281 140.817397 55.4039 147.892609S60.417827 159.563946 60.417827 161.68091C60.417827 163.352219 60.278551 164.856397 60.0 166.193445C64.401117 166.193445 67.520891 165.274225 69.359331 163.435785C70.974928 166.054166 72.200557 167.363361 73.036212 167.363361C74.54039 166.527707 75.529245 165.747765 76.002786 165.023528S77.075206 162.822974 77.799443 160.594559C78.245125 160.705979 78.690811 160.76169 79.13649 160.76169C80.306407 160.76169 81.685237 160.455283 83.272981 159.84247S86.657382 158.073665 88.662953 156.374503S92.506964 152.558344 94.178273 150.023528S97.256265 144.048598 98.398329 139.703194S100.111421 130.483166 100.111421 125.079239C100.111421 122.516562 100.0 120.20459 99.777159 118.143305H64.512535C64.568245 120.594556 65.069638 122.809041 66.016713 124.78676S67.980501 128.310439 69.066852 129.424643C70.153203 130.538846 71.197772 131.903754 72.200557 133.51935S73.816153 136.806255 74.038997 138.533278C71.922008 137.697623 70.083568 136.58342 68.523677 135.190659S65.877435 132.530495 65.264624 131.388431S64.052925 129.243581 63.467967 128.380074C62.883008 127.516567 62.311981 127.08481 61.754875 127.08481C60.362114 127.08481 59.665738 127.948317 59.665738 129.675339C59.108635 128.951105 58.467969 128.588988 57.743733 128.588988L56.072423 129.006815C54.345401 129.452497 53.077997 130.023531 52.270195 130.719907C51.462395 131.416286 50.668521 132.572278 49.888579 134.187874ZM54.986072 136.861968C54.206128 136.861968 53.537607 136.611272 52.980501 136.109879S52.144847 134.995676 52.144847 134.271439C52.144847 134.048598 52.228412 133.770046 52.395543 133.435785C53.175487 133.435785 53.830086 133.658626 54.359331 134.104308S55.153203 135.134946 55.153203 135.859183C55.153203 135.970603 55.097493 136.304865 54.986072 136.861968ZM96.016713 123.992888C96.016713 128.115448 95.529248 132.043024 94.554318 135.775617S92.353763 142.627985 90.877437 145.134949S87.799446 149.828545 86.072423 151.694838C84.345401 153.56113 82.729805 154.926038 81.225627 155.789545S78.440114 157.08481 77.381616 157.08481C76.323117 156.973389 75.793872 156.611272 75.793872 155.998459C75.793872 155.664197 75.877437 155.441355 76.044568 155.329935C81.559889 152.544422 85.752117 148.268654 88.62117 142.502637S92.924791 130.594559 92.924791 124.076453C92.924791 122.572275 93.454039 121.820186 94.512535 121.820186C95.51532 121.820186 96.016713 122.54442 96.016713 123.992888Z" fill="#da0a0a" />
<path d="M141.457627 26.0554Q141.813559 26.0554 141.940678 25.623197Q141.966102 25.546925 141.966102 25.394383Q141.966102 25.089298 141.686441 24.987603Q140.415254 24.453705 139.805085 23.46218T139.016949 21.00879T138.838983 17.0554V8.106247Q138.864407 7.470654 138.95339 7.076586T139.398305 6.415569T140.491525 6.14862H140.644068Q140.898305 6.14862 141.012712 6.059637T141.152542 5.614722Q141.152542 5.385908 141.025424 5.220654T140.694915 5.0554Q139.067797 5.131671 137.669492 5.131671Q136.118644 5.131671 134.491525 5.0554Q134.262712 5.0554 134.148305 5.220654T134.033898 5.614722Q134.059322 5.996078 134.199153 6.072349T134.694915 6.14862Q135.432203 6.14862 135.788136 6.415569T136.233051 7.076586T136.347458 8.106247V17.919807Q136.347458 21.199468 137.504237 23.296925T141.355932 26.0554H141.457627Z" fill="#da0a0a" />
<path d="M137.978064 34.950441C137.685586 33.868269 137.213963 33.071262 136.563196 32.559424S135.192201 31.791667 134.402507 31.791667C133.510445 31.791667 132.746344 32.09877 132.110202 32.712976S131.155989 34.065692 131.155989 34.928505C131.155989 35.718199 131.349756 36.522517 131.737291 37.341458S132.614728 38.950092 133.206999 39.710539S134.402507 41.235086 135.016713 42.002844S136.219533 43.644382 136.782556 44.624188S137.74408 46.576486 137.978064 47.541667C138.241295 46.532614 138.661735 45.519904 139.23938 44.50354S140.412953 42.587802 141.027159 41.80542C141.641365 41.023038 142.240946 40.25528 142.825905 39.502147S143.893455 37.992225 144.273677 37.231778S144.844011 35.747446 144.844011 35.060121C144.844011 34.138812 144.533251 33.363743 143.911734 32.734912C143.290217 32.106081 142.526113 31.791667 141.619429 31.791667C139.879179 31.791667 138.665383 32.844591 137.978064 34.950441Z" fill="#da0a0a" />
<path d="M8.542373 183.9446Q8.186441 183.9446 8.059322 184.376803Q8.033898 184.453075 8.033898 184.605617Q8.033898 184.910702 8.313559 185.012397Q9.584746 185.546295 10.194915 186.53782T10.983051 188.99121T11.161017 192.9446V201.893753Q11.135593 202.529346 11.04661 202.923414T10.601695 203.584431T9.508475 203.85138H9.355932Q9.101695 203.85138 8.987288 203.940363T8.847458 204.385278Q8.847458 204.614092 8.974576 204.779346T9.305085 204.9446Q10.932203 204.868329 12.330508 204.868329Q13.881356 204.868329 15.508475 204.9446Q15.737288 204.9446 15.851695 204.779346T15.966102 204.385278Q15.940678 204.003922 15.800847 203.927651T15.305085 203.85138Q14.567797 203.85138 14.211864 203.584431T13.766949 202.923414T13.652542 201.893753V192.080193Q13.652542 188.800532 12.495763 186.703075T8.644068 183.9446H8.542373Z" fill="#da0a0a" />
<path d="M12.021936 175.049559C12.314414 176.131731 12.786037 176.928738 13.436804 177.440576S14.807799 178.208333 15.597493 178.208333C16.489555 178.208333 17.253656 177.90123 17.889798 177.287024S18.844011 175.934308 18.844011 175.071495C18.844011 174.281801 18.650244 173.477483 18.262709 172.658542S17.385272 171.049908 16.793001 170.289461S15.597493 168.764914 14.983287 167.997156S13.780467 166.355618 13.217444 165.375812S12.25592 163.423514 12.021936 162.458333C11.758705 163.467386 11.338265 164.480096 10.76062 165.49646S9.587047 167.412198 8.972841 168.19458C8.358635 168.976962 7.759054 169.74472 7.174095 170.497853S6.106545 172.007775 5.726323 172.768222S5.155989 174.252554 5.155989 174.939879C5.155989 175.861188 5.466749 176.636257 6.088266 177.265088C6.709783 177.893919 7.473887 178.208333 8.380571 178.208333C10.120821 178.208333 11.334617 177.155409 12.021936 175.049559Z" fill="#da0a0a" />
</svg>
