<svg width="500.000000" height="700.000000" id="card-realheart1">
<radialGradient id="card-realwhitegradient" cx="250.0" cy="350.0" r="500" gradientTransform="matrix(1 0 0 1 0 -.25)" gradientUnits="userSpaceOnUse">
<stop stop-color="#FDFAF4" offset=".15"/>
<stop stop-color="#FDF9F2" offset=".35"/>
<stop stop-color="#FCF7F1" offset=".5"/>
<stop stop-color="#FDFDF8" offset=".75"/>
<stop stop-color="#FFFDFA" offset="1"/>
</radialGradient>
<rect x="0" y="0" rx="25.0" ry="25.0" width="500" height="700.0" stroke="rgba(1,1,1,0.333)" fill="url(#card-realwhitegradient)" />
<path d="M332.311978 289.554318C332.311978 293.268329 331.104922 296.657382 328.690808 299.721448S325.069638 304.5961 325.069638 305.153203C325.069638 307.381616 326.32312 309.563593 328.830084 311.699164S333.890446 314.902507 336.490251 314.902507C339.275766 314.902507 341.597019 313.788301 343.454039 311.559889S346.239554 306.638802 346.239554 303.481894C346.239554 292.339833 340.99351 281.429889 330.501393 270.752089C320.009276 260.07429 309.285042 254.735376 298.328691 254.735376C288.486546 254.735376 277.530167 259.749304 265.45961 269.777159V261.142061C259.145766 254.085432 252.83195 250.557103 246.518106 250.557103C239.832869 250.557103 234.215404 253.249769 229.665738 258.635097S222.841226 270.705655 222.841226 278.690808C222.841226 282.404819 223.67688 287.697298 225.348189 294.568245C215.506045 301.067772 205.942423 304.317549 196.657382 304.317549C191.272061 304.317549 186.583092 302.460538 182.590529 298.746518S176.601671 290.668524 176.601671 285.654596C176.601671 281.012061 178.180131 277.623036 181.337047 275.487465S186.072423 271.077075 186.072423 268.662953C186.072423 263.277632 184.586816 258.820808 181.615599 255.292479S174.930362 250.0 170.473538 250.0C165.64532 250.0 161.65273 251.717735 158.495822 255.153203S153.760446 262.906212 153.760446 268.10585C153.760446 279.805014 159.795738 289.647159 171.866295 297.632312C183.936852 305.617465 195.821727 309.610028 207.520891 309.610028C211.792006 309.610028 218.570111 307.567318 227.855153 303.481894C230.269267 309.610028 235.933148 321.680585 244.846797 339.693593C245.4039 336.908078 245.682451 335.051058 245.682451 334.122563C245.682451 332.822655 245.636026 331.940577 245.543175 331.476323S245.125348 330.083565 244.568245 328.690808S243.361189 325.858858 242.618384 324.373259S240.622097 320.009276 238.857939 315.738162S235.097493 306.638802 232.869081 301.253482C235.654596 299.953574 242.479109 295.868162 253.342618 288.997214S274.4661 276.230279 284.122563 271.309192C293.779025 266.388106 301.114206 263.927577 306.128134 263.927577C313.184763 263.927577 319.312897 266.480967 324.512535 271.587744C329.712173 276.694513 332.311978 282.68337 332.311978 289.554318ZM230.362117 292.061281C229.062209 287.604457 228.412256 283.983287 228.412256 281.197772C228.412256 275.441031 230.083565 270.380696 233.426184 266.016713S240.575682 259.470752 244.846797 259.470752C247.260911 259.470752 249.396462 260.445682 251.253482 262.395543S254.038997 266.620251 254.038997 269.220056C254.038997 273.305487 251.532033 277.576602 246.518106 282.033426S236.118858 289.832869 230.362117 292.061281ZM245.4039 347.771588C235.376045 330.315682 223.119777 321.587744 208.635097 321.587744C200.092841 321.587744 192.75766 325.023203 186.629526 331.89415S177.437326 347.028774 177.437326 356.685237C177.437326 364.113287 179.108635 370.752089 182.451253 376.601671S189.92571 387.093788 194.846797 390.529248S205.106769 397.307326 210.86351 400.557103C216.620251 403.80688 221.959136 406.592396 226.880223 408.913649C231.801309 411.234911 235.933148 414.066852 239.275766 417.409471S244.289694 424.373259 244.289694 428.272981C244.289694 432.544095 242.664811 436.118858 239.415042 438.997214S232.219136 443.314763 227.576602 443.314763C215.134624 443.314763 207.706602 434.772507 205.292479 417.688022C203.435468 415.273908 200.928496 414.066852 197.771588 414.066852C194.243259 414.066852 191.364903 415.041783 189.13649 416.991643S185.793872 421.494903 185.793872 424.651811C185.793872 431.522758 190.250696 437.465181 199.164345 442.479109S218.477242 450.0 230.362117 450.0C253.203343 450.0 273.119777 441.550613 290.111421 424.651811C307.103064 407.753008 315.598886 387.883008 315.598886 365.041783C315.598886 350.371393 312.02415 338.254401 304.874652 328.690808S288.672228 314.345404 277.715877 314.345404C259.517187 314.345404 250.417827 324.837521 250.417827 345.821727Z" fill="#da0a0a" />
<path d="M494.530551 84.556251Q495.0 83.878159 495.0 82.939262Q494.895678 81.374433 494.374069 81.061467T493.122206 80.748502H492.183308Q489.053651 80.748502 487.593145 79.131512T485.245902 75.480245T484.0462 72.715715L465.789866 29.526445Q465.163934 27.961616 465.163934 27.022719Q465.163934 25.144925 466.624441 24.31035T470.692996 22.954165Q472.466468 22.641199 472.883756 22.328233T473.301043 20.554761Q473.301043 19.302898 472.622951 18.885611T470.484352 18.468323Q465.268256 18.468323 462.19076 19.250737T456.818182 22.380394T452.540984 29.526445L435.014903 72.715715Q433.450075 76.679947 431.989568 78.662064T427.608048 80.748502H426.982116Q425.938897 80.748502 425.52161 81.113628T425.0 82.939262Q425.0 83.878159 425.469449 84.556251T426.877794 85.234344Q433.554396 84.921378 438.353204 84.921378Q444.612519 84.921378 451.289121 85.234344Q452.228018 85.234344 452.697466 84.556251T453.166915 82.939262Q453.062593 81.478755 452.645306 81.113628T451.184799 80.748502Q447.637854 80.748502 446.177347 80.070409T444.716841 77.618845Q444.716841 76.26266 445.968703 72.715715L449.515648 64.056997H475.283159Q477.891207 70.524955 478.256334 71.568174T478.621461 72.715715Q479.873323 76.679947 479.873323 77.827488Q479.873323 79.600961 478.308495 80.174731T472.362146 80.748502H471.736215Q470.692996 80.748502 470.275708 81.113628T469.754098 82.939262Q469.754098 83.878159 470.223547 84.556251T471.631893 85.234344Q478.308495 84.921378 483.002981 84.921378Q486.341282 84.921378 493.122206 85.234344Q494.061103 85.234344 494.530551 84.556251ZM473.301043 59.571154H451.393443L461.929955 32.760424H462.242921Z" fill="#da0a0a" />
<path d="M459.92688 116.50147C458.951952 112.89423 457.379877 110.23754 455.210655 108.531414S450.640669 105.972222 448.008357 105.972222C445.034817 105.972222 442.487813 106.995899 440.36734 109.043253S437.18663 113.552308 437.18663 116.42835C437.18663 119.060662 437.832521 121.741723 439.124304 124.471526S442.049095 129.83364 444.023329 132.368462S448.008357 137.450286 450.05571 140.009478S454.065109 145.481273 455.941852 148.747292S459.146933 155.254952 459.92688 158.472222C460.804318 155.108712 462.205782 151.733014 464.131267 148.345133S468.043175 141.959342 470.090529 139.3514C472.137883 136.743459 474.136488 134.184267 476.086351 131.673824S479.644849 126.640748 480.912256 124.105927S482.81337 119.158153 482.81337 116.867069C482.81337 113.796038 481.777505 111.212475 479.70578 109.116373C477.634055 107.02027 475.087045 105.972222 472.064763 105.972222C466.26393 105.972222 462.217942 109.481972 459.92688 116.50147Z" fill="#da0a0a" />
<path d="M5.469449 615.443749Q5.0 616.121841 5.0 617.060738Q5.104322 618.625567 5.625931 618.938533T6.877794 619.251498H7.816692Q10.946349 619.251498 12.406855 620.868488T14.754098 624.519755T15.9538 627.284285L34.210134 670.473555Q34.836066 672.038384 34.836066 672.977281Q34.836066 674.855075 33.375559 675.68965T29.307004 677.045835Q27.533532 677.358801 27.116244 677.671767T26.698957 679.445239Q26.698957 680.697102 27.377049 681.114389T29.515648 681.531677Q34.731744 681.531677 37.80924 680.749263T43.181818 677.619606T47.459016 670.473555L64.985097 627.284285Q66.549925 623.320053 68.010432 621.337936T72.391952 619.251498H73.017884Q74.061103 619.251498 74.47839 618.886372T75.0 617.060738Q75.0 616.121841 74.530551 615.443749T73.122206 614.765656Q66.445604 615.078622 61.646796 615.078622Q55.387481 615.078622 48.710879 614.765656Q47.771982 614.765656 47.302534 615.443749T46.833085 617.060738Q46.937407 618.521245 47.354694 618.886372T48.815201 619.251498Q52.362146 619.251498 53.822653 619.929591T55.283159 622.381155Q55.283159 623.73734 54.031297 627.284285L50.484352 635.943003H24.716841Q22.108793 629.475045 21.743666 628.431826T21.378539 627.284285Q20.126677 623.320053 20.126677 622.172512Q20.126677 620.399039 21.691505 619.825269T27.637854 619.251498H28.263785Q29.307004 619.251498 29.724292 618.886372T30.245902 617.060738Q30.245902 616.121841 29.776453 615.443749T28.368107 614.765656Q21.691505 615.078622 16.997019 615.078622Q13.658718 615.078622 6.877794 614.765656Q5.938897 614.765656 5.469449 615.443749ZM26.698957 640.428846H48.606557L38.070045 667.239576H37.757079Z" fill="#da0a0a" />
<path d="M40.07312 583.49853C41.048048 587.10577 42.620123 589.76246 44.789345 591.468586S49.359331 594.027778 51.991643 594.027778C54.965183 594.027778 57.512187 593.004101 59.63266 590.956747S62.81337 586.447692 62.81337 583.57165C62.81337 580.939338 62.167479 578.258277 60.875696 575.528474S57.950905 570.16636 55.976671 567.631538S51.991643 562.549714 49.94429 559.990522S45.934891 554.518727 44.058148 551.252708S40.853067 544.745048 40.07312 541.527778C39.195682 544.891288 37.794218 548.266986 35.868733 551.654867S31.956825 558.040658 29.909471 560.6486C27.862117 563.256541 25.863512 565.815733 23.913649 568.326176S20.355151 573.359252 19.087744 575.894073S17.18663 580.841847 17.18663 583.132931C17.18663 586.203962 18.222495 588.787525 20.29422 590.883627C22.365945 592.97973 24.912955 594.027778 27.935237 594.027778C33.73607 594.027778 37.782058 590.518028 40.07312 583.49853Z" fill="#da0a0a" />
</svg>
