<svg width="150.000000" height="210.000000" id="card-webheart9">
<radialGradient id="card-webwhitegradient" cx="75.0" cy="105.0" r="150" gradientTransform="matrix(1 0 0 1 0 -.25)" gradientUnits="userSpaceOnUse">
<stop stop-color="#FDFAF4" offset=".15"/>
<stop stop-color="#FDF9F2" offset=".35"/>
<stop stop-color="#FCF7F1" offset=".5"/>
<stop stop-color="#FDFDF8" offset=".75"/>
<stop stop-color="#FFFDFA" offset="1"/>
</radialGradient>
<rect x="0" y="0" rx="7.5" ry="7.5" width="150" height="210.0" stroke="rgba(1,1,1,0.333)" fill="url(#card-webwhitegradient)" />
<path d="M44.958217 26.016713C44.401116 23.955433 43.502787 22.437325 42.263231 21.462396S39.651811 20.0 38.147632 20.0C36.448467 20.0 34.993036 20.584958 33.781337 21.754875S31.963788 24.331478 31.963788 25.97493C31.963788 27.479109 32.332869 29.011143 33.071031 30.571031S34.74234 33.635096 35.870474 35.083565S38.147632 37.987465 39.317549 39.449861S41.608634 42.5766 42.681058 44.442897S44.512533 48.16156 44.958217 50.0C45.45961 48.077994 46.260447 46.149024 47.360724 44.213092S49.5961 40.564068 50.766017 39.073816C51.935933 37.583564 53.077993 36.121169 54.192201 34.68663S56.225628 31.810586 56.949861 30.362117S58.036212 27.534818 58.036212 26.225627C58.036212 24.470752 57.444288 22.99443 56.260446 21.796657C55.076603 20.598884 53.621169 20.0 51.89415 20.0C48.579389 20.0 46.267396 22.005571 44.958217 26.016713Z" fill="#da0a0a" />
<path d="M45.041783 183.983287C45.598884 186.044567 46.497213 187.562675 47.736769 188.537604S50.348189 190.0 51.852368 190.0C53.551533 190.0 55.006964 189.415042 56.218663 188.245125S58.036212 185.668522 58.036212 184.02507C58.036212 182.520891 57.667131 180.988857 56.928969 179.428969S55.25766 176.364904 54.129526 174.916435S51.852368 172.012535 50.682451 170.550139S48.391366 167.4234 47.318942 165.557103S45.487467 161.83844 45.041783 160.0C44.54039 161.922006 43.739553 163.850976 42.639276 165.786908S40.4039 169.435932 39.233983 170.926184C38.064067 172.416436 36.922007 173.878831 35.807799 175.31337S33.774372 178.189414 33.050139 179.637883S31.963788 182.465182 31.963788 183.774373C31.963788 185.529248 32.555712 187.00557 33.739554 188.203343C34.923397 189.401116 36.378831 190.0 38.10585 190.0C41.420611 190.0 43.732604 187.994429 45.041783 183.983287Z" fill="#da0a0a" />
<path d="M44.958217 72.68338C44.401116 70.6221 43.502787 69.103991 42.263231 68.129062S39.651811 66.666667 38.147632 66.666667C36.448467 66.666667 34.993036 67.251625 33.781337 68.421541S31.963788 70.998144 31.963788 72.641597C31.963788 74.145775 32.332869 75.67781 33.071031 77.237697S34.74234 80.301763 35.870474 81.750232S38.147632 84.654132 39.317549 86.116527S41.608634 89.243267 42.681058 91.109564S44.512533 94.828227 44.958217 96.666667C45.45961 94.744661 46.260447 92.81569 47.360724 90.879759S49.5961 87.230735 50.766017 85.740483C51.935933 84.250231 53.077993 82.787835 54.192201 81.353296S56.225628 78.477253 56.949861 77.028784S58.036212 74.201484 58.036212 72.892293C58.036212 71.137419 57.444288 69.661097 56.260446 68.463324C55.076603 67.265551 53.621169 66.666667 51.89415 66.666667C48.579389 66.666667 46.267396 68.672238 44.958217 72.68338Z" fill="#da0a0a" />
<path d="M45.041783 137.31662C45.598884 139.3779 46.497213 140.896009 47.736769 141.870938S50.348189 143.333333 51.852368 143.333333C53.551533 143.333333 55.006964 142.748375 56.218663 141.578459S58.036212 139.001856 58.036212 137.358403C58.036212 135.854225 57.667131 134.32219 56.928969 132.762303S55.25766 129.698237 54.129526 128.249768S51.852368 125.345868 50.682451 123.883473S48.391366 120.756733 47.318942 118.890436S45.487467 115.171773 45.041783 113.333333C44.54039 115.255339 43.739553 117.18431 42.639276 119.120241S40.4039 122.769265 39.233983 124.259517C38.064067 125.749769 36.922007 127.212165 35.807799 128.646704S33.774372 131.522747 33.050139 132.971216S31.963788 135.798516 31.963788 137.107707C31.963788 138.862581 32.555712 140.338903 33.739554 141.536676C34.923397 142.734449 36.378831 143.333333 38.10585 143.333333C41.420611 143.333333 43.732604 141.327762 45.041783 137.31662Z" fill="#da0a0a" />
<path d="M104.958217 26.016713C104.401116 23.955433 103.502787 22.437325 102.263231 21.462396S99.651811 20.0 98.147632 20.0C96.448467 20.0 94.993036 20.584958 93.781337 21.754875S91.963788 24.331478 91.963788 25.97493C91.963788 27.479109 92.332869 29.011143 93.071031 30.571031S94.74234 33.635096 95.870474 35.083565S98.147632 37.987465 99.317549 39.449861S101.608634 42.5766 102.681058 44.442897S104.512533 48.16156 104.958217 50.0C105.45961 48.077994 106.260447 46.149024 107.360724 44.213092S109.5961 40.564068 110.766017 39.073816C111.935933 37.583564 113.077993 36.121169 114.192201 34.68663S116.225628 31.810586 116.949861 30.362117S118.036212 27.534818 118.036212 26.225627C118.036212 24.470752 117.444288 22.99443 116.260446 21.796657C115.076603 20.598884 113.621169 20.0 111.89415 20.0C108.579389 20.0 106.267396 22.005571 104.958217 26.016713Z" fill="#da0a0a" />
<path d="M105.041783 183.983287C105.598884 186.044567 106.497213 187.562675 107.736769 188.537604S110.348189 190.0 111.852368 190.0C113.551533 190.0 115.006964 189.415042 116.218663 188.245125S118.036212 185.668522 118.036212 184.02507C118.036212 182.520891 117.667131 180.988857 116.928969 179.428969S115.25766 176.364904 114.129526 174.916435S111.852368 172.012535 110.682451 170.550139S108.391366 167.4234 107.318942 165.557103S105.487467 161.83844 105.041783 160.0C104.54039 161.922006 103.739553 163.850976 102.639276 165.786908S100.4039 169.435932 99.233983 170.926184C98.064067 172.416436 96.922007 173.878831 95.807799 175.31337S93.774372 178.189414 93.050139 179.637883S91.963788 182.465182 91.963788 183.774373C91.963788 185.529248 92.555712 187.00557 93.739554 188.203343C94.923397 189.401116 96.378831 190.0 98.10585 190.0C101.420611 190.0 103.732604 187.994429 105.041783 183.983287Z" fill="#da0a0a" />
<path d="M104.958217 72.68338C104.401116 70.6221 103.502787 69.103991 102.263231 68.129062S99.651811 66.666667 98.147632 66.666667C96.448467 66.666667 94.993036 67.251625 93.781337 68.421541S91.963788 70.998144 91.963788 72.641597C91.963788 74.145775 92.332869 75.67781 93.071031 77.237697S94.74234 80.301763 95.870474 81.750232S98.147632 84.654132 99.317549 86.116527S101.608634 89.243267 102.681058 91.109564S104.512533 94.828227 104.958217 96.666667C105.45961 94.744661 106.260447 92.81569 107.360724 90.879759S109.5961 87.230735 110.766017 85.740483C111.935933 84.250231 113.077993 82.787835 114.192201 81.353296S116.225628 78.477253 116.949861 77.028784S118.036212 74.201484 118.036212 72.892293C118.036212 71.137419 117.444288 69.661097 116.260446 68.463324C115.076603 67.265551 113.621169 66.666667 111.89415 66.666667C108.579389 66.666667 106.267396 68.672238 104.958217 72.68338Z" fill="#da0a0a" />
<path d="M105.041783 137.31662C105.598884 139.3779 106.497213 140.896009 107.736769 141.870938S110.348189 143.333333 111.852368 143.333333C113.551533 143.333333 115.006964 142.748375 116.218663 141.578459S118.036212 139.001856 118.036212 137.358403C118.036212 135.854225 117.667131 134.32219 116.928969 132.762303S115.25766 129.698237 114.129526 128.249768S111.852368 125.345868 110.682451 123.883473S108.391366 120.756733 107.318942 118.890436S105.487467 115.171773 105.041783 113.333333C104.54039 115.255339 103.739553 117.18431 102.639276 119.120241S100.4039 122.769265 99.233983 124.259517C98.064067 125.749769 96.922007 127.212165 95.807799 128.646704S93.774372 131.522747 93.050139 132.971216S91.963788 135.798516 91.963788 137.107707C91.963788 138.862581 92.555712 140.338903 93.739554 141.536676C94.923397 142.734449 96.378831 143.333333 98.10585 143.333333C101.420611 143.333333 103.732604 141.327762 105.041783 137.31662Z" fill="#da0a0a" />
<path d="M74.958217 49.350046C74.401116 47.288766 73.502787 45.770658 72.263231 44.795729S69.651811 43.333333 68.147632 43.333333C66.448467 43.333333 64.993036 43.918292 63.781337 45.088208S61.963788 47.664811 61.963788 49.308264C61.963788 50.812442 62.332869 52.344477 63.071031 53.904364S64.74234 56.968429 65.870474 58.416899S68.147632 61.320799 69.317549 62.783194S71.608634 65.909934 72.681058 67.77623S74.512533 71.494893 74.958217 73.333333C75.45961 71.411328 76.260447 69.482357 77.360724 67.546425S79.5961 63.897402 80.766017 62.407149C81.935933 60.916897 83.077993 59.454502 84.192201 58.019963S86.225628 55.14392 86.949861 53.69545S88.036212 50.868151 88.036212 49.55896C88.036212 47.804085 87.444288 46.327764 86.260446 45.129991C85.076603 43.932218 83.621169 43.333333 81.89415 43.333333C78.579389 43.333333 76.267396 45.338904 74.958217 49.350046Z" fill="#da0a0a" />
<path d="M142.386076 26.0554Q143.14557 26.0554 143.14557 25.371856Q143.14557 24.764261 142.462025 24.574387Q135.512658 22.40983 134.183544 16.789577Q135.436709 17.62502 136.670886 17.966792T139.234177 18.308565Q141.056962 18.308565 142.575949 17.492109T144.968354 15.251603T145.841772 12.004767Q145.841772 9.954134 144.740506 8.378185T141.85443 5.928818T138.056962 5.0554Q134.449367 5.0554 132.303797 7.295906T130.158228 13.40983Q130.158228 16.48578 131.620253 19.144008T135.740506 23.606033T141.816456 26.017425Q142.006329 26.0554 142.386076 26.0554ZM135.968354 16.12502Q134.943038 15.650337 134.031646 14.852868Q133.803797 13.941476 133.803797 13.371856Q133.803797 11.852868 134.202532 10.219957T135.56962 7.428818T138.056962 6.27059Q139.841772 6.27059 141.018987 7.77059T142.196203 11.662995Q142.196203 13.903501 141.018987 15.251603T137.943038 16.599704Q136.993671 16.599704 135.968354 16.12502Z" fill="#da0a0a" />
<path d="M137.978064 34.950441C137.685586 33.868269 137.213963 33.071262 136.563196 32.559424S135.192201 31.791667 134.402507 31.791667C133.510445 31.791667 132.746344 32.09877 132.110202 32.712976S131.155989 34.065692 131.155989 34.928505C131.155989 35.718199 131.349756 36.522517 131.737291 37.341458S132.614728 38.950092 133.206999 39.710539S134.402507 41.235086 135.016713 42.002844S136.219533 43.644382 136.782556 44.624188S137.74408 46.576486 137.978064 47.541667C138.241295 46.532614 138.661735 45.519904 139.23938 44.50354S140.412953 42.587802 141.027159 41.80542C141.641365 41.023038 142.240946 40.25528 142.825905 39.502147S143.893455 37.992225 144.273677 37.231778S144.844011 35.747446 144.844011 35.060121C144.844011 34.138812 144.533251 33.363743 143.911734 32.734912C143.290217 32.106081 142.526113 31.791667 141.619429 31.791667C139.879179 31.791667 138.665383 32.844591 137.978064 34.950441Z" fill="#da0a0a" />
<path d="M7.613924 183.9446Q6.85443 183.9446 6.85443 184.628144Q6.85443 185.235739 7.537975 185.425613Q14.487342 187.59017 15.816456 193.210423Q14.563291 192.37498 13.329114 192.033208T10.765823 191.691435Q8.943038 191.691435 7.424051 192.507891T5.031646 194.748397T4.158228 197.995233Q4.158228 200.045866 5.259494 201.621815T8.14557 204.071182T11.943038 204.9446Q15.550633 204.9446 17.696203 202.704094T19.841772 196.59017Q19.841772 193.51422 18.379747 190.855992T14.259494 186.393967T8.183544 183.982575Q7.993671 183.9446 7.613924 183.9446ZM14.031646 193.87498Q15.056962 194.349663 15.968354 195.147132Q16.196203 196.058524 16.196203 196.628144Q16.196203 198.147132 15.797468 199.780043T14.43038 202.571182T11.943038 203.72941Q10.158228 203.72941 8.981013 202.22941T7.803797 198.337005Q7.803797 196.096499 8.981013 194.748397T12.056962 193.400296Q13.006329 193.400296 14.031646 193.87498Z" fill="#da0a0a" />
<path d="M12.021936 175.049559C12.314414 176.131731 12.786037 176.928738 13.436804 177.440576S14.807799 178.208333 15.597493 178.208333C16.489555 178.208333 17.253656 177.90123 17.889798 177.287024S18.844011 175.934308 18.844011 175.071495C18.844011 174.281801 18.650244 173.477483 18.262709 172.658542S17.385272 171.049908 16.793001 170.289461S15.597493 168.764914 14.983287 167.997156S13.780467 166.355618 13.217444 165.375812S12.25592 163.423514 12.021936 162.458333C11.758705 163.467386 11.338265 164.480096 10.76062 165.49646S9.587047 167.412198 8.972841 168.19458C8.358635 168.976962 7.759054 169.74472 7.174095 170.497853S6.106545 172.007775 5.726323 172.768222S5.155989 174.252554 5.155989 174.939879C5.155989 175.861188 5.466749 176.636257 6.088266 177.265088C6.709783 177.893919 7.473887 178.208333 8.380571 178.208333C10.120821 178.208333 11.334617 177.155409 12.021936 175.049559Z" fill="#da0a0a" />
</svg>
