<svg width="25.000000" height="35.000000" id="card-lightspade10">
<rect x="0" y="0" rx="1.25" ry="1.25" width="25" height="35.0" stroke="rgba(1,1,1,0.333)" fill="#fffdfa" />
<path d="M7.382979 6.64539C7.359338 6.891253 7.300236 7.108747 7.205674 7.297872C7.111111 7.486998 7.011821 7.631206 6.907801 7.730496S6.672577 7.914894 6.514184 7.985816C6.355792 8.056738 6.234043 8.102837 6.148936 8.124113S5.959811 8.165485 5.836879 8.184397C5.817967 8.189125 5.803782 8.191489 5.794326 8.191489V8.333333H9.205674V8.191489C8.803782 8.120567 8.498818 8.016548 8.29078 7.879433C7.893617 7.614657 7.66903 7.20331 7.617021 6.64539C7.862884 7.02364 8.179669 7.212766 8.567376 7.212766C8.817967 7.212766 9.031915 7.125296 9.20922 6.950355S9.475177 6.562648 9.475177 6.312057C9.475177 6.099291 9.423168 5.905438 9.319149 5.730496C9.21513 5.555555 9.080378 5.395981 8.914894 5.251773S8.579196 4.957447 8.404255 4.801418C8.229314 4.64539 8.056738 4.440899 7.886525 4.187943S7.586289 3.650118 7.496454 3.333333C7.416076 3.64539 7.291962 3.926714 7.124113 4.177305S6.783688 4.631206 6.606383 4.787234S6.257683 5.094562 6.092199 5.241135S5.79078 5.548463 5.684397 5.723404S5.524823 6.094562 5.524823 6.312057C5.524823 6.562648 5.613475 6.775413 5.79078 6.950355S6.182033 7.212766 6.432624 7.212766C6.820331 7.212766 7.137116 7.02364 7.382979 6.64539Z" fill="#010101" />
<path d="M7.617021 28.35461C7.640662 28.108747 7.699764 27.891253 7.794326 27.702128C7.888889 27.513002 7.988179 27.368794 8.092199 27.269504S8.327423 27.085106 8.485816 27.014184C8.644208 26.943262 8.765957 26.897163 8.851064 26.875887S9.040189 26.834515 9.163121 26.815603C9.182033 26.810875 9.196218 26.808511 9.205674 26.808511V26.666667H5.794326V26.808511C6.196218 26.879433 6.501182 26.983452 6.70922 27.120567C7.106383 27.385343 7.33097 27.79669 7.382979 28.35461C7.137116 27.97636 6.820331 27.787234 6.432624 27.787234C6.182033 27.787234 5.968085 27.874704 5.79078 28.049645S5.524823 28.437352 5.524823 28.687943C5.524823 28.900709 5.576832 29.094562 5.680851 29.269504C5.78487 29.444445 5.919622 29.604019 6.085106 29.748227S6.420804 30.042553 6.595745 30.198582C6.770686 30.35461 6.943262 30.559101 7.113475 30.812057S7.413711 31.349882 7.503546 31.666667C7.583924 31.35461 7.708038 31.073286 7.875887 30.822695S8.216312 30.368794 8.393617 30.212766S8.742317 29.905438 8.907801 29.758865S9.20922 29.451537 9.315603 29.276596S9.475177 28.905438 9.475177 28.687943C9.475177 28.437352 9.386525 28.224587 9.20922 28.049645S8.817967 27.787234 8.567376 27.787234C8.179669 27.787234 7.862884 27.97636 7.617021 28.35461Z" fill="#010101" />
<path d="M7.382979 14.423168C7.359338 14.669031 7.300236 14.886525 7.205674 15.07565C7.111111 15.264776 7.011821 15.408983 6.907801 15.508274S6.672577 15.692671 6.514184 15.763593C6.355792 15.834515 6.234043 15.880615 6.148936 15.901891S5.959811 15.943262 5.836879 15.962175C5.817967 15.966903 5.803782 15.969267 5.794326 15.969267V16.111111H9.205674V15.969267C8.803782 15.898345 8.498818 15.794326 8.29078 15.65721C7.893617 15.392435 7.66903 14.981088 7.617021 14.423168C7.862884 14.801418 8.179669 14.990544 8.567376 14.990544C8.817967 14.990544 9.031915 14.903074 9.20922 14.728132S9.475177 14.340425 9.475177 14.089835C9.475177 13.877069 9.423168 13.683215 9.319149 13.508274C9.21513 13.333333 9.080378 13.173759 8.914894 13.029551S8.579196 12.735225 8.404255 12.579196C8.229314 12.423168 8.056738 12.218676 7.886525 11.965721S7.586289 11.427896 7.496454 11.111111C7.416076 11.423168 7.291962 11.704492 7.124113 11.955083S6.783688 12.408983 6.606383 12.565012S6.257683 12.87234 6.092199 13.018913S5.79078 13.326241 5.684397 13.501182S5.524823 13.87234 5.524823 14.089835C5.524823 14.340425 5.613475 14.553191 5.79078 14.728132S6.182033 14.990544 6.432624 14.990544C6.820331 14.990544 7.137116 14.801418 7.382979 14.423168Z" fill="#010101" />
<path d="M7.617021 20.576832C7.640662 20.330969 7.699764 20.113475 7.794326 19.92435C7.888889 19.735224 7.988179 19.591017 8.092199 19.491726S8.327423 19.307329 8.485816 19.236407C8.644208 19.165485 8.765957 19.119385 8.851064 19.098109S9.040189 19.056738 9.163121 19.037825C9.182033 19.033097 9.196218 19.030733 9.205674 19.030733V18.888889H5.794326V19.030733C6.196218 19.101655 6.501182 19.205674 6.70922 19.34279C7.106383 19.607565 7.33097 20.018912 7.382979 20.576832C7.137116 20.198582 6.820331 20.009456 6.432624 20.009456C6.182033 20.009456 5.968085 20.096926 5.79078 20.271868S5.524823 20.659575 5.524823 20.910165C5.524823 21.122931 5.576832 21.316785 5.680851 21.491726C5.78487 21.666667 5.919622 21.826241 6.085106 21.970449S6.420804 22.264775 6.595745 22.420804C6.770686 22.576832 6.943262 22.781324 7.113475 23.034279S7.413711 23.572104 7.503546 23.888889C7.583924 23.576832 7.708038 23.295508 7.875887 23.044917S8.216312 22.591017 8.393617 22.434988S8.742317 22.12766 8.907801 21.981087S9.20922 21.673759 9.315603 21.498818S9.475177 21.12766 9.475177 20.910165C9.475177 20.659575 9.386525 20.446809 9.20922 20.271868S8.817967 20.009456 8.567376 20.009456C8.179669 20.009456 7.862884 20.198582 7.617021 20.576832Z" fill="#010101" />
<path d="M17.382979 6.64539C17.359338 6.891253 17.300236 7.108747 17.205674 7.297872C17.111111 7.486998 17.011821 7.631206 16.907801 7.730496S16.672577 7.914894 16.514184 7.985816C16.355792 8.056738 16.234043 8.102837 16.148936 8.124113S15.959811 8.165485 15.836879 8.184397C15.817967 8.189125 15.803782 8.191489 15.794326 8.191489V8.333333H19.205674V8.191489C18.803782 8.120567 18.498818 8.016548 18.29078 7.879433C17.893617 7.614657 17.66903 7.20331 17.617021 6.64539C17.862884 7.02364 18.179669 7.212766 18.567376 7.212766C18.817967 7.212766 19.031915 7.125296 19.20922 6.950355S19.475177 6.562648 19.475177 6.312057C19.475177 6.099291 19.423168 5.905438 19.319149 5.730496C19.21513 5.555555 19.080378 5.395981 18.914894 5.251773S18.579196 4.957447 18.404255 4.801418C18.229314 4.64539 18.056738 4.440899 17.886525 4.187943S17.586289 3.650118 17.496454 3.333333C17.416076 3.64539 17.291962 3.926714 17.124113 4.177305S16.783688 4.631206 16.606383 4.787234S16.257683 5.094562 16.092199 5.241135S15.79078 5.548463 15.684397 5.723404S15.524823 6.094562 15.524823 6.312057C15.524823 6.562648 15.613475 6.775413 15.79078 6.950355S16.182033 7.212766 16.432624 7.212766C16.820331 7.212766 17.137116 7.02364 17.382979 6.64539Z" fill="#010101" />
<path d="M17.617021 28.35461C17.640662 28.108747 17.699764 27.891253 17.794326 27.702128C17.888889 27.513002 17.988179 27.368794 18.092199 27.269504S18.327423 27.085106 18.485816 27.014184C18.644208 26.943262 18.765957 26.897163 18.851064 26.875887S19.040189 26.834515 19.163121 26.815603C19.182033 26.810875 19.196218 26.808511 19.205674 26.808511V26.666667H15.794326V26.808511C16.196218 26.879433 16.501182 26.983452 16.70922 27.120567C17.106383 27.385343 17.33097 27.79669 17.382979 28.35461C17.137116 27.97636 16.820331 27.787234 16.432624 27.787234C16.182033 27.787234 15.968085 27.874704 15.79078 28.049645S15.524823 28.437352 15.524823 28.687943C15.524823 28.900709 15.576832 29.094562 15.680851 29.269504C15.78487 29.444445 15.919622 29.604019 16.085106 29.748227S16.420804 30.042553 16.595745 30.198582C16.770686 30.35461 16.943262 30.559101 17.113475 30.812057S17.413711 31.349882 17.503546 31.666667C17.583924 31.35461 17.708038 31.073286 17.875887 30.822695S18.216312 30.368794 18.393617 30.212766S18.742317 29.905438 18.907801 29.758865S19.20922 29.451537 19.315603 29.276596S19.475177 28.905438 19.475177 28.687943C19.475177 28.437352 19.386525 28.224587 19.20922 28.049645S18.817967 27.787234 18.567376 27.787234C18.179669 27.787234 17.862884 27.97636 17.617021 28.35461Z" fill="#010101" />
<path d="M17.382979 14.423168C17.359338 14.669031 17.300236 14.886525 17.205674 15.07565C17.111111 15.264776 17.011821 15.408983 16.907801 15.508274S16.672577 15.692671 16.514184 15.763593C16.355792 15.834515 16.234043 15.880615 16.148936 15.901891S15.959811 15.943262 15.836879 15.962175C15.817967 15.966903 15.803782 15.969267 15.794326 15.969267V16.111111H19.205674V15.969267C18.803782 15.898345 18.498818 15.794326 18.29078 15.65721C17.893617 15.392435 17.66903 14.981088 17.617021 14.423168C17.862884 14.801418 18.179669 14.990544 18.567376 14.990544C18.817967 14.990544 19.031915 14.903074 19.20922 14.728132S19.475177 14.340425 19.475177 14.089835C19.475177 13.877069 19.423168 13.683215 19.319149 13.508274C19.21513 13.333333 19.080378 13.173759 18.914894 13.029551S18.579196 12.735225 18.404255 12.579196C18.229314 12.423168 18.056738 12.218676 17.886525 11.965721S17.586289 11.427896 17.496454 11.111111C17.416076 11.423168 17.291962 11.704492 17.124113 11.955083S16.783688 12.408983 16.606383 12.565012S16.257683 12.87234 16.092199 13.018913S15.79078 13.326241 15.684397 13.501182S15.524823 13.87234 15.524823 14.089835C15.524823 14.340425 15.613475 14.553191 15.79078 14.728132S16.182033 14.990544 16.432624 14.990544C16.820331 14.990544 17.137116 14.801418 17.382979 14.423168Z" fill="#010101" />
<path d="M17.617021 20.576832C17.640662 20.330969 17.699764 20.113475 17.794326 19.92435C17.888889 19.735224 17.988179 19.591017 18.092199 19.491726S18.327423 19.307329 18.485816 19.236407C18.644208 19.165485 18.765957 19.119385 18.851064 19.098109S19.040189 19.056738 19.163121 19.037825C19.182033 19.033097 19.196218 19.030733 19.205674 19.030733V18.888889H15.794326V19.030733C16.196218 19.101655 16.501182 19.205674 16.70922 19.34279C17.106383 19.607565 17.33097 20.018912 17.382979 20.576832C17.137116 20.198582 16.820331 20.009456 16.432624 20.009456C16.182033 20.009456 15.968085 20.096926 15.79078 20.271868S15.524823 20.659575 15.524823 20.910165C15.524823 21.122931 15.576832 21.316785 15.680851 21.491726C15.78487 21.666667 15.919622 21.826241 16.085106 21.970449S16.420804 22.264775 16.595745 22.420804C16.770686 22.576832 16.943262 22.781324 17.113475 23.034279S17.413711 23.572104 17.503546 23.888889C17.583924 23.576832 17.708038 23.295508 17.875887 23.044917S18.216312 22.591017 18.393617 22.434988S18.742317 22.12766 18.907801 21.981087S19.20922 21.673759 19.315603 21.498818S19.475177 21.12766 19.475177 20.910165C19.475177 20.659575 19.386525 20.446809 19.20922 20.271868S18.817967 20.009456 18.567376 20.009456C18.179669 20.009456 17.862884 20.198582 17.617021 20.576832Z" fill="#010101" />
<path d="M12.382979 10.534279C12.359338 10.780142 12.300236 10.997636 12.205674 11.186761C12.111111 11.375887 12.011821 11.520095 11.907801 11.619385S11.672577 11.803783 11.514184 11.874704C11.355792 11.945626 11.234043 11.991726 11.148936 12.013002S10.959811 12.054373 10.836879 12.073286C10.817967 12.078014 10.803782 12.080378 10.794326 12.080378V12.222222H14.205674V12.080378C13.803782 12.009456 13.498818 11.905437 13.29078 11.768322C12.893617 11.503546 12.66903 11.092199 12.617021 10.534279C12.862884 10.912529 13.179669 11.101655 13.567376 11.101655C13.817967 11.101655 14.031915 11.014185 14.20922 10.839243S14.475177 10.451536 14.475177 10.200946C14.475177 9.98818 14.423168 9.794326 14.319149 9.619385C14.21513 9.444444 14.080378 9.28487 13.914894 9.140662S13.579196 8.846336 13.404255 8.690307C13.229314 8.534279 13.056738 8.329787 12.886525 8.076832S12.586289 7.539007 12.496454 7.222222C12.416076 7.534279 12.291962 7.815603 12.124113 8.066194S11.783688 8.520095 11.606383 8.676123S11.257683 8.983451 11.092199 9.130024S10.79078 9.437352 10.684397 9.612293S10.524823 9.983451 10.524823 10.200946C10.524823 10.451536 10.613475 10.664302 10.79078 10.839243S11.182033 11.101655 11.432624 11.101655C11.820331 11.101655 12.137116 10.912529 12.382979 10.534279Z" fill="#010101" />
<path d="M12.617021 24.465721C12.640662 24.219858 12.699764 24.002364 12.794326 23.813239C12.888889 23.624113 12.988179 23.479905 13.092199 23.380615S13.327423 23.196217 13.485816 23.125296C13.644208 23.054374 13.765957 23.008274 13.851064 22.986998S14.040189 22.945627 14.163121 22.926714C14.182033 22.921986 14.196218 22.919622 14.205674 22.919622V22.777778H10.794326V22.919622C11.196218 22.990544 11.501182 23.094563 11.70922 23.231678C12.106383 23.496454 12.33097 23.907801 12.382979 24.465721C12.137116 24.087471 11.820331 23.898345 11.432624 23.898345C11.182033 23.898345 10.968085 23.985815 10.79078 24.160757S10.524823 24.548464 10.524823 24.799054C10.524823 25.01182 10.576832 25.205674 10.680851 25.380615C10.78487 25.555556 10.919622 25.71513 11.085106 25.859338S11.420804 26.153664 11.595745 26.309693C11.770686 26.465721 11.943262 26.670213 12.113475 26.923168S12.413711 27.460993 12.503546 27.777778C12.583924 27.465721 12.708038 27.184397 12.875887 26.933806S13.216312 26.479905 13.393617 26.323877S13.742317 26.016549 13.907801 25.869976S14.20922 25.562648 14.315603 25.387707S14.475177 25.016549 14.475177 24.799054C14.475177 24.548464 14.386525 24.335698 14.20922 24.160757S13.817967 23.898345 13.567376 23.898345C13.179669 23.898345 12.862884 24.087471 12.617021 24.465721Z" fill="#010101" />
<path d="M24.725597 4.151658Q24.721355 4.075294 24.706506 4.049839T24.657719 4.024385Q24.420146 4.024385 24.32045 3.995748T24.171966 3.846203T24.123179 3.43893V2.115294Q24.118936 1.816203 24.14227 1.685748T24.224996 1.517112T24.420146 1.47893H24.628022Q24.704385 1.47893 24.704385 1.326203Q24.700143 1.230748 24.678931 1.208476T24.625901 1.186203H24.581356Q24.403176 1.186203 24.233481 1.100294T23.864394 0.893476Q23.838939 0.880748 23.82197 0.880748Q23.754092 0.880748 23.754092 1.027112V3.43893Q23.754092 3.71893 23.709547 3.839839T23.569548 3.992567T23.261975 4.024385H23.219552Q23.185612 4.024385 23.170764 4.049839T23.151673 4.151658Q23.151673 4.304385 23.228036 4.304385Q23.533488 4.285294 23.940756 4.285294Q24.343783 4.285294 24.649234 4.304385Q24.725597 4.304385 24.725597 4.151658ZM22.841963 4.100748Q23.06893 3.85893 23.181354 3.458021T23.293777 2.586203Q23.293777 2.10893 23.181354 1.714385T22.841963 1.081203T22.28409 0.842567Q21.970154 0.842567 21.741065 1.084385T21.39319 1.727112T21.274403 2.586203T21.39319 3.445294T21.741065 4.094385T22.28409 4.342567Q22.614996 4.342567 22.841963 4.100748ZM21.83864 3.712567Q21.681672 3.318021 21.681672 2.586203T21.83864 1.466203T22.279847 1.078021Q22.572572 1.078021 22.72954 1.463021T22.886508 2.586203T22.72954 3.715748T22.279847 4.107112Q21.995608 4.107112 21.83864 3.712567Z" fill="#010101" />
<path d="M22.938564 7.037441C22.926152 7.166519 22.895124 7.280703 22.845479 7.379994C22.795833 7.479285 22.743706 7.554994 22.689096 7.607122S22.565603 7.70393 22.482447 7.741164C22.399291 7.778398 22.335372 7.8026 22.290691 7.813771S22.191401 7.835491 22.126862 7.84542C22.116933 7.847902 22.109486 7.849143 22.104521 7.849143V7.923611H23.895479V7.849143C23.684486 7.811909 23.524379 7.757299 23.41516 7.685313C23.206649 7.546306 23.088741 7.330349 23.061436 7.037441C23.190514 7.236022 23.356826 7.335313 23.560372 7.335313C23.691933 7.335313 23.804255 7.289391 23.89734 7.197547S24.036968 6.994001 24.036968 6.862441C24.036968 6.750739 24.009663 6.648966 23.955053 6.557122C23.900443 6.465278 23.829698 6.381501 23.742819 6.305792S23.566578 6.151271 23.474734 6.069356C23.38289 5.987441 23.292287 5.880083 23.202926 5.747281S23.045302 5.464923 22.998138 5.298611C22.95594 5.462441 22.89078 5.610136 22.80266 5.741696S22.623936 5.979994 22.530851 6.061909S22.347784 6.223256 22.260904 6.300207S22.10266 6.461554 22.046809 6.553398S21.963032 6.748256 21.963032 6.862441C21.963032 6.994001 22.009574 7.105703 22.10266 7.197547S22.308067 7.335313 22.439628 7.335313C22.643174 7.335313 22.809486 7.236022 22.938564 7.037441Z" fill="#010101" />
<path d="M0.274403 30.848342Q0.278645 30.924706 0.293494 30.950161T0.342281 30.975615Q0.579854 30.975615 0.67955 31.004252T0.828034 31.153797T0.876821 31.56107V32.884706Q0.881064 33.183797 0.85773 33.314252T0.775004 33.482888T0.579854 33.52107H0.371978Q0.295615 33.52107 0.295615 33.673797Q0.299857 33.769252 0.321069 33.791524T0.374099 33.813797H0.418644Q0.596824 33.813797 0.766519 33.899706T1.135606 34.106524Q1.161061 34.119252 1.17803 34.119252Q1.245908 34.119252 1.245908 33.972888V31.56107Q1.245908 31.28107 1.290453 31.160161T1.430452 31.007433T1.738025 30.975615H1.780448Q1.814388 30.975615 1.829236 30.950161T1.848327 30.848342Q1.848327 30.695615 1.771964 30.695615Q1.466512 30.714706 1.059244 30.714706Q0.656217 30.714706 0.350766 30.695615Q0.274403 30.695615 0.274403 30.848342ZM2.158037 30.899252Q1.93107 31.14107 1.818646 31.541979T1.706223 32.413797Q1.706223 32.89107 1.818646 33.285615T2.158037 33.918797T2.71591 34.157433Q3.029846 34.157433 3.258935 33.915615T3.60681 33.272888T3.725597 32.413797T3.60681 31.554706T3.258935 30.905615T2.71591 30.657433Q2.385004 30.657433 2.158037 30.899252ZM3.16136 31.287433Q3.318328 31.681979 3.318328 32.413797T3.16136 33.533797T2.720153 33.921979Q2.427428 33.921979 2.27046 33.536979T2.113492 32.413797T2.27046 31.284252T2.720153 30.892888Q3.004392 30.892888 3.16136 31.287433Z" fill="#010101" />
<path d="M2.061436 27.962559C2.073848 27.833481 2.104876 27.719297 2.154521 27.620006C2.204167 27.520715 2.256294 27.445006 2.310904 27.392878S2.434397 27.29607 2.517553 27.258836C2.600709 27.221602 2.664628 27.1974 2.709309 27.186229S2.808599 27.164509 2.873138 27.15458C2.883067 27.152098 2.890514 27.150857 2.895479 27.150857V27.076389H1.104521V27.150857C1.315514 27.188091 1.475621 27.242701 1.58484 27.314687C1.793351 27.453694 1.911259 27.669651 1.938564 27.962559C1.809486 27.763978 1.643174 27.664687 1.439628 27.664687C1.308067 27.664687 1.195745 27.710609 1.10266 27.802453S0.963032 28.005999 0.963032 28.137559C0.963032 28.249261 0.990337 28.351034 1.044947 28.442878C1.099557 28.534722 1.170302 28.618499 1.257181 28.694208S1.433422 28.848729 1.525266 28.930644C1.61711 29.012559 1.707713 29.119917 1.797074 29.252719S1.954698 29.535077 2.001862 29.701389C2.04406 29.537559 2.10922 29.389864 2.19734 29.258304S2.376064 29.020006 2.469149 28.938091S2.652216 28.776744 2.739096 28.699793S2.89734 28.538446 2.953191 28.446602S3.036968 28.251744 3.036968 28.137559C3.036968 28.005999 2.990426 27.894297 2.89734 27.802453S2.691933 27.664687 2.560372 27.664687C2.356826 27.664687 2.190514 27.763978 2.061436 27.962559Z" fill="#010101" />
</svg>
