<svg width="500.000000" height="700.000000" id="card-realdiamond6">
<radialGradient id="card-realwhitegradient" cx="250.0" cy="350.0" r="500" gradientTransform="matrix(1 0 0 1 0 -.25)" gradientUnits="userSpaceOnUse">
<stop stop-color="#FDFAF4" offset=".15"/>
<stop stop-color="#FDF9F2" offset=".35"/>
<stop stop-color="#FCF7F1" offset=".5"/>
<stop stop-color="#FDFDF8" offset=".75"/>
<stop stop-color="#FFFDFA" offset="1"/>
</radialGradient>
<rect x="0" y="0" rx="25.0" ry="25.0" width="500" height="700.0" stroke="rgba(1,1,1,0.333)" fill="url(#card-realwhitegradient)" />
<path d="M150.139082 66.666667C147.913769 71.117293 142.535925 79.114511 134.005563 90.658322C125.475202 102.202133 118.613769 110.848447 113.421419 116.597126C119.911919 124.014831 126.889193 132.823412 134.353268 143.022717C141.817344 153.222063 147.079277 161.103384 150.139082 166.666667C157.000459 154.427446 169.14701 137.737599 186.578581 116.597126C168.68331 94.993092 156.536857 78.34956 150.139082 66.666667Z" fill="#da0a0a" />
<path d="M149.860918 633.333333C152.086231 628.882707 157.464075 620.885489 165.994437 609.341678C174.524798 597.797867 181.386231 589.151553 186.578581 583.402874C180.088081 575.985169 173.110807 567.176588 165.646732 556.977283C158.182656 546.777937 152.920723 538.896616 149.860918 533.333333C142.999541 545.572554 130.85299 562.262401 113.421419 583.402874C131.31669 605.006908 143.463143 621.65044 149.860918 633.333333Z" fill="#da0a0a" />
<path d="M150.139082 300.0C147.913769 304.450626 142.535925 312.447844 134.005563 323.991655C125.475202 335.535466 118.613769 344.18178 113.421419 349.930459C119.911919 357.348164 126.889193 366.156745 134.353268 376.35605C141.817344 386.555396 147.079277 394.436718 150.139082 400.0C157.000459 387.760779 169.14701 371.070932 186.578581 349.930459C168.68331 328.326426 156.536857 311.682893 150.139082 300.0Z" fill="#da0a0a" />
<path d="M350.139082 66.666667C347.913769 71.117293 342.535925 79.114511 334.005563 90.658322C325.475202 102.202133 318.613769 110.848447 313.421419 116.597126C319.911919 124.014831 326.889193 132.823412 334.353268 143.022717C341.817344 153.222063 347.079277 161.103384 350.139082 166.666667C357.000459 154.427446 369.14701 137.737599 386.578581 116.597126C368.68331 94.993092 356.536857 78.34956 350.139082 66.666667Z" fill="#da0a0a" />
<path d="M349.860918 633.333333C352.086231 628.882707 357.464075 620.885489 365.994437 609.341678C374.524798 597.797867 381.386231 589.151553 386.578581 583.402874C380.088081 575.985169 373.110807 567.176588 365.646732 556.977283C358.182656 546.777937 352.920723 538.896616 349.860918 533.333333C342.999541 545.572554 330.85299 562.262401 313.421419 583.402874C331.31669 605.006908 343.463143 621.65044 349.860918 633.333333Z" fill="#da0a0a" />
<path d="M350.139082 300.0C347.913769 304.450626 342.535925 312.447844 334.005563 323.991655C325.475202 335.535466 318.613769 344.18178 313.421419 349.930459C319.911919 357.348164 326.889193 366.156745 334.353268 376.35605C341.817344 386.555396 347.079277 394.436718 350.139082 400.0C357.000459 387.760779 369.14701 371.070932 386.578581 349.930459C368.68331 328.326426 356.536857 311.682893 350.139082 300.0Z" fill="#da0a0a" />
<path d="M478.987342 79.382979Q486.139241 71.914624 486.139241 59.003232Q486.139241 48.750068 481.265823 39.889308T467.531646 25.01589T447.278481 16.977916Q446.64557 16.851333 445.379747 16.851333Q442.848101 16.851333 442.848101 19.129814Q442.848101 21.155131 445.126582 21.788042Q468.291139 29.003232 472.721519 47.737409Q468.544304 44.952599 464.43038 43.813359T455.886076 42.674118Q449.810127 42.674118 444.746835 45.395637T436.772152 52.863992T433.860759 63.686776Q433.860759 70.522219 437.531646 75.775384T447.151899 83.939941T459.810127 86.851333Q471.835443 86.851333 478.987342 79.382979ZM449.936709 77.8007Q446.012658 72.8007 446.012658 64.826017Q446.012658 57.357662 449.936709 52.863992T460.189873 48.370321Q463.35443 48.370321 466.772152 49.952599T473.227848 54.193105Q473.987342 57.23108 473.987342 59.129814Q473.987342 64.193105 472.658228 69.636143T468.101266 78.939941T459.810127 82.8007Q453.860759 82.8007 449.936709 77.8007Z" fill="#da0a0a" />
<path d="M460.073018 105.972222C458.904729 108.308801 456.081361 112.50734 451.602921 118.567841C447.124481 124.628342 443.522229 129.167657 440.796245 132.185713C444.203758 136.080008 447.866826 140.704514 451.785466 146.059149C455.704105 151.413805 458.46662 155.551499 460.073018 158.472222C463.675241 152.046631 470.05218 143.284461 479.203755 132.185713C469.808738 120.843596 463.43185 112.105741 460.073018 105.972222Z" fill="#da0a0a" />
<path d="M21.012658 620.617021Q13.860759 628.085376 13.860759 640.996768Q13.860759 651.249932 18.734177 660.110692T32.468354 674.98411T52.721519 683.022084Q53.35443 683.148667 54.620253 683.148667Q57.151899 683.148667 57.151899 680.870186Q57.151899 678.844869 54.873418 678.211958Q31.708861 670.996768 27.278481 652.262591Q31.455696 655.047401 35.56962 656.186641T44.113924 657.325882Q50.189873 657.325882 55.253165 654.604363T63.227848 647.136008T66.139241 636.313224Q66.139241 629.477781 62.468354 624.224616T52.848101 616.060059T40.189873 613.148667Q28.164557 613.148667 21.012658 620.617021ZM50.063291 622.1993Q53.987342 627.1993 53.987342 635.173983Q53.987342 642.642338 50.063291 647.136008T39.810127 651.629679Q36.64557 651.629679 33.227848 650.047401T26.772152 645.806895Q26.012658 642.76892 26.012658 640.870186Q26.012658 635.806895 27.341772 630.363857T31.898734 621.060059T40.189873 617.1993Q46.139241 617.1993 50.063291 622.1993Z" fill="#da0a0a" />
<path d="M39.926982 594.027778C41.095271 591.691199 43.918639 587.49266 48.397079 581.432159C52.875519 575.371658 56.477771 570.832343 59.203755 567.814287C55.796242 563.919992 52.133174 559.295486 48.214534 553.940851C44.295895 548.586195 41.53338 544.448501 39.926982 541.527778C36.324759 547.953369 29.94782 556.715539 20.796245 567.814287C30.191262 579.156404 36.56815 587.894259 39.926982 594.027778Z" fill="#da0a0a" />
</svg>
