<svg width="500.000000" height="700.000000" id="card-realheart8">
<radialGradient id="card-realwhitegradient" cx="250.0" cy="350.0" r="500" gradientTransform="matrix(1 0 0 1 0 -.25)" gradientUnits="userSpaceOnUse">
<stop stop-color="#FDFAF4" offset=".15"/>
<stop stop-color="#FDF9F2" offset=".35"/>
<stop stop-color="#FCF7F1" offset=".5"/>
<stop stop-color="#FDFDF8" offset=".75"/>
<stop stop-color="#FFFDFA" offset="1"/>
</radialGradient>
<rect x="0" y="0" rx="25.0" ry="25.0" width="500" height="700.0" stroke="rgba(1,1,1,0.333)" fill="url(#card-realwhitegradient)" />
<path d="M149.860724 86.722377C148.003719 79.851444 145.00929 74.791082 140.877437 71.541318S132.172702 66.666667 127.158774 66.666667C121.494889 66.666667 116.643454 68.616527 112.604457 72.516249S106.545961 81.104926 106.545961 86.583101C106.545961 91.597029 107.77623 96.703812 110.236769 101.903435S115.807799 112.116987 119.568245 116.945218S127.158774 126.624884 131.058496 131.499536S138.695446 141.922001 142.270195 148.14299S148.375111 160.538533 149.860724 166.666667C151.532033 160.259981 154.20149 153.830079 157.869081 147.376973S165.320334 135.213561 169.220056 130.246054C173.119777 125.278547 176.926643 120.403895 180.640669 115.622098S187.41876 106.035288 189.832869 101.207057S193.454039 91.782725 193.454039 87.418756C193.454039 81.569174 191.480961 76.648101 187.534819 72.655525C183.588677 68.662948 178.737228 66.666667 172.980501 66.666667C161.931295 66.666667 154.224652 73.351903 149.860724 86.722377Z" fill="#da0a0a" />
<path d="M150.139276 613.277623C151.996281 620.148556 154.99071 625.208918 159.122563 628.458682S167.827298 633.333333 172.841226 633.333333C178.505111 633.333333 183.356546 631.383473 187.395543 627.483751S193.454039 618.895074 193.454039 613.416899C193.454039 608.402971 192.22377 603.296188 189.763231 598.096565S184.192201 587.883013 180.431755 583.054782S172.841226 573.375116 168.941504 568.500464S161.304554 558.077999 157.729805 551.85701S151.624889 539.461467 150.139276 533.333333C148.467967 539.740019 145.79851 546.169921 142.130919 552.623027S134.679666 564.786439 130.779944 569.753946C126.880223 574.721453 123.073357 579.596105 119.359331 584.377902S112.58124 593.964712 110.167131 598.792943S106.545961 608.217275 106.545961 612.581244C106.545961 618.430826 108.519039 623.351899 112.465181 627.344475C116.411323 631.337052 121.262772 633.333333 127.019499 633.333333C138.068705 633.333333 145.775348 626.648097 150.139276 613.277623Z" fill="#da0a0a" />
<path d="M149.860724 242.277933C148.003719 235.406999 145.00929 230.346637 140.877437 227.096874S132.172702 222.222222 127.158774 222.222222C121.494889 222.222222 116.643454 224.172083 112.604457 228.071804S106.545961 236.660481 106.545961 242.138657C106.545961 247.152584 107.77623 252.259367 110.236769 257.458991S115.807799 267.672543 119.568245 272.500774S127.158774 282.180439 131.058496 287.055091S138.695446 297.477556 142.270195 303.698545S148.375111 316.094089 149.860724 322.222222C151.532033 315.815537 154.20149 309.385634 157.869081 302.932529S165.320334 290.769116 169.220056 285.801609C173.119777 280.834102 176.926643 275.959451 180.640669 271.177654S187.41876 261.590843 189.832869 256.762612S193.454039 247.338281 193.454039 242.974311C193.454039 237.124729 191.480961 232.203657 187.534819 228.21108C183.588677 224.218504 178.737228 222.222222 172.980501 222.222222C161.931295 222.222222 154.224652 228.907459 149.860724 242.277933Z" fill="#da0a0a" />
<path d="M150.139276 457.722067C151.996281 464.593001 154.99071 469.653363 159.122563 472.903126S167.827298 477.777778 172.841226 477.777778C178.505111 477.777778 183.356546 475.827917 187.395543 471.928196S193.454039 463.339519 193.454039 457.861343C193.454039 452.847416 192.22377 447.740633 189.763231 442.541009S184.192201 432.327457 180.431755 427.499226S172.841226 417.819561 168.941504 412.944909S161.304554 402.522444 157.729805 396.301455S151.624889 383.905911 150.139276 377.777778C148.467967 384.184463 145.79851 390.614366 142.130919 397.067471S134.679666 409.230884 130.779944 414.198391C126.880223 419.165898 123.073357 424.040549 119.359331 428.822346S112.58124 438.409157 110.167131 443.237388S106.545961 452.661719 106.545961 457.025689C106.545961 462.875271 108.519039 467.796343 112.465181 471.78892C116.411323 475.781496 121.262772 477.777778 127.019499 477.777778C138.068705 477.777778 145.775348 471.092541 150.139276 457.722067Z" fill="#da0a0a" />
<path d="M349.860724 86.722377C348.003719 79.851444 345.00929 74.791082 340.877437 71.541318S332.172702 66.666667 327.158774 66.666667C321.494889 66.666667 316.643454 68.616527 312.604457 72.516249S306.545961 81.104926 306.545961 86.583101C306.545961 91.597029 307.77623 96.703812 310.236769 101.903435S315.807799 112.116987 319.568245 116.945218S327.158774 126.624884 331.058496 131.499536S338.695446 141.922001 342.270195 148.14299S348.375111 160.538533 349.860724 166.666667C351.532033 160.259981 354.20149 153.830079 357.869081 147.376973S365.320334 135.213561 369.220056 130.246054C373.119777 125.278547 376.926643 120.403895 380.640669 115.622098S387.41876 106.035288 389.832869 101.207057S393.454039 91.782725 393.454039 87.418756C393.454039 81.569174 391.480961 76.648101 387.534819 72.655525C383.588677 68.662948 378.737228 66.666667 372.980501 66.666667C361.931295 66.666667 354.224652 73.351903 349.860724 86.722377Z" fill="#da0a0a" />
<path d="M350.139276 613.277623C351.996281 620.148556 354.99071 625.208918 359.122563 628.458682S367.827298 633.333333 372.841226 633.333333C378.505111 633.333333 383.356546 631.383473 387.395543 627.483751S393.454039 618.895074 393.454039 613.416899C393.454039 608.402971 392.22377 603.296188 389.763231 598.096565S384.192201 587.883013 380.431755 583.054782S372.841226 573.375116 368.941504 568.500464S361.304554 558.077999 357.729805 551.85701S351.624889 539.461467 350.139276 533.333333C348.467967 539.740019 345.79851 546.169921 342.130919 552.623027S334.679666 564.786439 330.779944 569.753946C326.880223 574.721453 323.073357 579.596105 319.359331 584.377902S312.58124 593.964712 310.167131 598.792943S306.545961 608.217275 306.545961 612.581244C306.545961 618.430826 308.519039 623.351899 312.465181 627.344475C316.411323 631.337052 321.262772 633.333333 327.019499 633.333333C338.068705 633.333333 345.775348 626.648097 350.139276 613.277623Z" fill="#da0a0a" />
<path d="M349.860724 242.277933C348.003719 235.406999 345.00929 230.346637 340.877437 227.096874S332.172702 222.222222 327.158774 222.222222C321.494889 222.222222 316.643454 224.172083 312.604457 228.071804S306.545961 236.660481 306.545961 242.138657C306.545961 247.152584 307.77623 252.259367 310.236769 257.458991S315.807799 267.672543 319.568245 272.500774S327.158774 282.180439 331.058496 287.055091S338.695446 297.477556 342.270195 303.698545S348.375111 316.094089 349.860724 322.222222C351.532033 315.815537 354.20149 309.385634 357.869081 302.932529S365.320334 290.769116 369.220056 285.801609C373.119777 280.834102 376.926643 275.959451 380.640669 271.177654S387.41876 261.590843 389.832869 256.762612S393.454039 247.338281 393.454039 242.974311C393.454039 237.124729 391.480961 232.203657 387.534819 228.21108C383.588677 224.218504 378.737228 222.222222 372.980501 222.222222C361.931295 222.222222 354.224652 228.907459 349.860724 242.277933Z" fill="#da0a0a" />
<path d="M350.139276 457.722067C351.996281 464.593001 354.99071 469.653363 359.122563 472.903126S367.827298 477.777778 372.841226 477.777778C378.505111 477.777778 383.356546 475.827917 387.395543 471.928196S393.454039 463.339519 393.454039 457.861343C393.454039 452.847416 392.22377 447.740633 389.763231 442.541009S384.192201 432.327457 380.431755 427.499226S372.841226 417.819561 368.941504 412.944909S361.304554 402.522444 357.729805 396.301455S351.624889 383.905911 350.139276 377.777778C348.467967 384.184463 345.79851 390.614366 342.130919 397.067471S334.679666 409.230884 330.779944 414.198391C326.880223 419.165898 323.073357 424.040549 319.359331 428.822346S312.58124 438.409157 310.167131 443.237388S306.545961 452.661719 306.545961 457.025689C306.545961 462.875271 308.519039 467.796343 312.465181 471.78892C316.411323 475.781496 321.262772 477.777778 327.019499 477.777778C338.068705 477.777778 345.775348 471.092541 350.139276 457.722067Z" fill="#da0a0a" />
<path d="M473.936364 84.433152Q479.6 82.01497 482.654545 77.81497T485.709091 68.269515Q485.709091 62.669515 481.954545 58.533152T470.818182 51.21497Q476.927273 47.524061 479.790909 43.705879T482.654545 35.051333Q482.654545 30.087697 479.345455 25.887697T470.563636 19.269515T458.854545 16.851333Q452.490909 16.851333 447.527273 19.142242T439.763636 25.378606T436.963636 34.287697Q436.963636 38.869515 440.145455 42.878606T449.690909 50.069515Q441.290909 53.633152 437.790909 57.578606T434.290909 67.633152Q434.290909 72.851333 437.663636 77.242242T447.081818 84.242242T460.890909 86.851333Q468.272727 86.851333 473.936364 84.433152ZM448.736364 41.733152Q446.890909 38.105879 446.890909 34.160424Q446.890909 28.687697 450.2 24.933152T459.490909 21.178606Q465.218182 21.178606 468.654545 24.487697T472.090909 32.887697Q472.090909 37.596788 467.445455 40.842242T454.018182 47.778606Q450.581818 45.360424 448.736364 41.733152ZM449.563636 79.087697Q445.745455 75.524061 445.745455 69.924061Q445.745455 66.233152 448.1 63.496788T454.209091 58.787697T465.981818 53.251333Q469.927273 55.924061 472.090909 59.61497T474.254545 67.760424Q474.254545 74.378606 470.245455 78.51497T459.745455 82.651333Q453.381818 82.651333 449.563636 79.087697Z" fill="#da0a0a" />
<path d="M459.92688 116.50147C458.951952 112.89423 457.379877 110.23754 455.210655 108.531414S450.640669 105.972222 448.008357 105.972222C445.034817 105.972222 442.487813 106.995899 440.36734 109.043253S437.18663 113.552308 437.18663 116.42835C437.18663 119.060662 437.832521 121.741723 439.124304 124.471526S442.049095 129.83364 444.023329 132.368462S448.008357 137.450286 450.05571 140.009478S454.065109 145.481273 455.941852 148.747292S459.146933 155.254952 459.92688 158.472222C460.804318 155.108712 462.205782 151.733014 464.131267 148.345133S468.043175 141.959342 470.090529 139.3514C472.137883 136.743459 474.136488 134.184267 476.086351 131.673824S479.644849 126.640748 480.912256 124.105927S482.81337 119.158153 482.81337 116.867069C482.81337 113.796038 481.777505 111.212475 479.70578 109.116373C477.634055 107.02027 475.087045 105.972222 472.064763 105.972222C466.26393 105.972222 462.217942 109.481972 459.92688 116.50147Z" fill="#da0a0a" />
<path d="M26.063636 615.566848Q20.4 617.98503 17.345455 622.18503T14.290909 631.730485Q14.290909 637.330485 18.045455 641.466848T29.181818 648.78503Q23.072727 652.475939 20.209091 656.294121T17.345455 664.948667Q17.345455 669.912303 20.654545 674.112303T29.436364 680.730485T41.145455 683.148667Q47.509091 683.148667 52.472727 680.857758T60.236364 674.621394T63.036364 665.712303Q63.036364 661.130485 59.854545 657.121394T50.309091 649.930485Q58.709091 646.366848 62.209091 642.421394T65.709091 632.366848Q65.709091 627.148667 62.336364 622.757758T52.918182 615.757758T39.109091 613.148667Q31.727273 613.148667 26.063636 615.566848ZM51.263636 658.266848Q53.109091 661.894121 53.109091 665.839576Q53.109091 671.312303 49.8 675.066848T40.509091 678.821394Q34.781818 678.821394 31.345455 675.512303T27.909091 667.112303Q27.909091 662.403212 32.554545 659.157758T45.981818 652.221394Q49.418182 654.639576 51.263636 658.266848ZM50.436364 620.912303Q54.254545 624.475939 54.254545 630.075939Q54.254545 633.766848 51.9 636.503212T45.790909 641.212303T34.018182 646.748667Q30.072727 644.075939 27.909091 640.38503T25.745455 632.239576Q25.745455 625.621394 29.754545 621.48503T40.254545 617.348667Q46.618182 617.348667 50.436364 620.912303Z" fill="#da0a0a" />
<path d="M40.07312 583.49853C41.048048 587.10577 42.620123 589.76246 44.789345 591.468586S49.359331 594.027778 51.991643 594.027778C54.965183 594.027778 57.512187 593.004101 59.63266 590.956747S62.81337 586.447692 62.81337 583.57165C62.81337 580.939338 62.167479 578.258277 60.875696 575.528474S57.950905 570.16636 55.976671 567.631538S51.991643 562.549714 49.94429 559.990522S45.934891 554.518727 44.058148 551.252708S40.853067 544.745048 40.07312 541.527778C39.195682 544.891288 37.794218 548.266986 35.868733 551.654867S31.956825 558.040658 29.909471 560.6486C27.862117 563.256541 25.863512 565.815733 23.913649 568.326176S20.355151 573.359252 19.087744 575.894073S17.18663 580.841847 17.18663 583.132931C17.18663 586.203962 18.222495 588.787525 20.29422 590.883627C22.365945 592.97973 24.912955 594.027778 27.935237 594.027778C33.73607 594.027778 37.782058 590.518028 40.07312 583.49853Z" fill="#da0a0a" />
</svg>
