<svg width="25.000000" height="35.000000" id="card-lightheart1">
<rect x="0" y="0" rx="1.25" ry="1.25" width="25" height="35.0" fill="#fffdfa" />
<path d="M16.615599 14.477716C16.615599 14.663416 16.555246 14.832869 16.43454 14.986072S16.253482 15.229805 16.253482 15.25766C16.253482 15.369081 16.316156 15.47818 16.441504 15.584958S16.694522 15.745125 16.824513 15.745125C16.963788 15.745125 17.079851 15.689415 17.172702 15.577994S17.311978 15.33194 17.311978 15.174095C17.311978 14.616992 17.049675 14.071494 16.52507 13.537604C16.000464 13.003714 15.464252 12.736769 14.916435 12.736769C14.424327 12.736769 13.876508 12.987465 13.272981 13.488858V13.057103C12.957288 12.704272 12.641597 12.527855 12.325905 12.527855C11.991643 12.527855 11.71077 12.662488 11.483287 12.931755S11.142061 13.535283 11.142061 13.93454C11.142061 14.120241 11.183844 14.384865 11.267409 14.728412C10.775302 15.053389 10.297121 15.215877 9.832869 15.215877C9.563603 15.215877 9.329155 15.123027 9.129526 14.937326S8.830084 14.533426 8.830084 14.28273C8.830084 14.050603 8.909007 13.881152 9.066852 13.774373S9.303621 13.553854 9.303621 13.433148C9.303621 13.163882 9.229341 12.94104 9.08078 12.764624S8.746518 12.5 8.523677 12.5C8.282266 12.5 8.082636 12.585887 7.924791 12.75766S7.688022 13.145311 7.688022 13.405292C7.688022 13.990251 7.989787 14.482358 8.593315 14.881616C9.196843 15.280873 9.791086 15.480501 10.376045 15.480501C10.5896 15.480501 10.928506 15.378366 11.392758 15.174095C11.513463 15.480501 11.796657 16.084029 12.24234 16.98468C12.270195 16.845404 12.284123 16.752553 12.284123 16.706128C12.284123 16.641133 12.281801 16.597029 12.277159 16.573816S12.256267 16.504178 12.228412 16.43454S12.168059 16.292943 12.130919 16.218663S12.031105 16.000464 11.942897 15.786908S11.754875 15.33194 11.643454 15.062674C11.78273 14.997679 12.123955 14.793408 12.667131 14.449861S13.723305 13.811514 14.206128 13.56546C14.688951 13.319405 15.05571 13.196379 15.306407 13.196379C15.659238 13.196379 15.965645 13.324048 16.225627 13.579387C16.485609 13.834726 16.615599 14.134169 16.615599 14.477716ZM11.518106 14.603064C11.45311 14.380223 11.420613 14.199164 11.420613 14.059889C11.420613 13.772052 11.504178 13.519035 11.671309 13.300836S12.028784 12.973538 12.24234 12.973538C12.363046 12.973538 12.469823 13.022284 12.562674 13.119777S12.70195 13.331013 12.70195 13.461003C12.70195 13.665274 12.576602 13.87883 12.325905 14.101671S11.805943 14.491643 11.518106 14.603064ZM12.270195 17.388579C11.768802 16.515784 11.155989 16.079387 10.431755 16.079387C10.004642 16.079387 9.637883 16.25116 9.331476 16.594708S8.871866 17.351439 8.871866 17.834262C8.871866 18.205664 8.955432 18.537604 9.122563 18.830084S9.496286 19.354689 9.74234 19.526462S10.255338 19.865366 10.543175 20.027855C10.831013 20.190344 11.097957 20.32962 11.344011 20.445682C11.590065 20.561746 11.796657 20.703343 11.963788 20.870474S12.214485 21.218663 12.214485 21.413649C12.214485 21.627205 12.133241 21.805943 11.970752 21.949861S11.610957 22.165738 11.37883 22.165738C10.756731 22.165738 10.38533 21.738625 10.264624 20.884401C10.171773 20.763695 10.046425 20.703343 9.888579 20.703343C9.712163 20.703343 9.568245 20.752089 9.456825 20.849582S9.289694 21.074745 9.289694 21.232591C9.289694 21.576138 9.512535 21.873259 9.958217 22.123955S10.923862 22.5 11.518106 22.5C12.660167 22.5 13.655989 22.077531 14.505571 21.232591C15.355153 20.38765 15.779944 19.39415 15.779944 18.252089C15.779944 17.51857 15.601208 16.91272 15.243733 16.43454S14.433611 15.71727 13.885794 15.71727C12.975859 15.71727 12.520891 16.241876 12.520891 17.291086Z" fill="#da0a0a" />
<path d="M24.726528 5.524135Q24.75 5.49023 24.75 5.443285Q24.744784 5.365044 24.718703 5.349396T24.65611 5.333747H24.609165Q24.452683 5.333747 24.379657 5.252898T24.262295 5.070334T24.20231 4.932108L23.289493 2.772644Q23.258197 2.694403 23.258197 2.647458Q23.258197 2.553568 23.331222 2.51184T23.53465 2.44403Q23.623323 2.428382 23.644188 2.412734T23.665052 2.32406Q23.665052 2.261467 23.631148 2.240603T23.524218 2.219738Q23.263413 2.219738 23.109538 2.258859T22.840909 2.415342T22.627049 2.772644L21.750745 4.932108Q21.672504 5.13032 21.599478 5.229425T21.380402 5.333747H21.349106Q21.296945 5.333747 21.27608 5.352004T21.25 5.443285Q21.25 5.49023 21.273472 5.524135T21.34389 5.558039Q21.67772 5.542391 21.91766 5.542391Q22.230626 5.542391 22.564456 5.558039Q22.611401 5.558039 22.634873 5.524135T22.658346 5.443285Q22.65313 5.37026 22.632265 5.352004T22.55924 5.333747Q22.381893 5.333747 22.308867 5.299843T22.235842 5.177264Q22.235842 5.109455 22.298435 4.932108L22.475782 4.499172H23.764158Q23.89456 4.82257 23.912817 4.874731T23.931073 4.932108Q23.993666 5.13032 23.993666 5.187697Q23.993666 5.27637 23.915425 5.305059T23.618107 5.333747H23.586811Q23.53465 5.333747 23.513785 5.352004T23.487705 5.443285Q23.487705 5.49023 23.511177 5.524135T23.581595 5.558039Q23.915425 5.542391 24.150149 5.542391Q24.317064 5.542391 24.65611 5.558039Q24.703055 5.558039 24.726528 5.524135ZM23.665052 4.27488H22.569672L23.096498 2.934343H23.112146Z" fill="#da0a0a" />
<path d="M22.99675 7.079085C22.953421 6.918765 22.883551 6.800691 22.787142 6.724864S22.584034 6.611123 22.467043 6.611123C22.334887 6.611123 22.221688 6.656619 22.127446 6.747612S21.986083 6.948012 21.986083 7.075835C21.986083 7.192825 22.014789 7.311982 22.072201 7.433306S22.20219 7.67162 22.289933 7.784277S22.467043 8.010134 22.558036 8.123875S22.73623 8.367063 22.81964 8.512218S22.962086 8.801444 22.99675 8.944433C23.035747 8.794945 23.098034 8.644915 23.18361 8.494344S23.357471 8.210534 23.448463 8.094627C23.539456 7.97872 23.628282 7.864979 23.714942 7.753405S23.873096 7.529715 23.929424 7.417057S24.013917 7.197158 24.013917 7.095333C24.013917 6.958844 23.967879 6.844021 23.875804 6.750861C23.783728 6.657702 23.670529 6.611123 23.536206 6.611123C23.278394 6.611123 23.098574 6.76711 22.99675 7.079085Z" fill="#da0a0a" />
<path d="M0.273472 29.475865Q0.25 29.50977 0.25 29.556715Q0.255216 29.634956 0.281297 29.650604T0.34389 29.666253H0.390835Q0.547317 29.666253 0.620343 29.747102T0.737705 29.929666T0.79769 30.067892L1.710507 32.227356Q1.741803 32.305597 1.741803 32.352542Q1.741803 32.446432 1.668778 32.48816T1.46535 32.55597Q1.376677 32.571618 1.355812 32.587266T1.334948 32.67594Q1.334948 32.738533 1.368852 32.759397T1.475782 32.780262Q1.736587 32.780262 1.890462 32.741141T2.159091 32.584658T2.372951 32.227356L3.249255 30.067892Q3.327496 29.86968 3.400522 29.770575T3.619598 29.666253H3.650894Q3.703055 29.666253 3.72392 29.647996T3.75 29.556715Q3.75 29.50977 3.726528 29.475865T3.65611 29.441961Q3.32228 29.457609 3.08234 29.457609Q2.769374 29.457609 2.435544 29.441961Q2.388599 29.441961 2.365127 29.475865T2.341654 29.556715Q2.34687 29.62974 2.367735 29.647996T2.44076 29.666253Q2.618107 29.666253 2.691133 29.700157T2.764158 29.822736Q2.764158 29.890545 2.701565 30.067892L2.524218 30.500828H1.235842Q1.10544 30.17743 1.087183 30.125269T1.068927 30.067892Q1.006334 29.86968 1.006334 29.812303Q1.006334 29.72363 1.084575 29.694941T1.381893 29.666253H1.413189Q1.46535 29.666253 1.486215 29.647996T1.512295 29.556715Q1.512295 29.50977 1.488823 29.475865T1.418405 29.441961Q1.084575 29.457609 0.849851 29.457609Q0.682936 29.457609 0.34389 29.441961Q0.296945 29.441961 0.273472 29.475865ZM1.334948 30.72512H2.430328L1.903502 32.065657H1.887854Z" fill="#da0a0a" />
<path d="M2.00325 27.920915C2.046579 28.081235 2.116449 28.199309 2.212858 28.275136S2.415966 28.388877 2.532957 28.388877C2.665113 28.388877 2.778312 28.343381 2.872554 28.252388S3.013917 28.051988 3.013917 27.924165C3.013917 27.807175 2.985211 27.688018 2.927799 27.566694S2.79781 27.32838 2.710067 27.215723S2.532957 26.989866 2.441964 26.876125S2.26377 26.632937 2.18036 26.487782S2.037914 26.198556 2.00325 26.055567C1.964253 26.205055 1.901966 26.355085 1.81639 26.505656S1.642529 26.789466 1.551537 26.905373C1.460544 27.02128 1.371718 27.135021 1.285058 27.246595S1.126904 27.470285 1.070576 27.582943S0.986083 27.802842 0.986083 27.904667C0.986083 28.041156 1.032121 28.155979 1.124196 28.249139C1.216272 28.342298 1.329471 28.388877 1.463794 28.388877C1.721606 28.388877 1.901426 28.23289 2.00325 27.920915Z" fill="#da0a0a" />
</svg>
