<svg width="150.000000" height="210.000000" id="card-webdiamond11">
<radialGradient id="card-webwhitegradient" cx="75.0" cy="105.0" r="150" gradientTransform="matrix(1 0 0 1 0 -.25)" gradientUnits="userSpaceOnUse">
<stop stop-color="#FDFAF4" offset=".15"/>
<stop stop-color="#FDF9F2" offset=".35"/>
<stop stop-color="#FCF7F1" offset=".5"/>
<stop stop-color="#FDFDF8" offset=".75"/>
<stop stop-color="#FFFDFA" offset="1"/>
</radialGradient>
<rect x="0" y="0" rx="7.5" ry="7.5" width="150" height="210.0" stroke="rgba(1,1,1,0.333)" fill="url(#card-webwhitegradient)" />
<rect x="30.0" y="21.0" width="90.0" height="168.0" stroke="#010101" fill="#fffdfa" />
<path d="M93.901252 72.211896C93.122392 72.211896 92.732962 72.740408 92.732962 73.797432C92.732962 75.188255 93.428372 75.883662 94.819193 75.883662C95.375522 75.883662 95.653686 75.4386 95.653686 74.548475C95.653686 72.990753 95.069541 72.211896 93.901252 72.211896ZM87.892907 62.031089C88.671766 62.031089 89.061196 61.55821 89.061196 60.612452C89.061196 59.555426 88.532685 58.581857 87.475661 57.691729C86.418634 56.801601 85.333794 56.356541 84.22114 56.356541C82.941588 56.356541 82.301808 56.745972 82.301808 57.524831C82.301808 58.526222 82.969402 59.527612 84.30459 60.529003S86.83588 62.031089 87.892907 62.031089ZM87.225313 46.342633C87.002781 47.121493 86.891516 47.650007 86.891516 47.928169C86.891516 48.095067 86.974965 48.54013 87.141864 49.263357C86.808067 49.263357 86.210011 49.110367 85.347705 48.804386S83.85953 48.206333 83.470097 47.928169C84.972184 47.14931 86.223922 46.620795 87.225313 46.342633ZM72.621697 69.207724C72.621697 71.655565 73.289291 74.14514 74.624478 76.67643S77.364392 81.55821 78.838665 83.727891S81.133519 87.594369 81.300417 88.818294H53.76217C53.539638 86.259181 53.428373 84.367671 53.428373 83.143746C53.428373 78.30369 54.109875 73.82522 55.472879 69.708419C56.83588 65.591593 58.449238 62.364886 60.312935 60.028308S63.929065 55.88366 65.570236 54.604108C67.211408 53.324555 68.504871 52.684775 69.450626 52.684775H74.45758C74.902642 52.462244 75.305983 51.46085 75.667594 49.680603C76.029207 47.900355 76.488178 46.787693 77.044506 46.342633C77.489569 47.789084 78.25452 48.818297 79.33936 49.430255C80.4242 50.042216 81.759388 50.570731 83.344924 51.01579S86.168287 52.017181 87.058414 52.684775C87.726008 54.965718 89.520167 58.887832 92.44089 64.451117S96.933238 73.547084 97.155772 75.04917C96.93324 75.883662 96.404729 76.634706 95.570236 77.302299S93.845616 78.30369 92.899861 78.30369C92.510431 78.30369 92.009733 78.081159 91.397775 77.636096S90.229485 76.968503 89.72879 76.968503C89.450626 76.968503 89.311544 77.135401 89.311544 77.469198L89.561892 78.220241C89.72879 78.720936 89.812239 78.9991 89.812239 79.054733C89.812239 79.555429 89.422809 79.805777 88.64395 79.805777C88.532685 79.805777 87.837274 78.832199 86.557719 76.885053C84.109878 73.102024 80.632823 70.236928 76.126565 68.289782C75.792768 66.064466 75.083449 64.033871 73.998609 62.197988S72.065366 59.444163 71.453408 59.444163C70.952712 59.444163 70.702364 59.805776 70.702364 60.529003C70.702364 60.918433 71.05007 62.100628 71.74548 64.075596S72.788595 67.399654 72.788595 68.122884C72.788595 68.289782 72.732962 68.651395 72.621697 69.207724ZM70.869263 49.179907C69.700974 49.179907 68.337972 49.485888 66.78025 50.097849C65.222529 50.70981 63.442281 51.864194 61.439499 53.560992S57.614745 57.371843 55.973574 59.903134S52.941588 65.883665 51.801113 70.250839C50.660637 74.618013 50.090403 79.499768 50.090403 84.89618C50.090403 87.51092 50.201669 89.847498 50.4242 91.905916H85.38943C85.222531 89.346803 84.680111 87.06586 83.76217 85.063078S81.856748 81.530397 80.799722 80.47337C79.742695 79.416344 78.727402 78.095067 77.753825 76.509532S76.1822 73.213287 75.959666 71.377404C78.129346 72.323159 79.97914 73.477546 81.50904 74.840547S84.109878 77.441384 84.721836 78.554038S85.93185 80.626358 86.515994 81.433037C87.100139 82.239713 87.670373 82.643051 88.226704 82.643051C89.172459 82.643051 90.006951 82.420519 90.730181 81.975457S91.842834 80.974066 91.89847 80.306472C92.454799 80.584636 93.011124 80.723718 93.567455 80.723718C96.182195 80.723718 98.296248 79.054733 99.909597 75.716764C99.5758 73.60272 97.739917 69.026914 94.401947 61.989365S89.394993 50.403857 89.394993 48.345415C89.394993 48.067251 89.561892 46.509532 89.895688 43.672258C86.446456 43.672258 83.358834 44.618013 80.632823 46.509532C79.130737 43.894792 77.878999 42.587418 76.877608 42.587418C75.54242 43.310645 74.582754 44.117318 73.998609 45.007446S72.844231 47.344024 72.2879 49.346806C71.731571 49.23554 71.258695 49.179907 70.869263 49.179907Z" fill="#da0a0a" />
<path d="M56.098748 137.788104C56.877608 137.788104 57.267038 137.259592 57.267038 136.202568C57.267038 134.811745 56.571628 134.116338 55.180807 134.116338C54.624478 134.116338 54.346314 134.5614 54.346314 135.451525C54.346314 137.009247 54.930459 137.788104 56.098748 137.788104ZM62.107093 147.968911C61.328234 147.968911 60.938804 148.44179 60.938804 149.387548C60.938804 150.444574 61.467315 151.418143 62.524339 152.308271C63.581366 153.198399 64.666206 153.643459 65.77886 153.643459C67.058412 153.643459 67.698192 153.254028 67.698192 152.475169C67.698192 151.473778 67.030598 150.472388 65.69541 149.470997S63.16412 147.968911 62.107093 147.968911ZM62.774687 163.657367C62.997219 162.878507 63.108484 162.349993 63.108484 162.071831C63.108484 161.904933 63.025035 161.45987 62.858136 160.736643C63.191933 160.736643 63.789989 160.889633 64.652295 161.195614S66.14047 161.793667 66.529903 162.071831C65.027816 162.85069 63.776078 163.379205 62.774687 163.657367ZM77.378303 140.792276C77.378303 138.344435 76.710709 135.85486 75.375522 133.32357S72.635608 128.44179 71.161335 126.272109S68.866481 122.405631 68.699583 121.181706H96.23783C96.460362 123.740819 96.571627 125.632329 96.571627 126.856254C96.571627 131.69631 95.890125 136.17478 94.527121 140.291581C93.16412 144.408407 91.550762 147.635114 89.687065 149.971692S86.070935 154.11634 84.429764 155.395892C82.788592 156.675445 81.495129 157.315225 80.549374 157.315225H75.54242C75.097358 157.537756 74.694017 158.53915 74.332406 160.319397C73.970793 162.099645 73.511822 163.212307 72.955494 163.657367C72.510431 162.210916 71.74548 161.181703 70.66064 160.569745C69.5758 159.957784 68.240612 159.429269 66.655076 158.98421S63.831713 157.982819 62.941586 157.315225C62.273992 155.034282 60.479833 151.112168 57.55911 145.548883S53.066762 136.452916 52.844228 134.95083C53.06676 134.116338 53.595271 133.365294 54.429764 132.697701S56.154384 131.69631 57.100139 131.69631C57.489569 131.69631 57.990267 131.918841 58.602225 132.363904S59.770515 133.031497 60.27121 133.031497C60.549374 133.031497 60.688456 132.864599 60.688456 132.530802L60.438108 131.779759C60.27121 131.279064 60.187761 131.0009 60.187761 130.945267C60.187761 130.444571 60.577191 130.194223 61.35605 130.194223C61.467315 130.194223 62.162726 131.167801 63.442281 133.114947C65.890122 136.897976 69.367177 139.763072 73.873435 141.710218C74.207232 143.935534 74.916551 145.966129 76.001391 147.802012S77.934634 150.555837 78.546592 150.555837C79.047288 150.555837 79.297636 150.194224 79.297636 149.470997C79.297636 149.081567 78.94993 147.899372 78.25452 145.924404S77.211405 142.600346 77.211405 141.877116C77.211405 141.710218 77.267038 141.348605 77.378303 140.792276ZM79.130737 160.820093C80.299026 160.820093 81.662028 160.514112 83.21975 159.902151C84.777471 159.29019 86.557719 158.135806 88.560501 156.439008S92.385255 152.628157 94.026426 150.096866S97.058412 144.116335 98.198887 139.749161C99.339363 135.381987 99.909597 130.500232 99.909597 125.10382C99.909597 122.48908 99.798331 120.152502 99.5758 118.094084H64.61057C64.777469 120.653197 65.319889 122.93414 66.23783 124.936922S68.143252 128.469603 69.200278 129.52663C70.257305 130.583656 71.272598 131.904933 72.246175 133.490468S73.8178 136.786713 74.040334 138.622596C71.870654 137.676841 70.02086 136.522454 68.49096 135.159453S65.890122 132.558616 65.278164 131.445962S64.06815 129.373642 63.484006 128.566963C62.899861 127.760287 62.329627 127.356949 61.773296 127.356949C60.827541 127.356949 59.993049 127.579481 59.269819 128.024543S58.157166 129.025934 58.10153 129.693528C57.545201 129.415364 56.988876 129.276282 56.432545 129.276282C53.817805 129.276282 51.703752 130.945267 50.090403 134.283236C50.4242 136.39728 52.260083 140.973086 55.598053 148.010635S60.605007 159.596143 60.605007 161.654585C60.605007 161.932749 60.438108 163.490468 60.104312 166.327742C63.553544 166.327742 66.641166 165.381987 69.367177 163.490468C70.869263 166.105208 72.121001 167.412582 73.122392 167.412582C74.45758 166.689355 75.417246 165.882682 76.001391 164.992554S77.155769 162.655976 77.7121 160.653194C78.268429 160.76446 78.741305 160.820093 79.130737 160.820093Z" fill="#da0a0a" />
<path d="M141.457627 26.0554Q141.813559 26.0554 141.940678 25.623197Q141.966102 25.546925 141.966102 25.394383Q141.966102 25.089298 141.686441 24.987603Q140.415254 24.453705 139.805085 23.46218T139.016949 21.00879T138.838983 17.0554V8.106247Q138.864407 7.470654 138.95339 7.076586T139.398305 6.415569T140.491525 6.14862H140.644068Q140.898305 6.14862 141.012712 6.059637T141.152542 5.614722Q141.152542 5.385908 141.025424 5.220654T140.694915 5.0554Q139.067797 5.131671 137.669492 5.131671Q136.118644 5.131671 134.491525 5.0554Q134.262712 5.0554 134.148305 5.220654T134.033898 5.614722Q134.059322 5.996078 134.199153 6.072349T134.694915 6.14862Q135.432203 6.14862 135.788136 6.415569T136.233051 7.076586T136.347458 8.106247V17.919807Q136.347458 21.199468 137.504237 23.296925T141.355932 26.0554H141.457627Z" fill="#da0a0a" />
<path d="M138.021905 31.791667C137.671419 32.49264 136.824408 33.752202 135.480876 35.570352C134.137344 37.388503 133.056669 38.750297 132.238873 39.655714C133.261127 40.824003 134.360048 42.211354 135.53564 43.817745C136.711232 45.424142 137.539986 46.66545 138.021905 47.541667C139.102572 45.613989 141.015654 42.985338 143.761127 39.655714C140.942621 36.253079 139.029555 33.631722 138.021905 31.791667Z" fill="#da0a0a" />
<path d="M8.542373 183.9446Q8.186441 183.9446 8.059322 184.376803Q8.033898 184.453075 8.033898 184.605617Q8.033898 184.910702 8.313559 185.012397Q9.584746 185.546295 10.194915 186.53782T10.983051 188.99121T11.161017 192.9446V201.893753Q11.135593 202.529346 11.04661 202.923414T10.601695 203.584431T9.508475 203.85138H9.355932Q9.101695 203.85138 8.987288 203.940363T8.847458 204.385278Q8.847458 204.614092 8.974576 204.779346T9.305085 204.9446Q10.932203 204.868329 12.330508 204.868329Q13.881356 204.868329 15.508475 204.9446Q15.737288 204.9446 15.851695 204.779346T15.966102 204.385278Q15.940678 204.003922 15.800847 203.927651T15.305085 203.85138Q14.567797 203.85138 14.211864 203.584431T13.766949 202.923414T13.652542 201.893753V192.080193Q13.652542 188.800532 12.495763 186.703075T8.644068 183.9446H8.542373Z" fill="#da0a0a" />
<path d="M11.978095 178.208333C12.328581 177.50736 13.175592 176.247798 14.519124 174.429648C15.862656 172.611497 16.943331 171.249703 17.761127 170.344286C16.738873 169.175997 15.639952 167.788646 14.46436 166.182255C13.288768 164.575858 12.460014 163.33455 11.978095 162.458333C10.897428 164.386011 8.984346 167.014662 6.238873 170.344286C9.057379 173.746921 10.970445 176.368278 11.978095 178.208333Z" fill="#da0a0a" />
</svg>
