<svg width="150.000000" height="210.000000" id="card-webclub11">
<radialGradient id="card-webwhitegradient" cx="75.0" cy="105.0" r="150" gradientTransform="matrix(1 0 0 1 0 -.25)" gradientUnits="userSpaceOnUse">
<stop stop-color="#FDFAF4" offset=".15"/>
<stop stop-color="#FDF9F2" offset=".35"/>
<stop stop-color="#FCF7F1" offset=".5"/>
<stop stop-color="#FDFDF8" offset=".75"/>
<stop stop-color="#FFFDFA" offset="1"/>
</radialGradient>
<rect x="0" y="0" rx="7.5" ry="7.5" width="150" height="210.0" stroke="rgba(1,1,1,0.333)" fill="url(#card-webwhitegradient)" />
<rect x="30.0" y="21.0" width="90.0" height="168.0" stroke="#010101" fill="#fffdfa" />
<path d="M94.249292 72.303324C93.456091 72.303324 93.05949 72.841567 93.05949 73.918055C93.05949 75.334488 93.767705 76.042701 95.184136 76.042701C95.750708 76.042701 96.033994 75.589443 96.033994 74.682927C96.033994 73.096522 95.439093 72.303324 94.249292 72.303324ZM88.130312 61.935052C88.923512 61.935052 89.320113 61.453465 89.320113 60.490293C89.320113 59.413803 88.78187 58.422307 87.705382 57.515788C86.628892 56.60927 85.524076 56.156015 84.390935 56.156015C83.087822 56.156015 82.436261 56.552616 82.436261 57.345817C82.436261 58.365647 83.116147 59.385477 84.475921 60.405307S87.053822 61.935052 88.130312 61.935052ZM87.450425 45.957715C87.223796 46.750916 87.110482 47.289162 87.110482 47.572446C87.110482 47.742417 87.195467 48.195675 87.365439 48.932219C87.025496 48.932219 86.416428 48.776412 85.538244 48.464797S84.022666 47.855732 83.626062 47.572446C85.155807 46.779245 86.430595 46.240998 87.450425 45.957715ZM72.577904 69.243834C72.577904 71.736749 73.25779 74.272165 74.617564 76.850066S77.407929 81.821737 78.909348 84.031369S81.246459 87.969043 81.416431 89.215505H53.371105C53.144476 86.60927 53.031161 84.68293 53.031161 83.436468C53.031161 78.50729 53.725213 73.946355 55.113314 69.753749C56.501414 65.561117 58.144479 62.274995 60.042493 59.895392S63.72521 55.674426 65.396601 54.371313C67.067992 53.068199 68.385272 52.416638 69.348442 52.416638H74.447592C74.90085 52.190009 75.311618 51.170177 75.679887 49.357148C76.048158 47.54412 76.51558 46.41097 77.082153 45.957715C77.53541 47.4308 78.314448 48.478964 79.419263 49.102191C80.524079 49.72542 81.883853 50.263667 83.498584 50.716922S86.373935 51.736752 87.280453 52.416638C87.96034 54.739582 89.787535 58.733916 92.76204 64.399641S97.337108 73.663097 97.563739 75.192842C97.33711 76.042701 96.798867 76.807573 95.949008 77.48746S94.192632 78.50729 93.229462 78.50729C92.832861 78.50729 92.322943 78.280661 91.699717 77.827403S90.509915 77.147517 90.0 77.147517C89.716714 77.147517 89.575071 77.317488 89.575071 77.657432L89.830028 78.422304C90.0 78.932219 90.084986 79.215505 90.084986 79.272162C90.084986 79.782077 89.688385 80.037035 88.895184 80.037035C88.78187 80.037035 88.073654 79.045531 86.770538 77.062531C84.277623 73.209842 80.736544 70.29199 76.147309 68.30899C75.807365 66.042698 75.084986 63.974712 73.98017 62.105024S72.011329 59.300491 71.388102 59.300491C70.878187 59.300491 70.623229 59.668763 70.623229 60.405307C70.623229 60.801908 70.977337 62.005871 71.685552 64.017205S72.747875 67.402471 72.747875 68.139018C72.747875 68.30899 72.691218 68.677261 72.577904 69.243834ZM70.793201 48.847233C69.603399 48.847233 68.2153 49.158848 66.628895 49.782077C65.04249 50.405307 63.229462 51.580947 61.189802 53.30899S57.29462 57.190012 55.623229 59.767913S52.535414 65.858568 51.373938 70.306157C50.212462 74.753746 49.631728 79.725392 49.631728 85.221171C49.631728 87.884058 49.745042 90.263661 49.971671 92.359981H85.580737C85.410765 89.753746 84.858357 87.430803 83.923513 85.391143S81.983006 81.793412 80.906516 80.716922C79.830025 79.640432 78.796037 78.294825 77.804533 76.680094S76.203969 73.323154 75.977337 71.453466C78.186969 72.416636 80.070824 73.592279 81.628895 74.980378S84.277623 77.629106 84.90085 78.762247S86.133144 80.872726 86.728045 81.694259C87.322946 82.515789 87.90368 82.926553 88.470255 82.926553C89.433425 82.926553 90.283283 82.699924 91.01983 82.246667S92.152972 81.226837 92.209632 80.54695C92.776204 80.830236 93.342773 80.971879 93.909348 80.971879C96.572235 80.971879 98.725215 79.272162 100.368272 75.872729C100.028329 73.719757 98.15864 69.059695 94.759207 61.892559S89.660057 50.09372 89.660057 47.997375C89.660057 47.714089 89.830028 46.127686 90.169972 43.238168C86.657227 43.238168 83.512751 44.201338 80.736544 46.127686C79.206799 43.4648 77.932011 42.133352 76.912181 42.133352C75.552408 42.869896 74.575071 43.691423 73.98017 44.597941S72.804535 46.977545 72.23796 49.017205C71.671388 48.903891 71.189805 48.847233 70.793201 48.847233Z" fill="#010101" />
<path d="M55.750708 137.696676C56.543909 137.696676 56.94051 137.158433 56.94051 136.081945C56.94051 134.665512 56.232295 133.957299 54.815864 133.957299C54.249292 133.957299 53.966006 134.410557 53.966006 135.317073C53.966006 136.903478 54.560907 137.696676 55.750708 137.696676ZM61.869688 148.064948C61.076488 148.064948 60.679887 148.546535 60.679887 149.509707C60.679887 150.586197 61.21813 151.577693 62.294618 152.484212C63.371108 153.39073 64.475924 153.843985 65.609065 153.843985C66.912178 153.843985 67.563739 153.447384 67.563739 152.654183C67.563739 151.634353 66.883853 150.614523 65.524079 149.594693S62.946178 148.064948 61.869688 148.064948ZM62.549575 164.042285C62.776204 163.249084 62.889518 162.710838 62.889518 162.427554C62.889518 162.257583 62.804533 161.804325 62.634561 161.067781C62.974504 161.067781 63.583572 161.223588 64.461756 161.535203S65.977334 162.144268 66.373938 162.427554C64.844193 163.220755 63.569405 163.759002 62.549575 164.042285ZM77.422096 140.756166C77.422096 138.263251 76.74221 135.727835 75.382436 133.149934S72.592071 128.178263 71.090652 125.968631S68.753541 122.030957 68.583569 120.784495H96.628895C96.855524 123.39073 96.968839 125.31707 96.968839 126.563532C96.968839 131.49271 96.274787 136.053645 94.886686 140.246251C93.498586 144.438883 91.855521 147.725005 89.957507 150.104608S86.27479 154.325574 84.603399 155.628687C82.932008 156.931801 81.614728 157.583362 80.651558 157.583362H75.552408C75.09915 157.809991 74.688382 158.829823 74.320113 160.642852C73.951842 162.45588 73.48442 163.58903 72.917847 164.042285C72.46459 162.5692 71.685552 161.521036 70.580737 160.897809C69.475921 160.27458 68.116147 159.736333 66.501416 159.283078S63.626065 158.263248 62.719547 157.583362C62.03966 155.260418 60.212465 151.266084 57.23796 145.600359S52.662892 136.336903 52.436261 134.807158C52.66289 133.957299 53.201133 133.192427 54.050992 132.51254S55.807368 131.49271 56.770538 131.49271C57.167139 131.49271 57.677057 131.719339 58.300283 132.172597S59.490085 132.852483 60.0 132.852483C60.283286 132.852483 60.424929 132.682512 60.424929 132.342568L60.169972 131.577696C60.0 131.067781 59.915014 130.784495 59.915014 130.727838C59.915014 130.217923 60.311615 129.962965 61.104816 129.962965C61.21813 129.962965 61.926346 130.954469 63.229462 132.937469C65.722377 136.790158 69.263456 139.70801 73.852691 141.69101C74.192635 143.957302 74.915014 146.025288 76.01983 147.894976S77.988671 150.699509 78.611898 150.699509C79.121813 150.699509 79.376771 150.331237 79.376771 149.594693C79.376771 149.198092 79.022663 147.994129 78.314448 145.982795S77.252125 142.597529 77.252125 141.860982C77.252125 141.69101 77.308782 141.322739 77.422096 140.756166ZM79.206799 161.152767C80.396601 161.152767 81.7847 160.841152 83.371105 160.217923C84.95751 159.594693 86.770538 158.419053 88.810198 156.69101S92.70538 152.809988 94.376771 150.232087S97.464586 144.141432 98.626062 139.693843C99.787538 135.246254 100.368272 130.274608 100.368272 124.778829C100.368272 122.115942 100.254958 119.736339 100.028329 117.640019H64.419263C64.589235 120.246254 65.141643 122.569197 66.076487 124.608857S68.016994 128.206588 69.093484 129.283078C70.169975 130.359568 71.203963 131.705175 72.195467 133.319906S73.796031 136.676846 74.022663 138.546534C71.813031 137.583364 69.929176 136.407721 68.371105 135.019622S65.722377 132.370894 65.09915 131.237753S63.866856 129.127274 63.271955 128.305741C62.677054 127.484211 62.09632 127.073447 61.529745 127.073447C60.566575 127.073447 59.716717 127.300076 58.98017 127.753333S57.847028 128.773163 57.790368 129.45305C57.223796 129.169764 56.657227 129.028121 56.090652 129.028121C53.427765 129.028121 51.274785 130.727838 49.631728 134.127271C49.971671 136.280243 51.84136 140.940305 55.240793 148.107441S60.339943 159.90628 60.339943 162.002625C60.339943 162.285911 60.169972 163.872314 59.830028 166.761832C63.342773 166.761832 66.487249 165.798662 69.263456 163.872314C70.793201 166.5352 72.067989 167.866648 73.087819 167.866648C74.447592 167.130104 75.424929 166.308577 76.01983 165.402059S77.195465 163.022455 77.76204 160.982795C78.328612 161.096109 78.810195 161.152767 79.206799 161.152767Z" fill="#010101" />
<path d="M141.457627 26.0554Q141.813559 26.0554 141.940678 25.623197Q141.966102 25.546925 141.966102 25.394383Q141.966102 25.089298 141.686441 24.987603Q140.415254 24.453705 139.805085 23.46218T139.016949 21.00879T138.838983 17.0554V8.106247Q138.864407 7.470654 138.95339 7.076586T139.398305 6.415569T140.491525 6.14862H140.644068Q140.898305 6.14862 141.012712 6.059637T141.152542 5.614722Q141.152542 5.385908 141.025424 5.220654T140.694915 5.0554Q139.067797 5.131671 137.669492 5.131671Q136.118644 5.131671 134.491525 5.0554Q134.262712 5.0554 134.148305 5.220654T134.033898 5.614722Q134.059322 5.996078 134.199153 6.072349T134.694915 6.14862Q135.432203 6.14862 135.788136 6.415569T136.233051 7.076586T136.347458 8.106247V17.919807Q136.347458 21.199468 137.504237 23.296925T141.355932 26.0554H141.457627Z" fill="#010101" />
<path d="M137.687677 40.994039C137.672805 41.440215 137.654214 41.800874 137.631905 42.076015C137.609596 42.351156 137.553824 42.700661 137.464589 43.124528S137.267528 43.8979 137.141112 44.173041S136.82507 44.756788 136.572238 45.098855S136.021954 45.723501 135.679887 45.946589S134.906515 46.385329 134.385977 46.593543S133.270538 46.965357 132.601275 47.084337V47.530512H143.398725V47.084337C142.729462 46.965357 142.13456 46.798041 141.614023 46.582389S140.658464 46.147368 140.308959 45.92428S139.662004 45.414897 139.416608 45.065392S138.981586 44.407283 138.847734 44.139577S138.606056 43.522367 138.524256 43.091065S138.390404 42.313976 138.368095 42.053706C138.345786 41.793436 138.327196 41.440215 138.312323 40.994039C138.669263 41.648429 138.959278 42.109478 139.182365 42.377184C139.583924 42.88285 140.078436 43.284408 140.665899 43.581858C141.253363 43.879308 141.829675 44.028034 142.39483 44.028034C143.346672 44.028034 144.164659 43.674812 144.848796 42.968366S145.875 41.410471 145.875 40.414011C145.875 39.447298 145.566396 38.621873 144.949186 37.937736S143.584631 36.911532 142.707153 36.911532C142.409703 36.911532 142.13456 36.952431 141.881728 37.03423S141.376062 37.220137 141.123229 37.346553L140.654745 37.580796C141.234773 36.747935 141.524788 35.95969 141.524788 35.216065C141.524788 34.279096 141.179001 33.47598 140.487429 32.806716S138.966713 31.802821 138.0 31.802821S136.204143 32.137453 135.512571 32.806716S134.475212 34.279096 134.475212 35.216065C134.475212 35.95969 134.765227 36.747935 135.345255 37.580796C135.241147 37.536178 135.096139 37.469252 134.910234 37.380017S134.586756 37.223855 134.497521 37.179237S134.293024 37.090002 134.151735 37.045385S133.872875 36.967304 133.739023 36.944995S133.456444 36.911532 133.292847 36.911532C132.415369 36.911532 131.668025 37.253599 131.050814 37.937736S130.125 39.447298 130.125 40.414011C130.125 41.410471 130.467067 42.261921 131.151204 42.968366S132.653328 44.028034 133.60517 44.028034C135.241147 44.028034 136.601976 43.016703 137.687677 40.994039Z" fill="#010101" />
<path d="M8.542373 183.9446Q8.186441 183.9446 8.059322 184.376803Q8.033898 184.453075 8.033898 184.605617Q8.033898 184.910702 8.313559 185.012397Q9.584746 185.546295 10.194915 186.53782T10.983051 188.99121T11.161017 192.9446V201.893753Q11.135593 202.529346 11.04661 202.923414T10.601695 203.584431T9.508475 203.85138H9.355932Q9.101695 203.85138 8.987288 203.940363T8.847458 204.385278Q8.847458 204.614092 8.974576 204.779346T9.305085 204.9446Q10.932203 204.868329 12.330508 204.868329Q13.881356 204.868329 15.508475 204.9446Q15.737288 204.9446 15.851695 204.779346T15.966102 204.385278Q15.940678 204.003922 15.800847 203.927651T15.305085 203.85138Q14.567797 203.85138 14.211864 203.584431T13.766949 202.923414T13.652542 201.893753V192.080193Q13.652542 188.800532 12.495763 186.703075T8.644068 183.9446H8.542373Z" fill="#010101" />
<path d="M12.312323 169.005961C12.327195 168.559785 12.345786 168.199126 12.368095 167.923985C12.390404 167.648844 12.446176 167.299339 12.535411 166.875472S12.732472 166.1021 12.858888 165.826959S13.17493 165.243212 13.427762 164.901145S13.978046 164.276499 14.320113 164.053411S15.093485 163.614671 15.614023 163.406457S16.729462 163.034643 17.398725 162.915663V162.469488H6.601275V162.915663C7.270538 163.034643 7.86544 163.201959 8.385977 163.417611S9.341536 163.852632 9.691041 164.07572S10.337996 164.585103 10.583392 164.934608S11.018414 165.592717 11.152266 165.860423S11.393944 166.477633 11.475744 166.908935S11.609596 167.686024 11.631905 167.946294C11.654214 168.206564 11.672804 168.559785 11.687677 169.005961C11.330737 168.351571 11.040722 167.890522 10.817635 167.622816C10.416076 167.11715 9.921564 166.715592 9.334101 166.418142C8.746637 166.120692 8.170325 165.971966 7.60517 165.971966C6.653328 165.971966 5.835341 166.325188 5.151204 167.031634S4.125 168.589529 4.125 169.585989C4.125 170.552702 4.433604 171.378127 5.050814 172.062264S6.415369 173.088468 7.292847 173.088468C7.590297 173.088468 7.86544 173.047569 8.118272 172.96577S8.623938 172.779863 8.876771 172.653447L9.345255 172.419204C8.765227 173.252065 8.475212 174.04031 8.475212 174.783935C8.475212 175.720904 8.820999 176.52402 9.512571 177.193284S11.033287 178.197179 12.0 178.197179S13.795857 177.862547 14.487429 177.193284S15.524788 175.720904 15.524788 174.783935C15.524788 174.04031 15.234773 173.252065 14.654745 172.419204C14.758853 172.463822 14.903861 172.530748 15.089766 172.619983S15.413244 172.776145 15.502479 172.820763S15.706976 172.909998 15.848265 172.954615S16.127125 173.032696 16.260977 173.055005S16.543556 173.088468 16.707153 173.088468C17.584631 173.088468 18.331975 172.746401 18.949186 172.062264S19.875 170.552702 19.875 169.585989C19.875 168.589529 19.532933 167.738079 18.848796 167.031634S17.346672 165.971966 16.39483 165.971966C14.758853 165.971966 13.398024 166.983297 12.312323 169.005961Z" fill="#010101" />
</svg>
