<svg width="150.000000" height="210.000000" id="card-webheart2">
<radialGradient id="card-webwhitegradient" cx="75.0" cy="105.0" r="150" gradientTransform="matrix(1 0 0 1 0 -.25)" gradientUnits="userSpaceOnUse">
<stop stop-color="#FDFAF4" offset=".15"/>
<stop stop-color="#FDF9F2" offset=".35"/>
<stop stop-color="#FCF7F1" offset=".5"/>
<stop stop-color="#FDFDF8" offset=".75"/>
<stop stop-color="#FFFDFA" offset="1"/>
</radialGradient>
<rect x="0" y="0" rx="7.5" ry="7.5" width="150" height="210.0" stroke="rgba(1,1,1,0.333)" fill="url(#card-webwhitegradient)" />
<path d="M74.958217 26.016713C74.401116 23.955433 73.502787 22.437325 72.263231 21.462396S69.651811 20.0 68.147632 20.0C66.448467 20.0 64.993036 20.584958 63.781337 21.754875S61.963788 24.331478 61.963788 25.97493C61.963788 27.479109 62.332869 29.011143 63.071031 30.571031S64.74234 33.635096 65.870474 35.083565S68.147632 37.987465 69.317549 39.449861S71.608634 42.5766 72.681058 44.442897S74.512533 48.16156 74.958217 50.0C75.45961 48.077994 76.260447 46.149024 77.360724 44.213092S79.5961 40.564068 80.766017 39.073816C81.935933 37.583564 83.077993 36.121169 84.192201 34.68663S86.225628 31.810586 86.949861 30.362117S88.036212 27.534818 88.036212 26.225627C88.036212 24.470752 87.444288 22.99443 86.260446 21.796657C85.076603 20.598884 83.621169 20.0 81.89415 20.0C78.579389 20.0 76.267396 22.005571 74.958217 26.016713Z" fill="#da0a0a" />
<path d="M75.041783 183.983287C75.598884 186.044567 76.497213 187.562675 77.736769 188.537604S80.348189 190.0 81.852368 190.0C83.551533 190.0 85.006964 189.415042 86.218663 188.245125S88.036212 185.668522 88.036212 184.02507C88.036212 182.520891 87.667131 180.988857 86.928969 179.428969S85.25766 176.364904 84.129526 174.916435S81.852368 172.012535 80.682451 170.550139S78.391366 167.4234 77.318942 165.557103S75.487467 161.83844 75.041783 160.0C74.54039 161.922006 73.739553 163.850976 72.639276 165.786908S70.4039 169.435932 69.233983 170.926184C68.064067 172.416436 66.922007 173.878831 65.807799 175.31337S63.774372 178.189414 63.050139 179.637883S61.963788 182.465182 61.963788 183.774373C61.963788 185.529248 62.555712 187.00557 63.739554 188.203343C64.923397 189.401116 66.378831 190.0 68.10585 190.0C71.420611 190.0 73.732604 187.994429 75.041783 183.983287Z" fill="#da0a0a" />
<path d="M146.023585 24.628985Q145.983962 23.796909 145.567925 23.281815T144.200943 22.132758Q141.070755 20.032758 139.34717 18.665777T136.236792 15.198796T134.85 10.483702Q134.85 8.581815 135.860377 7.531815T138.693396 6.481815Q140.238679 6.481815 141.249057 7.254457T142.259434 9.374268Q142.259434 10.047853 141.942453 10.503513T141.288679 11.236532T140.951887 11.553513Q140.951887 11.830872 141.486792 12.227098T142.774528 12.623325Q144.00283 12.623325 144.735849 11.850683T145.468868 9.889362Q145.468868 8.304457 144.399057 7.195023T141.684906 5.570494T138.336792 5.0554Q135.365094 5.0554 133.20566 6.521438T131.046226 10.998796Q131.046226 13.178042 132.234906 14.96106T135.067925 17.992192T139.366981 20.944079Q141.466981 22.251626 142.49717 23.044079V23.242192H131.878302Q130.887736 23.242192 130.432075 23.460117T129.976415 24.628985Q129.976415 26.0554 131.363208 26.0554H144.636792Q146.023585 26.0554 146.023585 24.628985Z" fill="#da0a0a" />
<path d="M137.978064 34.950441C137.685586 33.868269 137.213963 33.071262 136.563196 32.559424S135.192201 31.791667 134.402507 31.791667C133.510445 31.791667 132.746344 32.09877 132.110202 32.712976S131.155989 34.065692 131.155989 34.928505C131.155989 35.718199 131.349756 36.522517 131.737291 37.341458S132.614728 38.950092 133.206999 39.710539S134.402507 41.235086 135.016713 42.002844S136.219533 43.644382 136.782556 44.624188S137.74408 46.576486 137.978064 47.541667C138.241295 46.532614 138.661735 45.519904 139.23938 44.50354S140.412953 42.587802 141.027159 41.80542C141.641365 41.023038 142.240946 40.25528 142.825905 39.502147S143.893455 37.992225 144.273677 37.231778S144.844011 35.747446 144.844011 35.060121C144.844011 34.138812 144.533251 33.363743 143.911734 32.734912C143.290217 32.106081 142.526113 31.791667 141.619429 31.791667C139.879179 31.791667 138.665383 32.844591 137.978064 34.950441Z" fill="#da0a0a" />
<path d="M3.976415 185.371015Q4.016038 186.203091 4.432075 186.718185T5.799057 187.867242Q8.929245 189.967242 10.65283 191.334223T13.763208 194.801204T15.15 199.516298Q15.15 201.418185 14.139623 202.468185T11.306604 203.518185Q9.761321 203.518185 8.750943 202.745543T7.740566 200.625732Q7.740566 199.952147 8.057547 199.496487T8.711321 198.763468T9.048113 198.446487Q9.048113 198.169128 8.513208 197.772902T7.225472 197.376675Q5.99717 197.376675 5.264151 198.149317T4.531132 200.110638Q4.531132 201.695543 5.600943 202.804977T8.315094 204.429506T11.663208 204.9446Q14.634906 204.9446 16.79434 203.478562T18.953774 199.001204Q18.953774 196.821958 17.765094 195.03894T14.932075 192.007808T10.633019 189.055921Q8.533019 187.748374 7.50283 186.955921V186.757808H18.121698Q19.112264 186.757808 19.567925 186.539883T20.023585 185.371015Q20.023585 183.9446 18.636792 183.9446H5.363208Q3.976415 183.9446 3.976415 185.371015Z" fill="#da0a0a" />
<path d="M12.021936 175.049559C12.314414 176.131731 12.786037 176.928738 13.436804 177.440576S14.807799 178.208333 15.597493 178.208333C16.489555 178.208333 17.253656 177.90123 17.889798 177.287024S18.844011 175.934308 18.844011 175.071495C18.844011 174.281801 18.650244 173.477483 18.262709 172.658542S17.385272 171.049908 16.793001 170.289461S15.597493 168.764914 14.983287 167.997156S13.780467 166.355618 13.217444 165.375812S12.25592 163.423514 12.021936 162.458333C11.758705 163.467386 11.338265 164.480096 10.76062 165.49646S9.587047 167.412198 8.972841 168.19458C8.358635 168.976962 7.759054 169.74472 7.174095 170.497853S6.106545 172.007775 5.726323 172.768222S5.155989 174.252554 5.155989 174.939879C5.155989 175.861188 5.466749 176.636257 6.088266 177.265088C6.709783 177.893919 7.473887 178.208333 8.380571 178.208333C10.120821 178.208333 11.334617 177.155409 12.021936 175.049559Z" fill="#da0a0a" />
</svg>
