<svg width="25.000000" height="35.000000" id="card-lightdiamond9">
<rect x="0" y="0" rx="1.25" ry="1.25" width="25" height="35.0" stroke="rgba(1,1,1,0.333)" fill="#fffdfa" />
<path d="M7.506954 3.333333C7.395688 3.555865 7.126796 3.955726 6.700278 4.532916C6.27376 5.110107 5.930688 5.542422 5.671071 5.829856C5.995596 6.200742 6.34446 6.641171 6.717663 7.151136C7.090867 7.661103 7.353964 8.055169 7.506954 8.333333C7.850023 7.721372 8.45735 6.88688 9.328929 5.829856C8.434166 4.749655 7.826843 3.917478 7.506954 3.333333Z" fill="#da0a0a" />
<path d="M7.493046 31.666667C7.604312 31.444135 7.873204 31.044274 8.299722 30.467084C8.72624 29.889893 9.069312 29.457578 9.328929 29.170144C9.004404 28.799258 8.65554 28.358829 8.282337 27.848864C7.909133 27.338897 7.646036 26.944831 7.493046 26.666667C7.149977 27.278628 6.54265 28.11312 5.671071 29.170144C6.565834 30.250345 7.173157 31.082522 7.493046 31.666667Z" fill="#da0a0a" />
<path d="M7.506954 11.111111C7.395688 11.333642 7.126796 11.733503 6.700278 12.310694C6.27376 12.887884 5.930688 13.3202 5.671071 13.607634C5.995596 13.978519 6.34446 14.418948 6.717663 14.928914C7.090867 15.438881 7.353964 15.832947 7.506954 16.111111C7.850023 15.49915 8.45735 14.664658 9.328929 13.607634C8.434166 12.527432 7.826843 11.695256 7.506954 11.111111Z" fill="#da0a0a" />
<path d="M7.493046 23.888889C7.604312 23.666358 7.873204 23.266497 8.299722 22.689306C8.72624 22.112116 9.069312 21.6798 9.328929 21.392366C9.004404 21.021481 8.65554 20.581052 8.282337 20.071086C7.909133 19.561119 7.646036 19.167053 7.493046 18.888889C7.149977 19.50085 6.54265 20.335342 5.671071 21.392366C6.565834 22.472568 7.173157 23.304744 7.493046 23.888889Z" fill="#da0a0a" />
<path d="M17.506954 3.333333C17.395688 3.555865 17.126796 3.955726 16.700278 4.532916C16.27376 5.110107 15.930688 5.542422 15.671071 5.829856C15.995596 6.200742 16.34446 6.641171 16.717663 7.151136C17.090867 7.661103 17.353964 8.055169 17.506954 8.333333C17.850023 7.721372 18.45735 6.88688 19.328929 5.829856C18.434166 4.749655 17.826843 3.917478 17.506954 3.333333Z" fill="#da0a0a" />
<path d="M17.493046 31.666667C17.604312 31.444135 17.873204 31.044274 18.299722 30.467084C18.72624 29.889893 19.069312 29.457578 19.328929 29.170144C19.004404 28.799258 18.65554 28.358829 18.282337 27.848864C17.909133 27.338897 17.646036 26.944831 17.493046 26.666667C17.149977 27.278628 16.54265 28.11312 15.671071 29.170144C16.565834 30.250345 17.173157 31.082522 17.493046 31.666667Z" fill="#da0a0a" />
<path d="M17.506954 11.111111C17.395688 11.333642 17.126796 11.733503 16.700278 12.310694C16.27376 12.887884 15.930688 13.3202 15.671071 13.607634C15.995596 13.978519 16.34446 14.418948 16.717663 14.928914C17.090867 15.438881 17.353964 15.832947 17.506954 16.111111C17.850023 15.49915 18.45735 14.664658 19.328929 13.607634C18.434166 12.527432 17.826843 11.695256 17.506954 11.111111Z" fill="#da0a0a" />
<path d="M17.493046 23.888889C17.604312 23.666358 17.873204 23.266497 18.299722 22.689306C18.72624 22.112116 19.069312 21.6798 19.328929 21.392366C19.004404 21.021481 18.65554 20.581052 18.282337 20.071086C17.909133 19.561119 17.646036 19.167053 17.493046 18.888889C17.149977 19.50085 16.54265 20.335342 15.671071 21.392366C16.565834 22.472568 17.173157 23.304744 17.493046 23.888889Z" fill="#da0a0a" />
<path d="M12.506954 7.222222C12.395688 7.444754 12.126796 7.844614 11.700278 8.421805C11.27376 8.998996 10.930688 9.431311 10.671071 9.718745C10.995596 10.08963 11.34446 10.530059 11.717663 11.040025C12.090867 11.549992 12.353964 11.944058 12.506954 12.222222C12.850023 11.610261 13.45735 10.775769 14.328929 9.718745C13.434166 8.638544 12.826843 7.806367 12.506954 7.222222Z" fill="#da0a0a" />
<path d="M23.731013 4.342567Q23.857595 4.342567 23.857595 4.228643Q23.857595 4.127377 23.743671 4.095731Q22.585443 3.734972 22.363924 2.798263Q22.572785 2.937503 22.778481 2.994465T23.205696 3.051427Q23.509494 3.051427 23.762658 2.915351T24.161392 2.541934T24.306962 2.000795Q24.306962 1.659022 24.123418 1.396364T23.642405 0.988136T23.009494 0.842567Q22.408228 0.842567 22.050633 1.215984T21.693038 2.234972Q21.693038 2.74763 21.936709 3.190668T22.623418 3.934339T23.636076 4.336238Q23.667722 4.342567 23.731013 4.342567ZM22.661392 2.687503Q22.490506 2.608389 22.338608 2.475478Q22.300633 2.323579 22.300633 2.228643Q22.300633 1.975478 22.367089 1.703326T22.594937 1.238136T23.009494 1.045098Q23.306962 1.045098 23.503165 1.295098T23.699367 1.943832Q23.699367 2.31725 23.503165 2.541934T22.990506 2.766617Q22.832278 2.766617 22.661392 2.687503Z" fill="#da0a0a" />
<path d="M23.003651 5.298611C22.945236 5.41544 22.804068 5.625367 22.580146 5.928392C22.356224 6.231417 22.176111 6.458383 22.039812 6.609286C22.210188 6.804 22.393341 7.035226 22.589273 7.302957C22.785205 7.57069 22.923331 7.777575 23.003651 7.923611C23.183762 7.602332 23.502609 7.164223 23.960188 6.609286C23.490437 6.04218 23.171592 5.605287 23.003651 5.298611Z" fill="#da0a0a" />
<path d="M1.268987 30.657433Q1.142405 30.657433 1.142405 30.771357Q1.142405 30.872623 1.256329 30.904269Q2.414557 31.265028 2.636076 32.201737Q2.427215 32.062497 2.221519 32.005535T1.794304 31.948573Q1.490506 31.948573 1.237342 32.084649T0.838608 32.458066T0.693038 32.999205Q0.693038 33.340978 0.876582 33.603636T1.357595 34.011864T1.990506 34.157433Q2.591772 34.157433 2.949367 33.784016T3.306962 32.765028Q3.306962 32.25237 3.063291 31.809332T2.376582 31.065661T1.363924 30.663762Q1.332278 30.657433 1.268987 30.657433ZM2.338608 32.312497Q2.509494 32.391611 2.661392 32.524522Q2.699367 32.676421 2.699367 32.771357Q2.699367 33.024522 2.632911 33.296674T2.405063 33.761864T1.990506 33.954902Q1.693038 33.954902 1.496835 33.704902T1.300633 33.056168Q1.300633 32.68275 1.496835 32.458066T2.009494 32.233383Q2.167722 32.233383 2.338608 32.312497Z" fill="#da0a0a" />
<path d="M1.996349 29.701389C2.054764 29.58456 2.195932 29.374633 2.419854 29.071608C2.643776 28.768583 2.823889 28.541617 2.960188 28.390714C2.789812 28.196 2.606659 27.964774 2.410727 27.697043C2.214795 27.42931 2.076669 27.222425 1.996349 27.076389C1.816238 27.397668 1.497391 27.835777 1.039812 28.390714C1.509563 28.95782 1.828408 29.394713 1.996349 29.701389Z" fill="#da0a0a" />
</svg>
