<svg width="500.000000" height="700.000000" id="card-realheart2">
<radialGradient id="card-realwhitegradient" cx="250.0" cy="350.0" r="500" gradientTransform="matrix(1 0 0 1 0 -.25)" gradientUnits="userSpaceOnUse">
<stop stop-color="#FDFAF4" offset=".15"/>
<stop stop-color="#FDF9F2" offset=".35"/>
<stop stop-color="#FCF7F1" offset=".5"/>
<stop stop-color="#FDFDF8" offset=".75"/>
<stop stop-color="#FFFDFA" offset="1"/>
</radialGradient>
<rect x="0" y="0" rx="25.0" ry="25.0" width="500" height="700.0" stroke="rgba(1,1,1,0.333)" fill="url(#card-realwhitegradient)" />
<path d="M249.860724 86.722377C248.003719 79.851444 245.00929 74.791082 240.877437 71.541318S232.172702 66.666667 227.158774 66.666667C221.494889 66.666667 216.643454 68.616527 212.604457 72.516249S206.545961 81.104926 206.545961 86.583101C206.545961 91.597029 207.77623 96.703812 210.236769 101.903435S215.807799 112.116987 219.568245 116.945218S227.158774 126.624884 231.058496 131.499536S238.695446 141.922001 242.270195 148.14299S248.375111 160.538533 249.860724 166.666667C251.532033 160.259981 254.20149 153.830079 257.869081 147.376973S265.320334 135.213561 269.220056 130.246054C273.119777 125.278547 276.926643 120.403895 280.640669 115.622098S287.41876 106.035288 289.832869 101.207057S293.454039 91.782725 293.454039 87.418756C293.454039 81.569174 291.480961 76.648101 287.534819 72.655525C283.588677 68.662948 278.737228 66.666667 272.980501 66.666667C261.931295 66.666667 254.224652 73.351903 249.860724 86.722377Z" fill="#da0a0a" />
<path d="M250.139276 613.277623C251.996281 620.148556 254.99071 625.208918 259.122563 628.458682S267.827298 633.333333 272.841226 633.333333C278.505111 633.333333 283.356546 631.383473 287.395543 627.483751S293.454039 618.895074 293.454039 613.416899C293.454039 608.402971 292.22377 603.296188 289.763231 598.096565S284.192201 587.883013 280.431755 583.054782S272.841226 573.375116 268.941504 568.500464S261.304554 558.077999 257.729805 551.85701S251.624889 539.461467 250.139276 533.333333C248.467967 539.740019 245.79851 546.169921 242.130919 552.623027S234.679666 564.786439 230.779944 569.753946C226.880223 574.721453 223.073357 579.596105 219.359331 584.377902S212.58124 593.964712 210.167131 598.792943S206.545961 608.217275 206.545961 612.581244C206.545961 618.430826 208.519039 623.351899 212.465181 627.344475C216.411323 631.337052 221.262772 633.333333 227.019499 633.333333C238.068705 633.333333 245.775348 626.648097 250.139276 613.277623Z" fill="#da0a0a" />
<path d="M486.745283 82.096616Q486.613208 79.323031 485.226415 77.60605T480.669811 73.775862Q470.235849 66.775862 464.490566 62.219258T454.122642 50.662654T449.5 34.945673Q449.5 28.60605 452.867925 25.10605T462.311321 21.60605Q467.462264 21.60605 470.830189 24.181522T474.198113 31.24756Q474.198113 33.492843 473.141509 35.011711T470.962264 37.455107T469.839623 38.511711Q469.839623 39.436239 471.622642 40.756994T475.915094 42.077748Q480.009434 42.077748 482.45283 39.502277T484.896226 32.964541Q484.896226 27.681522 481.330189 23.983409T472.283019 18.568314T461.122642 16.851333Q451.216981 16.851333 444.018868 21.738126T436.820755 36.662654Q436.820755 43.926805 440.783019 49.870201T450.226415 59.973975T464.556604 69.813597Q471.556604 74.172088 474.990566 76.813597V77.473975H439.59434Q436.292453 77.473975 434.773585 78.20039T433.254717 82.096616Q433.254717 86.851333 437.877358 86.851333H482.122642Q486.745283 86.851333 486.745283 82.096616Z" fill="#da0a0a" />
<path d="M459.92688 116.50147C458.951952 112.89423 457.379877 110.23754 455.210655 108.531414S450.640669 105.972222 448.008357 105.972222C445.034817 105.972222 442.487813 106.995899 440.36734 109.043253S437.18663 113.552308 437.18663 116.42835C437.18663 119.060662 437.832521 121.741723 439.124304 124.471526S442.049095 129.83364 444.023329 132.368462S448.008357 137.450286 450.05571 140.009478S454.065109 145.481273 455.941852 148.747292S459.146933 155.254952 459.92688 158.472222C460.804318 155.108712 462.205782 151.733014 464.131267 148.345133S468.043175 141.959342 470.090529 139.3514C472.137883 136.743459 474.136488 134.184267 476.086351 131.673824S479.644849 126.640748 480.912256 124.105927S482.81337 119.158153 482.81337 116.867069C482.81337 113.796038 481.777505 111.212475 479.70578 109.116373C477.634055 107.02027 475.087045 105.972222 472.064763 105.972222C466.26393 105.972222 462.217942 109.481972 459.92688 116.50147Z" fill="#da0a0a" />
<path d="M13.254717 617.903384Q13.386792 620.676969 14.773585 622.39395T19.330189 626.224138Q29.764151 633.224138 35.509434 637.780742T45.877358 649.337346T50.5 665.054327Q50.5 671.39395 47.132075 674.89395T37.688679 678.39395Q32.537736 678.39395 29.169811 675.818478T25.801887 668.75244Q25.801887 666.507157 26.858491 664.988289T29.037736 662.544893T30.160377 661.488289Q30.160377 660.563761 28.377358 659.243006T24.084906 657.922252Q19.990566 657.922252 17.54717 660.497723T15.103774 667.035459Q15.103774 672.318478 18.669811 676.016591T27.716981 681.431686T38.877358 683.148667Q48.783019 683.148667 55.981132 678.261874T63.179245 663.337346Q63.179245 656.073195 59.216981 650.129799T49.773585 640.026025T35.443396 630.186403Q28.443396 625.827912 25.009434 623.186403V622.526025H60.40566Q63.707547 622.526025 65.226415 621.79961T66.745283 617.903384Q66.745283 613.148667 62.122642 613.148667H17.877358Q13.254717 613.148667 13.254717 617.903384Z" fill="#da0a0a" />
<path d="M40.07312 583.49853C41.048048 587.10577 42.620123 589.76246 44.789345 591.468586S49.359331 594.027778 51.991643 594.027778C54.965183 594.027778 57.512187 593.004101 59.63266 590.956747S62.81337 586.447692 62.81337 583.57165C62.81337 580.939338 62.167479 578.258277 60.875696 575.528474S57.950905 570.16636 55.976671 567.631538S51.991643 562.549714 49.94429 559.990522S45.934891 554.518727 44.058148 551.252708S40.853067 544.745048 40.07312 541.527778C39.195682 544.891288 37.794218 548.266986 35.868733 551.654867S31.956825 558.040658 29.909471 560.6486C27.862117 563.256541 25.863512 565.815733 23.913649 568.326176S20.355151 573.359252 19.087744 575.894073S17.18663 580.841847 17.18663 583.132931C17.18663 586.203962 18.222495 588.787525 20.29422 590.883627C22.365945 592.97973 24.912955 594.027778 27.935237 594.027778C33.73607 594.027778 37.782058 590.518028 40.07312 583.49853Z" fill="#da0a0a" />
</svg>
