<svg width="25.000000" height="35.000000" id="card-lightdiamond8">
<rect x="0" y="0" rx="1.25" ry="1.25" width="25" height="35.0" stroke="rgba(1,1,1,0.333)" fill="#fffdfa" />
<path d="M7.506954 3.333333C7.395688 3.555865 7.126796 3.955726 6.700278 4.532916C6.27376 5.110107 5.930688 5.542422 5.671071 5.829856C5.995596 6.200742 6.34446 6.641171 6.717663 7.151136C7.090867 7.661103 7.353964 8.055169 7.506954 8.333333C7.850023 7.721372 8.45735 6.88688 9.328929 5.829856C8.434166 4.749655 7.826843 3.917478 7.506954 3.333333Z" fill="#da0a0a" />
<path d="M7.493046 31.666667C7.604312 31.444135 7.873204 31.044274 8.299722 30.467084C8.72624 29.889893 9.069312 29.457578 9.328929 29.170144C9.004404 28.799258 8.65554 28.358829 8.282337 27.848864C7.909133 27.338897 7.646036 26.944831 7.493046 26.666667C7.149977 27.278628 6.54265 28.11312 5.671071 29.170144C6.565834 30.250345 7.173157 31.082522 7.493046 31.666667Z" fill="#da0a0a" />
<path d="M7.506954 11.111111C7.395688 11.333642 7.126796 11.733503 6.700278 12.310694C6.27376 12.887884 5.930688 13.3202 5.671071 13.607634C5.995596 13.978519 6.34446 14.418948 6.717663 14.928914C7.090867 15.438881 7.353964 15.832947 7.506954 16.111111C7.850023 15.49915 8.45735 14.664658 9.328929 13.607634C8.434166 12.527432 7.826843 11.695256 7.506954 11.111111Z" fill="#da0a0a" />
<path d="M7.493046 23.888889C7.604312 23.666358 7.873204 23.266497 8.299722 22.689306C8.72624 22.112116 9.069312 21.6798 9.328929 21.392366C9.004404 21.021481 8.65554 20.581052 8.282337 20.071086C7.909133 19.561119 7.646036 19.167053 7.493046 18.888889C7.149977 19.50085 6.54265 20.335342 5.671071 21.392366C6.565834 22.472568 7.173157 23.304744 7.493046 23.888889Z" fill="#da0a0a" />
<path d="M17.506954 3.333333C17.395688 3.555865 17.126796 3.955726 16.700278 4.532916C16.27376 5.110107 15.930688 5.542422 15.671071 5.829856C15.995596 6.200742 16.34446 6.641171 16.717663 7.151136C17.090867 7.661103 17.353964 8.055169 17.506954 8.333333C17.850023 7.721372 18.45735 6.88688 19.328929 5.829856C18.434166 4.749655 17.826843 3.917478 17.506954 3.333333Z" fill="#da0a0a" />
<path d="M17.493046 31.666667C17.604312 31.444135 17.873204 31.044274 18.299722 30.467084C18.72624 29.889893 19.069312 29.457578 19.328929 29.170144C19.004404 28.799258 18.65554 28.358829 18.282337 27.848864C17.909133 27.338897 17.646036 26.944831 17.493046 26.666667C17.149977 27.278628 16.54265 28.11312 15.671071 29.170144C16.565834 30.250345 17.173157 31.082522 17.493046 31.666667Z" fill="#da0a0a" />
<path d="M17.506954 11.111111C17.395688 11.333642 17.126796 11.733503 16.700278 12.310694C16.27376 12.887884 15.930688 13.3202 15.671071 13.607634C15.995596 13.978519 16.34446 14.418948 16.717663 14.928914C17.090867 15.438881 17.353964 15.832947 17.506954 16.111111C17.850023 15.49915 18.45735 14.664658 19.328929 13.607634C18.434166 12.527432 17.826843 11.695256 17.506954 11.111111Z" fill="#da0a0a" />
<path d="M17.493046 23.888889C17.604312 23.666358 17.873204 23.266497 18.299722 22.689306C18.72624 22.112116 19.069312 21.6798 19.328929 21.392366C19.004404 21.021481 18.65554 20.581052 18.282337 20.071086C17.909133 19.561119 17.646036 19.167053 17.493046 18.888889C17.149977 19.50085 16.54265 20.335342 15.671071 21.392366C16.565834 22.472568 17.173157 23.304744 17.493046 23.888889Z" fill="#da0a0a" />
<path d="M23.696818 4.221658Q23.98 4.100748 24.132727 3.890748T24.285455 3.413476Q24.285455 3.133476 24.097727 2.926658T23.540909 2.560748Q23.846364 2.376203 23.989545 2.185294T24.132727 1.752567Q24.132727 1.504385 23.967273 1.294385T23.528182 0.963476T22.942727 0.842567Q22.624545 0.842567 22.376364 0.957112T21.988182 1.26893T21.848182 1.714385Q21.848182 1.943476 22.007273 2.14393T22.484545 2.503476Q22.064545 2.681658 21.889545 2.87893T21.714545 3.381658Q21.714545 3.642567 21.883182 3.862112T22.354091 4.212112T23.044545 4.342567Q23.413636 4.342567 23.696818 4.221658ZM22.436818 2.086658Q22.344545 1.905294 22.344545 1.708021Q22.344545 1.434385 22.51 1.246658T22.974545 1.05893Q23.260909 1.05893 23.432727 1.224385T23.604545 1.644385Q23.604545 1.879839 23.372273 2.042112T22.700909 2.38893Q22.529091 2.268021 22.436818 2.086658ZM22.478182 3.954385Q22.287273 3.776203 22.287273 3.496203Q22.287273 3.311658 22.405 3.174839T22.710455 2.939385T23.299091 2.662567Q23.496364 2.796203 23.604545 2.980748T23.712727 3.388021Q23.712727 3.71893 23.512273 3.925748T22.987273 4.132567Q22.669091 4.132567 22.478182 3.954385Z" fill="#da0a0a" />
<path d="M23.003651 5.298611C22.945236 5.41544 22.804068 5.625367 22.580146 5.928392C22.356224 6.231417 22.176111 6.458383 22.039812 6.609286C22.210188 6.804 22.393341 7.035226 22.589273 7.302957C22.785205 7.57069 22.923331 7.777575 23.003651 7.923611C23.183762 7.602332 23.502609 7.164223 23.960188 6.609286C23.490437 6.04218 23.171592 5.605287 23.003651 5.298611Z" fill="#da0a0a" />
<path d="M1.303182 30.778342Q1.02 30.899252 0.867273 31.109252T0.714545 31.586524Q0.714545 31.866524 0.902273 32.073342T1.459091 32.439252Q1.153636 32.623797 1.010455 32.814706T0.867273 33.247433Q0.867273 33.495615 1.032727 33.705615T1.471818 34.036524T2.057273 34.157433Q2.375455 34.157433 2.623636 34.042888T3.011818 33.73107T3.151818 33.285615Q3.151818 33.056524 2.992727 32.85607T2.515455 32.496524Q2.935455 32.318342 3.110455 32.12107T3.285455 31.618342Q3.285455 31.357433 3.116818 31.137888T2.645909 30.787888T1.955455 30.657433Q1.586364 30.657433 1.303182 30.778342ZM2.563182 32.913342Q2.655455 33.094706 2.655455 33.291979Q2.655455 33.565615 2.49 33.753342T2.025455 33.94107Q1.739091 33.94107 1.567273 33.775615T1.395455 33.355615Q1.395455 33.120161 1.627727 32.957888T2.299091 32.61107Q2.470909 32.731979 2.563182 32.913342ZM2.521818 31.045615Q2.712727 31.223797 2.712727 31.503797Q2.712727 31.688342 2.595 31.825161T2.289545 32.060615T1.700909 32.337433Q1.503636 32.203797 1.395455 32.019252T1.287273 31.611979Q1.287273 31.28107 1.487727 31.074252T2.012727 30.867433Q2.330909 30.867433 2.521818 31.045615Z" fill="#da0a0a" />
<path d="M1.996349 29.701389C2.054764 29.58456 2.195932 29.374633 2.419854 29.071608C2.643776 28.768583 2.823889 28.541617 2.960188 28.390714C2.789812 28.196 2.606659 27.964774 2.410727 27.697043C2.214795 27.42931 2.076669 27.222425 1.996349 27.076389C1.816238 27.397668 1.497391 27.835777 1.039812 28.390714C1.509563 28.95782 1.828408 29.394713 1.996349 29.701389Z" fill="#da0a0a" />
</svg>
