<svg width="500.000000" height="700.000000" id="card-realdiamond9">
<radialGradient id="card-realwhitegradient" cx="250.0" cy="350.0" r="500" gradientTransform="matrix(1 0 0 1 0 -.25)" gradientUnits="userSpaceOnUse">
<stop stop-color="#FDFAF4" offset=".15"/>
<stop stop-color="#FDF9F2" offset=".35"/>
<stop stop-color="#FCF7F1" offset=".5"/>
<stop stop-color="#FDFDF8" offset=".75"/>
<stop stop-color="#FFFDFA" offset="1"/>
</radialGradient>
<rect x="0" y="0" rx="25.0" ry="25.0" width="500" height="700.0" stroke="rgba(1,1,1,0.333)" fill="url(#card-realwhitegradient)" />
<path d="M150.139082 66.666667C147.913769 71.117293 142.535925 79.114511 134.005563 90.658322C125.475202 102.202133 118.613769 110.848447 113.421419 116.597126C119.911919 124.014831 126.889193 132.823412 134.353268 143.022717C141.817344 153.222063 147.079277 161.103384 150.139082 166.666667C157.000459 154.427446 169.14701 137.737599 186.578581 116.597126C168.68331 94.993092 156.536857 78.34956 150.139082 66.666667Z" fill="#da0a0a" />
<path d="M149.860918 633.333333C152.086231 628.882707 157.464075 620.885489 165.994437 609.341678C174.524798 597.797867 181.386231 589.151553 186.578581 583.402874C180.088081 575.985169 173.110807 567.176588 165.646732 556.977283C158.182656 546.777937 152.920723 538.896616 149.860918 533.333333C142.999541 545.572554 130.85299 562.262401 113.421419 583.402874C131.31669 605.006908 143.463143 621.65044 149.860918 633.333333Z" fill="#da0a0a" />
<path d="M150.139082 222.222222C147.913769 226.672848 142.535925 234.670066 134.005563 246.213877C125.475202 257.757688 118.613769 266.404002 113.421419 272.152681C119.911919 279.570386 126.889193 288.378968 134.353268 298.578272C141.817344 308.777619 147.079277 316.65894 150.139082 322.222222C157.000459 309.983001 169.14701 293.293154 186.578581 272.152681C168.68331 250.548648 156.536857 233.905115 150.139082 222.222222Z" fill="#da0a0a" />
<path d="M149.860918 477.777778C152.086231 473.327152 157.464075 465.329934 165.994437 453.786123C174.524798 442.242312 181.386231 433.595998 186.578581 427.847319C180.088081 420.429614 173.110807 411.621032 165.646732 401.421728C158.182656 391.222381 152.920723 383.34106 149.860918 377.777778C142.999541 390.016999 130.85299 406.706846 113.421419 427.847319C131.31669 449.451352 143.463143 466.094885 149.860918 477.777778Z" fill="#da0a0a" />
<path d="M350.139082 66.666667C347.913769 71.117293 342.535925 79.114511 334.005563 90.658322C325.475202 102.202133 318.613769 110.848447 313.421419 116.597126C319.911919 124.014831 326.889193 132.823412 334.353268 143.022717C341.817344 153.222063 347.079277 161.103384 350.139082 166.666667C357.000459 154.427446 369.14701 137.737599 386.578581 116.597126C368.68331 94.993092 356.536857 78.34956 350.139082 66.666667Z" fill="#da0a0a" />
<path d="M349.860918 633.333333C352.086231 628.882707 357.464075 620.885489 365.994437 609.341678C374.524798 597.797867 381.386231 589.151553 386.578581 583.402874C380.088081 575.985169 373.110807 567.176588 365.646732 556.977283C358.182656 546.777937 352.920723 538.896616 349.860918 533.333333C342.999541 545.572554 330.85299 562.262401 313.421419 583.402874C331.31669 605.006908 343.463143 621.65044 349.860918 633.333333Z" fill="#da0a0a" />
<path d="M350.139082 222.222222C347.913769 226.672848 342.535925 234.670066 334.005563 246.213877C325.475202 257.757688 318.613769 266.404002 313.421419 272.152681C319.911919 279.570386 326.889193 288.378968 334.353268 298.578272C341.817344 308.777619 347.079277 316.65894 350.139082 322.222222C357.000459 309.983001 369.14701 293.293154 386.578581 272.152681C368.68331 250.548648 356.536857 233.905115 350.139082 222.222222Z" fill="#da0a0a" />
<path d="M349.860918 477.777778C352.086231 473.327152 357.464075 465.329934 365.994437 453.786123C374.524798 442.242312 381.386231 433.595998 386.578581 427.847319C380.088081 420.429614 373.110807 411.621032 365.646732 401.421728C358.182656 391.222381 352.920723 383.34106 349.860918 377.777778C342.999541 390.016999 330.85299 406.706846 313.421419 427.847319C331.31669 449.451352 343.463143 466.094885 349.860918 477.777778Z" fill="#da0a0a" />
<path d="M250.139082 144.444444C247.913769 148.89507 242.535925 156.892289 234.005563 168.4361C225.475202 179.97991 218.613769 188.626225 213.421419 194.374903C219.911919 201.792609 226.889193 210.60119 234.353268 220.800495C241.817344 230.999841 247.079277 238.881162 250.139082 244.444444C257.000459 232.205223 269.14701 215.515376 286.578581 194.374903C268.68331 172.77087 256.536857 156.127337 250.139082 144.444444Z" fill="#da0a0a" />
<path d="M474.620253 86.851333Q477.151899 86.851333 477.151899 84.572852Q477.151899 82.547536 474.873418 81.914624Q451.708861 74.699435 447.278481 55.965257Q451.455696 58.750068 455.56962 59.889308T464.113924 61.028549Q470.189873 61.028549 475.253165 58.30703T483.227848 50.838675T486.139241 40.01589Q486.139241 33.180447 482.468354 27.927283T472.848101 19.762726T460.189873 16.851333Q448.164557 16.851333 441.012658 24.319688T433.860759 44.699435Q433.860759 54.952599 438.734177 63.813359T452.468354 78.686776T472.721519 86.724751Q473.35443 86.851333 474.620253 86.851333ZM453.227848 53.750068Q449.810127 52.167789 446.772152 49.509561Q446.012658 46.471586 446.012658 44.572852Q446.012658 39.509561 447.341772 34.066523T451.898734 24.762726T460.189873 20.901966Q466.139241 20.901966 470.063291 25.901966T473.987342 38.87665Q473.987342 46.345004 470.063291 50.838675T459.810127 55.332346Q456.64557 55.332346 453.227848 53.750068Z" fill="#da0a0a" />
<path d="M460.073018 105.972222C458.904729 108.308801 456.081361 112.50734 451.602921 118.567841C447.124481 124.628342 443.522229 129.167657 440.796245 132.185713C444.203758 136.080008 447.866826 140.704514 451.785466 146.059149C455.704105 151.413805 458.46662 155.551499 460.073018 158.472222C463.675241 152.046631 470.05218 143.284461 479.203755 132.185713C469.808738 120.843596 463.43185 112.105741 460.073018 105.972222Z" fill="#da0a0a" />
<path d="M25.379747 613.148667Q22.848101 613.148667 22.848101 615.427148Q22.848101 617.452464 25.126582 618.085376Q48.291139 625.300565 52.721519 644.034743Q48.544304 641.249932 44.43038 640.110692T35.886076 638.971451Q29.810127 638.971451 24.746835 641.69297T16.772152 649.161325T13.860759 659.98411Q13.860759 666.819553 17.531646 672.072717T27.151899 680.237274T39.810127 683.148667Q51.835443 683.148667 58.987342 675.680312T66.139241 655.300565Q66.139241 645.047401 61.265823 636.186641T47.531646 621.313224T27.278481 613.275249Q26.64557 613.148667 25.379747 613.148667ZM46.772152 646.249932Q50.189873 647.832211 53.227848 650.490439Q53.987342 653.528414 53.987342 655.427148Q53.987342 660.490439 52.658228 665.933477T48.101266 675.237274T39.810127 679.098034Q33.860759 679.098034 29.936709 674.098034T26.012658 661.12335Q26.012658 653.654996 29.936709 649.161325T40.189873 644.667654Q43.35443 644.667654 46.772152 646.249932Z" fill="#da0a0a" />
<path d="M39.926982 594.027778C41.095271 591.691199 43.918639 587.49266 48.397079 581.432159C52.875519 575.371658 56.477771 570.832343 59.203755 567.814287C55.796242 563.919992 52.133174 559.295486 48.214534 553.940851C44.295895 548.586195 41.53338 544.448501 39.926982 541.527778C36.324759 547.953369 29.94782 556.715539 20.796245 567.814287C30.191262 579.156404 36.56815 587.894259 39.926982 594.027778Z" fill="#da0a0a" />
</svg>
