<svg width="500.000000" height="700.000000" id="card-realspade6">
<radialGradient id="card-realwhitegradient" cx="250.0" cy="350.0" r="500" gradientTransform="matrix(1 0 0 1 0 -.25)" gradientUnits="userSpaceOnUse">
<stop stop-color="#FDFAF4" offset=".15"/>
<stop stop-color="#FDF9F2" offset=".35"/>
<stop stop-color="#FCF7F1" offset=".5"/>
<stop stop-color="#FDFDF8" offset=".75"/>
<stop stop-color="#FFFDFA" offset="1"/>
</radialGradient>
<rect x="0" y="0" rx="25.0" ry="25.0" width="500" height="700.0" stroke="rgba(1,1,1,0.333)" fill="url(#card-realwhitegradient)" />
<path d="M147.659574 132.907801C147.186762 137.825064 146.004723 142.174936 144.113475 145.957447C142.222227 149.739957 140.236411 152.624113 138.156028 154.609929S133.451532 158.297872 130.283688 159.716312C127.115844 161.134752 124.680851 162.056738 122.978723 162.48227S119.196213 163.309692 116.737589 163.687943C116.359338 163.782506 116.07565 163.829787 115.886525 163.829787V166.666667H184.113475V163.829787C176.075645 162.411348 169.976355 160.330965 165.815603 157.588652C157.87234 152.293149 153.38061 144.066199 152.340426 132.907801C157.257688 140.472809 163.593376 144.255319 171.347518 144.255319C176.359333 144.255319 180.638298 142.505915 184.184397 139.007092S189.503546 131.25295 189.503546 126.241135C189.503546 121.985816 188.463357 118.108752 186.382979 114.609929C184.302596 111.111106 181.60756 107.919617 178.297872 105.035461S171.583929 99.148936 168.085106 96.028369C164.586284 92.907801 161.134752 88.817972 157.730496 83.758865S151.725773 73.002369 149.929078 66.666667C148.321518 72.907801 145.839248 78.534284 142.48227 83.546099S135.673759 92.624113 132.12766 95.744681S125.15366 101.891248 121.843972 104.822695S115.815603 110.969262 113.687943 114.468085S110.496454 121.891248 110.496454 126.241135C110.496454 131.25295 112.269504 135.50827 115.815603 139.007092S123.640667 144.255319 128.652482 144.255319C136.406624 144.255319 142.742312 140.472809 147.659574 132.907801Z" fill="#010101" />
<path d="M152.340426 567.092199C152.813238 562.174936 153.995277 557.825064 155.886525 554.042553C157.777773 550.260043 159.763589 547.375887 161.843972 545.390071S166.548468 541.702128 169.716312 540.283688C172.884156 538.865248 175.319149 537.943262 177.021277 537.51773S180.803787 536.690308 183.262411 536.312057C183.640662 536.217494 183.92435 536.170213 184.113475 536.170213V533.333333H115.886525V536.170213C123.924355 537.588652 130.023645 539.669035 134.184397 542.411348C142.12766 547.706851 146.61939 555.933801 147.659574 567.092199C142.742312 559.527191 136.406624 555.744681 128.652482 555.744681C123.640667 555.744681 119.361702 557.494085 115.815603 560.992908S110.496454 568.74705 110.496454 573.758865C110.496454 578.014184 111.536643 581.891248 113.617021 585.390071C115.697404 588.888894 118.39244 592.080383 121.702128 594.964539S128.416071 600.851064 131.914894 603.971631C135.413716 607.092199 138.865248 611.182028 142.269504 616.241135S148.274227 626.997631 150.070922 633.333333C151.678482 627.092199 154.160752 621.465716 157.51773 616.453901S164.326241 607.375887 167.87234 604.255319S174.84634 598.108752 178.156028 595.177305S184.184397 589.030738 186.312057 585.531915S189.503546 578.108752 189.503546 573.758865C189.503546 568.74705 187.730496 564.49173 184.184397 560.992908S176.359333 555.744681 171.347518 555.744681C163.593376 555.744681 157.257688 559.527191 152.340426 567.092199Z" fill="#010101" />
<path d="M147.659574 366.241135C147.186762 371.158397 146.004723 375.50827 144.113475 379.29078C142.222227 383.073291 140.236411 385.957447 138.156028 387.943262S133.451532 391.631206 130.283688 393.049645C127.115844 394.468085 124.680851 395.390071 122.978723 395.815603S119.196213 396.643026 116.737589 397.021277C116.359338 397.115839 116.07565 397.163121 115.886525 397.163121V400.0H184.113475V397.163121C176.075645 395.744681 169.976355 393.664298 165.815603 390.921986C157.87234 385.626482 153.38061 377.399532 152.340426 366.241135C157.257688 373.806142 163.593376 377.588652 171.347518 377.588652C176.359333 377.588652 180.638298 375.839248 184.184397 372.340426S189.503546 364.586284 189.503546 359.574468C189.503546 355.319149 188.463357 351.442085 186.382979 347.943262C184.302596 344.44444 181.60756 341.25295 178.297872 338.368794S171.583929 332.48227 168.085106 329.361702C164.586284 326.241135 161.134752 322.151305 157.730496 317.092199S151.725773 306.335702 149.929078 300.0C148.321518 306.241135 145.839248 311.867617 142.48227 316.879433S135.673759 325.957447 132.12766 329.078014S125.15366 335.224582 121.843972 338.156028S115.815603 344.302596 113.687943 347.801418S110.496454 355.224582 110.496454 359.574468C110.496454 364.586284 112.269504 368.841603 115.815603 372.340426S123.640667 377.588652 128.652482 377.588652C136.406624 377.588652 142.742312 373.806142 147.659574 366.241135Z" fill="#010101" />
<path d="M347.659574 132.907801C347.186762 137.825064 346.004723 142.174936 344.113475 145.957447C342.222227 149.739957 340.236411 152.624113 338.156028 154.609929S333.451532 158.297872 330.283688 159.716312C327.115844 161.134752 324.680851 162.056738 322.978723 162.48227S319.196213 163.309692 316.737589 163.687943C316.359338 163.782506 316.07565 163.829787 315.886525 163.829787V166.666667H384.113475V163.829787C376.075645 162.411348 369.976355 160.330965 365.815603 157.588652C357.87234 152.293149 353.38061 144.066199 352.340426 132.907801C357.257688 140.472809 363.593376 144.255319 371.347518 144.255319C376.359333 144.255319 380.638298 142.505915 384.184397 139.007092S389.503546 131.25295 389.503546 126.241135C389.503546 121.985816 388.463357 118.108752 386.382979 114.609929C384.302596 111.111106 381.60756 107.919617 378.297872 105.035461S371.583929 99.148936 368.085106 96.028369C364.586284 92.907801 361.134752 88.817972 357.730496 83.758865S351.725773 73.002369 349.929078 66.666667C348.321518 72.907801 345.839248 78.534284 342.48227 83.546099S335.673759 92.624113 332.12766 95.744681S325.15366 101.891248 321.843972 104.822695S315.815603 110.969262 313.687943 114.468085S310.496454 121.891248 310.496454 126.241135C310.496454 131.25295 312.269504 135.50827 315.815603 139.007092S323.640667 144.255319 328.652482 144.255319C336.406624 144.255319 342.742312 140.472809 347.659574 132.907801Z" fill="#010101" />
<path d="M352.340426 567.092199C352.813238 562.174936 353.995277 557.825064 355.886525 554.042553C357.777773 550.260043 359.763589 547.375887 361.843972 545.390071S366.548468 541.702128 369.716312 540.283688C372.884156 538.865248 375.319149 537.943262 377.021277 537.51773S380.803787 536.690308 383.262411 536.312057C383.640662 536.217494 383.92435 536.170213 384.113475 536.170213V533.333333H315.886525V536.170213C323.924355 537.588652 330.023645 539.669035 334.184397 542.411348C342.12766 547.706851 346.61939 555.933801 347.659574 567.092199C342.742312 559.527191 336.406624 555.744681 328.652482 555.744681C323.640667 555.744681 319.361702 557.494085 315.815603 560.992908S310.496454 568.74705 310.496454 573.758865C310.496454 578.014184 311.536643 581.891248 313.617021 585.390071C315.697404 588.888894 318.39244 592.080383 321.702128 594.964539S328.416071 600.851064 331.914894 603.971631C335.413716 607.092199 338.865248 611.182028 342.269504 616.241135S348.274227 626.997631 350.070922 633.333333C351.678482 627.092199 354.160752 621.465716 357.51773 616.453901S364.326241 607.375887 367.87234 604.255319S374.84634 598.108752 378.156028 595.177305S384.184397 589.030738 386.312057 585.531915S389.503546 578.108752 389.503546 573.758865C389.503546 568.74705 387.730496 564.49173 384.184397 560.992908S376.359333 555.744681 371.347518 555.744681C363.593376 555.744681 357.257688 559.527191 352.340426 567.092199Z" fill="#010101" />
<path d="M347.659574 366.241135C347.186762 371.158397 346.004723 375.50827 344.113475 379.29078C342.222227 383.073291 340.236411 385.957447 338.156028 387.943262S333.451532 391.631206 330.283688 393.049645C327.115844 394.468085 324.680851 395.390071 322.978723 395.815603S319.196213 396.643026 316.737589 397.021277C316.359338 397.115839 316.07565 397.163121 315.886525 397.163121V400.0H384.113475V397.163121C376.075645 395.744681 369.976355 393.664298 365.815603 390.921986C357.87234 385.626482 353.38061 377.399532 352.340426 366.241135C357.257688 373.806142 363.593376 377.588652 371.347518 377.588652C376.359333 377.588652 380.638298 375.839248 384.184397 372.340426S389.503546 364.586284 389.503546 359.574468C389.503546 355.319149 388.463357 351.442085 386.382979 347.943262C384.302596 344.44444 381.60756 341.25295 378.297872 338.368794S371.583929 332.48227 368.085106 329.361702C364.586284 326.241135 361.134752 322.151305 357.730496 317.092199S351.725773 306.335702 349.929078 300.0C348.321518 306.241135 345.839248 311.867617 342.48227 316.879433S335.673759 325.957447 332.12766 329.078014S325.15366 335.224582 321.843972 338.156028S315.815603 344.302596 313.687943 347.801418S310.496454 355.224582 310.496454 359.574468C310.496454 364.586284 312.269504 368.841603 315.815603 372.340426S323.640667 377.588652 328.652482 377.588652C336.406624 377.588652 342.742312 373.806142 347.659574 366.241135Z" fill="#010101" />
<path d="M478.987342 79.382979Q486.139241 71.914624 486.139241 59.003232Q486.139241 48.750068 481.265823 39.889308T467.531646 25.01589T447.278481 16.977916Q446.64557 16.851333 445.379747 16.851333Q442.848101 16.851333 442.848101 19.129814Q442.848101 21.155131 445.126582 21.788042Q468.291139 29.003232 472.721519 47.737409Q468.544304 44.952599 464.43038 43.813359T455.886076 42.674118Q449.810127 42.674118 444.746835 45.395637T436.772152 52.863992T433.860759 63.686776Q433.860759 70.522219 437.531646 75.775384T447.151899 83.939941T459.810127 86.851333Q471.835443 86.851333 478.987342 79.382979ZM449.936709 77.8007Q446.012658 72.8007 446.012658 64.826017Q446.012658 57.357662 449.936709 52.863992T460.189873 48.370321Q463.35443 48.370321 466.772152 49.952599T473.227848 54.193105Q473.987342 57.23108 473.987342 59.129814Q473.987342 64.193105 472.658228 69.636143T468.101266 78.939941T459.810127 82.8007Q453.860759 82.8007 449.936709 77.8007Z" fill="#010101" />
<path d="M458.771277 140.748818C458.52305 143.330381 457.90248 145.614064 456.909574 147.599882C455.916669 149.5857 454.874116 151.099882 453.781915 152.142435S451.312054 154.078605 449.648936 154.823286C447.985818 155.567967 446.707447 156.052009 445.81383 156.275414S443.828012 156.709811 442.537234 156.908392C442.338652 156.958038 442.189716 156.982861 442.090426 156.982861V158.472222H477.909574V156.982861C473.689714 156.23818 470.487586 155.145979 468.303191 153.706265C464.132979 150.926125 461.77482 146.606976 461.228723 140.748818C463.810286 144.720447 467.136522 146.706265 471.207447 146.706265C473.83865 146.706265 476.085106 145.787828 477.946809 143.950946S480.739362 139.880021 480.739362 137.248818C480.739362 135.014775 480.193263 132.979317 479.101064 131.142435C478.008863 129.305553 476.593969 127.630021 474.856383 126.115839S471.331563 123.025414 469.494681 121.387116C467.657799 119.748818 465.845745 117.601657 464.058511 114.945626S460.906031 109.298466 459.962766 105.972222C459.118797 109.248818 457.815605 112.202721 456.053191 114.833924S452.478723 119.599882 450.617021 121.23818S446.955671 124.465128 445.218085 126.004137S442.053191 129.231085 440.93617 131.067967S439.260638 134.965128 439.260638 137.248818C439.260638 139.880021 440.191489 142.114064 442.053191 143.950946S446.16135 146.706265 448.792553 146.706265C452.863478 146.706265 456.189714 144.720447 458.771277 140.748818Z" fill="#010101" />
<path d="M21.012658 620.617021Q13.860759 628.085376 13.860759 640.996768Q13.860759 651.249932 18.734177 660.110692T32.468354 674.98411T52.721519 683.022084Q53.35443 683.148667 54.620253 683.148667Q57.151899 683.148667 57.151899 680.870186Q57.151899 678.844869 54.873418 678.211958Q31.708861 670.996768 27.278481 652.262591Q31.455696 655.047401 35.56962 656.186641T44.113924 657.325882Q50.189873 657.325882 55.253165 654.604363T63.227848 647.136008T66.139241 636.313224Q66.139241 629.477781 62.468354 624.224616T52.848101 616.060059T40.189873 613.148667Q28.164557 613.148667 21.012658 620.617021ZM50.063291 622.1993Q53.987342 627.1993 53.987342 635.173983Q53.987342 642.642338 50.063291 647.136008T39.810127 651.629679Q36.64557 651.629679 33.227848 650.047401T26.772152 645.806895Q26.012658 642.76892 26.012658 640.870186Q26.012658 635.806895 27.341772 630.363857T31.898734 621.060059T40.189873 617.1993Q46.139241 617.1993 50.063291 622.1993Z" fill="#010101" />
<path d="M41.228723 559.251182C41.47695 556.669619 42.09752 554.385936 43.090426 552.400118C44.083331 550.4143 45.125884 548.900118 46.218085 547.857565S48.687946 545.921395 50.351064 545.176714C52.014182 544.432033 53.292553 543.947991 54.18617 543.724586S56.171988 543.290189 57.462766 543.091608C57.661348 543.041962 57.810284 543.017139 57.909574 543.017139V541.527778H22.090426V543.017139C26.310286 543.76182 29.512414 544.854021 31.696809 546.293735C35.867021 549.073875 38.22518 553.393024 38.771277 559.251182C36.189714 555.279553 32.863478 553.293735 28.792553 553.293735C26.16135 553.293735 23.914894 554.212172 22.053191 556.049054S19.260638 560.119979 19.260638 562.751182C19.260638 564.985225 19.806737 567.020683 20.898936 568.857565C21.991137 570.694447 23.406031 572.369979 25.143617 573.884161S28.668437 576.974586 30.505319 578.612884C32.342201 580.251182 34.154255 582.398343 35.941489 585.054374S39.093969 590.701534 40.037234 594.027778C40.881203 590.751182 42.184395 587.797279 43.946809 585.166076S47.521277 580.400118 49.382979 578.76182S53.044329 575.534872 54.781915 573.995863S57.946809 570.768915 59.06383 568.932033S60.739362 565.034872 60.739362 562.751182C60.739362 560.119979 59.808511 557.885936 57.946809 556.049054S53.83865 553.293735 51.207447 553.293735C47.136522 553.293735 43.810286 555.279553 41.228723 559.251182Z" fill="#010101" />
</svg>
