<svg width="500.000000" height="700.000000" id="card-realclub1">
<radialGradient id="card-realwhitegradient" cx="250.0" cy="350.0" r="500" gradientTransform="matrix(1 0 0 1 0 -.25)" gradientUnits="userSpaceOnUse">
<stop stop-color="#FDFAF4" offset=".15"/>
<stop stop-color="#FDF9F2" offset=".35"/>
<stop stop-color="#FCF7F1" offset=".5"/>
<stop stop-color="#FDFDF8" offset=".75"/>
<stop stop-color="#FFFDFA" offset="1"/>
</radialGradient>
<rect x="0" y="0" rx="25.0" ry="25.0" width="500" height="700.0" stroke="rgba(1,1,1,0.333)" fill="url(#card-realwhitegradient)" />
<path d="M168.696884 349.716714C161.70915 351.794144 156.562805 354.957507 153.25779 359.206799S148.300283 368.035892 148.300283 372.946176C148.300283 378.611898 150.330501 383.522181 154.390935 387.677054S163.220028 393.909348 168.696884 393.909348C176.062323 393.909348 183.711048 391.21813 191.643059 385.835694S208.215297 374.07932 217.563739 366.713881S235.741275 354.249292 244.050992 351.416431C243.295561 358.970737 242.917847 364.258725 242.917847 367.280453C242.917847 405.618414 257.082153 433.569405 285.410765 451.133144C293.531643 443.767705 298.819632 438.574136 301.274788 435.552408C291.265354 428.375836 282.813966 420.160538 275.92068 410.906516S264.21153 392.72898 261.473088 384.135977S256.893286 368.696884 255.949008 363.597734S254.532578 354.249292 254.532578 350.849858C261.898017 353.305006 269.405099 357.082153 277.053824 362.181303S291.170907 372.143541 296.458924 376.770538C301.746941 381.397535 307.459858 385.457989 313.597734 388.951841S325.448527 394.192635 330.736544 394.192635C336.591133 394.192635 341.54864 392.209632 345.609065 388.243626C349.66949 384.27762 351.699717 379.367337 351.699717 373.512748C351.699717 362.181303 344.90085 354.249292 331.303116 349.716714C344.90085 346.128414 351.699717 338.479688 351.699717 326.770538C351.699717 320.915949 349.716714 315.958442 345.750708 311.898017S337.063258 305.807365 331.586402 305.807365C325.354108 305.807365 318.838527 307.743153 312.03966 311.614731S299.102918 319.877252 293.626062 324.787535C288.149207 329.697819 281.491983 334.655326 273.654391 339.660057S258.120878 348.016997 250.566572 349.716714C253.210575 340.084986 258.262521 330.169972 265.72238 319.971671S279.839462 300.566572 285.694051 292.351275C291.54864 284.135977 294.475921 276.628895 294.475921 269.830028C294.475921 263.786601 292.492918 258.78187 288.526912 254.815864S279.556176 248.866856 273.512748 248.866856C262.37017 248.866856 254.626997 255.665722 250.283286 269.263456C248.205856 262.275722 245.089717 257.129377 240.934844 253.824363S232.152975 248.866856 227.053824 248.866856C221.388102 248.866856 216.477819 250.849858 212.322946 254.815864C208.168074 258.78187 206.090652 263.503314 206.090652 268.98017C206.090652 276.723314 208.923513 284.891416 214.589235 293.484419C220.254958 302.077422 226.628895 311.284221 233.711048 321.104816S245.561841 340.462691 248.016997 349.716714C240.084986 347.639283 232.152975 344.050992 224.220963 338.951841S209.678952 328.895184 204.390935 324.07932S193.295552 314.966941 186.968839 311.189802S174.834759 305.524079 169.546742 305.524079C163.503314 305.524079 158.45136 307.554297 154.390935 311.614731S148.300283 320.632663 148.300283 326.487252C148.300283 337.62983 155.09915 345.373003 168.696884 349.716714Z" fill="#010101" />
<path d="M494.530551 84.556251Q495.0 83.878159 495.0 82.939262Q494.895678 81.374433 494.374069 81.061467T493.122206 80.748502H492.183308Q489.053651 80.748502 487.593145 79.131512T485.245902 75.480245T484.0462 72.715715L465.789866 29.526445Q465.163934 27.961616 465.163934 27.022719Q465.163934 25.144925 466.624441 24.31035T470.692996 22.954165Q472.466468 22.641199 472.883756 22.328233T473.301043 20.554761Q473.301043 19.302898 472.622951 18.885611T470.484352 18.468323Q465.268256 18.468323 462.19076 19.250737T456.818182 22.380394T452.540984 29.526445L435.014903 72.715715Q433.450075 76.679947 431.989568 78.662064T427.608048 80.748502H426.982116Q425.938897 80.748502 425.52161 81.113628T425.0 82.939262Q425.0 83.878159 425.469449 84.556251T426.877794 85.234344Q433.554396 84.921378 438.353204 84.921378Q444.612519 84.921378 451.289121 85.234344Q452.228018 85.234344 452.697466 84.556251T453.166915 82.939262Q453.062593 81.478755 452.645306 81.113628T451.184799 80.748502Q447.637854 80.748502 446.177347 80.070409T444.716841 77.618845Q444.716841 76.26266 445.968703 72.715715L449.515648 64.056997H475.283159Q477.891207 70.524955 478.256334 71.568174T478.621461 72.715715Q479.873323 76.679947 479.873323 77.827488Q479.873323 79.600961 478.308495 80.174731T472.362146 80.748502H471.736215Q470.692996 80.748502 470.275708 81.113628T469.754098 82.939262Q469.754098 83.878159 470.223547 84.556251T471.631893 85.234344Q478.308495 84.921378 483.002981 84.921378Q486.341282 84.921378 493.122206 85.234344Q494.061103 85.234344 494.530551 84.556251ZM473.301043 59.571154H451.393443L461.929955 32.760424H462.242921Z" fill="#010101" />
<path d="M458.958924 136.646797C458.909348 138.134049 458.84738 139.336247 458.773017 140.253384C458.698654 141.17052 458.512748 142.335537 458.215297 143.748426S457.558428 146.326332 457.13704 147.243469S456.083567 149.189293 455.240793 150.329517S453.406513 152.41167 452.266289 153.155296S449.688383 154.617763 447.953258 155.311811S444.235127 156.551191 442.004249 156.947789V158.435041H477.995751V156.947789C475.764873 156.551188 473.781867 155.993471 472.046742 155.27463S468.861546 153.824559 467.69653 153.080933S465.540014 151.38299 464.722025 150.217973S463.271955 148.024276 462.825779 147.131925S462.020187 145.074557 461.747521 143.636882S461.301346 141.046587 461.226983 140.179021C461.15262 139.311455 461.090652 138.134049 461.041076 136.646797C462.230878 138.828098 463.197592 140.364928 463.941218 141.257279C465.279745 142.942834 466.928119 144.281361 468.886331 145.27286C470.844544 146.264359 472.765583 146.760112 474.649433 146.760112C477.82224 146.760112 480.548864 145.582706 482.82932 143.227888S486.25 138.034902 486.25 134.71337C486.25 131.490992 485.22132 128.739576 483.163952 126.45912S478.615437 123.03844 475.69051 123.03844C474.699011 123.03844 473.781867 123.174772 472.939093 123.447435S471.253539 124.067123 470.410765 124.488511L468.84915 125.269319C470.782578 122.493117 471.749292 119.865633 471.749292 117.386882C471.749292 114.263653 470.596671 111.586599 468.291431 109.355721S463.222377 106.009404 460.0 106.009404S454.01381 107.124843 451.708569 109.355721S448.250708 114.263653 448.250708 117.386882C448.250708 119.865633 449.217422 122.493117 451.15085 125.269319C450.803824 125.120593 450.320465 124.897506 449.700779 124.600055S448.622521 124.079517 448.325071 123.930792S447.643413 123.633341 447.17245 123.484616S446.242918 123.224347 445.796742 123.149984S444.854813 123.03844 444.30949 123.03844C441.384563 123.03844 438.893416 124.178665 436.836048 126.45912S433.75 131.490992 433.75 134.71337C433.75 138.034902 434.890224 140.87307 437.17068 143.227888S442.17776 146.760112 445.350567 146.760112C450.803822 146.760112 455.339919 143.389009 458.958924 136.646797Z" fill="#010101" />
<path d="M5.469449 615.443749Q5.0 616.121841 5.0 617.060738Q5.104322 618.625567 5.625931 618.938533T6.877794 619.251498H7.816692Q10.946349 619.251498 12.406855 620.868488T14.754098 624.519755T15.9538 627.284285L34.210134 670.473555Q34.836066 672.038384 34.836066 672.977281Q34.836066 674.855075 33.375559 675.68965T29.307004 677.045835Q27.533532 677.358801 27.116244 677.671767T26.698957 679.445239Q26.698957 680.697102 27.377049 681.114389T29.515648 681.531677Q34.731744 681.531677 37.80924 680.749263T43.181818 677.619606T47.459016 670.473555L64.985097 627.284285Q66.549925 623.320053 68.010432 621.337936T72.391952 619.251498H73.017884Q74.061103 619.251498 74.47839 618.886372T75.0 617.060738Q75.0 616.121841 74.530551 615.443749T73.122206 614.765656Q66.445604 615.078622 61.646796 615.078622Q55.387481 615.078622 48.710879 614.765656Q47.771982 614.765656 47.302534 615.443749T46.833085 617.060738Q46.937407 618.521245 47.354694 618.886372T48.815201 619.251498Q52.362146 619.251498 53.822653 619.929591T55.283159 622.381155Q55.283159 623.73734 54.031297 627.284285L50.484352 635.943003H24.716841Q22.108793 629.475045 21.743666 628.431826T21.378539 627.284285Q20.126677 623.320053 20.126677 622.172512Q20.126677 620.399039 21.691505 619.825269T27.637854 619.251498H28.263785Q29.307004 619.251498 29.724292 618.886372T30.245902 617.060738Q30.245902 616.121841 29.776453 615.443749T28.368107 614.765656Q21.691505 615.078622 16.997019 615.078622Q13.658718 615.078622 6.877794 614.765656Q5.938897 614.765656 5.469449 615.443749ZM26.698957 640.428846H48.606557L38.070045 667.239576H37.757079Z" fill="#010101" />
<path d="M41.041076 563.353203C41.090652 561.865951 41.15262 560.663753 41.226983 559.746616C41.301346 558.82948 41.487252 557.664463 41.784703 556.251574S42.441572 553.673668 42.86296 552.756531S43.916433 550.810707 44.759207 549.670483S46.593487 547.58833 47.733711 546.844704S50.311617 545.382237 52.046742 544.688189S55.764873 543.448809 57.995751 543.052211V541.564959H22.004249V543.052211C24.235127 543.448812 26.218133 544.006529 27.953258 544.72537S31.138454 546.175441 32.30347 546.919067S34.459986 548.61701 35.277975 549.782027S36.728045 551.975724 37.174221 552.868075S37.979813 554.925443 38.252479 556.363118S38.698654 558.953413 38.773017 559.820979C38.84738 560.688545 38.909348 561.865951 38.958924 563.353203C37.769122 561.171902 36.802408 559.635072 36.058782 558.742721C34.720255 557.057166 33.071881 555.718639 31.113669 554.72714C29.155456 553.735641 27.234417 553.239888 25.350567 553.239888C22.17776 553.239888 19.451136 554.417294 17.17068 556.772112S13.75 561.965098 13.75 565.28663C13.75 568.509008 14.77868 571.260424 16.836048 573.54088S21.384563 576.96156 24.30949 576.96156C25.300989 576.96156 26.218133 576.825228 27.060907 576.552565S28.746461 575.932877 29.589235 575.511489L31.15085 574.730681C29.217422 577.506883 28.250708 580.134367 28.250708 582.613118C28.250708 585.736347 29.403329 588.413401 31.708569 590.644279S36.777623 593.990596 40.0 593.990596S45.98619 592.875157 48.291431 590.644279S51.749292 585.736347 51.749292 582.613118C51.749292 580.134367 50.782578 577.506883 48.84915 574.730681C49.196176 574.879407 49.679535 575.102494 50.299221 575.399945S51.377479 575.920483 51.674929 576.069208S52.356587 576.366659 52.82755 576.515384S53.757082 576.775653 54.203258 576.850016S55.145187 576.96156 55.69051 576.96156C58.615437 576.96156 61.106584 575.821335 63.163952 573.54088S66.25 568.509008 66.25 565.28663C66.25 561.965098 65.109776 559.12693 62.82932 556.772112S57.82224 553.239888 54.649433 553.239888C49.196178 553.239888 44.660081 556.610991 41.041076 563.353203Z" fill="#010101" />
</svg>
