<svg width="150.000000" height="210.000000" id="card-webdiamond9">
<radialGradient id="card-webwhitegradient" cx="75.0" cy="105.0" r="150" gradientTransform="matrix(1 0 0 1 0 -.25)" gradientUnits="userSpaceOnUse">
<stop stop-color="#FDFAF4" offset=".15"/>
<stop stop-color="#FDF9F2" offset=".35"/>
<stop stop-color="#FCF7F1" offset=".5"/>
<stop stop-color="#FDFDF8" offset=".75"/>
<stop stop-color="#FFFDFA" offset="1"/>
</radialGradient>
<rect x="0" y="0" rx="7.5" ry="7.5" width="150" height="210.0" stroke="rgba(1,1,1,0.333)" fill="url(#card-webwhitegradient)" />
<path d="M45.041725 20.0C44.374131 21.335188 42.760777 23.734353 40.201669 27.197497C37.642561 30.66064 35.584131 33.254534 34.026426 34.979138C35.973576 37.204449 38.066758 39.847024 40.305981 42.906815C42.545203 45.966619 44.123783 48.331015 45.041725 50.0C47.100138 46.328234 50.744103 41.32128 55.973574 34.979138C50.604993 28.497928 46.961057 23.504868 45.041725 20.0Z" fill="#da0a0a" />
<path d="M44.958275 190.0C45.625869 188.664812 47.239223 186.265647 49.798331 182.802503C52.357439 179.33936 54.415869 176.745466 55.973574 175.020862C54.026424 172.795551 51.933242 170.152976 49.694019 167.093185C47.454797 164.033381 45.876217 161.668985 44.958275 160.0C42.899862 163.671766 39.255897 168.67872 34.026426 175.020862C39.395007 181.502072 43.038943 186.495132 44.958275 190.0Z" fill="#da0a0a" />
<path d="M45.041725 66.666667C44.374131 68.001854 42.760777 70.40102 40.201669 73.864163C37.642561 77.327306 35.584131 79.921201 34.026426 81.645804C35.973576 83.871116 38.066758 86.51369 40.305981 89.573482C42.545203 92.633286 44.123783 94.997682 45.041725 96.666667C47.100138 92.9949 50.744103 87.987946 55.973574 81.645804C50.604993 75.164594 46.961057 70.171535 45.041725 66.666667Z" fill="#da0a0a" />
<path d="M44.958275 143.333333C45.625869 141.998146 47.239223 139.59898 49.798331 136.135837C52.357439 132.672694 54.415869 130.078799 55.973574 128.354196C54.026424 126.128884 51.933242 123.48631 49.694019 120.426518C47.454797 117.366714 45.876217 115.002318 44.958275 113.333333C42.899862 117.0051 39.255897 122.012054 34.026426 128.354196C39.395007 134.835406 43.038943 139.828465 44.958275 143.333333Z" fill="#da0a0a" />
<path d="M105.041725 20.0C104.374131 21.335188 102.760777 23.734353 100.201669 27.197497C97.642561 30.66064 95.584131 33.254534 94.026426 34.979138C95.973576 37.204449 98.066758 39.847024 100.305981 42.906815C102.545203 45.966619 104.123783 48.331015 105.041725 50.0C107.100138 46.328234 110.744103 41.32128 115.973574 34.979138C110.604993 28.497928 106.961057 23.504868 105.041725 20.0Z" fill="#da0a0a" />
<path d="M104.958275 190.0C105.625869 188.664812 107.239223 186.265647 109.798331 182.802503C112.357439 179.33936 114.415869 176.745466 115.973574 175.020862C114.026424 172.795551 111.933242 170.152976 109.694019 167.093185C107.454797 164.033381 105.876217 161.668985 104.958275 160.0C102.899862 163.671766 99.255897 168.67872 94.026426 175.020862C99.395007 181.502072 103.038943 186.495132 104.958275 190.0Z" fill="#da0a0a" />
<path d="M105.041725 66.666667C104.374131 68.001854 102.760777 70.40102 100.201669 73.864163C97.642561 77.327306 95.584131 79.921201 94.026426 81.645804C95.973576 83.871116 98.066758 86.51369 100.305981 89.573482C102.545203 92.633286 104.123783 94.997682 105.041725 96.666667C107.100138 92.9949 110.744103 87.987946 115.973574 81.645804C110.604993 75.164594 106.961057 70.171535 105.041725 66.666667Z" fill="#da0a0a" />
<path d="M104.958275 143.333333C105.625869 141.998146 107.239223 139.59898 109.798331 136.135837C112.357439 132.672694 114.415869 130.078799 115.973574 128.354196C114.026424 126.128884 111.933242 123.48631 109.694019 120.426518C107.454797 117.366714 105.876217 115.002318 104.958275 113.333333C102.899862 117.0051 99.255897 122.012054 94.026426 128.354196C99.395007 134.835406 103.038943 139.828465 104.958275 143.333333Z" fill="#da0a0a" />
<path d="M75.041725 43.333333C74.374131 44.668521 72.760777 47.067687 70.201669 50.53083C67.642561 53.993973 65.584131 56.587867 64.026426 58.312471C65.973576 60.537783 68.066758 63.180357 70.305981 66.240148C72.545203 69.299952 74.123783 71.664349 75.041725 73.333333C77.100138 69.661567 80.744103 64.654613 85.973574 58.312471C80.604993 51.831261 76.961057 46.838201 75.041725 43.333333Z" fill="#da0a0a" />
<path d="M142.386076 26.0554Q143.14557 26.0554 143.14557 25.371856Q143.14557 24.764261 142.462025 24.574387Q135.512658 22.40983 134.183544 16.789577Q135.436709 17.62502 136.670886 17.966792T139.234177 18.308565Q141.056962 18.308565 142.575949 17.492109T144.968354 15.251603T145.841772 12.004767Q145.841772 9.954134 144.740506 8.378185T141.85443 5.928818T138.056962 5.0554Q134.449367 5.0554 132.303797 7.295906T130.158228 13.40983Q130.158228 16.48578 131.620253 19.144008T135.740506 23.606033T141.816456 26.017425Q142.006329 26.0554 142.386076 26.0554ZM135.968354 16.12502Q134.943038 15.650337 134.031646 14.852868Q133.803797 13.941476 133.803797 13.371856Q133.803797 11.852868 134.202532 10.219957T135.56962 7.428818T138.056962 6.27059Q139.841772 6.27059 141.018987 7.77059T142.196203 11.662995Q142.196203 13.903501 141.018987 15.251603T137.943038 16.599704Q136.993671 16.599704 135.968354 16.12502Z" fill="#da0a0a" />
<path d="M138.021905 31.791667C137.671419 32.49264 136.824408 33.752202 135.480876 35.570352C134.137344 37.388503 133.056669 38.750297 132.238873 39.655714C133.261127 40.824003 134.360048 42.211354 135.53564 43.817745C136.711232 45.424142 137.539986 46.66545 138.021905 47.541667C139.102572 45.613989 141.015654 42.985338 143.761127 39.655714C140.942621 36.253079 139.029555 33.631722 138.021905 31.791667Z" fill="#da0a0a" />
<path d="M7.613924 183.9446Q6.85443 183.9446 6.85443 184.628144Q6.85443 185.235739 7.537975 185.425613Q14.487342 187.59017 15.816456 193.210423Q14.563291 192.37498 13.329114 192.033208T10.765823 191.691435Q8.943038 191.691435 7.424051 192.507891T5.031646 194.748397T4.158228 197.995233Q4.158228 200.045866 5.259494 201.621815T8.14557 204.071182T11.943038 204.9446Q15.550633 204.9446 17.696203 202.704094T19.841772 196.59017Q19.841772 193.51422 18.379747 190.855992T14.259494 186.393967T8.183544 183.982575Q7.993671 183.9446 7.613924 183.9446ZM14.031646 193.87498Q15.056962 194.349663 15.968354 195.147132Q16.196203 196.058524 16.196203 196.628144Q16.196203 198.147132 15.797468 199.780043T14.43038 202.571182T11.943038 203.72941Q10.158228 203.72941 8.981013 202.22941T7.803797 198.337005Q7.803797 196.096499 8.981013 194.748397T12.056962 193.400296Q13.006329 193.400296 14.031646 193.87498Z" fill="#da0a0a" />
<path d="M11.978095 178.208333C12.328581 177.50736 13.175592 176.247798 14.519124 174.429648C15.862656 172.611497 16.943331 171.249703 17.761127 170.344286C16.738873 169.175997 15.639952 167.788646 14.46436 166.182255C13.288768 164.575858 12.460014 163.33455 11.978095 162.458333C10.897428 164.386011 8.984346 167.014662 6.238873 170.344286C9.057379 173.746921 10.970445 176.368278 11.978095 178.208333Z" fill="#da0a0a" />
</svg>
