<svg width="500.000000" height="700.000000" id="card-realspade1">
<radialGradient id="card-realwhitegradient" cx="250.0" cy="350.0" r="500" gradientTransform="matrix(1 0 0 1 0 -.25)" gradientUnits="userSpaceOnUse">
<stop stop-color="#FDFAF4" offset=".15"/>
<stop stop-color="#FDF9F2" offset=".35"/>
<stop stop-color="#FCF7F1" offset=".5"/>
<stop stop-color="#FDFDF8" offset=".75"/>
<stop stop-color="#FFFDFA" offset="1"/>
</radialGradient>
<rect x="0" y="0" rx="25.0" ry="25.0" width="500" height="700.0" stroke="rgba(1,1,1,0.333)" fill="url(#card-realwhitegradient)" />
<path d="M357.51773 362.056738C357.51773 359.408984 356.666667 357.234043 354.964539 355.531915S350.992908 352.978723 348.156028 352.978723C344.562638 352.978723 341.631206 354.775413 339.361702 358.368794C340.68558 362.340426 341.347518 365.36644 341.347518 367.446809C341.347518 371.985816 339.834516 375.768312 336.808511 378.794326S330.0 383.333333 325.460993 383.333333C318.841617 383.333333 313.640652 380.212766 309.858156 373.971631C307.966902 371.134752 306.359348 362.955092 305.035461 349.432624S300.874695 325.839234 296.524823 319.219858C292.553191 313.356965 287.210411 308.628851 280.496454 305.035461C273.782496 301.442071 266.926723 299.64539 259.929078 299.64539C252.17495 299.64539 245.460993 302.10402 239.787234 307.021277C234.113475 311.938525 231.276596 317.895972 231.276596 324.893617C231.276596 329.810865 232.884162 335.957447 236.099291 343.333333C225.508284 334.63356 215.200936 330.283688 205.177305 330.283688H202.907801C201.016548 326.122922 198.22695 322.340426 194.539007 318.93617S187.352255 312.931433 184.042553 311.134752S177.801418 307.068567 175.248227 304.326241C172.695035 301.583923 171.41844 298.510638 171.41844 295.106383S173.215129 288.770695 176.808511 286.312057H173.971631C168.108738 286.312057 163.380624 287.919623 159.787234 291.134752S154.397163 298.510638 154.397163 303.617021S156.099291 312.647745 159.503546 315.390071S166.784879 319.739943 171.134752 320.212766S179.881787 321.725767 184.326241 323.333333S191.749418 327.257674 193.262411 330.283688C181.725759 332.174942 171.512993 337.375887 162.624113 345.886525S149.101645 363.475177 148.723404 373.120567C145.319149 376.713957 143.23878 381.252965 142.48227 386.737589H148.723404C149.66903 394.491716 152.364057 400.685589 156.808511 405.319149S166.879433 412.269504 173.687943 412.269504C179.172567 412.269504 183.427887 410.803782 186.453901 407.87234S190.992908 400.827433 190.992908 395.531915C190.992908 393.262411 190.803782 390.330979 190.425532 386.737589C186.264766 390.330979 182.104028 392.12766 177.943262 392.12766C170.378241 392.12766 165.650128 388.061475 163.758865 379.929078C175.484624 375.01183 184.940908 368.628851 192.12766 360.780142S202.907801 344.940908 202.907801 336.808511V336.241135C209.148936 336.43026 214.869986 337.990545 220.070922 340.921986C225.271858 343.853418 228.912539 347.494099 230.992908 351.843972C223.995262 355.626468 219.172567 359.267149 216.524823 362.765957C213.87707 366.264766 212.553191 370.756511 212.553191 376.241135C212.553191 386.643035 217.706865 395.484624 228.014184 402.765957C238.321504 410.047291 250.756511 413.687943 265.319149 413.687943C277.044908 413.687943 290.330979 410.520085 305.177305 404.184397C320.023631 397.848709 332.458638 390.614667 342.48227 382.48227C352.505901 374.349872 357.51773 367.541362 357.51773 362.056738ZM162.624113 369.148936V368.014184C162.624113 360.070922 166.028369 352.836879 172.836879 346.312057S187.210411 336.43027 195.531915 336.241135C195.910165 338.510638 196.099291 339.834525 196.099291 340.212766C196.099291 345.130014 193.735226 349.810865 189.007092 354.255319S179.787234 361.962184 175.531915 364.042553S166.973986 367.82505 162.624113 369.148936Z" fill="#010101" />
<path d="M494.530551 84.556251Q495.0 83.878159 495.0 82.939262Q494.895678 81.374433 494.374069 81.061467T493.122206 80.748502H492.183308Q489.053651 80.748502 487.593145 79.131512T485.245902 75.480245T484.0462 72.715715L465.789866 29.526445Q465.163934 27.961616 465.163934 27.022719Q465.163934 25.144925 466.624441 24.31035T470.692996 22.954165Q472.466468 22.641199 472.883756 22.328233T473.301043 20.554761Q473.301043 19.302898 472.622951 18.885611T470.484352 18.468323Q465.268256 18.468323 462.19076 19.250737T456.818182 22.380394T452.540984 29.526445L435.014903 72.715715Q433.450075 76.679947 431.989568 78.662064T427.608048 80.748502H426.982116Q425.938897 80.748502 425.52161 81.113628T425.0 82.939262Q425.0 83.878159 425.469449 84.556251T426.877794 85.234344Q433.554396 84.921378 438.353204 84.921378Q444.612519 84.921378 451.289121 85.234344Q452.228018 85.234344 452.697466 84.556251T453.166915 82.939262Q453.062593 81.478755 452.645306 81.113628T451.184799 80.748502Q447.637854 80.748502 446.177347 80.070409T444.716841 77.618845Q444.716841 76.26266 445.968703 72.715715L449.515648 64.056997H475.283159Q477.891207 70.524955 478.256334 71.568174T478.621461 72.715715Q479.873323 76.679947 479.873323 77.827488Q479.873323 79.600961 478.308495 80.174731T472.362146 80.748502H471.736215Q470.692996 80.748502 470.275708 81.113628T469.754098 82.939262Q469.754098 83.878159 470.223547 84.556251T471.631893 85.234344Q478.308495 84.921378 483.002981 84.921378Q486.341282 84.921378 493.122206 85.234344Q494.061103 85.234344 494.530551 84.556251ZM473.301043 59.571154H451.393443L461.929955 32.760424H462.242921Z" fill="#010101" />
<path d="M458.771277 140.748818C458.52305 143.330381 457.90248 145.614064 456.909574 147.599882C455.916669 149.5857 454.874116 151.099882 453.781915 152.142435S451.312054 154.078605 449.648936 154.823286C447.985818 155.567967 446.707447 156.052009 445.81383 156.275414S443.828012 156.709811 442.537234 156.908392C442.338652 156.958038 442.189716 156.982861 442.090426 156.982861V158.472222H477.909574V156.982861C473.689714 156.23818 470.487586 155.145979 468.303191 153.706265C464.132979 150.926125 461.77482 146.606976 461.228723 140.748818C463.810286 144.720447 467.136522 146.706265 471.207447 146.706265C473.83865 146.706265 476.085106 145.787828 477.946809 143.950946S480.739362 139.880021 480.739362 137.248818C480.739362 135.014775 480.193263 132.979317 479.101064 131.142435C478.008863 129.305553 476.593969 127.630021 474.856383 126.115839S471.331563 123.025414 469.494681 121.387116C467.657799 119.748818 465.845745 117.601657 464.058511 114.945626S460.906031 109.298466 459.962766 105.972222C459.118797 109.248818 457.815605 112.202721 456.053191 114.833924S452.478723 119.599882 450.617021 121.23818S446.955671 124.465128 445.218085 126.004137S442.053191 129.231085 440.93617 131.067967S439.260638 134.965128 439.260638 137.248818C439.260638 139.880021 440.191489 142.114064 442.053191 143.950946S446.16135 146.706265 448.792553 146.706265C452.863478 146.706265 456.189714 144.720447 458.771277 140.748818Z" fill="#010101" />
<path d="M5.469449 615.443749Q5.0 616.121841 5.0 617.060738Q5.104322 618.625567 5.625931 618.938533T6.877794 619.251498H7.816692Q10.946349 619.251498 12.406855 620.868488T14.754098 624.519755T15.9538 627.284285L34.210134 670.473555Q34.836066 672.038384 34.836066 672.977281Q34.836066 674.855075 33.375559 675.68965T29.307004 677.045835Q27.533532 677.358801 27.116244 677.671767T26.698957 679.445239Q26.698957 680.697102 27.377049 681.114389T29.515648 681.531677Q34.731744 681.531677 37.80924 680.749263T43.181818 677.619606T47.459016 670.473555L64.985097 627.284285Q66.549925 623.320053 68.010432 621.337936T72.391952 619.251498H73.017884Q74.061103 619.251498 74.47839 618.886372T75.0 617.060738Q75.0 616.121841 74.530551 615.443749T73.122206 614.765656Q66.445604 615.078622 61.646796 615.078622Q55.387481 615.078622 48.710879 614.765656Q47.771982 614.765656 47.302534 615.443749T46.833085 617.060738Q46.937407 618.521245 47.354694 618.886372T48.815201 619.251498Q52.362146 619.251498 53.822653 619.929591T55.283159 622.381155Q55.283159 623.73734 54.031297 627.284285L50.484352 635.943003H24.716841Q22.108793 629.475045 21.743666 628.431826T21.378539 627.284285Q20.126677 623.320053 20.126677 622.172512Q20.126677 620.399039 21.691505 619.825269T27.637854 619.251498H28.263785Q29.307004 619.251498 29.724292 618.886372T30.245902 617.060738Q30.245902 616.121841 29.776453 615.443749T28.368107 614.765656Q21.691505 615.078622 16.997019 615.078622Q13.658718 615.078622 6.877794 614.765656Q5.938897 614.765656 5.469449 615.443749ZM26.698957 640.428846H48.606557L38.070045 667.239576H37.757079Z" fill="#010101" />
<path d="M41.228723 559.251182C41.47695 556.669619 42.09752 554.385936 43.090426 552.400118C44.083331 550.4143 45.125884 548.900118 46.218085 547.857565S48.687946 545.921395 50.351064 545.176714C52.014182 544.432033 53.292553 543.947991 54.18617 543.724586S56.171988 543.290189 57.462766 543.091608C57.661348 543.041962 57.810284 543.017139 57.909574 543.017139V541.527778H22.090426V543.017139C26.310286 543.76182 29.512414 544.854021 31.696809 546.293735C35.867021 549.073875 38.22518 553.393024 38.771277 559.251182C36.189714 555.279553 32.863478 553.293735 28.792553 553.293735C26.16135 553.293735 23.914894 554.212172 22.053191 556.049054S19.260638 560.119979 19.260638 562.751182C19.260638 564.985225 19.806737 567.020683 20.898936 568.857565C21.991137 570.694447 23.406031 572.369979 25.143617 573.884161S28.668437 576.974586 30.505319 578.612884C32.342201 580.251182 34.154255 582.398343 35.941489 585.054374S39.093969 590.701534 40.037234 594.027778C40.881203 590.751182 42.184395 587.797279 43.946809 585.166076S47.521277 580.400118 49.382979 578.76182S53.044329 575.534872 54.781915 573.995863S57.946809 570.768915 59.06383 568.932033S60.739362 565.034872 60.739362 562.751182C60.739362 560.119979 59.808511 557.885936 57.946809 556.049054S53.83865 553.293735 51.207447 553.293735C47.136522 553.293735 43.810286 555.279553 41.228723 559.251182Z" fill="#010101" />
</svg>
