<svg width="150.000000" height="210.000000" id="card-webclub5">
<radialGradient id="card-webwhitegradient" cx="75.0" cy="105.0" r="150" gradientTransform="matrix(1 0 0 1 0 -.25)" gradientUnits="userSpaceOnUse">
<stop stop-color="#FDFAF4" offset=".15"/>
<stop stop-color="#FDF9F2" offset=".35"/>
<stop stop-color="#FCF7F1" offset=".5"/>
<stop stop-color="#FDFDF8" offset=".75"/>
<stop stop-color="#FFFDFA" offset="1"/>
</radialGradient>
<rect x="0" y="0" rx="7.5" ry="7.5" width="150" height="210.0" stroke="rgba(1,1,1,0.333)" fill="url(#card-webwhitegradient)" />
<path d="M44.405099 37.528329C44.376771 38.378187 44.34136 39.065157 44.298867 39.589235C44.256374 40.113313 44.150142 40.779037 43.98017 41.586402S43.604816 43.059492 43.364023 43.583569S42.762038 44.695469 42.280453 45.347025S41.232293 46.536827 40.580737 46.961756S39.107647 47.797452 38.116147 48.194051S35.991501 48.902268 34.716714 49.128895V49.978754H55.283286V49.128895C54.008499 48.902266 52.875353 48.583571 51.883853 48.172805S50.063741 47.344193 49.398017 46.919263S48.165722 45.94901 47.6983 45.283286S46.869688 44.029745 46.614731 43.51983S46.154392 42.344191 45.998584 41.522663S45.743626 40.042494 45.701133 39.546742C45.65864 39.05099 45.62323 38.378187 45.594901 37.528329C46.274788 38.774786 46.827195 39.652975 47.252125 40.16289C48.016997 41.126064 48.958925 41.890936 50.077904 42.457507C51.196882 43.024078 52.294619 43.307365 53.371105 43.307365C55.184137 43.307365 56.742208 42.634562 58.045326 41.288952S60.0 38.321531 60.0 36.423513C60.0 34.582154 59.412183 33.009916 58.236544 31.706799S55.637392 29.752125 53.966006 29.752125C53.399435 29.752125 52.875353 29.830028 52.393768 29.985836S51.430593 30.339943 50.949008 30.580737L50.056657 31.026912C51.161473 29.440511 51.713881 27.939092 51.713881 26.522663C51.713881 24.73796 51.055241 23.208215 49.73796 21.933428S46.841358 20.021246 45.0 20.021246S41.57932 20.65864 40.26204 21.933428S38.286119 24.73796 38.286119 26.522663C38.286119 27.939092 38.838527 29.440511 39.943343 31.026912C39.745042 30.941926 39.468837 30.814448 39.114731 30.644476S38.498584 30.347025 38.328612 30.26204S37.939093 30.092068 37.669972 30.007082S37.13881 29.858357 36.883853 29.815864S36.345608 29.752125 36.033994 29.752125C34.362608 29.752125 32.939095 30.403681 31.763456 31.706799S30.0 34.582154 30.0 36.423513C30.0 38.321531 30.651557 39.943341 31.954674 41.288952S34.815863 43.307365 36.628895 43.307365C39.745041 43.307365 42.337096 41.381021 44.405099 37.528329Z" fill="#010101" />
<path d="M45.594901 172.471671C45.623229 171.621813 45.65864 170.934843 45.701133 170.410765C45.743626 169.886687 45.849858 169.220963 46.01983 168.413598S46.395184 166.940508 46.635977 166.416431S47.237962 165.304531 47.719547 164.652975S48.767707 163.463173 49.419263 163.038244S50.892353 162.202548 51.883853 161.805949S54.008499 161.097732 55.283286 160.871105V160.021246H34.716714V160.871105C35.991501 161.097734 37.124647 161.416429 38.116147 161.827195S39.936259 162.655807 40.601983 163.080737S41.834278 164.05099 42.3017 164.716714S43.130312 165.970255 43.385269 166.48017S43.845608 167.655809 44.001416 168.477337S44.256374 169.957506 44.298867 170.453258C44.34136 170.94901 44.37677 171.621813 44.405099 172.471671C43.725212 171.225214 43.172805 170.347025 42.747875 169.83711C41.983003 168.873936 41.041075 168.109064 39.922096 167.542493C38.803118 166.975922 37.705381 166.692635 36.628895 166.692635C34.815863 166.692635 33.257792 167.365438 31.954674 168.711048S30.0 171.678469 30.0 173.576487C30.0 175.417846 30.587817 176.990084 31.763456 178.293201S34.362608 180.247875 36.033994 180.247875C36.600565 180.247875 37.124647 180.169972 37.606232 180.014164S38.569407 179.660057 39.050992 179.419263L39.943343 178.973088C38.838527 180.559489 38.286119 182.060908 38.286119 183.477337C38.286119 185.26204 38.944759 186.791785 40.26204 188.066572S43.158642 189.978754 45.0 189.978754S48.42068 189.34136 49.73796 188.066572S51.713881 185.26204 51.713881 183.477337C51.713881 182.060908 51.161473 180.559489 50.056657 178.973088C50.254958 179.058074 50.531163 179.185552 50.885269 179.355524S51.501416 179.652975 51.671388 179.73796S52.060907 179.907932 52.330028 179.992918S52.86119 180.141643 53.116147 180.184136S53.654392 180.247875 53.966006 180.247875C55.637392 180.247875 57.060905 179.596319 58.236544 178.293201S60.0 175.417846 60.0 173.576487C60.0 171.678469 59.348443 170.056659 58.045326 168.711048S55.184137 166.692635 53.371105 166.692635C50.254959 166.692635 47.662904 168.618979 45.594901 172.471671Z" fill="#010101" />
<path d="M104.405099 37.528329C104.376771 38.378187 104.34136 39.065157 104.298867 39.589235C104.256374 40.113313 104.150142 40.779037 103.98017 41.586402S103.604816 43.059492 103.364023 43.583569S102.762038 44.695469 102.280453 45.347025S101.232293 46.536827 100.580737 46.961756S99.107647 47.797452 98.116147 48.194051S95.991501 48.902268 94.716714 49.128895V49.978754H115.283286V49.128895C114.008499 48.902266 112.875353 48.583571 111.883853 48.172805S110.063741 47.344193 109.398017 46.919263S108.165722 45.94901 107.6983 45.283286S106.869688 44.029745 106.614731 43.51983S106.154392 42.344191 105.998584 41.522663S105.743626 40.042494 105.701133 39.546742C105.65864 39.05099 105.62323 38.378187 105.594901 37.528329C106.274788 38.774786 106.827195 39.652975 107.252125 40.16289C108.016997 41.126064 108.958925 41.890936 110.077904 42.457507C111.196882 43.024078 112.294619 43.307365 113.371105 43.307365C115.184137 43.307365 116.742208 42.634562 118.045326 41.288952S120.0 38.321531 120.0 36.423513C120.0 34.582154 119.412183 33.009916 118.236544 31.706799S115.637392 29.752125 113.966006 29.752125C113.399435 29.752125 112.875353 29.830028 112.393768 29.985836S111.430593 30.339943 110.949008 30.580737L110.056657 31.026912C111.161473 29.440511 111.713881 27.939092 111.713881 26.522663C111.713881 24.73796 111.055241 23.208215 109.73796 21.933428S106.841358 20.021246 105.0 20.021246S101.57932 20.65864 100.26204 21.933428S98.286119 24.73796 98.286119 26.522663C98.286119 27.939092 98.838527 29.440511 99.943343 31.026912C99.745042 30.941926 99.468837 30.814448 99.114731 30.644476S98.498584 30.347025 98.328612 30.26204S97.939093 30.092068 97.669972 30.007082S97.13881 29.858357 96.883853 29.815864S96.345608 29.752125 96.033994 29.752125C94.362608 29.752125 92.939095 30.403681 91.763456 31.706799S90.0 34.582154 90.0 36.423513C90.0 38.321531 90.651557 39.943341 91.954674 41.288952S94.815863 43.307365 96.628895 43.307365C99.745041 43.307365 102.337096 41.381021 104.405099 37.528329Z" fill="#010101" />
<path d="M105.594901 172.471671C105.623229 171.621813 105.65864 170.934843 105.701133 170.410765C105.743626 169.886687 105.849858 169.220963 106.01983 168.413598S106.395184 166.940508 106.635977 166.416431S107.237962 165.304531 107.719547 164.652975S108.767707 163.463173 109.419263 163.038244S110.892353 162.202548 111.883853 161.805949S114.008499 161.097732 115.283286 160.871105V160.021246H94.716714V160.871105C95.991501 161.097734 97.124647 161.416429 98.116147 161.827195S99.936259 162.655807 100.601983 163.080737S101.834278 164.05099 102.3017 164.716714S103.130312 165.970255 103.385269 166.48017S103.845608 167.655809 104.001416 168.477337S104.256374 169.957506 104.298867 170.453258C104.34136 170.94901 104.37677 171.621813 104.405099 172.471671C103.725212 171.225214 103.172805 170.347025 102.747875 169.83711C101.983003 168.873936 101.041075 168.109064 99.922096 167.542493C98.803118 166.975922 97.705381 166.692635 96.628895 166.692635C94.815863 166.692635 93.257792 167.365438 91.954674 168.711048S90.0 171.678469 90.0 173.576487C90.0 175.417846 90.587817 176.990084 91.763456 178.293201S94.362608 180.247875 96.033994 180.247875C96.600565 180.247875 97.124647 180.169972 97.606232 180.014164S98.569407 179.660057 99.050992 179.419263L99.943343 178.973088C98.838527 180.559489 98.286119 182.060908 98.286119 183.477337C98.286119 185.26204 98.944759 186.791785 100.26204 188.066572S103.158642 189.978754 105.0 189.978754S108.42068 189.34136 109.73796 188.066572S111.713881 185.26204 111.713881 183.477337C111.713881 182.060908 111.161473 180.559489 110.056657 178.973088C110.254958 179.058074 110.531163 179.185552 110.885269 179.355524S111.501416 179.652975 111.671388 179.73796S112.060907 179.907932 112.330028 179.992918S112.86119 180.141643 113.116147 180.184136S113.654392 180.247875 113.966006 180.247875C115.637392 180.247875 117.060905 179.596319 118.236544 178.293201S120.0 175.417846 120.0 173.576487C120.0 171.678469 119.348443 170.056659 118.045326 168.711048S115.184137 166.692635 113.371105 166.692635C110.254959 166.692635 107.662904 168.618979 105.594901 172.471671Z" fill="#010101" />
<path d="M74.405099 107.528329C74.376771 108.378187 74.34136 109.065157 74.298867 109.589235C74.256374 110.113313 74.150142 110.779037 73.98017 111.586402S73.604816 113.059492 73.364023 113.583569S72.762038 114.695469 72.280453 115.347025S71.232293 116.536827 70.580737 116.961756S69.107647 117.797452 68.116147 118.194051S65.991501 118.902268 64.716714 119.128895V119.978754H85.283286V119.128895C84.008499 118.902266 82.875353 118.583571 81.883853 118.172805S80.063741 117.344193 79.398017 116.919263S78.165722 115.94901 77.6983 115.283286S76.869688 114.029745 76.614731 113.51983S76.154392 112.344191 75.998584 111.522663S75.743626 110.042494 75.701133 109.546742C75.65864 109.05099 75.62323 108.378187 75.594901 107.528329C76.274788 108.774786 76.827195 109.652975 77.252125 110.16289C78.016997 111.126064 78.958925 111.890936 80.077904 112.457507C81.196882 113.024078 82.294619 113.307365 83.371105 113.307365C85.184137 113.307365 86.742208 112.634562 88.045326 111.288952S90.0 108.321531 90.0 106.423513C90.0 104.582154 89.412183 103.009916 88.236544 101.706799S85.637392 99.752125 83.966006 99.752125C83.399435 99.752125 82.875353 99.830028 82.393768 99.985836S81.430593 100.339943 80.949008 100.580737L80.056657 101.026912C81.161473 99.440511 81.713881 97.939092 81.713881 96.522663C81.713881 94.73796 81.055241 93.208215 79.73796 91.933428S76.841358 90.021246 75.0 90.021246S71.57932 90.65864 70.26204 91.933428S68.286119 94.73796 68.286119 96.522663C68.286119 97.939092 68.838527 99.440511 69.943343 101.026912C69.745042 100.941926 69.468837 100.814448 69.114731 100.644476S68.498584 100.347025 68.328612 100.26204S67.939093 100.092068 67.669972 100.007082S67.13881 99.858357 66.883853 99.815864S66.345608 99.752125 66.033994 99.752125C64.362608 99.752125 62.939095 100.403681 61.763456 101.706799S60.0 104.582154 60.0 106.423513C60.0 108.321531 60.651557 109.943341 61.954674 111.288952S64.815863 113.307365 66.628895 113.307365C69.745041 113.307365 72.337096 111.381021 74.405099 107.528329Z" fill="#010101" />
<path d="M143.483333 25.0054Q145.388889 23.9554 145.388889 21.738733Q145.388889 20.533178 144.669444 19.619289T142.744444 18.7054Q142.005556 18.7054 141.480556 19.094289T140.955556 19.7554Q140.955556 19.794289 141.305556 20.1054T141.947222 20.863733T142.238889 21.894289Q142.238889 23.216511 141.286111 23.916511T138.622222 24.616511Q136.483333 24.616511 135.413889 23.099844T134.344444 19.133178Q134.344444 16.877622 135.433333 15.3804T138.816667 13.883178Q139.866667 13.883178 140.625 14.213733T142.238889 15.166511Q142.744444 15.516511 143.075 15.691511T143.716667 15.866511Q144.338889 15.866511 144.338889 14.777622L144.3 14.310956L143.094444 5.0554H132.4Q131.855556 5.0554 131.525 5.4054T131.194444 6.377622Q131.194444 7.816511 132.672222 7.816511H141.305556L142.122222 13.222067Q140.411111 12.172067 137.922222 12.172067Q136.25 12.172067 134.558333 12.910956T131.738889 15.166511T130.611111 18.938733T131.719444 22.808178T134.675 25.238733T138.7 26.0554Q141.577778 26.0554 143.483333 25.0054Z" fill="#010101" />
<path d="M137.687677 40.994039C137.672805 41.440215 137.654214 41.800874 137.631905 42.076015C137.609596 42.351156 137.553824 42.700661 137.464589 43.124528S137.267528 43.8979 137.141112 44.173041S136.82507 44.756788 136.572238 45.098855S136.021954 45.723501 135.679887 45.946589S134.906515 46.385329 134.385977 46.593543S133.270538 46.965357 132.601275 47.084337V47.530512H143.398725V47.084337C142.729462 46.965357 142.13456 46.798041 141.614023 46.582389S140.658464 46.147368 140.308959 45.92428S139.662004 45.414897 139.416608 45.065392S138.981586 44.407283 138.847734 44.139577S138.606056 43.522367 138.524256 43.091065S138.390404 42.313976 138.368095 42.053706C138.345786 41.793436 138.327196 41.440215 138.312323 40.994039C138.669263 41.648429 138.959278 42.109478 139.182365 42.377184C139.583924 42.88285 140.078436 43.284408 140.665899 43.581858C141.253363 43.879308 141.829675 44.028034 142.39483 44.028034C143.346672 44.028034 144.164659 43.674812 144.848796 42.968366S145.875 41.410471 145.875 40.414011C145.875 39.447298 145.566396 38.621873 144.949186 37.937736S143.584631 36.911532 142.707153 36.911532C142.409703 36.911532 142.13456 36.952431 141.881728 37.03423S141.376062 37.220137 141.123229 37.346553L140.654745 37.580796C141.234773 36.747935 141.524788 35.95969 141.524788 35.216065C141.524788 34.279096 141.179001 33.47598 140.487429 32.806716S138.966713 31.802821 138.0 31.802821S136.204143 32.137453 135.512571 32.806716S134.475212 34.279096 134.475212 35.216065C134.475212 35.95969 134.765227 36.747935 135.345255 37.580796C135.241147 37.536178 135.096139 37.469252 134.910234 37.380017S134.586756 37.223855 134.497521 37.179237S134.293024 37.090002 134.151735 37.045385S133.872875 36.967304 133.739023 36.944995S133.456444 36.911532 133.292847 36.911532C132.415369 36.911532 131.668025 37.253599 131.050814 37.937736S130.125 39.447298 130.125 40.414011C130.125 41.410471 130.467067 42.261921 131.151204 42.968366S132.653328 44.028034 133.60517 44.028034C135.241147 44.028034 136.601976 43.016703 137.687677 40.994039Z" fill="#010101" />
<path d="M6.516667 184.9946Q4.611111 186.0446 4.611111 188.261267Q4.611111 189.466822 5.330556 190.380711T7.255556 191.2946Q7.994444 191.2946 8.519444 190.905711T9.044444 190.2446Q9.044444 190.205711 8.694444 189.8946T8.052778 189.136267T7.761111 188.105711Q7.761111 186.783489 8.713889 186.083489T11.377778 185.383489Q13.516667 185.383489 14.586111 186.900156T15.655556 190.866822Q15.655556 193.122378 14.566667 194.6196T11.183333 196.116822Q10.133333 196.116822 9.375 195.786267T7.761111 194.833489Q7.255556 194.483489 6.925 194.308489T6.283333 194.133489Q5.661111 194.133489 5.661111 195.222378L5.7 195.689044L6.905556 204.9446H17.6Q18.144444 204.9446 18.475 204.5946T18.805556 203.622378Q18.805556 202.183489 17.327778 202.183489H8.694444L7.877778 196.777933Q9.588889 197.827933 12.077778 197.827933Q13.75 197.827933 15.441667 197.089044T18.261111 194.833489T19.388889 191.061267T18.280556 187.191822T15.325 184.761267T11.3 183.9446Q8.422222 183.9446 6.516667 184.9946Z" fill="#010101" />
<path d="M12.312323 169.005961C12.327195 168.559785 12.345786 168.199126 12.368095 167.923985C12.390404 167.648844 12.446176 167.299339 12.535411 166.875472S12.732472 166.1021 12.858888 165.826959S13.17493 165.243212 13.427762 164.901145S13.978046 164.276499 14.320113 164.053411S15.093485 163.614671 15.614023 163.406457S16.729462 163.034643 17.398725 162.915663V162.469488H6.601275V162.915663C7.270538 163.034643 7.86544 163.201959 8.385977 163.417611S9.341536 163.852632 9.691041 164.07572S10.337996 164.585103 10.583392 164.934608S11.018414 165.592717 11.152266 165.860423S11.393944 166.477633 11.475744 166.908935S11.609596 167.686024 11.631905 167.946294C11.654214 168.206564 11.672804 168.559785 11.687677 169.005961C11.330737 168.351571 11.040722 167.890522 10.817635 167.622816C10.416076 167.11715 9.921564 166.715592 9.334101 166.418142C8.746637 166.120692 8.170325 165.971966 7.60517 165.971966C6.653328 165.971966 5.835341 166.325188 5.151204 167.031634S4.125 168.589529 4.125 169.585989C4.125 170.552702 4.433604 171.378127 5.050814 172.062264S6.415369 173.088468 7.292847 173.088468C7.590297 173.088468 7.86544 173.047569 8.118272 172.96577S8.623938 172.779863 8.876771 172.653447L9.345255 172.419204C8.765227 173.252065 8.475212 174.04031 8.475212 174.783935C8.475212 175.720904 8.820999 176.52402 9.512571 177.193284S11.033287 178.197179 12.0 178.197179S13.795857 177.862547 14.487429 177.193284S15.524788 175.720904 15.524788 174.783935C15.524788 174.04031 15.234773 173.252065 14.654745 172.419204C14.758853 172.463822 14.903861 172.530748 15.089766 172.619983S15.413244 172.776145 15.502479 172.820763S15.706976 172.909998 15.848265 172.954615S16.127125 173.032696 16.260977 173.055005S16.543556 173.088468 16.707153 173.088468C17.584631 173.088468 18.331975 172.746401 18.949186 172.062264S19.875 170.552702 19.875 169.585989C19.875 168.589529 19.532933 167.738079 18.848796 167.031634S17.346672 165.971966 16.39483 165.971966C14.758853 165.971966 13.398024 166.983297 12.312323 169.005961Z" fill="#010101" />
</svg>
