<svg width="500.000000" height="700.000000" id="card-realdiamond8">
<radialGradient id="card-realwhitegradient" cx="250.0" cy="350.0" r="500" gradientTransform="matrix(1 0 0 1 0 -.25)" gradientUnits="userSpaceOnUse">
<stop stop-color="#FDFAF4" offset=".15"/>
<stop stop-color="#FDF9F2" offset=".35"/>
<stop stop-color="#FCF7F1" offset=".5"/>
<stop stop-color="#FDFDF8" offset=".75"/>
<stop stop-color="#FFFDFA" offset="1"/>
</radialGradient>
<rect x="0" y="0" rx="25.0" ry="25.0" width="500" height="700.0" stroke="rgba(1,1,1,0.333)" fill="url(#card-realwhitegradient)" />
<path d="M150.139082 66.666667C147.913769 71.117293 142.535925 79.114511 134.005563 90.658322C125.475202 102.202133 118.613769 110.848447 113.421419 116.597126C119.911919 124.014831 126.889193 132.823412 134.353268 143.022717C141.817344 153.222063 147.079277 161.103384 150.139082 166.666667C157.000459 154.427446 169.14701 137.737599 186.578581 116.597126C168.68331 94.993092 156.536857 78.34956 150.139082 66.666667Z" fill="#da0a0a" />
<path d="M149.860918 633.333333C152.086231 628.882707 157.464075 620.885489 165.994437 609.341678C174.524798 597.797867 181.386231 589.151553 186.578581 583.402874C180.088081 575.985169 173.110807 567.176588 165.646732 556.977283C158.182656 546.777937 152.920723 538.896616 149.860918 533.333333C142.999541 545.572554 130.85299 562.262401 113.421419 583.402874C131.31669 605.006908 143.463143 621.65044 149.860918 633.333333Z" fill="#da0a0a" />
<path d="M150.139082 222.222222C147.913769 226.672848 142.535925 234.670066 134.005563 246.213877C125.475202 257.757688 118.613769 266.404002 113.421419 272.152681C119.911919 279.570386 126.889193 288.378968 134.353268 298.578272C141.817344 308.777619 147.079277 316.65894 150.139082 322.222222C157.000459 309.983001 169.14701 293.293154 186.578581 272.152681C168.68331 250.548648 156.536857 233.905115 150.139082 222.222222Z" fill="#da0a0a" />
<path d="M149.860918 477.777778C152.086231 473.327152 157.464075 465.329934 165.994437 453.786123C174.524798 442.242312 181.386231 433.595998 186.578581 427.847319C180.088081 420.429614 173.110807 411.621032 165.646732 401.421728C158.182656 391.222381 152.920723 383.34106 149.860918 377.777778C142.999541 390.016999 130.85299 406.706846 113.421419 427.847319C131.31669 449.451352 143.463143 466.094885 149.860918 477.777778Z" fill="#da0a0a" />
<path d="M350.139082 66.666667C347.913769 71.117293 342.535925 79.114511 334.005563 90.658322C325.475202 102.202133 318.613769 110.848447 313.421419 116.597126C319.911919 124.014831 326.889193 132.823412 334.353268 143.022717C341.817344 153.222063 347.079277 161.103384 350.139082 166.666667C357.000459 154.427446 369.14701 137.737599 386.578581 116.597126C368.68331 94.993092 356.536857 78.34956 350.139082 66.666667Z" fill="#da0a0a" />
<path d="M349.860918 633.333333C352.086231 628.882707 357.464075 620.885489 365.994437 609.341678C374.524798 597.797867 381.386231 589.151553 386.578581 583.402874C380.088081 575.985169 373.110807 567.176588 365.646732 556.977283C358.182656 546.777937 352.920723 538.896616 349.860918 533.333333C342.999541 545.572554 330.85299 562.262401 313.421419 583.402874C331.31669 605.006908 343.463143 621.65044 349.860918 633.333333Z" fill="#da0a0a" />
<path d="M350.139082 222.222222C347.913769 226.672848 342.535925 234.670066 334.005563 246.213877C325.475202 257.757688 318.613769 266.404002 313.421419 272.152681C319.911919 279.570386 326.889193 288.378968 334.353268 298.578272C341.817344 308.777619 347.079277 316.65894 350.139082 322.222222C357.000459 309.983001 369.14701 293.293154 386.578581 272.152681C368.68331 250.548648 356.536857 233.905115 350.139082 222.222222Z" fill="#da0a0a" />
<path d="M349.860918 477.777778C352.086231 473.327152 357.464075 465.329934 365.994437 453.786123C374.524798 442.242312 381.386231 433.595998 386.578581 427.847319C380.088081 420.429614 373.110807 411.621032 365.646732 401.421728C358.182656 391.222381 352.920723 383.34106 349.860918 377.777778C342.999541 390.016999 330.85299 406.706846 313.421419 427.847319C331.31669 449.451352 343.463143 466.094885 349.860918 477.777778Z" fill="#da0a0a" />
<path d="M473.936364 84.433152Q479.6 82.01497 482.654545 77.81497T485.709091 68.269515Q485.709091 62.669515 481.954545 58.533152T470.818182 51.21497Q476.927273 47.524061 479.790909 43.705879T482.654545 35.051333Q482.654545 30.087697 479.345455 25.887697T470.563636 19.269515T458.854545 16.851333Q452.490909 16.851333 447.527273 19.142242T439.763636 25.378606T436.963636 34.287697Q436.963636 38.869515 440.145455 42.878606T449.690909 50.069515Q441.290909 53.633152 437.790909 57.578606T434.290909 67.633152Q434.290909 72.851333 437.663636 77.242242T447.081818 84.242242T460.890909 86.851333Q468.272727 86.851333 473.936364 84.433152ZM448.736364 41.733152Q446.890909 38.105879 446.890909 34.160424Q446.890909 28.687697 450.2 24.933152T459.490909 21.178606Q465.218182 21.178606 468.654545 24.487697T472.090909 32.887697Q472.090909 37.596788 467.445455 40.842242T454.018182 47.778606Q450.581818 45.360424 448.736364 41.733152ZM449.563636 79.087697Q445.745455 75.524061 445.745455 69.924061Q445.745455 66.233152 448.1 63.496788T454.209091 58.787697T465.981818 53.251333Q469.927273 55.924061 472.090909 59.61497T474.254545 67.760424Q474.254545 74.378606 470.245455 78.51497T459.745455 82.651333Q453.381818 82.651333 449.563636 79.087697Z" fill="#da0a0a" />
<path d="M460.073018 105.972222C458.904729 108.308801 456.081361 112.50734 451.602921 118.567841C447.124481 124.628342 443.522229 129.167657 440.796245 132.185713C444.203758 136.080008 447.866826 140.704514 451.785466 146.059149C455.704105 151.413805 458.46662 155.551499 460.073018 158.472222C463.675241 152.046631 470.05218 143.284461 479.203755 132.185713C469.808738 120.843596 463.43185 112.105741 460.073018 105.972222Z" fill="#da0a0a" />
<path d="M26.063636 615.566848Q20.4 617.98503 17.345455 622.18503T14.290909 631.730485Q14.290909 637.330485 18.045455 641.466848T29.181818 648.78503Q23.072727 652.475939 20.209091 656.294121T17.345455 664.948667Q17.345455 669.912303 20.654545 674.112303T29.436364 680.730485T41.145455 683.148667Q47.509091 683.148667 52.472727 680.857758T60.236364 674.621394T63.036364 665.712303Q63.036364 661.130485 59.854545 657.121394T50.309091 649.930485Q58.709091 646.366848 62.209091 642.421394T65.709091 632.366848Q65.709091 627.148667 62.336364 622.757758T52.918182 615.757758T39.109091 613.148667Q31.727273 613.148667 26.063636 615.566848ZM51.263636 658.266848Q53.109091 661.894121 53.109091 665.839576Q53.109091 671.312303 49.8 675.066848T40.509091 678.821394Q34.781818 678.821394 31.345455 675.512303T27.909091 667.112303Q27.909091 662.403212 32.554545 659.157758T45.981818 652.221394Q49.418182 654.639576 51.263636 658.266848ZM50.436364 620.912303Q54.254545 624.475939 54.254545 630.075939Q54.254545 633.766848 51.9 636.503212T45.790909 641.212303T34.018182 646.748667Q30.072727 644.075939 27.909091 640.38503T25.745455 632.239576Q25.745455 625.621394 29.754545 621.48503T40.254545 617.348667Q46.618182 617.348667 50.436364 620.912303Z" fill="#da0a0a" />
<path d="M39.926982 594.027778C41.095271 591.691199 43.918639 587.49266 48.397079 581.432159C52.875519 575.371658 56.477771 570.832343 59.203755 567.814287C55.796242 563.919992 52.133174 559.295486 48.214534 553.940851C44.295895 548.586195 41.53338 544.448501 39.926982 541.527778C36.324759 547.953369 29.94782 556.715539 20.796245 567.814287C30.191262 579.156404 36.56815 587.894259 39.926982 594.027778Z" fill="#da0a0a" />
</svg>
