<svg width="25.000000" height="35.000000" id="card-lightclub10">
<rect x="0" y="0" rx="1.25" ry="1.25" width="25" height="35.0" stroke="rgba(1,1,1,0.333)" fill="#fffdfa" />
<path d="M7.40085 6.254721C7.396128 6.396364 7.390227 6.51086 7.383144 6.598206C7.376062 6.685552 7.358357 6.796506 7.330028 6.931067S7.267469 7.176582 7.227337 7.263928S7.127006 7.449245 7.046742 7.557838S6.872049 7.756138 6.763456 7.826959S6.517941 7.966242 6.352691 8.032342S5.998584 8.150378 5.786119 8.188149V8.329792H9.213881V8.188149C9.001416 8.150378 8.812559 8.097262 8.647309 8.028801S8.343957 7.890699 8.233003 7.819877S8.02762 7.658168 7.949717 7.547214S7.811615 7.338291 7.769122 7.253305S7.692399 7.057365 7.666431 6.920444S7.623938 6.673749 7.616856 6.591124C7.609773 6.508498 7.603872 6.396364 7.59915 6.254721C7.712465 6.462464 7.804533 6.608829 7.875354 6.693815C8.002833 6.854344 8.159821 6.981823 8.346317 7.076251C8.532814 7.17068 8.71577 7.217894 8.895184 7.217894C9.197356 7.217894 9.457035 7.10576 9.674221 6.881492S10.0 6.386922 10.0 6.070585C10.0 5.763692 9.90203 5.501653 9.706091 5.284466S9.272899 4.958687 8.994334 4.958687C8.899906 4.958687 8.812559 4.971671 8.732295 4.997639S8.571766 5.056657 8.491501 5.096789L8.342776 5.171152C8.526912 4.906752 8.61898 4.656515 8.61898 4.420444C8.61898 4.122993 8.509207 3.868036 8.28966 3.655571S7.806893 3.336874 7.5 3.336874S6.929887 3.443107 6.71034 3.655571S6.38102 4.122993 6.38102 4.420444C6.38102 4.656515 6.473088 4.906752 6.657224 5.171152C6.624174 5.156988 6.57814 5.135741 6.519122 5.107413S6.416431 5.057838 6.388102 5.043673S6.323182 5.015345 6.278329 5.00118S6.189802 4.976393 6.147309 4.969311S6.057601 4.958687 6.005666 4.958687C5.727101 4.958687 5.489849 5.06728 5.293909 5.284466S5.0 5.763692 5.0 6.070585C5.0 6.386922 5.108593 6.657224 5.325779 6.881492S5.802644 7.217894 6.104816 7.217894C6.624174 7.217894 7.056183 6.896837 7.40085 6.254721Z" fill="#010101" />
<path d="M7.59915 28.745279C7.603872 28.603636 7.609773 28.48914 7.616856 28.401794C7.623938 28.314448 7.641643 28.203494 7.669972 28.068933S7.732531 27.823418 7.772663 27.736072S7.872994 27.550755 7.953258 27.442162S8.127951 27.243862 8.236544 27.173041S8.482059 27.033758 8.647309 26.967658S9.001416 26.849622 9.213881 26.811851V26.670208H5.786119V26.811851C5.998584 26.849622 6.187441 26.902738 6.352691 26.971199S6.656043 27.109301 6.766997 27.180123S6.97238 27.341832 7.050283 27.452786S7.188385 27.661709 7.230878 27.746695S7.307601 27.942635 7.333569 28.079556S7.376062 28.326251 7.383144 28.408876C7.390227 28.491502 7.396128 28.603636 7.40085 28.745279C7.287535 28.537536 7.195467 28.391171 7.124646 28.306185C6.997167 28.145656 6.840179 28.018177 6.653683 27.923749C6.467186 27.82932 6.28423 27.782106 6.104816 27.782106C5.802644 27.782106 5.542965 27.89424 5.325779 28.118508S5.0 28.613078 5.0 28.929415C5.0 29.236308 5.09797 29.498347 5.293909 29.715534S5.727101 30.041313 6.005666 30.041313C6.100094 30.041313 6.187441 30.028329 6.267705 30.002361S6.428234 29.943343 6.508499 29.903211L6.657224 29.828848C6.473088 30.093248 6.38102 30.343485 6.38102 30.579556C6.38102 30.877007 6.490793 31.131964 6.71034 31.344429S7.193107 31.663126 7.5 31.663126S8.070113 31.556893 8.28966 31.344429S8.61898 30.877007 8.61898 30.579556C8.61898 30.343485 8.526912 30.093248 8.342776 29.828848C8.375826 29.843012 8.42186 29.864259 8.480878 29.892587S8.583569 29.942162 8.611898 29.956327S8.676818 29.984655 8.721671 29.99882S8.810198 30.023607 8.852691 30.030689S8.942399 30.041313 8.994334 30.041313C9.272899 30.041313 9.510151 29.93272 9.706091 29.715534S10.0 29.236308 10.0 28.929415C10.0 28.613078 9.891407 28.342776 9.674221 28.118508S9.197356 27.782106 8.895184 27.782106C8.375826 27.782106 7.943817 28.103163 7.59915 28.745279Z" fill="#010101" />
<path d="M7.40085 14.032499C7.396128 14.174142 7.390227 14.288637 7.383144 14.375984C7.376062 14.46333 7.358357 14.574284 7.330028 14.708845S7.267469 14.95436 7.227337 15.041706S7.127006 15.227023 7.046742 15.335615S6.872049 15.533916 6.763456 15.604737S6.517941 15.74402 6.352691 15.81012S5.998584 15.928156 5.786119 15.965927V16.10757H9.213881V15.965927C9.001416 15.928156 8.812559 15.87504 8.647309 15.806579S8.343957 15.668477 8.233003 15.597655S8.02762 15.435946 7.949717 15.324992S7.811615 15.116069 7.769122 15.031083S7.692399 14.835143 7.666431 14.698222S7.623938 14.451527 7.616856 14.368901C7.609773 14.286276 7.603872 14.174142 7.59915 14.032499C7.712465 14.240242 7.804533 14.386607 7.875354 14.471593C8.002833 14.632122 8.159821 14.7596 8.346317 14.854029C8.532814 14.948457 8.71577 14.995672 8.895184 14.995672C9.197356 14.995672 9.457035 14.883538 9.674221 14.65927S10.0 14.1647 10.0 13.848363C10.0 13.54147 9.90203 13.279431 9.706091 13.062244S9.272899 12.736465 8.994334 12.736465C8.899906 12.736465 8.812559 12.749449 8.732295 12.775417S8.571766 12.834435 8.491501 12.874567L8.342776 12.94893C8.526912 12.68453 8.61898 12.434293 8.61898 12.198222C8.61898 11.900771 8.509207 11.645814 8.28966 11.433349S7.806893 11.114652 7.5 11.114652S6.929887 11.220884 6.71034 11.433349S6.38102 11.900771 6.38102 12.198222C6.38102 12.434293 6.473088 12.68453 6.657224 12.94893C6.624174 12.934766 6.57814 12.913519 6.519122 12.88519S6.416431 12.835615 6.388102 12.821451S6.323182 12.793122 6.278329 12.778958S6.189802 12.754171 6.147309 12.747088S6.057601 12.736465 6.005666 12.736465C5.727101 12.736465 5.489849 12.845058 5.293909 13.062244S5.0 13.54147 5.0 13.848363C5.0 14.1647 5.108593 14.435001 5.325779 14.65927S5.802644 14.995672 6.104816 14.995672C6.624174 14.995672 7.056183 14.674615 7.40085 14.032499Z" fill="#010101" />
<path d="M7.59915 20.967501C7.603872 20.825858 7.609773 20.711363 7.616856 20.624016C7.623938 20.53667 7.641643 20.425716 7.669972 20.291155S7.732531 20.04564 7.772663 19.958294S7.872994 19.772977 7.953258 19.664385S8.127951 19.466084 8.236544 19.395263S8.482059 19.25598 8.647309 19.18988S9.001416 19.071844 9.213881 19.034073V18.89243H5.786119V19.034073C5.998584 19.071844 6.187441 19.12496 6.352691 19.193421S6.656043 19.331523 6.766997 19.402345S6.97238 19.564054 7.050283 19.675008S7.188385 19.883931 7.230878 19.968917S7.307601 20.164857 7.333569 20.301778S7.376062 20.548473 7.383144 20.631099C7.390227 20.713724 7.396128 20.825858 7.40085 20.967501C7.287535 20.759758 7.195467 20.613393 7.124646 20.528407C6.997167 20.367878 6.840179 20.2404 6.653683 20.145971C6.467186 20.051543 6.28423 20.004328 6.104816 20.004328C5.802644 20.004328 5.542965 20.116462 5.325779 20.34073S5.0 20.8353 5.0 21.151637C5.0 21.45853 5.09797 21.720569 5.293909 21.937756S5.727101 22.263535 6.005666 22.263535C6.100094 22.263535 6.187441 22.250551 6.267705 22.224583S6.428234 22.165565 6.508499 22.125433L6.657224 22.05107C6.473088 22.31547 6.38102 22.565707 6.38102 22.801778C6.38102 23.099229 6.490793 23.354186 6.71034 23.566651S7.193107 23.885348 7.5 23.885348S8.070113 23.779116 8.28966 23.566651S8.61898 23.099229 8.61898 22.801778C8.61898 22.565707 8.526912 22.31547 8.342776 22.05107C8.375826 22.065234 8.42186 22.086481 8.480878 22.11481S8.583569 22.164385 8.611898 22.178549S8.676818 22.206878 8.721671 22.221042S8.810198 22.245829 8.852691 22.252912S8.942399 22.263535 8.994334 22.263535C9.272899 22.263535 9.510151 22.154942 9.706091 21.937756S10.0 21.45853 10.0 21.151637C10.0 20.8353 9.891407 20.564999 9.674221 20.34073S9.197356 20.004328 8.895184 20.004328C8.375826 20.004328 7.943817 20.325385 7.59915 20.967501Z" fill="#010101" />
<path d="M17.40085 6.254721C17.396128 6.396364 17.390227 6.51086 17.383144 6.598206C17.376062 6.685552 17.358357 6.796506 17.330028 6.931067S17.267469 7.176582 17.227337 7.263928S17.127006 7.449245 17.046742 7.557838S16.872049 7.756138 16.763456 7.826959S16.517941 7.966242 16.352691 8.032342S15.998584 8.150378 15.786119 8.188149V8.329792H19.213881V8.188149C19.001416 8.150378 18.812559 8.097262 18.647309 8.028801S18.343957 7.890699 18.233003 7.819877S18.02762 7.658168 17.949717 7.547214S17.811615 7.338291 17.769122 7.253305S17.692399 7.057365 17.666431 6.920444S17.623938 6.673749 17.616856 6.591124C17.609773 6.508498 17.603872 6.396364 17.59915 6.254721C17.712465 6.462464 17.804533 6.608829 17.875354 6.693815C18.002833 6.854344 18.159821 6.981823 18.346317 7.076251C18.532814 7.17068 18.71577 7.217894 18.895184 7.217894C19.197356 7.217894 19.457035 7.10576 19.674221 6.881492S20.0 6.386922 20.0 6.070585C20.0 5.763692 19.90203 5.501653 19.706091 5.284466S19.272899 4.958687 18.994334 4.958687C18.899906 4.958687 18.812559 4.971671 18.732295 4.997639S18.571766 5.056657 18.491501 5.096789L18.342776 5.171152C18.526912 4.906752 18.61898 4.656515 18.61898 4.420444C18.61898 4.122993 18.509207 3.868036 18.28966 3.655571S17.806893 3.336874 17.5 3.336874S16.929887 3.443107 16.71034 3.655571S16.38102 4.122993 16.38102 4.420444C16.38102 4.656515 16.473088 4.906752 16.657224 5.171152C16.624174 5.156988 16.57814 5.135741 16.519122 5.107413S16.416431 5.057838 16.388102 5.043673S16.323182 5.015345 16.278329 5.00118S16.189802 4.976393 16.147309 4.969311S16.057601 4.958687 16.005666 4.958687C15.727101 4.958687 15.489849 5.06728 15.293909 5.284466S15.0 5.763692 15.0 6.070585C15.0 6.386922 15.108593 6.657224 15.325779 6.881492S15.802644 7.217894 16.104816 7.217894C16.624174 7.217894 17.056183 6.896837 17.40085 6.254721Z" fill="#010101" />
<path d="M17.59915 28.745279C17.603872 28.603636 17.609773 28.48914 17.616856 28.401794C17.623938 28.314448 17.641643 28.203494 17.669972 28.068933S17.732531 27.823418 17.772663 27.736072S17.872994 27.550755 17.953258 27.442162S18.127951 27.243862 18.236544 27.173041S18.482059 27.033758 18.647309 26.967658S19.001416 26.849622 19.213881 26.811851V26.670208H15.786119V26.811851C15.998584 26.849622 16.187441 26.902738 16.352691 26.971199S16.656043 27.109301 16.766997 27.180123S16.97238 27.341832 17.050283 27.452786S17.188385 27.661709 17.230878 27.746695S17.307601 27.942635 17.333569 28.079556S17.376062 28.326251 17.383144 28.408876C17.390227 28.491502 17.396128 28.603636 17.40085 28.745279C17.287535 28.537536 17.195467 28.391171 17.124646 28.306185C16.997167 28.145656 16.840179 28.018177 16.653683 27.923749C16.467186 27.82932 16.28423 27.782106 16.104816 27.782106C15.802644 27.782106 15.542965 27.89424 15.325779 28.118508S15.0 28.613078 15.0 28.929415C15.0 29.236308 15.09797 29.498347 15.293909 29.715534S15.727101 30.041313 16.005666 30.041313C16.100094 30.041313 16.187441 30.028329 16.267705 30.002361S16.428234 29.943343 16.508499 29.903211L16.657224 29.828848C16.473088 30.093248 16.38102 30.343485 16.38102 30.579556C16.38102 30.877007 16.490793 31.131964 16.71034 31.344429S17.193107 31.663126 17.5 31.663126S18.070113 31.556893 18.28966 31.344429S18.61898 30.877007 18.61898 30.579556C18.61898 30.343485 18.526912 30.093248 18.342776 29.828848C18.375826 29.843012 18.42186 29.864259 18.480878 29.892587S18.583569 29.942162 18.611898 29.956327S18.676818 29.984655 18.721671 29.99882S18.810198 30.023607 18.852691 30.030689S18.942399 30.041313 18.994334 30.041313C19.272899 30.041313 19.510151 29.93272 19.706091 29.715534S20.0 29.236308 20.0 28.929415C20.0 28.613078 19.891407 28.342776 19.674221 28.118508S19.197356 27.782106 18.895184 27.782106C18.375826 27.782106 17.943817 28.103163 17.59915 28.745279Z" fill="#010101" />
<path d="M17.40085 14.032499C17.396128 14.174142 17.390227 14.288637 17.383144 14.375984C17.376062 14.46333 17.358357 14.574284 17.330028 14.708845S17.267469 14.95436 17.227337 15.041706S17.127006 15.227023 17.046742 15.335615S16.872049 15.533916 16.763456 15.604737S16.517941 15.74402 16.352691 15.81012S15.998584 15.928156 15.786119 15.965927V16.10757H19.213881V15.965927C19.001416 15.928156 18.812559 15.87504 18.647309 15.806579S18.343957 15.668477 18.233003 15.597655S18.02762 15.435946 17.949717 15.324992S17.811615 15.116069 17.769122 15.031083S17.692399 14.835143 17.666431 14.698222S17.623938 14.451527 17.616856 14.368901C17.609773 14.286276 17.603872 14.174142 17.59915 14.032499C17.712465 14.240242 17.804533 14.386607 17.875354 14.471593C18.002833 14.632122 18.159821 14.7596 18.346317 14.854029C18.532814 14.948457 18.71577 14.995672 18.895184 14.995672C19.197356 14.995672 19.457035 14.883538 19.674221 14.65927S20.0 14.1647 20.0 13.848363C20.0 13.54147 19.90203 13.279431 19.706091 13.062244S19.272899 12.736465 18.994334 12.736465C18.899906 12.736465 18.812559 12.749449 18.732295 12.775417S18.571766 12.834435 18.491501 12.874567L18.342776 12.94893C18.526912 12.68453 18.61898 12.434293 18.61898 12.198222C18.61898 11.900771 18.509207 11.645814 18.28966 11.433349S17.806893 11.114652 17.5 11.114652S16.929887 11.220884 16.71034 11.433349S16.38102 11.900771 16.38102 12.198222C16.38102 12.434293 16.473088 12.68453 16.657224 12.94893C16.624174 12.934766 16.57814 12.913519 16.519122 12.88519S16.416431 12.835615 16.388102 12.821451S16.323182 12.793122 16.278329 12.778958S16.189802 12.754171 16.147309 12.747088S16.057601 12.736465 16.005666 12.736465C15.727101 12.736465 15.489849 12.845058 15.293909 13.062244S15.0 13.54147 15.0 13.848363C15.0 14.1647 15.108593 14.435001 15.325779 14.65927S15.802644 14.995672 16.104816 14.995672C16.624174 14.995672 17.056183 14.674615 17.40085 14.032499Z" fill="#010101" />
<path d="M17.59915 20.967501C17.603872 20.825858 17.609773 20.711363 17.616856 20.624016C17.623938 20.53667 17.641643 20.425716 17.669972 20.291155S17.732531 20.04564 17.772663 19.958294S17.872994 19.772977 17.953258 19.664385S18.127951 19.466084 18.236544 19.395263S18.482059 19.25598 18.647309 19.18988S19.001416 19.071844 19.213881 19.034073V18.89243H15.786119V19.034073C15.998584 19.071844 16.187441 19.12496 16.352691 19.193421S16.656043 19.331523 16.766997 19.402345S16.97238 19.564054 17.050283 19.675008S17.188385 19.883931 17.230878 19.968917S17.307601 20.164857 17.333569 20.301778S17.376062 20.548473 17.383144 20.631099C17.390227 20.713724 17.396128 20.825858 17.40085 20.967501C17.287535 20.759758 17.195467 20.613393 17.124646 20.528407C16.997167 20.367878 16.840179 20.2404 16.653683 20.145971C16.467186 20.051543 16.28423 20.004328 16.104816 20.004328C15.802644 20.004328 15.542965 20.116462 15.325779 20.34073S15.0 20.8353 15.0 21.151637C15.0 21.45853 15.09797 21.720569 15.293909 21.937756S15.727101 22.263535 16.005666 22.263535C16.100094 22.263535 16.187441 22.250551 16.267705 22.224583S16.428234 22.165565 16.508499 22.125433L16.657224 22.05107C16.473088 22.31547 16.38102 22.565707 16.38102 22.801778C16.38102 23.099229 16.490793 23.354186 16.71034 23.566651S17.193107 23.885348 17.5 23.885348S18.070113 23.779116 18.28966 23.566651S18.61898 23.099229 18.61898 22.801778C18.61898 22.565707 18.526912 22.31547 18.342776 22.05107C18.375826 22.065234 18.42186 22.086481 18.480878 22.11481S18.583569 22.164385 18.611898 22.178549S18.676818 22.206878 18.721671 22.221042S18.810198 22.245829 18.852691 22.252912S18.942399 22.263535 18.994334 22.263535C19.272899 22.263535 19.510151 22.154942 19.706091 21.937756S20.0 21.45853 20.0 21.151637C20.0 20.8353 19.891407 20.564999 19.674221 20.34073S19.197356 20.004328 18.895184 20.004328C18.375826 20.004328 17.943817 20.325385 17.59915 20.967501Z" fill="#010101" />
<path d="M12.40085 10.14361C12.396128 10.285253 12.390227 10.399748 12.383144 10.487095C12.376062 10.574441 12.358357 10.685395 12.330028 10.819956S12.267469 11.065471 12.227337 11.152817S12.127006 11.338134 12.046742 11.446726S11.872049 11.645027 11.763456 11.715848S11.517941 11.855131 11.352691 11.921231S10.998584 12.039267 10.786119 12.077038V12.218681H14.213881V12.077038C14.001416 12.039267 13.812559 11.986151 13.647309 11.91769S13.343957 11.779588 13.233003 11.708766S13.02762 11.547057 12.949717 11.436103S12.811615 11.22718 12.769122 11.142194S12.692399 10.946254 12.666431 10.809333S12.623938 10.562638 12.616856 10.480013C12.609773 10.397387 12.603872 10.285253 12.59915 10.14361C12.712465 10.351353 12.804533 10.497718 12.875354 10.582704C13.002833 10.743233 13.159821 10.870712 13.346317 10.96514C13.532814 11.059569 13.71577 11.106783 13.895184 11.106783C14.197356 11.106783 14.457035 10.994649 14.674221 10.770381S15.0 10.275811 15.0 9.959474C15.0 9.652581 14.90203 9.390542 14.706091 9.173355S14.272899 8.847576 13.994334 8.847576C13.899906 8.847576 13.812559 8.86056 13.732295 8.886528S13.571766 8.945546 13.491501 8.985678L13.342776 9.060041C13.526912 8.795641 13.61898 8.545404 13.61898 8.309333C13.61898 8.011882 13.509207 7.756925 13.28966 7.54446S12.806893 7.225763 12.5 7.225763S11.929887 7.331996 11.71034 7.54446S11.38102 8.011882 11.38102 8.309333C11.38102 8.545404 11.473088 8.795641 11.657224 9.060041C11.624174 9.045877 11.57814 9.02463 11.519122 8.996302S11.416431 8.946726 11.388102 8.932562S11.323182 8.904234 11.278329 8.890069S11.189802 8.865282 11.147309 8.8582S11.057601 8.847576 11.005666 8.847576C10.727101 8.847576 10.489849 8.956169 10.293909 9.173355S10.0 9.652581 10.0 9.959474C10.0 10.275811 10.108593 10.546112 10.325779 10.770381S10.802644 11.106783 11.104816 11.106783C11.624174 11.106783 12.056183 10.785726 12.40085 10.14361Z" fill="#010101" />
<path d="M12.59915 24.85639C12.603872 24.714747 12.609773 24.600252 12.616856 24.512905C12.623938 24.425559 12.641643 24.314605 12.669972 24.180044S12.732531 23.934529 12.772663 23.847183S12.872994 23.661866 12.953258 23.553274S13.127951 23.354973 13.236544 23.284152S13.482059 23.144869 13.647309 23.078769S14.001416 22.960733 14.213881 22.922962V22.781319H10.786119V22.922962C10.998584 22.960733 11.187441 23.013849 11.352691 23.08231S11.656043 23.220412 11.766997 23.291234S11.97238 23.452943 12.050283 23.563897S12.188385 23.77282 12.230878 23.857806S12.307601 24.053746 12.333569 24.190667S12.376062 24.437362 12.383144 24.519987C12.390227 24.602613 12.396128 24.714747 12.40085 24.85639C12.287535 24.648647 12.195467 24.502282 12.124646 24.417296C11.997167 24.256767 11.840179 24.129288 11.653683 24.03486C11.467186 23.940431 11.28423 23.893217 11.104816 23.893217C10.802644 23.893217 10.542965 24.005351 10.325779 24.229619S10.0 24.724189 10.0 25.040526C10.0 25.347419 10.09797 25.609458 10.293909 25.826645S10.727101 26.152424 11.005666 26.152424C11.100094 26.152424 11.187441 26.13944 11.267705 26.113472S11.428234 26.054454 11.508499 26.014322L11.657224 25.939959C11.473088 26.204359 11.38102 26.454596 11.38102 26.690667C11.38102 26.988118 11.490793 27.243075 11.71034 27.45554S12.193107 27.774237 12.5 27.774237S13.070113 27.668004 13.28966 27.45554S13.61898 26.988118 13.61898 26.690667C13.61898 26.454596 13.526912 26.204359 13.342776 25.939959C13.375826 25.954123 13.42186 25.97537 13.480878 26.003698S13.583569 26.053274 13.611898 26.067438S13.676818 26.095766 13.721671 26.109931S13.810198 26.134718 13.852691 26.1418S13.942399 26.152424 13.994334 26.152424C14.272899 26.152424 14.510151 26.043831 14.706091 25.826645S15.0 25.347419 15.0 25.040526C15.0 24.724189 14.891407 24.453888 14.674221 24.229619S14.197356 23.893217 13.895184 23.893217C13.375826 23.893217 12.943817 24.214274 12.59915 24.85639Z" fill="#010101" />
<path d="M24.725597 4.151658Q24.721355 4.075294 24.706506 4.049839T24.657719 4.024385Q24.420146 4.024385 24.32045 3.995748T24.171966 3.846203T24.123179 3.43893V2.115294Q24.118936 1.816203 24.14227 1.685748T24.224996 1.517112T24.420146 1.47893H24.628022Q24.704385 1.47893 24.704385 1.326203Q24.700143 1.230748 24.678931 1.208476T24.625901 1.186203H24.581356Q24.403176 1.186203 24.233481 1.100294T23.864394 0.893476Q23.838939 0.880748 23.82197 0.880748Q23.754092 0.880748 23.754092 1.027112V3.43893Q23.754092 3.71893 23.709547 3.839839T23.569548 3.992567T23.261975 4.024385H23.219552Q23.185612 4.024385 23.170764 4.049839T23.151673 4.151658Q23.151673 4.304385 23.228036 4.304385Q23.533488 4.285294 23.940756 4.285294Q24.343783 4.285294 24.649234 4.304385Q24.725597 4.304385 24.725597 4.151658ZM22.841963 4.100748Q23.06893 3.85893 23.181354 3.458021T23.293777 2.586203Q23.293777 2.10893 23.181354 1.714385T22.841963 1.081203T22.28409 0.842567Q21.970154 0.842567 21.741065 1.084385T21.39319 1.727112T21.274403 2.586203T21.39319 3.445294T21.741065 4.094385T22.28409 4.342567Q22.614996 4.342567 22.841963 4.100748ZM21.83864 3.712567Q21.681672 3.318021 21.681672 2.586203T21.83864 1.466203T22.279847 1.078021Q22.572572 1.078021 22.72954 1.463021T22.886508 2.586203T22.72954 3.715748T22.279847 4.107112Q21.995608 4.107112 21.83864 3.712567Z" fill="#010101" />
<path d="M22.947946 6.83234C22.945467 6.906702 22.942369 6.966812 22.938651 7.012669C22.934933 7.058526 22.925637 7.116777 22.910765 7.187421S22.877921 7.316317 22.856852 7.362173S22.804178 7.459465 22.76204 7.516476S22.670326 7.620583 22.613314 7.657765S22.484419 7.730888 22.397663 7.765591S22.211756 7.82756 22.100212 7.847389V7.921752H23.899788V7.847389C23.788244 7.827559 23.689093 7.799674 23.602337 7.763732S23.443077 7.691228 23.384826 7.654047S23.277001 7.569149 23.236101 7.510899S23.163598 7.401214 23.141289 7.356596S23.101009 7.253728 23.087376 7.181844S23.065067 7.052329 23.061349 7.008951C23.057631 6.965573 23.054533 6.906702 23.052054 6.83234C23.111544 6.941405 23.15988 7.018246 23.197061 7.062864C23.263987 7.147142 23.346406 7.214068 23.444317 7.263643C23.542227 7.313218 23.638279 7.338006 23.732472 7.338006C23.891112 7.338006 24.027443 7.279135 24.141466 7.161394S24.3125 6.901745 24.3125 6.735668C24.3125 6.57455 24.261066 6.436979 24.158198 6.322956S23.930772 6.151922 23.784525 6.151922C23.734951 6.151922 23.689093 6.158739 23.646955 6.172372S23.562677 6.203356 23.520538 6.224426L23.442458 6.263466C23.539129 6.124656 23.587465 5.993282 23.587465 5.869344C23.587465 5.713183 23.529834 5.57933 23.414572 5.467786S23.161119 5.30047 23.0 5.30047S22.700691 5.356242 22.585428 5.467786S22.412535 5.713183 22.412535 5.869344C22.412535 5.993282 22.460871 6.124656 22.557542 6.263466C22.540191 6.25603 22.516023 6.244875 22.485039 6.230003S22.431126 6.203976 22.416254 6.19654S22.382171 6.181667 22.358623 6.174231S22.312146 6.161217 22.289837 6.157499S22.242741 6.151922 22.215475 6.151922C22.069228 6.151922 21.944671 6.208933 21.841802 6.322956S21.6875 6.57455 21.6875 6.735668C21.6875 6.901745 21.744511 7.043653 21.858534 7.161394S22.108888 7.338006 22.267528 7.338006C22.540191 7.338006 22.766996 7.16945 22.947946 6.83234Z" fill="#010101" />
<path d="M0.274403 30.848342Q0.278645 30.924706 0.293494 30.950161T0.342281 30.975615Q0.579854 30.975615 0.67955 31.004252T0.828034 31.153797T0.876821 31.56107V32.884706Q0.881064 33.183797 0.85773 33.314252T0.775004 33.482888T0.579854 33.52107H0.371978Q0.295615 33.52107 0.295615 33.673797Q0.299857 33.769252 0.321069 33.791524T0.374099 33.813797H0.418644Q0.596824 33.813797 0.766519 33.899706T1.135606 34.106524Q1.161061 34.119252 1.17803 34.119252Q1.245908 34.119252 1.245908 33.972888V31.56107Q1.245908 31.28107 1.290453 31.160161T1.430452 31.007433T1.738025 30.975615H1.780448Q1.814388 30.975615 1.829236 30.950161T1.848327 30.848342Q1.848327 30.695615 1.771964 30.695615Q1.466512 30.714706 1.059244 30.714706Q0.656217 30.714706 0.350766 30.695615Q0.274403 30.695615 0.274403 30.848342ZM2.158037 30.899252Q1.93107 31.14107 1.818646 31.541979T1.706223 32.413797Q1.706223 32.89107 1.818646 33.285615T2.158037 33.918797T2.71591 34.157433Q3.029846 34.157433 3.258935 33.915615T3.60681 33.272888T3.725597 32.413797T3.60681 31.554706T3.258935 30.905615T2.71591 30.657433Q2.385004 30.657433 2.158037 30.899252ZM3.16136 31.287433Q3.318328 31.681979 3.318328 32.413797T3.16136 33.533797T2.720153 33.921979Q2.427428 33.921979 2.27046 33.536979T2.113492 32.413797T2.27046 31.284252T2.720153 30.892888Q3.004392 30.892888 3.16136 31.287433Z" fill="#010101" />
<path d="M2.052054 28.16766C2.054533 28.093298 2.057631 28.033188 2.061349 27.987331C2.065067 27.941474 2.074363 27.883223 2.089235 27.812579S2.122079 27.683683 2.143148 27.637827S2.195822 27.540535 2.23796 27.483524S2.329674 27.379417 2.386686 27.342235S2.515581 27.269112 2.602337 27.234409S2.788244 27.17244 2.899788 27.152611V27.078248H1.100212V27.152611C1.211756 27.172441 1.310907 27.200326 1.397663 27.236268S1.556923 27.308772 1.615174 27.345953S1.722999 27.430851 1.763899 27.489101S1.836402 27.598786 1.858711 27.643404S1.898991 27.746272 1.912624 27.818156S1.934933 27.947671 1.938651 27.991049C1.942369 28.034427 1.945467 28.093298 1.947946 28.16766C1.888456 28.058595 1.84012 27.981754 1.802939 27.937136C1.736013 27.852858 1.653594 27.785932 1.555683 27.736357C1.457773 27.686782 1.361721 27.661994 1.267528 27.661994C1.108888 27.661994 0.972557 27.720865 0.858534 27.838606S0.6875 28.098255 0.6875 28.264332C0.6875 28.42545 0.738934 28.563021 0.841802 28.677044S1.069228 28.848078 1.215475 28.848078C1.265049 28.848078 1.310907 28.841261 1.353045 28.827628S1.437323 28.796644 1.479462 28.775574L1.557542 28.736534C1.460871 28.875344 1.412535 29.006718 1.412535 29.130656C1.412535 29.286817 1.470166 29.42067 1.585428 29.532214S1.838881 29.69953 2.0 29.69953S2.299309 29.643758 2.414572 29.532214S2.587465 29.286817 2.587465 29.130656C2.587465 29.006718 2.539129 28.875344 2.442458 28.736534C2.459809 28.74397 2.483977 28.755125 2.514961 28.769997S2.568874 28.796024 2.583746 28.80346S2.617829 28.818333 2.641377 28.825769S2.687854 28.838783 2.710163 28.842501S2.757259 28.848078 2.784525 28.848078C2.930772 28.848078 3.055329 28.791067 3.158198 28.677044S3.3125 28.42545 3.3125 28.264332C3.3125 28.098255 3.255489 27.956347 3.141466 27.838606S2.891112 27.661994 2.732472 27.661994C2.459809 27.661994 2.233004 27.83055 2.052054 28.16766Z" fill="#010101" />
</svg>
