<svg width="500.000000" height="700.000000" id="card-realheart1">
<radialGradient id="card-realwhitegradient" cx="250.0" cy="350.0" r="500" gradientTransform="matrix(1 0 0 1 0 -.25)" gradientUnits="userSpaceOnUse">
<stop stop-color="#FDFAF4" offset=".15"/>
<stop stop-color="#FDF9F2" offset=".35"/>
<stop stop-color="#FCF7F1" offset=".5"/>
<stop stop-color="#FDFDF8" offset=".75"/>
<stop stop-color="#FFFDFA" offset="1"/>
</radialGradient>
<rect x="0" y="0" rx="25.0" ry="25.0" width="500" height="700.0" fill="url(#card-realwhitegradient)" />
<path d="M332.311978 289.554318C332.311978 293.268329 331.104922 296.657382 328.690808 299.721448S325.069638 304.5961 325.069638 305.153203C325.069638 307.381616 326.32312 309.563593 328.830084 311.699164S333.890446 314.902507 336.490251 314.902507C339.275766 314.902507 341.597019 313.788301 343.454039 311.559889S346.239554 306.638802 346.239554 303.481894C346.239554 292.339833 340.99351 281.429889 330.501393 270.752089C320.009276 260.07429 309.285042 254.735376 298.328691 254.735376C288.486546 254.735376 277.530167 259.749304 265.45961 269.777159V261.142061C259.145766 254.085432 252.83195 250.557103 246.518106 250.557103C239.832869 250.557103 234.215404 253.249769 229.665738 258.635097S222.841226 270.705655 222.841226 278.690808C222.841226 282.404819 223.67688 287.697298 225.348189 294.568245C215.506045 301.067772 205.942423 304.317549 196.657382 304.317549C191.272061 304.317549 186.583092 302.460538 182.590529 298.746518S176.601671 290.668524 176.601671 285.654596C176.601671 281.012061 178.180131 277.623036 181.337047 275.487465S186.072423 271.077075 186.072423 268.662953C186.072423 263.277632 184.586816 258.820808 181.615599 255.292479S174.930362 250.0 170.473538 250.0C165.64532 250.0 161.65273 251.717735 158.495822 255.153203S153.760446 262.906212 153.760446 268.10585C153.760446 279.805014 159.795738 289.647159 171.866295 297.632312C183.936852 305.617465 195.821727 309.610028 207.520891 309.610028C211.792006 309.610028 218.570111 307.567318 227.855153 303.481894C230.269267 309.610028 235.933148 321.680585 244.846797 339.693593C245.4039 336.908078 245.682451 335.051058 245.682451 334.122563C245.682451 332.822655 245.636026 331.940577 245.543175 331.476323S245.125348 330.083565 244.568245 328.690808S243.361189 325.858858 242.618384 324.373259S240.622097 320.009276 238.857939 315.738162S235.097493 306.638802 232.869081 301.253482C235.654596 299.953574 242.479109 295.868162 253.342618 288.997214S274.4661 276.230279 284.122563 271.309192C293.779025 266.388106 301.114206 263.927577 306.128134 263.927577C313.184763 263.927577 319.312897 266.480967 324.512535 271.587744C329.712173 276.694513 332.311978 282.68337 332.311978 289.554318ZM230.362117 292.061281C229.062209 287.604457 228.412256 283.983287 228.412256 281.197772C228.412256 275.441031 230.083565 270.380696 233.426184 266.016713S240.575682 259.470752 244.846797 259.470752C247.260911 259.470752 249.396462 260.445682 251.253482 262.395543S254.038997 266.620251 254.038997 269.220056C254.038997 273.305487 251.532033 277.576602 246.518106 282.033426S236.118858 289.832869 230.362117 292.061281ZM245.4039 347.771588C235.376045 330.315682 223.119777 321.587744 208.635097 321.587744C200.092841 321.587744 192.75766 325.023203 186.629526 331.89415S177.437326 347.028774 177.437326 356.685237C177.437326 364.113287 179.108635 370.752089 182.451253 376.601671S189.92571 387.093788 194.846797 390.529248S205.106769 397.307326 210.86351 400.557103C216.620251 403.80688 221.959136 406.592396 226.880223 408.913649C231.801309 411.234911 235.933148 414.066852 239.275766 417.409471S244.289694 424.373259 244.289694 428.272981C244.289694 432.544095 242.664811 436.118858 239.415042 438.997214S232.219136 443.314763 227.576602 443.314763C215.134624 443.314763 207.706602 434.772507 205.292479 417.688022C203.435468 415.273908 200.928496 414.066852 197.771588 414.066852C194.243259 414.066852 191.364903 415.041783 189.13649 416.991643S185.793872 421.494903 185.793872 424.651811C185.793872 431.522758 190.250696 437.465181 199.164345 442.479109S218.477242 450.0 230.362117 450.0C253.203343 450.0 273.119777 441.550613 290.111421 424.651811C307.103064 407.753008 315.598886 387.883008 315.598886 365.041783C315.598886 350.371393 312.02415 338.254401 304.874652 328.690808S288.672228 314.345404 277.715877 314.345404C259.517187 314.345404 250.417827 324.837521 250.417827 345.821727Z" fill="#da0a0a" />
<path d="M494.530551 110.482696Q495.0 109.804603 495.0 108.865706Q494.895678 107.300878 494.374069 106.987912T493.122206 106.674946H492.183308Q489.053651 106.674946 487.593145 105.057957T485.245902 101.40669T484.0462 98.642159L465.789866 55.45289Q465.163934 53.888061 465.163934 52.949164Q465.163934 51.071369 466.624441 50.236794T470.692996 48.880609Q472.466468 48.567644 472.883756 48.254678T473.301043 46.481205Q473.301043 45.229343 472.622951 44.812055T470.484352 44.394767Q465.268256 44.394767 462.19076 45.177182T456.818182 48.306839T452.540984 55.45289L435.014903 98.642159Q433.450075 102.606392 431.989568 104.588508T427.608048 106.674946H426.982116Q425.938897 106.674946 425.52161 107.040073T425.0 108.865706Q425.0 109.804603 425.469449 110.482696T426.877794 111.160788Q433.554396 110.847822 438.353204 110.847822Q444.612519 110.847822 451.289121 111.160788Q452.228018 111.160788 452.697466 110.482696T453.166915 108.865706Q453.062593 107.4052 452.645306 107.040073T451.184799 106.674946Q447.637854 106.674946 446.177347 105.996854T444.716841 103.545289Q444.716841 102.189104 445.968703 98.642159L449.515648 89.983441H475.283159Q477.891207 96.451399 478.256334 97.494618T478.621461 98.642159Q479.873323 102.606392 479.873323 103.753933Q479.873323 105.527405 478.308495 106.101176T472.362146 106.674946H471.736215Q470.692996 106.674946 470.275708 107.040073T469.754098 108.865706Q469.754098 109.804603 470.223547 110.482696T471.631893 111.160788Q478.308495 110.847822 483.002981 110.847822Q486.341282 110.847822 493.122206 111.160788Q494.061103 111.160788 494.530551 110.482696ZM473.301043 85.497599H451.393443L461.929955 58.686869H462.242921Z" fill="#da0a0a" />
<path d="M459.935005 141.581693C459.068411 138.37529 457.671025 136.013811 455.742847 134.49727S451.680677 132.222456 449.340868 132.222456C446.697748 132.222456 444.433768 133.132381 442.548921 134.952233S439.721651 138.960242 439.721651 141.516699C439.721651 143.856508 440.295771 146.23965 441.444011 148.666117S444.043799 153.432393 445.798656 155.685545S449.340868 160.202677 451.16072 162.477492S454.724594 167.34126 456.392794 170.244359S459.241726 176.028888 459.935005 178.888656C460.714942 175.898899 461.960676 172.898308 463.672201 169.886889S467.149418 164.210686 468.96927 161.89254C470.789121 159.574393 472.565641 157.299578 474.298836 155.068095S477.461914 150.594295 478.588486 148.341143S480.278349 143.943166 480.278349 141.906667C480.278349 139.176889 479.357588 136.880412 477.516074 135.017228C475.674559 133.154044 473.410572 132.222456 470.724127 132.222456C465.567882 132.222456 461.971484 135.342202 459.935005 141.581693Z" fill="#da0a0a" />
<path d="M5.469449 589.517304Q5.0 590.195397 5.0 591.134294Q5.104322 592.699122 5.625931 593.012088T6.877794 593.325054H7.816692Q10.946349 593.325054 12.406855 594.942043T14.754098 598.59331T15.9538 601.357841L34.210134 644.54711Q34.836066 646.111939 34.836066 647.050836Q34.836066 648.928631 33.375559 649.763206T29.307004 651.119391Q27.533532 651.432356 27.116244 651.745322T26.698957 653.518795Q26.698957 654.770657 27.377049 655.187945T29.515648 655.605233Q34.731744 655.605233 37.80924 654.822818T43.181818 651.693161T47.459016 644.54711L64.985097 601.357841Q66.549925 597.393608 68.010432 595.411492T72.391952 593.325054H73.017884Q74.061103 593.325054 74.47839 592.959927T75.0 591.134294Q75.0 590.195397 74.530551 589.517304T73.122206 588.839212Q66.445604 589.152178 61.646796 589.152178Q55.387481 589.152178 48.710879 588.839212Q47.771982 588.839212 47.302534 589.517304T46.833085 591.134294Q46.937407 592.5948 47.354694 592.959927T48.815201 593.325054Q52.362146 593.325054 53.822653 594.003146T55.283159 596.454711Q55.283159 597.810896 54.031297 601.357841L50.484352 610.016559H24.716841Q22.108793 603.548601 21.743666 602.505382T21.378539 601.357841Q20.126677 597.393608 20.126677 596.246067Q20.126677 594.472595 21.691505 593.898824T27.637854 593.325054H28.263785Q29.307004 593.325054 29.724292 592.959927T30.245902 591.134294Q30.245902 590.195397 29.776453 589.517304T28.368107 588.839212Q21.691505 589.152178 16.997019 589.152178Q13.658718 589.152178 6.877794 588.839212Q5.938897 588.839212 5.469449 589.517304ZM26.698957 614.502401H48.606557L38.070045 641.313131H37.757079Z" fill="#da0a0a" />
<path d="M40.064995 558.418307C40.931589 561.62471 42.328975 563.986189 44.257153 565.50273S48.319323 567.777544 50.659132 567.777544C53.302252 567.777544 55.566232 566.867619 57.451079 565.047767S60.278349 561.039758 60.278349 558.483301C60.278349 556.143492 59.704229 553.76035 58.555989 551.333883S55.956201 546.567607 54.201344 544.314455S50.659132 539.797323 48.83928 537.522508S45.275406 532.65874 43.607206 529.755641S40.758274 523.971112 40.064995 521.111344C39.285058 524.101101 38.039324 527.101692 36.327799 530.113111S32.850582 535.789314 31.03073 538.10746C29.210879 540.425607 27.434359 542.700422 25.701164 544.931905S22.538086 549.405705 21.411514 551.658857S19.721651 556.056834 19.721651 558.093333C19.721651 560.823111 20.642412 563.119588 22.483926 564.982772C24.325441 566.845956 26.589428 567.777544 29.275873 567.777544C34.432118 567.777544 38.028516 564.657798 40.064995 558.418307Z" fill="#da0a0a" />
</svg>
