<svg width="25.000000" height="35.000000" id="card-lightheart7">
<rect x="0" y="0" rx="1.25" ry="1.25" width="25" height="35.0" stroke="rgba(1,1,1,0.333)" fill="#fffdfa" />
<path d="M7.493036 4.336119C7.400186 3.992572 7.250464 3.739554 7.043872 3.577066S6.608635 3.333333 6.357939 3.333333C6.074744 3.333333 5.832173 3.430826 5.630223 3.625812S5.327298 4.055246 5.327298 4.329155C5.327298 4.579851 5.388811 4.835191 5.511838 5.095172S5.79039 5.605849 5.978412 5.847261S6.357939 6.331244 6.552925 6.574977S6.934772 7.0961 7.11351 7.407149S7.418756 8.026927 7.493036 8.333333C7.576602 8.012999 7.710075 7.691504 7.893454 7.368849S8.266017 6.760678 8.461003 6.512303C8.655989 6.263927 8.846332 6.020195 9.032033 5.781105S9.370938 5.301764 9.491643 5.060353S9.672702 4.589136 9.672702 4.370938C9.672702 4.078459 9.574048 3.832405 9.376741 3.632776C9.179434 3.433147 8.936861 3.333333 8.649025 3.333333C8.096565 3.333333 7.711233 3.667595 7.493036 4.336119Z" fill="#da0a0a" />
<path d="M7.506964 30.663881C7.599814 31.007428 7.749536 31.260446 7.956128 31.422934S8.391365 31.666667 8.642061 31.666667C8.925256 31.666667 9.167827 31.569174 9.369777 31.374188S9.672702 30.944754 9.672702 30.670845C9.672702 30.420149 9.611189 30.164809 9.488162 29.904828S9.20961 29.394151 9.021588 29.152739S8.642061 28.668756 8.447075 28.425023S8.065228 27.9039 7.88649 27.592851S7.581244 26.973073 7.506964 26.666667C7.423398 26.987001 7.289925 27.308496 7.106546 27.631151S6.733983 28.239322 6.538997 28.487697C6.344011 28.736073 6.153668 28.979805 5.967967 29.218895S5.629062 29.698236 5.508357 29.939647S5.327298 30.410864 5.327298 30.629062C5.327298 30.921541 5.425952 31.167595 5.623259 31.367224C5.820566 31.566853 6.063139 31.666667 6.350975 31.666667C6.903435 31.666667 7.288767 31.332405 7.506964 30.663881Z" fill="#da0a0a" />
<path d="M7.493036 16.002786C7.400186 15.659239 7.250464 15.406221 7.043872 15.243733S6.608635 15.0 6.357939 15.0C6.074744 15.0 5.832173 15.097493 5.630223 15.292479S5.327298 15.721913 5.327298 15.995822C5.327298 16.246518 5.388811 16.501857 5.511838 16.761838S5.79039 17.272516 5.978412 17.513928S6.357939 17.997911 6.552925 18.241643S6.934772 18.762767 7.11351 19.073816S7.418756 19.693593 7.493036 20.0C7.576602 19.679666 7.710075 19.358171 7.893454 19.035515S8.266017 18.427345 8.461003 18.178969C8.655989 17.930594 8.846332 17.686861 9.032033 17.447772S9.370938 16.968431 9.491643 16.727019S9.672702 16.255803 9.672702 16.037604C9.672702 15.745125 9.574048 15.499072 9.376741 15.299443C9.179434 15.099814 8.936861 15.0 8.649025 15.0C8.096565 15.0 7.711233 15.334262 7.493036 16.002786Z" fill="#da0a0a" />
<path d="M17.493036 4.336119C17.400186 3.992572 17.250464 3.739554 17.043872 3.577066S16.608635 3.333333 16.357939 3.333333C16.074744 3.333333 15.832173 3.430826 15.630223 3.625812S15.327298 4.055246 15.327298 4.329155C15.327298 4.579851 15.388811 4.835191 15.511838 5.095172S15.79039 5.605849 15.978412 5.847261S16.357939 6.331244 16.552925 6.574977S16.934772 7.0961 17.11351 7.407149S17.418756 8.026927 17.493036 8.333333C17.576602 8.012999 17.710075 7.691504 17.893454 7.368849S18.266017 6.760678 18.461003 6.512303C18.655989 6.263927 18.846332 6.020195 19.032033 5.781105S19.370938 5.301764 19.491643 5.060353S19.672702 4.589136 19.672702 4.370938C19.672702 4.078459 19.574048 3.832405 19.376741 3.632776C19.179434 3.433147 18.936861 3.333333 18.649025 3.333333C18.096565 3.333333 17.711233 3.667595 17.493036 4.336119Z" fill="#da0a0a" />
<path d="M17.506964 30.663881C17.599814 31.007428 17.749536 31.260446 17.956128 31.422934S18.391365 31.666667 18.642061 31.666667C18.925256 31.666667 19.167827 31.569174 19.369777 31.374188S19.672702 30.944754 19.672702 30.670845C19.672702 30.420149 19.611189 30.164809 19.488162 29.904828S19.20961 29.394151 19.021588 29.152739S18.642061 28.668756 18.447075 28.425023S18.065228 27.9039 17.88649 27.592851S17.581244 26.973073 17.506964 26.666667C17.423398 26.987001 17.289925 27.308496 17.106546 27.631151S16.733983 28.239322 16.538997 28.487697C16.344011 28.736073 16.153668 28.979805 15.967967 29.218895S15.629062 29.698236 15.508357 29.939647S15.327298 30.410864 15.327298 30.629062C15.327298 30.921541 15.425952 31.167595 15.623259 31.367224C15.820566 31.566853 16.063139 31.666667 16.350975 31.666667C16.903435 31.666667 17.288767 31.332405 17.506964 30.663881Z" fill="#da0a0a" />
<path d="M17.493036 16.002786C17.400186 15.659239 17.250464 15.406221 17.043872 15.243733S16.608635 15.0 16.357939 15.0C16.074744 15.0 15.832173 15.097493 15.630223 15.292479S15.327298 15.721913 15.327298 15.995822C15.327298 16.246518 15.388811 16.501857 15.511838 16.761838S15.79039 17.272516 15.978412 17.513928S16.357939 17.997911 16.552925 18.241643S16.934772 18.762767 17.11351 19.073816S17.418756 19.693593 17.493036 20.0C17.576602 19.679666 17.710075 19.358171 17.893454 19.035515S18.266017 18.427345 18.461003 18.178969C18.655989 17.930594 18.846332 17.686861 19.032033 17.447772S19.370938 16.968431 19.491643 16.727019S19.672702 16.255803 19.672702 16.037604C19.672702 15.745125 19.574048 15.499072 19.376741 15.299443C19.179434 15.099814 18.936861 15.0 18.649025 15.0C18.096565 15.0 17.711233 15.334262 17.493036 16.002786Z" fill="#da0a0a" />
<path d="M12.493036 10.169452C12.400186 9.825906 12.250464 9.572887 12.043872 9.410399S11.608635 9.166667 11.357939 9.166667C11.074744 9.166667 10.832173 9.26416 10.630223 9.459146S10.327298 9.88858 10.327298 10.162488C10.327298 10.413185 10.388811 10.668524 10.511838 10.928505S10.79039 11.439183 10.978412 11.680594S11.357939 12.164578 11.552925 12.40831S11.934772 12.929433 12.11351 13.240483S12.418756 13.86026 12.493036 14.166667C12.576602 13.846332 12.710075 13.524837 12.893454 13.202182S13.266017 12.594011 13.461003 12.345636C13.655989 12.097261 13.846332 11.853528 14.032033 11.614438S14.370938 11.135098 14.491643 10.893686S14.672702 10.42247 14.672702 10.204271C14.672702 9.911792 14.574048 9.665738 14.376741 9.46611C14.179434 9.266481 13.936861 9.166667 13.649025 9.166667C13.096565 9.166667 12.711233 9.500929 12.493036 10.169452Z" fill="#da0a0a" />
<path d="M23.552122 4.268305Q23.616697 4.194043 23.616697 4.064891Q23.616697 3.780759 23.297048 3.138231T22.460793 1.565814L22.312269 1.301054H23.442343Q23.616697 1.301054 23.703875 1.326884T23.845941 1.449578T23.926661 1.753083Q23.939576 1.804744 23.968635 1.827345T24.075185 1.849947Q24.184963 1.849947 24.184963 1.740168L24.159133 0.984633Q24.159133 0.842567 23.971863 0.842567H22.002306Q21.815037 0.842567 21.815037 0.96526Q21.815037 1.062124 21.957103 1.301054Q22.196033 1.701423 22.399446 2.195426T22.848247 3.367474Q23.048432 3.916367 23.138838 4.135925Q23.235701 4.342567 23.403598 4.342567Q23.487546 4.342567 23.552122 4.268305Z" fill="#da0a0a" />
<path d="M22.996344 5.825074C22.947598 5.644712 22.868994 5.511877 22.760533 5.426571S22.532033 5.298611 22.400418 5.298611C22.251741 5.298611 22.124391 5.349795 22.018367 5.452163S21.859331 5.677615 21.859331 5.821418C21.859331 5.953033 21.891626 6.087086 21.956215 6.223576S22.102455 6.491682 22.201166 6.618423S22.400418 6.872514 22.502786 7.000474S22.703255 7.274064 22.797093 7.437365S22.957347 7.762748 22.996344 7.923611C23.040216 7.755436 23.110289 7.586651 23.206563 7.417257S23.402159 7.097967 23.504526 6.96757C23.606894 6.837173 23.706824 6.709213 23.804318 6.583691S23.982242 6.332037 24.045613 6.205296S24.140669 5.957908 24.140669 5.843353C24.140669 5.689802 24.088875 5.560624 23.985289 5.455819C23.881703 5.351013 23.754352 5.298611 23.603238 5.298611C23.313197 5.298611 23.110897 5.474099 22.996344 5.825074Z" fill="#da0a0a" />
<path d="M1.447878 30.731695Q1.383303 30.805957 1.383303 30.935109Q1.383303 31.219241 1.702952 31.861769T2.539207 33.434186L2.687731 33.698946H1.557657Q1.383303 33.698946 1.296125 33.673116T1.154059 33.550422T1.073339 33.246917Q1.060424 33.195256 1.031365 33.172655T0.924815 33.150053Q0.815037 33.150053 0.815037 33.259832L0.840867 34.015367Q0.840867 34.157433 1.028137 34.157433H2.997694Q3.184963 34.157433 3.184963 34.03474Q3.184963 33.937876 3.042897 33.698946Q2.803967 33.298577 2.600554 32.804574T2.151753 31.632526Q1.951568 31.083633 1.861162 30.864075Q1.764299 30.657433 1.596402 30.657433Q1.512454 30.657433 1.447878 30.731695Z" fill="#da0a0a" />
<path d="M2.003656 29.174926C2.052402 29.355288 2.131006 29.488123 2.239467 29.573429S2.467967 29.701389 2.599582 29.701389C2.748259 29.701389 2.875609 29.650205 2.981633 29.547837S3.140669 29.322385 3.140669 29.178582C3.140669 29.046967 3.108374 28.912914 3.043785 28.776424S2.897545 28.508318 2.798834 28.381577S2.599582 28.127486 2.497214 27.999526S2.296745 27.725936 2.202907 27.562635S2.042653 27.237252 2.003656 27.076389C1.959784 27.244564 1.889711 27.413349 1.793437 27.582743S1.597841 27.902033 1.495474 28.03243C1.393106 28.162827 1.293176 28.290787 1.195682 28.416309S1.017758 28.667963 0.954387 28.794704S0.859331 29.042092 0.859331 29.156647C0.859331 29.310198 0.911125 29.439376 1.014711 29.544181C1.118297 29.648987 1.245648 29.701389 1.396762 29.701389C1.686803 29.701389 1.889103 29.525901 2.003656 29.174926Z" fill="#da0a0a" />
</svg>
