<svg width="150.000000" height="210.000000" id="card-webdiamond3">
<radialGradient id="card-webwhitegradient" cx="75.0" cy="105.0" r="150" gradientTransform="matrix(1 0 0 1 0 -.25)" gradientUnits="userSpaceOnUse">
<stop stop-color="#FDFAF4" offset=".15"/>
<stop stop-color="#FDF9F2" offset=".35"/>
<stop stop-color="#FCF7F1" offset=".5"/>
<stop stop-color="#FDFDF8" offset=".75"/>
<stop stop-color="#FFFDFA" offset="1"/>
</radialGradient>
<rect x="0" y="0" rx="7.5" ry="7.5" width="150" height="210.0" stroke="rgba(1,1,1,0.333)" fill="url(#card-webwhitegradient)" />
<path d="M75.041725 20.0C74.374131 21.335188 72.760777 23.734353 70.201669 27.197497C67.642561 30.66064 65.584131 33.254534 64.026426 34.979138C65.973576 37.204449 68.066758 39.847024 70.305981 42.906815C72.545203 45.966619 74.123783 48.331015 75.041725 50.0C77.100138 46.328234 80.744103 41.32128 85.973574 34.979138C80.604993 28.497928 76.961057 23.504868 75.041725 20.0Z" fill="#da0a0a" />
<path d="M74.958275 190.0C75.625869 188.664812 77.239223 186.265647 79.798331 182.802503C82.357439 179.33936 84.415869 176.745466 85.973574 175.020862C84.026424 172.795551 81.933242 170.152976 79.694019 167.093185C77.454797 164.033381 75.876217 161.668985 74.958275 160.0C72.899862 163.671766 69.255897 168.67872 64.026426 175.020862C69.395007 181.502072 73.038943 186.495132 74.958275 190.0Z" fill="#da0a0a" />
<path d="M75.041725 90.0C74.374131 91.335188 72.760777 93.734353 70.201669 97.197497C67.642561 100.66064 65.584131 103.254534 64.026426 104.979138C65.973576 107.204449 68.066758 109.847024 70.305981 112.906815C72.545203 115.966619 74.123783 118.331015 75.041725 120.0C77.100138 116.328234 80.744103 111.32128 85.973574 104.979138C80.604993 98.497928 76.961057 93.504868 75.041725 90.0Z" fill="#da0a0a" />
<path d="M143.326087 24.971161Q145.247283 23.886922 145.247283 21.79453Q145.247283 20.69127 144.5625 19.892357T142.660326 19.093443Q141.9375 19.093443 141.423913 19.473878T140.910326 20.120617Q140.910326 20.158661 141.252717 20.405943T141.880435 21.071704T142.165761 22.136922Q142.165761 23.31627 141.157609 23.98203T138.513587 24.647791Q134.442935 24.647791 134.442935 20.120617Q134.442935 18.256487 135.432065 17.134204T138.399457 15.897791H139.807065Q140.07337 15.897791 140.225543 15.66953T140.377717 15.136922Q140.377717 14.79453 140.225543 14.547248T139.807065 14.261922H138.399457Q136.915761 14.109748 136.021739 12.9304T135.127717 10.077139Q135.127717 8.251052 136.154891 7.280943T138.55163 6.310835Q139.845109 6.310835 140.777174 7.052683T141.709239 9.088009Q141.709239 9.924965 141.38587 10.210291T140.758152 10.552683T140.453804 10.647791Q140.453804 10.914096 140.967391 11.29453T142.203804 11.674965Q143.421196 11.674965 144.105978 10.914096T144.790761 8.973878Q144.790761 7.109748 143.040761 6.082574T138.513587 5.0554Q135.546196 5.0554 133.605978 6.348878T131.665761 10.077139Q131.665761 11.674965 132.788043 13.04453T136.002717 14.984748V15.136922Q133.872283 15.365183 132.3125 16.487465T130.752717 20.04453Q130.752717 23.126052 132.997283 24.590726T138.627717 26.0554Q141.404891 26.0554 143.326087 24.971161Z" fill="#da0a0a" />
<path d="M138.021905 31.791667C137.671419 32.49264 136.824408 33.752202 135.480876 35.570352C134.137344 37.388503 133.056669 38.750297 132.238873 39.655714C133.261127 40.824003 134.360048 42.211354 135.53564 43.817745C136.711232 45.424142 137.539986 46.66545 138.021905 47.541667C139.102572 45.613989 141.015654 42.985338 143.761127 39.655714C140.942621 36.253079 139.029555 33.631722 138.021905 31.791667Z" fill="#da0a0a" />
<path d="M6.673913 185.028839Q4.752717 186.113078 4.752717 188.20547Q4.752717 189.30873 5.4375 190.107643T7.339674 190.906557Q8.0625 190.906557 8.576087 190.526122T9.089674 189.879383Q9.089674 189.841339 8.747283 189.594057T8.119565 188.928296T7.834239 187.863078Q7.834239 186.68373 8.842391 186.01797T11.486413 185.352209Q15.557065 185.352209 15.557065 189.879383Q15.557065 191.743513 14.567935 192.865796T11.600543 194.102209H10.192935Q9.92663 194.102209 9.774457 194.33047T9.622283 194.863078Q9.622283 195.20547 9.774457 195.452752T10.192935 195.738078H11.600543Q13.084239 195.890252 13.978261 197.0696T14.872283 199.922861Q14.872283 201.748948 13.845109 202.719057T11.44837 203.689165Q10.154891 203.689165 9.222826 202.947317T8.290761 200.911991Q8.290761 200.075035 8.61413 199.789709T9.241848 199.447317T9.546196 199.352209Q9.546196 199.085904 9.032609 198.70547T7.796196 198.325035Q6.578804 198.325035 5.894022 199.085904T5.209239 201.026122Q5.209239 202.890252 6.959239 203.917426T11.486413 204.9446Q14.453804 204.9446 16.394022 203.651122T18.334239 199.922861Q18.334239 198.325035 17.211957 196.95547T13.997283 195.015252V194.863078Q16.127717 194.634817 17.6875 193.512535T19.247283 189.95547Q19.247283 186.873948 17.002717 185.409274T11.372283 183.9446Q8.595109 183.9446 6.673913 185.028839Z" fill="#da0a0a" />
<path d="M11.978095 178.208333C12.328581 177.50736 13.175592 176.247798 14.519124 174.429648C15.862656 172.611497 16.943331 171.249703 17.761127 170.344286C16.738873 169.175997 15.639952 167.788646 14.46436 166.182255C13.288768 164.575858 12.460014 163.33455 11.978095 162.458333C10.897428 164.386011 8.984346 167.014662 6.238873 170.344286C9.057379 173.746921 10.970445 176.368278 11.978095 178.208333Z" fill="#da0a0a" />
</svg>
