<svg width="25.000000" height="35.000000" id="card-lightheart10">
<rect x="0" y="0" rx="1.25" ry="1.25" width="25" height="35.0" stroke="rgba(1,1,1,0.333)" fill="#fffdfa" />
<path d="M7.493036 4.336119C7.400186 3.992572 7.250464 3.739554 7.043872 3.577066S6.608635 3.333333 6.357939 3.333333C6.074744 3.333333 5.832173 3.430826 5.630223 3.625812S5.327298 4.055246 5.327298 4.329155C5.327298 4.579851 5.388811 4.835191 5.511838 5.095172S5.79039 5.605849 5.978412 5.847261S6.357939 6.331244 6.552925 6.574977S6.934772 7.0961 7.11351 7.407149S7.418756 8.026927 7.493036 8.333333C7.576602 8.012999 7.710075 7.691504 7.893454 7.368849S8.266017 6.760678 8.461003 6.512303C8.655989 6.263927 8.846332 6.020195 9.032033 5.781105S9.370938 5.301764 9.491643 5.060353S9.672702 4.589136 9.672702 4.370938C9.672702 4.078459 9.574048 3.832405 9.376741 3.632776C9.179434 3.433147 8.936861 3.333333 8.649025 3.333333C8.096565 3.333333 7.711233 3.667595 7.493036 4.336119Z" fill="#da0a0a" />
<path d="M7.506964 30.663881C7.599814 31.007428 7.749536 31.260446 7.956128 31.422934S8.391365 31.666667 8.642061 31.666667C8.925256 31.666667 9.167827 31.569174 9.369777 31.374188S9.672702 30.944754 9.672702 30.670845C9.672702 30.420149 9.611189 30.164809 9.488162 29.904828S9.20961 29.394151 9.021588 29.152739S8.642061 28.668756 8.447075 28.425023S8.065228 27.9039 7.88649 27.592851S7.581244 26.973073 7.506964 26.666667C7.423398 26.987001 7.289925 27.308496 7.106546 27.631151S6.733983 28.239322 6.538997 28.487697C6.344011 28.736073 6.153668 28.979805 5.967967 29.218895S5.629062 29.698236 5.508357 29.939647S5.327298 30.410864 5.327298 30.629062C5.327298 30.921541 5.425952 31.167595 5.623259 31.367224C5.820566 31.566853 6.063139 31.666667 6.350975 31.666667C6.903435 31.666667 7.288767 31.332405 7.506964 30.663881Z" fill="#da0a0a" />
<path d="M7.493036 12.113897C7.400186 11.77035 7.250464 11.517332 7.043872 11.354844S6.608635 11.111111 6.357939 11.111111C6.074744 11.111111 5.832173 11.208604 5.630223 11.40359S5.327298 11.833024 5.327298 12.106933C5.327298 12.357629 5.388811 12.612968 5.511838 12.87295S5.79039 13.383627 5.978412 13.625039S6.357939 14.109022 6.552925 14.352755S6.934772 14.873878 7.11351 15.184927S7.418756 15.804704 7.493036 16.111111C7.576602 15.790777 7.710075 15.469282 7.893454 15.146626S8.266017 14.538456 8.461003 14.29008C8.655989 14.041705 8.846332 13.797973 9.032033 13.558883S9.370938 13.079542 9.491643 12.838131S9.672702 12.366914 9.672702 12.148716C9.672702 11.856236 9.574048 11.610183 9.376741 11.410554C9.179434 11.210925 8.936861 11.111111 8.649025 11.111111C8.096565 11.111111 7.711233 11.445373 7.493036 12.113897Z" fill="#da0a0a" />
<path d="M7.506964 22.886103C7.599814 23.22965 7.749536 23.482668 7.956128 23.645156S8.391365 23.888889 8.642061 23.888889C8.925256 23.888889 9.167827 23.791396 9.369777 23.59641S9.672702 23.166976 9.672702 22.893067C9.672702 22.642371 9.611189 22.387032 9.488162 22.12705S9.20961 21.616373 9.021588 21.374961S8.642061 20.890978 8.447075 20.647245S8.065228 20.126122 7.88649 19.815073S7.581244 19.195296 7.506964 18.888889C7.423398 19.209223 7.289925 19.530718 7.106546 19.853374S6.733983 20.461544 6.538997 20.70992C6.344011 20.958295 6.153668 21.202027 5.967967 21.441117S5.629062 21.920458 5.508357 22.161869S5.327298 22.633086 5.327298 22.851284C5.327298 23.143764 5.425952 23.389817 5.623259 23.589446C5.820566 23.789075 6.063139 23.888889 6.350975 23.888889C6.903435 23.888889 7.288767 23.554627 7.506964 22.886103Z" fill="#da0a0a" />
<path d="M17.493036 4.336119C17.400186 3.992572 17.250464 3.739554 17.043872 3.577066S16.608635 3.333333 16.357939 3.333333C16.074744 3.333333 15.832173 3.430826 15.630223 3.625812S15.327298 4.055246 15.327298 4.329155C15.327298 4.579851 15.388811 4.835191 15.511838 5.095172S15.79039 5.605849 15.978412 5.847261S16.357939 6.331244 16.552925 6.574977S16.934772 7.0961 17.11351 7.407149S17.418756 8.026927 17.493036 8.333333C17.576602 8.012999 17.710075 7.691504 17.893454 7.368849S18.266017 6.760678 18.461003 6.512303C18.655989 6.263927 18.846332 6.020195 19.032033 5.781105S19.370938 5.301764 19.491643 5.060353S19.672702 4.589136 19.672702 4.370938C19.672702 4.078459 19.574048 3.832405 19.376741 3.632776C19.179434 3.433147 18.936861 3.333333 18.649025 3.333333C18.096565 3.333333 17.711233 3.667595 17.493036 4.336119Z" fill="#da0a0a" />
<path d="M17.506964 30.663881C17.599814 31.007428 17.749536 31.260446 17.956128 31.422934S18.391365 31.666667 18.642061 31.666667C18.925256 31.666667 19.167827 31.569174 19.369777 31.374188S19.672702 30.944754 19.672702 30.670845C19.672702 30.420149 19.611189 30.164809 19.488162 29.904828S19.20961 29.394151 19.021588 29.152739S18.642061 28.668756 18.447075 28.425023S18.065228 27.9039 17.88649 27.592851S17.581244 26.973073 17.506964 26.666667C17.423398 26.987001 17.289925 27.308496 17.106546 27.631151S16.733983 28.239322 16.538997 28.487697C16.344011 28.736073 16.153668 28.979805 15.967967 29.218895S15.629062 29.698236 15.508357 29.939647S15.327298 30.410864 15.327298 30.629062C15.327298 30.921541 15.425952 31.167595 15.623259 31.367224C15.820566 31.566853 16.063139 31.666667 16.350975 31.666667C16.903435 31.666667 17.288767 31.332405 17.506964 30.663881Z" fill="#da0a0a" />
<path d="M17.493036 12.113897C17.400186 11.77035 17.250464 11.517332 17.043872 11.354844S16.608635 11.111111 16.357939 11.111111C16.074744 11.111111 15.832173 11.208604 15.630223 11.40359S15.327298 11.833024 15.327298 12.106933C15.327298 12.357629 15.388811 12.612968 15.511838 12.87295S15.79039 13.383627 15.978412 13.625039S16.357939 14.109022 16.552925 14.352755S16.934772 14.873878 17.11351 15.184927S17.418756 15.804704 17.493036 16.111111C17.576602 15.790777 17.710075 15.469282 17.893454 15.146626S18.266017 14.538456 18.461003 14.29008C18.655989 14.041705 18.846332 13.797973 19.032033 13.558883S19.370938 13.079542 19.491643 12.838131S19.672702 12.366914 19.672702 12.148716C19.672702 11.856236 19.574048 11.610183 19.376741 11.410554C19.179434 11.210925 18.936861 11.111111 18.649025 11.111111C18.096565 11.111111 17.711233 11.445373 17.493036 12.113897Z" fill="#da0a0a" />
<path d="M17.506964 22.886103C17.599814 23.22965 17.749536 23.482668 17.956128 23.645156S18.391365 23.888889 18.642061 23.888889C18.925256 23.888889 19.167827 23.791396 19.369777 23.59641S19.672702 23.166976 19.672702 22.893067C19.672702 22.642371 19.611189 22.387032 19.488162 22.12705S19.20961 21.616373 19.021588 21.374961S18.642061 20.890978 18.447075 20.647245S18.065228 20.126122 17.88649 19.815073S17.581244 19.195296 17.506964 18.888889C17.423398 19.209223 17.289925 19.530718 17.106546 19.853374S16.733983 20.461544 16.538997 20.70992C16.344011 20.958295 16.153668 21.202027 15.967967 21.441117S15.629062 21.920458 15.508357 22.161869S15.327298 22.633086 15.327298 22.851284C15.327298 23.143764 15.425952 23.389817 15.623259 23.589446C15.820566 23.789075 16.063139 23.888889 16.350975 23.888889C16.903435 23.888889 17.288767 23.554627 17.506964 22.886103Z" fill="#da0a0a" />
<path d="M12.493036 8.225008C12.400186 7.881461 12.250464 7.628443 12.043872 7.465955S11.608635 7.222222 11.357939 7.222222C11.074744 7.222222 10.832173 7.319715 10.630223 7.514701S10.327298 7.944135 10.327298 8.218044C10.327298 8.46874 10.388811 8.724079 10.511838 8.984061S10.79039 9.494738 10.978412 9.73615S11.357939 10.220133 11.552925 10.463866S11.934772 10.984989 12.11351 11.296038S12.418756 11.915816 12.493036 12.222222C12.576602 11.901888 12.710075 11.580393 12.893454 11.257738S13.266017 10.649567 13.461003 10.401192C13.655989 10.152816 13.846332 9.909084 14.032033 9.669994S14.370938 9.190653 14.491643 8.949242S14.672702 8.478025 14.672702 8.259827C14.672702 7.967348 14.574048 7.721294 14.376741 7.521665C14.179434 7.322036 13.936861 7.222222 13.649025 7.222222C13.096565 7.222222 12.711233 7.556484 12.493036 8.225008Z" fill="#da0a0a" />
<path d="M12.506964 26.774992C12.599814 27.118539 12.749536 27.371557 12.956128 27.534045S13.391365 27.777778 13.642061 27.777778C13.925256 27.777778 14.167827 27.680285 14.369777 27.485299S14.672702 27.055865 14.672702 26.781956C14.672702 26.53126 14.611189 26.275921 14.488162 26.015939S14.20961 25.505262 14.021588 25.26385S13.642061 24.779867 13.447075 24.536134S13.065228 24.015011 12.88649 23.703962S12.581244 23.084184 12.506964 22.777778C12.423398 23.098112 12.289925 23.419607 12.106546 23.742262S11.733983 24.350433 11.538997 24.598808C11.344011 24.847184 11.153668 25.090916 10.967967 25.330006S10.629062 25.809347 10.508357 26.050758S10.327298 26.521975 10.327298 26.740173C10.327298 27.032652 10.425952 27.278706 10.623259 27.478335C10.820566 27.677964 11.063139 27.777778 11.350975 27.777778C11.903435 27.777778 12.288767 27.443516 12.506964 26.774992Z" fill="#da0a0a" />
<path d="M24.725597 4.151658Q24.721355 4.075294 24.706506 4.049839T24.657719 4.024385Q24.420146 4.024385 24.32045 3.995748T24.171966 3.846203T24.123179 3.43893V2.115294Q24.118936 1.816203 24.14227 1.685748T24.224996 1.517112T24.420146 1.47893H24.628022Q24.704385 1.47893 24.704385 1.326203Q24.700143 1.230748 24.678931 1.208476T24.625901 1.186203H24.581356Q24.403176 1.186203 24.233481 1.100294T23.864394 0.893476Q23.838939 0.880748 23.82197 0.880748Q23.754092 0.880748 23.754092 1.027112V3.43893Q23.754092 3.71893 23.709547 3.839839T23.569548 3.992567T23.261975 4.024385H23.219552Q23.185612 4.024385 23.170764 4.049839T23.151673 4.151658Q23.151673 4.304385 23.228036 4.304385Q23.533488 4.285294 23.940756 4.285294Q24.343783 4.285294 24.649234 4.304385Q24.725597 4.304385 24.725597 4.151658ZM22.841963 4.100748Q23.06893 3.85893 23.181354 3.458021T23.293777 2.586203Q23.293777 2.10893 23.181354 1.714385T22.841963 1.081203T22.28409 0.842567Q21.970154 0.842567 21.741065 1.084385T21.39319 1.727112T21.274403 2.586203T21.39319 3.445294T21.741065 4.094385T22.28409 4.342567Q22.614996 4.342567 22.841963 4.100748ZM21.83864 3.712567Q21.681672 3.318021 21.681672 2.586203T21.83864 1.466203T22.279847 1.078021Q22.572572 1.078021 22.72954 1.463021T22.886508 2.586203T22.72954 3.715748T22.279847 4.107112Q21.995608 4.107112 21.83864 3.712567Z" fill="#da0a0a" />
<path d="M22.996344 5.825074C22.947598 5.644712 22.868994 5.511877 22.760533 5.426571S22.532033 5.298611 22.400418 5.298611C22.251741 5.298611 22.124391 5.349795 22.018367 5.452163S21.859331 5.677615 21.859331 5.821418C21.859331 5.953033 21.891626 6.087086 21.956215 6.223576S22.102455 6.491682 22.201166 6.618423S22.400418 6.872514 22.502786 7.000474S22.703255 7.274064 22.797093 7.437365S22.957347 7.762748 22.996344 7.923611C23.040216 7.755436 23.110289 7.586651 23.206563 7.417257S23.402159 7.097967 23.504526 6.96757C23.606894 6.837173 23.706824 6.709213 23.804318 6.583691S23.982242 6.332037 24.045613 6.205296S24.140669 5.957908 24.140669 5.843353C24.140669 5.689802 24.088875 5.560624 23.985289 5.455819C23.881703 5.351013 23.754352 5.298611 23.603238 5.298611C23.313197 5.298611 23.110897 5.474099 22.996344 5.825074Z" fill="#da0a0a" />
<path d="M0.274403 30.848342Q0.278645 30.924706 0.293494 30.950161T0.342281 30.975615Q0.579854 30.975615 0.67955 31.004252T0.828034 31.153797T0.876821 31.56107V32.884706Q0.881064 33.183797 0.85773 33.314252T0.775004 33.482888T0.579854 33.52107H0.371978Q0.295615 33.52107 0.295615 33.673797Q0.299857 33.769252 0.321069 33.791524T0.374099 33.813797H0.418644Q0.596824 33.813797 0.766519 33.899706T1.135606 34.106524Q1.161061 34.119252 1.17803 34.119252Q1.245908 34.119252 1.245908 33.972888V31.56107Q1.245908 31.28107 1.290453 31.160161T1.430452 31.007433T1.738025 30.975615H1.780448Q1.814388 30.975615 1.829236 30.950161T1.848327 30.848342Q1.848327 30.695615 1.771964 30.695615Q1.466512 30.714706 1.059244 30.714706Q0.656217 30.714706 0.350766 30.695615Q0.274403 30.695615 0.274403 30.848342ZM2.158037 30.899252Q1.93107 31.14107 1.818646 31.541979T1.706223 32.413797Q1.706223 32.89107 1.818646 33.285615T2.158037 33.918797T2.71591 34.157433Q3.029846 34.157433 3.258935 33.915615T3.60681 33.272888T3.725597 32.413797T3.60681 31.554706T3.258935 30.905615T2.71591 30.657433Q2.385004 30.657433 2.158037 30.899252ZM3.16136 31.287433Q3.318328 31.681979 3.318328 32.413797T3.16136 33.533797T2.720153 33.921979Q2.427428 33.921979 2.27046 33.536979T2.113492 32.413797T2.27046 31.284252T2.720153 30.892888Q3.004392 30.892888 3.16136 31.287433Z" fill="#da0a0a" />
<path d="M2.003656 29.174926C2.052402 29.355288 2.131006 29.488123 2.239467 29.573429S2.467967 29.701389 2.599582 29.701389C2.748259 29.701389 2.875609 29.650205 2.981633 29.547837S3.140669 29.322385 3.140669 29.178582C3.140669 29.046967 3.108374 28.912914 3.043785 28.776424S2.897545 28.508318 2.798834 28.381577S2.599582 28.127486 2.497214 27.999526S2.296745 27.725936 2.202907 27.562635S2.042653 27.237252 2.003656 27.076389C1.959784 27.244564 1.889711 27.413349 1.793437 27.582743S1.597841 27.902033 1.495474 28.03243C1.393106 28.162827 1.293176 28.290787 1.195682 28.416309S1.017758 28.667963 0.954387 28.794704S0.859331 29.042092 0.859331 29.156647C0.859331 29.310198 0.911125 29.439376 1.014711 29.544181C1.118297 29.648987 1.245648 29.701389 1.396762 29.701389C1.686803 29.701389 1.889103 29.525901 2.003656 29.174926Z" fill="#da0a0a" />
</svg>
