<svg width="150.000000" height="210.000000" id="card-webdiamond5">
<radialGradient id="card-webwhitegradient" cx="75.0" cy="105.0" r="150" gradientTransform="matrix(1 0 0 1 0 -.25)" gradientUnits="userSpaceOnUse">
<stop stop-color="#FDFAF4" offset=".15"/>
<stop stop-color="#FDF9F2" offset=".35"/>
<stop stop-color="#FCF7F1" offset=".5"/>
<stop stop-color="#FDFDF8" offset=".75"/>
<stop stop-color="#FFFDFA" offset="1"/>
</radialGradient>
<rect x="0" y="0" rx="7.5" ry="7.5" width="150" height="210.0" stroke="rgba(1,1,1,0.333)" fill="url(#card-webwhitegradient)" />
<path d="M45.041725 20.0C44.374131 21.335188 42.760777 23.734353 40.201669 27.197497C37.642561 30.66064 35.584131 33.254534 34.026426 34.979138C35.973576 37.204449 38.066758 39.847024 40.305981 42.906815C42.545203 45.966619 44.123783 48.331015 45.041725 50.0C47.100138 46.328234 50.744103 41.32128 55.973574 34.979138C50.604993 28.497928 46.961057 23.504868 45.041725 20.0Z" fill="#da0a0a" />
<path d="M44.958275 190.0C45.625869 188.664812 47.239223 186.265647 49.798331 182.802503C52.357439 179.33936 54.415869 176.745466 55.973574 175.020862C54.026424 172.795551 51.933242 170.152976 49.694019 167.093185C47.454797 164.033381 45.876217 161.668985 44.958275 160.0C42.899862 163.671766 39.255897 168.67872 34.026426 175.020862C39.395007 181.502072 43.038943 186.495132 44.958275 190.0Z" fill="#da0a0a" />
<path d="M105.041725 20.0C104.374131 21.335188 102.760777 23.734353 100.201669 27.197497C97.642561 30.66064 95.584131 33.254534 94.026426 34.979138C95.973576 37.204449 98.066758 39.847024 100.305981 42.906815C102.545203 45.966619 104.123783 48.331015 105.041725 50.0C107.100138 46.328234 110.744103 41.32128 115.973574 34.979138C110.604993 28.497928 106.961057 23.504868 105.041725 20.0Z" fill="#da0a0a" />
<path d="M104.958275 190.0C105.625869 188.664812 107.239223 186.265647 109.798331 182.802503C112.357439 179.33936 114.415869 176.745466 115.973574 175.020862C114.026424 172.795551 111.933242 170.152976 109.694019 167.093185C107.454797 164.033381 105.876217 161.668985 104.958275 160.0C102.899862 163.671766 99.255897 168.67872 94.026426 175.020862C99.395007 181.502072 103.038943 186.495132 104.958275 190.0Z" fill="#da0a0a" />
<path d="M75.041725 90.0C74.374131 91.335188 72.760777 93.734353 70.201669 97.197497C67.642561 100.66064 65.584131 103.254534 64.026426 104.979138C65.973576 107.204449 68.066758 109.847024 70.305981 112.906815C72.545203 115.966619 74.123783 118.331015 75.041725 120.0C77.100138 116.328234 80.744103 111.32128 85.973574 104.979138C80.604993 98.497928 76.961057 93.504868 75.041725 90.0Z" fill="#da0a0a" />
<path d="M143.483333 25.0054Q145.388889 23.9554 145.388889 21.738733Q145.388889 20.533178 144.669444 19.619289T142.744444 18.7054Q142.005556 18.7054 141.480556 19.094289T140.955556 19.7554Q140.955556 19.794289 141.305556 20.1054T141.947222 20.863733T142.238889 21.894289Q142.238889 23.216511 141.286111 23.916511T138.622222 24.616511Q136.483333 24.616511 135.413889 23.099844T134.344444 19.133178Q134.344444 16.877622 135.433333 15.3804T138.816667 13.883178Q139.866667 13.883178 140.625 14.213733T142.238889 15.166511Q142.744444 15.516511 143.075 15.691511T143.716667 15.866511Q144.338889 15.866511 144.338889 14.777622L144.3 14.310956L143.094444 5.0554H132.4Q131.855556 5.0554 131.525 5.4054T131.194444 6.377622Q131.194444 7.816511 132.672222 7.816511H141.305556L142.122222 13.222067Q140.411111 12.172067 137.922222 12.172067Q136.25 12.172067 134.558333 12.910956T131.738889 15.166511T130.611111 18.938733T131.719444 22.808178T134.675 25.238733T138.7 26.0554Q141.577778 26.0554 143.483333 25.0054Z" fill="#da0a0a" />
<path d="M138.021905 31.791667C137.671419 32.49264 136.824408 33.752202 135.480876 35.570352C134.137344 37.388503 133.056669 38.750297 132.238873 39.655714C133.261127 40.824003 134.360048 42.211354 135.53564 43.817745C136.711232 45.424142 137.539986 46.66545 138.021905 47.541667C139.102572 45.613989 141.015654 42.985338 143.761127 39.655714C140.942621 36.253079 139.029555 33.631722 138.021905 31.791667Z" fill="#da0a0a" />
<path d="M6.516667 184.9946Q4.611111 186.0446 4.611111 188.261267Q4.611111 189.466822 5.330556 190.380711T7.255556 191.2946Q7.994444 191.2946 8.519444 190.905711T9.044444 190.2446Q9.044444 190.205711 8.694444 189.8946T8.052778 189.136267T7.761111 188.105711Q7.761111 186.783489 8.713889 186.083489T11.377778 185.383489Q13.516667 185.383489 14.586111 186.900156T15.655556 190.866822Q15.655556 193.122378 14.566667 194.6196T11.183333 196.116822Q10.133333 196.116822 9.375 195.786267T7.761111 194.833489Q7.255556 194.483489 6.925 194.308489T6.283333 194.133489Q5.661111 194.133489 5.661111 195.222378L5.7 195.689044L6.905556 204.9446H17.6Q18.144444 204.9446 18.475 204.5946T18.805556 203.622378Q18.805556 202.183489 17.327778 202.183489H8.694444L7.877778 196.777933Q9.588889 197.827933 12.077778 197.827933Q13.75 197.827933 15.441667 197.089044T18.261111 194.833489T19.388889 191.061267T18.280556 187.191822T15.325 184.761267T11.3 183.9446Q8.422222 183.9446 6.516667 184.9946Z" fill="#da0a0a" />
<path d="M11.978095 178.208333C12.328581 177.50736 13.175592 176.247798 14.519124 174.429648C15.862656 172.611497 16.943331 171.249703 17.761127 170.344286C16.738873 169.175997 15.639952 167.788646 14.46436 166.182255C13.288768 164.575858 12.460014 163.33455 11.978095 162.458333C10.897428 164.386011 8.984346 167.014662 6.238873 170.344286C9.057379 173.746921 10.970445 176.368278 11.978095 178.208333Z" fill="#da0a0a" />
</svg>
