<svg width="150.000000" height="210.000000" id="card-webheart1">
<radialGradient id="card-webwhitegradient" cx="75.0" cy="105.0" r="150" gradientTransform="matrix(1 0 0 1 0 -.25)" gradientUnits="userSpaceOnUse">
<stop stop-color="#FDFAF4" offset=".15"/>
<stop stop-color="#FDF9F2" offset=".35"/>
<stop stop-color="#FCF7F1" offset=".5"/>
<stop stop-color="#FDFDF8" offset=".75"/>
<stop stop-color="#FFFDFA" offset="1"/>
</radialGradient>
<rect x="0" y="0" rx="7.5" ry="7.5" width="150" height="210.0" stroke="rgba(1,1,1,0.333)" fill="url(#card-webwhitegradient)" />
<path d="M99.693593 86.866295C99.693593 87.980499 99.331477 88.997214 98.607242 89.916435S97.520891 91.37883 97.520891 91.545961C97.520891 92.214485 97.896936 92.869078 98.649025 93.509749S100.167134 94.470752 100.947075 94.470752C101.78273 94.470752 102.479106 94.13649 103.036212 93.467967S103.871866 91.991641 103.871866 91.044568C103.871866 87.70195 102.298053 84.428967 99.150418 81.225627C96.002783 78.022287 92.785513 76.420613 89.498607 76.420613C86.545964 76.420613 83.25905 77.924791 79.637883 80.933148V78.342618C77.74373 76.22563 75.849585 75.167131 73.955432 75.167131C71.949861 75.167131 70.264621 75.974931 68.899721 77.590529S66.852368 81.211696 66.852368 83.607242C66.852368 84.721446 67.103064 86.309189 67.604457 88.370474C64.651813 90.320331 61.782727 91.295265 58.997214 91.295265C57.381618 91.295265 55.974928 90.738161 54.777159 89.623955S52.980501 87.200557 52.980501 85.696379C52.980501 84.303618 53.454039 83.286911 54.401114 82.64624S55.821727 81.323123 55.821727 80.598886C55.821727 78.98329 55.376045 77.646242 54.48468 76.587744S52.479109 75.0 51.142061 75.0C49.693596 75.0 48.495819 75.515321 47.548747 76.545961S46.128134 78.871864 46.128134 80.431755C46.128134 83.941504 47.938721 86.894148 51.559889 89.289694C55.181056 91.68524 58.746518 92.883008 62.256267 92.883008C63.537602 92.883008 65.571033 92.270195 68.356546 91.044568C69.08078 92.883008 70.779944 96.504175 73.454039 101.908078C73.62117 101.072423 73.704735 100.515318 73.704735 100.236769C73.704735 99.846796 73.690808 99.582173 73.662953 99.442897S73.537604 99.02507 73.370474 98.607242S73.008357 97.757657 72.785515 97.311978S72.186629 96.002783 71.657382 94.721448S70.529248 91.991641 69.860724 90.376045C70.696379 89.986072 72.743733 88.760448 76.002786 86.699164S82.33983 82.869084 85.236769 81.392758C88.133708 79.916432 90.334262 79.178273 91.83844 79.178273C93.955429 79.178273 95.793869 79.94429 97.35376 81.476323C98.913652 83.008354 99.693593 84.805011 99.693593 86.866295ZM69.108635 87.618384C68.718663 86.281337 68.523677 85.194986 68.523677 84.359331C68.523677 82.632309 69.02507 81.114209 70.027855 79.805014S72.172705 77.841226 73.454039 77.841226C74.178273 77.841226 74.818939 78.133705 75.376045 78.718663S76.211699 79.986075 76.211699 80.766017C76.211699 81.991646 75.45961 83.272981 73.955432 84.610028S70.835657 86.949861 69.108635 87.618384ZM73.62117 104.331476C70.612813 99.094705 66.935933 96.476323 62.590529 96.476323C60.027852 96.476323 57.827298 97.506961 55.988858 99.568245S53.231198 104.108632 53.231198 107.005571C53.231198 109.233986 53.732591 111.225627 54.735376 112.980501S56.977713 116.128136 58.454039 117.158774S61.532031 119.192198 63.259053 120.167131C64.986075 121.142064 66.587741 121.977719 68.064067 122.674095C69.540393 123.370473 70.779944 124.220056 71.78273 125.222841S73.286908 127.311978 73.286908 128.481894C73.286908 129.763228 72.799443 130.835657 71.824513 131.699164S69.665741 132.994429 68.272981 132.994429C64.540387 132.994429 62.311981 130.431752 61.587744 125.306407C61.03064 124.582172 60.278549 124.220056 59.331476 124.220056C58.272978 124.220056 57.409471 124.512535 56.740947 125.097493S55.738162 126.448471 55.738162 127.395543C55.738162 129.456827 57.075209 131.239554 59.749304 132.743733S65.543173 135.0 69.108635 135.0C75.961003 135.0 81.935933 132.465184 87.033426 127.395543C92.130919 122.325903 94.679666 116.364903 94.679666 109.512535C94.679666 105.111418 93.607245 101.47632 91.462396 98.607242S86.601669 94.303621 83.314763 94.303621C77.855156 94.303621 75.125348 97.451256 75.125348 103.746518Z" fill="#da0a0a" />
<path d="M148.359165 25.366875Q148.5 25.163448 148.5 24.881779Q148.468703 24.41233 148.312221 24.31844T147.936662 24.224551H147.654993Q146.716095 24.224551 146.277943 23.739454T145.57377 22.644074T145.21386 21.814714L139.73696 8.857934Q139.54918 8.388485 139.54918 8.106816Q139.54918 7.543477 139.987332 7.293105T141.207899 6.886249Q141.73994 6.79236 141.865127 6.69847T141.990313 6.166428Q141.990313 5.790869 141.786885 5.665683T141.145306 5.540497Q139.580477 5.540497 138.657228 5.775221T137.045455 6.714118T135.762295 8.857934L130.504471 21.814714Q130.035022 23.003984 129.59687 23.598619T128.282414 24.224551H128.094635Q127.781669 24.224551 127.656483 24.334089T127.5 24.881779Q127.5 25.163448 127.640835 25.366875T128.063338 25.570303Q130.066319 25.476413 131.505961 25.476413Q133.383756 25.476413 135.386736 25.570303Q135.668405 25.570303 135.80924 25.366875T135.950075 24.881779Q135.918778 24.443627 135.793592 24.334089T135.35544 24.224551Q134.291356 24.224551 133.853204 24.021123T133.415052 23.285653Q133.415052 22.878798 133.790611 21.814714L134.854694 19.217099H142.584948Q143.367362 21.157486 143.4769 21.470452T143.586438 21.814714Q143.961997 23.003984 143.961997 23.348246Q143.961997 23.880288 143.492548 24.052419T141.708644 24.224551H141.520864Q141.207899 24.224551 141.082712 24.334089T140.92623 24.881779Q140.92623 25.163448 141.067064 25.366875T141.489568 25.570303Q143.492548 25.476413 144.900894 25.476413Q145.902385 25.476413 147.936662 25.570303Q148.218331 25.570303 148.359165 25.366875ZM141.990313 17.871346H135.418033L138.578987 9.828127H138.672876Z" fill="#da0a0a" />
<path d="M137.978064 34.950441C137.685586 33.868269 137.213963 33.071262 136.563196 32.559424S135.192201 31.791667 134.402507 31.791667C133.510445 31.791667 132.746344 32.09877 132.110202 32.712976S131.155989 34.065692 131.155989 34.928505C131.155989 35.718199 131.349756 36.522517 131.737291 37.341458S132.614728 38.950092 133.206999 39.710539S134.402507 41.235086 135.016713 42.002844S136.219533 43.644382 136.782556 44.624188S137.74408 46.576486 137.978064 47.541667C138.241295 46.532614 138.661735 45.519904 139.23938 44.50354S140.412953 42.587802 141.027159 41.80542C141.641365 41.023038 142.240946 40.25528 142.825905 39.502147S143.893455 37.992225 144.273677 37.231778S144.844011 35.747446 144.844011 35.060121C144.844011 34.138812 144.533251 33.363743 143.911734 32.734912C143.290217 32.106081 142.526113 31.791667 141.619429 31.791667C139.879179 31.791667 138.665383 32.844591 137.978064 34.950441Z" fill="#da0a0a" />
<path d="M1.640835 184.633125Q1.5 184.836552 1.5 185.118221Q1.531297 185.58767 1.687779 185.68156T2.063338 185.775449H2.345007Q3.283905 185.775449 3.722057 186.260546T4.42623 187.355926T4.78614 188.185286L10.26304 201.142066Q10.45082 201.611515 10.45082 201.893184Q10.45082 202.456523 10.012668 202.706895T8.792101 203.113751Q8.26006 203.20764 8.134873 203.30153T8.009687 203.833572Q8.009687 204.209131 8.213115 204.334317T8.854694 204.459503Q10.419523 204.459503 11.342772 204.224779T12.954545 203.285882T14.237705 201.142066L19.495529 188.185286Q19.964978 186.996016 20.40313 186.401381T21.717586 185.775449H21.905365Q22.218331 185.775449 22.343517 185.665911T22.5 185.118221Q22.5 184.836552 22.359165 184.633125T21.936662 184.429697Q19.933681 184.523587 18.494039 184.523587Q16.616244 184.523587 14.613264 184.429697Q14.331595 184.429697 14.19076 184.633125T14.049925 185.118221Q14.081222 185.556373 14.206408 185.665911T14.64456 185.775449Q15.708644 185.775449 16.146796 185.978877T16.584948 186.714347Q16.584948 187.121202 16.209389 188.185286L15.145306 190.782901H7.415052Q6.632638 188.842514 6.5231 188.529548T6.413562 188.185286Q6.038003 186.996016 6.038003 186.651754Q6.038003 186.119712 6.507452 185.947581T8.291356 185.775449H8.479136Q8.792101 185.775449 8.917288 185.665911T9.07377 185.118221Q9.07377 184.836552 8.932936 184.633125T8.510432 184.429697Q6.507452 184.523587 5.099106 184.523587Q4.097615 184.523587 2.063338 184.429697Q1.781669 184.429697 1.640835 184.633125ZM8.009687 192.128654H14.581967L11.421013 200.171873H11.327124Z" fill="#da0a0a" />
<path d="M12.021936 175.049559C12.314414 176.131731 12.786037 176.928738 13.436804 177.440576S14.807799 178.208333 15.597493 178.208333C16.489555 178.208333 17.253656 177.90123 17.889798 177.287024S18.844011 175.934308 18.844011 175.071495C18.844011 174.281801 18.650244 173.477483 18.262709 172.658542S17.385272 171.049908 16.793001 170.289461S15.597493 168.764914 14.983287 167.997156S13.780467 166.355618 13.217444 165.375812S12.25592 163.423514 12.021936 162.458333C11.758705 163.467386 11.338265 164.480096 10.76062 165.49646S9.587047 167.412198 8.972841 168.19458C8.358635 168.976962 7.759054 169.74472 7.174095 170.497853S6.106545 172.007775 5.726323 172.768222S5.155989 174.252554 5.155989 174.939879C5.155989 175.861188 5.466749 176.636257 6.088266 177.265088C6.709783 177.893919 7.473887 178.208333 8.380571 178.208333C10.120821 178.208333 11.334617 177.155409 12.021936 175.049559Z" fill="#da0a0a" />
</svg>
