<svg width="25.000000" height="35.000000" id="card-lightspade2">
<rect x="0" y="0" rx="1.25" ry="1.25" width="25" height="35.0" stroke="rgba(1,1,1,0.333)" fill="#fffdfa" />
<path d="M12.382979 6.64539C12.359338 6.891253 12.300236 7.108747 12.205674 7.297872C12.111111 7.486998 12.011821 7.631206 11.907801 7.730496S11.672577 7.914894 11.514184 7.985816C11.355792 8.056738 11.234043 8.102837 11.148936 8.124113S10.959811 8.165485 10.836879 8.184397C10.817967 8.189125 10.803782 8.191489 10.794326 8.191489V8.333333H14.205674V8.191489C13.803782 8.120567 13.498818 8.016548 13.29078 7.879433C12.893617 7.614657 12.66903 7.20331 12.617021 6.64539C12.862884 7.02364 13.179669 7.212766 13.567376 7.212766C13.817967 7.212766 14.031915 7.125296 14.20922 6.950355S14.475177 6.562648 14.475177 6.312057C14.475177 6.099291 14.423168 5.905438 14.319149 5.730496C14.21513 5.555555 14.080378 5.395981 13.914894 5.251773S13.579196 4.957447 13.404255 4.801418C13.229314 4.64539 13.056738 4.440899 12.886525 4.187943S12.586289 3.650118 12.496454 3.333333C12.416076 3.64539 12.291962 3.926714 12.124113 4.177305S11.783688 4.631206 11.606383 4.787234S11.257683 5.094562 11.092199 5.241135S10.79078 5.548463 10.684397 5.723404S10.524823 6.094562 10.524823 6.312057C10.524823 6.562648 10.613475 6.775413 10.79078 6.950355S11.182033 7.212766 11.432624 7.212766C11.820331 7.212766 12.137116 7.02364 12.382979 6.64539Z" fill="#010101" />
<path d="M12.617021 28.35461C12.640662 28.108747 12.699764 27.891253 12.794326 27.702128C12.888889 27.513002 12.988179 27.368794 13.092199 27.269504S13.327423 27.085106 13.485816 27.014184C13.644208 26.943262 13.765957 26.897163 13.851064 26.875887S14.040189 26.834515 14.163121 26.815603C14.182033 26.810875 14.196218 26.808511 14.205674 26.808511V26.666667H10.794326V26.808511C11.196218 26.879433 11.501182 26.983452 11.70922 27.120567C12.106383 27.385343 12.33097 27.79669 12.382979 28.35461C12.137116 27.97636 11.820331 27.787234 11.432624 27.787234C11.182033 27.787234 10.968085 27.874704 10.79078 28.049645S10.524823 28.437352 10.524823 28.687943C10.524823 28.900709 10.576832 29.094562 10.680851 29.269504C10.78487 29.444445 10.919622 29.604019 11.085106 29.748227S11.420804 30.042553 11.595745 30.198582C11.770686 30.35461 11.943262 30.559101 12.113475 30.812057S12.413711 31.349882 12.503546 31.666667C12.583924 31.35461 12.708038 31.073286 12.875887 30.822695S13.216312 30.368794 13.393617 30.212766S13.742317 29.905438 13.907801 29.758865S14.20922 29.451537 14.315603 29.276596S14.475177 28.905438 14.475177 28.687943C14.475177 28.437352 14.386525 28.224587 14.20922 28.049645S13.817967 27.787234 13.567376 27.787234C13.179669 27.787234 12.862884 27.97636 12.617021 28.35461Z" fill="#010101" />
<path d="M24.337264 4.104831Q24.33066 3.966152 24.261321 3.880303T24.033491 3.688793Q23.511792 3.338793 23.224528 3.110963T22.706132 2.533133T22.475 1.747284Q22.475 1.430303 22.643396 1.255303T23.115566 1.080303Q23.373113 1.080303 23.541509 1.209076T23.709906 1.562378Q23.709906 1.674642 23.657075 1.750586T23.548113 1.872755T23.491981 1.925586Q23.491981 1.971812 23.581132 2.03785T23.795755 2.103887Q24.000472 2.103887 24.122642 1.975114T24.244811 1.648227Q24.244811 1.384076 24.066509 1.19917T23.614151 0.928416T23.056132 0.842567Q22.560849 0.842567 22.200943 1.086906T21.841038 1.833133Q21.841038 2.19634 22.039151 2.49351T22.511321 2.998699T23.22783 3.49068Q23.57783 3.708604 23.749528 3.84068V3.873699H21.979717Q21.814623 3.873699 21.738679 3.910019T21.662736 4.104831Q21.662736 4.342567 21.893868 4.342567H24.106132Q24.337264 4.342567 24.337264 4.104831Z" fill="#010101" />
<path d="M22.938564 7.037441C22.926152 7.166519 22.895124 7.280703 22.845479 7.379994C22.795833 7.479285 22.743706 7.554994 22.689096 7.607122S22.565603 7.70393 22.482447 7.741164C22.399291 7.778398 22.335372 7.8026 22.290691 7.813771S22.191401 7.835491 22.126862 7.84542C22.116933 7.847902 22.109486 7.849143 22.104521 7.849143V7.923611H23.895479V7.849143C23.684486 7.811909 23.524379 7.757299 23.41516 7.685313C23.206649 7.546306 23.088741 7.330349 23.061436 7.037441C23.190514 7.236022 23.356826 7.335313 23.560372 7.335313C23.691933 7.335313 23.804255 7.289391 23.89734 7.197547S24.036968 6.994001 24.036968 6.862441C24.036968 6.750739 24.009663 6.648966 23.955053 6.557122C23.900443 6.465278 23.829698 6.381501 23.742819 6.305792S23.566578 6.151271 23.474734 6.069356C23.38289 5.987441 23.292287 5.880083 23.202926 5.747281S23.045302 5.464923 22.998138 5.298611C22.95594 5.462441 22.89078 5.610136 22.80266 5.741696S22.623936 5.979994 22.530851 6.061909S22.347784 6.223256 22.260904 6.300207S22.10266 6.461554 22.046809 6.553398S21.963032 6.748256 21.963032 6.862441C21.963032 6.994001 22.009574 7.105703 22.10266 7.197547S22.308067 7.335313 22.439628 7.335313C22.643174 7.335313 22.809486 7.236022 22.938564 7.037441Z" fill="#010101" />
<path d="M0.662736 30.895169Q0.66934 31.033848 0.738679 31.119697T0.966509 31.311207Q1.488208 31.661207 1.775472 31.889037T2.293868 32.466867T2.525 33.252716Q2.525 33.569697 2.356604 33.744697T1.884434 33.919697Q1.626887 33.919697 1.458491 33.790924T1.290094 33.437622Q1.290094 33.325358 1.342925 33.249414T1.451887 33.127245T1.508019 33.074414Q1.508019 33.028188 1.418868 32.96215T1.204245 32.896113Q0.999528 32.896113 0.877358 33.024886T0.755189 33.351773Q0.755189 33.615924 0.933491 33.80083T1.385849 34.071584T1.943868 34.157433Q2.439151 34.157433 2.799057 33.913094T3.158962 33.166867Q3.158962 32.80366 2.960849 32.50649T2.488679 32.001301T1.77217 31.50932Q1.42217 31.291396 1.250472 31.15932V31.126301H3.020283Q3.185377 31.126301 3.261321 31.089981T3.337264 30.895169Q3.337264 30.657433 3.106132 30.657433H0.893868Q0.662736 30.657433 0.662736 30.895169Z" fill="#010101" />
<path d="M2.061436 27.962559C2.073848 27.833481 2.104876 27.719297 2.154521 27.620006C2.204167 27.520715 2.256294 27.445006 2.310904 27.392878S2.434397 27.29607 2.517553 27.258836C2.600709 27.221602 2.664628 27.1974 2.709309 27.186229S2.808599 27.164509 2.873138 27.15458C2.883067 27.152098 2.890514 27.150857 2.895479 27.150857V27.076389H1.104521V27.150857C1.315514 27.188091 1.475621 27.242701 1.58484 27.314687C1.793351 27.453694 1.911259 27.669651 1.938564 27.962559C1.809486 27.763978 1.643174 27.664687 1.439628 27.664687C1.308067 27.664687 1.195745 27.710609 1.10266 27.802453S0.963032 28.005999 0.963032 28.137559C0.963032 28.249261 0.990337 28.351034 1.044947 28.442878C1.099557 28.534722 1.170302 28.618499 1.257181 28.694208S1.433422 28.848729 1.525266 28.930644C1.61711 29.012559 1.707713 29.119917 1.797074 29.252719S1.954698 29.535077 2.001862 29.701389C2.04406 29.537559 2.10922 29.389864 2.19734 29.258304S2.376064 29.020006 2.469149 28.938091S2.652216 28.776744 2.739096 28.699793S2.89734 28.538446 2.953191 28.446602S3.036968 28.251744 3.036968 28.137559C3.036968 28.005999 2.990426 27.894297 2.89734 27.802453S2.691933 27.664687 2.560372 27.664687C2.356826 27.664687 2.190514 27.763978 2.061436 27.962559Z" fill="#010101" />
</svg>
