<svg width="25.000000" height="35.000000" id="card-lightclub2">
<rect x="0" y="0" rx="1.25" ry="1.25" width="25" height="35.0" stroke="rgba(1,1,1,0.333)" fill="#fffdfa" />
<path d="M12.40085 6.254721C12.396128 6.396364 12.390227 6.51086 12.383144 6.598206C12.376062 6.685552 12.358357 6.796506 12.330028 6.931067S12.267469 7.176582 12.227337 7.263928S12.127006 7.449245 12.046742 7.557838S11.872049 7.756138 11.763456 7.826959S11.517941 7.966242 11.352691 8.032342S10.998584 8.150378 10.786119 8.188149V8.329792H14.213881V8.188149C14.001416 8.150378 13.812559 8.097262 13.647309 8.028801S13.343957 7.890699 13.233003 7.819877S13.02762 7.658168 12.949717 7.547214S12.811615 7.338291 12.769122 7.253305S12.692399 7.057365 12.666431 6.920444S12.623938 6.673749 12.616856 6.591124C12.609773 6.508498 12.603872 6.396364 12.59915 6.254721C12.712465 6.462464 12.804533 6.608829 12.875354 6.693815C13.002833 6.854344 13.159821 6.981823 13.346317 7.076251C13.532814 7.17068 13.71577 7.217894 13.895184 7.217894C14.197356 7.217894 14.457035 7.10576 14.674221 6.881492S15.0 6.386922 15.0 6.070585C15.0 5.763692 14.90203 5.501653 14.706091 5.284466S14.272899 4.958687 13.994334 4.958687C13.899906 4.958687 13.812559 4.971671 13.732295 4.997639S13.571766 5.056657 13.491501 5.096789L13.342776 5.171152C13.526912 4.906752 13.61898 4.656515 13.61898 4.420444C13.61898 4.122993 13.509207 3.868036 13.28966 3.655571S12.806893 3.336874 12.5 3.336874S11.929887 3.443107 11.71034 3.655571S11.38102 4.122993 11.38102 4.420444C11.38102 4.656515 11.473088 4.906752 11.657224 5.171152C11.624174 5.156988 11.57814 5.135741 11.519122 5.107413S11.416431 5.057838 11.388102 5.043673S11.323182 5.015345 11.278329 5.00118S11.189802 4.976393 11.147309 4.969311S11.057601 4.958687 11.005666 4.958687C10.727101 4.958687 10.489849 5.06728 10.293909 5.284466S10.0 5.763692 10.0 6.070585C10.0 6.386922 10.108593 6.657224 10.325779 6.881492S10.802644 7.217894 11.104816 7.217894C11.624174 7.217894 12.056183 6.896837 12.40085 6.254721Z" fill="#010101" />
<path d="M12.59915 28.745279C12.603872 28.603636 12.609773 28.48914 12.616856 28.401794C12.623938 28.314448 12.641643 28.203494 12.669972 28.068933S12.732531 27.823418 12.772663 27.736072S12.872994 27.550755 12.953258 27.442162S13.127951 27.243862 13.236544 27.173041S13.482059 27.033758 13.647309 26.967658S14.001416 26.849622 14.213881 26.811851V26.670208H10.786119V26.811851C10.998584 26.849622 11.187441 26.902738 11.352691 26.971199S11.656043 27.109301 11.766997 27.180123S11.97238 27.341832 12.050283 27.452786S12.188385 27.661709 12.230878 27.746695S12.307601 27.942635 12.333569 28.079556S12.376062 28.326251 12.383144 28.408876C12.390227 28.491502 12.396128 28.603636 12.40085 28.745279C12.287535 28.537536 12.195467 28.391171 12.124646 28.306185C11.997167 28.145656 11.840179 28.018177 11.653683 27.923749C11.467186 27.82932 11.28423 27.782106 11.104816 27.782106C10.802644 27.782106 10.542965 27.89424 10.325779 28.118508S10.0 28.613078 10.0 28.929415C10.0 29.236308 10.09797 29.498347 10.293909 29.715534S10.727101 30.041313 11.005666 30.041313C11.100094 30.041313 11.187441 30.028329 11.267705 30.002361S11.428234 29.943343 11.508499 29.903211L11.657224 29.828848C11.473088 30.093248 11.38102 30.343485 11.38102 30.579556C11.38102 30.877007 11.490793 31.131964 11.71034 31.344429S12.193107 31.663126 12.5 31.663126S13.070113 31.556893 13.28966 31.344429S13.61898 30.877007 13.61898 30.579556C13.61898 30.343485 13.526912 30.093248 13.342776 29.828848C13.375826 29.843012 13.42186 29.864259 13.480878 29.892587S13.583569 29.942162 13.611898 29.956327S13.676818 29.984655 13.721671 29.99882S13.810198 30.023607 13.852691 30.030689S13.942399 30.041313 13.994334 30.041313C14.272899 30.041313 14.510151 29.93272 14.706091 29.715534S15.0 29.236308 15.0 28.929415C15.0 28.613078 14.891407 28.342776 14.674221 28.118508S14.197356 27.782106 13.895184 27.782106C13.375826 27.782106 12.943817 28.103163 12.59915 28.745279Z" fill="#010101" />
<path d="M24.337264 4.104831Q24.33066 3.966152 24.261321 3.880303T24.033491 3.688793Q23.511792 3.338793 23.224528 3.110963T22.706132 2.533133T22.475 1.747284Q22.475 1.430303 22.643396 1.255303T23.115566 1.080303Q23.373113 1.080303 23.541509 1.209076T23.709906 1.562378Q23.709906 1.674642 23.657075 1.750586T23.548113 1.872755T23.491981 1.925586Q23.491981 1.971812 23.581132 2.03785T23.795755 2.103887Q24.000472 2.103887 24.122642 1.975114T24.244811 1.648227Q24.244811 1.384076 24.066509 1.19917T23.614151 0.928416T23.056132 0.842567Q22.560849 0.842567 22.200943 1.086906T21.841038 1.833133Q21.841038 2.19634 22.039151 2.49351T22.511321 2.998699T23.22783 3.49068Q23.57783 3.708604 23.749528 3.84068V3.873699H21.979717Q21.814623 3.873699 21.738679 3.910019T21.662736 4.104831Q21.662736 4.342567 21.893868 4.342567H24.106132Q24.337264 4.342567 24.337264 4.104831Z" fill="#010101" />
<path d="M22.947946 6.83234C22.945467 6.906702 22.942369 6.966812 22.938651 7.012669C22.934933 7.058526 22.925637 7.116777 22.910765 7.187421S22.877921 7.316317 22.856852 7.362173S22.804178 7.459465 22.76204 7.516476S22.670326 7.620583 22.613314 7.657765S22.484419 7.730888 22.397663 7.765591S22.211756 7.82756 22.100212 7.847389V7.921752H23.899788V7.847389C23.788244 7.827559 23.689093 7.799674 23.602337 7.763732S23.443077 7.691228 23.384826 7.654047S23.277001 7.569149 23.236101 7.510899S23.163598 7.401214 23.141289 7.356596S23.101009 7.253728 23.087376 7.181844S23.065067 7.052329 23.061349 7.008951C23.057631 6.965573 23.054533 6.906702 23.052054 6.83234C23.111544 6.941405 23.15988 7.018246 23.197061 7.062864C23.263987 7.147142 23.346406 7.214068 23.444317 7.263643C23.542227 7.313218 23.638279 7.338006 23.732472 7.338006C23.891112 7.338006 24.027443 7.279135 24.141466 7.161394S24.3125 6.901745 24.3125 6.735668C24.3125 6.57455 24.261066 6.436979 24.158198 6.322956S23.930772 6.151922 23.784525 6.151922C23.734951 6.151922 23.689093 6.158739 23.646955 6.172372S23.562677 6.203356 23.520538 6.224426L23.442458 6.263466C23.539129 6.124656 23.587465 5.993282 23.587465 5.869344C23.587465 5.713183 23.529834 5.57933 23.414572 5.467786S23.161119 5.30047 23.0 5.30047S22.700691 5.356242 22.585428 5.467786S22.412535 5.713183 22.412535 5.869344C22.412535 5.993282 22.460871 6.124656 22.557542 6.263466C22.540191 6.25603 22.516023 6.244875 22.485039 6.230003S22.431126 6.203976 22.416254 6.19654S22.382171 6.181667 22.358623 6.174231S22.312146 6.161217 22.289837 6.157499S22.242741 6.151922 22.215475 6.151922C22.069228 6.151922 21.944671 6.208933 21.841802 6.322956S21.6875 6.57455 21.6875 6.735668C21.6875 6.901745 21.744511 7.043653 21.858534 7.161394S22.108888 7.338006 22.267528 7.338006C22.540191 7.338006 22.766996 7.16945 22.947946 6.83234Z" fill="#010101" />
<path d="M0.662736 30.895169Q0.66934 31.033848 0.738679 31.119697T0.966509 31.311207Q1.488208 31.661207 1.775472 31.889037T2.293868 32.466867T2.525 33.252716Q2.525 33.569697 2.356604 33.744697T1.884434 33.919697Q1.626887 33.919697 1.458491 33.790924T1.290094 33.437622Q1.290094 33.325358 1.342925 33.249414T1.451887 33.127245T1.508019 33.074414Q1.508019 33.028188 1.418868 32.96215T1.204245 32.896113Q0.999528 32.896113 0.877358 33.024886T0.755189 33.351773Q0.755189 33.615924 0.933491 33.80083T1.385849 34.071584T1.943868 34.157433Q2.439151 34.157433 2.799057 33.913094T3.158962 33.166867Q3.158962 32.80366 2.960849 32.50649T2.488679 32.001301T1.77217 31.50932Q1.42217 31.291396 1.250472 31.15932V31.126301H3.020283Q3.185377 31.126301 3.261321 31.089981T3.337264 30.895169Q3.337264 30.657433 3.106132 30.657433H0.893868Q0.662736 30.657433 0.662736 30.895169Z" fill="#010101" />
<path d="M2.052054 28.16766C2.054533 28.093298 2.057631 28.033188 2.061349 27.987331C2.065067 27.941474 2.074363 27.883223 2.089235 27.812579S2.122079 27.683683 2.143148 27.637827S2.195822 27.540535 2.23796 27.483524S2.329674 27.379417 2.386686 27.342235S2.515581 27.269112 2.602337 27.234409S2.788244 27.17244 2.899788 27.152611V27.078248H1.100212V27.152611C1.211756 27.172441 1.310907 27.200326 1.397663 27.236268S1.556923 27.308772 1.615174 27.345953S1.722999 27.430851 1.763899 27.489101S1.836402 27.598786 1.858711 27.643404S1.898991 27.746272 1.912624 27.818156S1.934933 27.947671 1.938651 27.991049C1.942369 28.034427 1.945467 28.093298 1.947946 28.16766C1.888456 28.058595 1.84012 27.981754 1.802939 27.937136C1.736013 27.852858 1.653594 27.785932 1.555683 27.736357C1.457773 27.686782 1.361721 27.661994 1.267528 27.661994C1.108888 27.661994 0.972557 27.720865 0.858534 27.838606S0.6875 28.098255 0.6875 28.264332C0.6875 28.42545 0.738934 28.563021 0.841802 28.677044S1.069228 28.848078 1.215475 28.848078C1.265049 28.848078 1.310907 28.841261 1.353045 28.827628S1.437323 28.796644 1.479462 28.775574L1.557542 28.736534C1.460871 28.875344 1.412535 29.006718 1.412535 29.130656C1.412535 29.286817 1.470166 29.42067 1.585428 29.532214S1.838881 29.69953 2.0 29.69953S2.299309 29.643758 2.414572 29.532214S2.587465 29.286817 2.587465 29.130656C2.587465 29.006718 2.539129 28.875344 2.442458 28.736534C2.459809 28.74397 2.483977 28.755125 2.514961 28.769997S2.568874 28.796024 2.583746 28.80346S2.617829 28.818333 2.641377 28.825769S2.687854 28.838783 2.710163 28.842501S2.757259 28.848078 2.784525 28.848078C2.930772 28.848078 3.055329 28.791067 3.158198 28.677044S3.3125 28.42545 3.3125 28.264332C3.3125 28.098255 3.255489 27.956347 3.141466 27.838606S2.891112 27.661994 2.732472 27.661994C2.459809 27.661994 2.233004 27.83055 2.052054 28.16766Z" fill="#010101" />
</svg>
