<svg width="500.000000" height="700.000000" id="card-realclub7">
<radialGradient id="card-realwhitegradient" cx="250.0" cy="350.0" r="500" gradientTransform="matrix(1 0 0 1 0 -.25)" gradientUnits="userSpaceOnUse">
<stop stop-color="#FDFAF4" offset=".15"/>
<stop stop-color="#FDF9F2" offset=".35"/>
<stop stop-color="#FCF7F1" offset=".5"/>
<stop stop-color="#FDFDF8" offset=".75"/>
<stop stop-color="#FFFDFA" offset="1"/>
</radialGradient>
<rect x="0" y="0" rx="25.0" ry="25.0" width="500" height="700.0" stroke="rgba(1,1,1,0.333)" fill="url(#card-realwhitegradient)" />
<path d="M148.016997 125.094429C147.922568 127.92729 147.804533 130.217191 147.66289 131.964117C147.521246 133.711043 147.167139 135.930123 146.600567 138.621341S145.349387 143.531638 144.546742 145.278565S142.540127 148.984896 140.934844 151.156752S137.440977 155.122757 135.269122 156.539188S130.358824 159.324839 127.053824 160.646837S119.971671 163.007559 115.72238 163.762984V166.595845H184.27762V163.762984C180.028329 163.007555 176.251176 161.945236 172.946176 160.576015S166.879136 157.813975 164.660057 156.397545S160.552408 153.163366 158.994334 150.944287S156.232295 146.765817 155.382436 145.0661S153.847975 141.147304 153.328612 138.408876S152.478754 133.474981 152.33711 131.822474C152.195467 130.169967 152.077432 127.92729 151.983003 125.094429C154.249292 129.249287 156.090652 132.176582 157.507082 133.876298C160.056657 137.086879 163.196416 139.636454 166.926346 141.525024C170.656275 143.413593 174.315397 144.357885 177.903683 144.357885C183.947125 144.357885 189.140694 142.115208 193.484419 137.629839S200.0 127.738437 200.0 121.411709C200.0 115.273848 198.040609 110.033055 194.121813 105.68933S185.457975 99.173749 179.886686 99.173749C177.998116 99.173749 176.251176 99.433427 174.645892 99.952786S171.435312 101.133144 169.830028 101.935788L166.855524 103.423041C170.538244 98.135038 172.379603 93.130307 172.379603 88.408876C172.379603 82.459868 170.184136 77.360718 165.793201 73.111426S156.137861 66.737488 150.0 66.737488S138.597734 68.862134 134.206799 73.111426S127.620397 82.459868 127.620397 88.408876C127.620397 93.130307 129.461756 98.135038 133.144476 103.423041C132.483475 103.139754 131.56279 102.714825 130.382436 102.148253S128.328612 101.156752 127.76204 100.873466S126.463644 100.306893 125.566572 100.023607S123.796034 99.527856 122.946176 99.386213S121.152025 99.173749 120.113314 99.173749C114.542025 99.173749 109.796983 101.345604 105.878187 105.68933S100.0 115.273848 100.0 121.411709C100.0 127.738437 102.171856 133.144471 106.515581 137.629839S116.052875 144.357885 122.096317 144.357885C132.48347 144.357885 141.123654 137.936737 148.016997 125.094429Z" fill="#010101" />
<path d="M151.983003 574.905571C152.077432 572.07271 152.195467 569.782809 152.33711 568.035883C152.478754 566.288957 152.832861 564.069877 153.399433 561.378659S154.650613 556.468362 155.453258 554.721435S157.459873 551.015104 159.065156 548.843248S162.559023 544.877243 164.730878 543.460812S169.641176 540.675161 172.946176 539.353163S180.028329 536.992441 184.27762 536.237016V533.404155H115.72238V536.237016C119.971671 536.992445 123.748824 538.054764 127.053824 539.423985S133.120864 542.186025 135.339943 543.602455S139.447592 546.836634 141.005666 549.055713S143.767705 553.234183 144.617564 554.9339S146.152025 558.852696 146.671388 561.591124S147.521246 566.525019 147.66289 568.177526C147.804533 569.830033 147.922568 572.07271 148.016997 574.905571C145.750708 570.750713 143.909348 567.823418 142.492918 566.123702C139.943343 562.913121 136.803584 560.363546 133.073654 558.474976C129.343725 556.586407 125.684603 555.642115 122.096317 555.642115C116.052875 555.642115 110.859306 557.884792 106.515581 562.370161S100.0 572.261563 100.0 578.588291C100.0 584.726152 101.959391 589.966945 105.878187 594.31067S114.542025 600.826251 120.113314 600.826251C122.001884 600.826251 123.748824 600.566573 125.354108 600.047214S128.564688 598.866856 130.169972 598.064212L133.144476 596.576959C129.461756 601.864962 127.620397 606.869693 127.620397 611.591124C127.620397 617.540132 129.815864 622.639282 134.206799 626.888574S143.862139 633.262512 150.0 633.262512S161.402266 631.137866 165.793201 626.888574S172.379603 617.540132 172.379603 611.591124C172.379603 606.869693 170.538244 601.864962 166.855524 596.576959C167.516525 596.860246 168.43721 597.285175 169.617564 597.851747S171.671388 598.843248 172.23796 599.126534S173.536356 599.693107 174.433428 599.976393S176.203966 600.472144 177.053824 600.613787S178.847975 600.826251 179.886686 600.826251C185.457975 600.826251 190.203017 598.654396 194.121813 594.31067S200.0 584.726152 200.0 578.588291C200.0 572.261563 197.828144 566.855529 193.484419 562.370161S183.947125 555.642115 177.903683 555.642115C167.51653 555.642115 158.876346 562.063263 151.983003 574.905571Z" fill="#010101" />
<path d="M148.016997 358.427762C147.922568 361.260623 147.804533 363.550524 147.66289 365.29745C147.521246 367.044377 147.167139 369.263456 146.600567 371.954674S145.349387 376.864972 144.546742 378.611898S142.540127 382.318229 140.934844 384.490085S137.440977 388.456091 135.269122 389.872521S130.358824 392.658173 127.053824 393.98017S119.971671 396.340892 115.72238 397.096317V399.929178H184.27762V397.096317C180.028329 396.340888 176.251176 395.278569 172.946176 393.909348S166.879136 391.147309 164.660057 389.730878S160.552408 386.4967 158.994334 384.27762S156.232295 380.09915 155.382436 378.399433S153.847975 374.480637 153.328612 371.74221S152.478754 366.808314 152.33711 365.155807C152.195467 363.5033 152.077432 361.260623 151.983003 358.427762C154.249292 362.58262 156.090652 365.509915 157.507082 367.209632C160.056657 370.420212 163.196416 372.969788 166.926346 374.858357C170.656275 376.746926 174.315397 377.691218 177.903683 377.691218C183.947125 377.691218 189.140694 375.448541 193.484419 370.963173S200.0 361.071771 200.0 354.745042C200.0 348.607181 198.040609 343.366388 194.121813 339.022663S185.457975 332.507082 179.886686 332.507082C177.998116 332.507082 176.251176 332.766761 174.645892 333.286119S171.435312 334.466477 169.830028 335.269122L166.855524 336.756374C170.538244 331.468371 172.379603 326.46364 172.379603 321.74221C172.379603 315.793201 170.184136 310.694051 165.793201 306.444759S156.137861 300.070822 150.0 300.070822S138.597734 302.195467 134.206799 306.444759S127.620397 315.793201 127.620397 321.74221C127.620397 326.46364 129.461756 331.468371 133.144476 336.756374C132.483475 336.473088 131.56279 336.048159 130.382436 335.481586S128.328612 334.490085 127.76204 334.206799S126.463644 333.640227 125.566572 333.356941S123.796034 332.86119 122.946176 332.719547S121.152025 332.507082 120.113314 332.507082C114.542025 332.507082 109.796983 334.678938 105.878187 339.022663S100.0 348.607181 100.0 354.745042C100.0 361.071771 102.171856 366.477805 106.515581 370.963173S116.052875 377.691218 122.096317 377.691218C132.48347 377.691218 141.123654 371.270071 148.016997 358.427762Z" fill="#010101" />
<path d="M348.016997 125.094429C347.922568 127.92729 347.804533 130.217191 347.66289 131.964117C347.521246 133.711043 347.167139 135.930123 346.600567 138.621341S345.349387 143.531638 344.546742 145.278565S342.540127 148.984896 340.934844 151.156752S337.440977 155.122757 335.269122 156.539188S330.358824 159.324839 327.053824 160.646837S319.971671 163.007559 315.72238 163.762984V166.595845H384.27762V163.762984C380.028329 163.007555 376.251176 161.945236 372.946176 160.576015S366.879136 157.813975 364.660057 156.397545S360.552408 153.163366 358.994334 150.944287S356.232295 146.765817 355.382436 145.0661S353.847975 141.147304 353.328612 138.408876S352.478754 133.474981 352.33711 131.822474C352.195467 130.169967 352.077432 127.92729 351.983003 125.094429C354.249292 129.249287 356.090652 132.176582 357.507082 133.876298C360.056657 137.086879 363.196416 139.636454 366.926346 141.525024C370.656275 143.413593 374.315397 144.357885 377.903683 144.357885C383.947125 144.357885 389.140694 142.115208 393.484419 137.629839S400.0 127.738437 400.0 121.411709C400.0 115.273848 398.040609 110.033055 394.121813 105.68933S385.457975 99.173749 379.886686 99.173749C377.998116 99.173749 376.251176 99.433427 374.645892 99.952786S371.435312 101.133144 369.830028 101.935788L366.855524 103.423041C370.538244 98.135038 372.379603 93.130307 372.379603 88.408876C372.379603 82.459868 370.184136 77.360718 365.793201 73.111426S356.137861 66.737488 350.0 66.737488S338.597734 68.862134 334.206799 73.111426S327.620397 82.459868 327.620397 88.408876C327.620397 93.130307 329.461756 98.135038 333.144476 103.423041C332.483475 103.139754 331.56279 102.714825 330.382436 102.148253S328.328612 101.156752 327.76204 100.873466S326.463644 100.306893 325.566572 100.023607S323.796034 99.527856 322.946176 99.386213S321.152025 99.173749 320.113314 99.173749C314.542025 99.173749 309.796983 101.345604 305.878187 105.68933S300.0 115.273848 300.0 121.411709C300.0 127.738437 302.171856 133.144471 306.515581 137.629839S316.052875 144.357885 322.096317 144.357885C332.48347 144.357885 341.123654 137.936737 348.016997 125.094429Z" fill="#010101" />
<path d="M351.983003 574.905571C352.077432 572.07271 352.195467 569.782809 352.33711 568.035883C352.478754 566.288957 352.832861 564.069877 353.399433 561.378659S354.650613 556.468362 355.453258 554.721435S357.459873 551.015104 359.065156 548.843248S362.559023 544.877243 364.730878 543.460812S369.641176 540.675161 372.946176 539.353163S380.028329 536.992441 384.27762 536.237016V533.404155H315.72238V536.237016C319.971671 536.992445 323.748824 538.054764 327.053824 539.423985S333.120864 542.186025 335.339943 543.602455S339.447592 546.836634 341.005666 549.055713S343.767705 553.234183 344.617564 554.9339S346.152025 558.852696 346.671388 561.591124S347.521246 566.525019 347.66289 568.177526C347.804533 569.830033 347.922568 572.07271 348.016997 574.905571C345.750708 570.750713 343.909348 567.823418 342.492918 566.123702C339.943343 562.913121 336.803584 560.363546 333.073654 558.474976C329.343725 556.586407 325.684603 555.642115 322.096317 555.642115C316.052875 555.642115 310.859306 557.884792 306.515581 562.370161S300.0 572.261563 300.0 578.588291C300.0 584.726152 301.959391 589.966945 305.878187 594.31067S314.542025 600.826251 320.113314 600.826251C322.001884 600.826251 323.748824 600.566573 325.354108 600.047214S328.564688 598.866856 330.169972 598.064212L333.144476 596.576959C329.461756 601.864962 327.620397 606.869693 327.620397 611.591124C327.620397 617.540132 329.815864 622.639282 334.206799 626.888574S343.862139 633.262512 350.0 633.262512S361.402266 631.137866 365.793201 626.888574S372.379603 617.540132 372.379603 611.591124C372.379603 606.869693 370.538244 601.864962 366.855524 596.576959C367.516525 596.860246 368.43721 597.285175 369.617564 597.851747S371.671388 598.843248 372.23796 599.126534S373.536356 599.693107 374.433428 599.976393S376.203966 600.472144 377.053824 600.613787S378.847975 600.826251 379.886686 600.826251C385.457975 600.826251 390.203017 598.654396 394.121813 594.31067S400.0 584.726152 400.0 578.588291C400.0 572.261563 397.828144 566.855529 393.484419 562.370161S383.947125 555.642115 377.903683 555.642115C367.51653 555.642115 358.876346 562.063263 351.983003 574.905571Z" fill="#010101" />
<path d="M348.016997 358.427762C347.922568 361.260623 347.804533 363.550524 347.66289 365.29745C347.521246 367.044377 347.167139 369.263456 346.600567 371.954674S345.349387 376.864972 344.546742 378.611898S342.540127 382.318229 340.934844 384.490085S337.440977 388.456091 335.269122 389.872521S330.358824 392.658173 327.053824 393.98017S319.971671 396.340892 315.72238 397.096317V399.929178H384.27762V397.096317C380.028329 396.340888 376.251176 395.278569 372.946176 393.909348S366.879136 391.147309 364.660057 389.730878S360.552408 386.4967 358.994334 384.27762S356.232295 380.09915 355.382436 378.399433S353.847975 374.480637 353.328612 371.74221S352.478754 366.808314 352.33711 365.155807C352.195467 363.5033 352.077432 361.260623 351.983003 358.427762C354.249292 362.58262 356.090652 365.509915 357.507082 367.209632C360.056657 370.420212 363.196416 372.969788 366.926346 374.858357C370.656275 376.746926 374.315397 377.691218 377.903683 377.691218C383.947125 377.691218 389.140694 375.448541 393.484419 370.963173S400.0 361.071771 400.0 354.745042C400.0 348.607181 398.040609 343.366388 394.121813 339.022663S385.457975 332.507082 379.886686 332.507082C377.998116 332.507082 376.251176 332.766761 374.645892 333.286119S371.435312 334.466477 369.830028 335.269122L366.855524 336.756374C370.538244 331.468371 372.379603 326.46364 372.379603 321.74221C372.379603 315.793201 370.184136 310.694051 365.793201 306.444759S356.137861 300.070822 350.0 300.070822S338.597734 302.195467 334.206799 306.444759S327.620397 315.793201 327.620397 321.74221C327.620397 326.46364 329.461756 331.468371 333.144476 336.756374C332.483475 336.473088 331.56279 336.048159 330.382436 335.481586S328.328612 334.490085 327.76204 334.206799S326.463644 333.640227 325.566572 333.356941S323.796034 332.86119 322.946176 332.719547S321.152025 332.507082 320.113314 332.507082C314.542025 332.507082 309.796983 334.678938 305.878187 339.022663S300.0 348.607181 300.0 354.745042C300.0 361.071771 302.171856 366.477805 306.515581 370.963173S316.052875 377.691218 322.096317 377.691218C332.48347 377.691218 341.123654 371.270071 348.016997 358.427762Z" fill="#010101" />
<path d="M248.016997 241.761095C247.922568 244.593957 247.804533 246.883857 247.66289 248.630784C247.521246 250.37771 247.167139 252.596789 246.600567 255.288008S245.349387 260.198305 244.546742 261.945231S242.540127 265.651563 240.934844 267.823418S237.440977 271.789424 235.269122 273.205855S230.358824 275.991506 227.053824 277.313503S219.971671 279.674226 215.72238 280.429651V283.262512H284.27762V280.429651C280.028329 279.674221 276.251176 278.611903 272.946176 277.242682S266.879136 274.480642 264.660057 273.064212S260.552408 269.830033 258.994334 267.610954S256.232295 263.432483 255.382436 261.732767S253.847975 257.813971 253.328612 255.075543S252.478754 250.141648 252.33711 248.489141C252.195467 246.836634 252.077432 244.593957 251.983003 241.761095C254.249292 245.915954 256.090652 248.843248 257.507082 250.542965C260.056657 253.753546 263.196416 256.303121 266.926346 258.19169C270.656275 260.08026 274.315397 261.024551 277.903683 261.024551C283.947125 261.024551 289.140694 258.781874 293.484419 254.296506S300.0 244.405104 300.0 238.078376C300.0 231.940515 298.040609 226.699721 294.121813 222.355996S285.457975 215.840415 279.886686 215.840415C277.998116 215.840415 276.251176 216.100094 274.645892 216.619452S271.435312 217.799811 269.830028 218.602455L266.855524 220.089707C270.538244 214.801704 272.379603 209.796974 272.379603 205.075543C272.379603 199.126534 270.184136 194.027384 265.793201 189.778093S256.137861 183.404155 250.0 183.404155S238.597734 185.528801 234.206799 189.778093S227.620397 199.126534 227.620397 205.075543C227.620397 209.796974 229.461756 214.801704 233.144476 220.089707C232.483475 219.806421 231.56279 219.381492 230.382436 218.81492S228.328612 217.823418 227.76204 217.540132S226.463644 216.97356 225.566572 216.690274S223.796034 216.194523 222.946176 216.05288S221.152025 215.840415 220.113314 215.840415C214.542025 215.840415 209.796983 218.012271 205.878187 222.355996S200.0 231.940515 200.0 238.078376C200.0 244.405104 202.171856 249.811138 206.515581 254.296506S216.052875 261.024551 222.096317 261.024551C232.48347 261.024551 241.123654 254.603404 248.016997 241.761095Z" fill="#010101" />
<path d="M471.042435 85.366093Q472.333948 83.880854 472.333948 81.297828Q472.333948 75.615171 465.940959 62.764617T449.215867 31.316278L446.245387 26.021075H468.846863Q472.333948 26.021075 474.077491 26.53768T476.918819 28.991555T478.53321 35.061665Q478.791513 36.094876 479.372694 36.546905T481.50369 36.998935Q483.699262 36.998935 483.699262 34.803363L483.182657 19.692662Q483.182657 16.851333 479.437269 16.851333H440.046125Q436.300738 16.851333 436.300738 19.305208Q436.300738 21.242477 439.142066 26.021075Q443.920664 34.028455 447.98893 43.908529T456.964945 67.349488Q460.968635 78.327348 462.776753 82.718492Q464.714022 86.851333 468.071956 86.851333Q469.750923 86.851333 471.042435 85.366093Z" fill="#010101" />
<path d="M458.958924 136.646797C458.909348 138.134049 458.84738 139.336247 458.773017 140.253384C458.698654 141.17052 458.512748 142.335537 458.215297 143.748426S457.558428 146.326332 457.13704 147.243469S456.083567 149.189293 455.240793 150.329517S453.406513 152.41167 452.266289 153.155296S449.688383 154.617763 447.953258 155.311811S444.235127 156.551191 442.004249 156.947789V158.435041H477.995751V156.947789C475.764873 156.551188 473.781867 155.993471 472.046742 155.27463S468.861546 153.824559 467.69653 153.080933S465.540014 151.38299 464.722025 150.217973S463.271955 148.024276 462.825779 147.131925S462.020187 145.074557 461.747521 143.636882S461.301346 141.046587 461.226983 140.179021C461.15262 139.311455 461.090652 138.134049 461.041076 136.646797C462.230878 138.828098 463.197592 140.364928 463.941218 141.257279C465.279745 142.942834 466.928119 144.281361 468.886331 145.27286C470.844544 146.264359 472.765583 146.760112 474.649433 146.760112C477.82224 146.760112 480.548864 145.582706 482.82932 143.227888S486.25 138.034902 486.25 134.71337C486.25 131.490992 485.22132 128.739576 483.163952 126.45912S478.615437 123.03844 475.69051 123.03844C474.699011 123.03844 473.781867 123.174772 472.939093 123.447435S471.253539 124.067123 470.410765 124.488511L468.84915 125.269319C470.782578 122.493117 471.749292 119.865633 471.749292 117.386882C471.749292 114.263653 470.596671 111.586599 468.291431 109.355721S463.222377 106.009404 460.0 106.009404S454.01381 107.124843 451.708569 109.355721S448.250708 114.263653 448.250708 117.386882C448.250708 119.865633 449.217422 122.493117 451.15085 125.269319C450.803824 125.120593 450.320465 124.897506 449.700779 124.600055S448.622521 124.079517 448.325071 123.930792S447.643413 123.633341 447.17245 123.484616S446.242918 123.224347 445.796742 123.149984S444.854813 123.03844 444.30949 123.03844C441.384563 123.03844 438.893416 124.178665 436.836048 126.45912S433.75 131.490992 433.75 134.71337C433.75 138.034902 434.890224 140.87307 437.17068 143.227888S442.17776 146.760112 445.350567 146.760112C450.803822 146.760112 455.339919 143.389009 458.958924 136.646797Z" fill="#010101" />
<path d="M28.957565 614.633907Q27.666052 616.119146 27.666052 618.702172Q27.666052 624.384829 34.059041 637.235383T50.784133 668.683722L53.754613 673.978925H31.153137Q27.666052 673.978925 25.922509 673.46232T23.081181 671.008445T21.46679 664.938335Q21.208487 663.905124 20.627306 663.453095T18.49631 663.001065Q16.300738 663.001065 16.300738 665.196637L16.817343 680.307338Q16.817343 683.148667 20.562731 683.148667H59.953875Q63.699262 683.148667 63.699262 680.694792Q63.699262 678.757523 60.857934 673.978925Q56.079336 665.971545 52.01107 656.091471T43.035055 632.650512Q39.031365 621.672652 37.223247 617.281508Q35.285978 613.148667 31.928044 613.148667Q30.249077 613.148667 28.957565 614.633907Z" fill="#010101" />
<path d="M41.041076 563.353203C41.090652 561.865951 41.15262 560.663753 41.226983 559.746616C41.301346 558.82948 41.487252 557.664463 41.784703 556.251574S42.441572 553.673668 42.86296 552.756531S43.916433 550.810707 44.759207 549.670483S46.593487 547.58833 47.733711 546.844704S50.311617 545.382237 52.046742 544.688189S55.764873 543.448809 57.995751 543.052211V541.564959H22.004249V543.052211C24.235127 543.448812 26.218133 544.006529 27.953258 544.72537S31.138454 546.175441 32.30347 546.919067S34.459986 548.61701 35.277975 549.782027S36.728045 551.975724 37.174221 552.868075S37.979813 554.925443 38.252479 556.363118S38.698654 558.953413 38.773017 559.820979C38.84738 560.688545 38.909348 561.865951 38.958924 563.353203C37.769122 561.171902 36.802408 559.635072 36.058782 558.742721C34.720255 557.057166 33.071881 555.718639 31.113669 554.72714C29.155456 553.735641 27.234417 553.239888 25.350567 553.239888C22.17776 553.239888 19.451136 554.417294 17.17068 556.772112S13.75 561.965098 13.75 565.28663C13.75 568.509008 14.77868 571.260424 16.836048 573.54088S21.384563 576.96156 24.30949 576.96156C25.300989 576.96156 26.218133 576.825228 27.060907 576.552565S28.746461 575.932877 29.589235 575.511489L31.15085 574.730681C29.217422 577.506883 28.250708 580.134367 28.250708 582.613118C28.250708 585.736347 29.403329 588.413401 31.708569 590.644279S36.777623 593.990596 40.0 593.990596S45.98619 592.875157 48.291431 590.644279S51.749292 585.736347 51.749292 582.613118C51.749292 580.134367 50.782578 577.506883 48.84915 574.730681C49.196176 574.879407 49.679535 575.102494 50.299221 575.399945S51.377479 575.920483 51.674929 576.069208S52.356587 576.366659 52.82755 576.515384S53.757082 576.775653 54.203258 576.850016S55.145187 576.96156 55.69051 576.96156C58.615437 576.96156 61.106584 575.821335 63.163952 573.54088S66.25 568.509008 66.25 565.28663C66.25 561.965098 65.109776 559.12693 62.82932 556.772112S57.82224 553.239888 54.649433 553.239888C49.196178 553.239888 44.660081 556.610991 41.041076 563.353203Z" fill="#010101" />
</svg>
