<svg width="500.000000" height="700.000000" id="card-realclub1">
<radialGradient id="card-realwhitegradient" cx="250.0" cy="350.0" r="500" gradientTransform="matrix(1 0 0 1 0 -.25)" gradientUnits="userSpaceOnUse">
<stop stop-color="#FDFAF4" offset=".15"/>
<stop stop-color="#FDF9F2" offset=".35"/>
<stop stop-color="#FCF7F1" offset=".5"/>
<stop stop-color="#FDFDF8" offset=".75"/>
<stop stop-color="#FFFDFA" offset="1"/>
</radialGradient>
<rect x="0" y="0" rx="25.0" ry="25.0" width="500" height="700.0" fill="url(#card-realwhitegradient)" />
<path d="M168.696884 349.716714C161.70915 351.794144 156.562805 354.957507 153.25779 359.206799S148.300283 368.035892 148.300283 372.946176C148.300283 378.611898 150.330501 383.522181 154.390935 387.677054S163.220028 393.909348 168.696884 393.909348C176.062323 393.909348 183.711048 391.21813 191.643059 385.835694S208.215297 374.07932 217.563739 366.713881S235.741275 354.249292 244.050992 351.416431C243.295561 358.970737 242.917847 364.258725 242.917847 367.280453C242.917847 405.618414 257.082153 433.569405 285.410765 451.133144C293.531643 443.767705 298.819632 438.574136 301.274788 435.552408C291.265354 428.375836 282.813966 420.160538 275.92068 410.906516S264.21153 392.72898 261.473088 384.135977S256.893286 368.696884 255.949008 363.597734S254.532578 354.249292 254.532578 350.849858C261.898017 353.305006 269.405099 357.082153 277.053824 362.181303S291.170907 372.143541 296.458924 376.770538C301.746941 381.397535 307.459858 385.457989 313.597734 388.951841S325.448527 394.192635 330.736544 394.192635C336.591133 394.192635 341.54864 392.209632 345.609065 388.243626C349.66949 384.27762 351.699717 379.367337 351.699717 373.512748C351.699717 362.181303 344.90085 354.249292 331.303116 349.716714C344.90085 346.128414 351.699717 338.479688 351.699717 326.770538C351.699717 320.915949 349.716714 315.958442 345.750708 311.898017S337.063258 305.807365 331.586402 305.807365C325.354108 305.807365 318.838527 307.743153 312.03966 311.614731S299.102918 319.877252 293.626062 324.787535C288.149207 329.697819 281.491983 334.655326 273.654391 339.660057S258.120878 348.016997 250.566572 349.716714C253.210575 340.084986 258.262521 330.169972 265.72238 319.971671S279.839462 300.566572 285.694051 292.351275C291.54864 284.135977 294.475921 276.628895 294.475921 269.830028C294.475921 263.786601 292.492918 258.78187 288.526912 254.815864S279.556176 248.866856 273.512748 248.866856C262.37017 248.866856 254.626997 255.665722 250.283286 269.263456C248.205856 262.275722 245.089717 257.129377 240.934844 253.824363S232.152975 248.866856 227.053824 248.866856C221.388102 248.866856 216.477819 250.849858 212.322946 254.815864C208.168074 258.78187 206.090652 263.503314 206.090652 268.98017C206.090652 276.723314 208.923513 284.891416 214.589235 293.484419C220.254958 302.077422 226.628895 311.284221 233.711048 321.104816S245.561841 340.462691 248.016997 349.716714C240.084986 347.639283 232.152975 344.050992 224.220963 338.951841S209.678952 328.895184 204.390935 324.07932S193.295552 314.966941 186.968839 311.189802S174.834759 305.524079 169.546742 305.524079C163.503314 305.524079 158.45136 307.554297 154.390935 311.614731S148.300283 320.632663 148.300283 326.487252C148.300283 337.62983 155.09915 345.373003 168.696884 349.716714Z" fill="#010101" />
<path d="M494.530551 110.482696Q495.0 109.804603 495.0 108.865706Q494.895678 107.300878 494.374069 106.987912T493.122206 106.674946H492.183308Q489.053651 106.674946 487.593145 105.057957T485.245902 101.40669T484.0462 98.642159L465.789866 55.45289Q465.163934 53.888061 465.163934 52.949164Q465.163934 51.071369 466.624441 50.236794T470.692996 48.880609Q472.466468 48.567644 472.883756 48.254678T473.301043 46.481205Q473.301043 45.229343 472.622951 44.812055T470.484352 44.394767Q465.268256 44.394767 462.19076 45.177182T456.818182 48.306839T452.540984 55.45289L435.014903 98.642159Q433.450075 102.606392 431.989568 104.588508T427.608048 106.674946H426.982116Q425.938897 106.674946 425.52161 107.040073T425.0 108.865706Q425.0 109.804603 425.469449 110.482696T426.877794 111.160788Q433.554396 110.847822 438.353204 110.847822Q444.612519 110.847822 451.289121 111.160788Q452.228018 111.160788 452.697466 110.482696T453.166915 108.865706Q453.062593 107.4052 452.645306 107.040073T451.184799 106.674946Q447.637854 106.674946 446.177347 105.996854T444.716841 103.545289Q444.716841 102.189104 445.968703 98.642159L449.515648 89.983441H475.283159Q477.891207 96.451399 478.256334 97.494618T478.621461 98.642159Q479.873323 102.606392 479.873323 103.753933Q479.873323 105.527405 478.308495 106.101176T472.362146 106.674946H471.736215Q470.692996 106.674946 470.275708 107.040073T469.754098 108.865706Q469.754098 109.804603 470.223547 110.482696T471.631893 111.160788Q478.308495 110.847822 483.002981 110.847822Q486.341282 110.847822 493.122206 111.160788Q494.061103 111.160788 494.530551 110.482696ZM473.301043 85.497599H451.393443L461.929955 58.686869H462.242921Z" fill="#010101" />
<path d="M459.074608 159.488472C459.030542 160.810461 458.975459 161.87907 458.909359 162.694294C458.84326 163.509519 458.678011 164.545079 458.413614 165.800968S457.829735 168.092417 457.455172 168.907641S456.518761 170.637245 455.769636 171.650768S454.139181 173.501552 453.125659 174.162546S450.83421 175.462504 449.291892 176.07943S445.98692 177.181089 444.003937 177.533617V178.855606H475.996063V177.533617C474.01308 177.181087 472.250426 176.685343 470.708108 176.04638S467.876851 174.757441 466.841291 174.096447S464.924408 172.587178 464.197314 171.551618S462.908375 169.601685 462.511778 168.808492S461.795703 166.979739 461.553337 165.701819S461.15674 163.399357 461.090641 162.628195C461.024541 161.857033 460.969459 160.810461 460.925392 159.488472C461.982983 161.427386 462.842276 162.793444 463.50327 163.586637C464.69306 165.084893 466.158266 166.274683 467.898882 167.156006C469.639499 168.03733 471.347072 168.477995 473.021588 168.477995C475.841833 168.477995 478.265475 167.431423 480.292526 165.338272S483.3331 160.72233 483.3331 157.769887C483.3331 154.90558 482.418727 152.459901 480.589974 150.432849S476.546889 147.392276 473.94698 147.392276C473.065657 147.392276 472.250426 147.513458 471.501301 147.755822S470.003045 148.306651 469.253921 148.681214L467.865833 149.375259C469.584418 146.907549 470.44371 144.572031 470.44371 142.368719C470.44371 139.592542 469.419169 137.212963 467.370087 135.22998S462.864307 132.255505 460.0 132.255505S454.678996 133.246997 452.629913 135.22998S449.55629 139.592542 449.55629 142.368719C449.55629 144.572031 450.415582 146.907549 452.134167 149.375259C451.825703 149.24306 451.396055 149.044761 450.845228 148.780364S449.886787 148.317668 449.622389 148.185469S449.016477 147.921071 448.597848 147.788872S447.771605 147.557524 447.375008 147.491425S446.537747 147.392276 446.05302 147.392276C443.453111 147.392276 441.23878 148.405798 439.410026 150.432849S436.6669 154.90558 436.6669 157.769887C436.6669 160.72233 437.680422 163.245121 439.707474 165.338272S444.158167 168.477995 446.978412 168.477995C451.825701 168.477995 455.857747 165.481489 459.074608 159.488472Z" fill="#010101" />
<path d="M5.469449 589.517304Q5.0 590.195397 5.0 591.134294Q5.104322 592.699122 5.625931 593.012088T6.877794 593.325054H7.816692Q10.946349 593.325054 12.406855 594.942043T14.754098 598.59331T15.9538 601.357841L34.210134 644.54711Q34.836066 646.111939 34.836066 647.050836Q34.836066 648.928631 33.375559 649.763206T29.307004 651.119391Q27.533532 651.432356 27.116244 651.745322T26.698957 653.518795Q26.698957 654.770657 27.377049 655.187945T29.515648 655.605233Q34.731744 655.605233 37.80924 654.822818T43.181818 651.693161T47.459016 644.54711L64.985097 601.357841Q66.549925 597.393608 68.010432 595.411492T72.391952 593.325054H73.017884Q74.061103 593.325054 74.47839 592.959927T75.0 591.134294Q75.0 590.195397 74.530551 589.517304T73.122206 588.839212Q66.445604 589.152178 61.646796 589.152178Q55.387481 589.152178 48.710879 588.839212Q47.771982 588.839212 47.302534 589.517304T46.833085 591.134294Q46.937407 592.5948 47.354694 592.959927T48.815201 593.325054Q52.362146 593.325054 53.822653 594.003146T55.283159 596.454711Q55.283159 597.810896 54.031297 601.357841L50.484352 610.016559H24.716841Q22.108793 603.548601 21.743666 602.505382T21.378539 601.357841Q20.126677 597.393608 20.126677 596.246067Q20.126677 594.472595 21.691505 593.898824T27.637854 593.325054H28.263785Q29.307004 593.325054 29.724292 592.959927T30.245902 591.134294Q30.245902 590.195397 29.776453 589.517304T28.368107 588.839212Q21.691505 589.152178 16.997019 589.152178Q13.658718 589.152178 6.877794 588.839212Q5.938897 588.839212 5.469449 589.517304ZM26.698957 614.502401H48.606557L38.070045 641.313131H37.757079Z" fill="#010101" />
<path d="M40.925392 540.511528C40.969458 539.189539 41.024541 538.12093 41.090641 537.305706C41.15674 536.490481 41.321989 535.454921 41.586386 534.199032S42.170265 531.907583 42.544828 531.092359S43.481239 529.362755 44.230364 528.349232S45.860819 526.498448 46.874341 525.837454S49.16579 524.537496 50.708108 523.92057S54.01308 522.818911 55.996063 522.466383V521.144394H24.003937V522.466383C25.98692 522.818913 27.749574 523.314657 29.291892 523.95362S32.123149 525.242559 33.158709 525.903553S35.075592 527.412822 35.802686 528.448382S37.091625 530.398315 37.488222 531.191508S38.204297 533.020261 38.446663 534.298181S38.84326 536.600643 38.909359 537.371805C38.975459 538.142967 39.030541 539.189539 39.074608 540.511528C38.017017 538.572614 37.157724 537.206556 36.49673 536.413363C35.30694 534.915107 33.841734 533.725317 32.101118 532.843994C30.360501 531.96267 28.652928 531.522005 26.978412 531.522005C24.158167 531.522005 21.734525 532.568577 19.707474 534.661728S16.6669 539.27767 16.6669 542.230113C16.6669 545.09442 17.581273 547.540099 19.410026 549.567151S23.453111 552.607724 26.05302 552.607724C26.934343 552.607724 27.749574 552.486542 28.498699 552.244178S29.996955 551.693349 30.746079 551.318786L32.134167 550.624741C30.415582 553.092451 29.55629 555.427969 29.55629 557.631281C29.55629 560.407458 30.580831 562.787037 32.629913 564.77002S37.135693 567.744495 40.0 567.744495S45.321004 566.753003 47.370087 564.77002S50.44371 560.407458 50.44371 557.631281C50.44371 555.427969 49.584418 553.092451 47.865833 550.624741C48.174297 550.75694 48.603945 550.955239 49.154772 551.219636S50.113213 551.682332 50.377611 551.814531S50.983523 552.078929 51.402152 552.211128S52.228395 552.442476 52.624992 552.508575S53.462253 552.607724 53.94698 552.607724C56.546889 552.607724 58.76122 551.594202 60.589974 549.567151S63.3331 545.09442 63.3331 542.230113C63.3331 539.27767 62.319578 536.754879 60.292526 534.661728S55.841833 531.522005 53.021588 531.522005C48.174299 531.522005 44.142253 534.518511 40.925392 540.511528Z" fill="#010101" />
</svg>
