<svg width="25.000000" height="35.000000" id="card-lightdiamond5">
<rect x="0" y="0" rx="1.25" ry="1.25" width="25" height="35.0" stroke="rgba(1,1,1,0.333)" fill="#fffdfa" />
<path d="M7.506954 3.333333C7.395688 3.555865 7.126796 3.955726 6.700278 4.532916C6.27376 5.110107 5.930688 5.542422 5.671071 5.829856C5.995596 6.200742 6.34446 6.641171 6.717663 7.151136C7.090867 7.661103 7.353964 8.055169 7.506954 8.333333C7.850023 7.721372 8.45735 6.88688 9.328929 5.829856C8.434166 4.749655 7.826843 3.917478 7.506954 3.333333Z" fill="#da0a0a" />
<path d="M7.493046 31.666667C7.604312 31.444135 7.873204 31.044274 8.299722 30.467084C8.72624 29.889893 9.069312 29.457578 9.328929 29.170144C9.004404 28.799258 8.65554 28.358829 8.282337 27.848864C7.909133 27.338897 7.646036 26.944831 7.493046 26.666667C7.149977 27.278628 6.54265 28.11312 5.671071 29.170144C6.565834 30.250345 7.173157 31.082522 7.493046 31.666667Z" fill="#da0a0a" />
<path d="M17.506954 3.333333C17.395688 3.555865 17.126796 3.955726 16.700278 4.532916C16.27376 5.110107 15.930688 5.542422 15.671071 5.829856C15.995596 6.200742 16.34446 6.641171 16.717663 7.151136C17.090867 7.661103 17.353964 8.055169 17.506954 8.333333C17.850023 7.721372 18.45735 6.88688 19.328929 5.829856C18.434166 4.749655 17.826843 3.917478 17.506954 3.333333Z" fill="#da0a0a" />
<path d="M17.493046 31.666667C17.604312 31.444135 17.873204 31.044274 18.299722 30.467084C18.72624 29.889893 19.069312 29.457578 19.328929 29.170144C19.004404 28.799258 18.65554 28.358829 18.282337 27.848864C17.909133 27.338897 17.646036 26.944831 17.493046 26.666667C17.149977 27.278628 16.54265 28.11312 15.671071 29.170144C16.565834 30.250345 17.173157 31.082522 17.493046 31.666667Z" fill="#da0a0a" />
<path d="M12.506954 15.0C12.395688 15.222531 12.126796 15.622392 11.700278 16.199583C11.27376 16.776773 10.930688 17.209089 10.671071 17.496523C10.995596 17.867408 11.34446 18.307837 11.717663 18.817803C12.090867 19.32777 12.353964 19.721836 12.506954 20.0C12.850023 19.388039 13.45735 18.553547 14.328929 17.496523C13.434166 16.416321 12.826843 15.584145 12.506954 15.0Z" fill="#da0a0a" />
<path d="M23.913889 4.167567Q24.231481 3.992567 24.231481 3.623122Q24.231481 3.422196 24.111574 3.269881T23.790741 3.117567Q23.667593 3.117567 23.580093 3.182381T23.492593 3.292567Q23.492593 3.299048 23.550926 3.3509T23.65787 3.477289T23.706481 3.649048Q23.706481 3.869419 23.547685 3.986085T23.103704 4.102752Q22.747222 4.102752 22.568981 3.849974T22.390741 3.188863Q22.390741 2.812937 22.572222 2.5634T23.136111 2.313863Q23.311111 2.313863 23.4375 2.368956T23.706481 2.527752Q23.790741 2.586085 23.845833 2.615252T23.952778 2.644419Q24.056481 2.644419 24.056481 2.462937L24.05 2.385159L23.849074 0.842567H22.066667Q21.975926 0.842567 21.920833 0.9009T21.865741 1.062937Q21.865741 1.302752 22.112037 1.302752H23.550926L23.687037 2.203678Q23.401852 2.028678 22.987037 2.028678Q22.708333 2.028678 22.426389 2.151826T21.956481 2.527752T21.768519 3.156456T21.953241 3.801363T22.445833 4.206456T23.116667 4.342567Q23.596296 4.342567 23.913889 4.167567Z" fill="#da0a0a" />
<path d="M23.003651 5.298611C22.945236 5.41544 22.804068 5.625367 22.580146 5.928392C22.356224 6.231417 22.176111 6.458383 22.039812 6.609286C22.210188 6.804 22.393341 7.035226 22.589273 7.302957C22.785205 7.57069 22.923331 7.777575 23.003651 7.923611C23.183762 7.602332 23.502609 7.164223 23.960188 6.609286C23.490437 6.04218 23.171592 5.605287 23.003651 5.298611Z" fill="#da0a0a" />
<path d="M1.086111 30.832433Q0.768519 31.007433 0.768519 31.376878Q0.768519 31.577804 0.888426 31.730119T1.209259 31.882433Q1.332407 31.882433 1.419907 31.817619T1.507407 31.707433Q1.507407 31.700952 1.449074 31.6491T1.34213 31.522711T1.293519 31.350952Q1.293519 31.130581 1.452315 31.013915T1.896296 30.897248Q2.252778 30.897248 2.431019 31.150026T2.609259 31.811137Q2.609259 32.187063 2.427778 32.4366T1.863889 32.686137Q1.688889 32.686137 1.5625 32.631044T1.293519 32.472248Q1.209259 32.413915 1.154167 32.384748T1.047222 32.355581Q0.943519 32.355581 0.943519 32.537063L0.95 32.614841L1.150926 34.157433H2.933333Q3.024074 34.157433 3.079167 34.0991T3.134259 33.937063Q3.134259 33.697248 2.887963 33.697248H1.449074L1.312963 32.796322Q1.598148 32.971322 2.012963 32.971322Q2.291667 32.971322 2.573611 32.848174T3.043519 32.472248T3.231481 31.843544T3.046759 31.198637T2.554167 30.793544T1.883333 30.657433Q1.403704 30.657433 1.086111 30.832433Z" fill="#da0a0a" />
<path d="M1.996349 29.701389C2.054764 29.58456 2.195932 29.374633 2.419854 29.071608C2.643776 28.768583 2.823889 28.541617 2.960188 28.390714C2.789812 28.196 2.606659 27.964774 2.410727 27.697043C2.214795 27.42931 2.076669 27.222425 1.996349 27.076389C1.816238 27.397668 1.497391 27.835777 1.039812 28.390714C1.509563 28.95782 1.828408 29.394713 1.996349 29.701389Z" fill="#da0a0a" />
</svg>
