<svg width="150.000000" height="210.000000" id="card-webclub3">
<radialGradient id="card-webwhitegradient" cx="75.0" cy="105.0" r="150" gradientTransform="matrix(1 0 0 1 0 -.25)" gradientUnits="userSpaceOnUse">
<stop stop-color="#FDFAF4" offset=".15"/>
<stop stop-color="#FDF9F2" offset=".35"/>
<stop stop-color="#FCF7F1" offset=".5"/>
<stop stop-color="#FDFDF8" offset=".75"/>
<stop stop-color="#FFFDFA" offset="1"/>
</radialGradient>
<rect x="0" y="0" rx="7.5" ry="7.5" width="150" height="210.0" stroke="rgba(1,1,1,0.333)" fill="url(#card-webwhitegradient)" />
<path d="M74.405099 37.528329C74.376771 38.378187 74.34136 39.065157 74.298867 39.589235C74.256374 40.113313 74.150142 40.779037 73.98017 41.586402S73.604816 43.059492 73.364023 43.583569S72.762038 44.695469 72.280453 45.347025S71.232293 46.536827 70.580737 46.961756S69.107647 47.797452 68.116147 48.194051S65.991501 48.902268 64.716714 49.128895V49.978754H85.283286V49.128895C84.008499 48.902266 82.875353 48.583571 81.883853 48.172805S80.063741 47.344193 79.398017 46.919263S78.165722 45.94901 77.6983 45.283286S76.869688 44.029745 76.614731 43.51983S76.154392 42.344191 75.998584 41.522663S75.743626 40.042494 75.701133 39.546742C75.65864 39.05099 75.62323 38.378187 75.594901 37.528329C76.274788 38.774786 76.827195 39.652975 77.252125 40.16289C78.016997 41.126064 78.958925 41.890936 80.077904 42.457507C81.196882 43.024078 82.294619 43.307365 83.371105 43.307365C85.184137 43.307365 86.742208 42.634562 88.045326 41.288952S90.0 38.321531 90.0 36.423513C90.0 34.582154 89.412183 33.009916 88.236544 31.706799S85.637392 29.752125 83.966006 29.752125C83.399435 29.752125 82.875353 29.830028 82.393768 29.985836S81.430593 30.339943 80.949008 30.580737L80.056657 31.026912C81.161473 29.440511 81.713881 27.939092 81.713881 26.522663C81.713881 24.73796 81.055241 23.208215 79.73796 21.933428S76.841358 20.021246 75.0 20.021246S71.57932 20.65864 70.26204 21.933428S68.286119 24.73796 68.286119 26.522663C68.286119 27.939092 68.838527 29.440511 69.943343 31.026912C69.745042 30.941926 69.468837 30.814448 69.114731 30.644476S68.498584 30.347025 68.328612 30.26204S67.939093 30.092068 67.669972 30.007082S67.13881 29.858357 66.883853 29.815864S66.345608 29.752125 66.033994 29.752125C64.362608 29.752125 62.939095 30.403681 61.763456 31.706799S60.0 34.582154 60.0 36.423513C60.0 38.321531 60.651557 39.943341 61.954674 41.288952S64.815863 43.307365 66.628895 43.307365C69.745041 43.307365 72.337096 41.381021 74.405099 37.528329Z" fill="#010101" />
<path d="M75.594901 172.471671C75.623229 171.621813 75.65864 170.934843 75.701133 170.410765C75.743626 169.886687 75.849858 169.220963 76.01983 168.413598S76.395184 166.940508 76.635977 166.416431S77.237962 165.304531 77.719547 164.652975S78.767707 163.463173 79.419263 163.038244S80.892353 162.202548 81.883853 161.805949S84.008499 161.097732 85.283286 160.871105V160.021246H64.716714V160.871105C65.991501 161.097734 67.124647 161.416429 68.116147 161.827195S69.936259 162.655807 70.601983 163.080737S71.834278 164.05099 72.3017 164.716714S73.130312 165.970255 73.385269 166.48017S73.845608 167.655809 74.001416 168.477337S74.256374 169.957506 74.298867 170.453258C74.34136 170.94901 74.37677 171.621813 74.405099 172.471671C73.725212 171.225214 73.172805 170.347025 72.747875 169.83711C71.983003 168.873936 71.041075 168.109064 69.922096 167.542493C68.803118 166.975922 67.705381 166.692635 66.628895 166.692635C64.815863 166.692635 63.257792 167.365438 61.954674 168.711048S60.0 171.678469 60.0 173.576487C60.0 175.417846 60.587817 176.990084 61.763456 178.293201S64.362608 180.247875 66.033994 180.247875C66.600565 180.247875 67.124647 180.169972 67.606232 180.014164S68.569407 179.660057 69.050992 179.419263L69.943343 178.973088C68.838527 180.559489 68.286119 182.060908 68.286119 183.477337C68.286119 185.26204 68.944759 186.791785 70.26204 188.066572S73.158642 189.978754 75.0 189.978754S78.42068 189.34136 79.73796 188.066572S81.713881 185.26204 81.713881 183.477337C81.713881 182.060908 81.161473 180.559489 80.056657 178.973088C80.254958 179.058074 80.531163 179.185552 80.885269 179.355524S81.501416 179.652975 81.671388 179.73796S82.060907 179.907932 82.330028 179.992918S82.86119 180.141643 83.116147 180.184136S83.654392 180.247875 83.966006 180.247875C85.637392 180.247875 87.060905 179.596319 88.236544 178.293201S90.0 175.417846 90.0 173.576487C90.0 171.678469 89.348443 170.056659 88.045326 168.711048S85.184137 166.692635 83.371105 166.692635C80.254959 166.692635 77.662904 168.618979 75.594901 172.471671Z" fill="#010101" />
<path d="M74.405099 107.528329C74.376771 108.378187 74.34136 109.065157 74.298867 109.589235C74.256374 110.113313 74.150142 110.779037 73.98017 111.586402S73.604816 113.059492 73.364023 113.583569S72.762038 114.695469 72.280453 115.347025S71.232293 116.536827 70.580737 116.961756S69.107647 117.797452 68.116147 118.194051S65.991501 118.902268 64.716714 119.128895V119.978754H85.283286V119.128895C84.008499 118.902266 82.875353 118.583571 81.883853 118.172805S80.063741 117.344193 79.398017 116.919263S78.165722 115.94901 77.6983 115.283286S76.869688 114.029745 76.614731 113.51983S76.154392 112.344191 75.998584 111.522663S75.743626 110.042494 75.701133 109.546742C75.65864 109.05099 75.62323 108.378187 75.594901 107.528329C76.274788 108.774786 76.827195 109.652975 77.252125 110.16289C78.016997 111.126064 78.958925 111.890936 80.077904 112.457507C81.196882 113.024078 82.294619 113.307365 83.371105 113.307365C85.184137 113.307365 86.742208 112.634562 88.045326 111.288952S90.0 108.321531 90.0 106.423513C90.0 104.582154 89.412183 103.009916 88.236544 101.706799S85.637392 99.752125 83.966006 99.752125C83.399435 99.752125 82.875353 99.830028 82.393768 99.985836S81.430593 100.339943 80.949008 100.580737L80.056657 101.026912C81.161473 99.440511 81.713881 97.939092 81.713881 96.522663C81.713881 94.73796 81.055241 93.208215 79.73796 91.933428S76.841358 90.021246 75.0 90.021246S71.57932 90.65864 70.26204 91.933428S68.286119 94.73796 68.286119 96.522663C68.286119 97.939092 68.838527 99.440511 69.943343 101.026912C69.745042 100.941926 69.468837 100.814448 69.114731 100.644476S68.498584 100.347025 68.328612 100.26204S67.939093 100.092068 67.669972 100.007082S67.13881 99.858357 66.883853 99.815864S66.345608 99.752125 66.033994 99.752125C64.362608 99.752125 62.939095 100.403681 61.763456 101.706799S60.0 104.582154 60.0 106.423513C60.0 108.321531 60.651557 109.943341 61.954674 111.288952S64.815863 113.307365 66.628895 113.307365C69.745041 113.307365 72.337096 111.381021 74.405099 107.528329Z" fill="#010101" />
<path d="M143.326087 24.971161Q145.247283 23.886922 145.247283 21.79453Q145.247283 20.69127 144.5625 19.892357T142.660326 19.093443Q141.9375 19.093443 141.423913 19.473878T140.910326 20.120617Q140.910326 20.158661 141.252717 20.405943T141.880435 21.071704T142.165761 22.136922Q142.165761 23.31627 141.157609 23.98203T138.513587 24.647791Q134.442935 24.647791 134.442935 20.120617Q134.442935 18.256487 135.432065 17.134204T138.399457 15.897791H139.807065Q140.07337 15.897791 140.225543 15.66953T140.377717 15.136922Q140.377717 14.79453 140.225543 14.547248T139.807065 14.261922H138.399457Q136.915761 14.109748 136.021739 12.9304T135.127717 10.077139Q135.127717 8.251052 136.154891 7.280943T138.55163 6.310835Q139.845109 6.310835 140.777174 7.052683T141.709239 9.088009Q141.709239 9.924965 141.38587 10.210291T140.758152 10.552683T140.453804 10.647791Q140.453804 10.914096 140.967391 11.29453T142.203804 11.674965Q143.421196 11.674965 144.105978 10.914096T144.790761 8.973878Q144.790761 7.109748 143.040761 6.082574T138.513587 5.0554Q135.546196 5.0554 133.605978 6.348878T131.665761 10.077139Q131.665761 11.674965 132.788043 13.04453T136.002717 14.984748V15.136922Q133.872283 15.365183 132.3125 16.487465T130.752717 20.04453Q130.752717 23.126052 132.997283 24.590726T138.627717 26.0554Q141.404891 26.0554 143.326087 24.971161Z" fill="#010101" />
<path d="M137.687677 40.994039C137.672805 41.440215 137.654214 41.800874 137.631905 42.076015C137.609596 42.351156 137.553824 42.700661 137.464589 43.124528S137.267528 43.8979 137.141112 44.173041S136.82507 44.756788 136.572238 45.098855S136.021954 45.723501 135.679887 45.946589S134.906515 46.385329 134.385977 46.593543S133.270538 46.965357 132.601275 47.084337V47.530512H143.398725V47.084337C142.729462 46.965357 142.13456 46.798041 141.614023 46.582389S140.658464 46.147368 140.308959 45.92428S139.662004 45.414897 139.416608 45.065392S138.981586 44.407283 138.847734 44.139577S138.606056 43.522367 138.524256 43.091065S138.390404 42.313976 138.368095 42.053706C138.345786 41.793436 138.327196 41.440215 138.312323 40.994039C138.669263 41.648429 138.959278 42.109478 139.182365 42.377184C139.583924 42.88285 140.078436 43.284408 140.665899 43.581858C141.253363 43.879308 141.829675 44.028034 142.39483 44.028034C143.346672 44.028034 144.164659 43.674812 144.848796 42.968366S145.875 41.410471 145.875 40.414011C145.875 39.447298 145.566396 38.621873 144.949186 37.937736S143.584631 36.911532 142.707153 36.911532C142.409703 36.911532 142.13456 36.952431 141.881728 37.03423S141.376062 37.220137 141.123229 37.346553L140.654745 37.580796C141.234773 36.747935 141.524788 35.95969 141.524788 35.216065C141.524788 34.279096 141.179001 33.47598 140.487429 32.806716S138.966713 31.802821 138.0 31.802821S136.204143 32.137453 135.512571 32.806716S134.475212 34.279096 134.475212 35.216065C134.475212 35.95969 134.765227 36.747935 135.345255 37.580796C135.241147 37.536178 135.096139 37.469252 134.910234 37.380017S134.586756 37.223855 134.497521 37.179237S134.293024 37.090002 134.151735 37.045385S133.872875 36.967304 133.739023 36.944995S133.456444 36.911532 133.292847 36.911532C132.415369 36.911532 131.668025 37.253599 131.050814 37.937736S130.125 39.447298 130.125 40.414011C130.125 41.410471 130.467067 42.261921 131.151204 42.968366S132.653328 44.028034 133.60517 44.028034C135.241147 44.028034 136.601976 43.016703 137.687677 40.994039Z" fill="#010101" />
<path d="M6.673913 185.028839Q4.752717 186.113078 4.752717 188.20547Q4.752717 189.30873 5.4375 190.107643T7.339674 190.906557Q8.0625 190.906557 8.576087 190.526122T9.089674 189.879383Q9.089674 189.841339 8.747283 189.594057T8.119565 188.928296T7.834239 187.863078Q7.834239 186.68373 8.842391 186.01797T11.486413 185.352209Q15.557065 185.352209 15.557065 189.879383Q15.557065 191.743513 14.567935 192.865796T11.600543 194.102209H10.192935Q9.92663 194.102209 9.774457 194.33047T9.622283 194.863078Q9.622283 195.20547 9.774457 195.452752T10.192935 195.738078H11.600543Q13.084239 195.890252 13.978261 197.0696T14.872283 199.922861Q14.872283 201.748948 13.845109 202.719057T11.44837 203.689165Q10.154891 203.689165 9.222826 202.947317T8.290761 200.911991Q8.290761 200.075035 8.61413 199.789709T9.241848 199.447317T9.546196 199.352209Q9.546196 199.085904 9.032609 198.70547T7.796196 198.325035Q6.578804 198.325035 5.894022 199.085904T5.209239 201.026122Q5.209239 202.890252 6.959239 203.917426T11.486413 204.9446Q14.453804 204.9446 16.394022 203.651122T18.334239 199.922861Q18.334239 198.325035 17.211957 196.95547T13.997283 195.015252V194.863078Q16.127717 194.634817 17.6875 193.512535T19.247283 189.95547Q19.247283 186.873948 17.002717 185.409274T11.372283 183.9446Q8.595109 183.9446 6.673913 185.028839Z" fill="#010101" />
<path d="M12.312323 169.005961C12.327195 168.559785 12.345786 168.199126 12.368095 167.923985C12.390404 167.648844 12.446176 167.299339 12.535411 166.875472S12.732472 166.1021 12.858888 165.826959S13.17493 165.243212 13.427762 164.901145S13.978046 164.276499 14.320113 164.053411S15.093485 163.614671 15.614023 163.406457S16.729462 163.034643 17.398725 162.915663V162.469488H6.601275V162.915663C7.270538 163.034643 7.86544 163.201959 8.385977 163.417611S9.341536 163.852632 9.691041 164.07572S10.337996 164.585103 10.583392 164.934608S11.018414 165.592717 11.152266 165.860423S11.393944 166.477633 11.475744 166.908935S11.609596 167.686024 11.631905 167.946294C11.654214 168.206564 11.672804 168.559785 11.687677 169.005961C11.330737 168.351571 11.040722 167.890522 10.817635 167.622816C10.416076 167.11715 9.921564 166.715592 9.334101 166.418142C8.746637 166.120692 8.170325 165.971966 7.60517 165.971966C6.653328 165.971966 5.835341 166.325188 5.151204 167.031634S4.125 168.589529 4.125 169.585989C4.125 170.552702 4.433604 171.378127 5.050814 172.062264S6.415369 173.088468 7.292847 173.088468C7.590297 173.088468 7.86544 173.047569 8.118272 172.96577S8.623938 172.779863 8.876771 172.653447L9.345255 172.419204C8.765227 173.252065 8.475212 174.04031 8.475212 174.783935C8.475212 175.720904 8.820999 176.52402 9.512571 177.193284S11.033287 178.197179 12.0 178.197179S13.795857 177.862547 14.487429 177.193284S15.524788 175.720904 15.524788 174.783935C15.524788 174.04031 15.234773 173.252065 14.654745 172.419204C14.758853 172.463822 14.903861 172.530748 15.089766 172.619983S15.413244 172.776145 15.502479 172.820763S15.706976 172.909998 15.848265 172.954615S16.127125 173.032696 16.260977 173.055005S16.543556 173.088468 16.707153 173.088468C17.584631 173.088468 18.331975 172.746401 18.949186 172.062264S19.875 170.552702 19.875 169.585989C19.875 168.589529 19.532933 167.738079 18.848796 167.031634S17.346672 165.971966 16.39483 165.971966C14.758853 165.971966 13.398024 166.983297 12.312323 169.005961Z" fill="#010101" />
</svg>
