<svg width="25.000000" height="35.000000" id="card-lightheart1">
<rect x="0" y="0" rx="1.25" ry="1.25" width="25" height="35.0" stroke="rgba(1,1,1,0.333)" fill="#fffdfa" />
<path d="M16.615599 14.477716C16.615599 14.663416 16.555246 14.832869 16.43454 14.986072S16.253482 15.229805 16.253482 15.25766C16.253482 15.369081 16.316156 15.47818 16.441504 15.584958S16.694522 15.745125 16.824513 15.745125C16.963788 15.745125 17.079851 15.689415 17.172702 15.577994S17.311978 15.33194 17.311978 15.174095C17.311978 14.616992 17.049675 14.071494 16.52507 13.537604C16.000464 13.003714 15.464252 12.736769 14.916435 12.736769C14.424327 12.736769 13.876508 12.987465 13.272981 13.488858V13.057103C12.957288 12.704272 12.641597 12.527855 12.325905 12.527855C11.991643 12.527855 11.71077 12.662488 11.483287 12.931755S11.142061 13.535283 11.142061 13.93454C11.142061 14.120241 11.183844 14.384865 11.267409 14.728412C10.775302 15.053389 10.297121 15.215877 9.832869 15.215877C9.563603 15.215877 9.329155 15.123027 9.129526 14.937326S8.830084 14.533426 8.830084 14.28273C8.830084 14.050603 8.909007 13.881152 9.066852 13.774373S9.303621 13.553854 9.303621 13.433148C9.303621 13.163882 9.229341 12.94104 9.08078 12.764624S8.746518 12.5 8.523677 12.5C8.282266 12.5 8.082636 12.585887 7.924791 12.75766S7.688022 13.145311 7.688022 13.405292C7.688022 13.990251 7.989787 14.482358 8.593315 14.881616C9.196843 15.280873 9.791086 15.480501 10.376045 15.480501C10.5896 15.480501 10.928506 15.378366 11.392758 15.174095C11.513463 15.480501 11.796657 16.084029 12.24234 16.98468C12.270195 16.845404 12.284123 16.752553 12.284123 16.706128C12.284123 16.641133 12.281801 16.597029 12.277159 16.573816S12.256267 16.504178 12.228412 16.43454S12.168059 16.292943 12.130919 16.218663S12.031105 16.000464 11.942897 15.786908S11.754875 15.33194 11.643454 15.062674C11.78273 14.997679 12.123955 14.793408 12.667131 14.449861S13.723305 13.811514 14.206128 13.56546C14.688951 13.319405 15.05571 13.196379 15.306407 13.196379C15.659238 13.196379 15.965645 13.324048 16.225627 13.579387C16.485609 13.834726 16.615599 14.134169 16.615599 14.477716ZM11.518106 14.603064C11.45311 14.380223 11.420613 14.199164 11.420613 14.059889C11.420613 13.772052 11.504178 13.519035 11.671309 13.300836S12.028784 12.973538 12.24234 12.973538C12.363046 12.973538 12.469823 13.022284 12.562674 13.119777S12.70195 13.331013 12.70195 13.461003C12.70195 13.665274 12.576602 13.87883 12.325905 14.101671S11.805943 14.491643 11.518106 14.603064ZM12.270195 17.388579C11.768802 16.515784 11.155989 16.079387 10.431755 16.079387C10.004642 16.079387 9.637883 16.25116 9.331476 16.594708S8.871866 17.351439 8.871866 17.834262C8.871866 18.205664 8.955432 18.537604 9.122563 18.830084S9.496286 19.354689 9.74234 19.526462S10.255338 19.865366 10.543175 20.027855C10.831013 20.190344 11.097957 20.32962 11.344011 20.445682C11.590065 20.561746 11.796657 20.703343 11.963788 20.870474S12.214485 21.218663 12.214485 21.413649C12.214485 21.627205 12.133241 21.805943 11.970752 21.949861S11.610957 22.165738 11.37883 22.165738C10.756731 22.165738 10.38533 21.738625 10.264624 20.884401C10.171773 20.763695 10.046425 20.703343 9.888579 20.703343C9.712163 20.703343 9.568245 20.752089 9.456825 20.849582S9.289694 21.074745 9.289694 21.232591C9.289694 21.576138 9.512535 21.873259 9.958217 22.123955S10.923862 22.5 11.518106 22.5C12.660167 22.5 13.655989 22.077531 14.505571 21.232591C15.355153 20.38765 15.779944 19.39415 15.779944 18.252089C15.779944 17.51857 15.601208 16.91272 15.243733 16.43454S14.433611 15.71727 13.885794 15.71727C12.975859 15.71727 12.520891 16.241876 12.520891 17.291086Z" fill="#da0a0a" />
<path d="M24.726528 4.227813Q24.75 4.193908 24.75 4.146963Q24.744784 4.068722 24.718703 4.053073T24.65611 4.037425H24.609165Q24.452683 4.037425 24.379657 3.956576T24.262295 3.774012T24.20231 3.635786L23.289493 1.476322Q23.258197 1.398081 23.258197 1.351136Q23.258197 1.257246 23.331222 1.215517T23.53465 1.147708Q23.623323 1.13206 23.644188 1.116412T23.665052 1.027738Q23.665052 0.965145 23.631148 0.944281T23.524218 0.923416Q23.263413 0.923416 23.109538 0.962537T22.840909 1.11902T22.627049 1.476322L21.750745 3.635786Q21.672504 3.833997 21.599478 3.933103T21.380402 4.037425H21.349106Q21.296945 4.037425 21.27608 4.055681T21.25 4.146963Q21.25 4.193908 21.273472 4.227813T21.34389 4.261717Q21.67772 4.246069 21.91766 4.246069Q22.230626 4.246069 22.564456 4.261717Q22.611401 4.261717 22.634873 4.227813T22.658346 4.146963Q22.65313 4.073938 22.632265 4.055681T22.55924 4.037425Q22.381893 4.037425 22.308867 4.00352T22.235842 3.880942Q22.235842 3.813133 22.298435 3.635786L22.475782 3.20285H23.764158Q23.89456 3.526248 23.912817 3.578409T23.931073 3.635786Q23.993666 3.833997 23.993666 3.891374Q23.993666 3.980048 23.915425 4.008737T23.618107 4.037425H23.586811Q23.53465 4.037425 23.513785 4.055681T23.487705 4.146963Q23.487705 4.193908 23.511177 4.227813T23.581595 4.261717Q23.915425 4.246069 24.150149 4.246069Q24.317064 4.246069 24.65611 4.261717Q24.703055 4.261717 24.726528 4.227813ZM23.665052 2.978558H22.569672L23.096498 1.638021H23.112146Z" fill="#da0a0a" />
<path d="M22.996344 5.825074C22.947598 5.644712 22.868994 5.511877 22.760533 5.426571S22.532033 5.298611 22.400418 5.298611C22.251741 5.298611 22.124391 5.349795 22.018367 5.452163S21.859331 5.677615 21.859331 5.821418C21.859331 5.953033 21.891626 6.087086 21.956215 6.223576S22.102455 6.491682 22.201166 6.618423S22.400418 6.872514 22.502786 7.000474S22.703255 7.274064 22.797093 7.437365S22.957347 7.762748 22.996344 7.923611C23.040216 7.755436 23.110289 7.586651 23.206563 7.417257S23.402159 7.097967 23.504526 6.96757C23.606894 6.837173 23.706824 6.709213 23.804318 6.583691S23.982242 6.332037 24.045613 6.205296S24.140669 5.957908 24.140669 5.843353C24.140669 5.689802 24.088875 5.560624 23.985289 5.455819C23.881703 5.351013 23.754352 5.298611 23.603238 5.298611C23.313197 5.298611 23.110897 5.474099 22.996344 5.825074Z" fill="#da0a0a" />
<path d="M0.273472 30.772187Q0.25 30.806092 0.25 30.853037Q0.255216 30.931278 0.281297 30.946927T0.34389 30.962575H0.390835Q0.547317 30.962575 0.620343 31.043424T0.737705 31.225988T0.79769 31.364214L1.710507 33.523678Q1.741803 33.601919 1.741803 33.648864Q1.741803 33.742754 1.668778 33.784483T1.46535 33.852292Q1.376677 33.86794 1.355812 33.883588T1.334948 33.972262Q1.334948 34.034855 1.368852 34.055719T1.475782 34.076584Q1.736587 34.076584 1.890462 34.037463T2.159091 33.88098T2.372951 33.523678L3.249255 31.364214Q3.327496 31.166003 3.400522 31.066897T3.619598 30.962575H3.650894Q3.703055 30.962575 3.72392 30.944319T3.75 30.853037Q3.75 30.806092 3.726528 30.772187T3.65611 30.738283Q3.32228 30.753931 3.08234 30.753931Q2.769374 30.753931 2.435544 30.738283Q2.388599 30.738283 2.365127 30.772187T2.341654 30.853037Q2.34687 30.926062 2.367735 30.944319T2.44076 30.962575Q2.618107 30.962575 2.691133 30.99648T2.764158 31.119058Q2.764158 31.186867 2.701565 31.364214L2.524218 31.79715H1.235842Q1.10544 31.473752 1.087183 31.421591T1.068927 31.364214Q1.006334 31.166003 1.006334 31.108626Q1.006334 31.019952 1.084575 30.991263T1.381893 30.962575H1.413189Q1.46535 30.962575 1.486215 30.944319T1.512295 30.853037Q1.512295 30.806092 1.488823 30.772187T1.418405 30.738283Q1.084575 30.753931 0.849851 30.753931Q0.682936 30.753931 0.34389 30.738283Q0.296945 30.738283 0.273472 30.772187ZM1.334948 32.021442H2.430328L1.903502 33.361979H1.887854Z" fill="#da0a0a" />
<path d="M2.003656 29.174926C2.052402 29.355288 2.131006 29.488123 2.239467 29.573429S2.467967 29.701389 2.599582 29.701389C2.748259 29.701389 2.875609 29.650205 2.981633 29.547837S3.140669 29.322385 3.140669 29.178582C3.140669 29.046967 3.108374 28.912914 3.043785 28.776424S2.897545 28.508318 2.798834 28.381577S2.599582 28.127486 2.497214 27.999526S2.296745 27.725936 2.202907 27.562635S2.042653 27.237252 2.003656 27.076389C1.959784 27.244564 1.889711 27.413349 1.793437 27.582743S1.597841 27.902033 1.495474 28.03243C1.393106 28.162827 1.293176 28.290787 1.195682 28.416309S1.017758 28.667963 0.954387 28.794704S0.859331 29.042092 0.859331 29.156647C0.859331 29.310198 0.911125 29.439376 1.014711 29.544181C1.118297 29.648987 1.245648 29.701389 1.396762 29.701389C1.686803 29.701389 1.889103 29.525901 2.003656 29.174926Z" fill="#da0a0a" />
</svg>
