<svg width="25.000000" height="35.000000" id="card-lightclub13">
<rect x="0" y="0" rx="1.25" ry="1.25" width="25" height="35.0" stroke="rgba(1,1,1,0.333)" fill="#fffdfa" />
<rect x="5.0" y="3.5" width="15.0" height="28.0" stroke="#010101" fill="#fffdfa" />
<path d="M9.964589 9.281432C9.851275 9.281432 9.709632 9.3074 9.53966 9.359336S9.17847 9.491536 8.966006 9.600129S8.574126 9.885776 8.427762 10.131291S8.208215 10.660091 8.208215 10.981149C8.208215 11.236106 8.253069 11.462735 8.342776 11.661036S8.543438 12.038751 8.675637 12.199279C8.807838 12.359808 8.942398 12.539223 9.07932 12.737523S9.338999 13.22147 9.447592 13.594463S9.619925 14.408911 9.63881 14.918826C9.657696 15.551499 10.611426 15.867834 12.5 15.867834C14.379136 15.867834 15.332861 15.551499 15.36119 14.918826C15.398961 14.257825 15.495751 13.71486 15.651558 13.289931S15.967894 12.576994 16.133144 12.425908S16.44948 12.081244 16.586402 11.845172S16.791785 11.321092 16.791785 10.981149C16.791785 10.650649 16.718602 10.36264 16.572238 10.117126S16.246459 9.694558 16.033994 9.585965S15.62795 9.399468 15.453258 9.352254S15.12984 9.281432 15.007082 9.281432C14.544381 9.281432 14.081681 9.465568 13.61898 9.83384C13.61898 9.390026 13.576487 9.07605 13.491501 8.891914S13.18933 8.502395 12.839943 8.275766V7.935823L13.42068 7.59588V7.085965H12.896601L12.712465 6.547721H12.287535L12.103399 7.085965H11.57932V7.59588L12.160057 7.935823V8.275766C11.81067 8.492952 11.593484 8.703057 11.508499 8.906078S11.38102 9.418354 11.38102 9.83384C11.258262 9.711083 11.062323 9.588326 10.793201 9.465568S10.247875 9.281432 9.964589 9.281432ZM12.5 11.094463C12.443343 10.990592 12.363078 10.858391 12.259207 10.697863S12.086874 10.42638 12.053824 10.365002S11.987724 10.209194 11.954674 10.081715S11.905099 9.805511 11.905099 9.63554C11.905099 9.078411 12.098678 8.799846 12.485836 8.799846C12.89188 8.799846 13.094901 9.078411 13.094901 9.63554C13.094901 9.805511 13.078376 9.954237 13.045326 10.081715S12.979226 10.305983 12.946176 10.372084S12.844665 10.549138 12.740793 10.704945S12.556657 10.990592 12.5 11.094463ZM9.978754 9.791347C10.441455 9.791347 10.918319 10.029779 11.409348 10.506645S12.178942 11.604378 12.245042 12.369251C12.245042 12.59588 11.38102 12.709194 9.652975 12.709194C9.634089 12.690309 9.525496 12.558108 9.327195 12.312594C9.128895 12.067079 8.977809 11.84281 8.873938 11.639789S8.71813 11.24555 8.71813 11.066135C8.71813 10.688419 8.838527 10.381527 9.07932 10.145455S9.619925 9.791347 9.978754 9.791347ZM9.907932 13.275766C10.181775 13.256881 10.476865 13.235634 10.793201 13.212027C11.109537 13.18842 11.331445 13.171895 11.458924 13.162452S11.725684 13.138845 11.876771 13.119959S12.145892 13.082188 12.230878 13.063302S12.405571 13.016088 12.5 12.978316C12.613314 13.02553 12.750237 13.065663 12.910765 13.098713S13.215297 13.153009 13.342776 13.162452S13.722851 13.18842 14.100567 13.212027S14.808782 13.256881 15.092068 13.275766C14.997639 13.634595 14.936261 14.031196 14.907932 14.465568C14.256374 14.257825 13.453725 14.153953 12.5 14.153953C11.527384 14.153953 10.724745 14.257825 10.092068 14.465568C10.063739 13.993425 10.002361 13.596825 9.907932 13.275766ZM15.021246 9.791347C15.36119 9.791347 15.656279 9.909383 15.906516 10.145455S16.28187 10.688419 16.28187 11.066135C16.28187 11.198335 16.244098 11.3447 16.168555 11.505228S16.017469 11.802679 15.941926 11.915993S15.75779 12.175672 15.616147 12.355087C15.474504 12.534502 15.384797 12.652537 15.347025 12.709194C13.61898 12.709194 12.754958 12.59588 12.754958 12.369251C12.821058 11.604378 13.097262 10.98351 13.583569 10.506645S14.549103 9.791347 15.021246 9.791347ZM12.485836 14.720526C13.807837 14.720526 14.468839 14.843283 14.468839 15.088798C14.468839 15.173783 14.24221 15.239884 13.788952 15.287098S12.906044 15.357919 12.5 15.357919C11.187441 15.357919 10.531161 15.268212 10.531161 15.088798C10.531161 14.843283 11.18272 14.720526 12.485836 14.720526Z" fill="#010101" />
<path d="M15.035411 25.718568C15.148725 25.718568 15.290368 25.6926 15.46034 25.640664S15.82153 25.508464 16.033994 25.399871S16.425874 25.114224 16.572238 24.868709S16.791785 24.339909 16.791785 24.018851C16.791785 23.763894 16.746931 23.537265 16.657224 23.338964S16.456562 22.961249 16.324363 22.800721C16.192162 22.640192 16.057602 22.460777 15.92068 22.262477S15.661001 21.77853 15.552408 21.405537S15.380075 20.591089 15.36119 20.081174C15.342304 19.448501 14.388574 19.132166 12.5 19.132166C10.620864 19.132166 9.667139 19.448501 9.63881 20.081174C9.601039 20.742175 9.504249 21.28514 9.348442 21.710069S9.032106 22.423006 8.866856 22.574092S8.55052 22.918756 8.413598 23.154828S8.208215 23.678908 8.208215 24.018851C8.208215 24.349351 8.281398 24.63736 8.427762 24.882874S8.753541 25.305442 8.966006 25.414035S9.37205 25.600532 9.546742 25.647746S9.87016 25.718568 9.992918 25.718568C10.455619 25.718568 10.918319 25.534432 11.38102 25.16616C11.38102 25.609974 11.423513 25.92395 11.508499 26.108086S11.81067 26.497605 12.160057 26.724234V27.064177L11.57932 27.40412V27.914035H12.103399L12.287535 28.452279H12.712465L12.896601 27.914035H13.42068V27.40412L12.839943 27.064177V26.724234C13.18933 26.507048 13.406516 26.296943 13.491501 26.093922S13.61898 25.581646 13.61898 25.16616C13.741738 25.288917 13.937677 25.411674 14.206799 25.534432S14.752125 25.718568 15.035411 25.718568ZM12.5 23.905537C12.556657 24.009408 12.636922 24.141609 12.740793 24.302137S12.913126 24.57362 12.946176 24.634998S13.012276 24.790806 13.045326 24.918285S13.094901 25.194489 13.094901 25.36446C13.094901 25.921589 12.901322 26.200154 12.514164 26.200154C12.10812 26.200154 11.905099 25.921589 11.905099 25.36446C11.905099 25.194489 11.921624 25.045763 11.954674 24.918285S12.020774 24.694017 12.053824 24.627916S12.155335 24.450862 12.259207 24.295055S12.443343 24.009408 12.5 23.905537ZM15.021246 25.208653C14.558545 25.208653 14.081681 24.970221 13.590652 24.493355S12.821058 23.395622 12.754958 22.630749C12.754958 22.40412 13.61898 22.290806 15.347025 22.290806C15.365911 22.309691 15.474504 22.441892 15.672805 22.687406C15.871105 22.932921 16.022191 23.15719 16.126062 23.360211S16.28187 23.75445 16.28187 23.933865C16.28187 24.311581 16.161473 24.618473 15.92068 24.854545S15.380075 25.208653 15.021246 25.208653ZM15.092068 21.724234C14.818225 21.743119 14.523135 21.764366 14.206799 21.787973C13.890463 21.81158 13.668555 21.828105 13.541076 21.837548S13.274316 21.861155 13.123229 21.880041S12.854108 21.917812 12.769122 21.936698S12.594429 21.983912 12.5 22.021684C12.386686 21.97447 12.249763 21.934337 12.089235 21.901287S11.784703 21.846991 11.657224 21.837548S11.277149 21.81158 10.899433 21.787973S10.191218 21.743119 9.907932 21.724234C10.002361 21.365405 10.063739 20.968804 10.092068 20.534432C10.743626 20.742175 11.546275 20.846047 12.5 20.846047C13.472616 20.846047 14.275255 20.742175 14.907932 20.534432C14.936261 21.006575 14.997639 21.403175 15.092068 21.724234ZM9.978754 25.208653C9.63881 25.208653 9.343721 25.090617 9.093484 24.854545S8.71813 24.311581 8.71813 23.933865C8.71813 23.801665 8.755902 23.6553 8.831445 23.494772S8.982531 23.197321 9.058074 23.084007S9.24221 22.824328 9.383853 22.644913C9.525496 22.465498 9.615203 22.347463 9.652975 22.290806C11.38102 22.290806 12.245042 22.40412 12.245042 22.630749C12.178942 23.395622 11.902738 24.01649 11.416431 24.493355S10.450897 25.208653 9.978754 25.208653ZM12.514164 20.279474C11.192163 20.279474 10.531161 20.156717 10.531161 19.911202C10.531161 19.826217 10.75779 19.760116 11.211048 19.712902S12.093956 19.642081 12.5 19.642081C13.812559 19.642081 14.468839 19.731788 14.468839 19.911202C14.468839 20.156717 13.81728 20.279474 12.514164 20.279474Z" fill="#010101" />
<path d="M24.726027 4.254667Q24.75 4.22004 24.75 4.172095Q24.744673 4.092186 24.718037 4.076204T24.616819 4.060223Q24.462329 4.060223 24.387747 4.004287T24.294521 3.865778T24.270548 3.650025V1.535109Q24.275875 1.401927 24.294521 1.319355T24.387747 1.180847T24.616819 1.124911H24.648782Q24.702055 1.124911 24.723364 1.106265T24.75 1.013039Q24.75 0.965093 24.726027 0.930466T24.65411 0.895839Q24.307839 0.911821 24.025495 0.911821Q23.70586 0.911821 23.359589 0.895839Q23.311644 0.895839 23.287671 0.930466T23.263699 1.013039Q23.269026 1.092947 23.295662 1.108929T23.39688 1.124911Q23.55137 1.124911 23.625951 1.180847T23.719178 1.319355T23.743151 1.535109V2.49934Q23.657915 2.483358 23.55137 2.408777T23.290335 2.201014Q22.992009 1.923997 22.539193 1.385946Q22.443303 1.279401 22.443303 1.215474Q22.443303 1.135565 22.587139 1.130238Q22.624429 1.124911 22.637747 1.100938T22.66172 1.018366Q22.66172 0.970421 22.635084 0.93313T22.56583 0.895839Q22.379376 0.911821 21.979833 0.911821Q21.851979 0.911821 21.606925 0.901166L21.495053 0.895839Q21.447108 0.895839 21.420472 0.930466T21.393836 1.018366Q21.399163 1.092947 21.425799 1.111593T21.500381 1.130238Q21.71347 1.119583 21.902588 1.199492T22.299467 1.487163L23.162481 2.387468Q22.976027 2.616539 22.778919 2.824302T22.304795 3.309081Q22.166286 3.447589 21.974505 3.650025Q21.915906 3.708625 21.894597 3.735261Q21.724125 3.905733 21.625571 3.974987T21.383181 4.060223Q21.372527 4.060223 21.335236 4.062886T21.273973 4.092186T21.25 4.172095Q21.25 4.22004 21.273973 4.254667T21.34589 4.289294Q21.409817 4.283967 21.500381 4.283967Q21.692161 4.273312 21.798706 4.273312H22.13965Q22.842846 3.490207 23.39688 2.850938Q23.567352 2.65383 23.743151 2.637848V3.650025Q23.737823 3.783206 23.719178 3.865778T23.625951 4.004287T23.39688 4.060223H23.364916Q23.311644 4.060223 23.290335 4.078868T23.263699 4.172095Q23.263699 4.22004 23.287671 4.254667T23.359589 4.289294Q23.700533 4.273312 24.020167 4.273312Q24.307839 4.273312 24.65411 4.289294Q24.702055 4.289294 24.726027 4.254667Z" fill="#010101" />
<path d="M22.947946 6.83234C22.945467 6.906702 22.942369 6.966812 22.938651 7.012669C22.934933 7.058526 22.925637 7.116777 22.910765 7.187421S22.877921 7.316317 22.856852 7.362173S22.804178 7.459465 22.76204 7.516476S22.670326 7.620583 22.613314 7.657765S22.484419 7.730888 22.397663 7.765591S22.211756 7.82756 22.100212 7.847389V7.921752H23.899788V7.847389C23.788244 7.827559 23.689093 7.799674 23.602337 7.763732S23.443077 7.691228 23.384826 7.654047S23.277001 7.569149 23.236101 7.510899S23.163598 7.401214 23.141289 7.356596S23.101009 7.253728 23.087376 7.181844S23.065067 7.052329 23.061349 7.008951C23.057631 6.965573 23.054533 6.906702 23.052054 6.83234C23.111544 6.941405 23.15988 7.018246 23.197061 7.062864C23.263987 7.147142 23.346406 7.214068 23.444317 7.263643C23.542227 7.313218 23.638279 7.338006 23.732472 7.338006C23.891112 7.338006 24.027443 7.279135 24.141466 7.161394S24.3125 6.901745 24.3125 6.735668C24.3125 6.57455 24.261066 6.436979 24.158198 6.322956S23.930772 6.151922 23.784525 6.151922C23.734951 6.151922 23.689093 6.158739 23.646955 6.172372S23.562677 6.203356 23.520538 6.224426L23.442458 6.263466C23.539129 6.124656 23.587465 5.993282 23.587465 5.869344C23.587465 5.713183 23.529834 5.57933 23.414572 5.467786S23.161119 5.30047 23.0 5.30047S22.700691 5.356242 22.585428 5.467786S22.412535 5.713183 22.412535 5.869344C22.412535 5.993282 22.460871 6.124656 22.557542 6.263466C22.540191 6.25603 22.516023 6.244875 22.485039 6.230003S22.431126 6.203976 22.416254 6.19654S22.382171 6.181667 22.358623 6.174231S22.312146 6.161217 22.289837 6.157499S22.242741 6.151922 22.215475 6.151922C22.069228 6.151922 21.944671 6.208933 21.841802 6.322956S21.6875 6.57455 21.6875 6.735668C21.6875 6.901745 21.744511 7.043653 21.858534 7.161394S22.108888 7.338006 22.267528 7.338006C22.540191 7.338006 22.766996 7.16945 22.947946 6.83234Z" fill="#010101" />
<path d="M0.273973 30.745333Q0.25 30.77996 0.25 30.827905Q0.255327 30.907814 0.281963 30.923796T0.383181 30.939777Q0.537671 30.939777 0.612253 30.995713T0.705479 31.134222T0.729452 31.349975V33.464891Q0.724125 33.598073 0.705479 33.680645T0.612253 33.819153T0.383181 33.875089H0.351218Q0.297945 33.875089 0.276636 33.893735T0.25 33.986961Q0.25 34.034907 0.273973 34.069534T0.34589 34.104161Q0.692161 34.088179 0.974505 34.088179Q1.29414 34.088179 1.640411 34.104161Q1.688356 34.104161 1.712329 34.069534T1.736301 33.986961Q1.730974 33.907053 1.704338 33.891071T1.60312 33.875089Q1.44863 33.875089 1.374049 33.819153T1.280822 33.680645T1.256849 33.464891V32.50066Q1.342085 32.516642 1.44863 32.591223T1.709665 32.798986Q2.007991 33.076003 2.460807 33.614054Q2.556697 33.720599 2.556697 33.784526Q2.556697 33.864435 2.412861 33.869762Q2.375571 33.875089 2.362253 33.899062T2.33828 33.981634Q2.33828 34.029579 2.364916 34.06687T2.43417 34.104161Q2.620624 34.088179 3.020167 34.088179Q3.148021 34.088179 3.393075 34.098834L3.504947 34.104161Q3.552892 34.104161 3.579528 34.069534T3.606164 33.981634Q3.600837 33.907053 3.574201 33.888407T3.499619 33.869762Q3.28653 33.880417 3.097412 33.800508T2.700533 33.512837L1.837519 32.612532Q2.023973 32.383461 2.221081 32.175698T2.695205 31.690919Q2.833714 31.552411 3.025495 31.349975Q3.084094 31.291375 3.105403 31.264739Q3.275875 31.094267 3.374429 31.025013T3.616819 30.939777Q3.627473 30.939777 3.664764 30.937114T3.726027 30.907814T3.75 30.827905Q3.75 30.77996 3.726027 30.745333T3.65411 30.710706Q3.590183 30.716033 3.499619 30.716033Q3.307839 30.726688 3.201294 30.726688H2.86035Q2.157154 31.509793 1.60312 32.149062Q1.432648 32.34617 1.256849 32.362152V31.349975Q1.262177 31.216794 1.280822 31.134222T1.374049 30.995713T1.60312 30.939777H1.635084Q1.688356 30.939777 1.709665 30.921132T1.736301 30.827905Q1.736301 30.77996 1.712329 30.745333T1.640411 30.710706Q1.299467 30.726688 0.979833 30.726688Q0.692161 30.726688 0.34589 30.710706Q0.297945 30.710706 0.273973 30.745333Z" fill="#010101" />
<path d="M2.052054 28.16766C2.054533 28.093298 2.057631 28.033188 2.061349 27.987331C2.065067 27.941474 2.074363 27.883223 2.089235 27.812579S2.122079 27.683683 2.143148 27.637827S2.195822 27.540535 2.23796 27.483524S2.329674 27.379417 2.386686 27.342235S2.515581 27.269112 2.602337 27.234409S2.788244 27.17244 2.899788 27.152611V27.078248H1.100212V27.152611C1.211756 27.172441 1.310907 27.200326 1.397663 27.236268S1.556923 27.308772 1.615174 27.345953S1.722999 27.430851 1.763899 27.489101S1.836402 27.598786 1.858711 27.643404S1.898991 27.746272 1.912624 27.818156S1.934933 27.947671 1.938651 27.991049C1.942369 28.034427 1.945467 28.093298 1.947946 28.16766C1.888456 28.058595 1.84012 27.981754 1.802939 27.937136C1.736013 27.852858 1.653594 27.785932 1.555683 27.736357C1.457773 27.686782 1.361721 27.661994 1.267528 27.661994C1.108888 27.661994 0.972557 27.720865 0.858534 27.838606S0.6875 28.098255 0.6875 28.264332C0.6875 28.42545 0.738934 28.563021 0.841802 28.677044S1.069228 28.848078 1.215475 28.848078C1.265049 28.848078 1.310907 28.841261 1.353045 28.827628S1.437323 28.796644 1.479462 28.775574L1.557542 28.736534C1.460871 28.875344 1.412535 29.006718 1.412535 29.130656C1.412535 29.286817 1.470166 29.42067 1.585428 29.532214S1.838881 29.69953 2.0 29.69953S2.299309 29.643758 2.414572 29.532214S2.587465 29.286817 2.587465 29.130656C2.587465 29.006718 2.539129 28.875344 2.442458 28.736534C2.459809 28.74397 2.483977 28.755125 2.514961 28.769997S2.568874 28.796024 2.583746 28.80346S2.617829 28.818333 2.641377 28.825769S2.687854 28.838783 2.710163 28.842501S2.757259 28.848078 2.784525 28.848078C2.930772 28.848078 3.055329 28.791067 3.158198 28.677044S3.3125 28.42545 3.3125 28.264332C3.3125 28.098255 3.255489 27.956347 3.141466 27.838606S2.891112 27.661994 2.732472 27.661994C2.459809 27.661994 2.233004 27.83055 2.052054 28.16766Z" fill="#010101" />
</svg>
