<svg width="25.000000" height="35.000000" id="card-lightspade1">
<rect x="0" y="0" rx="1.25" ry="1.25" width="25" height="35.0" stroke="rgba(1,1,1,0.333)" fill="#fffdfa" />
<path d="M17.875887 18.102837C17.875887 17.970449 17.833333 17.861702 17.748227 17.776596S17.549645 17.648936 17.407801 17.648936C17.228132 17.648936 17.08156 17.738771 16.968085 17.91844C17.034279 18.117021 17.067376 18.268322 17.067376 18.37234C17.067376 18.599291 16.991726 18.788416 16.840426 18.939716S16.5 19.166667 16.27305 19.166667C15.942081 19.166667 15.682033 19.010638 15.492908 18.698582C15.398345 18.556738 15.317967 18.147755 15.251773 17.471631S15.043735 16.291962 14.826241 15.960993C14.62766 15.667848 14.360521 15.431443 14.024823 15.251773C13.689125 15.072104 13.346336 14.98227 12.996454 14.98227C12.608748 14.98227 12.27305 15.105201 11.989362 15.351064C11.705674 15.596926 11.56383 15.894799 11.56383 16.244681C11.56383 16.490543 11.644208 16.797872 11.804965 17.166667C11.275414 16.731678 10.760047 16.514184 10.258865 16.514184H10.14539C10.050827 16.306146 9.911348 16.117021 9.72695 15.946809S9.367613 15.646572 9.202128 15.556738S8.890071 15.353428 8.762411 15.216312C8.634752 15.079196 8.570922 14.925532 8.570922 14.755319S8.660756 14.438535 8.840426 14.315603H8.698582C8.405437 14.315603 8.169031 14.395981 7.989362 14.556738S7.719858 14.925532 7.719858 15.180851S7.804965 15.632387 7.975177 15.769504S8.339244 15.986997 8.556738 16.010638S8.994089 16.086288 9.216312 16.166667S9.587471 16.362884 9.663121 16.514184C9.086288 16.608747 8.57565 16.868794 8.131206 17.294326S7.455082 18.173759 7.43617 18.656028C7.265957 18.835698 7.161939 19.062648 7.124113 19.336879H7.43617C7.483451 19.724586 7.618203 20.034279 7.840426 20.265957S8.343972 20.613475 8.684397 20.613475C8.958628 20.613475 9.171394 20.540189 9.322695 20.393617S9.549645 20.041372 9.549645 19.776596C9.549645 19.663121 9.540189 19.516549 9.521277 19.336879C9.313238 19.516549 9.105201 19.606383 8.897163 19.606383C8.518912 19.606383 8.282506 19.403074 8.187943 18.996454C8.774231 18.750591 9.247045 18.431443 9.606383 18.039007S10.14539 17.247045 10.14539 16.840426V16.812057C10.457447 16.821513 10.743499 16.899527 11.003546 17.046099C11.263593 17.192671 11.445627 17.374705 11.549645 17.592199C11.199763 17.781323 10.958628 17.963357 10.826241 18.138298C10.693853 18.313238 10.62766 18.537826 10.62766 18.812057C10.62766 19.332152 10.885343 19.774231 11.400709 20.138298C11.916075 20.502365 12.537826 20.684397 13.265957 20.684397C13.852245 20.684397 14.516549 20.526004 15.258865 20.20922C16.001182 19.892435 16.622932 19.530733 17.124113 19.124113C17.625295 18.717494 17.875887 18.377068 17.875887 18.102837ZM8.131206 18.457447V18.400709C8.131206 18.003546 8.301418 17.641844 8.641844 17.315603S9.360521 16.821513 9.776596 16.812057C9.795508 16.925532 9.804965 16.991726 9.804965 17.010638C9.804965 17.256501 9.686761 17.490543 9.450355 17.712766S8.989362 18.098109 8.776596 18.202128S8.348699 18.391252 8.131206 18.457447Z" fill="#010101" />
<path d="M24.726528 4.227813Q24.75 4.193908 24.75 4.146963Q24.744784 4.068722 24.718703 4.053073T24.65611 4.037425H24.609165Q24.452683 4.037425 24.379657 3.956576T24.262295 3.774012T24.20231 3.635786L23.289493 1.476322Q23.258197 1.398081 23.258197 1.351136Q23.258197 1.257246 23.331222 1.215517T23.53465 1.147708Q23.623323 1.13206 23.644188 1.116412T23.665052 1.027738Q23.665052 0.965145 23.631148 0.944281T23.524218 0.923416Q23.263413 0.923416 23.109538 0.962537T22.840909 1.11902T22.627049 1.476322L21.750745 3.635786Q21.672504 3.833997 21.599478 3.933103T21.380402 4.037425H21.349106Q21.296945 4.037425 21.27608 4.055681T21.25 4.146963Q21.25 4.193908 21.273472 4.227813T21.34389 4.261717Q21.67772 4.246069 21.91766 4.246069Q22.230626 4.246069 22.564456 4.261717Q22.611401 4.261717 22.634873 4.227813T22.658346 4.146963Q22.65313 4.073938 22.632265 4.055681T22.55924 4.037425Q22.381893 4.037425 22.308867 4.00352T22.235842 3.880942Q22.235842 3.813133 22.298435 3.635786L22.475782 3.20285H23.764158Q23.89456 3.526248 23.912817 3.578409T23.931073 3.635786Q23.993666 3.833997 23.993666 3.891374Q23.993666 3.980048 23.915425 4.008737T23.618107 4.037425H23.586811Q23.53465 4.037425 23.513785 4.055681T23.487705 4.146963Q23.487705 4.193908 23.511177 4.227813T23.581595 4.261717Q23.915425 4.246069 24.150149 4.246069Q24.317064 4.246069 24.65611 4.261717Q24.703055 4.261717 24.726528 4.227813ZM23.665052 2.978558H22.569672L23.096498 1.638021H23.112146Z" fill="#010101" />
<path d="M22.938564 7.037441C22.926152 7.166519 22.895124 7.280703 22.845479 7.379994C22.795833 7.479285 22.743706 7.554994 22.689096 7.607122S22.565603 7.70393 22.482447 7.741164C22.399291 7.778398 22.335372 7.8026 22.290691 7.813771S22.191401 7.835491 22.126862 7.84542C22.116933 7.847902 22.109486 7.849143 22.104521 7.849143V7.923611H23.895479V7.849143C23.684486 7.811909 23.524379 7.757299 23.41516 7.685313C23.206649 7.546306 23.088741 7.330349 23.061436 7.037441C23.190514 7.236022 23.356826 7.335313 23.560372 7.335313C23.691933 7.335313 23.804255 7.289391 23.89734 7.197547S24.036968 6.994001 24.036968 6.862441C24.036968 6.750739 24.009663 6.648966 23.955053 6.557122C23.900443 6.465278 23.829698 6.381501 23.742819 6.305792S23.566578 6.151271 23.474734 6.069356C23.38289 5.987441 23.292287 5.880083 23.202926 5.747281S23.045302 5.464923 22.998138 5.298611C22.95594 5.462441 22.89078 5.610136 22.80266 5.741696S22.623936 5.979994 22.530851 6.061909S22.347784 6.223256 22.260904 6.300207S22.10266 6.461554 22.046809 6.553398S21.963032 6.748256 21.963032 6.862441C21.963032 6.994001 22.009574 7.105703 22.10266 7.197547S22.308067 7.335313 22.439628 7.335313C22.643174 7.335313 22.809486 7.236022 22.938564 7.037441Z" fill="#010101" />
<path d="M0.273472 30.772187Q0.25 30.806092 0.25 30.853037Q0.255216 30.931278 0.281297 30.946927T0.34389 30.962575H0.390835Q0.547317 30.962575 0.620343 31.043424T0.737705 31.225988T0.79769 31.364214L1.710507 33.523678Q1.741803 33.601919 1.741803 33.648864Q1.741803 33.742754 1.668778 33.784483T1.46535 33.852292Q1.376677 33.86794 1.355812 33.883588T1.334948 33.972262Q1.334948 34.034855 1.368852 34.055719T1.475782 34.076584Q1.736587 34.076584 1.890462 34.037463T2.159091 33.88098T2.372951 33.523678L3.249255 31.364214Q3.327496 31.166003 3.400522 31.066897T3.619598 30.962575H3.650894Q3.703055 30.962575 3.72392 30.944319T3.75 30.853037Q3.75 30.806092 3.726528 30.772187T3.65611 30.738283Q3.32228 30.753931 3.08234 30.753931Q2.769374 30.753931 2.435544 30.738283Q2.388599 30.738283 2.365127 30.772187T2.341654 30.853037Q2.34687 30.926062 2.367735 30.944319T2.44076 30.962575Q2.618107 30.962575 2.691133 30.99648T2.764158 31.119058Q2.764158 31.186867 2.701565 31.364214L2.524218 31.79715H1.235842Q1.10544 31.473752 1.087183 31.421591T1.068927 31.364214Q1.006334 31.166003 1.006334 31.108626Q1.006334 31.019952 1.084575 30.991263T1.381893 30.962575H1.413189Q1.46535 30.962575 1.486215 30.944319T1.512295 30.853037Q1.512295 30.806092 1.488823 30.772187T1.418405 30.738283Q1.084575 30.753931 0.849851 30.753931Q0.682936 30.753931 0.34389 30.738283Q0.296945 30.738283 0.273472 30.772187ZM1.334948 32.021442H2.430328L1.903502 33.361979H1.887854Z" fill="#010101" />
<path d="M2.061436 27.962559C2.073848 27.833481 2.104876 27.719297 2.154521 27.620006C2.204167 27.520715 2.256294 27.445006 2.310904 27.392878S2.434397 27.29607 2.517553 27.258836C2.600709 27.221602 2.664628 27.1974 2.709309 27.186229S2.808599 27.164509 2.873138 27.15458C2.883067 27.152098 2.890514 27.150857 2.895479 27.150857V27.076389H1.104521V27.150857C1.315514 27.188091 1.475621 27.242701 1.58484 27.314687C1.793351 27.453694 1.911259 27.669651 1.938564 27.962559C1.809486 27.763978 1.643174 27.664687 1.439628 27.664687C1.308067 27.664687 1.195745 27.710609 1.10266 27.802453S0.963032 28.005999 0.963032 28.137559C0.963032 28.249261 0.990337 28.351034 1.044947 28.442878C1.099557 28.534722 1.170302 28.618499 1.257181 28.694208S1.433422 28.848729 1.525266 28.930644C1.61711 29.012559 1.707713 29.119917 1.797074 29.252719S1.954698 29.535077 2.001862 29.701389C2.04406 29.537559 2.10922 29.389864 2.19734 29.258304S2.376064 29.020006 2.469149 28.938091S2.652216 28.776744 2.739096 28.699793S2.89734 28.538446 2.953191 28.446602S3.036968 28.251744 3.036968 28.137559C3.036968 28.005999 2.990426 27.894297 2.89734 27.802453S2.691933 27.664687 2.560372 27.664687C2.356826 27.664687 2.190514 27.763978 2.061436 27.962559Z" fill="#010101" />
</svg>
