<svg width="150.000000" height="210.000000" id="card-webheart13">
<radialGradient id="card-webwhitegradient" cx="75.0" cy="105.0" r="150" gradientTransform="matrix(1 0 0 1 0 -.25)" gradientUnits="userSpaceOnUse">
<stop stop-color="#FDFAF4" offset=".15"/>
<stop stop-color="#FDF9F2" offset=".35"/>
<stop stop-color="#FCF7F1" offset=".5"/>
<stop stop-color="#FDFDF8" offset=".75"/>
<stop stop-color="#FFFDFA" offset="1"/>
</radialGradient>
<rect x="0" y="0" rx="7.5" ry="7.5" width="150" height="210.0" stroke="rgba(1,1,1,0.333)" fill="url(#card-webwhitegradient)" />
<rect x="30.0" y="21.0" width="90.0" height="168.0" stroke="#010101" fill="#fffdfa" />
<path d="M60.334262 58.806555C61.114206 58.806555 62.130919 59.071179 63.384401 59.600427S66.002783 60.937474 67.479109 62.023825S70.222838 64.68399 71.281337 66.745274S72.869081 71.146391 72.869081 73.764773C72.869081 74.767558 73.593315 75.268951 75.041783 75.268951C76.545961 75.268951 77.29805 74.767558 77.29805 73.764773C77.29805 71.034965 77.813371 68.611566 78.844011 66.494578S81.142061 62.803767 82.64624 61.773129S85.515318 59.990402 86.740947 59.516862C87.966577 59.043324 88.997214 58.806555 89.832869 58.806555C92.116989 58.806555 93.927577 59.419368 95.264624 60.644995S97.270195 63.569786 97.270195 65.742488C97.270195 66.522432 96.852368 67.859477 96.016713 69.75363S93.816159 73.569789 91.922006 75.519647S87.938716 78.444438 85.654596 78.444438C83.481894 78.444438 79.972145 78.026611 75.125348 77.190956C70.222838 78.026611 66.685237 78.444438 64.512535 78.444438C62.785513 78.444438 61.128134 77.873408 59.54039 76.731346S56.713095 74.252235 55.821727 72.720204C54.930359 71.188174 54.220053 69.767561 53.690808 68.458366S52.896936 66.243881 52.896936 65.742488C52.896936 63.569786 53.56546 61.870625 54.902507 60.644995S58.050142 58.806555 60.334262 58.806555ZM70.86351 74.099034C70.807799 72.093463 70.487465 70.282876 69.902507 68.667279S68.621173 65.770341 67.81337 64.823268S66.100279 63.096246 65.097493 62.483435S63.21727 61.452798 62.465181 61.229954S61.058499 60.895692 60.501393 60.895692C58.830084 60.895692 57.451253 61.327447 56.364903 62.190956S54.735376 64.23831 54.735376 65.742488C54.735376 66.188171 54.94429 66.940257 55.362117 67.998756S56.392755 70.21324 57.200557 71.466722S59.164345 73.820486 60.668524 74.767558S63.844011 76.188171 65.682451 76.188171C69.136487 76.188171 70.86351 75.491792 70.86351 74.099034ZM62.674095 86.968115C62.674095 85.51965 66.768802 84.795413 74.958217 84.795413C78.635097 84.795413 81.629524 84.990399 83.941504 85.380371S87.409471 86.271739 87.409471 86.88455C87.409471 87.720204 86.657382 88.138032 85.153203 88.138032C84.986072 88.138032 83.342616 87.998756 80.222841 87.720204S75.376045 87.302377 75.041783 87.302377C74.874652 87.302377 73.245125 87.441653 70.153203 87.720204S65.348189 88.138032 65.013928 88.138032C63.454036 88.138032 62.674095 87.748059 62.674095 86.968115ZM81.727019 59.057252C81.727019 56.661706 81.476323 54.906831 80.97493 53.792628S79.164343 51.397082 77.047354 49.948617V48.026611L80.473538 45.937474V42.929118H77.381616L76.37883 39.837196H73.537604L72.451253 42.929118H69.442897V45.937474L72.785515 48.026611V49.948617C70.835657 51.229951 69.582175 52.44165 69.02507 53.583714S68.189415 56.550288 68.189415 59.057252C65.571033 56.940263 62.869078 55.881764 60.083565 55.881764C57.186627 55.881764 54.721446 56.828837 52.688022 58.72299S49.637883 62.984828 49.637883 65.826054C49.637883 68.110174 50.724234 70.756416 52.896936 73.764773C54.233983 75.603213 55.139273 76.92633 55.612813 77.734132S56.587747 79.934686 57.116992 81.912405S57.938718 86.243878 57.994429 88.973686C58.105849 92.761984 63.788298 94.656137 75.041783 94.656137C86.183816 94.656137 91.83844 92.761984 92.005571 88.973686C92.061281 86.132461 92.40947 83.611566 93.050139 81.411012S94.261838 77.720201 94.763231 76.94026S96.044565 75.073968 97.103064 73.681207C99.275766 70.728564 100.362117 68.110174 100.362117 65.826054C100.362117 63.040541 99.345401 60.686778 97.311978 58.764773C95.278554 56.842767 92.841226 55.881764 90.0 55.881764C87.103061 55.881764 84.345401 56.940263 81.727019 59.057252ZM89.749304 60.895692C89.025069 60.895692 88.14763 61.104605 87.116992 61.522433C86.086354 61.94026 84.94429 62.608784 83.690808 63.528004S81.392758 65.839984 80.557103 67.706277S79.303621 71.731349 79.303621 74.1826C79.303621 75.519647 81.002783 76.188171 84.401114 76.188171C86.295267 76.188171 88.008359 75.714633 89.54039 74.767558S92.228415 72.692352 93.008357 71.383157S94.373256 68.917976 94.763231 67.91519S95.348189 66.188168 95.348189 65.742488C95.348189 64.23831 94.805014 63.054463 93.718663 62.190956S91.309195 60.895692 89.749304 60.895692Z" fill="#da0a0a" />
<path d="M89.665738 151.193445C88.885794 151.193445 87.869081 150.928821 86.615599 150.399573S83.997217 149.062526 82.520891 147.976175S79.777162 145.31601 78.718663 143.254726S77.130919 138.853609 77.130919 136.235227C77.130919 135.232442 76.406685 134.731049 74.958217 134.731049C73.454039 134.731049 72.70195 135.232442 72.70195 136.235227C72.70195 138.965035 72.186629 141.388434 71.155989 143.505422S68.857939 147.196233 67.35376 148.226871S64.484682 150.009598 63.259053 150.483138C62.033423 150.956676 61.002786 151.193445 60.167131 151.193445C57.883011 151.193445 56.072423 150.580632 54.735376 149.355005S52.729805 146.430214 52.729805 144.257512C52.729805 143.477568 53.147632 142.140523 53.983287 140.24637S56.183841 136.430211 58.077994 134.480353S62.061284 131.555562 64.345404 131.555562C66.518106 131.555562 70.027855 131.973389 74.874652 132.809044C79.777162 131.973389 83.314763 131.555562 85.487465 131.555562C87.214487 131.555562 88.871866 132.126592 90.45961 133.268654S93.286905 135.747765 94.178273 137.279796C95.069641 138.811826 95.779947 140.232439 96.309192 141.541634S97.103064 143.756119 97.103064 144.257512C97.103064 146.430214 96.43454 148.129375 95.097493 149.355005S91.949858 151.193445 89.665738 151.193445ZM79.13649 135.900966C79.192201 137.906537 79.512535 139.717124 80.097493 141.332721S81.378827 144.229659 82.18663 145.176732S83.899721 146.903754 84.902507 147.516565S86.78273 148.547202 87.534819 148.770046S88.941501 149.104308 89.498607 149.104308C91.169916 149.104308 92.548747 148.672553 93.635097 147.809044S95.264624 145.76169 95.264624 144.257512C95.264624 143.811829 95.05571 143.059743 94.637883 142.001244S93.607245 139.78676 92.799443 138.533278S90.835655 136.179514 89.331476 135.232442S86.155989 133.811829 84.317549 133.811829C80.863513 133.811829 79.13649 134.508208 79.13649 135.900966ZM87.325905 123.031885C87.325905 124.48035 83.231198 125.204587 75.041783 125.204587C71.364903 125.204587 68.370476 125.009601 66.058496 124.619629S62.590529 123.728261 62.590529 123.11545C62.590529 122.279796 63.342618 121.861968 64.846797 121.861968C65.013928 121.861968 66.657384 122.001244 69.777159 122.279796S74.623955 122.697623 74.958217 122.697623C75.125348 122.697623 76.754875 122.558347 79.846797 122.279796S84.651811 121.861968 84.986072 121.861968C86.545964 121.861968 87.325905 122.251941 87.325905 123.031885ZM68.272981 150.942748C68.272981 153.338294 68.523677 155.093169 69.02507 156.207372S70.835657 158.602918 72.952646 160.051383V161.973389L69.526462 164.062526V167.070882H72.618384L73.62117 170.162804H76.462396L77.548747 167.070882H80.557103V164.062526L77.214485 161.973389V160.051383C79.164343 158.770049 80.417825 157.55835 80.97493 156.416286S81.810585 153.449712 81.810585 150.942748C84.428967 153.059737 87.130922 154.118236 89.916435 154.118236C92.813373 154.118236 95.278554 153.171163 97.311978 151.27701S100.362117 147.015172 100.362117 144.173946C100.362117 141.889826 99.275766 139.243584 97.103064 136.235227C95.766017 134.396787 94.860727 133.07367 94.387187 132.265868S93.412253 130.065314 92.883008 128.087595S92.061282 123.756122 92.005571 121.026314C91.894151 117.238016 86.211702 115.343863 74.958217 115.343863C63.816184 115.343863 58.16156 117.238016 57.994429 121.026314C57.938719 123.867539 57.59053 126.388434 56.949861 128.588988S55.738162 132.279799 55.236769 133.05974S53.955435 134.926032 52.896936 136.318793C50.724234 139.271436 49.637883 141.889826 49.637883 144.173946C49.637883 146.959459 50.654599 149.313222 52.688022 151.235227C54.721446 153.157233 57.158774 154.118236 60.0 154.118236C62.896939 154.118236 65.654599 153.059737 68.272981 150.942748ZM60.250696 149.104308C60.974931 149.104308 61.85237 148.895395 62.883008 148.477567C63.913646 148.05974 65.05571 147.391216 66.309192 146.471996S68.607242 144.160016 69.442897 142.293723S70.696379 138.268651 70.696379 135.8174C70.696379 134.480353 68.997217 133.811829 65.598886 133.811829C63.704733 133.811829 61.991641 134.285367 60.45961 135.232442S57.771585 137.307648 56.991643 138.616843S55.626744 141.082024 55.236769 142.08481S54.651811 143.811832 54.651811 144.257512C54.651811 145.76169 55.194986 146.945537 56.281337 147.809044S58.690805 149.104308 60.250696 149.104308Z" fill="#da0a0a" />
<path d="M148.356164 25.528003Q148.5 25.32024 148.5 25.032569Q148.468037 24.553117 148.308219 24.457226T147.700913 24.361336Q146.773973 24.361336 146.326484 24.02572T145.767123 23.194669T145.623288 21.900149V9.210651Q145.655251 8.411564 145.767123 7.916131T146.326484 7.08508T147.700913 6.749464H147.892694Q148.212329 6.749464 148.340183 6.637592T148.5 6.078231Q148.5 5.79056 148.356164 5.582797T147.924658 5.375035Q145.847032 5.470925 144.152968 5.470925Q142.23516 5.470925 140.157534 5.375035Q139.869863 5.375035 139.726027 5.582797T139.582192 6.078231Q139.614155 6.557683 139.773973 6.653574T140.381279 6.749464Q141.308219 6.749464 141.755708 7.08508T142.315068 7.916131T142.458904 9.210651V14.996039Q141.947489 14.900149 141.308219 14.45266T139.742009 13.206085Q137.952055 11.543984 135.23516 8.315674Q134.659817 7.676405 134.659817 7.292843Q134.659817 6.813391 135.522831 6.781427Q135.746575 6.749464 135.826484 6.605628T135.97032 6.110195Q135.97032 5.822523 135.810502 5.598779T135.394977 5.375035Q134.276256 5.470925 131.878995 5.470925Q131.111872 5.470925 129.641553 5.406998L128.97032 5.375035Q128.682648 5.375035 128.522831 5.582797T128.363014 6.110195Q128.394977 6.557683 128.554795 6.669555T129.002283 6.781427Q130.280822 6.7175 131.415525 7.196953T133.796804 8.92298L138.974886 14.324806Q137.856164 15.699236 136.673516 16.945811T133.828767 19.854487Q132.997717 20.685537 131.847032 21.900149Q131.495434 22.251747 131.36758 22.411564Q130.344749 23.434395 129.753425 23.849921T128.299087 24.361336Q128.23516 24.361336 128.011416 24.377318T127.643836 24.553117T127.5 25.032569Q127.5 25.32024 127.643836 25.528003T128.075342 25.735765Q128.458904 25.703802 129.002283 25.703802Q130.152968 25.639875 130.792237 25.639875H132.8379Q137.057078 20.941245 140.381279 17.105628Q141.40411 15.92298 142.458904 15.827089V21.900149Q142.426941 22.699236 142.315068 23.194669T141.755708 24.02572T140.381279 24.361336H140.189498Q139.869863 24.361336 139.742009 24.473208T139.582192 25.032569Q139.582192 25.32024 139.726027 25.528003T140.157534 25.735765Q142.203196 25.639875 144.121005 25.639875Q145.847032 25.639875 147.924658 25.735765Q148.212329 25.735765 148.356164 25.528003Z" fill="#da0a0a" />
<path d="M137.978064 34.950441C137.685586 33.868269 137.213963 33.071262 136.563196 32.559424S135.192201 31.791667 134.402507 31.791667C133.510445 31.791667 132.746344 32.09877 132.110202 32.712976S131.155989 34.065692 131.155989 34.928505C131.155989 35.718199 131.349756 36.522517 131.737291 37.341458S132.614728 38.950092 133.206999 39.710539S134.402507 41.235086 135.016713 42.002844S136.219533 43.644382 136.782556 44.624188S137.74408 46.576486 137.978064 47.541667C138.241295 46.532614 138.661735 45.519904 139.23938 44.50354S140.412953 42.587802 141.027159 41.80542C141.641365 41.023038 142.240946 40.25528 142.825905 39.502147S143.893455 37.992225 144.273677 37.231778S144.844011 35.747446 144.844011 35.060121C144.844011 34.138812 144.533251 33.363743 143.911734 32.734912C143.290217 32.106081 142.526113 31.791667 141.619429 31.791667C139.879179 31.791667 138.665383 32.844591 137.978064 34.950441Z" fill="#da0a0a" />
<path d="M1.643836 184.471997Q1.5 184.67976 1.5 184.967431Q1.531963 185.446883 1.691781 185.542774T2.299087 185.638664Q3.226027 185.638664 3.673516 185.97428T4.232877 186.805331T4.376712 188.099851V200.789349Q4.344749 201.588436 4.232877 202.083869T3.673516 202.91492T2.299087 203.250536H2.107306Q1.787671 203.250536 1.659817 203.362408T1.5 203.921769Q1.5 204.20944 1.643836 204.417203T2.075342 204.624965Q4.152968 204.529075 5.847032 204.529075Q7.76484 204.529075 9.842466 204.624965Q10.130137 204.624965 10.273973 204.417203T10.417808 203.921769Q10.385845 203.442317 10.226027 203.346426T9.618721 203.250536Q8.691781 203.250536 8.244292 202.91492T7.684932 202.083869T7.541096 200.789349V195.003961Q8.052511 195.099851 8.691781 195.54734T10.257991 196.793915Q12.047945 198.456016 14.76484 201.684326Q15.340183 202.323595 15.340183 202.707157Q15.340183 203.186609 14.477169 203.218573Q14.253425 203.250536 14.173516 203.394372T14.02968 203.889805Q14.02968 204.177477 14.189498 204.401221T14.605023 204.624965Q15.723744 204.529075 18.121005 204.529075Q18.888128 204.529075 20.358447 204.593002L21.02968 204.624965Q21.317352 204.624965 21.477169 204.417203T21.636986 203.889805Q21.605023 203.442317 21.445205 203.330445T20.997717 203.218573Q19.719178 203.2825 18.584475 202.803047T16.203196 201.07702L11.025114 195.675194Q12.143836 194.300764 13.326484 193.054189T16.171233 190.145513Q17.002283 189.314463 18.152968 188.099851Q18.504566 187.748253 18.63242 187.588436Q19.655251 186.565605 20.246575 186.150079T21.700913 185.638664Q21.76484 185.638664 21.988584 185.622682T22.356164 185.446883T22.5 184.967431Q22.5 184.67976 22.356164 184.471997T21.924658 184.264235Q21.541096 184.296198 20.997717 184.296198Q19.847032 184.360125 19.207763 184.360125H17.1621Q12.942922 189.058755 9.618721 192.894372Q8.59589 194.07702 7.541096 194.172911V188.099851Q7.573059 187.300764 7.684932 186.805331T8.244292 185.97428T9.618721 185.638664H9.810502Q10.130137 185.638664 10.257991 185.526792T10.417808 184.967431Q10.417808 184.67976 10.273973 184.471997T9.842466 184.264235Q7.796804 184.360125 5.878995 184.360125Q4.152968 184.360125 2.075342 184.264235Q1.787671 184.264235 1.643836 184.471997Z" fill="#da0a0a" />
<path d="M12.021936 175.049559C12.314414 176.131731 12.786037 176.928738 13.436804 177.440576S14.807799 178.208333 15.597493 178.208333C16.489555 178.208333 17.253656 177.90123 17.889798 177.287024S18.844011 175.934308 18.844011 175.071495C18.844011 174.281801 18.650244 173.477483 18.262709 172.658542S17.385272 171.049908 16.793001 170.289461S15.597493 168.764914 14.983287 167.997156S13.780467 166.355618 13.217444 165.375812S12.25592 163.423514 12.021936 162.458333C11.758705 163.467386 11.338265 164.480096 10.76062 165.49646S9.587047 167.412198 8.972841 168.19458C8.358635 168.976962 7.759054 169.74472 7.174095 170.497853S6.106545 172.007775 5.726323 172.768222S5.155989 174.252554 5.155989 174.939879C5.155989 175.861188 5.466749 176.636257 6.088266 177.265088C6.709783 177.893919 7.473887 178.208333 8.380571 178.208333C10.120821 178.208333 11.334617 177.155409 12.021936 175.049559Z" fill="#da0a0a" />
</svg>
