<svg width="150.000000" height="210.000000" id="card-webdiamond10">
<radialGradient id="card-webwhitegradient" cx="75.0" cy="105.0" r="150" gradientTransform="matrix(1 0 0 1 0 -.25)" gradientUnits="userSpaceOnUse">
<stop stop-color="#FDFAF4" offset=".15"/>
<stop stop-color="#FDF9F2" offset=".35"/>
<stop stop-color="#FCF7F1" offset=".5"/>
<stop stop-color="#FDFDF8" offset=".75"/>
<stop stop-color="#FFFDFA" offset="1"/>
</radialGradient>
<rect x="0" y="0" rx="7.5" ry="7.5" width="150" height="210.0" stroke="rgba(1,1,1,0.333)" fill="url(#card-webwhitegradient)" />
<path d="M45.041725 20.0C44.374131 21.335188 42.760777 23.734353 40.201669 27.197497C37.642561 30.66064 35.584131 33.254534 34.026426 34.979138C35.973576 37.204449 38.066758 39.847024 40.305981 42.906815C42.545203 45.966619 44.123783 48.331015 45.041725 50.0C47.100138 46.328234 50.744103 41.32128 55.973574 34.979138C50.604993 28.497928 46.961057 23.504868 45.041725 20.0Z" fill="#da0a0a" />
<path d="M44.958275 190.0C45.625869 188.664812 47.239223 186.265647 49.798331 182.802503C52.357439 179.33936 54.415869 176.745466 55.973574 175.020862C54.026424 172.795551 51.933242 170.152976 49.694019 167.093185C47.454797 164.033381 45.876217 161.668985 44.958275 160.0C42.899862 163.671766 39.255897 168.67872 34.026426 175.020862C39.395007 181.502072 43.038943 186.495132 44.958275 190.0Z" fill="#da0a0a" />
<path d="M45.041725 66.666667C44.374131 68.001854 42.760777 70.40102 40.201669 73.864163C37.642561 77.327306 35.584131 79.921201 34.026426 81.645804C35.973576 83.871116 38.066758 86.51369 40.305981 89.573482C42.545203 92.633286 44.123783 94.997682 45.041725 96.666667C47.100138 92.9949 50.744103 87.987946 55.973574 81.645804C50.604993 75.164594 46.961057 70.171535 45.041725 66.666667Z" fill="#da0a0a" />
<path d="M44.958275 143.333333C45.625869 141.998146 47.239223 139.59898 49.798331 136.135837C52.357439 132.672694 54.415869 130.078799 55.973574 128.354196C54.026424 126.128884 51.933242 123.48631 49.694019 120.426518C47.454797 117.366714 45.876217 115.002318 44.958275 113.333333C42.899862 117.0051 39.255897 122.012054 34.026426 128.354196C39.395007 134.835406 43.038943 139.828465 44.958275 143.333333Z" fill="#da0a0a" />
<path d="M105.041725 20.0C104.374131 21.335188 102.760777 23.734353 100.201669 27.197497C97.642561 30.66064 95.584131 33.254534 94.026426 34.979138C95.973576 37.204449 98.066758 39.847024 100.305981 42.906815C102.545203 45.966619 104.123783 48.331015 105.041725 50.0C107.100138 46.328234 110.744103 41.32128 115.973574 34.979138C110.604993 28.497928 106.961057 23.504868 105.041725 20.0Z" fill="#da0a0a" />
<path d="M104.958275 190.0C105.625869 188.664812 107.239223 186.265647 109.798331 182.802503C112.357439 179.33936 114.415869 176.745466 115.973574 175.020862C114.026424 172.795551 111.933242 170.152976 109.694019 167.093185C107.454797 164.033381 105.876217 161.668985 104.958275 160.0C102.899862 163.671766 99.255897 168.67872 94.026426 175.020862C99.395007 181.502072 103.038943 186.495132 104.958275 190.0Z" fill="#da0a0a" />
<path d="M105.041725 66.666667C104.374131 68.001854 102.760777 70.40102 100.201669 73.864163C97.642561 77.327306 95.584131 79.921201 94.026426 81.645804C95.973576 83.871116 98.066758 86.51369 100.305981 89.573482C102.545203 92.633286 104.123783 94.997682 105.041725 96.666667C107.100138 92.9949 110.744103 87.987946 115.973574 81.645804C110.604993 75.164594 106.961057 70.171535 105.041725 66.666667Z" fill="#da0a0a" />
<path d="M104.958275 143.333333C105.625869 141.998146 107.239223 139.59898 109.798331 136.135837C112.357439 132.672694 114.415869 130.078799 115.973574 128.354196C114.026424 126.128884 111.933242 123.48631 109.694019 120.426518C107.454797 117.366714 105.876217 115.002318 104.958275 113.333333C102.899862 117.0051 99.255897 122.012054 94.026426 128.354196C99.395007 134.835406 103.038943 139.828465 104.958275 143.333333Z" fill="#da0a0a" />
<path d="M75.041725 43.333333C74.374131 44.668521 72.760777 47.067687 70.201669 50.53083C67.642561 53.993973 65.584131 56.587867 64.026426 58.312471C65.973576 60.537783 68.066758 63.180357 70.305981 66.240148C72.545203 69.299952 74.123783 71.664349 75.041725 73.333333C77.100138 69.661567 80.744103 64.654613 85.973574 58.312471C80.604993 51.831261 76.961057 46.838201 75.041725 43.333333Z" fill="#da0a0a" />
<path d="M74.958275 166.666667C75.625869 165.331479 77.239223 162.932313 79.798331 159.46917C82.357439 156.006027 84.415869 153.412133 85.973574 151.687529C84.026424 149.462217 81.933242 146.819643 79.694019 143.759852C77.454797 140.700048 75.876217 138.335651 74.958275 136.666667C72.899862 140.338433 69.255897 145.345387 64.026426 151.687529C69.395007 158.168739 73.038943 163.161799 74.958275 166.666667Z" fill="#da0a0a" />
<path d="M148.353582 24.909945Q148.328128 24.451764 148.239038 24.299036T147.946314 24.146309Q146.520874 24.146309 145.922698 23.974491T145.031798 23.077218T144.739073 20.633582V12.691764Q144.713619 10.897218 144.853617 10.114491T145.349976 9.102673T146.520874 8.873582H147.768134Q148.226311 8.873582 148.226311 7.957218Q148.200857 7.384491 148.073585 7.250855T147.755407 7.117218H147.488137Q146.419056 7.117218 145.400885 6.601764T143.186361 5.360855Q143.033636 5.284491 142.931818 5.284491Q142.52455 5.284491 142.52455 6.162673V20.633582Q142.52455 22.313582 142.25728 23.039036T141.417288 23.9554T139.571852 24.146309H139.317309Q139.113675 24.146309 139.024585 24.299036T138.910041 24.909945Q138.910041 25.826309 139.368218 25.826309Q141.200927 25.711764 143.644539 25.711764Q146.062696 25.711764 147.895405 25.826309Q148.353582 25.826309 148.353582 24.909945ZM137.051778 24.604491Q138.413583 23.153582 139.088121 20.748127T139.76266 15.517218Q139.76266 12.653582 139.088121 10.286309T137.051778 6.487218T133.704539 5.0554Q131.820921 5.0554 130.44639 6.506309T128.359138 10.362673T127.646418 15.517218T128.359138 20.671764T130.44639 24.566309T133.704539 26.0554Q135.689973 26.0554 137.051778 24.604491ZM131.031838 22.2754Q130.090029 19.908127 130.090029 15.517218T131.031838 8.797218T133.679084 6.468127Q135.435431 6.468127 136.377239 8.778127T137.319048 15.517218T136.377239 22.294491T133.679084 24.642673Q131.973647 24.642673 131.031838 22.2754Z" fill="#da0a0a" />
<path d="M138.021905 31.791667C137.671419 32.49264 136.824408 33.752202 135.480876 35.570352C134.137344 37.388503 133.056669 38.750297 132.238873 39.655714C133.261127 40.824003 134.360048 42.211354 135.53564 43.817745C136.711232 45.424142 137.539986 46.66545 138.021905 47.541667C139.102572 45.613989 141.015654 42.985338 143.761127 39.655714C140.942621 36.253079 139.029555 33.631722 138.021905 31.791667Z" fill="#da0a0a" />
<path d="M1.646418 185.090055Q1.671872 185.548236 1.760962 185.700964T2.053686 185.853691Q3.479126 185.853691 4.077302 186.025509T4.968203 186.922782T5.260927 189.366418V197.308236Q5.286381 199.102782 5.146383 199.885509T4.650024 200.897327T3.479126 201.126418H2.231866Q1.773689 201.126418 1.773689 202.042782Q1.799143 202.615509 1.926415 202.749145T2.244593 202.882782H2.511863Q3.580944 202.882782 4.599115 203.398236T6.813639 204.639145Q6.966364 204.715509 7.068182 204.715509Q7.47545 204.715509 7.47545 203.837327V189.366418Q7.47545 187.686418 7.74272 186.960964T8.582712 186.0446T10.428148 185.853691H10.682691Q10.886325 185.853691 10.975415 185.700964T11.089959 185.090055Q11.089959 184.173691 10.631782 184.173691Q8.799073 184.288236 6.355461 184.288236Q3.937304 184.288236 2.104595 184.173691Q1.646418 184.173691 1.646418 185.090055ZM12.948222 185.395509Q11.586417 186.846418 10.911879 189.251873T10.23734 194.482782Q10.23734 197.346418 10.911879 199.713691T12.948222 203.512782T16.295461 204.9446Q18.179079 204.9446 19.55361 203.493691T21.640862 199.637327T22.353582 194.482782T21.640862 189.328236T19.55361 185.433691T16.295461 183.9446Q14.310027 183.9446 12.948222 185.395509ZM18.968162 187.7246Q19.909971 190.091873 19.909971 194.482782T18.968162 201.202782T16.320916 203.531873Q14.564569 203.531873 13.622761 201.221873T12.680952 194.482782T13.622761 187.705509T16.320916 185.357327Q18.026353 185.357327 18.968162 187.7246Z" fill="#da0a0a" />
<path d="M11.978095 178.208333C12.328581 177.50736 13.175592 176.247798 14.519124 174.429648C15.862656 172.611497 16.943331 171.249703 17.761127 170.344286C16.738873 169.175997 15.639952 167.788646 14.46436 166.182255C13.288768 164.575858 12.460014 163.33455 11.978095 162.458333C10.897428 164.386011 8.984346 167.014662 6.238873 170.344286C9.057379 173.746921 10.970445 176.368278 11.978095 178.208333Z" fill="#da0a0a" />
</svg>
