<svg width="25.000000" height="35.000000" id="card-lightdiamond13">
<rect x="0" y="0" rx="1.25" ry="1.25" width="25" height="35.0" stroke="rgba(1,1,1,0.333)" fill="#fffdfa" />
<rect x="5.0" y="3.5" width="15.0" height="28.0" stroke="#010101" fill="#fffdfa" />
<path d="M10.010431 9.316262C9.899166 9.316262 9.760083 9.34176 9.593185 9.392757S9.238526 9.522567 9.029903 9.629196S8.645108 9.909679 8.501391 10.150754S8.285814 10.669993 8.285814 10.985246C8.285814 11.235594 8.329856 11.458125 8.417942 11.65284S8.614975 12.023726 8.744784 12.181352C8.874594 12.338978 9.006722 12.515149 9.141168 12.709864S9.396152 13.185062 9.502782 13.55131S9.671999 14.351032 9.690542 14.851728C9.709087 15.472961 10.645573 15.783577 12.5 15.783577C14.34516 15.783577 15.281641 15.472961 15.309458 14.851728C15.346546 14.202678 15.441586 13.66953 15.594576 13.252284S15.905192 12.552238 16.067455 12.403883S16.378071 12.065451 16.512517 11.833647S16.714186 11.319043 16.714186 10.985246C16.714186 10.660722 16.642327 10.377921 16.498609 10.136846S16.17872 9.721918 15.970097 9.615288S15.571395 9.432163 15.399861 9.385803S15.082291 9.316262 14.961752 9.316262C14.507417 9.316262 14.053083 9.497068 13.598748 9.858682C13.598748 9.422892 13.557024 9.114593 13.473574 8.933786S13.176866 8.55131 12.833797 8.328779V7.994982L13.404033 7.661185V7.16049H12.88943L12.708623 6.631978H12.291377L12.11057 7.16049H11.595967V7.661185L12.166203 7.994982V8.328779C11.823134 8.542038 11.609875 8.748344 11.526426 8.947694S11.401252 9.450708 11.401252 9.858682C11.280714 9.738144 11.088317 9.617607 10.824061 9.497068S10.288595 9.316262 10.010431 9.316262ZM12.5 11.096512C12.444367 10.994519 12.365554 10.864708 12.263561 10.707082S12.094344 10.440508 12.061892 10.38024S11.996987 10.227249 11.964534 10.102075S11.915855 9.830865 11.915855 9.663967C11.915855 9.116911 12.105935 8.843383 12.486092 8.843383C12.884794 8.843383 13.084145 9.116911 13.084145 9.663967C13.084145 9.830865 13.067918 9.976902 13.035466 10.102075S12.970561 10.322288 12.938108 10.387194S12.838433 10.561046 12.736439 10.714036S12.555633 10.994519 12.5 11.096512ZM10.024339 9.816957C10.478675 9.816957 10.946917 10.051078 11.429068 10.519322S12.184747 11.597208 12.249652 12.348251C12.249652 12.570782 11.401252 12.682048 9.704451 12.682048C9.685906 12.663503 9.579277 12.533693 9.384562 12.292618C9.189847 12.051543 9.041492 11.831329 8.939499 11.631978S8.786509 11.244867 8.786509 11.068696C8.786509 10.69781 8.904729 10.396466 9.141168 10.164662S9.671999 9.816957 10.024339 9.816957ZM9.954798 13.238376C10.22369 13.219832 10.513445 13.198969 10.824061 13.175789C11.134677 13.152609 11.352573 13.136382 11.477747 13.12711S11.739684 13.10393 11.888039 13.085386S12.152295 13.048297 12.235744 13.029753S12.407278 12.983392 12.5 12.946304C12.611266 12.992664 12.745712 13.032071 12.903338 13.064523S13.202364 13.117838 13.327538 13.12711S13.700741 13.152609 14.071627 13.175789S14.767038 13.219832 15.045202 13.238376C14.95248 13.590717 14.892211 13.980146 14.864395 14.406665C14.224618 14.202678 13.436481 14.100685 12.5 14.100685C11.544969 14.100685 10.756843 14.202678 10.135605 14.406665C10.107789 13.943059 10.04752 13.553629 9.954798 13.238376ZM14.975661 9.816957C15.309458 9.816957 15.599211 9.932859 15.844924 10.164662S16.213491 10.69781 16.213491 11.068696C16.213491 11.198506 16.176402 11.342224 16.102225 11.49985S15.953871 11.791922 15.879694 11.903188S15.698887 12.158171 15.559805 12.334342C15.420723 12.510514 15.332638 12.626415 15.295549 12.682048C13.598748 12.682048 12.750348 12.570782 12.750348 12.348251C12.815253 11.597208 13.086463 10.987565 13.563978 10.519322S14.512054 9.816957 14.975661 9.816957ZM12.486092 14.657013C13.784191 14.657013 14.433241 14.777551 14.433241 15.018626C14.433241 15.102075 14.210709 15.166981 13.765647 15.213341S12.898702 15.282882 12.5 15.282882C11.211172 15.282882 10.566759 15.194797 10.566759 15.018626C10.566759 14.777551 11.206537 14.657013 12.486092 14.657013Z" fill="#da0a0a" />
<path d="M14.989569 25.683738C15.100834 25.683738 15.239917 25.65824 15.406815 25.607243S15.761474 25.477433 15.970097 25.370804S16.354892 25.090321 16.498609 24.849246S16.714186 24.330007 16.714186 24.014754C16.714186 23.764406 16.670144 23.541875 16.582058 23.34716S16.385025 22.976274 16.255216 22.818648C16.125406 22.661022 15.993278 22.484851 15.858832 22.290136S15.603848 21.814938 15.497218 21.44869S15.328001 20.648968 15.309458 20.148272C15.290913 19.527039 14.354427 19.216423 12.5 19.216423C10.65484 19.216423 9.718359 19.527039 9.690542 20.148272C9.653454 20.797322 9.558414 21.33047 9.405424 21.747716S9.094808 22.447762 8.932545 22.596117S8.621929 22.934549 8.487483 23.166353S8.285814 23.680957 8.285814 24.014754C8.285814 24.339278 8.357673 24.622079 8.501391 24.863154S8.82128 25.278082 9.029903 25.384712S9.428605 25.567837 9.600139 25.614197S9.917709 25.683738 10.038248 25.683738C10.492583 25.683738 10.946917 25.502932 11.401252 25.141318C11.401252 25.577108 11.442976 25.885407 11.526426 26.066214S11.823134 26.44869 12.166203 26.671221V27.005018L11.595967 27.338815V27.83951H12.11057L12.291377 28.368022H12.708623L12.88943 27.83951H13.404033V27.338815L12.833797 27.005018V26.671221C13.176866 26.457962 13.390125 26.251656 13.473574 26.052306S13.598748 25.549292 13.598748 25.141318C13.719286 25.261856 13.911683 25.382393 14.175939 25.502932S14.711405 25.683738 14.989569 25.683738ZM12.5 23.903488C12.555633 24.005481 12.634446 24.135292 12.736439 24.292918S12.905656 24.559492 12.938108 24.61976S13.003013 24.772751 13.035466 24.897925S13.084145 25.169135 13.084145 25.336033C13.084145 25.883089 12.894065 26.156617 12.513908 26.156617C12.115206 26.156617 11.915855 25.883089 11.915855 25.336033C11.915855 25.169135 11.932082 25.023098 11.964534 24.897925S12.029439 24.677712 12.061892 24.612806S12.161567 24.438954 12.263561 24.285964S12.444367 24.005481 12.5 23.903488ZM14.975661 25.183043C14.521325 25.183043 14.053083 24.948922 13.570932 24.480678S12.815253 23.402792 12.750348 22.651749C12.750348 22.429218 13.598748 22.317952 15.295549 22.317952C15.314094 22.336497 15.420723 22.466307 15.615438 22.707382C15.810153 22.948457 15.958508 23.168671 16.060501 23.368022S16.213491 23.755133 16.213491 23.931304C16.213491 24.30219 16.095271 24.603534 15.858832 24.835338S15.328001 25.183043 14.975661 25.183043ZM15.045202 21.761624C14.77631 21.780168 14.486555 21.801031 14.175939 21.824211C13.865323 21.847391 13.647427 21.863618 13.522253 21.87289S13.260316 21.89607 13.111961 21.914614S12.847705 21.951703 12.764256 21.970247S12.592722 22.016608 12.5 22.053696C12.388734 22.007336 12.254288 21.967929 12.096662 21.935477S11.797636 21.882162 11.672462 21.87289S11.299259 21.847391 10.928373 21.824211S10.232962 21.780168 9.954798 21.761624C10.04752 21.409283 10.107789 21.019854 10.135605 20.593335C10.775382 20.797322 11.563519 20.899315 12.5 20.899315C13.455031 20.899315 14.243157 20.797322 14.864395 20.593335C14.892211 21.056941 14.95248 21.446371 15.045202 21.761624ZM10.024339 25.183043C9.690542 25.183043 9.400789 25.067141 9.155076 24.835338S8.786509 24.30219 8.786509 23.931304C8.786509 23.801494 8.823598 23.657776 8.897775 23.50015S9.046129 23.208078 9.120306 23.096812S9.301113 22.841829 9.440195 22.665658C9.579277 22.489486 9.667362 22.373585 9.704451 22.317952C11.401252 22.317952 12.249652 22.429218 12.249652 22.651749C12.184747 23.402792 11.913537 24.012435 11.436022 24.480678S10.487946 25.183043 10.024339 25.183043ZM12.513908 20.342987C11.215809 20.342987 10.566759 20.222449 10.566759 19.981374C10.566759 19.897925 10.789291 19.833019 11.234353 19.786659S12.101298 19.717118 12.5 19.717118C13.788828 19.717118 14.433241 19.805203 14.433241 19.981374C14.433241 20.222449 13.793463 20.342987 12.513908 20.342987Z" fill="#da0a0a" />
<path d="M24.726027 4.254667Q24.75 4.22004 24.75 4.172095Q24.744673 4.092186 24.718037 4.076204T24.616819 4.060223Q24.462329 4.060223 24.387747 4.004287T24.294521 3.865778T24.270548 3.650025V1.535109Q24.275875 1.401927 24.294521 1.319355T24.387747 1.180847T24.616819 1.124911H24.648782Q24.702055 1.124911 24.723364 1.106265T24.75 1.013039Q24.75 0.965093 24.726027 0.930466T24.65411 0.895839Q24.307839 0.911821 24.025495 0.911821Q23.70586 0.911821 23.359589 0.895839Q23.311644 0.895839 23.287671 0.930466T23.263699 1.013039Q23.269026 1.092947 23.295662 1.108929T23.39688 1.124911Q23.55137 1.124911 23.625951 1.180847T23.719178 1.319355T23.743151 1.535109V2.49934Q23.657915 2.483358 23.55137 2.408777T23.290335 2.201014Q22.992009 1.923997 22.539193 1.385946Q22.443303 1.279401 22.443303 1.215474Q22.443303 1.135565 22.587139 1.130238Q22.624429 1.124911 22.637747 1.100938T22.66172 1.018366Q22.66172 0.970421 22.635084 0.93313T22.56583 0.895839Q22.379376 0.911821 21.979833 0.911821Q21.851979 0.911821 21.606925 0.901166L21.495053 0.895839Q21.447108 0.895839 21.420472 0.930466T21.393836 1.018366Q21.399163 1.092947 21.425799 1.111593T21.500381 1.130238Q21.71347 1.119583 21.902588 1.199492T22.299467 1.487163L23.162481 2.387468Q22.976027 2.616539 22.778919 2.824302T22.304795 3.309081Q22.166286 3.447589 21.974505 3.650025Q21.915906 3.708625 21.894597 3.735261Q21.724125 3.905733 21.625571 3.974987T21.383181 4.060223Q21.372527 4.060223 21.335236 4.062886T21.273973 4.092186T21.25 4.172095Q21.25 4.22004 21.273973 4.254667T21.34589 4.289294Q21.409817 4.283967 21.500381 4.283967Q21.692161 4.273312 21.798706 4.273312H22.13965Q22.842846 3.490207 23.39688 2.850938Q23.567352 2.65383 23.743151 2.637848V3.650025Q23.737823 3.783206 23.719178 3.865778T23.625951 4.004287T23.39688 4.060223H23.364916Q23.311644 4.060223 23.290335 4.078868T23.263699 4.172095Q23.263699 4.22004 23.287671 4.254667T23.359589 4.289294Q23.700533 4.273312 24.020167 4.273312Q24.307839 4.273312 24.65411 4.289294Q24.702055 4.289294 24.726027 4.254667Z" fill="#da0a0a" />
<path d="M23.003651 5.298611C22.945236 5.41544 22.804068 5.625367 22.580146 5.928392C22.356224 6.231417 22.176111 6.458383 22.039812 6.609286C22.210188 6.804 22.393341 7.035226 22.589273 7.302957C22.785205 7.57069 22.923331 7.777575 23.003651 7.923611C23.183762 7.602332 23.502609 7.164223 23.960188 6.609286C23.490437 6.04218 23.171592 5.605287 23.003651 5.298611Z" fill="#da0a0a" />
<path d="M0.273973 30.745333Q0.25 30.77996 0.25 30.827905Q0.255327 30.907814 0.281963 30.923796T0.383181 30.939777Q0.537671 30.939777 0.612253 30.995713T0.705479 31.134222T0.729452 31.349975V33.464891Q0.724125 33.598073 0.705479 33.680645T0.612253 33.819153T0.383181 33.875089H0.351218Q0.297945 33.875089 0.276636 33.893735T0.25 33.986961Q0.25 34.034907 0.273973 34.069534T0.34589 34.104161Q0.692161 34.088179 0.974505 34.088179Q1.29414 34.088179 1.640411 34.104161Q1.688356 34.104161 1.712329 34.069534T1.736301 33.986961Q1.730974 33.907053 1.704338 33.891071T1.60312 33.875089Q1.44863 33.875089 1.374049 33.819153T1.280822 33.680645T1.256849 33.464891V32.50066Q1.342085 32.516642 1.44863 32.591223T1.709665 32.798986Q2.007991 33.076003 2.460807 33.614054Q2.556697 33.720599 2.556697 33.784526Q2.556697 33.864435 2.412861 33.869762Q2.375571 33.875089 2.362253 33.899062T2.33828 33.981634Q2.33828 34.029579 2.364916 34.06687T2.43417 34.104161Q2.620624 34.088179 3.020167 34.088179Q3.148021 34.088179 3.393075 34.098834L3.504947 34.104161Q3.552892 34.104161 3.579528 34.069534T3.606164 33.981634Q3.600837 33.907053 3.574201 33.888407T3.499619 33.869762Q3.28653 33.880417 3.097412 33.800508T2.700533 33.512837L1.837519 32.612532Q2.023973 32.383461 2.221081 32.175698T2.695205 31.690919Q2.833714 31.552411 3.025495 31.349975Q3.084094 31.291375 3.105403 31.264739Q3.275875 31.094267 3.374429 31.025013T3.616819 30.939777Q3.627473 30.939777 3.664764 30.937114T3.726027 30.907814T3.75 30.827905Q3.75 30.77996 3.726027 30.745333T3.65411 30.710706Q3.590183 30.716033 3.499619 30.716033Q3.307839 30.726688 3.201294 30.726688H2.86035Q2.157154 31.509793 1.60312 32.149062Q1.432648 32.34617 1.256849 32.362152V31.349975Q1.262177 31.216794 1.280822 31.134222T1.374049 30.995713T1.60312 30.939777H1.635084Q1.688356 30.939777 1.709665 30.921132T1.736301 30.827905Q1.736301 30.77996 1.712329 30.745333T1.640411 30.710706Q1.299467 30.726688 0.979833 30.726688Q0.692161 30.726688 0.34589 30.710706Q0.297945 30.710706 0.273973 30.745333Z" fill="#da0a0a" />
<path d="M1.996349 29.701389C2.054764 29.58456 2.195932 29.374633 2.419854 29.071608C2.643776 28.768583 2.823889 28.541617 2.960188 28.390714C2.789812 28.196 2.606659 27.964774 2.410727 27.697043C2.214795 27.42931 2.076669 27.222425 1.996349 27.076389C1.816238 27.397668 1.497391 27.835777 1.039812 28.390714C1.509563 28.95782 1.828408 29.394713 1.996349 29.701389Z" fill="#da0a0a" />
</svg>
